<svg height="40" viewBox="0 0 40 40" width="40" xmlns="http://www.w3.org/2000/svg"><g fill="none" fill-rule="evenodd"><path d="m25.0332031 27v-1.9892578h-6.8085937l3.3735351-3.5683594c1.0322266-1.1347656 1.7841797-2.081543 2.2558594-2.840332.4716797-.7587891.7075195-1.5756836.7075195-2.4506836 0-1.3056641-.4101562-2.3481445-1.2304687-3.1274414s-1.9619141-1.1689453-3.4248047-1.1689453c-1.5996094 0-2.845459.4494629-3.7375488 1.3483886-.8920899.8989258-1.3381348 2.0388184-1.3381348 3.4196778h2.4916992c0-.881836.2084961-1.5637207.6254883-2.0456543s1.0698242-.7229004 1.9584961-.7229004c.6767578 0 1.206543.222168 1.5893555.6665039s.5742187 1.0083008.5742187 1.6918945c0 .5400391-.1469726 1.0817871-.440918 1.6252442-.2939453.543457-.8442382 1.2595214-1.6508789 2.1481933l-4.8603515 5.3012696v1.7124023z" fill="#fff" fill-rule="nonzero"/><circle cx="20" cy="20" r="19" stroke="#fff" stroke-width="2"/></g></svg>