<svg height="40" viewBox="0 0 40 40" width="40" xmlns="http://www.w3.org/2000/svg"><g fill="none" fill-rule="evenodd"><path d="m19.7114258 27.215332c1.4902344 0 2.6984863-.3845215 3.6247558-1.1535644.9262696-.769043 1.3894043-1.8508301 1.3894043-3.2453614 0-.8066406-.1948242-1.5107421-.5844726-2.1123046-.3896485-.6015625-1.0185547-1.0561524-1.8867188-1.3637696.7382813-.3349609 1.2971192-.7946777 1.6765137-1.3791504.3793945-.5844726.5690918-1.201416.5690918-1.85083 0-1.3876954-.4272461-2.4438477-1.2817383-3.1684571-.8544922-.7246093-2.0234375-1.086914-3.5068359-1.086914-1.4082031 0-2.5532227.3845215-3.4350586 1.1535644-.881836.769043-1.3227539 1.751709-1.3227539 2.9479981h2.4916992c0-.6425782.2102051-1.1535645.6306152-1.532959.4204102-.3793945.9758301-.5690918 1.6662598-.5690918.7587891 0 1.3261719.1931152 1.7021484.5793457.3759766.3862305.5639649.9450683.5639649 1.6765137 0 .7451172-.1726074 1.3142089-.5178223 1.7072754-.3452148.3930664-.9313965.5895996-1.7585449.5895996h-1.7329102v1.9584961h1.7329102c.8681641 0 1.5021973.1948242 1.9020996.5844726.3999023.3896485.5998535 1.0151367.5998535 1.8764649 0 .7792968-.21875 1.3740234-.65625 1.7841796-.4375.4101563-1.0493164.6152344-1.8354492.6152344-.7519531 0-1.3466797-.2016601-1.7841797-.6049804-.4375-.4033204-.65625-.9433594-.65625-1.6201172h-2.4916992c0 1.3603515.4648437 2.402832 1.3945312 3.1274414.9296875.7246093 2.0986329 1.086914 3.506836 1.086914z" fill="#fff" fill-rule="nonzero"/><circle cx="20" cy="20" r="19" stroke="#fff" stroke-width="2"/></g></svg>