<svg height="122" viewBox="0 0 300 122" width="300" xmlns="http://www.w3.org/2000/svg" xmlns:xlink="http://www.w3.org/1999/xlink"><defs><path id="a" d="m39.1709153 86c-8.4085196 0-12.4582458-15.0147767-14.1399498-8.461646-1.6817039 6.5531307-35.3157825 9.8296961-21.86215106 6.5531307 8.96908766-2.1843769 13.48407436-13.5656802 13.54496026-34.1439099-.2757894-18.6989852-.2757894-28.8067702 0-30.3233549.0243142-.1337053.1195481-.2459313.2857018-.3366779l.0005235-1.3475414c0-9.90798874 8.0320119-17.9400006 17.9400006-17.9400006h215.1199984c9.907989 0 17.940001 8.03201186 17.940001 17.9400006v50.1199988c0 9.9079887-8.032012 17.9400006-17.940001 17.9400006z"/><filter id="b" height="164%" width="120.5%" x="-10.3%" y="-30.8%"><feOffset dx="0" dy="6" in="SourceAlpha" result="shadowOffsetOuter1"/><feGaussianBlur in="shadowOffsetOuter1" result="shadowBlurOuter1" stdDeviation="5"/><feColorMatrix in="shadowBlurOuter1" result="shadowMatrixOuter1" type="matrix" values="0 0 0 0 0   0 0 0 0 0   0 0 0 0 0  0 0 0 0.141176471 0"/><feOffset dx="0" dy="1" in="SourceAlpha" result="shadowOffsetOuter2"/><feGaussianBlur in="shadowOffsetOuter2" result="shadowBlurOuter2" stdDeviation="9"/><feColorMatrix in="shadowBlurOuter2" result="shadowMatrixOuter2" type="matrix" values="0 0 0 0 0   0 0 0 0 0   0 0 0 0 0  0 0 0 0.121568627 0"/><feMorphology in="SourceAlpha" operator="erode" radius="0.5" result="shadowSpreadOuter3"/><feOffset dx="0" dy="3" in="shadowSpreadOuter3" result="shadowOffsetOuter3"/><feGaussianBlur in="shadowOffsetOuter3" result="shadowBlurOuter3" stdDeviation="2.5"/><feColorMatrix in="shadowBlurOuter3" result="shadowMatrixOuter3" type="matrix" values="0 0 0 0 0   0 0 0 0 0   0 0 0 0 0  0 0 0 0.2 0"/><feMerge><feMergeNode in="shadowMatrixOuter1"/><feMergeNode in="shadowMatrixOuter2"/><feMergeNode in="shadowMatrixOuter3"/></feMerge></filter></defs><g fill="none" fill-rule="evenodd" opacity=".9" transform="matrix(-1 0 0 1 286 17)"><use fill="#000" filter="url(#b)" xlink:href="#a"/><use fill="#f05024" fill-rule="evenodd" xlink:href="#a"/></g></svg>