<svg id="Icons_calculator" data-name="Icons/calculator" xmlns="http://www.w3.org/2000/svg" width="64" height="64" viewBox="0 0 64 64">
  <path id="Shape" d="M45.449,53.333H33.12a7.827,7.827,0,0,1-6.437-3.458,8.211,8.211,0,0,1-6.727,3.458H8.136A8.022,8.022,0,0,1,0,45.449V33.12a7.827,7.827,0,0,1,3.458-6.437A8.211,8.211,0,0,1,0,19.956V8.136A8.022,8.022,0,0,1,7.884,0H20.213a7.818,7.818,0,0,1,6.434,3.458A8.22,8.22,0,0,1,33.377,0H45.2a8.022,8.022,0,0,1,8.136,7.884V20.21a7.82,7.82,0,0,1-3.458,6.437,8.22,8.22,0,0,1,3.458,6.73V45.2A8.021,8.021,0,0,1,45.449,53.333ZM28.09,28.09V45.2a5.168,5.168,0,0,0,5.03,5.285H45.446A5.17,5.17,0,0,0,50.482,45.2V33.377a5.172,5.172,0,0,0-5.035-5.287H28.09Zm-19.954,0a5.169,5.169,0,0,0-5.287,5.03V45.446a5.172,5.172,0,0,0,5.287,5.035h11.82a5.17,5.17,0,0,0,5.285-5.035V28.09ZM33.377,2.849a5.17,5.17,0,0,0-5.285,5.035V25.241H45.2a5.168,5.168,0,0,0,5.285-5.03V7.884A5.17,5.17,0,0,0,45.2,2.849Zm-25.493,0A5.172,5.172,0,0,0,2.849,8.136v11.82a5.17,5.17,0,0,0,5.035,5.285H25.241V8.136a5.168,5.168,0,0,0-5.028-5.287Zm9.71,41.412a1.425,1.425,0,0,1-1.006-.418L14.045,41.3,11.5,43.841A1.424,1.424,0,0,1,9.49,41.827l2.542-2.542L9.49,36.744a1.426,1.426,0,1,1,2.016-2.016l2.542,2.542,2.542-2.542A1.425,1.425,0,0,1,18.6,36.744l-2.542,2.542L18.6,41.827a1.426,1.426,0,0,1-1.008,2.434Zm26.71-.593H34.27a1.426,1.426,0,0,1,0-2.851H44.3a1.426,1.426,0,0,1,0,2.851Zm0-5.914H34.27a1.424,1.424,0,1,1,0-2.849H44.3a1.424,1.424,0,1,1,0,2.849ZM39.288,20.489a1.427,1.427,0,0,1-1.426-1.426V15.47H34.27a1.424,1.424,0,1,1,0-2.849h3.593v-3.6a1.424,1.424,0,0,1,2.849,0v3.6H44.3a1.424,1.424,0,1,1,0,2.849H40.711v3.593A1.426,1.426,0,0,1,39.288,20.489ZM19.066,15.47H9.026a1.424,1.424,0,1,1,0-2.849H19.063a1.424,1.424,0,0,1,0,2.849Z" transform="translate(5.333 5.333)"/>
</svg>
