<svg height="54" viewBox="0 0 54 54" width="54" xmlns="http://www.w3.org/2000/svg" xmlns:xlink="http://www.w3.org/1999/xlink"><filter id="a"><feColorMatrix in="SourceGraphic" type="matrix" values="0 0 0 0 1.000000 0 0 0 0 1.000000 0 0 0 0 1.000000 0 0 0 1.000000 0"/></filter><g fill="none" fill-rule="evenodd" filter="url(#a)" transform="translate(-5 -5)"><path d="m58.6658524 25.5448281v-12.3273589c0-4.34714463-3.6494099-7.88413587-8.1350412-7.88413587h-11.8210918c-2.7936469 0-5.2624133 1.37278251-6.7280397 3.45882569-1.4273574-2.08848585-3.7780594-3.45882569-6.436543-3.45882569h-12.3275471c-4.34721103 0-7.88425627 3.64935422-7.88425627 8.13491697v11.8209114c0 2.7944184 1.37280347 5.2623329 3.45887849 6.727937-2.08851773 1.4273356-3.45887849 3.7780017-3.45887849 6.4364447v12.3281732c0 4.3479588 3.64940994 7.8849501 8.13504117 7.8849501h11.8210918c2.7944612 0 5.2624133-1.3727825 6.7280398-3.4588257 1.4273573 2.0884858 3.7780594 3.4588257 6.4365429 3.4588257h12.3275472c4.3480252 0 7.8850705-3.6493543 7.8850705-8.134917v-11.8225398c0-2.7944185-1.3728035-5.2631472-3.4588785-6.7287513 2.0877035-1.4265213 3.4580642-3.7771875 3.4580642-6.4356305zm-45.4482628 5.0294648c-2.7757338 0-5.034427-2.3710218-5.034427-5.2851312v-11.8209114c0-2.9141095 2.2586932-5.28513121 5.034427-5.28513121h12.3275471c2.773291 0 5.0295415 2.37102171 5.0295415 5.28513121v17.1060426h-17.1063037zm17.3570886 20.2066095c0 2.7756913-2.3710579 5.0351643-5.2852119 5.0351643h-11.8210918c-2.914154 0-5.2852119-2.2586588-5.2852119-5.0351643v-12.3281732c0-2.7724345 2.3710579-5.0294648 5.2852119-5.0294648h17.1063037v17.1068568zm20.2061038-17.357638c2.7757337 0 5.0352412 2.371836 5.0352412 5.2859455v11.8209113c0 2.9141095-2.2586933 5.2851313-5.0352412 5.2851313h-12.3275472c-2.773291 0-5.0295415-2.3710218-5.0295415-5.2851313v-17.1068568h17.1063037zm5.0352412-7.8784363c0 2.7732487-2.371058 5.0286506-5.285212 5.0286506h-17.1063037v-17.1052284-.2507811c0-2.7756913 2.371058-5.03435011 5.2852119-5.03435011h11.8210918c2.914154 0 5.285212 2.25865881 5.285212 5.03435011zm-29.9932317-6.1661221c0 .7865409-.6383617 1.4248929-1.4249146 1.4248929h-10.0379129c-.7865529 0-1.4249147-.638352-1.4249147-1.4248929s.6383618-1.4248929 1.4249147-1.4248929h10.0370986c.7873672 0 1.4257289.6375378 1.4257289 1.4248929zm12.354417 28.1965945c0-.7873551.6375475-1.4248929 1.4249146-1.4248929h10.0362845c.7873671 0 1.4249146.6375378 1.4249146 1.4248929s-.6375475 1.4248929-1.4249146 1.4248929h-10.0362845c-.7873671 0-1.4249146-.6375378-1.4249146-1.4248929zm0-5.9120841c0-.7873551.6375475-1.4248929 1.4249146-1.4248929h10.0362845c.7873671 0 1.4249146.6375378 1.4249146 1.4248929s-.6375475 1.4248929-1.4249146 1.4248929h-10.0362845c-.7873671 0-1.4249146-.6375378-1.4249146-1.4248929zm12.8861137-22.2845104c0 .7865409-.6375475 1.4248929-1.4249146 1.4248929h-3.5932276v3.5939869c0 .7865409-.6375475 1.4248929-1.4249147 1.4248929-.7873671 0-1.4249146-.638352-1.4249146-1.4248929v-3.5939869h-3.5932276c-.7873671 0-1.4249146-.638352-1.4249146-1.4248929s.6375475-1.4248929 1.4249146-1.4248929h3.5932276v-3.5931727c0-.7865409.6375475-1.4248929 1.4249146-1.4248929.7873672 0 1.4249147.638352 1.4249147 1.4248929v3.5931727h3.5932276c.7873671 0 1.4249146.6375378 1.4249146 1.4248929zm-27.1287461 22.6997649-2.5404193 2.5411947 2.5412335 2.5411946c.5569381.5569296.5569381 1.4582761 0 2.0152057-.278469.2784648-.6432472.4176971-1.0072111.4176971s-.7295563-.1392323-1.0072111-.4176971l-2.5420477-2.5420089-2.5412334 2.5411946c-.2784691.2784648-.6432472.4176972-1.0072111.4176972s-.7295563-.1392324-1.0072111-.4176972c-.5569381-.5569295-.5569381-1.458276 0-2.0152056l2.5412335-2.5411947-2.5412335-2.5411946c-.5569381-.5569296-.5569381-1.4582761 0-2.0152057.556938-.5569295 1.4582983-.5569295 2.0152364 0l2.5412335 2.5411947 2.5412334-2.5411947c.5569381-.5569295 1.4582984-.5569295 2.0152364 0 .5569381.5569296.5553096 1.4599046-.0016284 2.0160199z" fill="#000"/></g></svg>