<?xml version="1.0" encoding="UTF-8"?>
<svg width="24px" height="24px" viewBox="0 0 24 24" version="1.1" xmlns="http://www.w3.org/2000/svg" xmlns:xlink="http://www.w3.org/1999/xlink">
    <title>2@2x</title>
    <g id="Design" stroke="none" stroke-width="1" fill="none" fill-rule="evenodd" opacity="0.5">
        <g id="Smileeasy-Payment-Plan" transform="translate(-936.000000, -6569.000000)">
            <g id="Online-Calculator" transform="translate(0.000000, 5505.000000)">
                <g id="Group-24" transform="translate(295.000000, 232.000000)">
                    <g id="2" transform="translate(641.000000, 832.000000)">
                        <circle id="Oval" fill="#565960" cx="12" cy="12" r="12"></circle>
                        <path d="M15.2468262,16.6877441 L15.2468262,15.2658691 L11.317627,15.2658691 L12.9934082,13.4377441 C13.717041,12.6590983 14.2280273,12.0391439 14.5263672,11.5778809 C14.824707,11.1166178 14.973877,10.6024577 14.973877,10.0354004 C14.973877,9.19327799 14.7062174,8.52888997 14.1708984,8.04223633 C13.6355794,7.55558268 12.8833822,7.31225586 11.9143066,7.31225586 C10.9325358,7.31225586 10.1602376,7.59895833 9.59741211,8.17236328 C9.03458659,8.74576823 8.75317383,9.46622721 8.75317383,10.3337402 L8.75317383,10.3337402 L10.6066895,10.3337402 C10.6066895,9.84285482 10.7156576,9.45458984 10.9335938,9.16894531 C11.1515299,8.88330078 11.4784342,8.74047852 11.9143066,8.74047852 C12.3078613,8.74047852 12.6072591,8.86214193 12.8125,9.10546875 C13.0177409,9.34879557 13.1203613,9.66935221 13.1203613,10.0671387 C13.1203613,10.3633626 13.0314941,10.6786296 12.8537598,11.0129395 C12.6760254,11.3472493 12.3671061,11.7661947 11.927002,12.2697754 L11.927002,12.2697754 L8.93725586,15.4753418 L8.93725586,16.6877441 L15.2468262,16.6877441 Z" fill="#FFFFFF" fill-rule="nonzero"></path>
                    </g>
                </g>
            </g>
        </g>
    </g>
</svg>