<?xml version="1.0" encoding="UTF-8"?>
<svg width="22px" height="21px" viewBox="0 0 22 21" version="1.1" xmlns="http://www.w3.org/2000/svg" xmlns:xlink="http://www.w3.org/1999/xlink">
    <title>Combined Shape</title>
    <g id="Design" stroke="none" stroke-width="1" fill="none" fill-rule="evenodd" opacity="0.5">
        <g id="Smileeasy-Payment-Plan" transform="translate(-927.000000, -9897.000000)" fill="#0299D8">
            <g id="Group-4" transform="translate(894.000000, 9879.347826)">
                <g id="Icons/Calendar" transform="translate(33.000000, 18.000000)">
                    <path d="M19.8,0 C21.0150264,0 22,0.8954305 22,2 L22,18 C22,19.1045695 21.0150264,20 19.8,20 L2.2,20 C0.98497355,20 0,19.1045695 0,18 L0,2 C0,0.8954305 0.98497355,0 2.2,0 L19.8,0 Z M21,5 L1,5 L1,18 C1,18.5522847 1.49746139,19 2.11111111,19 L19.8888889,19 C20.5025386,19 21,18.5522847 21,18 L21,5 Z M19,14 L16,14 L16,17 L3,17 L3,7 L19,7 L19,14 Z M6,14 L4,14 L4,16 L6,16 L6,14 Z M9,14 L7,14 L7,16 L9,16 L9,14 Z M12,14 L10,14 L10,16 L12,16 L12,14 Z M6,11 L4,11 L4,13 L6,13 L6,11 Z M9,11 L7,11 L7,13 L9,13 L9,11 Z M12,11 L10,11 L10,13 L12,13 L12,11 Z M15,11 L13,11 L13,13 L15,13 L15,11 Z M18,11 L16,11 L16,13 L18,13 L18,11 Z M6,8 L4,8 L4,10 L6,10 L6,8 Z M9,8 L7,8 L7,10 L9,10 L9,8 Z M12,8 L10,8 L10,10 L12,10 L12,8 Z M15,8 L13,8 L13,10 L15,10 L15,8 Z M18,8 L16,8 L16,10 L18,10 L18,8 Z" id="Combined-Shape"></path>
                </g>
            </g>
        </g>
    </g>
</svg>