<svg xmlns="http://www.w3.org/2000/svg" width="60" height="58" viewBox="0 0 60 58">
  <g id="noun_Dental_Chair_1945554" data-name="noun_Dental Chair_1945554" transform="translate(0)">
    <path id="Shape" d="M5,40a1,1,0,0,1-1-1,5.005,5.005,0,0,1,5-5H32V30.826l-6.944-1.335A4.082,4.082,0,0,1,19,25.91V22.061a6.982,6.982,0,0,1-1.646-1.092l-16.1-14.4A3.764,3.764,0,0,1,3.764,0h.192A3.751,3.751,0,0,1,6.445.941L22.327,14.96l15.466-1.82a7,7,0,0,1,2.515.16L57.05,17.475A3.9,3.9,0,0,1,60,21.262v.266a3.9,3.9,0,0,1-3.912,3.907,3.827,3.827,0,0,1-.937-.116h-.014l-16.213-4.3-9.3.979-.6,1.192,4.172.834h.026l17.329,3.938A6.965,6.965,0,0,1,56,34.79V39a1,1,0,0,1-1,1Z" transform="translate(0 18)"/>
    <rect id="Rectangle" width="2" height="2" transform="translate(22 42)"/>
    <path id="Shape-2" data-name="Shape" d="M0,23V3A3,3,0,0,1,3,0H24.675a3.325,3.325,0,0,1,1.052,6.478L16.684,9.492A1,1,0,0,0,16,10.44V12.1a4.994,4.994,0,0,1,2.466,1.31A2.994,2.994,0,0,1,24,15v3a3,3,0,0,1-3,3V19a1,1,0,0,0,1-1V15a1,1,0,0,0-2,0v2a5,5,0,0,1-10,0V15a1,1,0,1,0-2,0v3a1,1,0,0,0,1,1v2a3,3,0,0,1-3-3V15a2.994,2.994,0,0,1,5.534-1.591A4.982,4.982,0,0,1,14,12.1V10.441A3,3,0,0,1,16.051,7.6l9.043-3.019A1.324,1.324,0,0,0,24.675,2H3A1,1,0,0,0,2,3V23Z" transform="translate(32)"/>
    <rect id="Rectangle-2" data-name="Rectangle" width="2" height="2" transform="translate(46 16)"/>
    <path id="Path" d="M2,8H16v3h2V7a1,1,0,0,0-1-1H11V3A3,3,0,0,0,5,3V4H7V3A1,1,0,0,1,9,3V6H1A1,1,0,0,0,0,7V9H2Z" transform="translate(19 19)"/>
  </g>
</svg>
