<svg height="58" viewBox="0 0 60 58" width="60" xmlns="http://www.w3.org/2000/svg" xmlns:xlink="http://www.w3.org/1999/xlink"><filter id="a"><feColorMatrix in="SourceGraphic" type="matrix" values="0 0 0 0 1.000000 0 0 0 0 1.000000 0 0 0 0 1.000000 0 0 0 1.000000 0"/></filter><g fill="none" fill-rule="evenodd" filter="url(#a)" transform="translate(-588 -37)"><g fill="#000" fill-rule="nonzero" transform="translate(588 37)"><path d="m57.05 35.475-16.743-4.175c-.8214296-.2049205-1.6732195-.2591314-2.514-.16l-15.466 1.82-15.882-14.019c-.68748824-.6067994-1.5730238-.9414536-2.49-.9410005h-.191c-1.5604879 0-2.9591717.9628173-3.51615582 2.420518-.55698411 1.4577006-.15674763 3.1079163 1.00615582 4.1484825l16.1 14.4c.4941274.4401866 1.0483423.8078674 1.646 1.092v3.849c-.0028495 1.4460548.7595752 2.7856961 2.0043036 3.5217219 1.2447283.7360258 2.7859686.7585748 4.0516964.0592781l6.944 1.335v3.1739995h-23c-2.76005315.0033066-4.99669388 2.2399473-5 5 0 .5522852.44771525 1 1 1h50c.5522847 0 1-.4477148 1-1v-4.2099995c.0132386-3.2732545-2.2542726-6.1141976-5.449-6.827l-17.329-3.938h-.012-.014l-4.171-.835.6-1.192 9.3-.979 16.212 4.3h.014c.3063272.0773052.621069.1162701.937.116 1.0376361.0031944 2.0337667-.4072485 2.7679587-1.1405022.734192-.7332536 1.1459086-1.7288585 1.1440476-2.7664978v-.266c.0020467-1.7896714-1.2142413-3.3510553-2.9500063-3.787zm-48.05 18.525h23v2h-25.829c.42535357-1.1977017 1.55801121-1.9984494 2.829-2zm44.933-2h-17.933v2h18v2h-20v-11.747l16.108 3.661c1.9940522.4456254 3.5117763 2.0669118 3.825 4.086zm-21.933-8.18v2.97l-5.273-1.015c.007-.012.015-.023.022-.036l1.349-2.7zm-7.041 1.025c-.4337111.8666047-1.4062507 1.3214019-2.3493816 1.098662-.943131-.22274-1.6094414-1.0645856-1.6096184-2.033662v-3.24c.5790762.0888831 1.167054.1043385 1.75.046l4.511-.475zm33.0410015-5.317c0 .5856763-.2696526 1.138744-.7307355 1.4998801-.461083.3611361-1.0625981.4902398-1.631266.3501199l-16.382-4.345c-.1173068-.0311007-.2392951-.0405887-.36-.028l-16.354 1.722c-1.4043668.1492093-2.8062058-.3035359-3.858-1.246l-16.1-14.4c-.54738892-.4877542-.73600901-1.2632486-.47378439-1.9479215s.92061896-1.1357671 1.65378439-1.1330905h.191c.42969695 0 .84460563.1569322 1.167.441012l16.216 14.309c.2127866.1889957.4964978.2774961.779.243l15.91-1.871c.6019331-.0720311 1.2119639-.0333958 1.8.114l16.74 4.178c.8440404.215857 1.4340972.9767956 1.4330015 1.848z"/><path d="m22 42h2v2h-2z"/><path d="m56.675 0h-21.675c-1.6568542 0-3 1.34314575-3 3v20h2v-20c0-.55228475.4477153-1 1-1h21.675c.6505296-.00155583 1.2058147.46971024 1.3100574 1.11183532.1042427.64212507-.2734437 1.26484991-.8910574 1.46916468l-9.043 3.019c-1.2231399.40786258-2.0488744 1.55165191-2.051 2.841v1.659c-.9299009.1925443-1.7854592.646691-2.466 1.309-.707896-1.1343819-2.0821741-1.6618437-3.3672583-1.2923878s-2.1693958 1.546252-2.1667417 2.8833878v3c0 1.6568542 1.3431458 3 3 3v-2c-.5522847 0-1-.4477153-1-1v-3c0-.5522847.4477153-1 1-1s1 .4477153 1 1v2c0 2.7614237 2.2385763 5 5 5s5-2.2385763 5-5v-2c0-.5522847.4477153-1 1-1s1 .4477153 1 1v3c0 .5522847-.4477153 1-1 1v2c1.6568542 0 3-1.3431458 3-3v-3c.0022059-1.33695-.8822572-2.5133331-2.1672238-2.882523-1.2849666-.3691898-2.6589776.1583002-3.3667762 1.292523-.6804179-.6626735-1.5359879-1.1171734-2.466-1.31v-1.66c.0003267-.4302393.2758064-.81204447.684-.948l9.043-3.014c1.5449936-.51723131 2.4876117-2.07777986 2.2264459-3.68598565-.2611659-1.60820578-1.6491729-2.7902706-3.2784459-2.79201435zm-6.675 17c0 1.6568542-1.3431458 3-3 3s-3-1.3431458-3-3 1.3431458-3 3-3 3 1.3431458 3 3z"/><path d="m46 16h2v2h-2z"/><path d="m21 27h14v3h2v-4c0-.5522847-.4477153-1-1-1h-6v-3c0-1.6568542-1.3431458-3-3-3s-3 1.3431458-3 3v1h2v-1c0-.5522847.4477153-1 1-1s1 .4477153 1 1v3h-8c-.5522847 0-1 .4477153-1 1v2h2z"/></g></g></svg>