<?xml version="1.0" encoding="UTF-8"?>
<svg width="48px" height="38px" viewBox="0 0 48 38" version="1.1" xmlns="http://www.w3.org/2000/svg" xmlns:xlink="http://www.w3.org/1999/xlink">
    <title>Combined Shape</title>
    <g id="Design" stroke="none" stroke-width="1" fill="none" fill-rule="evenodd" opacity="0.5">
        <g id="Smileeasy-Payment-Plan" transform="translate(-296.000000, -10537.000000)" fill="#337C72">
            <g id="Group-25" transform="translate(296.000000, 10515.000000)">
                <g id="Icons/chat" transform="translate(0.000000, 22.000000)">
                    <path d="M23.1133758,9.5 C26.2318471,9.5 28.8,11.9428571 28.8,14.9091837 L28.8,26.5418367 C28.8,29.5081633 26.2318471,31.9510204 23.1133758,31.9510204 L12.4738854,31.9510204 L6.54267516,37.6510204 C6.29808917,37.8836735 5.99235669,38 5.6866242,38 C5.50318471,38 5.38089172,38 5.19745223,37.9418367 C4.70828025,37.7673469 4.46369427,37.3602041 4.46369427,36.8367347 L4.46369427,31.8346939 C1.8955414,31.3112245 0,29.1591837 0,26.5418367 L0,14.9091837 C0,11.9428571 2.56815287,9.5 5.6866242,9.5 L23.1133758,9.5 Z M23.1468031,11.875 L5.65319693,11.875 L5.65319693,11.9309555 C3.87314578,11.9309555 2.4,13.2738874 2.4,14.8965969 L2.4,26.0876963 C2.4,27.7104058 3.87314578,29.0533377 5.65319693,29.0533377 C6.32838875,29.0533377 6.88081841,29.5569372 6.88081841,30.1724476 L6.88081841,33.25 L11.1161125,29.3331152 C11.3616368,29.1092932 11.6685422,28.9973822 11.9754476,28.9973822 L23.1468031,28.9973822 C24.9268542,28.9973822 26.4,27.6544503 26.4,26.0317408 L26.4,14.8406414 C26.4,13.2179319 24.9268542,11.875 23.1468031,11.875 Z M42.1600953,0 C45.3626237,0 48,2.44785276 48,5.4202454 L48,17.0766871 C48,19.6411043 46.0533651,21.797546 43.4159888,22.3803681 L43.4159888,27.3343558 C43.4159888,27.8006135 43.1020154,28.208589 42.6624527,28.4417178 C42.411274,28.4417178 42.2856846,28.5 42.0973006,28.5 C41.7833272,28.5 41.4693538,28.3834356 41.2181751,28.1503067 L35.1270917,22.4386503 L32.6153047,22.4386503 C31.9245633,22.4386503 31.3594112,21.9141104 31.3594112,21.2730061 C31.3594112,20.6319018 31.9245633,20.107362 32.6153047,20.107362 L35.6294491,20.107362 C35.9434225,20.107362 36.2573959,20.2239264 36.5085746,20.4570552 L40.8414071,24.5368098 L40.8414071,21.3312883 C40.8414071,20.690184 41.4065592,20.1656442 42.0973006,20.1656442 C43.9183462,20.1656442 45.4254183,18.7668712 45.4254183,17.0766871 L45.4254183,5.4202454 C45.4254183,3.73006135 43.9183462,2.33128834 42.0973006,2.33128834 L22.3797728,2.33128834 C20.9354953,2.33128834 19.6796018,3.20552147 19.240039,4.48773006 C19.051655,5.12883436 18.2981189,5.4202454 17.6701722,5.24539877 C16.9794308,5.07055215 16.6654574,4.37116564 16.8538414,3.78834356 C17.6073775,1.51533742 19.8679858,0 22.3797728,0 L42.1600953,0 Z M14.4,23.75 L14.4,26.125 L7.2,26.125 L7.2,23.75 L14.4,23.75 Z M21.6,19 L21.6,21.375 L7.2,21.375 L7.2,19 L21.6,19 Z M21.6,14.25 L21.6,16.625 L7.2,16.625 L7.2,14.25 L21.6,14.25 Z" id="Combined-Shape"></path>
                </g>
            </g>
        </g>
    </g>
</svg>