<svg viewBox="0 0 32 32" xmlns="http://www.w3.org/2000/svg"><g fill="#21A5A8" fill-rule="evenodd"><path d="m14 .66666667c7.3637967 0 13.3333333 5.96953667 13.3333333 13.33333333 0 7.3637967-5.9695366 13.3333333-13.3333333 13.3333333-7.36379666 0-13.33333333-5.9695366-13.33333333-13.3333333 0-7.36379666 5.96953667-13.33333333 13.33333333-13.33333333zm0 2.66666666c-5.89103733 0-10.66666667 4.77562934-10.66666667 10.66666667 0 5.8910373 4.77562934 10.6666667 10.66666667 10.6666667 5.8910373 0 10.6666667-4.7756294 10.6666667-10.6666667 0-5.89103733-4.7756294-10.66666667-10.6666667-10.66666667z" transform="translate(2 2)"/><path d="m4.30092457 8.96355951c.25758499.24651588.59461208.36977382.9304355.36977382s.67405418-.12325794.9304355-.36977382l7.11849363-6.81259321c.51517-.49303178.51517-1.2901766 0-1.78205643-.5139663-.49187983-1.3469047-.49187983-1.8620747 0l-6.1880581 5.92214097-2.64927366-2.5354274c-.51396631-.49187983-1.34810836-.49187983-1.86207467 0s-.51396631 1.29017659 0 1.78205642z" transform="translate(9 12)"/></g></svg>