<?xml version="1.0" encoding="UTF-8"?>
<svg width="28px" height="27px" viewBox="0 0 28 27" version="1.1" xmlns="http://www.w3.org/2000/svg" xmlns:xlink="http://www.w3.org/1999/xlink">
    <title>Group 32</title>
    <g id="Design" stroke="none" stroke-width="1" fill="none" fill-rule="evenodd">
        <g id="Smileeasy-Payment-Plan" transform="translate(-297.000000, -3227.000000)" fill="#03AFAA">
            <g id="Group-29" transform="translate(0.000000, 2581.000000)">
                <g id="Group-32" transform="translate(297.666667, 646.166667)">
                    <path d="M13.3333333,0 C20.69713,0 26.6666667,5.96953667 26.6666667,13.3333333 C26.6666667,20.69713 20.69713,26.6666667 13.3333333,26.6666667 C5.96953667,26.6666667 0,20.69713 0,13.3333333 C0,5.96953667 5.96953667,0 13.3333333,0 Z M13.3333333,2.66666667 C7.442296,2.66666667 2.66666667,7.442296 2.66666667,13.3333333 C2.66666667,19.2243707 7.442296,24 13.3333333,24 C19.2243707,24 24,19.2243707 24,13.3333333 C24,7.442296 19.2243707,2.66666667 13.3333333,2.66666667 Z" id="Circle"></path>
                    <path d="M10.6342579,18.2968928 C10.8918429,18.5434087 11.22887,18.6666667 11.5646934,18.6666667 C11.9005168,18.6666667 12.2387476,18.5434087 12.4951289,18.2968928 L19.6136225,11.4842996 C20.1287925,10.9912679 20.1287925,10.194123 19.6136225,9.7022432 C19.0996562,9.21036338 18.2667178,9.21036338 17.7515478,9.7022432 L11.5634897,15.6243842 L8.91421607,13.0889568 C8.40024976,12.5970769 7.56610771,12.5970769 7.0521414,13.0889568 C6.53817509,13.5808366 6.53817509,14.3791334 7.0521414,14.8710132 L10.6342579,18.2968928 Z" id="Path"></path>
                </g>
            </g>
        </g>
    </g>
</svg>