<svg height="23" viewBox="0 0 24 23" width="24" xmlns="http://www.w3.org/2000/svg"><path d="m9 9h1.5v1.5h-1.5zm4.5 9h1.5v1.5h-1.5zm4.5-9h1.5v1.5h-1.5zm-4.5 0h1.5v1.5h-1.5zm-4.5 3h1.5v1.5h-1.5zm-4.5 0h1.5v1.5h-1.5zm13.5 0h1.5v1.5h-1.5zm-4.5 0h1.5v1.5h-1.5zm-4.5 3h1.5v1.5h-1.5zm-4.5 0h1.5v1.5h-1.5zm13.5 0h1.5v1.5h-1.5zm-4.5 0h1.5v1.5h-1.5zm-4.5 3h1.5v1.5h-1.5zm-4.5 0h1.5v1.5h-1.5zm19.5-16.5v21h-24v-21h4.5v-1.5h1.5v1.5h12v-1.5h1.5v1.5zm-22.5 1.5v3h21v-3h-3v1.5h-1.5v-1.5h-12v1.5h-1.5v-1.5zm21 18v-13.5h-21v13.5z" opacity=".3"/></svg>