<?xml version="1.0" encoding="UTF-8"?>
<svg viewBox="0 0 32 32" version="1.1" xmlns="http://www.w3.org/2000/svg" xmlns:xlink="http://www.w3.org/1999/xlink">
    <title>03F32BE4-F74B-4239-8C67-1812127AE4AF@2x</title>
    <g id="Design" stroke="none" stroke-width="1" fill="none" fill-rule="evenodd">
        <g id="Why-Proud-Smile" transform="translate(-202.000000, -6948.000000)" fill="#D6857B">
            <g id="dude" transform="translate(0.000000, 6250.000000)">
                <g id="Molecules/Long_list-Copy-7" transform="translate(202.000000, 698.000000)">
                    <g id="Molecules/Check_Marking" transform="translate(2.000000, 2.000000)">
                        <g id="Icons/Circle">
                            <path d="M14,0.666666667 C21.3637967,0.666666667 27.3333333,6.63620334 27.3333333,14 C27.3333333,21.3637967 21.3637967,27.3333333 14,27.3333333 C6.63620334,27.3333333 0.666666667,21.3637967 0.666666667,14 C0.666666667,6.63620334 6.63620334,0.666666667 14,0.666666667 Z M14,3.33333333 C8.10896267,3.33333333 3.33333333,8.10896267 3.33333333,14 C3.33333333,19.8910373 8.10896267,24.6666667 14,24.6666667 C19.8910373,24.6666667 24.6666667,19.8910373 24.6666667,14 C24.6666667,8.10896267 19.8910373,3.33333333 14,3.33333333 Z" id="Circle"></path>
                        </g>
                        <g id="Icons/Check_Mark" transform="translate(7.000000, 10.000000)">
                            <path d="M4.30092457,8.96355951 C4.55850956,9.21007539 4.89553665,9.33333333 5.23136007,9.33333333 C5.56718349,9.33333333 5.90541425,9.21007539 6.16179557,8.96355951 L13.2802892,2.1509663 C13.7954592,1.65793452 13.7954592,0.860789698 13.2802892,0.368909871 C12.7663229,-0.122969957 11.9333845,-0.122969957 11.4182145,0.368909871 L5.2301564,6.29105084 L2.58088274,3.75562344 C2.06691643,3.26374361 1.23277438,3.26374361 0.718808068,3.75562344 C0.204841755,4.24750327 0.204841755,5.04580003 0.718808068,5.53767986 L4.30092457,8.96355951 Z" id="Path"></path>
                        </g>
                    </g>
                </g>
            </g>
        </g>
    </g>
</svg>