<svg id="Group_13" data-name="Group 13" xmlns="http://www.w3.org/2000/svg" width="52" height="84" viewBox="0 0 52 84">
  <rect id="Rectangle_Copy_25" data-name="Rectangle Copy 25" width="4" height="45" rx="2" transform="translate(24)" fill="#f05024"/>
  <circle id="Oval_Copy_3" data-name="Oval Copy 3" cx="26" cy="26" r="26" transform="translate(0 32)" fill="#f05024"/>
  <path id="Triangle" d="M14,0a37.252,37.252,0,0,0,4.614,9.64C21.807,14.294,28,20,28,20H0S6.2,14.278,9.469,9.519A34.513,34.513,0,0,0,14,0Z" transform="translate(12 17)" fill="#f05024"/>
  <rect id="Rectangle" width="2" height="26" rx="1" transform="translate(25 45)" fill="#fff"/>
  <rect id="Rectangle_Copy_2" data-name="Rectangle Copy 2" width="2" height="16" rx="1" transform="translate(29 50)" fill="#fff"/>
  <rect id="Rectangle_Copy_9" data-name="Rectangle Copy 9" width="2" height="16" rx="1" transform="translate(23 66) rotate(180)" fill="#fff"/>
  <rect id="Rectangle_Copy_10" data-name="Rectangle Copy 10" width="2" height="8" rx="1" transform="translate(19 62) rotate(180)" fill="#fff"/>
  <rect id="Rectangle_Copy_8" data-name="Rectangle Copy 8" width="2" height="8" rx="1" transform="translate(33 54)" fill="#fff"/>
</svg>
