<svg height="84" viewBox="0 0 52 84" width="52" xmlns="http://www.w3.org/2000/svg"><rect fill="#0299D8" height="45" rx="2" width="4" x="24"/><circle cx="26" cy="58" fill="#0299D8" r="26"/><path d="m14 0a37.252 37.252 0 0 0 4.614 9.64c3.193 4.654 9.386 10.36 9.386 10.36h-28s6.2-5.722 9.469-10.481a34.513 34.513 0 0 0 4.531-9.519z" fill="#0299D8" transform="translate(12 17)"/><g fill="#fff"><rect height="26" rx="1" width="2" x="25" y="45"/><rect height="16" rx="1" width="2" x="29" y="50"/><rect height="16" rx="1" transform="matrix(-1 0 0 -1 23 66)" width="2"/><rect height="8" rx="1" transform="matrix(-1 0 0 -1 19 62)" width="2"/><rect height="8" rx="1" width="2" x="33" y="54"/></g></svg>