<svg height="121.866" viewBox="0 0 929 121.866" width="929" xmlns="http://www.w3.org/2000/svg" xmlns:xlink="http://www.w3.org/1999/xlink"><linearGradient id="a" gradientUnits="objectBoundingBox" x2="1" y1=".589" y2=".589"><stop offset="0" stop-color="#f05362"/><stop offset="1" stop-color="#fc8f14"/></linearGradient><path d="m-736.763 121.866h676.763a60 60 0 0 0 60-60 60.132 60.132 0 0 0 -60-60.132l-789-1.734a60.866 60.866 0 0 0 -61 60.866 60.761 60.761 0 0 0 5.568 25.5c-1.377 14.335-5.923 29.383-18.6 32.211-22.8 5.085 26.185 1.022 38.557-8.076a60.681 60.681 0 0 0 23.483 10.191 15.044 15.044 0 0 0 5.778 1.178z" fill="url(#a)" opacity=".7" transform="translate(929)"/></svg>