<svg xmlns="http://www.w3.org/2000/svg" xmlns:xlink="http://www.w3.org/1999/xlink" width="929" height="121.866" viewBox="0 0 929 121.866">
  <defs>
    <linearGradient id="linear-gradient" y1="0.589" x2="1" y2="0.589" gradientUnits="objectBoundingBox">
      <stop offset="0" stop-color="#f05362"/>
      <stop offset="1" stop-color="#fc8f14"/>
    </linearGradient>
  </defs>
  <path id="Combined_Shape" data-name="Combined Shape" d="M-736.763,121.866H-60a60,60,0,0,0,60-60A60.132,60.132,0,0,0-60,1.734L-849,0a60.866,60.866,0,0,0-61,60.866,60.761,60.761,0,0,0,5.568,25.5c-1.377,14.335-5.923,29.383-18.6,32.211-22.8,5.085,26.185,1.022,38.557-8.076a60.681,60.681,0,0,0,23.483,10.191,15.044,15.044,0,0,0,5.778,1.178Z" transform="translate(929 0)" opacity="0.7" fill="url(#linear-gradient)"/>
</svg>
