<svg height="64" viewBox="0 0 64 64" width="64" xmlns="http://www.w3.org/2000/svg"><path d="m13.739 46.718a2.389 2.389 0 0 1 -1.217-.581 8.711 8.711 0 0 1 -1.788-1.822c-3.989-5.69-4.258-10.037-3.348-16.543a1.233 1.233 0 0 0 -.456-1.126c-6.363-5.26-9.579-15.246-4.23-21.716a14.783 14.783 0 0 1 11.216-4.93 15.067 15.067 0 0 1 2.239.168 14.415 14.415 0 0 1 3.886 1.157 14.488 14.488 0 0 1 3.89-1.159 14.97 14.97 0 0 1 2.232-.166 14.775 14.775 0 0 1 11.213 4.93 12.083 12.083 0 0 1 2.688 8.527 11.8 11.8 0 0 1 -.664 13.943l2.726 2.726a3.347 3.347 0 0 1 3.774.674l6.432 6.43a3.369 3.369 0 0 1 -4.768 4.77l-6.432-6.432a3.383 3.383 0 0 1 -.677-3.766l-2.714-2.714a11.649 11.649 0 0 1 -4.661 2.369 18.507 18.507 0 0 1 -3.727 12.862 8.869 8.869 0 0 1 -1.834 1.853 2.294 2.294 0 0 1 -1.128.545 2.265 2.265 0 0 1 -.3.017 2.357 2.357 0 0 1 -2.321-1.486 2.963 2.963 0 0 1 -.084-1.025 1.144 1.144 0 0 1 .01-.406l.053-.247c.576-2.724 1.229-5.81-.127-8.117a4.106 4.106 0 0 0 -3.646-2.117 4.424 4.424 0 0 0 -4.38 3.828 12.119 12.119 0 0 0 .432 5.093l.053.223c.043.182.086.365.127.552a.135.135 0 0 0 .01.029.135.135 0 0 1 .01.029c.014.062.026.127.038.194l.007.036.026.122c.029.127.055.247.082.372a1.163 1.163 0 0 1 .01.42 3.007 3.007 0 0 1 -.084 1.032 2.352 2.352 0 0 1 -2.3 1.471 1.879 1.879 0 0 1 -.268-.019zm12.377-2.856c-.029.158-.048.3-.06.444a6.763 6.763 0 0 0 1.361-1.356 16.069 16.069 0 0 0 3.306-11.15c-.062 0-.122.007-.182.012-.122.007-.25.017-.374.017a11.852 11.852 0 1 1 0-23.7 11.7 11.7 0 0 1 7.38 2.585 9.39 9.39 0 0 0 -1.994-4.267 12.575 12.575 0 0 0 -9.42-4.066 12.37 12.37 0 0 0 -1.85.137 12.051 12.051 0 0 0 -1.594.358 15.56 15.56 0 0 1 2.938 2.76 1.188 1.188 0 0 1 -.17 1.668 1.186 1.186 0 0 1 -1.668-.17 13.227 13.227 0 0 0 -4.027-3.3.726.726 0 0 1 -.115-.074l-.019-.014-.041-.014a.421.421 0 0 1 -.077-.029 12.2 12.2 0 0 0 -3.71-1.193 12.425 12.425 0 0 0 -1.853-.137 12.566 12.566 0 0 0 -9.417 4.069c-4.85 5.87-.845 14.446 3.912 18.379a3.6 3.6 0 0 1 1.293 3.279c-.859 6.146-.638 9.749 2.942 14.854a6.473 6.473 0 0 0 1.35 1.346c-.01-.108-.026-.242-.055-.42v-.014-.014a.036.036 0 0 0 0-.017l-.01-.046c-.077-.348-.154-.684-.228-1a14.39 14.39 0 0 1 -.475-5.952 6.721 6.721 0 0 1 5.4-5.746 6.856 6.856 0 0 1 1.342-.134 6.548 6.548 0 0 1 5.678 3.286c1.675 2.849 1.162 6.2.492 9.391l-.036.192a.122.122 0 0 1 -.02.036zm16.694-11.383a1 1 0 0 0 0 1.411l6.432 6.432a1 1 0 1 0 1.411-1.411l-6.432-6.432a1 1 0 0 0 -1.411 0zm-19.349-19.209a9.482 9.482 0 1 0 6.706-2.777 9.5 9.5 0 0 0 -6.706 2.777zm8.95 13.742a.786.786 0 1 1 .787.787.788.788 0 0 1 -.787-.787zm-3.434-.85a1.187 1.187 0 0 1 -.708-1.519 4.767 4.767 0 0 1 1.838-2.35 5.016 5.016 0 0 1 4.274-.466 1.186 1.186 0 1 1 -.794 2.234 2.607 2.607 0 0 0 -2.179.214 2.385 2.385 0 0 0 -.91 1.176 1.188 1.188 0 0 1 -1.116.78 1.2 1.2 0 0 1 -.406-.069zm-5.928-1.51a1.283 1.283 0 1 1 1.282 1.282 1.281 1.281 0 0 1 -1.283-1.281zm5.383-4.874a.787.787 0 1 1 .787.787.788.788 0 0 1 -.788-.787zm5.551-1.229a1.283 1.283 0 1 1 1.282 1.282 1.283 1.283 0 0 1 -1.282-1.281zm-9-1.1a1.184 1.184 0 0 1 .982-1.358 2.612 2.612 0 0 0 1.81-1.234 2.392 2.392 0 0 0 .225-1.463 1.185 1.185 0 0 1 2.342-.362 4.761 4.761 0 0 1 -.485 2.945 5.007 5.007 0 0 1 -3.526 2.46 1.253 1.253 0 0 1 -.187.014 1.185 1.185 0 0 1 -1.164-.998zm-2.222-1.426a.786.786 0 1 1 .787.785.788.788 0 0 1 -.79-.781zm9.653-2.65a.949.949 0 1 1 .948.95.949.949 0 0 1 -.951-.945zm-26.518-.19a1.185 1.185 0 0 1 -1.025-1.325 11.65 11.65 0 0 1 .439-2.038 1.184 1.184 0 1 1 2.258.713 9.291 9.291 0 0 0 -.346 1.622 1.187 1.187 0 0 1 -1.175 1.045 1.123 1.123 0 0 1 -.154-.012zm1.262-4.848a1.186 1.186 0 0 1 0-1.678 7.518 7.518 0 0 1 5.529-2.037h.036a1.186 1.186 0 0 1 -.007 2.371 5.169 5.169 0 0 0 -3.883 1.347 1.177 1.177 0 0 1 -.833.345 1.191 1.191 0 0 1 -.842-.348z" fill="#fff" transform="translate(10.685 8.332)"/></svg>