<svg xmlns="http://www.w3.org/2000/svg" xmlns:xlink="http://www.w3.org/1999/xlink" viewBox="0 0 539 209.936"><defs><linearGradient id="a" x1="-221.738" y1="475.362" x2="-221.738" y2="476.362" gradientTransform="matrix(12.566, 0, 0, -21.735, 3203.202, 10388.621)" gradientUnits="userSpaceOnUse"><stop offset="0" stop-color="#f6e8d4"/><stop offset="0.703" stop-color="#ebd5b5"/><stop offset="1" stop-color="#e6cca7"/></linearGradient><linearGradient id="b" x1="-226.427" y1="477.962" x2="-226.427" y2="478.962" gradientTransform="matrix(16.632, 0, 0, -27.28, 4193.094, 13094.037)" xlink:href="#a"/><linearGradient id="c" x1="-226.882" y1="476.938" x2="-226.882" y2="477.938" gradientTransform="matrix(17.17, 0, 0, -24.788, 4337.267, 11874.793)" xlink:href="#a"/><linearGradient id="d" x1="-230.177" y1="478.204" x2="-230.177" y2="479.204" gradientTransform="matrix(22.438, 0, 0, -27.943, 5626.027, 13416.508)" xlink:href="#a"/></defs><path d="M447.08,161.727c.165-1.786,3.839-2.548,3.586-8.794a126.084,126.084,0,0,0-1.258-12.63c-43.535-18.622-64.346-1.51-64.346-1.51s-20.81-17.112-64.346,1.51a126.084,126.084,0,0,0-1.258,12.63c-.252,6.244,3.422,7.008,3.586,8.794l10.365,11.923H438.976Z" fill="#f9c0b2"/><path d="M438.976,174.4H333.411a.746.746,0,0,1-.562-.256l-10.364-11.923a.754.754,0,0,1-.18-.42c-.031-.343-.4-.74-.858-1.243-1.16-1.262-2.912-3.171-2.732-7.651.251-6.215,1.257-12.651,1.267-12.715a.744.744,0,0,1,.443-.569c13.569-5.805,26.331-8.747,37.935-8.747,15.928,0,24.636,5.5,26.7,6.987,2.068-1.49,10.774-6.987,26.7-6.987,11.6,0,24.365,2.943,37.934,8.747a.749.749,0,0,1,.444.569c.009.064,1.016,6.5,1.266,12.715.181,4.48-1.572,6.389-2.732,7.651-.462.5-.826.9-.858,1.243a.738.738,0,0,1-.126.35l-8.105,11.923a.743.743,0,0,1-.616.326ZM333.751,172.9H438.582l7.786-11.455a4.148,4.148,0,0,1,1.213-1.905,7.933,7.933,0,0,0,2.34-6.582c-.211-5.238-.966-10.638-1.188-12.137-13.24-5.616-25.675-8.464-36.967-8.464-17.506,0-26.145,6.937-26.231,7.007a.745.745,0,0,1-.946,0c-.085-.07-8.777-7.008-26.232-7.008-11.291,0-23.727,2.848-36.966,8.464-.221,1.5-.977,6.9-1.188,12.137a7.932,7.932,0,0,0,2.34,6.582,4.273,4.273,0,0,1,1.2,1.853Z" fill="#58595b"/><path d="M438.546,166.575a60.841,60.841,0,0,1,6.093-6.12c2.434-1.9,2.7.618,2.276,3.06s-1.27,7.522-2.382,12.019-3.7,7.988-7.195,4.682S432.9,172.332,438.546,166.575Z" fill="#fff"/><path d="M440.008,182.265a4.71,4.71,0,0,1-3.182-1.51,8.712,8.712,0,0,1-3.056-6.206c-.05-2.712,1.373-5.568,4.228-8.481a60.1,60.1,0,0,1,6.182-6.2,3.18,3.18,0,0,1,1.883-.828,1.506,1.506,0,0,1,1.18.55c.758.9.639,2.7.405,4.052l-.108.624c-.438,2.544-1.254,7.278-2.284,11.446S442.315,182.265,440.008,182.265Zm6.055-21.735c-.073,0-.359.037-.964.511a60.289,60.289,0,0,0-5.99,6.021l-.031.033c-2.575,2.626-3.86,5.124-3.817,7.427a7.284,7.284,0,0,0,2.59,5.151,3.317,3.317,0,0,0,2.157,1.1c1.519,0,2.976-2.077,3.8-5.421,1.017-4.117,1.827-8.817,2.262-11.342l.108-.626c.33-1.917.047-2.762-.094-2.855Z" fill="#58595b"/><path d="M424.159,164.558s4.775-6.915,6.91-9.2,5.719-3.587,7.016-.991.763,15.4-.915,19.828-5.11,7.8-8.846,5S419.231,172.237,424.159,164.558Z" fill="#fff"/><path d="M431.078,180.96a5.325,5.325,0,0,1-3.2-1.167c-1.793-1.34-4.247-3.175-5.55-5.747-1.5-2.973-1.1-6.3,1.2-9.89l.015-.021c.195-.283,4.83-6.987,6.978-9.288a7.821,7.821,0,0,1,5.222-2.659,3.213,3.213,0,0,1,3.006,1.84c1.422,2.845.86,15.825-.885,20.425C436.322,178.528,433.784,180.96,431.078,180.96Zm-6.3-15.99c-4.259,6.647-.543,10.24,3.991,13.627a3.872,3.872,0,0,0,2.308.87c2.428,0,4.379-2.862,5.4-5.541,1.7-4.47,2.094-16.932.944-19.23a1.723,1.723,0,0,0-1.673-1.019,6.393,6.393,0,0,0-4.132,2.185C429.578,158.045,424.989,164.669,424.779,164.97Z" fill="#58595b"/><path d="M424.671,173.252c0,5.348-17.17,5.348-17.17,0,0-9.249,3.424-20.777,8.585-20.777C423.279,152.475,424.671,164.005,424.671,173.252Z" fill="#fff"/><path d="M416.086,178.009c-4.644,0-9.331-1.471-9.331-4.757a42.784,42.784,0,0,1,2.4-14.116c1.8-4.845,4.2-7.409,6.927-7.409,3.586,0,6.176,2.506,7.7,7.447a49.415,49.415,0,0,1,1.629,14.076C425.417,176.538,420.731,178.009,416.086,178.009Zm0-24.789c-4.415,0-7.84,10.768-7.84,20.032,0,2.123,4.039,3.266,7.84,3.266s7.84-1.144,7.84-3.266c0-9.138-1.36-20.032-7.84-20.032Z" fill="#58595b"/><path d="M331.581,166.575a60.777,60.777,0,0,0-6.094-6.12c-2.433-1.9-2.7.618-2.275,3.06s1.27,7.522,2.381,12.019,3.7,7.988,7.2,4.682S337.228,172.332,331.581,166.575Z" fill="#fff"/><path d="M330.119,182.265h0c-2.307,0-4.22-2.389-5.25-6.554s-1.845-8.9-2.283-11.446l-.108-.624c-.236-1.351-.354-3.15.4-4.052a1.5,1.5,0,0,1,1.18-.55,3.183,3.183,0,0,1,1.883.828,60,60,0,0,1,6.182,6.2c2.856,2.915,4.278,5.769,4.228,8.481a8.715,8.715,0,0,1-3.055,6.206A4.712,4.712,0,0,1,330.119,182.265Zm-6.056-21.735a.1.1,0,0,0-.024,0c-.139.089-.425.934-.094,2.854l.108.626c.435,2.525,1.245,7.225,2.262,11.341.826,3.344,2.283,5.421,3.8,5.421a3.315,3.315,0,0,0,2.157-1.1,7.287,7.287,0,0,0,2.59-5.151c.043-2.3-1.242-4.8-3.817-7.426l-.031-.033a60.289,60.289,0,0,0-5.99-6.021C324.423,160.567,324.137,160.53,324.063,160.53Z" fill="#58595b"/><path d="M345.968,164.558s-4.775-6.915-6.91-9.2-5.72-3.587-7.016-.991-.763,15.4.915,19.828,5.109,7.8,8.846,5S350.9,172.237,345.968,164.558Z" fill="#fff"/><path d="M339.048,180.96h0c-2.706,0-5.244-2.432-6.789-6.5-1.746-4.6-2.307-17.581-.885-20.426a3.213,3.213,0,0,1,3.006-1.84,7.815,7.815,0,0,1,5.222,2.659c2.148,2.3,6.783,9,6.979,9.288l.014.021c2.3,3.59,2.709,6.918,1.2,9.89-1.3,2.573-3.757,4.407-5.55,5.747a5.319,5.319,0,0,1-3.2,1.165Zm-4.668-27.282a1.725,1.725,0,0,0-1.673,1.019c-1.149,2.3-.75,14.76.944,19.23,1.016,2.679,2.967,5.542,5.395,5.542h0a3.879,3.879,0,0,0,2.308-.87c4.534-3.388,8.25-6.98,3.991-13.627-.21-.3-4.8-6.927-6.835-9.108a6.378,6.378,0,0,0-4.129-2.186Z" fill="#58595b"/><path d="M345.455,173.252c0,5.348,17.171,5.348,17.171,0,0-9.249-3.424-20.777-8.586-20.777C346.848,152.475,345.455,164.005,345.455,173.252Z" fill="#fff"/><path d="M354.04,178.009c-4.644,0-9.33-1.471-9.33-4.757a49.455,49.455,0,0,1,1.628-14.076c1.526-4.941,4.118-7.447,7.7-7.447,2.731,0,5.127,2.562,6.927,7.409a42.758,42.758,0,0,1,2.4,14.116C363.371,176.538,358.685,178.009,354.04,178.009Zm0-24.789c-6.479,0-7.839,10.894-7.839,20.032,0,2.123,4.039,3.266,7.839,3.266s7.84-1.144,7.84-3.266c0-9.264-3.424-20.032-7.84-20.032Z" fill="#58595b"/><path d="M407.5,175.151c0,5.393-22.438,5.393-22.438,0,0-9.324,1.82-23.9,11.219-23.9S407.5,165.827,407.5,175.151Z" fill="#fff"/><path d="M396.282,179.941c-5.521,0-11.964-1.254-11.964-4.79,0-7.408,1.165-24.643,11.964-24.643s11.964,17.234,11.964,24.643C408.246,178.687,401.8,179.941,396.282,179.941Zm0-27.942c-3.806,0-6.641,2.673-8.428,7.946-1.78,5.251-2.045,11.781-2.045,15.206,0,1.85,4.6,3.3,10.475,3.3s10.474-1.449,10.474-3.3c0-3.425-.266-9.956-2.045-15.206C402.923,154.672,400.088,152,396.282,152Z" fill="#58595b"/><path d="M362.626,175.151c0,5.393,22.437,5.393,22.437,0,0-9.324-1.819-23.9-11.219-23.9S362.626,165.827,362.626,175.151Z" fill="#fff"/><path d="M373.844,179.941c-5.521,0-11.964-1.254-11.964-4.79,0-7.408,1.166-24.643,11.964-24.643s11.965,17.234,11.965,24.643C385.809,178.687,379.364,179.941,373.844,179.941Zm0-27.942c-3.805,0-6.641,2.673-8.428,7.946-1.779,5.251-2.045,11.781-2.045,15.206,0,1.85,4.6,3.3,10.473,3.3s10.474-1.449,10.474-3.3c0-3.425-.266-9.956-2.045-15.206C380.486,154.672,377.648,152,373.844,152Z" fill="#58595b"/><rect x="367.595" y="165.481" width="12.498" height="7.848" rx="3.677" fill="#a6a8ab"/><path d="M349.025,171.6c0,.958.534,1.735,1.192,1.735h6.2c.658,0,1.192-.777,1.192-1.735v-4.379c0-.958-.534-1.735-1.192-1.735h-6.2c-.658,0-1.192.777-1.192,1.735Z" fill="#a6a8ab"/><path d="M331.7,171.6c0,.958.534,1.735,1.191,1.735h4.9c.661,0,1.192-.777,1.192-1.735v-4.379c0-.958-.533-1.735-1.192-1.735h-4.9c-.657,0-1.191.777-1.191,1.735Z" fill="#a6a8ab"/><path d="M322.918,171.6c0,.958.378,1.735.845,1.735h3.472c.466,0,.844-.777.844-1.735v-4.379c0-.958-.377-1.735-.844-1.735h-3.472c-.467,0-.845.777-.845,1.735Z" fill="#a6a8ab"/><rect x="390.033" y="165.481" width="12.498" height="7.848" rx="3.677" fill="#a6a8ab"/><path d="M421.1,171.6c0,.958-.533,1.735-1.191,1.735h-6.2c-.659,0-1.192-.777-1.192-1.735v-4.379c0-.958.533-1.735,1.192-1.735h6.2c.658,0,1.191.777,1.191,1.735Z" fill="#a6a8ab"/><path d="M438.424,171.6c0,.958-.534,1.735-1.192,1.735h-4.9c-.658,0-1.191-.777-1.191-1.735v-4.379c0-.958.533-1.735,1.191-1.735h4.9c.658,0,1.192.777,1.192,1.735Z" fill="#a6a8ab"/><path d="M447.209,171.6c0,.958-.378,1.735-.845,1.735h-3.472c-.466,0-.844-.777-.844-1.735v-4.379c0-.958.377-1.735.844-1.735h3.472c.466,0,.845.777.845,1.735Z" fill="#a6a8ab"/><path d="M446.3,165.953a.746.746,0,0,0-.746.745v1.962h-.614V166.7a.746.746,0,0,0-1.491,0v1.962H437.88V166.7a.746.746,0,0,0-1.491,0v1.962h-1.48V166.7a.745.745,0,1,0-1.49,0v1.962H420.341V166.7a.746.746,0,0,0-1.491,0v1.962h-2.564V166.7a.746.746,0,0,0-1.491,0v1.962H400.453V166.7a.746.746,0,1,0-1.491,0v1.962H393.6V166.7a.746.746,0,1,0-1.491,0v1.962H378.016V166.7a.746.746,0,0,0-1.491,0v1.962h-5.36V166.7a.746.746,0,0,0-1.492,0v1.962H355.332V166.7a.746.746,0,0,0-1.492,0v1.962h-2.564V166.7a.746.746,0,1,0-1.491,0v1.962H336.708V166.7a.746.746,0,0,0-1.491,0v1.962h-1.48V166.7a.746.746,0,0,0-1.491,0v1.962h-5.564V166.7a.746.746,0,0,0-1.491,0v1.962h-.614V166.7a.746.746,0,0,0-1.491,0v5.415a.746.746,0,0,0,1.491,0v-1.962h.614v1.962a.746.746,0,0,0,1.491,0v-1.962h5.564v1.962a.746.746,0,0,0,1.491,0v-1.962h1.48v1.962a.746.746,0,0,0,1.491,0v-1.962h13.077v1.962a.746.746,0,0,0,1.491,0v-1.962h2.564v1.962a.746.746,0,0,0,1.492,0v-1.962h14.341v1.962a.746.746,0,0,0,1.492,0v-1.962h5.36v1.962a.746.746,0,0,0,1.491,0v-1.962h14.095v1.962a.746.746,0,0,0,1.491,0v-1.962h5.36v1.962a.746.746,0,0,0,1.491,0v-1.962H414.8v1.962a.746.746,0,0,0,1.491,0v-1.962h2.564v1.962a.746.746,0,0,0,1.491,0v-1.962h13.078v1.962a.745.745,0,0,0,1.49,0v-1.962h1.48v1.962a.746.746,0,0,0,1.491,0v-1.962h5.564v1.962a.746.746,0,0,0,1.492,0v-1.962h.613v1.962a.746.746,0,0,0,1.491,0V166.7A.745.745,0,0,0,446.3,165.953Z" fill="#58595b"/><path d="M353.824,204.96h-3.2l-.546,1.957h-2.344l3.235-10.065h2.516l3.249,10.065h-2.35Zm-2.7-1.8h2.191l-1.092-3.85h-.021Z" fill="#fff"/><path d="M357.528,206.917v-5.862h-1.079v-1.617h1.079v-.775a2.537,2.537,0,0,1,.76-1.994,3.2,3.2,0,0,1,2.2-.682,4.058,4.058,0,0,1,.539.038q.27.039.613.108l-.172,1.721c-.13-.023-.243-.041-.339-.052a2.892,2.892,0,0,0-.36-.017.925.925,0,0,0-.673.224.867.867,0,0,0-.232.654v.774h1.452v1.617h-1.452v5.862Z" fill="#fff"/><path d="M364.611,197.578v1.86h1.224v1.617h-1.224v3.421a.825.825,0,0,0,.166.581.606.606,0,0,0,.457.173,2.173,2.173,0,0,0,.279-.014,2.294,2.294,0,0,0,.259-.055l.167,1.693a5.176,5.176,0,0,1-.623.149,4.062,4.062,0,0,1-.67.052,2.382,2.382,0,0,1-1.777-.6,2.738,2.738,0,0,1-.587-1.963v-3.435h-.991v-1.617h.991v-1.86Z" fill="#fff"/><path d="M369.746,207.055a3.492,3.492,0,0,1-2.651-1.017,3.626,3.626,0,0,1-.972-2.612v-.263a4.263,4.263,0,0,1,.882-2.807,3.664,3.664,0,0,1,4.974-.162,3.473,3.473,0,0,1,.849,2.492v1.223h-4.334a1.751,1.751,0,0,0,.508.982,1.488,1.488,0,0,0,1.061.367,4.509,4.509,0,0,0,1.068-.1,7.7,7.7,0,0,0,1-.355l.394,1.562a4.06,4.06,0,0,1-1.189.5,6.131,6.131,0,0,1-1.589.194Zm-.166-5.959a.871.871,0,0,0-.767.356,2.182,2.182,0,0,0-.325,1h2.059v-.179a1.41,1.41,0,0,0-.231-.879.878.878,0,0,0-.737-.3Z" fill="#fff"/><path d="M377.687,201.5l-.85-.007a1.422,1.422,0,0,0-.664.132.847.847,0,0,0-.373.387v4.908h-2.336v-7.479h2.2l.083,1.05.013.007a2.133,2.133,0,0,1,.609-.885,1.385,1.385,0,0,1,.9-.311,2.461,2.461,0,0,1,.343.024,2.789,2.789,0,0,1,.3.059Z" fill="#fff"/><path d="M381.638,206.917V196.852h3.532a5.155,5.155,0,0,1,2.9.678,2.347,2.347,0,0,1,1,2.087,2.47,2.47,0,0,1-.324,1.282,1.981,1.981,0,0,1-1.023.826v.021a2.033,2.033,0,0,1,1.286.795,2.406,2.406,0,0,1,.407,1.4,2.675,2.675,0,0,1-.936,2.243,4.5,4.5,0,0,1-2.811.737Zm2.343-5.869h1.237a1.926,1.926,0,0,0,1.152-.3,1.049,1.049,0,0,0,.355-.871,1.135,1.135,0,0,0-.359-.948,1.963,1.963,0,0,0-1.2-.283h-1.189Zm0,1.548v2.524h1.686a1.525,1.525,0,0,0,1.076-.326,1.169,1.169,0,0,0,.342-.885,1.377,1.377,0,0,0-.315-.977,1.352,1.352,0,0,0-1.026-.336Z" fill="#fff"/><path d="M394.473,201.5l-.85-.007a1.417,1.417,0,0,0-.663.132.842.842,0,0,0-.373.387v4.908h-2.339v-7.479h2.2l.083,1.05.014.007a2.13,2.13,0,0,1,.608-.885,1.386,1.386,0,0,1,.906-.311,2.458,2.458,0,0,1,.342.024,2.789,2.789,0,0,1,.3.059Z" fill="#fff"/><path d="M399.289,206.917a2.3,2.3,0,0,1-.179-.4,3.839,3.839,0,0,1-.132-.472,2.57,2.57,0,0,1-.8.737,2.252,2.252,0,0,1-1.143.266,2.469,2.469,0,0,1-1.742-.6,2.125,2.125,0,0,1-.657-1.642,2,2,0,0,1,.816-1.728,4.367,4.367,0,0,1,2.55-.594h.85v-.532a1.091,1.091,0,0,0-.221-.741.891.891,0,0,0-.7-.248.851.851,0,0,0-.605.183.792.792,0,0,0-.189.591h-2.33a2.117,2.117,0,0,1,.889-1.759,3.832,3.832,0,0,1,2.395-.68,3.5,3.5,0,0,1,2.257.677,2.4,2.4,0,0,1,.844,1.991v2.82a5.935,5.935,0,0,0,.1,1.113,5.375,5.375,0,0,0,.3,1.016Zm-1.541-1.521a1.454,1.454,0,0,0,.639-.138,1.348,1.348,0,0,0,.467-.36v-1.169h-.83a1.064,1.064,0,0,0-.812.267.971.971,0,0,0-.245.688.663.663,0,0,0,.214.519.813.813,0,0,0,.567.193Z" fill="#fff"/><path d="M405.239,205.258a1.04,1.04,0,0,0,.755-.26,1,1,0,0,0,.266-.749h2.192a2.56,2.56,0,0,1-.885,2.042,3.358,3.358,0,0,1-2.274.764,3.259,3.259,0,0,1-2.617-1.034,4.094,4.094,0,0,1-.888-2.762V203.1a4.118,4.118,0,0,1,.885-2.762,3.231,3.231,0,0,1,2.606-1.038,3.3,3.3,0,0,1,2.312.788,2.852,2.852,0,0,1,.861,2.212H406.26a1.373,1.373,0,0,0-.259-.871.923.923,0,0,0-.777-.33.864.864,0,0,0-.892.519,4.012,4.012,0,0,0-.214,1.486v.159a3.95,3.95,0,0,0,.217,1.5.881.881,0,0,0,.9.5Z" fill="#fff"/><path d="M412.434,207.055a3.492,3.492,0,0,1-2.651-1.017,3.626,3.626,0,0,1-.972-2.612v-.263a4.27,4.27,0,0,1,.881-2.807,3.666,3.666,0,0,1,4.975-.162,3.473,3.473,0,0,1,.849,2.492v1.223h-4.334a1.751,1.751,0,0,0,.508.982,1.488,1.488,0,0,0,1.061.367,4.518,4.518,0,0,0,1.069-.1,7.689,7.689,0,0,0,1-.355l.394,1.562a4.075,4.075,0,0,1-1.189.5,6.126,6.126,0,0,1-1.589.194Zm-.166-5.959a.871.871,0,0,0-.767.356,2.182,2.182,0,0,0-.325,1h2.059v-.179a1.41,1.41,0,0,0-.231-.879.876.876,0,0,0-.736-.3Z" fill="#fff"/><path d="M420.05,204.815a.608.608,0,0,0-.308-.5,3.379,3.379,0,0,0-1.151-.388,4.585,4.585,0,0,1-1.982-.788,1.787,1.787,0,0,1-.653-1.478,2.107,2.107,0,0,1,.815-1.687,3.435,3.435,0,0,1,2.26-.678,3.893,3.893,0,0,1,2.4.664,2.111,2.111,0,0,1,.874,1.769h-2.332a.927.927,0,0,0-.221-.674.991.991,0,0,0-.726-.224.949.949,0,0,0-.618.2.628.628,0,0,0-.246.515.612.612,0,0,0,.279.5,3.2,3.2,0,0,0,1.166.374,4.673,4.673,0,0,1,2.042.794,1.855,1.855,0,0,1,.646,1.528,1.971,1.971,0,0,1-.877,1.669,3.976,3.976,0,0,1-2.389.64,3.587,3.587,0,0,1-2.433-.764,2.293,2.293,0,0,1-.877-1.773H417.9a.933.933,0,0,0,.315.767,1.429,1.429,0,0,0,.881.228,1.2,1.2,0,0,0,.719-.176.616.616,0,0,0,.235-.522Z" fill="#fff"/><path d="M119.906,204.96h-3.2l-.546,1.957h-2.342l3.236-10.065h2.516l3.249,10.065h-2.351Zm-2.7-1.8H119.4l-1.092-3.85h-.021Z" fill="#fff"/><path d="M123.61,206.917v-5.862h-1.078v-1.617h1.078v-.775a2.538,2.538,0,0,1,.761-1.994,3.2,3.2,0,0,1,2.2-.682,4.058,4.058,0,0,1,.539.038q.27.039.614.108l-.174,1.721c-.129-.023-.241-.041-.338-.052a2.874,2.874,0,0,0-.36-.017.925.925,0,0,0-.673.224.868.868,0,0,0-.232.654v.774H127.4v1.617h-1.451v5.862Z" fill="#fff"/><path d="M130.694,197.578v1.86h1.224v1.617h-1.224v3.421a.825.825,0,0,0,.166.581.606.606,0,0,0,.456.173,2.179,2.179,0,0,0,.28-.014,2.311,2.311,0,0,0,.26-.055l.165,1.693a5.071,5.071,0,0,1-.622.149,4.062,4.062,0,0,1-.67.052,2.382,2.382,0,0,1-1.777-.6,2.738,2.738,0,0,1-.587-1.963v-3.435h-.988v-1.617h.988v-1.86Z" fill="#fff"/><path d="M135.829,207.055a3.492,3.492,0,0,1-2.651-1.017,3.621,3.621,0,0,1-.971-2.612v-.263a4.259,4.259,0,0,1,.881-2.807,3.663,3.663,0,0,1,4.973-.162,3.478,3.478,0,0,1,.85,2.492v1.223h-4.334a1.751,1.751,0,0,0,.508.982,1.488,1.488,0,0,0,1.061.367,4.509,4.509,0,0,0,1.068-.1,7.636,7.636,0,0,0,1-.355l.394,1.562a4.07,4.07,0,0,1-1.188.5,6.126,6.126,0,0,1-1.589.194Zm-.166-5.959a.873.873,0,0,0-.767.356,2.182,2.182,0,0,0-.325,1h2.06v-.179a1.417,1.417,0,0,0-.232-.879.876.876,0,0,0-.736-.3Z" fill="#fff"/><path d="M143.77,201.5l-.85-.007a1.417,1.417,0,0,0-.663.132.842.842,0,0,0-.373.387v4.908h-2.337v-7.479h2.2l.083,1.05.014.007a2.13,2.13,0,0,1,.608-.885,1.39,1.39,0,0,1,.906-.311,2.436,2.436,0,0,1,.342.024,2.76,2.76,0,0,1,.3.059Z" fill="#fff"/><polygon points="150.209 206.917 147.88 206.917 147.88 196.852 150.209 196.852 150.209 206.917" fill="#fff"/><path d="M153.616,199.438l.09,1.015.02.008a2.613,2.613,0,0,1,.888-.858,2.376,2.376,0,0,1,1.2-.3,2.171,2.171,0,0,1,1.728.7,3.452,3.452,0,0,1,.608,2.281v4.639h-2.334v-4.645a1.276,1.276,0,0,0-.26-.917,1.075,1.075,0,0,0-.79-.259,1.38,1.38,0,0,0-.581.115,1.206,1.206,0,0,0-.429.33v5.379h-2.329v-7.482Z" fill="#fff"/><polygon points="161.867 203.834 162.02 204.691 162.041 204.691 162.2 203.834 163.188 199.438 165.642 199.438 163.209 206.917 160.838 206.917 158.405 199.438 160.865 199.438 161.867 203.834" fill="#fff"/><path d="M168.44,197.7H166.1v-1.568h2.344Zm0,9.215H166.1v-7.479h2.344Z" fill="#fff"/><path d="M173.417,204.815a.609.609,0,0,0-.307-.5,3.394,3.394,0,0,0-1.151-.388,4.575,4.575,0,0,1-1.982-.788,1.788,1.788,0,0,1-.654-1.478,2.1,2.1,0,0,1,.816-1.687,3.435,3.435,0,0,1,2.26-.678,3.893,3.893,0,0,1,2.4.664,2.111,2.111,0,0,1,.874,1.769h-2.337a.921.921,0,0,0-.221-.674.99.99,0,0,0-.726-.224.952.952,0,0,0-.618.2.627.627,0,0,0-.246.515.616.616,0,0,0,.28.5,3.2,3.2,0,0,0,1.165.374,4.668,4.668,0,0,1,2.042.794,1.856,1.856,0,0,1,.647,1.528,1.972,1.972,0,0,1-.878,1.669,3.978,3.978,0,0,1-2.385.64,3.587,3.587,0,0,1-2.433-.764,2.3,2.3,0,0,1-.878-1.773h2.177a.937.937,0,0,0,.315.767,1.433,1.433,0,0,0,.882.228,1.194,1.194,0,0,0,.718-.176.612.612,0,0,0,.237-.522Z" fill="#fff"/><path d="M180.706,206.917a2.464,2.464,0,0,1-.179-.4,3.839,3.839,0,0,1-.132-.472,2.556,2.556,0,0,1-.8.737,2.256,2.256,0,0,1-1.144.266,2.469,2.469,0,0,1-1.742-.6,2.121,2.121,0,0,1-.656-1.642,2,2,0,0,1,.815-1.728,4.371,4.371,0,0,1,2.551-.594h.849v-.532a1.09,1.09,0,0,0-.22-.741.892.892,0,0,0-.7-.248.845.845,0,0,0-.6.183.787.787,0,0,0-.189.591h-2.33a2.117,2.117,0,0,1,.889-1.759,3.832,3.832,0,0,1,2.4-.68,3.5,3.5,0,0,1,2.256.677,2.4,2.4,0,0,1,.85,1.991v2.82a5.922,5.922,0,0,0,.094,1.112,5.459,5.459,0,0,0,.3,1.017Zm-1.541-1.521a1.454,1.454,0,0,0,.639-.138,1.348,1.348,0,0,0,.467-.36v-1.169h-.829a1.067,1.067,0,0,0-.813.267.971.971,0,0,0-.245.688.666.666,0,0,0,.214.519A.815.815,0,0,0,179.165,205.4Z" fill="#fff"/><polygon points="186.007 206.917 183.664 206.917 183.664 196.134 186.007 196.134 186.007 206.917" fill="#fff"/><path d="M189.531,197.7h-2.343v-1.568h2.343Zm0,9.215h-2.343v-7.479h2.343Z" fill="#fff"/><path d="M190.3,203.193a4.835,4.835,0,0,1,.747-2.838,2.485,2.485,0,0,1,2.164-1.053,1.931,1.931,0,0,1,1.043.276,2.5,2.5,0,0,1,.775.8l.159-.939h2.046v7.188a3.122,3.122,0,0,1-.964,2.415,3.8,3.8,0,0,1-2.672.885,5.325,5.325,0,0,1-1.244-.156,6.015,6.015,0,0,1-1.224-.432l.387-1.568a6.132,6.132,0,0,0,.93.324,4.026,4.026,0,0,0,.978.111,1.39,1.39,0,0,0,1.1-.422,1.731,1.731,0,0,0,.37-1.175v-.346l-.021-.007a2.031,2.031,0,0,1-1.68.795,2.516,2.516,0,0,1-2.153-1,4.469,4.469,0,0,1-.744-2.717Zm2.33.145a3.152,3.152,0,0,0,.259,1.428.934.934,0,0,0,.9.494,1.692,1.692,0,0,0,.657-.114,1.082,1.082,0,0,0,.45-.356v-3.138a1.169,1.169,0,0,0-.443-.412,1.38,1.38,0,0,0-.65-.141.932.932,0,0,0-.9.566,3.568,3.568,0,0,0-.273,1.527Z" fill="#fff"/><path d="M200.362,199.438l.089,1.015.021.008a2.613,2.613,0,0,1,.888-.858,2.376,2.376,0,0,1,1.2-.3,2.171,2.171,0,0,1,1.728.7,3.452,3.452,0,0,1,.608,2.281v4.639H202.56v-4.645a1.28,1.28,0,0,0-.26-.917,1.076,1.076,0,0,0-.791-.259,1.38,1.38,0,0,0-.581.115,1.211,1.211,0,0,0-.428.33v5.379h-2.33v-7.482Z" fill="#fff"/><path d="M221.506,162.013c.166-1.786,3.84-2.55,3.587-8.794a125.793,125.793,0,0,0-1.259-12.63c-43.535-18.622-64.345-1.51-64.345-1.51s-20.81-17.112-64.346,1.51a125.867,125.867,0,0,0-1.257,12.631c-.252,6.244,3.422,7.008,3.586,8.795l10.366,11.921H213.4Z" fill="#f9c0b2"/><path d="M213.4,174.681H107.838a.742.742,0,0,1-.562-.256L96.911,162.5a.74.74,0,0,1-.18-.42c-.032-.343-.4-.74-.858-1.242-1.16-1.263-2.912-3.171-2.732-7.651a127.759,127.759,0,0,1,1.267-12.716.745.745,0,0,1,.443-.569c13.569-5.8,26.331-8.747,37.934-8.747,15.929,0,24.637,5.5,26.705,6.987,2.068-1.49,10.774-6.987,26.7-6.987,11.6,0,24.366,2.943,37.935,8.747a.745.745,0,0,1,.443.569c.01.065,1.016,6.5,1.267,12.716.18,4.48-1.572,6.388-2.732,7.651-.462.5-.827.9-.858,1.242a.748.748,0,0,1-.126.35l-8.1,11.923A.745.745,0,0,1,213.4,174.681ZM108.178,173.19h104.83l7.786-11.455a4.157,4.157,0,0,1,1.215-1.9,7.933,7.933,0,0,0,2.34-6.582c-.211-5.238-.966-10.638-1.188-12.137-13.24-5.615-25.675-8.464-36.967-8.464-17.459,0-26.146,6.936-26.232,7.008a.746.746,0,0,1-.943,0c-.085-.07-8.777-7.008-26.232-7.008-11.291,0-23.727,2.848-36.966,8.464-.222,1.5-.978,6.9-1.188,12.137a7.936,7.936,0,0,0,2.34,6.583,4.27,4.27,0,0,1,1.2,1.852Z" fill="#58595b"/><path d="M212.972,166.858a60.7,60.7,0,0,1,6.094-6.119c2.433-1.905,2.7.617,2.275,3.059s-1.27,7.522-2.381,12.019-3.7,7.988-7.2,4.682S207.326,172.615,212.972,166.858Z" fill="#fff"/><path d="M214.434,182.551a4.709,4.709,0,0,1-3.182-1.51,8.711,8.711,0,0,1-3.055-6.206c-.05-2.712,1.372-5.565,4.228-8.482a60.186,60.186,0,0,1,6.181-6.2,3.181,3.181,0,0,1,1.883-.827,1.5,1.5,0,0,1,1.18.549c.759.9.64,2.7.406,4.052l-.107.619c-.439,2.545-1.254,7.28-2.285,11.451S216.741,182.551,214.434,182.551Zm6.056-21.735c-.073,0-.359.037-.965.511a60.626,60.626,0,0,0-5.99,6.021c-.01.012-.019.023-.03.034-2.576,2.625-3.86,5.123-3.817,7.426a7.283,7.283,0,0,0,2.589,5.151,3.322,3.322,0,0,0,2.157,1.1c1.52,0,2.976-2.077,3.8-5.421,1.017-4.12,1.827-8.821,2.262-11.347l.107-.62c.331-1.917.048-2.763-.094-2.856h-.022Z" fill="#58595b"/><path d="M198.585,164.844s4.775-6.915,6.911-9.2,5.719-3.587,7.016-.991.762,15.4-.916,19.827-5.109,7.8-8.846,5S193.658,172.521,198.585,164.844Z" fill="#fff"/><path d="M205.505,181.246a5.322,5.322,0,0,1-3.2-1.167c-1.793-1.34-4.247-3.175-5.55-5.747-1.5-2.973-1.1-6.3,1.2-9.89l.014-.021c.2-.283,4.831-6.987,6.979-9.288a7.816,7.816,0,0,1,5.222-2.66,3.217,3.217,0,0,1,3.006,1.841c1.422,2.845.859,15.825-.886,20.426C210.749,178.814,208.211,181.246,205.505,181.246Zm-6.3-15.988c-4.259,6.647-.543,10.24,3.99,13.627a3.875,3.875,0,0,0,2.308.87c2.429,0,4.379-2.863,5.4-5.542,1.7-4.47,2.1-16.931.944-19.23a1.722,1.722,0,0,0-1.672-1.019,6.391,6.391,0,0,0-4.132,2.185C204,158.331,199.415,164.955,199.206,165.258Z" fill="#58595b"/><path d="M199.1,173.538c0,5.348-17.17,5.348-17.17,0,0-9.249,3.423-20.777,8.585-20.777C197.706,152.761,199.1,164.291,199.1,173.538Z" fill="#fff"/><path d="M190.513,178.294c-4.645,0-9.331-1.47-9.331-4.756a42.758,42.758,0,0,1,2.4-14.116c1.8-4.845,4.2-7.408,6.927-7.408,3.586,0,6.176,2.506,7.7,7.447a49.446,49.446,0,0,1,1.629,14.076C199.843,176.824,195.157,178.294,190.513,178.294Zm0-24.788c-4.415,0-7.84,10.769-7.84,20.032,0,2.124,4.039,3.266,7.84,3.266s7.839-1.145,7.839-3.266c0-9.138-1.359-20.032-7.839-20.032Z" fill="#58595b"/><path d="M106.007,166.858a60.645,60.645,0,0,0-6.093-6.119c-2.434-1.905-2.7.617-2.275,3.059s1.27,7.522,2.381,12.019,3.7,7.988,7.2,4.682S111.654,172.615,106.007,166.858Z" fill="#fff"/><path d="M104.545,182.551h0c-2.307,0-4.22-2.388-5.249-6.554s-1.846-8.906-2.284-11.449l-.108-.621c-.236-1.35-.353-3.15.406-4.052a1.5,1.5,0,0,1,1.179-.549,3.178,3.178,0,0,1,1.884.827,60.227,60.227,0,0,1,6.182,6.2c2.856,2.917,4.278,5.77,4.228,8.482a8.716,8.716,0,0,1-3.056,6.206A4.705,4.705,0,0,1,104.545,182.551ZM98.49,160.818a.1.1,0,0,0-.024,0c-.139.089-.425.934-.095,2.854l.108.622c.435,2.526,1.245,7.227,2.263,11.346.825,3.343,2.283,5.42,3.8,5.42a3.315,3.315,0,0,0,2.157-1.1,7.288,7.288,0,0,0,2.59-5.151c.042-2.3-1.242-4.8-3.818-7.426l-.031-.033a60.211,60.211,0,0,0-5.989-6.022C98.849,160.853,98.563,160.818,98.49,160.818Z" fill="#58595b"/><path d="M120.4,164.844s-4.775-6.915-6.911-9.2-5.719-3.587-7.016-.991-.762,15.4.915,19.827,5.11,7.8,8.847,5S125.322,172.521,120.4,164.844Z" fill="#fff"/><path d="M113.476,181.246h0c-2.706,0-5.245-2.432-6.789-6.5-1.746-4.6-2.307-17.581-.885-20.426a3.213,3.213,0,0,1,3.006-1.84,7.823,7.823,0,0,1,5.222,2.659c2.148,2.3,6.782,9,6.978,9.288l.014.021c2.3,3.591,2.71,6.918,1.2,9.89-1.3,2.572-3.758,4.407-5.551,5.747a5.316,5.316,0,0,1-3.2,1.165Zm-4.669-27.282a1.722,1.722,0,0,0-1.672,1.019c-1.149,2.3-.75,14.76.944,19.23,1.016,2.679,2.967,5.541,5.4,5.542h0a3.872,3.872,0,0,0,2.308-.87c4.533-3.388,8.25-6.98,3.991-13.627-.211-.305-4.8-6.927-6.835-9.108a6.384,6.384,0,0,0-4.131-2.186Z" fill="#58595b"/><path d="M119.882,173.538c0,5.348,17.17,5.348,17.17,0,0-9.249-3.423-20.777-8.585-20.777C121.274,152.761,119.882,164.291,119.882,173.538Z" fill="#fff"/><path d="M128.467,178.294c-4.644,0-9.331-1.47-9.331-4.756a49.415,49.415,0,0,1,1.629-14.076c1.526-4.941,4.117-7.447,7.7-7.447,2.731,0,5.126,2.562,6.927,7.409a42.784,42.784,0,0,1,2.4,14.116C137.8,176.824,133.111,178.294,128.467,178.294Zm0-24.788c-6.48,0-7.84,10.894-7.84,20.032,0,2.124,4.039,3.266,7.84,3.266s7.84-1.145,7.84-3.266c0-9.263-3.425-20.032-7.84-20.032Z" fill="#58595b"/><path d="M181.928,175.437c0,5.393-22.438,5.393-22.438,0,0-9.323,1.819-23.9,11.219-23.9S181.928,166.114,181.928,175.437Z" fill="#fff"/><path d="M170.709,180.227c-5.521,0-11.965-1.254-11.965-4.79,0-7.408,1.167-24.643,11.965-24.643s11.964,17.234,11.964,24.643C182.673,178.973,176.228,180.227,170.709,180.227Zm0-27.942c-3.806,0-6.642,2.673-8.429,7.946-1.779,5.251-2.045,11.781-2.045,15.206,0,1.85,4.6,3.3,10.474,3.3s10.473-1.449,10.473-3.3c0-3.425-.266-9.957-2.045-15.206C177.35,154.958,174.514,152.285,170.709,152.285Z" fill="#58595b"/><path d="M137.052,175.437c0,5.393,22.438,5.393,22.438,0,0-9.323-1.82-23.9-11.219-23.9S137.052,166.114,137.052,175.437Z" fill="#fff"/><path d="M148.271,180.227c-5.521,0-11.964-1.254-11.964-4.79,0-7.408,1.166-24.643,11.964-24.643s11.964,17.234,11.964,24.643C160.235,178.973,153.79,180.227,148.271,180.227Zm0-27.942c-3.8,0-6.641,2.673-8.428,7.946-1.779,5.251-2.045,11.781-2.045,15.206,0,1.85,4.6,3.3,10.473,3.3s10.473-1.449,10.473-3.3c0-3.425-.265-9.957-2.045-15.206C154.912,154.958,152.077,152.285,148.271,152.285Z" fill="#58595b"/><g opacity="0.75"><path d="M220.172,160.806a35.889,35.889,0,0,0-4.541-1.159c-2.59-.511-5.961-.994-10.341-1.416-2.716-.262-5.819-.5-9.365-.707-2.33-.137-4.849-.26-7.576-.368-3.461-.136-7.254-.248-11.413-.33q-5.364-.1-11.561-.141-2.885-.019-5.961-.02-2.994,0-5.807.016c-4.134.023-7.978.071-11.555.141-4.161.081-7.959.191-11.423.327-2.719.106-5.232.228-7.557.363-3.554.206-6.664.444-9.39.705-4.362.417-7.73.9-10.328,1.4a28.373,28.373,0,0,0-6.132,1.75c-2,.908-2.459,1.793-2.527,2.495a2.4,2.4,0,0,0,0,.415,11.936,11.936,0,0,0,.18,1.707l.11.635c.453,2.628,1.3,7.518,2.359,11.827s3.038,6.766,5.42,6.767h0a4.878,4.878,0,0,0,3.285-1.557,11.936,11.936,0,0,0,1.649-1.907,5.946,5.946,0,0,0,4.285,2.117h0a5.488,5.488,0,0,0,3.3-1.2,32.657,32.657,0,0,0,3.159-2.591c1.452,2.049,5.246,2.988,9.013,2.988,3.206,0,6.429-.68,8.215-2.145.91,3.036,6.975,4.14,12.231,4.14,4.536,0,9.674-.822,11.583-3,1.909,2.176,7.046,3,11.583,3,5.255,0,11.321-1.1,12.231-4.14,1.785,1.463,5.009,2.145,8.215,2.145,3.769,0,7.563-.939,9.013-2.988a32.657,32.657,0,0,0,3.159,2.591,5.5,5.5,0,0,0,3.3,1.2,6.4,6.4,0,0,0,4.916-2.857,12.809,12.809,0,0,0,1.018,1.079,4.862,4.862,0,0,0,3.285,1.558c2.382,0,4.358-2.466,5.42-6.767s1.908-9.2,2.36-11.83l.109-.632V164.4l.012-.023c0-.034.007-.07.01-.106C224.2,163.4,223.952,162.092,220.172,160.806Z" fill="#fff"/><path d="M220.412,160.1a36.811,36.811,0,0,0-4.637-1.184c-2.784-.549-6.286-1.029-10.414-1.428-2.806-.271-5.966-.51-9.393-.71-2.368-.139-4.922-.263-7.59-.369-3.536-.141-7.38-.25-11.427-.33-3.634-.072-7.527-.119-11.57-.141-3.847-.023-7.994-.023-11.778,0-4.036.022-7.927.069-11.565.141-4.048.079-7.9.189-11.439.327-2.651.1-5.2.227-7.57.364-3.43.2-6.6.437-9.416.708-4.113.394-7.612.868-10.4,1.41a29.533,29.533,0,0,0-6.3,1.8c-1.872.85-2.841,1.866-2.961,3.1a3.15,3.15,0,0,0,0,.523,12.458,12.458,0,0,0,.188,1.8l.11.636c.454,2.636,1.3,7.544,2.371,11.878,1.151,4.66,3.39,7.333,6.143,7.333a5.575,5.575,0,0,0,3.8-1.763,13.448,13.448,0,0,0,1.227-1.321,6.331,6.331,0,0,0,4.2,1.737,6.218,6.218,0,0,0,3.75-1.352c.783-.585,1.723-1.289,2.652-2.117,1.706,1.68,5.007,2.662,9.075,2.662a15.7,15.7,0,0,0,7.915-1.769c2.187,3.476,10.026,3.764,12.532,3.764,2.04,0,8.584-.206,11.582-2.708,3,2.5,9.543,2.708,11.583,2.708,2.506,0,10.344-.288,12.532-3.764a15.689,15.689,0,0,0,7.915,1.769c4.068,0,7.369-.982,9.075-2.662.928.829,1.869,1.532,2.652,2.117A6.221,6.221,0,0,0,207,184.613a6.688,6.688,0,0,0,4.934-2.465q.237.246.487.484a5.579,5.579,0,0,0,3.8,1.763c2.753,0,4.992-2.673,6.143-7.334,1.071-4.335,1.917-9.242,2.372-11.882l.1-.566a.7.7,0,0,0,.033-.158c0-.04.008-.081.011-.124C225.011,162.5,223.635,161.2,220.412,160.1Zm2.978,4.115v.008c-.006.023-.011.047-.014.066l-.11.635c-.451,2.619-1.291,7.492-2.349,11.775-.959,3.882-2.715,6.2-4.7,6.2a4.165,4.165,0,0,1-2.773-1.355c-.243-.23-.472-.469-.687-.711l3.656-15.214a.746.746,0,0,0-1.45-.348l-3.685,15.336a5.616,5.616,0,0,1-4.28,2.511,4.772,4.772,0,0,1-2.859-1.056,33.893,33.893,0,0,1-2.878-2.333l-.551-14.051a.746.746,0,0,0-1.49.059l.554,14.1c-1.269,1.513-4.46,2.479-8.258,2.479-3.14,0-5.886-.652-7.456-1.759l-.6-10.434a.745.745,0,1,0-1.488.087l.61,10.523c-.783,2.471-6.333,3.579-11.507,3.579-5,0-9.04-.933-10.735-2.454V170.1a.745.745,0,1,0-1.49,0v11.553c-1.553,1.641-5.719,2.657-10.941,2.657-4.873,0-10.082-.982-11.325-3.161l.634-10.94a.746.746,0,0,0-1.489-.087l-.595,10.271c-1.526,1.2-4.382,1.922-7.672,1.922-3.612,0-6.677-.875-8.058-2.265l.562-14.311a.746.746,0,0,0-1.49-.059l-.544,13.853h0a32.118,32.118,0,0,1-3.088,2.53,4.766,4.766,0,0,1-2.857,1.056,5.008,5.008,0,0,1-3.4-1.541l-4.294-14.7a.746.746,0,0,0-1.431.419l4.135,14.152a11.394,11.394,0,0,1-1.455,1.663,4.177,4.177,0,0,1-2.773,1.354h0c-1.982,0-3.737-2.317-4.7-6.2-1.058-4.282-1.9-9.154-2.349-11.774l-.109-.636a11.148,11.148,0,0,1-.17-1.6v-.037a1.529,1.529,0,0,1,0-.287c.063-.651.767-1.286,2.093-1.888a28.125,28.125,0,0,1,5.966-1.7c2.74-.533,6.191-1,10.256-1.39,2.8-.268,5.95-.5,9.361-.7,2.359-.137,4.9-.259,7.542-.363,3.532-.137,7.371-.247,11.409-.326,3.631-.07,7.516-.118,11.545-.141,1.872-.011,3.822-.016,5.8-.016,2.016,0,4.021,0,5.959.017,4.036.023,7.922.07,11.549.141,4.038.08,7.872.189,11.4.331,2.659.1,5.2.228,7.562.366,3.407.2,6.549.438,9.337.708,4.079.394,7.534.867,10.269,1.406a35.418,35.418,0,0,1,4.444,1.133C223.5,162.725,223.419,163.808,223.39,164.215Z" fill="#e6e7e8"/></g><path d="M128.379,37.007c.165-1.787,3.839-2.551,3.586-8.795a126.094,126.094,0,0,0-1.258-12.629c-43.535-18.622-64.346-1.51-64.346-1.51S45.551-3.039,2.015,15.583A126.092,126.092,0,0,0,.758,28.212C.506,34.456,4.18,35.22,4.344,37.007L14.71,42.422H120.275Z" fill="#f9c0b2"/><path d="M120.275,43.169H14.71a.743.743,0,0,1-.345-.085L4,37.668a.75.75,0,0,1-.4-.593c-.031-.342-.394-.74-.858-1.242C1.585,34.571-.167,32.662.013,28.182.264,21.967,1.27,15.531,1.28,15.467a.747.747,0,0,1,.443-.57c13.569-5.8,26.331-8.746,37.935-8.746,15.928,0,24.636,5.5,26.7,6.987,2.068-1.491,10.774-6.987,26.7-6.987,11.6,0,24.366,2.942,37.935,8.746a.747.747,0,0,1,.443.57,127.68,127.68,0,0,1,1.267,12.715c.18,4.48-1.572,6.389-2.732,7.651-.462.5-.826.9-.858,1.242a.745.745,0,0,1-.33.552l-8.1,5.416A.747.747,0,0,1,120.275,43.169ZM14.893,41.678H120.047l7.658-5.119a4.556,4.556,0,0,1,1.175-1.734,7.938,7.938,0,0,0,2.34-6.582c-.211-5.238-.967-10.638-1.189-12.138-13.239-5.615-25.674-8.464-36.966-8.464-17.507,0-26.146,6.937-26.231,7.008a.746.746,0,0,1-.947,0c-.085-.07-8.777-7.008-26.231-7.008-11.29,0-23.725,2.848-36.966,8.464-.222,1.5-.977,6.9-1.189,12.138a7.938,7.938,0,0,0,2.34,6.582A4.683,4.683,0,0,1,5,36.509Z" fill="#58595b"/><path d="M121.306,57.233h-.026a.433.433,0,1,1,.016-.865h0a2.678,2.678,0,0,0,1.978-1.03.434.434,0,0,1,.643.58,3.5,3.5,0,0,1-2.611,1.315ZM118.9,56.164a.435.435,0,0,1-.284-.105c-.094-.079-.184-.162-.277-.25a11.254,11.254,0,0,1-1.571-1.825.434.434,0,0,1,.717-.488,10.3,10.3,0,0,0,1.451,1.683c.083.079.165.153.247.223a.434.434,0,0,1-.283.762Zm6.087-2.372a.433.433,0,0,1-.4-.607,15.578,15.578,0,0,0,.819-2.464.434.434,0,0,1,.842.208,16.318,16.318,0,0,1-.866,2.6.436.436,0,0,1-.4.263Zm1.448-5.138a.429.429,0,0,1-.425-.526c.18-.823.362-1.7.542-2.609a.434.434,0,1,1,.85.168c-.182.914-.365,1.8-.546,2.626a.432.432,0,0,1-.422.341ZM116.69,46.57a.434.434,0,0,1-.391-.622,14.063,14.063,0,0,1,1.449-2.341.435.435,0,0,1,.695.523,13.152,13.152,0,0,0-1.36,2.194.433.433,0,0,1-.393.246Zm10.788-3.161a.415.415,0,0,1-.079-.008.429.429,0,0,1-.279-.18.438.438,0,0,1-.07-.324c.177-.963.334-1.854.468-2.629a.434.434,0,0,1,.855.148c-.135.778-.292,1.671-.469,2.637a.434.434,0,0,1-.426.357Zm-7.634-1.122a.434.434,0,0,1-.327-.718c.008-.009.768-.883,1.808-2a.434.434,0,1,1,.634.592c-1.029,1.1-1.779,1.967-1.787,1.976a.433.433,0,0,1-.328.149Zm3.658-3.911a.434.434,0,0,1-.306-.742c.743-.737,1.411-1.358,1.987-1.844a.434.434,0,1,1,.559.661c-.557.472-1.209,1.076-1.934,1.8A.43.43,0,0,1,123.5,38.376Zm4.85-.24h-.034a.435.435,0,0,1-.4-.466c.017-.213.025-.419.025-.61,0-.783-.145-1.346-.389-1.51a.434.434,0,0,1,.481-.722,2.549,2.549,0,0,1,.776,2.229c0,.215-.009.443-.028.678A.433.433,0,0,1,128.352,38.136Z" fill="#58595b"/><path d="M112.377,55.928a4.525,4.525,0,0,1-1.884-.425.434.434,0,0,1,.36-.789,3.505,3.505,0,0,0,2.318.253.434.434,0,1,1,.2.843A4.294,4.294,0,0,1,112.377,55.928Zm3.187-1.412a.434.434,0,0,1-.294-.753,9.389,9.389,0,0,0,1.592-1.982.435.435,0,0,1,.751.022.437.437,0,0,1-.013.434,10.285,10.285,0,0,1-1.742,2.163A.434.434,0,0,1,115.564,54.516Zm-7.088-.478a.433.433,0,0,1-.267-.095,23.126,23.126,0,0,1-2.052-1.779.434.434,0,1,1,.61-.617,22.544,22.544,0,0,0,1.977,1.714.433.433,0,0,1-.268.775Zm9.934-3.982a.435.435,0,0,1-.4-.591l.057-.148a15.625,15.625,0,0,0,.64-2.349.434.434,0,0,1,.85.175,16.691,16.691,0,0,1-.679,2.482l-.06.155a.434.434,0,0,1-.4.276Zm-14.882-4.885a.41.41,0,0,1-.05,0,.435.435,0,0,1-.381-.482,10.185,10.185,0,0,1,.722-2.681.434.434,0,1,1,.8.33,9.3,9.3,0,0,0-.66,2.451.434.434,0,0,1-.433.384Zm16.036-.313a.39.39,0,0,1-.058,0,.432.432,0,0,1-.372-.487c.11-.83.206-1.716.286-2.632a.434.434,0,1,1,.864.075c-.081.929-.178,1.828-.291,2.672a.434.434,0,0,1-.429.377Zm-14.109-4.586a.434.434,0,0,1-.357-.68c.007-.009.644-.932,1.543-2.2a.434.434,0,1,1,.707.5c-.9,1.257-1.529,2.176-1.535,2.185a.433.433,0,0,1-.356.187Zm14.576-.728h-.021a.435.435,0,0,1-.3-.142.427.427,0,0,1-.112-.312c.042-.9.067-1.793.074-2.65a.433.433,0,0,1,.742-.3.431.431,0,0,1,.125.307c-.006.866-.032,1.77-.075,2.685a.434.434,0,0,1-.433.413Zm-11.473-3.628a.426.426,0,0,1-.255-.084.434.434,0,0,1-.095-.606c.58-.792,1.119-1.515,1.605-2.149a.434.434,0,1,1,.689.527c-.48.629-1.016,1.347-1.592,2.134a.435.435,0,0,1-.352.177Zm11.5-1.7a.435.435,0,0,1-.433-.413,22.687,22.687,0,0,0-.253-2.6.434.434,0,0,1,.855-.145,23.364,23.364,0,0,1,.264,2.7.431.431,0,0,1-.111.312.44.44,0,0,1-.3.142Zm-8.234-2.525a.433.433,0,0,1-.33-.714c.2-.242.394-.454.56-.632a9.258,9.258,0,0,1,1.459-1.266.434.434,0,0,1,.5.711,8.391,8.391,0,0,0-1.321,1.147c-.157.168-.337.371-.533.6a.435.435,0,0,1-.332.15ZM118.7,29.2a.434.434,0,0,1-.275-.1,2.472,2.472,0,0,0-2.165-.358.435.435,0,0,1-.189-.85,3.3,3.3,0,0,1,2.9.535.433.433,0,0,1-.275.768Z" fill="#58595b"/><path d="M97.052,52.974h-.007a19.681,19.681,0,0,1-2.71-.226.434.434,0,1,1,.134-.857,19.035,19.035,0,0,0,2.59.216.434.434,0,1,1-.007.867Zm2.656-.131a.433.433,0,0,1-.05-.864,14.836,14.836,0,0,0,2.531-.509.434.434,0,1,1,.251.83,15.6,15.6,0,0,1-2.68.54l-.051,0Zm-7.884-.735a.428.428,0,0,1-.15-.027,6.37,6.37,0,0,1-2.423-1.466.434.434,0,1,1,.626-.6,5.561,5.561,0,0,0,2.1,1.253.434.434,0,0,1-.151.84Zm12.883-.921a.433.433,0,0,1-.261-.78,2.345,2.345,0,0,0,1.089-1.875v-.026a.434.434,0,0,1,.868,0v.026a3.2,3.2,0,0,1-1.436,2.568.434.434,0,0,1-.259.087ZM88.8,48.3H88.8a.432.432,0,0,1-.424-.441c.015-.875.06-1.779.134-2.686a.434.434,0,1,1,.865.07c-.073.889-.117,1.775-.132,2.631a.434.434,0,0,1-.433.426Zm17.123-2.021a.434.434,0,0,1-.433-.42c-.029-.908-.074-1.8-.133-2.643a.434.434,0,1,1,.865-.061c.06.857.105,1.757.135,2.676a.435.435,0,0,1-.42.447ZM89.233,43a.418.418,0,0,1-.061-.005A.433.433,0,0,1,88.8,42.5c.126-.893.28-1.785.456-2.65a.434.434,0,1,1,.85.174c-.173.849-.324,1.722-.447,2.595a.435.435,0,0,1-.429.375Zm16.313-2.026a.434.434,0,0,1-.43-.383c-.109-.912-.24-1.788-.39-2.605a.434.434,0,0,1,.853-.157c.154.835.288,1.73.4,2.66a.433.433,0,0,1-.377.482A.489.489,0,0,1,105.546,40.97ZM90.3,37.783a.433.433,0,0,1-.418-.549c.247-.9.522-1.765.816-2.57a.434.434,0,1,1,.815.3c-.286.783-.554,1.625-.8,2.5A.432.432,0,0,1,90.3,37.783Zm14.26-2.04a.434.434,0,0,1-.417-.317,19.509,19.509,0,0,0-.852-2.458.434.434,0,0,1,.8-.342,20.394,20.394,0,0,1,.891,2.567.434.434,0,0,1-.419.55ZM92.15,32.8a.437.437,0,0,1-.369-.207.432.432,0,0,1-.018-.422A14.583,14.583,0,0,1,93.2,29.838a.434.434,0,0,1,.688.528A13.835,13.835,0,0,0,92.54,32.56a.436.436,0,0,1-.388.241ZM102.4,30.913a.436.436,0,0,1-.351-.178,6.681,6.681,0,0,0-1.778-1.726.433.433,0,1,1,.466-.731,7.522,7.522,0,0,1,2.014,1.947.433.433,0,0,1-.349.686Zm-6.922-2.175a.434.434,0,0,1-.22-.808,4.169,4.169,0,0,1,2.13-.608,6.6,6.6,0,0,1,.679.034.434.434,0,0,1-.086.863,5.772,5.772,0,0,0-.593-.029,3.325,3.325,0,0,0-1.691.488A.432.432,0,0,1,95.475,28.738Z" fill="#58595b"/><path d="M11.42,57.233a3.5,3.5,0,0,1-2.61-1.315.434.434,0,0,1,.643-.582,2.676,2.676,0,0,0,1.967,1.03.442.442,0,0,1,.443.43.424.424,0,0,1-.417.437Zm2.406-1.069a.434.434,0,0,1-.283-.762c.082-.07.163-.144.247-.223A10.4,10.4,0,0,0,15.241,53.5a.434.434,0,0,1,.717.488,11.211,11.211,0,0,1-1.572,1.825c-.094.088-.185.171-.277.25A.431.431,0,0,1,13.826,56.164ZM7.739,53.8a.432.432,0,0,1-.4-.261,16.445,16.445,0,0,1-.867-2.6.434.434,0,1,1,.842-.209,15.578,15.578,0,0,0,.819,2.464.434.434,0,0,1-.4.608ZM6.29,48.654a.431.431,0,0,1-.424-.341c-.181-.828-.365-1.712-.546-2.626a.434.434,0,0,1,.85-.168c.18.908.362,1.786.542,2.609a.435.435,0,0,1-.331.517.46.46,0,0,1-.091.009Zm9.745-2.084a.432.432,0,0,1-.391-.246,13.218,13.218,0,0,0-1.36-2.194.434.434,0,1,1,.692-.523,14,14,0,0,1,1.449,2.341.432.432,0,0,1-.2.579.417.417,0,0,1-.187.043ZM5.247,43.409a.435.435,0,0,1-.425-.356c-.177-.966-.334-1.859-.469-2.637a.433.433,0,1,1,.854-.148c.135.775.292,1.665.468,2.628a.432.432,0,0,1-.348.505.363.363,0,0,1-.08.009Zm7.633-1.124a.436.436,0,0,1-.331-.149c-.007-.009-.757-.872-1.787-1.976a.434.434,0,0,1,.635-.592c1.04,1.116,1.8,1.99,1.807,2a.433.433,0,0,1-.327.718ZM9.223,38.374a.432.432,0,0,1-.306-.126c-.726-.721-1.378-1.326-1.935-1.8a.434.434,0,0,1,.56-.661c.575.486,1.243,1.107,1.986,1.844a.434.434,0,0,1-.3.742Zm-4.852-.237a.435.435,0,0,1-.432-.4c-.018-.236-.027-.465-.027-.679a2.549,2.549,0,0,1,.776-2.229.434.434,0,0,1,.481.722c-.244.162-.39.725-.39,1.51,0,.191.009.4.025.61a.434.434,0,0,1-.4.467Z" fill="#58595b"/><path d="M20.347,55.928a4.3,4.3,0,0,1-1-.12.434.434,0,0,1,.2-.843,3.505,3.505,0,0,0,2.318-.253.434.434,0,1,1,.36.789,4.527,4.527,0,0,1-1.884.427ZM17.16,54.516a.433.433,0,0,1-.294-.115,10.265,10.265,0,0,1-1.742-2.164.434.434,0,0,1,.738-.456,9.4,9.4,0,0,0,1.592,1.982.434.434,0,0,1-.294.753Zm7.088-.479a.433.433,0,0,1-.268-.775,22.367,22.367,0,0,0,1.977-1.713.434.434,0,0,1,.61.617,23.126,23.126,0,0,1-2.052,1.779.43.43,0,0,1-.267.092Zm-9.934-3.981a.434.434,0,0,1-.4-.276l-.059-.155a16.624,16.624,0,0,1-.679-2.482.434.434,0,0,1,.85-.175,15.625,15.625,0,0,0,.64,2.349l.057.148a.433.433,0,0,1-.4.591ZM29.2,45.171a.434.434,0,0,1-.431-.383,9.3,9.3,0,0,0-.66-2.451.433.433,0,0,1,.057-.43.434.434,0,0,1,.745.1,10.175,10.175,0,0,1,.722,2.681.435.435,0,0,1-.381.482.451.451,0,0,1-.052,0ZM13.16,44.858a.434.434,0,0,1-.429-.378c-.113-.844-.21-1.742-.291-2.672a.434.434,0,1,1,.864-.075c.08.916.176,1.8.286,2.633a.434.434,0,0,1-.372.487.567.567,0,0,1-.058,0Zm14.109-4.586a.433.433,0,0,1-.357-.189c-.006-.009-.641-.928-1.535-2.185a.434.434,0,1,1,.707-.5c.9,1.263,1.536,2.186,1.543,2.2a.434.434,0,0,1-.357.68Zm-14.575-.728a.433.433,0,0,1-.433-.414c-.044-.915-.069-1.818-.075-2.684a.434.434,0,0,1,.867-.006c.006.854.031,1.746.074,2.649a.432.432,0,0,1-.412.454Zm11.473-3.628a.434.434,0,0,1-.351-.178c-.576-.787-1.111-1.505-1.592-2.134a.434.434,0,1,1,.69-.527c.484.634,1.023,1.357,1.6,2.149a.434.434,0,0,1-.349.69Zm-11.5-1.7h-.022a.44.44,0,0,1-.3-.142.433.433,0,0,1-.111-.313,23.326,23.326,0,0,1,.264-2.7.434.434,0,1,1,.855.145,22.665,22.665,0,0,0-.253,2.6A.434.434,0,0,1,12.669,34.212Zm8.236-2.527a.437.437,0,0,1-.331-.152c-.2-.232-.377-.434-.533-.6a8.346,8.346,0,0,0-1.321-1.148.433.433,0,1,1,.5-.71,9.207,9.207,0,0,1,1.459,1.266c.166.178.355.39.56.631a.434.434,0,0,1-.33.715Zm-6.879-2.491a.433.433,0,0,1-.275-.768,2.945,2.945,0,0,1,1.928-.647,4.507,4.507,0,0,1,.975.112.436.436,0,0,1,.226.719.438.438,0,0,1-.415.131A2.471,2.471,0,0,0,14.3,29.1a.431.431,0,0,1-.274.095Z" fill="#58595b"/><path d="M35.672,52.974a.434.434,0,0,1-.007-.867,19.035,19.035,0,0,0,2.59-.216.434.434,0,1,1,.134.857,19.681,19.681,0,0,1-2.71.226Zm-2.656-.131-.051,0a15.59,15.59,0,0,1-2.681-.54.434.434,0,1,1,.251-.83,14.836,14.836,0,0,0,2.531.509.433.433,0,0,1-.05.864Zm7.884-.735a.434.434,0,0,1-.151-.84,5.553,5.553,0,0,0,2.1-1.253.434.434,0,1,1,.627.6,6.382,6.382,0,0,1-2.424,1.466.428.428,0,0,1-.15.027Zm-12.883-.921a.428.428,0,0,1-.26-.087,3.2,3.2,0,0,1-1.436-2.568.445.445,0,0,1,.434-.447.425.425,0,0,1,.434.421v.031a2.344,2.344,0,0,0,1.089,1.87.433.433,0,0,1-.261.78ZM43.92,48.3a.434.434,0,0,1-.434-.425c-.015-.857-.059-1.742-.131-2.631a.433.433,0,1,1,.864-.07c.074.907.119,1.811.134,2.686a.432.432,0,0,1-.424.441ZM26.8,46.279h-.015a.434.434,0,0,1-.419-.448c.029-.92.074-1.82.135-2.675a.434.434,0,0,1,.865.06c-.059.845-.1,1.734-.133,2.643A.435.435,0,0,1,26.8,46.279ZM43.491,43a.433.433,0,0,1-.429-.373c-.124-.875-.274-1.749-.447-2.6a.433.433,0,0,1,.849-.173c.176.865.331,1.757.456,2.649a.434.434,0,0,1-.369.491A.4.4,0,0,1,43.491,43ZM27.178,40.97a.453.453,0,0,1-.052,0,.434.434,0,0,1-.377-.482c.111-.931.245-1.826.4-2.66a.434.434,0,0,1,.853.157c-.151.816-.283,1.693-.391,2.605a.434.434,0,0,1-.432.383Zm15.244-3.187A.433.433,0,0,1,42,37.464c-.241-.877-.508-1.719-.795-2.5a.434.434,0,0,1,.815-.3c.3.806.57,1.671.817,2.571a.435.435,0,0,1-.3.533.414.414,0,0,1-.116.014Zm-14.26-2.04a.457.457,0,0,1-.116-.016.434.434,0,0,1-.3-.534,20.182,20.182,0,0,1,.891-2.567.433.433,0,1,1,.8.342,19.5,19.5,0,0,0-.849,2.458.435.435,0,0,1-.418.317ZM40.573,32.8a.438.438,0,0,1-.389-.241,13.836,13.836,0,0,0-1.346-2.2.434.434,0,1,1,.689-.527,14.737,14.737,0,0,1,1.433,2.335.434.434,0,0,1-.193.582.428.428,0,0,1-.2.047ZM30.325,30.913a.434.434,0,0,1-.35-.689,7.53,7.53,0,0,1,2.013-1.946.434.434,0,1,1,.467.731,6.669,6.669,0,0,0-1.779,1.726.434.434,0,0,1-.351.176Zm6.924-2.175a.434.434,0,0,1-.219-.06,3.312,3.312,0,0,0-1.691-.488,5.739,5.739,0,0,0-.592.029.434.434,0,0,1-.439-.61.432.432,0,0,1,.352-.253,6.6,6.6,0,0,1,.679-.034,4.189,4.189,0,0,1,2.129.606.434.434,0,0,1-.22.808Z" fill="#58595b"/><path d="M77.581,54.909h-.305a.434.434,0,1,1,0-.867h0c.864.007,1.734-.018,2.577-.075a.434.434,0,1,1,.059.865C79.152,54.883,78.366,54.909,77.581,54.909Zm-2.909-.123h-.038c-.923-.08-1.808-.2-2.629-.35a.434.434,0,0,1,.157-.853c.794.147,1.652.261,2.549.338a.434.434,0,0,1-.037.866Zm7.812-.242a.434.434,0,0,1-.068-.862,19.272,19.272,0,0,0,2.492-.552.434.434,0,0,1,.249.831,20.02,20.02,0,0,1-2.6.577.371.371,0,0,1-.067.006ZM69.556,53.8a.456.456,0,0,1-.142-.025,7.543,7.543,0,0,1-2.434-1.294.434.434,0,1,1,.566-.658A6.7,6.7,0,0,0,69.7,52.95a.434.434,0,0,1-.141.844Zm17.862-.855a.433.433,0,0,1-.236-.8,2.145,2.145,0,0,0,1.185-1.712V50.4a.434.434,0,0,1,.868,0v.033a2.94,2.94,0,0,1-1.578,2.437.442.442,0,0,1-.239.073ZM66.364,50.262h0a.434.434,0,0,1-.431-.437c.008-.881.031-1.765.071-2.628a.433.433,0,1,1,.866.039c-.038.853-.062,1.726-.069,2.6a.435.435,0,0,1-.433.431ZM88.75,48.221a.433.433,0,0,1-.433-.418c-.033-.876-.082-1.748-.147-2.591a.434.434,0,1,1,.865-.067c.065.855.116,1.738.149,2.626a.434.434,0,0,1-.418.449ZM66.605,45.043h-.038a.435.435,0,0,1-.395-.472c.077-.9.173-1.775.283-2.617a.438.438,0,0,1,.265-.344.434.434,0,0,1,.595.458c-.11.829-.2,1.7-.28,2.577a.433.433,0,0,1-.429.4Zm21.74-2.029a.435.435,0,0,1-.43-.382c-.107-.881-.236-1.743-.38-2.563a.434.434,0,0,1,.854-.151c.147.835.278,1.712.387,2.61a.433.433,0,0,1-.377.482.478.478,0,0,1-.053,0ZM67.3,39.868a.38.38,0,0,1-.082-.008.435.435,0,0,1-.345-.507c.171-.9.367-1.765.582-2.577A.434.434,0,1,1,68.3,37c-.21.793-.4,1.64-.566,2.518a.435.435,0,0,1-.428.351Zm20.123-2a.434.434,0,0,1-.421-.33c-.215-.872-.457-1.7-.719-2.471a.434.434,0,1,1,.821-.281c.27.793.519,1.648.74,2.544a.433.433,0,0,1-.049.328.439.439,0,0,1-.268.2.454.454,0,0,1-.1.011ZM68.656,34.825a.433.433,0,0,1-.407-.583A20.685,20.685,0,0,1,69.318,31.8a.434.434,0,0,1,.769.4,19.747,19.747,0,0,0-1.024,2.339A.433.433,0,0,1,68.656,34.825Zm17.059-1.881a.433.433,0,0,1-.391-.245,14.718,14.718,0,0,0-1.281-2.182.434.434,0,0,1,.7-.507,15.582,15.582,0,0,1,1.358,2.313.435.435,0,0,1-.391.622Zm-14.606-2.7a.433.433,0,0,1-.34-.7,10.005,10.005,0,0,1,1.948-1.892.434.434,0,1,1,.509.7,9.125,9.125,0,0,0-1.777,1.729.433.433,0,0,1-.34.164ZM82.638,28.78a.428.428,0,0,1-.277-.1,7.381,7.381,0,0,0-2.109-1.243.434.434,0,1,1,.308-.811,8.255,8.255,0,0,1,2.356,1.387.434.434,0,0,1-.278.767Zm-7.346-1.5a.434.434,0,0,1-.122-.85,8.545,8.545,0,0,1,2.411-.336c.1,0,.2,0,.3,0a.433.433,0,1,1-.029.866c-.089,0-.179,0-.27,0a7.7,7.7,0,0,0-2.166.3.427.427,0,0,1-.123.019Z" fill="#58595b"/><path d="M55.143,54.909c-.785,0-1.571-.026-2.338-.078a.433.433,0,1,1,.058-.865c.845.057,1.712.082,2.578.075h0a.434.434,0,0,1,0,.867Zm2.909-.123a.434.434,0,0,1-.037-.866c.9-.078,1.753-.191,2.549-.338a.434.434,0,1,1,.157.853c-.821.152-1.706.269-2.63.349A.255.255,0,0,1,58.052,54.786Zm-7.812-.242a.382.382,0,0,1-.068-.006,20.02,20.02,0,0,1-2.6-.577.434.434,0,0,1,.249-.831,19.309,19.309,0,0,0,2.492.552.434.434,0,0,1-.068.862Zm12.93-.75a.434.434,0,0,1-.142-.844,6.7,6.7,0,0,0,2.154-1.132.434.434,0,0,1,.567.658,7.543,7.543,0,0,1-2.434,1.294.437.437,0,0,1-.147.025ZM45.306,52.94a.438.438,0,0,1-.236-.071,2.942,2.942,0,0,1-1.578-2.438V50.4a.434.434,0,1,1,.867,0v.033a2.147,2.147,0,0,0,1.185,1.712.433.433,0,0,1-.236.8Zm21.053-2.678a.433.433,0,0,1-.433-.43c-.008-.87-.031-1.746-.07-2.6a.434.434,0,0,1,.867-.039c.039.863.063,1.746.07,2.628a.434.434,0,0,1-.43.438ZM43.974,48.22h-.017a.434.434,0,0,1-.417-.449c.033-.888.083-1.771.149-2.626a.433.433,0,1,1,.864.067c-.064.843-.113,1.715-.146,2.591a.433.433,0,0,1-.433.417Zm22.145-3.178a.433.433,0,0,1-.432-.4c-.076-.882-.17-1.746-.281-2.577a.434.434,0,0,1,.86-.115c.113.842.208,1.723.283,2.617a.434.434,0,0,1-.4.472ZM44.378,43.013a.453.453,0,0,1-.052,0,.433.433,0,0,1-.378-.483c.11-.9.24-1.775.387-2.609a.434.434,0,0,1,.855.151c-.145.819-.273,1.681-.381,2.563a.434.434,0,0,1-.431.38Zm21.044-3.145A.435.435,0,0,1,65,39.515c-.167-.878-.358-1.725-.566-2.518a.433.433,0,0,1,.838-.222c.215.813.411,1.68.582,2.578a.433.433,0,0,1-.345.507.4.4,0,0,1-.084.006Zm-20.121-2a.455.455,0,0,1-.1-.012.439.439,0,0,1-.268-.2.434.434,0,0,1-.049-.328c.22-.9.469-1.752.74-2.544a.434.434,0,1,1,.821.28c-.263.769-.5,1.6-.719,2.471A.434.434,0,0,1,45.3,37.871Zm18.767-3.046a.435.435,0,0,1-.407-.283A19.912,19.912,0,0,0,62.637,32.2a.434.434,0,0,1,.769-.4,20.685,20.685,0,0,1,1.069,2.442.432.432,0,0,1-.257.556.427.427,0,0,1-.15.026ZM47.009,32.946a.435.435,0,0,1-.366-.2.43.43,0,0,1-.024-.418,15.445,15.445,0,0,1,1.358-2.313.434.434,0,1,1,.7.507A14.6,14.6,0,0,0,47.4,32.7.434.434,0,0,1,47.009,32.946Zm14.606-2.7a.433.433,0,0,1-.34-.164A9.125,9.125,0,0,0,59.5,28.35a.434.434,0,1,1,.509-.7,9.977,9.977,0,0,1,1.948,1.892.433.433,0,0,1-.34.7ZM50.086,28.78a.434.434,0,0,1-.278-.767,8.255,8.255,0,0,1,2.356-1.387.434.434,0,0,1,.308.811,7.381,7.381,0,0,0-2.109,1.243.429.429,0,0,1-.277.1Zm7.346-1.5a.426.426,0,0,1-.123-.018,7.665,7.665,0,0,0-2.166-.3c-.091,0-.181,0-.27,0a.434.434,0,1,1-.029-.867c.1,0,.2-.005.3-.005a8.546,8.546,0,0,1,2.411.337.433.433,0,0,1-.122.849Z" fill="#58595b"/><path d="M119.845,41.853a60.645,60.645,0,0,1,6.093-6.119c2.434-1.905,2.7.617,2.275,3.06s-.619,4.052-1.73,8.549S114.2,47.609,119.845,41.853Z" fill="#fff"/><path d="M123.59,49.972c-2.1,0-4.84-1.2-5.772-3.42-.405-.965-.751-2.925,1.478-5.207a60.435,60.435,0,0,1,6.182-6.2,3.183,3.183,0,0,1,1.883-.828,1.5,1.5,0,0,1,1.18.55c.759.9.639,2.7.405,4.052-.071.412-.136.8-.2,1.183-.314,1.879-.614,3.654-1.541,7.417A3.391,3.391,0,0,1,123.59,49.972Zm3.771-14.162c-.073,0-.359.037-.964.511a60.178,60.178,0,0,0-5.99,6.021l-.031.033c-.861.878-1.766,2.218-1.184,3.6.65,1.548,2.789,2.507,4.4,2.507a2.021,2.021,0,0,0,2.171-1.322c.916-3.707,1.208-5.455,1.517-7.3.065-.386.13-.777.2-1.192.331-1.917.048-2.763-.094-2.856Z" fill="#58595b"/><path d="M105.458,39.838s4.775-6.915,6.91-9.2,5.72-3.584,7.016-.991.762,11.934-.915,16.358S100.53,47.519,105.458,39.838Z" fill="#fff"/><path d="M113.562,48.825c-3.469,0-7.754-1.416-9.233-4.122-.6-1.105-1.007-2.917.5-5.267l.014-.021c.2-.284,4.831-6.987,6.979-9.289a7.819,7.819,0,0,1,5.222-2.659,3.216,3.216,0,0,1,3.006,1.843c1.492,2.985.746,12.655-.885,16.956C118.549,47.892,116.508,48.825,113.562,48.825Zm-7.483-8.573a3.521,3.521,0,0,0-.44,3.737c1.187,2.173,4.969,3.346,7.924,3.346,2.223,0,3.836-.614,4.21-1.6,1.6-4.221,2.149-13.355.944-15.761a1.722,1.722,0,0,0-1.672-1.019,6.4,6.4,0,0,0-4.133,2.185C110.877,33.324,106.29,39.945,106.079,40.252Z" fill="#58595b"/><path d="M12.879,41.853a60.645,60.645,0,0,0-6.093-6.119c-2.434-1.905-2.7.617-2.275,3.06s.619,4.052,1.73,8.549S18.526,47.609,12.879,41.853Z" fill="#fff"/><path d="M9.135,49.972h0a3.4,3.4,0,0,1-3.617-2.453c-.929-3.763-1.227-5.538-1.54-7.417-.064-.383-.129-.771-.2-1.183-.236-1.351-.354-3.151.4-4.052a1.5,1.5,0,0,1,1.18-.55,3.187,3.187,0,0,1,1.883.827,60.2,60.2,0,0,1,6.182,6.2c2.229,2.283,1.883,4.242,1.478,5.207C13.974,48.776,11.237,49.972,9.135,49.972ZM5.36,35.808H5.336c-.139.089-.425.934-.1,2.854.073.415.138.806.2,1.192.31,1.85.6,3.6,1.518,7.306a2.022,2.022,0,0,0,2.171,1.321h0c1.608,0,3.746-.959,4.4-2.506.582-1.387-.323-2.725-1.184-3.6l-.031-.033a60.406,60.406,0,0,0-5.99-6.021c-.6-.471-.888-.508-.961-.508Z" fill="#58595b"/><path d="M27.266,39.838s-4.774-6.915-6.91-9.2-5.719-3.584-7.016-.991S12.578,41.579,14.255,46,32.194,47.519,27.266,39.838Z" fill="#fff"/><path d="M19.163,48.825h0c-2.944,0-4.987-.933-5.6-2.559-1.631-4.3-2.377-13.971-.885-16.956a3.216,3.216,0,0,1,3.006-1.843A7.819,7.819,0,0,1,20.9,30.126c2.148,2.3,6.783,9,6.979,9.289l.014.021c1.51,2.35,1.105,4.162.5,5.268C26.916,47.409,22.631,48.825,19.163,48.825ZM15.679,28.959a1.72,1.72,0,0,0-1.672,1.018c-1.2,2.407-.656,11.54.944,15.761.374.985,1.986,1.6,4.21,1.6h0c2.955,0,6.736-1.173,7.923-3.346a3.525,3.525,0,0,0-.44-3.737c-.209-.307-4.8-6.928-6.832-9.108a6.391,6.391,0,0,0-4.133-2.186Z" fill="#58595b"/><path d="M105.97,45.062c0,1.011-17.17,1.011-17.17,0,0-9.249,3.423-17.308,8.585-17.308C104.578,27.754,105.97,35.816,105.97,45.062Z" fill="#fff"/><path d="M97.385,46.565c-2.268,0-4.385-.068-5.961-.191-2.377-.189-3.37-.41-3.37-1.312a29.865,29.865,0,0,1,2.429-12.44c1.713-3.62,4.165-5.613,6.9-5.613,8.27,0,9.331,9.648,9.331,18.053,0,.9-.991,1.125-3.371,1.312C101.77,46.5,99.653,46.565,97.385,46.565Zm-7.837-1.928a46.749,46.749,0,0,0,7.837.438,46.814,46.814,0,0,0,7.838-.439c-.057-11.3-2.41-16.138-7.838-16.138C93.056,28.5,89.651,35.554,89.548,44.637Z" fill="#58595b"/><path d="M26.756,45.062c0,1.011,17.17,1.011,17.17,0,0-9.249-3.423-17.308-8.585-17.308C28.146,27.754,26.756,35.816,26.756,45.062Z" fill="#fff"/><path d="M35.339,46.565c-2.268,0-4.385-.068-5.96-.191-2.377-.189-3.371-.41-3.371-1.312,0-8.405,1.061-18.053,9.331-18.053,2.737,0,5.191,1.993,6.9,5.613a29.865,29.865,0,0,1,2.429,12.44c0,.9-.991,1.125-3.37,1.312C39.724,46.5,37.609,46.565,35.339,46.565ZM27.5,44.636a46.686,46.686,0,0,0,7.838.439,47,47,0,0,0,7.838-.438c-.1-9.083-3.509-16.139-7.838-16.139C29.911,28.5,27.558,33.333,27.5,44.636Z" fill="#58595b"/><path d="M88.8,46.961c0,1.055-22.438,1.055-22.438,0,0-9.324,1.819-20.428,11.219-20.428S88.8,37.637,88.8,46.961Z" fill="#fff"/><path d="M77.581,48.5c-2.954,0-5.71-.071-7.76-.2-1.118-.071-2-.156-2.613-.256-.595-.094-1.592-.256-1.592-1.082,0-5.851.721-10.559,2.142-13.995,1.969-4.763,5.274-7.179,9.823-7.179S85.434,28.2,87.4,32.966c1.421,3.436,2.141,8.145,2.141,13.995,0,.826-1,.987-1.591,1.082-.616.1-1.495.185-2.614.256C83.291,48.427,80.535,48.5,77.581,48.5ZM67.109,46.516a71.757,71.757,0,0,0,10.472.492,71.746,71.746,0,0,0,10.472-.492c-.08-12.766-3.6-19.237-10.472-19.237S67.188,33.75,67.109,46.516Z" fill="#58595b"/><path d="M43.924,46.961c0,1.055,22.438,1.055,22.438,0,0-9.324-1.819-20.428-11.219-20.428S43.924,37.637,43.924,46.961Z" fill="#fff"/><path d="M55.143,48.5c-2.954,0-5.709-.071-7.759-.2-1.119-.071-2-.156-2.614-.256-.6-.094-1.591-.256-1.591-1.082,0-5.851.72-10.559,2.141-13.995,1.97-4.763,5.275-7.179,9.823-7.179S63,28.2,64.966,32.966c1.421,3.436,2.142,8.145,2.142,13.995,0,.826-1,.987-1.592,1.082-.615.1-1.5.185-2.613.256C60.853,48.427,58.1,48.5,55.143,48.5ZM44.671,46.516a71.757,71.757,0,0,0,10.472.492,71.764,71.764,0,0,0,10.473-.492c-.08-12.766-3.6-19.237-10.473-19.237S44.751,33.75,44.671,46.516Z" fill="#58595b"/><path d="M38.779,84.726a1,1,0,0,0-.343-.826,4.6,4.6,0,0,0-1.274-.614A9.963,9.963,0,0,1,34.315,82a2.324,2.324,0,0,1-.9-1.991A2.4,2.4,0,0,1,34.5,77.95a4.714,4.714,0,0,1,2.8-.767,4.281,4.281,0,0,1,2.766.849A2.763,2.763,0,0,1,41.118,80.3H38.786a1.275,1.275,0,0,0-.4-.985,1.618,1.618,0,0,0-1.133-.37,1.786,1.786,0,0,0-1.112.305.936.936,0,0,0-.394.774.8.8,0,0,0,.394.708,8.33,8.33,0,0,0,1.526.671,7.257,7.257,0,0,1,2.6,1.251,2.556,2.556,0,0,1,.849,2.06A2.429,2.429,0,0,1,40.1,86.8a4.621,4.621,0,0,1-2.758.736,5.154,5.154,0,0,1-2.989-.85,2.863,2.863,0,0,1-1.241-2.53h2.336a1.512,1.512,0,0,0,.46,1.255,2.312,2.312,0,0,0,1.434.363,1.72,1.72,0,0,0,1.089-.283.935.935,0,0,0,.35-.767Z" fill="#fff"/><path d="M44.162,80.807l.021.006a2.392,2.392,0,0,1,.8-.767,2.125,2.125,0,0,1,1.075-.269,2.249,2.249,0,0,1,1.836.791,3.962,3.962,0,0,1,.653,2.526v4.3H46.215V83.079a1.979,1.979,0,0,0-.256-1.192.961.961,0,0,0-.794-.314,1.569,1.569,0,0,0-.588.1,1.137,1.137,0,0,0-.415.283v5.441H41.826V76.611h2.336Z" fill="#fff"/><path d="M49.186,83.585a3.633,3.633,0,0,1,6.3-2.765,3.987,3.987,0,0,1,.936,2.765v.145a3.632,3.632,0,0,1-6.3,2.765,3.961,3.961,0,0,1-.937-2.765Zm2.337.145a3.117,3.117,0,0,0,.287,1.48,1.209,1.209,0,0,0,1.994,0,3.1,3.1,0,0,0,.29-1.48v-.145a3.132,3.132,0,0,0-.29-1.468,1.042,1.042,0,0,0-1-.543,1.025,1.025,0,0,0-.991.543,3.147,3.147,0,0,0-.287,1.468Z" fill="#fff"/><path d="M61.323,81.975l-.85-.007a1.429,1.429,0,0,0-.663.131.847.847,0,0,0-.373.387v4.908H57.1v-7.48h2.2l.083,1.051.014.007A2.13,2.13,0,0,1,60,80.087a1.386,1.386,0,0,1,.906-.311,2.447,2.447,0,0,1,.342.024,2.807,2.807,0,0,1,.3.059Z" fill="#fff"/><path d="M64.944,78.056v1.859h1.223v1.617H64.944v3.422a.82.82,0,0,0,.166.581.6.6,0,0,0,.455.173,2.376,2.376,0,0,0,.28-.014,2.314,2.314,0,0,0,.26-.056l.165,1.694a5.056,5.056,0,0,1-.621.149,3.967,3.967,0,0,1-.671.051,2.381,2.381,0,0,1-1.776-.6,2.735,2.735,0,0,1-.588-1.963V81.532h-.986V79.915h.988V78.056Z" fill="#fff"/><path d="M72.634,78.056v1.859h1.224v1.617H72.634v3.422a.825.825,0,0,0,.166.581.606.606,0,0,0,.456.173,2.376,2.376,0,0,0,.28-.014,2.314,2.314,0,0,0,.26-.056l.165,1.694a5.071,5.071,0,0,1-.622.149,3.955,3.955,0,0,1-.67.051,2.378,2.378,0,0,1-1.777-.6,2.734,2.734,0,0,1-.587-1.963V81.532h-.989V79.915h.989V78.056Z" fill="#fff"/><path d="M77.769,87.534a3.491,3.491,0,0,1-2.651-1.016,3.623,3.623,0,0,1-.971-2.613v-.262a4.257,4.257,0,0,1,.883-2.809A3.662,3.662,0,0,1,80,80.671a3.478,3.478,0,0,1,.85,2.492v1.224H76.518a1.749,1.749,0,0,0,.509.981,1.487,1.487,0,0,0,1.06.367,4.57,4.57,0,0,0,1.069-.1,7.7,7.7,0,0,0,1-.357l.394,1.563a4.127,4.127,0,0,1-1.188.5,6.191,6.191,0,0,1-1.591.2ZM77.6,81.576a.873.873,0,0,0-.768.356,2.185,2.185,0,0,0-.324,1h2.058v-.18a1.415,1.415,0,0,0-.232-.878.876.876,0,0,0-.734-.3Z" fill="#fff"/><path d="M84.9,87.534a3.491,3.491,0,0,1-2.651-1.016,3.623,3.623,0,0,1-.971-2.613v-.262a4.257,4.257,0,0,1,.881-2.807,3.661,3.661,0,0,1,4.973-.162,3.47,3.47,0,0,1,.85,2.492v1.223H83.649a1.751,1.751,0,0,0,.508.982,1.487,1.487,0,0,0,1.061.366,4.508,4.508,0,0,0,1.068-.1,7.511,7.511,0,0,0,1-.356l.394,1.562a4.089,4.089,0,0,1-1.189.5A6.168,6.168,0,0,1,84.9,87.534Zm-.166-5.958a.871.871,0,0,0-.767.356,2.175,2.175,0,0,0-.325,1H85.7v-.18a1.415,1.415,0,0,0-.232-.878.873.873,0,0,0-.736-.3Z" fill="#fff"/><path d="M91.418,78.056v1.859h1.223v1.617H91.418v3.422a.825.825,0,0,0,.166.581.6.6,0,0,0,.456.173,2.376,2.376,0,0,0,.28-.014,2.3,2.3,0,0,0,.259-.056l.166,1.694a5.116,5.116,0,0,1-.622.149,3.963,3.963,0,0,1-.67.051,2.378,2.378,0,0,1-1.777-.6,2.739,2.739,0,0,1-.588-1.963V81.532H88.1V79.915h.988V78.056Z" fill="#fff"/><path d="M95.405,80.807l.021.006a2.392,2.392,0,0,1,.8-.767,2.125,2.125,0,0,1,1.075-.269,2.246,2.246,0,0,1,1.835.791,3.955,3.955,0,0,1,.653,2.526v4.3H97.458V83.079a1.987,1.987,0,0,0-.256-1.192.963.963,0,0,0-.8-.314,1.567,1.567,0,0,0-.587.1,1.129,1.129,0,0,0-.415.283v5.441H93.069V76.611h2.336Z" fill="#fff"/><path d="M333.09,36.063c.165-1.786,3.839-2.55,3.586-8.794a126.084,126.084,0,0,0-1.258-12.63c-43.535-18.622-64.346-1.51-64.346-1.51s-20.81-17.112-64.346,1.51a126.084,126.084,0,0,0-1.258,12.63c-.252,6.244,3.422,7.008,3.586,8.794l10.365,11.923H256.6V26.893s4.708,14.018,14.6,14.018,14.345-14.018,14.345-14.018V47.986h39.445Z" fill="#f9c0b2"/><path d="M324.986,48.731H285.545a.744.744,0,0,1-.745-.745V30.663c-2.082,4.311-6.462,10.992-13.6,10.992-7.208,0-11.721-6.814-13.852-11.115V47.986a.746.746,0,0,1-.745.745h-37.18a.746.746,0,0,1-.563-.256L208.494,36.552a.754.754,0,0,1-.18-.42c-.031-.342-.4-.74-.858-1.242-1.159-1.263-2.912-3.171-2.732-7.651q.315-6.386,1.267-12.716a.745.745,0,0,1,.443-.569C220,8.15,232.766,5.207,244.369,5.207c15.928,0,24.636,5.5,26.7,6.987,2.068-1.49,10.775-6.987,26.705-6.987,11.6,0,24.365,2.943,37.934,8.747a.747.747,0,0,1,.444.569c.009.065,1.016,6.5,1.266,12.716.181,4.48-1.572,6.388-2.732,7.651-.462.5-.826.9-.858,1.242a.758.758,0,0,1-.125.35L325.6,48.405A.743.743,0,0,1,324.986,48.731ZM286.292,47.24h38.3l7.786-11.455a4.155,4.155,0,0,1,1.214-1.9,7.935,7.935,0,0,0,2.341-6.582c-.212-5.238-.967-10.637-1.189-12.137C321.506,9.547,309.07,6.7,297.779,6.7c-17.507,0-26.146,6.937-26.231,7.008a.746.746,0,0,1-.947,0c-.085-.069-8.777-7.008-26.231-7.008-11.292,0-23.727,2.848-36.967,8.465-.221,1.5-.977,6.9-1.188,12.136a7.939,7.939,0,0,0,2.34,6.583,4.261,4.261,0,0,1,1.2,1.852l10,11.507h36.092V26.891a.745.745,0,0,1,1.452-.236c.047.135,4.658,13.511,13.891,13.511s13.593-13.364,13.637-13.5a.745.745,0,0,1,1.455.226Z" fill="#58595b"/><path d="M324.556,40.909a60.87,60.87,0,0,1,6.093-6.119c2.434-1.9,2.7.617,2.276,3.06s-1.27,7.522-2.382,12.019-3.7,7.987-7.195,4.681S318.909,46.666,324.556,40.909Z" fill="#fff"/><path d="M326.018,56.6a4.71,4.71,0,0,1-3.182-1.51,8.712,8.712,0,0,1-3.056-6.206c-.05-2.712,1.373-5.565,4.228-8.481a60.1,60.1,0,0,1,6.182-6.2,3.183,3.183,0,0,1,1.883-.828,1.5,1.5,0,0,1,1.18.551c.759.9.639,2.7.405,4.051l-.107.618c-.438,2.544-1.254,7.281-2.285,11.452S328.325,56.6,326.018,56.6Zm6.055-21.735c-.073,0-.359.037-.964.511a60.391,60.391,0,0,0-5.99,6.021.326.326,0,0,1-.031.033c-2.575,2.626-3.86,5.125-3.817,7.427a7.284,7.284,0,0,0,2.59,5.151,3.317,3.317,0,0,0,2.157,1.1c1.519,0,2.976-2.077,3.8-5.421,1.018-4.12,1.828-8.824,2.265-11.349l.107-.619c.33-1.916.047-2.762-.1-2.855Z" fill="#58595b"/><path d="M311.254,38.9s4.775-6.916,6.911-9.2,5.719-3.587,7.016-.991.763,15.4-.915,19.827-5.11,7.8-8.847,5S306.326,46.575,311.254,38.9Z" fill="#fff"/><path d="M318.172,55.3a5.322,5.322,0,0,1-3.2-1.167c-1.793-1.34-4.247-3.175-5.551-5.747-1.5-2.973-1.1-6.3,1.2-9.89l.013-.021c.2-.283,4.832-6.987,6.98-9.288a7.821,7.821,0,0,1,5.221-2.659,3.211,3.211,0,0,1,3.006,1.842c1.422,2.845.86,15.826-.885,20.426C323.416,52.865,320.881,55.3,318.172,55.3Zm-6.3-15.988c-4.259,6.647-.542,10.24,3.991,13.627a3.875,3.875,0,0,0,2.308.87c2.428,0,4.379-2.863,5.395-5.542,1.7-4.47,2.095-16.931.944-19.23a1.725,1.725,0,0,0-1.673-1.019,6.393,6.393,0,0,0-4.132,2.186C316.672,32.382,312.082,39.006,311.873,39.308Z" fill="#58595b"/><path d="M312.85,47.588c0,5.348-17.171,5.348-17.171,0,0-9.248,3.424-20.777,8.586-20.777C311.458,26.811,312.85,38.341,312.85,47.588Z" fill="#fff"/><path d="M304.265,52.345c-4.644,0-9.331-1.471-9.331-4.757a42.778,42.778,0,0,1,2.4-14.115c1.8-4.846,4.2-7.409,6.927-7.409,3.586,0,6.176,2.506,7.7,7.447A49.451,49.451,0,0,1,313.6,47.587C313.6,50.874,308.909,52.345,304.265,52.345Zm0-24.788c-4.416,0-7.84,10.768-7.84,20.031,0,2.124,4.039,3.266,7.84,3.266s7.84-1.144,7.84-3.266c0-9.138-1.36-20.03-7.84-20.03Z" fill="#58595b"/><path d="M217.591,40.909A60.806,60.806,0,0,0,211.5,34.79c-2.433-1.9-2.7.617-2.275,3.06s1.27,7.522,2.381,12.019,3.7,7.987,7.2,4.681S223.238,46.666,217.591,40.909Z" fill="#fff"/><path d="M216.129,56.6h0c-2.307,0-4.221-2.388-5.249-6.554S209.033,41.141,208.6,38.6l-.107-.619c-.236-1.35-.354-3.15.405-4.051a1.5,1.5,0,0,1,1.18-.551,3.183,3.183,0,0,1,1.883.828,60.1,60.1,0,0,1,6.182,6.2c2.855,2.916,4.278,5.769,4.228,8.481a8.716,8.716,0,0,1-3.056,6.206A4.708,4.708,0,0,1,216.129,56.6Zm-6.056-21.734h-.024c-.139.089-.425.933-.094,2.853l.107.621c.435,2.526,1.245,7.227,2.265,11.347.826,3.344,2.283,5.421,3.8,5.421a3.317,3.317,0,0,0,2.157-1.1,7.288,7.288,0,0,0,2.59-5.151c.042-2.3-1.242-4.8-3.818-7.427l-.03-.033a60.4,60.4,0,0,0-5.99-6.021C210.432,34.9,210.146,34.867,210.073,34.867Z" fill="#58595b"/><path d="M230.893,38.9s-4.775-6.916-6.911-9.2-5.719-3.587-7.016-.991-.762,15.4.915,19.827,5.11,7.8,8.847,5S235.821,46.575,230.893,38.9Z" fill="#fff"/><path d="M223.975,55.3h0c-2.706,0-5.244-2.432-6.789-6.5-1.746-4.6-2.307-17.581-.885-20.426a3.213,3.213,0,0,1,3.006-1.842,7.815,7.815,0,0,1,5.222,2.659c2.148,2.3,6.783,9,6.979,9.288l.014.021c2.3,3.59,2.709,6.918,1.2,9.89-1.3,2.572-3.757,4.407-5.55,5.747a5.325,5.325,0,0,1-3.2,1.167Zm-4.669-27.282a1.722,1.722,0,0,0-1.672,1.019c-1.149,2.3-.75,14.76.944,19.23,1.016,2.679,2.967,5.542,5.4,5.542h0a3.872,3.872,0,0,0,2.308-.87c4.534-3.388,8.25-6.98,3.991-13.627-.21-.3-4.8-6.927-6.835-9.107A6.381,6.381,0,0,0,219.306,28.014Z" fill="#58595b"/><path d="M229.3,47.588c0,5.348,17.17,5.348,17.17,0,0-9.248-3.423-20.777-8.585-20.777C230.689,26.811,229.3,38.341,229.3,47.588Z" fill="#fff"/><path d="M237.882,52.345c-4.645,0-9.331-1.471-9.331-4.757a49.415,49.415,0,0,1,1.629-14.076c1.526-4.941,4.117-7.447,7.7-7.447,2.73,0,5.126,2.562,6.927,7.409a42.81,42.81,0,0,1,2.4,14.116C247.213,50.874,242.526,52.345,237.882,52.345Zm0-24.788c-6.48,0-7.84,10.893-7.84,20.031,0,2.124,4.039,3.266,7.84,3.266s7.84-1.144,7.84-3.266c0-9.263-3.425-20.03-7.84-20.03Z" fill="#58595b"/><path d="M296.764,49.487c0,5.393-22.438,5.393-22.438,0,0-9.323,1.82-23.9,11.219-23.9S296.764,40.164,296.764,49.487Z" fill="#fff"/><path d="M285.545,54.277c-5.521,0-11.964-1.254-11.964-4.79,0-7.408,1.166-24.643,11.964-24.643s11.964,17.234,11.964,24.643C297.509,53.023,291.064,54.277,285.545,54.277Zm0-27.942c-3.806,0-6.641,2.674-8.428,7.946-1.78,5.251-2.045,11.781-2.045,15.206,0,1.851,4.6,3.3,10.476,3.3s10.473-1.448,10.473-3.3c0-3.425-.266-9.956-2.045-15.206C292.186,29.009,289.351,26.335,285.545,26.335Z" fill="#58595b"/><path d="M245.383,49.487c0,5.393,22.437,5.393,22.437,0,0-9.323-1.819-23.9-11.218-23.9S245.383,40.164,245.383,49.487Z" fill="#fff"/><path d="M256.6,54.277c-5.521,0-11.964-1.254-11.964-4.79,0-7.408,1.165-24.643,11.964-24.643s11.964,17.234,11.964,24.643C268.566,53.023,262.121,54.277,256.6,54.277Zm0-27.942c-3.806,0-6.642,2.674-8.429,7.946-1.779,5.251-2.045,11.781-2.045,15.206,0,1.851,4.6,3.3,10.476,3.3s10.473-1.448,10.473-3.3c0-3.425-.266-9.956-2.045-15.206C263.243,29.009,260.407,26.335,256.6,26.335Z" fill="#58595b"/><path d="M534.655,36.8c.165-1.786,3.839-2.55,3.586-8.794a126.084,126.084,0,0,0-1.258-12.63c-43.536-18.622-64.346-1.51-64.346-1.51s-20.81-17.112-64.346,1.51a126.084,126.084,0,0,0-1.258,12.63c-.252,6.244,3.422,7.008,3.586,8.794l10.365,11.923H526.551Z" fill="#f9c0b2"/><path d="M526.551,49.471H420.987a.744.744,0,0,1-.563-.256L410.059,37.292a.746.746,0,0,1-.179-.42c-.032-.343-.4-.74-.859-1.242-1.159-1.263-2.912-3.171-2.732-7.652q.315-6.385,1.267-12.715a.747.747,0,0,1,.443-.569c13.569-5.8,26.331-8.747,37.935-8.747,15.928,0,24.637,5.5,26.7,6.987,2.068-1.49,10.775-6.987,26.705-6.987,11.6,0,24.365,2.943,37.934,8.747a.747.747,0,0,1,.444.569c.009.064,1.016,6.5,1.266,12.715.181,4.48-1.572,6.389-2.732,7.651-.462.5-.826.9-.858,1.243a.738.738,0,0,1-.126.35l-8.1,11.923A.743.743,0,0,1,526.551,49.471ZM421.326,47.98H526.157l7.786-11.455a4.141,4.141,0,0,1,1.215-1.9,7.937,7.937,0,0,0,2.34-6.582c-.211-5.238-.967-10.638-1.189-12.137-13.239-5.615-25.675-8.465-36.966-8.465-17.46,0-26.146,6.937-26.232,7.009a.747.747,0,0,1-.944,0c-.085-.07-8.777-7.008-26.232-7.008-11.291,0-23.726,2.848-36.965,8.464-.222,1.5-.978,6.9-1.189,12.137a7.94,7.94,0,0,0,2.34,6.583,4.25,4.25,0,0,1,1.2,1.852Z" fill="#58595b"/><path d="M526.121,41.649a60.7,60.7,0,0,1,6.094-6.119c2.434-1.905,2.7.617,2.275,3.06s-1.27,7.521-2.382,12.019-3.7,7.987-7.195,4.681S520.474,47.405,526.121,41.649Z" fill="#fff"/><path d="M527.583,57.341a4.712,4.712,0,0,1-3.182-1.51,8.709,8.709,0,0,1-3.056-6.206c-.05-2.712,1.372-5.568,4.228-8.481a60.1,60.1,0,0,1,6.182-6.2,3.183,3.183,0,0,1,1.883-.828,1.5,1.5,0,0,1,1.18.55c.759.9.639,2.7.4,4.052l-.108.623c-.438,2.543-1.254,7.278-2.284,11.447S529.89,57.341,527.583,57.341Zm6.055-21.735c-.072,0-.359.037-.964.511a60.4,60.4,0,0,0-5.99,6.021c-.01.012-.02.022-.031.033-2.576,2.626-3.86,5.124-3.817,7.427a7.286,7.286,0,0,0,2.59,5.151,3.317,3.317,0,0,0,2.157,1.1c1.519,0,2.976-2.077,3.8-5.421,1.017-4.117,1.827-8.818,2.262-11.343l.108-.625c.33-1.917.047-2.762-.1-2.855a.079.079,0,0,0-.022,0Z" fill="#58595b"/><path d="M511.734,39.634s4.775-6.915,6.91-9.2,5.719-3.584,7.016-.991.763,15.4-.915,19.827-5.109,7.8-8.846,5S506.806,47.312,511.734,39.634Z" fill="#fff"/><path d="M518.653,56.036a5.325,5.325,0,0,1-3.2-1.167c-1.793-1.34-4.247-3.175-5.55-5.747-1.5-2.973-1.1-6.3,1.2-9.89l.014-.021c.2-.283,4.831-6.987,6.979-9.288a7.819,7.819,0,0,1,5.222-2.659,3.213,3.213,0,0,1,3.006,1.84c1.422,2.844.86,15.825-.885,20.425C523.9,53.606,521.359,56.036,518.653,56.036Zm-6.3-15.988c-4.259,6.646-.543,10.24,3.991,13.627a3.872,3.872,0,0,0,2.308.87c2.428,0,4.379-2.863,5.395-5.542,1.7-4.47,2.1-16.931.944-19.23a1.722,1.722,0,0,0-1.672-1.019,6.391,6.391,0,0,0-4.132,2.185c-2.035,2.183-6.624,8.805-6.834,9.109Z" fill="#58595b"/><path d="M512.246,48.328c0,5.348-17.17,5.348-17.17,0,0-9.249,3.423-20.777,8.585-20.777C510.854,27.551,512.246,39.081,512.246,48.328Z" fill="#fff"/><path d="M503.661,53.087c-4.644,0-9.331-1.471-9.331-4.757a42.784,42.784,0,0,1,2.4-14.116c1.8-4.845,4.2-7.408,6.927-7.408,3.587,0,6.176,2.5,7.7,7.446a49.415,49.415,0,0,1,1.629,14.076C512.992,51.614,508.306,53.087,503.661,53.087Zm0-24.788c-4.415,0-7.839,10.768-7.839,20.031,0,2.124,4.038,3.266,7.839,3.266s7.84-1.144,7.84-3.266c0-9.14-1.36-20.034-7.84-20.034Z" fill="#58595b"/><path d="M419.156,41.649a60.7,60.7,0,0,0-6.094-6.119c-2.434-1.905-2.7.617-2.275,3.06s1.27,7.521,2.381,12.019,3.7,7.987,7.2,4.681S424.8,47.405,419.156,41.649Z" fill="url(#a)"/><path d="M417.694,57.341h0c-2.307,0-4.22-2.388-5.25-6.554s-1.846-8.908-2.285-11.452l-.106-.618c-.236-1.351-.354-3.15.405-4.052a1.5,1.5,0,0,1,1.18-.55,3.183,3.183,0,0,1,1.883.828,60.1,60.1,0,0,1,6.182,6.2c2.856,2.915,4.278,5.769,4.228,8.481a8.711,8.711,0,0,1-3.055,6.206A4.708,4.708,0,0,1,417.694,57.341Zm-6.056-21.735a.1.1,0,0,0-.024,0c-.139.089-.425.934-.094,2.854l.107.619c.435,2.526,1.245,7.228,2.265,11.348.826,3.344,2.283,5.421,3.8,5.421a3.317,3.317,0,0,0,2.157-1.1,7.288,7.288,0,0,0,2.59-5.151c.042-2.3-1.242-4.8-3.818-7.426l-.03-.033a60.289,60.289,0,0,0-5.99-6.021C412,35.643,411.712,35.606,411.638,35.606Z" fill="#58595b"/><path d="M433.543,39.634s-4.775-6.915-6.91-9.2-5.72-3.584-7.016-.991-.763,15.4.915,19.827,5.109,7.8,8.846,5S438.47,47.312,433.543,39.634Z" fill="url(#b)"/><path d="M426.625,56.036h0c-2.707,0-5.244-2.432-6.789-6.5-1.746-4.6-2.307-17.581-.885-20.426a3.213,3.213,0,0,1,3.006-1.84,7.823,7.823,0,0,1,5.222,2.659c2.148,2.3,6.782,9,6.978,9.288l.014.021c2.3,3.59,2.709,6.918,1.2,9.89-1.3,2.572-3.758,4.407-5.551,5.747a5.316,5.316,0,0,1-3.2,1.165Zm-4.667-27.282a1.722,1.722,0,0,0-1.672,1.019c-1.15,2.3-.751,14.76.944,19.23,1.016,2.679,2.967,5.542,5.395,5.542h0a3.878,3.878,0,0,0,2.307-.87c4.534-3.388,8.25-6.981,3.991-13.627-.21-.3-4.8-6.927-6.835-9.108A6.4,6.4,0,0,0,421.958,28.754Z" fill="#58595b"/><path d="M433.03,48.328c0,5.348,17.171,5.348,17.171,0,0-9.249-3.424-20.777-8.586-20.777C434.422,27.551,433.03,39.081,433.03,48.328Z" fill="url(#c)"/><path d="M441.615,53.087c-4.644,0-9.33-1.471-9.33-4.757a49.455,49.455,0,0,1,1.628-14.076c1.526-4.941,4.117-7.446,7.7-7.446,2.731,0,5.126,2.561,6.928,7.408a42.783,42.783,0,0,1,2.4,14.116C450.946,51.614,446.26,53.087,441.615,53.087Zm0-24.788c-6.479,0-7.839,10.893-7.839,20.031,0,2.124,4.039,3.266,7.839,3.266s7.84-1.144,7.84-3.266c0-9.266-3.424-20.034-7.84-20.034Z" fill="#58595b"/><path d="M495.076,50.227c0,5.393-22.438,5.393-22.438,0,0-9.323,1.819-23.9,11.219-23.9S495.076,40.9,495.076,50.227Z" fill="#fff"/><path d="M483.857,55.017c-5.521,0-11.964-1.254-11.964-4.79,0-7.408,1.166-24.643,11.964-24.643s11.965,17.234,11.965,24.643C495.822,53.763,489.376,55.017,483.857,55.017Zm0-27.942c-3.805,0-6.641,2.673-8.428,7.946-1.779,5.251-2.045,11.781-2.045,15.206,0,1.851,4.6,3.3,10.476,3.3s10.473-1.448,10.473-3.3c0-3.425-.266-9.956-2.045-15.206C490.5,29.748,487.663,27.075,483.857,27.075Z" fill="#58595b"/><path d="M450.2,50.227c0,5.393,22.437,5.393,22.437,0,0-9.323-1.819-23.9-11.219-23.9S450.2,40.9,450.2,50.227Z" fill="url(#d)"/><path d="M461.42,55.017c-5.521,0-11.965-1.254-11.965-4.79,0-7.408,1.166-24.643,11.964-24.643s11.965,17.234,11.965,24.643C473.384,53.763,466.939,55.017,461.42,55.017Zm0-27.942c-3.805,0-6.641,2.673-8.428,7.946-1.779,5.251-2.045,11.781-2.045,15.206,0,1.851,4.6,3.3,10.476,3.3s10.473-1.448,10.473-3.3c0-3.425-.266-9.956-2.046-15.206-1.789-5.273-4.625-7.946-8.431-7.946Z" fill="#58595b"/><path d="M473.384,63.657h-1.491V61.109h1.491Zm0-5.093h-1.491V56.016h1.491Zm0-5.092h-1.491V50.924h1.491Zm0-5.092h-1.491V45.832h1.491Zm0-5.093h-1.491V40.739h1.491Zm0-5.092h-1.491V35.647h1.491Zm0-5.092h-1.491V30.554h1.491Zm0-5.092h-1.491V25.462h1.491Zm0-5.093h-1.491V20.37h1.491Zm0-5.092h-1.491V15.278h1.491Zm0-5.093h-1.491V10.185h1.491Zm0-5.092h-1.491V5.093h1.491Zm0-5.092h-1.491V0h1.491Z" fill="#58595b"/><path d="M444.168,83.945v3.449h-2.344V77.33h4.086a4.209,4.209,0,0,1,2.858.9,3.328,3.328,0,0,1,0,4.822,4.22,4.22,0,0,1-2.858.9Zm0-1.8h1.742a1.533,1.533,0,0,0,1.165-.412,1.5,1.5,0,0,0,.39-1.081,1.567,1.567,0,0,0-.387-1.106,1.507,1.507,0,0,0-1.168-.422h-1.742Z" fill="#fff"/><path d="M453.962,87.534a3.491,3.491,0,0,1-2.651-1.016,3.623,3.623,0,0,1-.971-2.613v-.262a4.257,4.257,0,0,1,.881-2.807,3.661,3.661,0,0,1,4.973-.162,3.474,3.474,0,0,1,.85,2.492v1.223h-4.333a1.751,1.751,0,0,0,.508.982,1.487,1.487,0,0,0,1.061.366,4.513,4.513,0,0,0,1.068-.1,7.561,7.561,0,0,0,1-.356l.394,1.562a4.084,4.084,0,0,1-1.19.5A6.168,6.168,0,0,1,453.962,87.534Zm-.166-5.958a.873.873,0,0,0-.768.356,2.185,2.185,0,0,0-.324,1h2.059v-.18a1.407,1.407,0,0,0-.231-.878.873.873,0,0,0-.736-.3Z" fill="#fff"/><path d="M461.9,81.975l-.85-.007a1.429,1.429,0,0,0-.663.131.854.854,0,0,0-.374.387v4.908H457.68v-7.48h2.2l.083,1.051.013.007a2.133,2.133,0,0,1,.609-.885,1.385,1.385,0,0,1,.9-.311,2.461,2.461,0,0,1,.343.024,2.789,2.789,0,0,1,.3.059Z" fill="#fff"/><path d="M464.758,79.915l.083.954.021.007a2.376,2.376,0,0,1,.868-.816,2.523,2.523,0,0,1,1.226-.283,2.314,2.314,0,0,1,1.207.3,1.886,1.886,0,0,1,.755.934,2.5,2.5,0,0,1,.885-.916,2.448,2.448,0,0,1,1.274-.315,2.128,2.128,0,0,1,1.728.736,3.6,3.6,0,0,1,.613,2.326v4.554h-2.342V82.837a1.658,1.658,0,0,0-.218-1,.835.835,0,0,0-.681-.262,1.431,1.431,0,0,0-.6.117,1.211,1.211,0,0,0-.435.339,1.7,1.7,0,0,0,.007.2,1.389,1.389,0,0,1,.007.173v4.991h-2.337V82.837a1.649,1.649,0,0,0-.217-1,.843.843,0,0,0-.688-.262,1.346,1.346,0,0,0-.577.117,1.257,1.257,0,0,0-.439.339v5.364h-2.337v-7.48Z" fill="#fff"/><path d="M478.7,87.393a2.412,2.412,0,0,1-.18-.394,3.885,3.885,0,0,1-.131-.472,2.579,2.579,0,0,1-.8.736,2.252,2.252,0,0,1-1.143.266,2.472,2.472,0,0,1-1.743-.6,2.124,2.124,0,0,1-.656-1.641,2.008,2.008,0,0,1,.815-1.729,4.369,4.369,0,0,1,2.551-.594h.849v-.532a1.081,1.081,0,0,0-.221-.74.886.886,0,0,0-.7-.249.846.846,0,0,0-.6.184.784.784,0,0,0-.189.59h-2.329a2.119,2.119,0,0,1,.888-1.759,3.841,3.841,0,0,1,2.395-.681,3.512,3.512,0,0,1,2.257.678,2.4,2.4,0,0,1,.847,1.99v2.821a5.924,5.924,0,0,0,.1,1.112,5.387,5.387,0,0,0,.305,1.017Zm-1.542-1.521a1.458,1.458,0,0,0,.64-.138,1.345,1.345,0,0,0,.466-.36V84.208h-.829a1.059,1.059,0,0,0-.812.266.974.974,0,0,0-.246.687.663.663,0,0,0,.215.519.812.812,0,0,0,.566.193Z" fill="#fff"/><path d="M483.7,79.915l.09,1.016.021.007a2.592,2.592,0,0,1,.888-.857,2.362,2.362,0,0,1,1.2-.3,2.168,2.168,0,0,1,1.728.7,3.45,3.45,0,0,1,.609,2.281v4.637H485.9V82.748a1.276,1.276,0,0,0-.259-.916,1.076,1.076,0,0,0-.792-.259,1.377,1.377,0,0,0-.58.113,1.229,1.229,0,0,0-.429.331V87.4H481.51V79.917Z" fill="#fff"/><path d="M492.567,87.534a3.491,3.491,0,0,1-2.651-1.016,3.627,3.627,0,0,1-.971-2.613v-.262a4.268,4.268,0,0,1,.881-2.807,3.662,3.662,0,0,1,4.974-.162,3.473,3.473,0,0,1,.849,2.492v1.223h-4.334a1.751,1.751,0,0,0,.508.982,1.489,1.489,0,0,0,1.061.366,4.5,4.5,0,0,0,1.068-.1,7.511,7.511,0,0,0,1-.356l.394,1.562a4.078,4.078,0,0,1-1.189.5A6.168,6.168,0,0,1,492.567,87.534Zm-.166-5.958a.871.871,0,0,0-.767.356,2.186,2.186,0,0,0-.325,1h2.06v-.18a1.408,1.408,0,0,0-.232-.878.873.873,0,0,0-.736-.3Z" fill="#fff"/><path d="M498.434,79.915l.09,1.016.021.007a2.6,2.6,0,0,1,.888-.857,2.365,2.365,0,0,1,1.2-.3,2.165,2.165,0,0,1,1.728.7,3.444,3.444,0,0,1,.609,2.281v4.637h-2.337V82.748a1.276,1.276,0,0,0-.259-.916,1.072,1.072,0,0,0-.791-.259,1.379,1.379,0,0,0-.581.113,1.217,1.217,0,0,0-.428.331V87.4h-2.33V79.917Z" fill="#fff"/><path d="M506.686,78.056v1.859h1.224v1.617h-1.224v3.422a.83.83,0,0,0,.166.581.606.606,0,0,0,.457.173,2.359,2.359,0,0,0,.279-.014,2.251,2.251,0,0,0,.259-.056l.167,1.694a5.116,5.116,0,0,1-.622.149,3.967,3.967,0,0,1-.671.051,2.379,2.379,0,0,1-1.777-.6,2.738,2.738,0,0,1-.587-1.963V81.532h-.991V79.915h.991V78.056Z" fill="#fff"/><polygon points="453.969 100.794 453.99 100.794 455.131 94.317 457.37 94.317 455.275 104.381 453.105 104.381 451.611 98.332 451.592 98.332 450.106 104.381 447.935 104.381 445.835 94.318 448.082 94.318 449.223 100.801 449.243 100.801 450.812 94.318 452.395 94.318 453.969 100.794" fill="#fff"/><path d="M460.327,97.794l.021.008a2.385,2.385,0,0,1,.805-.768,2.125,2.125,0,0,1,1.075-.269,2.246,2.246,0,0,1,1.835.791,3.957,3.957,0,0,1,.653,2.527v4.3H462.38v-4.313a1.981,1.981,0,0,0-.256-1.193.966.966,0,0,0-.8-.315,1.588,1.588,0,0,0-.587.1,1.129,1.129,0,0,0-.415.283v5.441h-2.336V93.6h2.336Z" fill="#fff"/><path d="M468.108,95.168h-2.343V93.6h2.343Zm0,9.214h-2.343V96.9h2.343Z" fill="#fff"/><path d="M471.985,95.043V96.9h1.224V98.52h-1.224v3.422a.825.825,0,0,0,.166.581.6.6,0,0,0,.457.172,2.172,2.172,0,0,0,.279-.013,2.555,2.555,0,0,0,.26-.055l.166,1.693a5.277,5.277,0,0,1-.623.149,4.053,4.053,0,0,1-.67.051,2.381,2.381,0,0,1-1.776-.6,2.739,2.739,0,0,1-.588-1.963V98.52h-.991V96.9h.991v-1.86Z" fill="#fff"/><path d="M477.121,104.522a3.49,3.49,0,0,1-2.65-1.016,3.626,3.626,0,0,1-.972-2.613v-.262a4.258,4.258,0,0,1,.882-2.807,3.662,3.662,0,0,1,4.973-.162,3.477,3.477,0,0,1,.85,2.491v1.224H475.87a1.751,1.751,0,0,0,.508.982,1.487,1.487,0,0,0,1.061.366,4.457,4.457,0,0,0,1.068-.1,7.511,7.511,0,0,0,1-.356l.394,1.562a4.089,4.089,0,0,1-1.189.5,6.176,6.176,0,0,1-1.59.193Zm-.165-5.958a.872.872,0,0,0-.768.356,2.2,2.2,0,0,0-.325,1h2.06v-.179a1.42,1.42,0,0,0-.231-.878.877.877,0,0,0-.738-.3Z" fill="#fff"/><path d="M482.987,96.9l.09,1.016.021.007a2.592,2.592,0,0,1,.888-.857,2.365,2.365,0,0,1,1.2-.3,2.168,2.168,0,0,1,1.728.7,3.448,3.448,0,0,1,.609,2.281v4.637h-2.337V99.737a1.279,1.279,0,0,0-.259-.916,1.074,1.074,0,0,0-.792-.259,1.363,1.363,0,0,0-.58.114,1.2,1.2,0,0,0-.428.33v5.38H480.8V96.9Z" fill="#fff"/><path d="M490.887,95.168h-2.344V93.6h2.344Zm0,9.214h-2.344V96.9h2.344Z" fill="#fff"/><path d="M494.113,96.9l.09,1.016.021.007a2.592,2.592,0,0,1,.888-.857,2.365,2.365,0,0,1,1.2-.3,2.168,2.168,0,0,1,1.728.7,3.443,3.443,0,0,1,.609,2.281v4.637h-2.337V99.737a1.279,1.279,0,0,0-.259-.916,1.072,1.072,0,0,0-.791-.259,1.38,1.38,0,0,0-.581.114,1.2,1.2,0,0,0-.428.33v5.38h-2.33V96.9Z" fill="#fff"/><path d="M499.253,100.656A4.824,4.824,0,0,1,500,97.819a2.486,2.486,0,0,1,2.164-1.054,1.937,1.937,0,0,1,1.044.276,2.5,2.5,0,0,1,.774.8l.159-.94h2.046v7.188a3.126,3.126,0,0,1-.964,2.42,3.8,3.8,0,0,1-2.672.884,5.324,5.324,0,0,1-1.244-.155,6.1,6.1,0,0,1-1.224-.432l.387-1.569a6.136,6.136,0,0,0,.93.325,4.026,4.026,0,0,0,.978.11,1.389,1.389,0,0,0,1.1-.421,1.733,1.733,0,0,0,.37-1.175v-.346l-.021-.007a2.031,2.031,0,0,1-1.68.8,2.514,2.514,0,0,1-2.153-1,4.463,4.463,0,0,1-.743-2.716Zm2.329.145a3.152,3.152,0,0,0,.259,1.428.933.933,0,0,0,.9.494,1.672,1.672,0,0,0,.656-.114,1.082,1.082,0,0,0,.45-.356V99.115a1.159,1.159,0,0,0-.443-.411,1.381,1.381,0,0,0-.65-.142.934.934,0,0,0-.9.567,3.568,3.568,0,0,0-.273,1.527Z" fill="#fff"/><path d="M264.426,86.415a4.127,4.127,0,0,1-1.453.971,6.185,6.185,0,0,1-2.436.41,4.1,4.1,0,0,1-3.011-1.114,3.975,3.975,0,0,1-1.132-2.967V81.637a4.027,4.027,0,0,1,1.108-2.96,3.907,3.907,0,0,1,2.912-1.121,4.124,4.124,0,0,1,2.9.878,3.815,3.815,0,0,1,1.11,2.478h-2.228a2.083,2.083,0,0,0-.5-1.189,1.623,1.623,0,0,0-1.2-.39,1.564,1.564,0,0,0-1.309.626,2.649,2.649,0,0,0-.482,1.664v2.092a2.71,2.71,0,0,0,.474,1.682,1.618,1.618,0,0,0,1.365.622,3.99,3.99,0,0,0,1.008-.1,1.515,1.515,0,0,0,.571-.277V84.071H260.55V82.539h3.876Z" fill="#fff"/><path d="M269.705,87.653a2.323,2.323,0,0,1-.178-.39,3.7,3.7,0,0,1-.13-.465,2.534,2.534,0,0,1-.79.728,2.232,2.232,0,0,1-1.131.263,2.442,2.442,0,0,1-1.723-.6,2.1,2.1,0,0,1-.649-1.623,1.982,1.982,0,0,1,.807-1.709,4.317,4.317,0,0,1,2.522-.588h.841v-.527a1.07,1.07,0,0,0-.219-.731.878.878,0,0,0-.69-.246.836.836,0,0,0-.6.181.779.779,0,0,0-.188.584h-2.3a2.094,2.094,0,0,1,.879-1.739,3.8,3.8,0,0,1,2.368-.674,3.467,3.467,0,0,1,2.231.67,2.37,2.37,0,0,1,.838,1.969v2.789a5.931,5.931,0,0,0,.1,1.1,5.39,5.39,0,0,0,.3,1.005Zm-1.525-1.5a1.433,1.433,0,0,0,.632-.137,1.311,1.311,0,0,0,.462-.356V84.5h-.82a1.055,1.055,0,0,0-.8.263.97.97,0,0,0-.242.681.652.652,0,0,0,.212.512A.8.8,0,0,0,268.18,86.149Z" fill="#fff"/><path d="M279.46,84.112a4.4,4.4,0,0,1-.739,2.686,2.5,2.5,0,0,1-2.133.991,2.135,2.135,0,0,1-.95-.2,2.011,2.011,0,0,1-.7-.574l-.021.007V90.5h-2.31V80.256h2.16l.082.814a2.271,2.271,0,0,1,.734-.708,1.949,1.949,0,0,1,.989-.243,2.466,2.466,0,0,1,2.142,1.043,4.747,4.747,0,0,1,.743,2.806Zm-2.3-.144a3.551,3.551,0,0,0-.267-1.514.909.909,0,0,0-.882-.557,1.4,1.4,0,0,0-.659.14,1.078,1.078,0,0,0-.428.42V85.54a1,1,0,0,0,.431.356,1.692,1.692,0,0,0,.67.116.908.908,0,0,0,.878-.489,3.088,3.088,0,0,0,.257-1.411Z" fill="#fff"/><path d="M284.068,85.574a.6.6,0,0,0-.305-.492,3.354,3.354,0,0,0-1.137-.383,4.538,4.538,0,0,1-1.958-.779,1.767,1.767,0,0,1-.647-1.463,2.084,2.084,0,0,1,.807-1.668,3.4,3.4,0,0,1,2.235-.67,3.845,3.845,0,0,1,2.376.657,2.087,2.087,0,0,1,.864,1.75h-2.31a.917.917,0,0,0-.219-.667.978.978,0,0,0-.718-.222.942.942,0,0,0-.611.195.622.622,0,0,0-.243.509.606.606,0,0,0,.276.5,3.158,3.158,0,0,0,1.152.369,4.636,4.636,0,0,1,2.02.786,1.832,1.832,0,0,1,.64,1.511,1.95,1.95,0,0,1-.869,1.651,3.933,3.933,0,0,1-2.358.632,3.549,3.549,0,0,1-2.406-.755,2.266,2.266,0,0,1-.868-1.753h2.153a.921.921,0,0,0,.311.758,1.422,1.422,0,0,0,.872.226,1.182,1.182,0,0,0,.71-.174A.6.6,0,0,0,284.068,85.574Z" fill="#fff"/></svg>