<svg xmlns="http://www.w3.org/2000/svg" width="40" height="40" viewBox="0 0 40 40"><title>    n2@2x</title><g style="fill:none;opacity:0.5"><path d="M25 27L25 25 18.2 25 21.6 21.4C22.6 20.3 23.4 19.4 23.9 18.6 24.3 17.8 24.6 17 24.6 16.2 24.6 14.8 24.2 13.8 23.3 13 22.5 12.2 21.4 11.9 19.9 11.9 18.3 11.9 17.1 12.3 16.2 13.2 15.3 14.1 14.8 15.2 14.8 16.6L14.8 16.6 17.3 16.6C17.3 15.7 17.5 15.1 17.9 14.6 18.4 14.1 19 13.9 19.9 13.9 20.6 13.9 21.1 14.1 21.5 14.5 21.9 15 22.1 15.5 22.1 16.2 22.1 16.8 21.9 17.3 21.6 17.8 21.3 18.4 20.8 19.1 20 20L20 20 15.1 25.3 15.1 27 25 27Z" fill="#FFF"/><circle cx="20" cy="20" r="19" style="stroke-width:2;stroke:#FFF"/></g></svg>