<svg height="40" viewBox="0 0 40 40" width="40" xmlns="http://www.w3.org/2000/svg"><g fill="none" opacity=".5"><path d="m19.7 27.2c1.5 0 2.7-.4 3.6-1.1 1-.8 1.4-1.9 1.4-3.3 0-.8-.2-1.5-.6-2.1-.3-.6-1-1.1-1.8-1.4.7-.3 1.3-.8 1.6-1.3.4-.6.6-1.2.6-1.9 0-1.4-.4-2.4-1.3-3.2-.8-.7-2-1-3.5-1-1.4 0-2.5.3-3.4 1.1s-1.3 1.8-1.3 3h2.4c0-.7.3-1.2.7-1.6s1-.5 1.6-.5c.8 0 1.4.1 1.7.5.4.4.6 1 .6 1.7 0 .8-.2 1.3-.5 1.7-.4.4-.9.6-1.8.6h-1.7v2h1.7c.9 0 1.5.2 1.9.6.4.3.6 1 .6 1.8s-.2 1.4-.6 1.8c-.5.4-1.1.6-1.9.6-.7 0-1.3-.2-1.7-.6-.5-.4-.7-.9-.7-1.6h-2.5c0 1.4.5 2.4 1.4 3.1.9.8 2.1 1.1 3.5 1.1z" fill="#fff"/><circle cx="20" cy="20" r="19" stroke="#fff" stroke-width="2"/></g></svg>