<svg height="38" viewBox="0 0 56 38" width="56" xmlns="http://www.w3.org/2000/svg"><g fill="none"><path d="m9.6.3h43.8c1.5 0 2.6 1.2 2.6 2.6v25.2c0 1.4-1.1 2.6-2.6 2.6h-6.7l-2.1-18.8c-.2-1.2-1.3-2.2-2.6-2.2h-35v-6.8c0-1.4 1.1-2.6 2.6-2.6z" fill="#f5f5f5" opacity=".3"/><path d="m46.3 7.3c1.5 0 2.7 1.3 2.7 2.8v24.8c0 1.5-1.2 2.8-2.7 2.8h-43.6c-1.5 0-2.7-1.3-2.7-2.8v-24.8c0-1.5 1.2-2.8 2.7-2.8zm-3.7 19.5c-1.4-1.8-4-2.4-6.2-1.4-.7-.3-1.4-.5-2.2-.5-2.1 0-4 1.3-4.7 3.2-.8 2-.3 4.2 1.2 5.6 1.6 1.4 3.8 1.8 5.7.9 2.2 1 4.8.4 6.2-1.4 1.5-1.9 1.5-4.5 0-6.4zm-20.8 6.9h-2.7c-.4 0-.7.3-.7.7s.3.7.7.7h2.7c.4 0 .7-.3.7-.7s-.3-.7-.7-.7zm-5.5 0h-12.5c-.4 0-.7.3-.7.7s.3.7.7.7h12.5c.3 0 .6-.3.6-.7s-.3-.7-.6-.7zm15-6c.9-1.2 2.4-1.7 3.8-1.3-1 .9-1.6 2.2-1.6 3.6 0 1.3.6 2.6 1.6 3.6-.3.1-.6.1-.9.1-1.4 0-2.7-.8-3.3-2.1-.7-1.3-.5-2.8.4-3.9zm6.5-1.3c1.5-.4 3.1.2 3.9 1.5.9 1.2.9 2.9 0 4.2-.8 1.2-2.4 1.8-3.9 1.5 1-1 1.5-2.3 1.5-3.6 0-1.4-.5-2.7-1.5-3.6zm-1.4.6c1 .7 1.6 1.8 1.6 3s-.6 2.3-1.6 3c-.9-.7-1.5-1.8-1.5-3s.6-2.3 1.5-3zm-14.6 2.7h-12c-.4 0-.7.3-.7.7s.3.7.7.7h12c.4 0 .7-.3.7-.7s-.3-.7-.7-.7zm-14.8 0h-3.2c-.4 0-.7.3-.7.7s.3.7.7.7h3.2c.4 0 .7-.3.7-.7s-.3-.7-.7-.7zm12.5-18.7h-15.7c-.4 0-.7.3-.7.7v4.3c0 .4.3.7.7.7h15.7c.4 0 .7-.3.7-.7v-4.3c0-.4-.3-.7-.7-.7zm-.6 1.4v3h-14.4v-3z" fill="#fff"/></g></svg>