<?xml version="1.0" encoding="UTF-8"?>
<svg width="412px" height="245px" viewBox="0 0 412 245" version="1.1" xmlns="http://www.w3.org/2000/svg" xmlns:xlink="http://www.w3.org/1999/xlink">
    <title>Group 45</title>
    <defs>
        <circle id="path-1" cx="80" cy="80" r="73"></circle>
        <mask id="mask-2" maskContentUnits="userSpaceOnUse" maskUnits="objectBoundingBox" x="0" y="0" width="146" height="146" fill="white">
            <use xlink:href="#path-1"></use>
        </mask>
        <circle id="path-3" cx="89.4063756" cy="89.4063756" r="73"></circle>
        <mask id="mask-4" maskContentUnits="userSpaceOnUse" maskUnits="objectBoundingBox" x="0" y="0" width="146" height="146" fill="white">
            <use xlink:href="#path-3"></use>
        </mask>
    </defs>
    <g id="Mobile" stroke="none" stroke-width="1" fill="none" fill-rule="evenodd">
        <g id="Ultra-Thin-Mobile" transform="translate(-93.000000, -404.000000)">
            <g id="Group-3" transform="translate(95.546812, 404.000000)">
                <g id="Group-45" transform="translate(0.000000, -0.000000)">
                    <g id="Group-2" transform="translate(0.000000, 9.406376)">
                        <path d="M36.6721191,209 L36.6721191,196.377441 L41.388916,196.377441 L41.388916,194.070312 L28.9816895,194.070312 L28.9816895,196.377441 L33.6779785,196.377441 L33.6779785,209 L36.6721191,209 Z M45.982666,209 L45.982666,201.535156 C46.1330566,201.207031 46.3500977,200.955811 46.6337891,200.781494 C46.9174805,200.607178 47.2849121,200.52002 47.736084,200.52002 L47.736084,200.52002 L48.9562988,200.550781 L49.2741699,197.823242 C49.151123,197.789062 49.0075684,197.76001 48.8435059,197.736084 C48.6794434,197.712158 48.5153809,197.700195 48.3513184,197.700195 C47.7976074,197.700195 47.3208008,197.857422 46.9208984,198.171875 C46.5209961,198.486328 46.1911621,198.927246 45.9313965,199.494629 L45.9313965,199.494629 L45.9108887,199.484375 L45.7775879,197.905273 L42.9987793,197.905273 L42.9987793,209 L45.982666,209 Z M53.7346191,209.205078 C54.404541,209.205078 54.9855957,209.064941 55.4777832,208.784668 C55.9699707,208.504395 56.3903809,208.128418 56.7390137,207.656738 C56.7800293,207.895996 56.8347168,208.128418 56.9030762,208.354004 C56.9714355,208.57959 57.0500488,208.794922 57.138916,209 L57.138916,209 L60.1330566,209 C59.9621582,208.541992 59.8374023,208.089111 59.7587891,207.641357 C59.6801758,207.193604 59.6408691,206.703125 59.6408691,206.169922 L59.6408691,206.169922 L59.6408691,201.586426 C59.6408691,200.314941 59.2324219,199.349365 58.4155273,198.689697 C57.5986328,198.030029 56.5134277,197.700195 55.1599121,197.700195 C53.7243652,197.700195 52.5776367,198.036865 51.7197266,198.710205 C50.8618164,199.383545 50.4328613,200.21582 50.4328613,201.207031 L50.4328613,201.207031 L53.416748,201.207031 C53.416748,200.783203 53.5483398,200.456787 53.8115234,200.227783 C54.074707,199.998779 54.4592285,199.884277 54.9650879,199.884277 C55.5256348,199.884277 55.9443359,200.027832 56.2211914,200.314941 C56.4980469,200.602051 56.6364746,201.019043 56.6364746,201.565918 L56.6364746,201.565918 L56.6364746,202.447754 L55.1086426,202.447754 C53.4680176,202.447754 52.2375488,202.741699 51.4172363,203.32959 C50.5969238,203.91748 50.1867676,204.765137 50.1867676,205.872559 C50.1867676,206.911621 50.5012207,207.726807 51.130127,208.318115 C51.7590332,208.909424 52.6271973,209.205078 53.7346191,209.205078 Z M54.5446777,207.000488 C54.1140137,207.000488 53.7773438,206.889404 53.534668,206.667236 C53.2919922,206.445068 53.1706543,206.145996 53.1706543,205.77002 C53.1706543,205.305176 53.3295898,204.917236 53.6474609,204.606201 C53.965332,204.295166 54.4523926,204.139648 55.1086426,204.139648 L55.1086426,204.139648 L56.6364746,204.139648 L56.6364746,205.975098 C56.4313965,206.275879 56.1459961,206.521973 55.7802734,206.713379 C55.4145508,206.904785 55.0026855,207.000488 54.5446777,207.000488 Z M65.7521973,209.205078 C66.3742676,209.205078 66.9177246,209.075195 67.3825684,208.81543 C67.8474121,208.555664 68.2575684,208.169434 68.6130371,207.656738 L68.6130371,207.656738 L68.838623,209 L71.4431152,209 L71.4431152,193.003906 L68.4387207,193.003906 L68.4387207,199.033203 L68.407959,199.043457 C68.079834,198.605957 67.7004395,198.272705 67.2697754,198.043701 C66.8391113,197.814697 66.3400879,197.700195 65.7727051,197.700195 C64.3713379,197.700195 63.2998047,198.228271 62.5581055,199.284424 C61.8164062,200.340576 61.4455566,201.760742 61.4455566,203.544922 L61.4455566,203.544922 L61.4455566,203.760254 C61.4455566,205.428223 61.8164062,206.752686 62.5581055,207.733643 C63.2998047,208.7146 64.364502,209.205078 65.7521973,209.205078 Z M66.5212402,206.877441 C65.7692871,206.877441 65.232666,206.604004 64.911377,206.057129 C64.5900879,205.510254 64.4294434,204.744629 64.4294434,203.760254 L64.4294434,203.760254 L64.4294434,203.544922 C64.4294434,202.478516 64.5952148,201.625732 64.9267578,200.986572 C65.2583008,200.347412 65.7966309,200.027832 66.541748,200.027832 C66.9724121,200.027832 67.3449707,200.123535 67.6594238,200.314941 C67.973877,200.506348 68.2336426,200.779785 68.4387207,201.135254 L68.4387207,201.135254 L68.4387207,205.852051 C68.2336426,206.193848 67.973877,206.450195 67.6594238,206.621094 C67.3449707,206.791992 66.9655762,206.877441 66.5212402,206.877441 Z M76.9084473,195.249512 L76.9084473,193.003906 L73.9143066,193.003906 L73.9143066,195.249512 L76.9084473,195.249512 Z M76.9084473,209 L76.9084473,197.905273 L73.9143066,197.905273 L73.9143066,209 L76.9084473,209 Z M83.1223145,209.205078 C83.4709473,209.205078 83.8007812,209.174316 84.1118164,209.112793 C84.4228516,209.05127 84.7116699,208.969238 84.9782715,208.866699 L84.9782715,208.866699 L84.7321777,206.733887 C84.5749512,206.774902 84.4348145,206.803955 84.3117676,206.821045 C84.1887207,206.838135 84.041748,206.84668 83.8708496,206.84668 C83.5837402,206.84668 83.3564453,206.757812 83.1889648,206.580078 C83.0214844,206.402344 82.9377441,206.091309 82.9377441,205.646973 L82.9377441,205.646973 L82.9377441,200.007324 L84.8449707,200.007324 L84.8449707,197.905273 L82.9377441,197.905273 L82.9377441,195.187988 L79.9538574,195.187988 L79.9538574,197.905273 L78.4567871,197.905273 L78.4567871,200.007324 L79.9538574,200.007324 L79.9538574,205.657227 C79.9538574,206.908203 80.222168,207.812256 80.7587891,208.369385 C81.2954102,208.926514 82.083252,209.205078 83.1223145,209.205078 Z M89.5720215,195.249512 L89.5720215,193.003906 L86.5778809,193.003906 L86.5778809,195.249512 L89.5720215,195.249512 Z M89.5720215,209 L89.5720215,197.905273 L86.5778809,197.905273 L86.5778809,209 L89.5720215,209 Z M96.8112793,209.205078 C98.479248,209.205078 99.7678223,208.690674 100.677002,207.661865 C101.586182,206.633057 102.040771,205.267578 102.040771,203.56543 L102.040771,203.56543 L102.040771,203.350098 C102.040771,201.661621 101.584473,200.297852 100.671875,199.258789 C99.7592773,198.219727 98.4655762,197.700195 96.7907715,197.700195 C95.1296387,197.700195 93.8444824,198.219727 92.9353027,199.258789 C92.026123,200.297852 91.5715332,201.661621 91.5715332,203.350098 L91.5715332,203.350098 L91.5715332,203.56543 C91.5715332,205.267578 92.026123,206.633057 92.9353027,207.661865 C93.8444824,208.690674 95.1364746,209.205078 96.8112793,209.205078 Z M96.8112793,206.908203 C96.0046387,206.908203 95.427002,206.609131 95.0783691,206.010986 C94.7297363,205.412842 94.5554199,204.597656 94.5554199,203.56543 L94.5554199,203.56543 L94.5554199,203.350098 C94.5554199,202.352051 94.7314453,201.54541 95.0834961,200.930176 C95.4355469,200.314941 96.0046387,200.007324 96.7907715,200.007324 C97.5837402,200.007324 98.157959,200.313232 98.5134277,200.925049 C98.8688965,201.536865 99.0466309,202.345215 99.0466309,203.350098 L99.0466309,203.350098 L99.0466309,203.56543 C99.0466309,204.59082 98.8706055,205.404297 98.5185547,206.005859 C98.1665039,206.607422 97.5974121,206.908203 96.8112793,206.908203 Z M106.829346,209 L106.829346,200.950684 C107.048096,200.656738 107.30957,200.429443 107.61377,200.268799 C107.917969,200.108154 108.275146,200.027832 108.685303,200.027832 C109.307373,200.027832 109.765381,200.179932 110.059326,200.484131 C110.353271,200.78833 110.500244,201.319824 110.500244,202.078613 L110.500244,202.078613 L110.500244,209 L113.504639,209 L113.504639,202.068359 C113.504639,200.530273 113.195312,199.417725 112.57666,198.730713 C111.958008,198.043701 111.077881,197.700195 109.936279,197.700195 C109.259521,197.700195 108.65625,197.852295 108.126465,198.156494 C107.59668,198.460693 107.150635,198.893066 106.78833,199.453613 L106.78833,199.453613 L106.757568,199.443359 L106.624268,197.905273 L103.835205,197.905273 L103.835205,209 L106.829346,209 Z M118.846924,209.205078 C119.516846,209.205078 120.0979,209.064941 120.590088,208.784668 C121.082275,208.504395 121.502686,208.128418 121.851318,207.656738 C121.892334,207.895996 121.947021,208.128418 122.015381,208.354004 C122.08374,208.57959 122.162354,208.794922 122.251221,209 L122.251221,209 L125.245361,209 C125.074463,208.541992 124.949707,208.089111 124.871094,207.641357 C124.79248,207.193604 124.753174,206.703125 124.753174,206.169922 L124.753174,206.169922 L124.753174,201.586426 C124.753174,200.314941 124.344727,199.349365 123.527832,198.689697 C122.710938,198.030029 121.625732,197.700195 120.272217,197.700195 C118.83667,197.700195 117.689941,198.036865 116.832031,198.710205 C115.974121,199.383545 115.545166,200.21582 115.545166,201.207031 L115.545166,201.207031 L118.529053,201.207031 C118.529053,200.783203 118.660645,200.456787 118.923828,200.227783 C119.187012,199.998779 119.571533,199.884277 120.077393,199.884277 C120.637939,199.884277 121.056641,200.027832 121.333496,200.314941 C121.610352,200.602051 121.748779,201.019043 121.748779,201.565918 L121.748779,201.565918 L121.748779,202.447754 L120.220947,202.447754 C118.580322,202.447754 117.349854,202.741699 116.529541,203.32959 C115.709229,203.91748 115.299072,204.765137 115.299072,205.872559 C115.299072,206.911621 115.613525,207.726807 116.242432,208.318115 C116.871338,208.909424 117.739502,209.205078 118.846924,209.205078 Z M119.656982,207.000488 C119.226318,207.000488 118.889648,206.889404 118.646973,206.667236 C118.404297,206.445068 118.282959,206.145996 118.282959,205.77002 C118.282959,205.305176 118.441895,204.917236 118.759766,204.606201 C119.077637,204.295166 119.564697,204.139648 120.220947,204.139648 L120.220947,204.139648 L121.748779,204.139648 L121.748779,205.975098 C121.543701,206.275879 121.258301,206.521973 120.892578,206.713379 C120.526855,206.904785 120.11499,207.000488 119.656982,207.000488 Z M130.167236,209 L130.167236,193.003906 L127.173096,193.003906 L127.173096,209 L130.167236,209 Z M49.7099609,235 L54.7856445,220.070312 L51.6274414,220.070312 L48.3769531,231.052246 L48.1821289,231.923828 L48.1513672,231.923828 L47.9462891,231.031738 L44.7265625,220.070312 L41.5581055,220.070312 L46.6337891,235 L49.7099609,235 Z M60.9584961,235.205078 C61.840332,235.205078 62.6264648,235.099121 63.3168945,234.887207 C64.0073242,234.675293 64.574707,234.401855 65.019043,234.066895 L65.019043,234.066895 L64.362793,232.087891 C63.8364258,232.375 63.3596191,232.583496 62.932373,232.713379 C62.505127,232.843262 61.953125,232.908203 61.2763672,232.908203 C60.5175781,232.908203 59.9228516,232.675781 59.4921875,232.210938 C59.0615234,231.746094 58.8017578,231.124023 58.7128906,230.344727 L58.7128906,230.344727 L65.4189453,230.344727 L65.4189453,228.714355 C65.4189453,227.148926 65.013916,225.921875 64.2038574,225.033203 C63.3937988,224.144531 62.2231445,223.700129 60.6918945,223.700129 C59.1401367,223.693359 57.9182129,224.2146 57.026123,225.263916 C56.1340332,226.313232 55.6879883,227.678711 55.6879883,229.360352 L55.6879883,229.360352 L55.6879883,229.770508 C55.6879883,231.383789 56.157959,232.692871 57.0979004,233.697754 C58.0378418,234.702637 59.324707,235.205078 60.9584961,235.205078 Z M62.4863281,228.365723 L58.7436523,228.365723 C58.8393555,227.634277 59.0461426,227.05835 59.3640137,226.637939 C59.6818848,226.217529 60.1245117,226.007324 60.6918945,226.007324 C61.3071289,226.007324 61.7600098,226.193604 62.0505371,226.566162 C62.3410645,226.938721 62.4863281,227.449707 62.4863281,228.099121 L62.4863281,228.099121 L62.4863281,228.365723 Z M70.1049805,235 L70.1049805,226.950684 C70.3237305,226.656738 70.5852051,226.429443 70.8894043,226.268799 C71.1936035,226.108154 71.5507812,226.027832 71.9609375,226.027832 C72.5830078,226.027832 73.0410156,226.179932 73.3349609,226.484131 C73.6289062,226.78833 73.7758789,227.319824 73.7758789,228.078613 L73.7758789,228.078613 L73.7758789,235 L76.7802734,235 L76.7802734,228.068359 C76.7802734,226.530273 76.4709473,225.417725 75.8522949,224.730713 C75.2336426,224.043701 74.3535156,223.700195 73.2119141,223.700195 C72.5351562,223.700195 71.9318848,223.852295 71.4020996,224.156494 C70.8723145,224.460693 70.4262695,224.893066 70.0639648,225.453613 L70.0639648,225.453613 L70.0332031,225.443359 L69.8999023,223.905273 L67.1108398,223.905273 L67.1108398,235 L70.1049805,235 Z M83.9272461,235.205078 C84.809082,235.205078 85.5952148,235.099121 86.2856445,234.887207 C86.9760742,234.675293 87.543457,234.401855 87.987793,234.066895 L87.987793,234.066895 L87.331543,232.087891 C86.8051758,232.375 86.3283691,232.583496 85.901123,232.713379 C85.473877,232.843262 84.921875,232.908203 84.2451172,232.908203 C83.4863281,232.908203 82.8916016,232.675781 82.4609375,232.210938 C82.0302734,231.746094 81.7705078,231.124023 81.6816406,230.344727 L81.6816406,230.344727 L88.3876953,230.344727 L88.3876953,228.714355 C88.3876953,227.148926 87.982666,225.921875 87.1726074,225.033203 C86.3625488,224.144531 85.1918945,223.700129 83.6606445,223.700129 C82.1088867,223.693359 80.8869629,224.2146 79.994873,225.263916 C79.1027832,226.313232 78.6567383,227.678711 78.6567383,229.360352 L78.6567383,229.360352 L78.6567383,229.770508 C78.6567383,231.383789 79.126709,232.692871 80.0666504,233.697754 C81.0065918,234.702637 82.293457,235.205078 83.9272461,235.205078 Z M85.4550781,228.365723 L81.7124023,228.365723 C81.8081055,227.634277 82.0148926,227.05835 82.3327637,226.637939 C82.6506348,226.217529 83.0932617,226.007324 83.6606445,226.007324 C84.2758789,226.007324 84.7287598,226.193604 85.0192871,226.566162 C85.3098145,226.938721 85.4550781,227.449707 85.4550781,228.099121 L85.4550781,228.099121 L85.4550781,228.365723 Z M95.0424805,235.205078 C95.9243164,235.205078 96.7104492,235.099121 97.4008789,234.887207 C98.0913086,234.675293 98.6586914,234.401855 99.1030273,234.066895 L99.1030273,234.066895 L98.4467773,232.087891 C97.9204102,232.375 97.4436035,232.583496 97.0163574,232.713379 C96.5891113,232.843262 96.0371094,232.908203 95.3603516,232.908203 C94.6015625,232.908203 94.0068359,232.675781 93.5761719,232.210938 C93.1455078,231.746094 92.8857422,231.124023 92.796875,230.344727 L92.796875,230.344727 L99.5029297,230.344727 L99.5029297,228.714355 C99.5029297,227.148926 99.0979004,225.921875 98.2878418,225.033203 C97.4777832,224.144531 96.3071289,223.700129 94.7758789,223.700129 C93.2241211,223.693359 92.0021973,224.2146 91.1101074,225.263916 C90.2180176,226.313232 89.7719727,227.678711 89.7719727,229.360352 L89.7719727,229.360352 L89.7719727,229.770508 C89.7719727,231.383789 90.2419434,232.692871 91.1818848,233.697754 C92.1218262,234.702637 93.4086914,235.205078 95.0424805,235.205078 Z M96.5703125,228.365723 L92.8276367,228.365723 C92.9233398,227.634277 93.130127,227.05835 93.447998,226.637939 C93.7658691,226.217529 94.2084961,226.007324 94.7758789,226.007324 C95.3911133,226.007324 95.8439941,226.193604 96.1345215,226.566162 C96.4250488,226.938721 96.5703125,227.449707 96.5703125,228.099121 L96.5703125,228.099121 L96.5703125,228.365723 Z M104.22998,235 L104.22998,227.535156 C104.380371,227.207031 104.597412,226.955811 104.881104,226.781494 C105.164795,226.607178 105.532227,226.52002 105.983398,226.52002 L105.983398,226.52002 L107.203613,226.550781 L107.521484,223.823242 C107.398438,223.789062 107.254883,223.76001 107.09082,223.736084 C106.926758,223.712158 106.762695,223.700195 106.598633,223.700195 C106.044922,223.700195 105.568115,223.857422 105.168213,224.171875 C104.768311,224.486328 104.438477,224.927246 104.178711,225.494629 L104.178711,225.494629 L104.158203,225.484375 L104.024902,223.905273 L101.246094,223.905273 L101.246094,235 L104.22998,235 Z M113.109863,235.205078 C114.54541,235.205078 115.681885,234.895752 116.519287,234.2771 C117.356689,233.658447 117.775391,232.839844 117.775391,231.821289 C117.775391,230.871094 117.450684,230.137939 116.80127,229.621826 C116.151855,229.105713 115.129883,228.70752 113.735352,228.427246 C112.833008,228.249512 112.23999,228.054688 111.956299,227.842773 C111.672607,227.630859 111.530762,227.350586 111.530762,227.001953 C111.530762,226.639648 111.66748,226.342285 111.940918,226.109863 C112.214355,225.877441 112.597168,225.76123 113.089355,225.76123 C113.649902,225.76123 114.068604,225.899658 114.345459,226.176514 C114.622314,226.453369 114.760742,226.817383 114.760742,227.268555 L114.760742,227.268555 L117.744629,227.268555 C117.744629,226.208984 117.329346,225.349365 116.498779,224.689697 C115.668213,224.030029 114.531738,223.700195 113.089355,223.700195 C111.722168,223.700195 110.64209,224.02832 109.849121,224.68457 C109.056152,225.34082 108.659668,226.157715 108.659668,227.135254 C108.659668,228.058105 108.987793,228.77417 109.644043,229.283447 C110.300293,229.792725 111.294922,230.184082 112.62793,230.45752 C113.50293,230.648926 114.095947,230.86084 114.406982,231.093262 C114.718018,231.325684 114.873535,231.609375 114.873535,231.944336 C114.873535,232.327148 114.72998,232.624512 114.442871,232.836426 C114.155762,233.04834 113.731934,233.154297 113.171387,233.154297 C112.562988,233.154297 112.077637,233.024414 111.715332,232.764648 C111.353027,232.504883 111.161621,232.074219 111.141113,231.472656 L111.141113,231.472656 L108.311035,231.472656 C108.311035,232.477539 108.733154,233.35083 109.577393,234.092529 C110.421631,234.834229 111.599121,235.205078 113.109863,235.205078 Z" id="TraditionalVeneers" fill="#EFEFEF" fill-rule="nonzero"></path>
                        <g id="Asset-1" opacity="0.5" fill-rule="nonzero">
                            <circle id="Oval" stroke="#808080" stroke-width="4" fill="#000000" cx="80" cy="80" r="80"></circle>
                            <circle id="Oval" fill="#282828" cx="80" cy="80" r="73"></circle>
                            <rect id="Rectangle" fill="#000000" x="22.91" y="44" width="114" height="46" rx="6"></rect>
                            <rect id="Rectangle" fill="#7A8A8E" x="27.5" y="48.5" width="105" height="37" rx="4"></rect>
                            <ellipse id="Oval" fill="#7A8A8E" cx="46.697" cy="106" rx="12" ry="8"></ellipse>
                            <ellipse id="Oval" fill="#000000" cx="46.697" cy="106" rx="9" ry="6"></ellipse>
                            <ellipse id="Oval" fill="#7A8A8E" cx="113.123" cy="106.059" rx="12" ry="8"></ellipse>
                            <ellipse id="Oval" fill="#000000" cx="113.123" cy="106.059" rx="9" ry="6"></ellipse>
                            <ellipse id="Oval" fill="#7A8A8E" cx="79.91" cy="129.059" rx="12" ry="8"></ellipse>
                            <ellipse id="Oval" fill="#000000" cx="79.91" cy="129.059" rx="9" ry="6"></ellipse>
                        </g>
                        <use id="Oval" stroke="#949494" mask="url(#mask-2)" stroke-width="8" stroke-dasharray="260,140" xlink:href="#path-1"></use>
                        <rect id="Rectangle" fill="#748A8D" x="27.5" y="48.5" width="105" height="37"></rect>
                        <path d="M48.9130859,81.3896484 C51.6962891,81.3896484 53.8640951,80.4866536 55.4165039,78.6806641 C56.9689128,76.8746745 57.7451172,74.1780599 57.7451172,70.5908203 L57.7451172,70.5908203 L57.7451172,64.4121094 C57.7451172,60.8372396 56.9627279,58.140625 55.3979492,56.3222656 C53.8331706,54.5039062 51.6591797,53.5947266 48.8759766,53.5947266 C46.0927734,53.5947266 43.921875,54.5039062 42.3632812,56.3222656 C40.8046875,58.140625 40.0253906,60.8372396 40.0253906,64.4121094 L40.0253906,64.4121094 L40.0253906,70.5908203 C40.0253906,74.1656901 40.8108724,76.8592122 42.3818359,78.6713867 C43.9527995,80.4835612 46.1298828,81.3896484 48.9130859,81.3896484 Z M48.9130859,77.7900391 C47.4658203,77.7900391 46.3741862,77.2674154 45.6381836,76.222168 C44.902181,75.1769206 44.5341797,73.516276 44.5341797,71.2402344 L44.5341797,71.2402344 L44.5341797,63.7255859 C44.5341797,61.4742839 44.8959961,59.8260091 45.6196289,58.7807617 C46.3432617,57.7355143 47.4287109,57.2128906 48.8759766,57.2128906 C50.3232422,57.2128906 51.4117839,57.7355143 52.1416016,58.7807617 C52.8714193,59.8260091 53.2363281,61.4742839 53.2363281,63.7255859 L53.2363281,63.7255859 L53.2363281,71.2402344 C53.2363281,73.5286458 52.8776042,75.1923828 52.1601562,76.2314453 C51.4427083,77.2705078 50.3603516,77.7900391 48.9130859,77.7900391 Z M67.0224609,81 L67.0224609,76.6767578 L62.5322266,76.6767578 L62.5322266,81 L67.0224609,81 Z M81.3095703,81 L81.5878906,78.1425781 C82.0826823,73.8873698 82.8588867,70.3310547 83.9165039,67.4736328 C84.9741211,64.6162109 87.086263,61.3258464 90.2529297,57.6025391 L90.2529297,57.6025391 L90.2529297,53.984375 L71.5869141,53.984375 L71.5869141,57.6025391 L85.8925781,57.6025391 C83.344401,60.6207682 81.3590495,63.7596029 79.9365234,67.019043 C78.5139974,70.2784831 77.5615234,73.9863281 77.0791016,78.1425781 L77.0791016,78.1425781 L76.8007812,81 L81.3095703,81 Z" id="0.7" fill="#000000" fill-rule="nonzero"></path>
                        <path d="M95.7607422,81 L95.7607422,74.0654297 C95.9365234,73.8251953 96.1503906,73.6391602 96.4023438,73.5073242 C96.6542969,73.3754883 96.9589844,73.3095703 97.3164062,73.3095703 C97.7910156,73.3095703 98.144043,73.4516602 98.3754883,73.7358398 C98.6069336,74.0200195 98.7226562,74.5195312 98.7226562,75.234375 L98.7226562,75.234375 L98.7226562,81 L101.280273,81 L101.280273,74.7509766 C101.280273,74.6689453 101.277344,74.5883789 101.271484,74.5092773 C101.265625,74.4301758 101.262695,74.3349609 101.262695,74.2236328 C101.420898,73.9306641 101.630371,73.7050781 101.891113,73.546875 C102.151855,73.3886719 102.469727,73.3095703 102.844727,73.3095703 C103.319336,73.3095703 103.670898,73.4472656 103.899414,73.7226562 C104.12793,73.9980469 104.242188,74.5019531 104.242188,75.234375 L104.242188,75.234375 L104.242188,81 L106.808594,81 L106.808594,75.2431641 C106.808594,73.8896484 106.543457,72.8964844 106.013184,72.2636719 C105.48291,71.6308594 104.737305,71.3144531 103.776367,71.3144531 C103.131836,71.3144531 102.57959,71.4550781 102.119629,71.7363281 C101.659668,72.0175781 101.280273,72.4189453 100.981445,72.9404297 C100.75293,72.3837891 100.42627,71.9736328 100.001465,71.7099609 C99.5766602,71.4462891 99.0537109,71.3144531 98.4326172,71.3144531 C97.8232422,71.3144531 97.2929688,71.4345703 96.8417969,71.6748047 C96.390625,71.9150391 96.015625,72.2607422 95.7167969,72.7119141 L95.7167969,72.7119141 L95.6904297,72.703125 L95.5849609,71.4902344 L93.203125,71.4902344 L93.203125,81 L95.7607422,81 Z M111.334961,81 L111.334961,74.0654297 C111.510742,73.8251953 111.724609,73.6391602 111.976562,73.5073242 C112.228516,73.3754883 112.533203,73.3095703 112.890625,73.3095703 C113.365234,73.3095703 113.718262,73.4516602 113.949707,73.7358398 C114.181152,74.0200195 114.296875,74.5195312 114.296875,75.234375 L114.296875,75.234375 L114.296875,81 L116.854492,81 L116.854492,74.7509766 C116.854492,74.6689453 116.851562,74.5883789 116.845703,74.5092773 C116.839844,74.4301758 116.836914,74.3349609 116.836914,74.2236328 C116.995117,73.9306641 117.20459,73.7050781 117.465332,73.546875 C117.726074,73.3886719 118.043945,73.3095703 118.418945,73.3095703 C118.893555,73.3095703 119.245117,73.4472656 119.473633,73.7226562 C119.702148,73.9980469 119.816406,74.5019531 119.816406,75.234375 L119.816406,75.234375 L119.816406,81 L122.382812,81 L122.382812,75.2431641 C122.382812,73.8896484 122.117676,72.8964844 121.587402,72.2636719 C121.057129,71.6308594 120.311523,71.3144531 119.350586,71.3144531 C118.706055,71.3144531 118.153809,71.4550781 117.693848,71.7363281 C117.233887,72.0175781 116.854492,72.4189453 116.555664,72.9404297 C116.327148,72.3837891 116.000488,71.9736328 115.575684,71.7099609 C115.150879,71.4462891 114.62793,71.3144531 114.006836,71.3144531 C113.397461,71.3144531 112.867188,71.4345703 112.416016,71.6748047 C111.964844,71.9150391 111.589844,72.2607422 111.291016,72.7119141 L111.291016,72.7119141 L111.264648,72.703125 L111.15918,71.4902344 L108.777344,71.4902344 L108.777344,81 L111.334961,81 Z" id="mm" fill="#000000" fill-rule="nonzero"></path>
                    </g>
                    <g id="Group-2" transform="translate(230.093624, 0.000000)">
                        <path d="M52.8050573,218.621708 C54.6370885,218.621708 56.0965612,218.175663 57.1834752,217.283573 C58.2703893,216.391483 58.8138463,215.090946 58.8138463,213.381962 L58.8138463,213.381962 L58.8138463,203.476688 L55.8094518,203.476688 L55.8094518,213.381962 C55.8094518,214.386844 55.5479772,215.128544 55.025028,215.607059 C54.5020787,216.085575 53.7620885,216.324833 52.8050573,216.324833 C51.8685338,216.324833 51.1405065,216.085575 50.6209752,215.607059 C50.101444,215.128544 49.8416783,214.386844 49.8416783,213.381962 L49.8416783,213.381962 L49.8416783,203.476688 L46.8372838,203.476688 L46.8372838,213.381962 C46.8372838,215.090946 47.3773229,216.391483 48.457401,217.283573 C49.5374791,218.175663 50.9866979,218.621708 52.8050573,218.621708 Z M64.3304479,218.406376 L64.3304479,202.410282 L61.3363073,202.410282 L61.3363073,218.406376 L64.3304479,218.406376 Z M70.5443151,218.611454 C70.8929479,218.611454 71.2227819,218.580692 71.533817,218.519169 C71.8448522,218.457645 72.1336705,218.375614 72.4002721,218.273075 L72.4002721,218.273075 L72.1541783,216.140262 C71.9969518,216.181278 71.8568151,216.210331 71.7337682,216.227421 C71.6107213,216.24451 71.4637487,216.253055 71.2928502,216.253055 C71.0057408,216.253055 70.7784459,216.164188 70.6109655,215.986454 C70.443485,215.808719 70.3597448,215.497684 70.3597448,215.053348 L70.3597448,215.053348 L70.3597448,209.4137 L72.2669713,209.4137 L72.2669713,207.311649 L70.3597448,207.311649 L70.3597448,204.594364 L67.375858,204.594364 L67.375858,207.311649 L65.8787877,207.311649 L65.8787877,209.4137 L67.375858,209.4137 L67.375858,215.063602 C67.375858,216.314579 67.6441686,217.218631 68.1807897,217.77576 C68.7174108,218.332889 69.5052526,218.611454 70.5443151,218.611454 Z M76.8299596,218.406376 L76.8299596,210.941532 C76.9803502,210.613407 77.1973912,210.362186 77.4810826,210.18787 C77.764774,210.013553 78.1322057,209.926395 78.5833776,209.926395 L78.5833776,209.926395 L79.8035924,209.957157 L80.1214635,207.229618 C79.9984166,207.195438 79.8548619,207.166385 79.6907994,207.14246 C79.5267369,207.118534 79.3626744,207.106571 79.1986119,207.106571 C78.644901,207.106571 78.1680944,207.263797 77.768192,207.578251 C77.3682897,207.892704 77.0384557,208.333622 76.7786901,208.901005 L76.7786901,208.901005 L76.7581823,208.890751 L76.6248815,207.311649 L73.8460729,207.311649 L73.8460729,218.406376 L76.8299596,218.406376 Z M84.5819127,218.611454 C85.2518346,218.611454 85.8328893,218.471317 86.3250768,218.191044 C86.8172643,217.91077 87.2376744,217.534794 87.5863073,217.063114 C87.6273229,217.302372 87.6820104,217.534794 87.7503698,217.76038 C87.8187291,217.985965 87.8973424,218.201297 87.9862096,218.406376 L87.9862096,218.406376 L90.9803502,218.406376 C90.8094518,217.948368 90.6846959,217.495487 90.6060826,217.047733 C90.5274694,216.599979 90.4881627,216.109501 90.4881627,215.576297 L90.4881627,215.576297 L90.4881627,210.992801 C90.4881627,209.721317 90.0797155,208.755741 89.2628209,208.096073 C88.4459264,207.436405 87.3607213,207.106571 86.0072057,207.106571 C84.5716588,207.106571 83.4249303,207.443241 82.5670201,208.116581 C81.70911,208.789921 81.2801549,209.622196 81.2801549,210.613407 L81.2801549,210.613407 L84.2640416,210.613407 C84.2640416,210.189579 84.3956334,209.863163 84.658817,209.634159 C84.9220006,209.405155 85.3065221,209.290653 85.8123815,209.290653 C86.3729283,209.290653 86.7916295,209.434208 87.068485,209.721317 C87.3453405,210.008426 87.4837682,210.425419 87.4837682,210.972294 L87.4837682,210.972294 L87.4837682,211.85413 L85.9559362,211.85413 C84.3153112,211.85413 83.0848424,212.148075 82.2645299,212.735965 C81.4442174,213.323856 81.0340612,214.171512 81.0340612,215.278934 C81.0340612,216.317997 81.3485143,217.133182 81.9774205,217.724491 C82.6063268,218.315799 83.4744908,218.611454 84.5819127,218.611454 Z M85.3919713,216.406864 C84.9613073,216.406864 84.6246373,216.29578 84.3819615,216.073612 C84.1392858,215.851444 84.0179479,215.552372 84.0179479,215.176395 C84.0179479,214.711551 84.1768834,214.323612 84.4947545,214.012577 C84.8126256,213.701542 85.2996862,213.546024 85.9559362,213.546024 L85.9559362,213.546024 L87.4837682,213.546024 L87.4837682,215.381473 C87.2786901,215.682255 86.9932897,215.928348 86.627567,216.119755 C86.2618444,216.311161 85.8499791,216.406864 85.3919713,216.406864 Z M101.736698,218.611454 C102.085331,218.611454 102.415165,218.580692 102.7262,218.519169 C103.037235,218.457645 103.326053,218.375614 103.592655,218.273075 L103.592655,218.273075 L103.346561,216.140262 C103.189335,216.181278 103.049198,216.210331 102.926151,216.227421 C102.803104,216.24451 102.656131,216.253055 102.485233,216.253055 C102.198124,216.253055 101.970829,216.164188 101.803348,215.986454 C101.635868,215.808719 101.552128,215.497684 101.552128,215.053348 L101.552128,215.053348 L101.552128,209.4137 L103.459354,209.4137 L103.459354,207.311649 L101.552128,207.311649 L101.552128,204.594364 L98.5682408,204.594364 L98.5682408,207.311649 L97.0711705,207.311649 L97.0711705,209.4137 L98.5682408,209.4137 L98.5682408,215.063602 C98.5682408,216.314579 98.8365514,217.218631 99.3731725,217.77576 C99.9097936,218.332889 100.697635,218.611454 101.736698,218.611454 Z M107.960819,218.406376 L107.960819,210.275028 C108.172733,210.00159 108.43079,209.793094 108.734989,209.64954 C109.039188,209.505985 109.403202,209.434208 109.82703,209.434208 C110.442264,209.434208 110.898563,209.610233 111.195926,209.962284 C111.49329,210.314335 111.641971,210.92786 111.641971,211.80286 L111.641971,211.80286 L111.641971,218.406376 L114.636112,218.406376 L114.636112,211.823368 C114.636112,210.182743 114.313114,208.986454 113.667118,208.234501 C113.021122,207.482547 112.106815,207.106571 110.924198,207.106571 C110.302128,207.106571 109.74329,207.24329 109.247684,207.516727 C108.752079,207.790165 108.333378,208.176395 107.991581,208.675419 L107.991581,208.675419 L107.960819,208.665165 L107.960819,202.410282 L104.966678,202.410282 L104.966678,218.406376 L107.960819,218.406376 Z M120.039921,204.655887 L120.039921,202.410282 L117.04578,202.410282 L117.04578,204.655887 L120.039921,204.655887 Z M120.039921,218.406376 L120.039921,207.311649 L117.04578,207.311649 L117.04578,218.406376 L120.039921,218.406376 Z M125.443729,218.406376 L125.443729,210.357059 C125.662479,210.063114 125.923954,209.835819 126.228153,209.675174 C126.532352,209.51453 126.88953,209.434208 127.299686,209.434208 C127.921756,209.434208 128.379764,209.586307 128.67371,209.890506 C128.967655,210.194706 129.114628,210.7262 129.114628,211.484989 L129.114628,211.484989 L129.114628,218.406376 L132.119022,218.406376 L132.119022,211.474735 C132.119022,209.936649 131.809696,208.8241 131.191044,208.137089 C130.572391,207.450077 129.692264,207.106571 128.550663,207.106571 C127.873905,207.106571 127.270633,207.258671 126.740848,207.56287 C126.211063,207.867069 125.765018,208.299442 125.402714,208.859989 L125.402714,208.859989 L125.371952,208.849735 L125.238651,207.311649 L122.449589,207.311649 L122.449589,218.406376 L125.443729,218.406376 Z M64.530399,244.406376 L69.6060826,229.476688 L66.4478795,229.476688 L63.1973912,240.458622 L63.002567,241.330204 L62.9718053,241.330204 L62.7667272,240.438114 L59.5470006,229.476688 L56.3785436,229.476688 L61.4542272,244.406376 L64.530399,244.406376 Z M75.7789342,244.611454 C76.6607701,244.611454 77.446903,244.505497 78.1373326,244.293583 C78.8277623,244.081669 79.3951451,243.808231 79.8394811,243.47327 L79.8394811,243.47327 L79.1832311,241.494266 C78.6568639,241.781376 78.1800573,241.989872 77.7528112,242.119755 C77.3255651,242.249637 76.7735631,242.314579 76.0968053,242.314579 C75.3380162,242.314579 74.7432897,242.082157 74.3126256,241.617313 C73.8819615,241.152469 73.6221959,240.530399 73.5333287,239.751102 L73.5333287,239.751102 L80.2393834,239.751102 L80.2393834,238.120731 C80.2393834,236.555301 79.8343541,235.328251 79.0242955,234.439579 C78.2142369,233.550907 77.0435826,233.106505 75.5123326,233.106505 C73.9605748,233.099735 72.738651,233.620975 71.8465612,234.670292 C70.9544713,235.719608 70.5084264,237.085087 70.5084264,238.766727 L70.5084264,238.766727 L70.5084264,239.176883 C70.5084264,240.790165 70.9783971,242.099247 71.9183385,243.10413 C72.8582799,244.109012 74.1451451,244.611454 75.7789342,244.611454 Z M77.3067662,237.772098 L73.5640905,237.772098 C73.6597936,237.040653 73.8665807,236.464725 74.1844518,236.044315 C74.5023229,235.623905 74.9449498,235.4137 75.5123326,235.4137 C76.127567,235.4137 76.5804479,235.599979 76.8709752,235.972538 C77.1615026,236.345096 77.3067662,236.856083 77.3067662,237.505497 L77.3067662,237.505497 L77.3067662,237.772098 Z M84.9254186,244.406376 L84.9254186,236.357059 C85.1441686,236.063114 85.4056432,235.835819 85.7098424,235.675174 C86.0140416,235.51453 86.3712194,235.434208 86.7813756,235.434208 C87.4034459,235.434208 87.8614537,235.586307 88.155399,235.890506 C88.4493444,236.194706 88.596317,236.7262 88.596317,237.484989 L88.596317,237.484989 L88.596317,244.406376 L91.6007115,244.406376 L91.6007115,237.474735 C91.6007115,235.936649 91.2913854,234.8241 90.672733,234.137089 C90.0540807,233.450077 89.1739537,233.106571 88.0323522,233.106571 C87.3555944,233.106571 86.7523229,233.258671 86.2225377,233.56287 C85.6927526,233.867069 85.2467076,234.299442 84.884403,234.859989 L84.884403,234.859989 L84.8536412,234.849735 L84.7203405,233.311649 L81.931278,233.311649 L81.931278,244.406376 L84.9254186,244.406376 Z M98.7476842,244.611454 C99.6295201,244.611454 100.415653,244.505497 101.106083,244.293583 C101.796512,244.081669 102.363895,243.808231 102.808231,243.47327 L102.808231,243.47327 L102.151981,241.494266 C101.625614,241.781376 101.148807,241.989872 100.721561,242.119755 C100.294315,242.249637 99.7423131,242.314579 99.0655553,242.314579 C98.3067662,242.314579 97.7120397,242.082157 97.2813756,241.617313 C96.8507115,241.152469 96.5909459,240.530399 96.5020787,239.751102 L96.5020787,239.751102 L103.208133,239.751102 L103.208133,238.120731 C103.208133,236.555301 102.803104,235.328251 101.993046,234.439579 C101.182987,233.550907 100.012333,233.106505 98.4810826,233.106505 C96.9293248,233.099735 95.707401,233.620975 94.8153112,234.670292 C93.9232213,235.719608 93.4771764,237.085087 93.4771764,238.766727 L93.4771764,238.766727 L93.4771764,239.176883 C93.4771764,240.790165 93.9471471,242.099247 94.8870885,243.10413 C95.8270299,244.109012 97.1138951,244.611454 98.7476842,244.611454 Z M100.275516,237.772098 L96.5328405,237.772098 C96.6285436,237.040653 96.8353307,236.464725 97.1532018,236.044315 C97.4710729,235.623905 97.9136998,235.4137 98.4810826,235.4137 C99.096317,235.4137 99.5491979,235.599979 99.8397252,235.972538 C100.130253,236.345096 100.275516,236.856083 100.275516,237.505497 L100.275516,237.505497 L100.275516,237.772098 Z M109.862919,244.611454 C110.744755,244.611454 111.530887,244.505497 112.221317,244.293583 C112.911747,244.081669 113.47913,243.808231 113.923465,243.47327 L113.923465,243.47327 L113.267215,241.494266 C112.740848,241.781376 112.264042,241.989872 111.836796,242.119755 C111.409549,242.249637 110.857547,242.314579 110.18079,242.314579 C109.422001,242.314579 108.827274,242.082157 108.39661,241.617313 C107.965946,241.152469 107.70618,240.530399 107.617313,239.751102 L107.617313,239.751102 L114.323368,239.751102 L114.323368,238.120731 C114.323368,236.555301 113.918339,235.328251 113.10828,234.439579 C112.298221,233.550907 111.127567,233.106505 109.596317,233.106505 C108.044559,233.099735 106.822635,233.620975 105.930546,234.670292 C105.038456,235.719608 104.592411,237.085087 104.592411,238.766727 L104.592411,238.766727 L104.592411,239.176883 C104.592411,240.790165 105.062381,242.099247 106.002323,243.10413 C106.942264,244.109012 108.22913,244.611454 109.862919,244.611454 Z M111.390751,237.772098 L107.648075,237.772098 C107.743778,237.040653 107.950565,236.464725 108.268436,236.044315 C108.586307,235.623905 109.028934,235.4137 109.596317,235.4137 C110.211551,235.4137 110.664432,235.599979 110.95496,235.972538 C111.245487,236.345096 111.390751,236.856083 111.390751,237.505497 L111.390751,237.505497 L111.390751,237.772098 Z M119.050419,244.406376 L119.050419,236.941532 C119.200809,236.613407 119.41785,236.362186 119.701542,236.18787 C119.985233,236.013553 120.352665,235.926395 120.803837,235.926395 L120.803837,235.926395 L122.024051,235.957157 L122.341922,233.229618 C122.218876,233.195438 122.075321,233.166385 121.911258,233.14246 C121.747196,233.118534 121.583133,233.106571 121.419071,233.106571 C120.86536,233.106571 120.388553,233.263797 119.988651,233.578251 C119.588749,233.892704 119.258915,234.333622 118.999149,234.901005 L118.999149,234.901005 L118.978641,234.890751 L118.84534,233.311649 L116.066532,233.311649 L116.066532,244.406376 L119.050419,244.406376 Z" id="UltrathinVeneer" fill="#17866B" fill-rule="nonzero"></path>
                        <g id="Asset-1" opacity="0.5" transform="translate(9.406376, 9.406376)" fill-rule="nonzero">
                            <circle id="Oval" stroke="#808080" stroke-width="4" fill="#000000" cx="80" cy="80" r="80"></circle>
                            <circle id="Oval" fill="#282828" cx="80" cy="80" r="73"></circle>
                            <rect id="Rectangle" fill="#000000" x="22.91" y="44" width="114" height="46" rx="6"></rect>
                            <rect id="Rectangle" fill="#7A8A8E" x="27.5" y="48.5" width="105" height="37" rx="4"></rect>
                            <ellipse id="Oval" fill="#7A8A8E" cx="46.697" cy="106" rx="12" ry="8"></ellipse>
                            <ellipse id="Oval" fill="#000000" cx="46.697" cy="106" rx="9" ry="6"></ellipse>
                            <ellipse id="Oval" fill="#7A8A8E" cx="113.123" cy="106.059" rx="12" ry="8"></ellipse>
                            <ellipse id="Oval" fill="#000000" cx="113.123" cy="106.059" rx="9" ry="6"></ellipse>
                            <ellipse id="Oval" fill="#7A8A8E" cx="79.91" cy="129.059" rx="12" ry="8"></ellipse>
                            <ellipse id="Oval" fill="#000000" cx="79.91" cy="129.059" rx="9" ry="6"></ellipse>
                        </g>
                        <use id="Oval" stroke="#17866B" mask="url(#mask-4)" stroke-width="8" stroke-dasharray="140,1000" transform="translate(89.406376, 89.406376) rotate(-75.000000) translate(-89.406376, -89.406376) " xlink:href="#path-3"></use>
                        <rect id="Rectangle" fill="#748A8D" x="36.9063756" y="57.9063756" width="105" height="37"></rect>
                        <path d="M58.3194615,90.796024 C61.1026647,90.796024 63.2704707,89.8930293 64.8228795,88.0870397 C66.3752884,86.2810501 67.1514928,83.5844355 67.1514928,79.9971959 L67.1514928,79.9971959 L67.1514928,73.818485 C67.1514928,70.2436152 66.3691035,67.5470006 64.8043248,65.7286412 C63.2395462,63.9102819 61.0655553,63.0011022 58.2823522,63.0011022 C55.499149,63.0011022 53.3282506,63.9102819 51.7696569,65.7286412 C50.2110631,67.5470006 49.4317662,70.2436152 49.4317662,73.818485 L49.4317662,73.818485 L49.4317662,79.9971959 C49.4317662,83.5720657 50.217248,86.2655879 51.7882115,88.0777623 C53.3591751,89.8899368 55.5362584,90.796024 58.3194615,90.796024 Z M58.3194615,87.1964147 C56.8721959,87.1964147 55.7805618,86.673791 55.0445592,85.6285436 C54.3085566,84.5832962 53.9405553,82.9226517 53.9405553,80.64661 L53.9405553,80.64661 L53.9405553,73.1319615 C53.9405553,70.8806595 54.3023717,69.2323847 55.0260045,68.1871373 C55.7496373,67.1418899 56.8350865,66.6192662 58.2823522,66.6192662 C59.7296178,66.6192662 60.8181595,67.1418899 61.5479772,68.1871373 C62.2777949,69.2323847 62.6427037,70.8806595 62.6427037,73.1319615 L62.6427037,73.1319615 L62.6427037,80.64661 C62.6427037,82.9350214 62.2839798,84.5987584 61.5665319,85.6378209 C60.8490839,86.6768834 59.7667272,87.1964147 58.3194615,87.1964147 Z M76.4288365,90.4063756 L76.4288365,86.0831334 L71.9386022,86.0831334 L71.9386022,90.4063756 L76.4288365,90.4063756 Z M90.0479772,90.796024 C92.7445918,90.796024 94.9309524,90.1002233 96.6070592,88.7086217 C98.283166,87.3170201 99.1212194,85.3595006 99.1212194,82.8360631 C99.1212194,81.3764277 98.7686803,80.1023392 98.0636022,79.0137975 C97.358524,77.9252558 96.2205032,77.1026647 94.6495397,76.546024 C95.9854772,75.9399043 96.9967076,75.1080358 97.6832311,74.0504186 C98.3697545,72.9928014 98.7130162,71.8764277 98.7130162,70.7012975 C98.7130162,68.1902298 97.9399043,66.279097 96.3936803,64.967899 C94.8474563,63.6567011 92.732222,63.0011022 90.0479772,63.0011022 C87.4998001,63.0011022 85.42786,63.696903 83.8321569,65.0885045 C82.2364537,66.4801061 81.4386022,68.2582636 81.4386022,70.4229772 L81.4386022,70.4229772 L85.9473912,70.4229772 C85.9473912,69.2602168 86.3277623,68.3355748 87.0885045,67.6490514 C87.8492467,66.962528 88.8542923,66.6192662 90.1036412,66.6192662 C91.4766881,66.6192662 92.5033808,66.9687129 93.1837194,67.6676061 C93.8640579,68.3664993 94.2042272,69.3777298 94.2042272,70.7012975 C94.2042272,72.0496048 93.8918899,73.0793899 93.2672155,73.790653 C92.642541,74.501916 91.5818313,74.8575475 90.0850865,74.8575475 L90.0850865,74.8575475 L86.9493444,74.8575475 L86.9493444,78.4014928 L90.0850865,78.4014928 C91.6560501,78.4014928 92.8033483,78.7540319 93.5269811,79.45911 C94.2506139,80.1641881 94.6124303,81.296024 94.6124303,82.8546178 C94.6124303,84.264774 94.216597,85.3409459 93.4249303,86.0831334 C92.6332636,86.8253209 91.5261673,87.1964147 90.1036412,87.1964147 C88.7429642,87.1964147 87.6667923,86.8315058 86.8751256,86.1016881 C86.0834589,85.3718704 85.6876256,84.3946569 85.6876256,83.1700475 L85.6876256,83.1700475 L81.1788365,83.1700475 C81.1788365,85.631636 82.0199824,87.5180293 83.702274,88.8292272 C85.3845657,90.1404251 87.4998001,90.796024 90.0479772,90.796024 Z" id="0.3" fill="#000000" fill-rule="nonzero"></path>
                        <path d="M105.167118,90.4063756 L105.167118,83.4718053 C105.342899,83.2315709 105.556766,83.0455358 105.808719,82.9136998 C106.060672,82.7818639 106.36536,82.7159459 106.722782,82.7159459 C107.197391,82.7159459 107.550419,82.8580358 107.781864,83.1422155 C108.013309,83.4263951 108.129032,83.9259069 108.129032,84.6407506 L108.129032,84.6407506 L108.129032,90.4063756 L110.686649,90.4063756 L110.686649,84.1573522 C110.686649,84.0753209 110.683719,83.9947545 110.67786,83.915653 C110.672001,83.8365514 110.669071,83.7413365 110.669071,83.6300084 C110.827274,83.3370397 111.036747,83.1114537 111.297489,82.9532506 C111.558231,82.7950475 111.876102,82.7159459 112.251102,82.7159459 C112.725712,82.7159459 113.077274,82.8536412 113.30579,83.1290319 C113.534305,83.4044225 113.648563,83.9083287 113.648563,84.6407506 L113.648563,84.6407506 L113.648563,90.4063756 L116.214969,90.4063756 L116.214969,84.6495397 C116.214969,83.296024 115.949833,82.30286 115.419559,81.6700475 C114.889286,81.037235 114.14368,80.7208287 113.182743,80.7208287 C112.538212,80.7208287 111.985965,80.8614537 111.526005,81.1427037 C111.066044,81.4239537 110.686649,81.8253209 110.387821,82.3468053 C110.159305,81.7901647 109.832645,81.3800084 109.40784,81.1163365 C108.983036,80.8526647 108.460087,80.7208287 107.838993,80.7208287 C107.229618,80.7208287 106.699344,80.8409459 106.248172,81.0811803 C105.797001,81.3214147 105.422001,81.6671178 105.123172,82.1182897 L105.123172,82.1182897 L105.096805,82.1095006 L104.991337,80.89661 L102.609501,80.89661 L102.609501,90.4063756 L105.167118,90.4063756 Z M120.741337,90.4063756 L120.741337,83.4718053 C120.917118,83.2315709 121.130985,83.0455358 121.382938,82.9136998 C121.634891,82.7818639 121.939579,82.7159459 122.297001,82.7159459 C122.77161,82.7159459 123.124637,82.8580358 123.356083,83.1422155 C123.587528,83.4263951 123.703251,83.9259069 123.703251,84.6407506 L123.703251,84.6407506 L123.703251,90.4063756 L126.260868,90.4063756 L126.260868,84.1573522 C126.260868,84.0753209 126.257938,83.9947545 126.252079,83.915653 C126.246219,83.8365514 126.24329,83.7413365 126.24329,83.6300084 C126.401493,83.3370397 126.610965,83.1114537 126.871708,82.9532506 C127.13245,82.7950475 127.450321,82.7159459 127.825321,82.7159459 C128.29993,82.7159459 128.651493,82.8536412 128.880008,83.1290319 C129.108524,83.4044225 129.222782,83.9083287 129.222782,84.6407506 L129.222782,84.6407506 L129.222782,90.4063756 L131.789188,90.4063756 L131.789188,84.6495397 C131.789188,83.296024 131.524051,82.30286 130.993778,81.6700475 C130.463505,81.037235 129.717899,80.7208287 128.756962,80.7208287 C128.11243,80.7208287 127.560184,80.8614537 127.100223,81.1427037 C126.640262,81.4239537 126.260868,81.8253209 125.96204,82.3468053 C125.733524,81.7901647 125.406864,81.3800084 124.982059,81.1163365 C124.557255,80.8526647 124.034305,80.7208287 123.413212,80.7208287 C122.803837,80.7208287 122.273563,80.8409459 121.822391,81.0811803 C121.371219,81.3214147 120.996219,81.6671178 120.697391,82.1182897 L120.697391,82.1182897 L120.671024,82.1095006 L120.565555,80.89661 L118.183719,80.89661 L118.183719,90.4063756 L120.741337,90.4063756 Z" id="mm" fill="#000000" fill-rule="nonzero"></path>
                    </g>
                </g>
            </g>
        </g>
    </g>
</svg>