<?xml version="1.0" encoding="UTF-8"?>
<svg width="117px" height="274px" viewBox="0 0 117 274" version="1.1" xmlns="http://www.w3.org/2000/svg" xmlns:xlink="http://www.w3.org/1999/xlink">
    <title>Group 4rtrt</title>
    <g id="Mobile" stroke="none" stroke-width="1" fill="none" fill-rule="evenodd">
        <g id="Ultra-Thin-Mobile" transform="translate(-98.000000, -1594.000000)" fill-rule="nonzero">
            <g id="Group-4rtrt" transform="translate(98.548931, 1594.144282)">
                <g id="Asset-4" transform="translate(0.000000, -0.000000)">
                    <path d="M88.6064,0.245678502 L81.4464,7.4064785 L80.64,6.6008785 C80.3081064,6.26836122 79.7884719,6.21426046 79.3952,6.4712785 L73.8032,10.1224785 L72.3632,8.6824785 C72.1770872,8.49586053 71.9243607,8.39097707 71.6608,8.39097707 C71.3972393,8.39097707 71.1445128,8.49586053 70.9584,8.6824785 L57.004,22.6424785 L57.004,22.6424785 L57.004,22.6424785 L53.7552,25.8912785 L53.7552,25.8912785 L50.5056,29.1408785 L50.5056,29.1408785 L47.256,32.3912785 L47.256,32.3912785 L43.276,36.3704785 L41.8624,34.9560785 C41.4720191,34.583044 40.8551849,34.5900509 40.4733787,34.9718572 C40.0915724,35.3536634 40.0845655,35.9704976 40.4576,36.3608785 L42.5744,38.4776785 L44.0944,40.0024785 L32.9152,51.1848785 L30.4,48.6672785 C30.0096191,48.294244 29.3927849,48.3012509 29.0109787,48.6830572 C28.6291724,49.0648634 28.6221655,49.6816976 28.9952,50.0720785 L34.5912,55.6720785 L36.968,58.0488785 L36.968,58.0488785 L40.1864,61.2680785 C40.4374863,61.5191648 40.8034524,61.6172251 41.1464427,61.5253212 C41.4894329,61.4334172 41.7573387,61.1655114 41.8492427,60.8225212 C41.9411466,60.479531 41.8430863,60.1135648 41.592,59.8624785 L39.0744,57.3456785 L50.252,46.1640785 L51.776,47.6888785 L51.776,47.6888785 L53.8912,49.8040785 C54.1421434,50.0551648 54.5079775,50.1533013 54.8508962,50.0615212 C55.193815,49.969741 55.4617208,49.7019876 55.5536962,49.3591212 C55.6456716,49.0162547 55.5477434,48.6503648 55.2968,48.3992785 L53.8824,46.9848785 L81.572,19.2944785 C81.7584214,19.1082612 81.863169,18.8555739 81.863169,18.5920785 C81.863169,18.3285831 81.7584214,18.0758958 81.572,17.8896785 L80.132,16.4496785 L83.7832,10.8576785 C84.040218,10.4644066 83.9861173,9.94477209 83.6536,9.6128785 L82.8488,8.8080785 L90.0088,1.6472785 C90.3528015,1.25348151 90.3327273,0.660454162 89.9628833,0.290821154 C89.5930393,-0.078811855 89.0000006,-0.0985476963 88.6064,0.245678502 Z M37.668,55.9376785 L34.32,52.5896785 L45.4984,41.4112785 L48.8464,44.7592785 L37.668,55.9376785 Z M52.48,45.5808785 L44.6776,37.7784785 L47.9576,34.4984785 L50.556,37.0968785 C50.9439248,37.4850242 51.5730543,37.4852033 51.9612,37.0972785 C52.3493457,36.7093537 52.3495248,36.0802242 51.9616,35.6920785 L49.36,33.0968785 L51.2056,31.2512785 L52.512,32.5576785 C52.8992621,32.9464869 53.5283915,32.9477405 53.9172,32.5604785 C54.3060084,32.1732164 54.307262,31.544087 53.92,31.1552785 L52.6144,29.8488785 L54.4592,28.0040785 L57.0584,30.6024785 C57.4487809,30.975513 58.0656151,30.9685061 58.4474213,30.5866998 C58.8292276,30.2048936 58.8362345,29.5880594 58.4632,29.1976785 L55.8592,26.5952785 L57.7048,24.7552785 L59.0104,26.0616785 C59.3985457,26.4496033 60.0276752,26.4494242 60.4156,26.0612785 C60.8035248,25.6731328 60.8033457,25.0440033 60.4152,24.6560785 L59.1104,23.3504785 L60.9552,21.5048785 L63.5536,24.1032785 C63.8052579,24.3545077 64.1718285,24.4523952 64.5152283,24.3600676 C64.8586281,24.2677401 65.1266865,23.9992243 65.2184283,23.6556676 C65.3101702,23.3121109 65.2116579,22.9457077 64.96,22.6944785 L62.3616,20.0960785 L64.2072,18.2504785 L65.5128,19.5552785 C65.9007248,19.9434242 66.5298543,19.9436033 66.918,19.5556785 C67.3061457,19.1677537 67.3063248,18.5386242 66.9184,18.1504785 L65.6096,16.8448785 L67.4552,14.9992785 L70.0528,17.5976785 C70.299625,17.866054 70.6736176,17.9776783 71.0271625,17.888493 C71.3807074,17.7993078 71.6570022,17.523642 71.746993,17.1703013 C71.8369838,16.8169606 71.7262123,16.4427145 71.4584,16.1952785 L68.8608,13.5952785 L71.6648,10.7912785 L75.5664,14.6928785 L78.16,17.2880785 L78.16,17.2880785 L79.464,18.5920785 L52.48,45.5808785 Z M78.7008,15.0208785 L75.24,11.5552785 L79.8064,8.5744785 L80.7432,9.5104785 L80.7432,9.5104785 L81.6792,10.4472785 L78.7008,15.0208785 Z" id="Shape" fill="#FFFFFF"></path>
                    <polygon id="Path" fill="#FFFFFF" points="10.1152 87.2752785 7.6144 87.2752785 2.5352 78.6816785 2.5096 78.6904785 2.5096 87.2752785 0 87.2752785 0 74.7632785 2.5096 74.7632785 7.588 83.3480785 7.6144 83.3392785 7.6144 74.7632785 10.1152 74.7632785"></polygon>
                    <path d="M11.428,82.5400785 C11.3699719,81.2948267 11.7774919,80.072552 12.5712,79.1112785 C13.3974801,78.2128236 14.5839004,77.7334381 15.8024,77.8056785 C17.0274586,77.7318963 18.2211073,78.2109998 19.0552,79.1112785 C19.8512346,80.0714775 20.2603189,81.2941657 20.2024,82.5400785 L20.2024,82.7208785 C20.2636934,83.9677983 19.8558491,85.192473 19.0592,86.1536785 C18.2260633,87.0463454 17.0380455,87.5206725 15.8192,87.4472785 C14.5978412,87.5217406 13.4069412,87.0474339 12.5712,86.1536785 C11.7742051,85.192665 11.3663147,83.967852 11.428,82.7208785 L11.428,82.5400785 Z M13.9288,82.7208785 C13.89382,83.4308658 14.0449438,84.1376726 14.3672,84.7712785 C14.6685988,85.2778147 15.231623,85.5690983 15.8192,85.5224785 C16.4013169,85.563633 16.9562588,85.2704971 17.2504,84.7664785 C17.5748477,84.1352582 17.7274261,83.4297553 17.6928,82.7208785 L17.6928,82.5400785 C17.7244685,81.8353443 17.570536,81.1346478 17.2464,80.5080785 C16.9522573,79.9981151 16.393832,79.6996678 15.8064,79.7384785 C15.2201265,79.6990404 14.6633582,79.9999879 14.3752,80.5120785 C14.0546056,81.138363 13.9021628,81.8371743 13.9328,82.5400785 L13.9288,82.7208785 Z" id="Shape" fill="#FFFFFF"></path>
                    <path d="M30.7088,87.2752785 C30.6323884,87.0990415 30.5664078,86.9184631 30.5112,86.7344785 C30.453137,86.5426177 30.4071798,86.3473 30.3736,86.1496785 C30.0918736,86.5358002 29.7317416,86.8580379 29.3168,87.0952785 C28.869208,87.3388088 28.3653902,87.4602107 27.856,87.4472785 C27.0591783,87.4938426 26.2757121,87.2271368 25.6728,86.7040785 C25.1282214,86.1654323 24.840485,85.4192978 24.8824,84.6544785 C24.839502,83.8145669 25.2283729,83.0108803 25.9136,82.5232785 C26.8450751,81.9666395 27.9247,81.7086686 29.0072,81.7840785 L30.2872,81.7840785 L30.2872,81.0448785 C30.3138353,80.6633357 30.1887706,80.2867041 29.9392,79.9968785 C29.6532488,79.7362175 29.2721247,79.6056043 28.8864,79.6360785 C28.53975,79.6116799 28.1960382,79.7140258 27.9192,79.9240785 C27.6912548,80.1337466 27.5698931,80.434947 27.5888,80.7440785 L25.0888,80.7440785 C25.0884751,79.9133032 25.4903187,79.1337624 26.1672,78.6520785 C27.0034039,78.0514392 28.0189848,77.7529713 29.0472,77.8056785 C30.0256142,77.7563279 30.9906136,78.0497035 31.776,78.6352785 C32.4824126,79.2367303 32.8629802,80.1366853 32.8024,81.0624785 L32.8024,84.9024785 C32.7995158,85.3155161 32.8327086,85.7280165 32.9016,86.1352785 C32.9708604,86.5235912 33.0758397,86.9046766 33.2152,87.2736785 L30.7088,87.2752785 Z M28.5344,85.6000785 C28.8954873,85.6064294 29.2526101,85.5240164 29.5744,85.3600785 C29.862462,85.2172232 30.1100343,85.004311 30.2944,84.7408785 L30.2944,83.2032785 L29.0144,83.2032785 C28.5709406,83.1674272 28.1312049,83.3076828 27.7904,83.5936785 C27.526153,83.8485604 27.3810307,84.2026588 27.3904,84.5696785 C27.3774019,84.8528123 27.4887367,85.1274966 27.6952,85.3216785 C27.9297785,85.5170541 28.2295576,85.6165042 28.5344,85.6000785 L28.5344,85.6000785 Z" id="Shape" fill="#FFFFFF"></path>
                    <path d="M36.56,77.9768785 L36.672,79.2664785 L36.6976,79.2744785 C36.9778359,78.8273044 37.3621001,78.4545681 37.8176,78.1880785 C38.2812131,77.9276285 38.8059327,77.7956201 39.3376,77.8056785 C40.1664203,77.7539172 40.9759387,78.0699982 41.5504,78.6696785 C42.1415615,79.4773807 42.4182766,80.4727589 42.3288,81.4696785 L42.3288,87.2784785 L39.808,87.2784785 L39.808,81.4752785 C39.8564886,80.9993712 39.7245908,80.5225978 39.4384,80.1392785 C39.1230901,79.8592237 38.7065923,79.7209695 38.2864,79.7568785 C37.9750867,79.7492879 37.6667295,79.8188194 37.3888,79.9592785 C37.129201,80.0974644 36.9043528,80.2927705 36.7312,80.5304785 L36.7312,87.2760785 L34.2216,87.2760785 L34.2216,77.9768785 L36.56,77.9768785 Z" id="Path" fill="#FFFFFF"></path>
                    <path d="M49.216,87.2752785 C49.0598762,86.914753 48.9473468,86.5368797 48.8808,86.1496785 C48.5988767,86.5356218 48.2387862,86.8578224 47.824,87.0952785 C47.376449,87.3389152 46.8726022,87.4603241 46.3632,87.4472785 C45.5663667,87.4939284 44.782869,87.2272119 44.18,86.7040785 C43.6354214,86.1654323 43.347685,85.4192978 43.3896,84.6544785 C43.346702,83.8145669 43.7355729,83.0108803 44.4208,82.5232785 C45.352236,81.9665434 46.4318914,81.7085652 47.5144,81.7840785 L48.7944,81.7840785 L48.7944,81.0448785 C48.8211674,80.6631811 48.6957672,80.2864053 48.4456,79.9968785 C48.1600447,79.7360909 47.7791041,79.6054413 47.3936,79.6360785 C47.0471702,79.6114341 46.7036243,79.7138154 46.4272,79.9240785 C46.1983768,80.1331927 46.0765955,80.4347045 46.096,80.7440785 L43.6,80.7440785 C43.5996751,79.9133032 44.0015187,79.1337624 44.6784,78.6520785 C45.5146605,78.0515551 46.5301999,77.7530994 47.5584,77.8056785 C48.5365688,77.7563137 49.5013209,78.0497002 50.2864,78.6352785 C50.9933205,79.2364158 51.3742419,80.1365059 51.3136,81.0624785 L51.3136,84.9024785 C51.3107158,85.3155161 51.3439086,85.7280165 51.4128,86.1352785 C51.4820604,86.5235912 51.5870397,86.9046766 51.7264,87.2736785 L49.216,87.2752785 Z M47.04,85.6000785 C47.401077,85.6063313 47.7581764,85.5239237 48.08,85.3600785 C48.368062,85.2172232 48.6156343,85.004311 48.8,84.7408785 L48.8,83.2032785 L47.52,83.2032785 C47.0765306,83.1673397 46.6367624,83.3076057 46.296,83.5936785 C46.0314183,83.8483332 45.8862328,84.2025858 45.896,84.5696785 C45.8830019,84.8528123 45.9943367,85.1274966 46.2008,85.3216785 C46.4354177,85.5169836 46.7351683,85.6164243 47.04,85.6000785 L47.04,85.6000785 Z" id="Shape" fill="#FFFFFF"></path>
                    <path d="M56.8888,87.4472785 C55.6789127,87.5111071 54.5001314,87.050846 53.6536,86.1840785 C52.8437345,85.2841489 52.4191943,84.1024449 52.4712,82.8928785 L52.4712,82.5488785 C52.4152573,81.3065672 52.8133677,80.0863588 53.5912,79.1160785 C55.2190184,77.4468643 57.874614,77.3613936 59.6064,78.9224785 C60.3267799,79.7833199 60.6913336,80.8867098 60.6256,82.0072785 L60.6256,83.3736785 L55.0064,83.3736785 C55.0492043,83.9522613 55.2785503,84.5013442 55.66,84.9384785 C56.0504757,85.3402387 56.5957924,85.5532302 57.1552,85.5224785 C57.6228792,85.5359202 58.0900609,85.4820353 58.5424,85.3624785 C58.9588996,85.2283354 59.3609081,85.0527917 59.7424,84.8384785 L60.2928,86.4968785 C59.8606254,86.8066656 59.3780113,87.0391757 58.8664,87.1840785 C58.2239087,87.3694394 57.5574072,87.4581445 56.8888,87.4472785 L56.8888,87.4472785 Z M56.6656,79.7384785 C56.2295144,79.7192744 55.812314,79.9176844 55.552,80.2680785 C55.2570427,80.6976403 55.0781858,81.1961799 55.0328,81.7152785 L58.1688,81.7152785 L58.1688,81.4920785 C58.1948839,81.0346349 58.0660902,80.5817434 57.8032,80.2064785 C57.5208759,79.8772352 57.0978785,79.7032173 56.6656,79.7384785 L56.6656,79.7384785 Z" id="Shape" fill="#FFFFFF"></path>
                    <path d="M66.6752,84.7144785 C66.6714516,84.426607 66.5248235,84.1594381 66.284,84.0016785 C65.8255395,83.7310506 65.3197252,83.5502281 64.7936,83.4688785 C63.8974886,83.3298543 63.0433735,82.9937821 62.2928,82.4848785 C61.7407006,82.0549267 61.4326428,81.3829906 61.4672,80.6840785 C61.4591777,79.8809542 61.8285339,79.1206197 62.4648,78.6304785 C63.2439614,78.0433242 64.2059028,77.751114 65.18,77.8056785 C66.1990799,77.7477102 67.2072785,78.0404859 68.0368,78.6352785 C68.7128218,79.1448217 69.1017931,79.9489736 69.0816,80.7952785 L66.5808,80.7952785 C66.5958586,80.4550558 66.4699642,80.1236786 66.2328,79.8792785 C65.6399922,79.4375454 64.8337005,79.4154596 64.2176,79.8240785 C63.9939654,80.0068649 63.867057,80.2825217 63.8736,80.5712785 C63.8670693,80.8513138 64.0013531,81.115976 64.2312,81.2760785 C64.6923101,81.532799 65.1981436,81.6992381 65.7216,81.7664785 C66.6428864,81.9011211 67.5215372,82.2433353 68.2912,82.7672785 C68.8417013,83.2149008 69.1449806,83.8987659 69.1072,84.6072785 C69.1251138,85.4268823 68.7294377,86.2004953 68.0544,86.6656785 C67.2104871,87.2252479 66.2086986,87.4979274 65.1976,87.4432785 C64.129602,87.5084982 63.0752425,87.1762325 62.2376,86.5104785 C61.5714388,85.9757684 61.1815158,85.1694771 61.176,84.3152785 L63.548,84.3152785 C63.5248696,84.7324581 63.7034176,85.1353814 64.028,85.3984785 C64.3902638,85.6327765 64.8171381,85.7469829 65.248,85.7248785 C65.6223482,85.7500282 65.9951279,85.6568333 66.3136,85.4584785 C66.5512386,85.2867809 66.6870158,85.0074163 66.6752,84.7144785 Z" id="Path" fill="#FFFFFF"></path>
                    <path d="M73.2736,75.7000785 L73.2736,77.9768785 L74.8736,77.9768785 L74.8736,79.7368785 L73.2736,79.7368785 L73.2736,84.4640785 C73.2451604,84.7417457 73.3203824,85.0201242 73.4848,85.2456785 C73.6341152,85.3990322 73.8422431,85.480651 74.056,85.4696785 C74.1795771,85.4710571 74.3030939,85.4635712 74.4256,85.4472785 C74.5443032,85.4301845 74.6618544,85.4058728 74.7776,85.3744785 L74.984,87.1624785 C74.7483664,87.2515563 74.5056394,87.320601 74.2584,87.3688785 C73.9851058,87.4223201 73.7072702,87.4491123 73.4288,87.4488785 C72.6996972,87.5010152 71.9817791,87.2474107 71.4472,86.7488785 C70.9399483,86.1051269 70.6986083,85.291499 70.7728,84.4752785 L70.7728,79.7384785 L69.52,79.7384785 L69.52,77.9784785 L70.7744,77.9784785 L70.7744,75.7000785 L73.2736,75.7000785 Z" id="Path" fill="#FFFFFF"></path>
                    <path d="M78.2048,79.1112785 L78.2312,79.1200785 C78.5003333,78.7175939 78.861156,78.3847377 79.284,78.1488785 C80.5180998,77.5241682 82.0143188,77.7672351 82.9872,78.7504785 C83.6029199,79.6266054 83.8906621,80.6914781 83.8,81.7584785 L83.8,87.2784785 L81.2904,87.2784785 L81.2904,81.7440785 C81.3422819,81.2028548 81.2107,80.6599035 80.9168,80.2024785 C80.6212806,79.8880949 80.1989117,79.725034 79.7688,79.7592785 C79.4543502,79.7508289 79.1419722,79.8125939 78.8544,79.9400785 C78.5991025,80.0603222 78.3763461,80.2400086 78.2048,80.4640785 L78.2048,87.2784785 L75.696,87.2784785 L75.696,73.8696785 L78.2048,73.8696785 L78.2048,79.1112785 Z" id="Path" fill="#FFFFFF"></path>
                    <path d="M89.3664,87.4472785 C88.1565127,87.5111071 86.9777314,87.050846 86.1312,86.1840785 C85.3210348,85.2843281 84.8964491,84.1024974 84.9488,82.8928785 L84.9488,82.5488785 C84.8928573,81.3065672 85.2909677,80.0863588 86.0688,79.1160785 C87.6968919,77.4467632 90.3527479,77.3612955 92.0848,78.9224785 C92.8048924,79.7834388 93.1691558,80.8868163 93.1032,82.0072785 L93.1032,83.3736785 L87.4832,83.3736785 C87.5257793,83.9521665 87.7548402,84.5012389 88.136,84.9384785 C88.526901,85.3400963 89.0723873,85.5530402 89.632,85.5224785 C90.0996792,85.5359202 90.5668609,85.4820353 91.0192,85.3624785 C91.4356996,85.2283354 91.8377081,85.0527917 92.2192,84.8384785 L92.7688,86.4968785 C92.3368082,86.8069736 91.8541383,87.0395106 91.3424,87.1840785 C90.7004398,87.3693636 90.0344771,87.4580687 89.3664,87.4472785 Z M89.1424,79.7384785 C88.7065346,79.7192595 88.2895682,79.9177008 88.0296,80.2680785 C87.7347162,80.6977433 87.5556163,81.196192 87.5096,81.7152785 L90.6464,81.7152785 L90.6464,81.4920785 C90.6724839,81.0346349 90.5436902,80.5817434 90.2808,80.2064785 C89.9981473,79.877214 89.5749095,79.7032195 89.1424,79.7384785 L89.1424,79.7384785 Z" id="Shape" fill="#FFFFFF"></path>
                    <path d="M99.1528,84.7144785 C99.1490516,84.426607 99.0024235,84.1594381 98.7616,84.0016785 C98.3027714,83.7312214 97.7967293,83.5504145 97.2704,83.4688785 C96.3743723,83.329545 95.5203229,82.9934987 94.7696,82.4848785 C94.2180191,82.0545846 93.9103273,81.3827958 93.9448,80.6840785 C93.9365872,79.8810935 94.3056346,79.1207849 94.9416,78.6304785 C95.7210391,78.0432678 96.6832496,77.7510619 97.6576,77.8056785 C98.6766799,77.7477102 99.6848785,78.0404859 100.5144,78.6352785 C101.190422,79.1448217 101.579393,79.9489736 101.5592,80.7952785 L99.0584,80.7952785 C99.0731505,80.4549541 98.9469744,80.1235972 98.7096,79.8792785 C98.1171246,79.4374479 97.3109829,79.4153574 96.6952,79.8240785 C96.4715654,80.0068649 96.344657,80.2825217 96.3512,80.5712785 C96.3443438,80.8511968 96.4783443,81.1158927 96.708,81.2760785 C97.1694411,81.5326973 97.6755161,81.6991264 98.1992,81.7664785 C99.1202442,81.9011023 99.9986387,82.2433233 100.768,82.7672785 C101.319013,83.2145737 101.622652,83.8985786 101.5848,84.6072785 C101.602422,85.4268153 101.206813,86.2002979 100.532,86.6656785 C99.6878163,87.2253095 98.6857555,87.4979867 97.6744,87.4432785 C96.6063739,87.5087279 95.5519339,87.1764368 94.7144,86.5104785 C94.047963,85.975988 93.6579724,85.1695569 93.6528,84.3152785 L96.0248,84.3152785 C96.0012703,84.732531 96.1798953,85.1356282 96.5048,85.3984785 C96.8673557,85.6327887 97.2944863,85.7469888 97.7256,85.7248785 C98.0999482,85.7500282 98.4727279,85.6568333 98.7912,85.4584785 C99.0288386,85.2867809 99.1646158,85.0074163 99.1528,84.7144785 L99.1528,84.7144785 Z" id="Path" fill="#FFFFFF"></path>
                    <path d="M105.3992,75.7512785 L102.8896,75.7512785 L102.8896,73.8696785 L105.3992,73.8696785 L105.3992,75.7512785 Z M105.3992,87.2752785 L102.8896,87.2752785 L102.8896,77.9768785 L105.3992,77.9768785 L105.3992,87.2752785 Z" id="Shape" fill="#FFFFFF"></path>
                    <path d="M112.48,87.2752785 C112.323876,86.914753 112.211347,86.5368797 112.1448,86.1496785 C111.863074,86.5358002 111.502942,86.8580379 111.088,87.0952785 C110.640449,87.3389152 110.136602,87.4603241 109.6272,87.4472785 C108.830378,87.4938426 108.046912,87.2271368 107.444,86.7040785 C106.899421,86.1654323 106.611685,85.4192978 106.6536,84.6544785 C106.610702,83.8145669 106.999573,83.0108803 107.6848,82.5232785 C108.616236,81.9665434 109.695891,81.7085652 110.7784,81.7840785 L112.0584,81.7840785 L112.0584,81.0448785 C112.085167,80.6631811 111.959767,80.2864053 111.7096,79.9968785 C111.424045,79.7360909 111.043104,79.6054413 110.6576,79.6360785 C110.311186,79.6115822 109.967692,79.7139481 109.6912,79.9240785 C109.462377,80.1331927 109.340595,80.4347045 109.36,80.7440785 L106.8592,80.7440785 C106.858875,79.9133032 107.260719,79.1337624 107.9376,78.6520785 C108.77386,78.0515551 109.7894,77.7530994 110.8176,77.8056785 C111.795785,77.7561786 112.760582,78.0495787 113.5456,78.6352785 C114.252837,79.2361836 114.633829,80.1364405 114.5728,81.0624785 L114.5728,84.9024785 C114.569916,85.3155161 114.603109,85.7280165 114.672,86.1352785 C114.74126,86.5235912 114.84624,86.9046766 114.9856,87.2736785 L112.48,87.2752785 Z M110.3056,85.6000785 C110.666687,85.6064294 111.02381,85.5240164 111.3456,85.3600785 C111.633662,85.2172232 111.881234,85.004311 112.0656,84.7408785 L112.0656,83.2032785 L110.7856,83.2032785 C110.342131,83.1673397 109.902362,83.3076057 109.5616,83.5936785 C109.297018,83.8483332 109.151833,84.2025858 109.1616,84.5696785 C109.148602,84.8528123 109.259937,85.1274966 109.4664,85.3216785 C109.700605,85.5165993 109.999711,85.6160155 110.304,85.6000785 L110.3056,85.6000785 Z" id="Shape" fill="#FFFFFF"></path>
                    <path d="M33.84,97.7952785 L32.8168,97.7696785 C32.4946617,97.7553821 32.1749287,97.831298 31.8936,97.9888785 C31.6516089,98.1387029 31.4612278,98.3589531 31.348,98.6200785 L31.348,104.876079 L28.848,104.876079 L28.848,95.5768785 L31.1768,95.5768785 L31.288,96.9008785 L31.3056,96.9088785 C31.489351,96.4786187 31.7735573,96.0986711 32.1344,95.8008785 C32.4769909,95.534955 32.9008362,95.3953686 33.3344,95.4056785 C33.4725336,95.405583 33.6104933,95.4154754 33.7472,95.4352785 C33.8688656,95.4520062 33.9893671,95.4763203 34.108,95.5080785 L33.84,97.7952785 Z" id="Path" fill="#FFFFFF"></path>
                    <path d="M38.7544,105.047279 C37.544307,105.11092 36.3653543,104.650706 35.5184,103.784079 C34.7091236,102.883845 34.2849211,101.702282 34.3368,100.492879 L34.3368,100.148879 C34.2808573,98.9065672 34.6789677,97.6863588 35.4568,96.7160785 C36.2236395,95.8280467 37.3579,95.3443397 38.5296,95.4056785 C39.6268437,95.3333388 40.7012335,95.7421852 41.4728,96.5256785 C42.192246,97.3869983 42.5564224,98.4901123 42.4912,99.6104785 L42.4912,100.976879 L36.872,100.976879 C36.9148043,101.555461 37.1441503,102.104544 37.5256,102.541679 C37.9160757,102.943439 38.4613924,103.15643 39.0208,103.125679 C39.4887413,103.139086 39.9561822,103.085202 40.4088,102.965679 C40.8253129,102.831571 41.2273249,102.656025 41.6088,102.441679 L42.1592,104.100079 C41.7270254,104.409866 41.2444113,104.642376 40.7328,104.787279 C40.0898886,104.971637 39.4231147,105.059264 38.7544,105.047279 L38.7544,105.047279 Z M38.5312,97.3384785 C38.0950856,97.319132 37.6778217,97.5175721 37.4176,97.8680785 C37.122316,98.2974731 36.9434273,98.7961014 36.8984,99.3152785 L40.0344,99.3152785 L40.0344,99.0920785 C40.0603404,98.6347691 39.9318653,98.182007 39.6696,97.8064785 C39.3864777,97.4778644 38.9635858,97.3040122 38.5312,97.3384785 L38.5312,97.3384785 Z" id="Shape" fill="#FFFFFF"></path>
                    <path d="M43.1272,100.304079 C43.0618667,99.0462728 43.3874294,97.7990742 44.0592,96.7336785 C44.6667964,95.8543278 45.6861063,95.3519364 46.7536,95.4056785 C47.2246557,95.3941439 47.6902617,95.5084742 48.1024,95.7368785 C48.5077856,95.976962 48.8519958,96.3077543 49.108,96.7032785 L49.3056,95.5768785 L51.48,95.5768785 L51.48,108.450479 L48.9704,108.450479 L48.9704,104.041679 L48.9448,104.033679 C48.6906256,104.353422 48.3677025,104.611815 48,104.789679 C47.6032316,104.968988 47.1712955,105.057015 46.736,105.047279 C45.6947639,105.104312 44.6926842,104.642804 44.0592,103.814479 C43.3915646,102.836661 43.0640709,101.666398 43.1272,100.484079 L43.1272,100.304079 Z M45.628,100.484079 C45.5924998,101.155582 45.7316945,101.824819 46.032,102.426479 C46.3118392,102.896972 46.8351909,103.167029 47.3808,103.122479 C47.7088309,103.133415 48.0347133,103.06566 48.3312,102.924879 C48.5946343,102.785383 48.8156917,102.577589 48.9712,102.323279 L48.9712,98.1952785 C48.8160864,97.9307412 48.5957373,97.7103921 48.3312,97.5552785 C48.0451594,97.4008338 47.723308,97.3249254 47.3984,97.3352785 C46.8249653,97.304672 46.2899985,97.624008 46.0448,98.1432785 C45.7378817,98.8204651 45.5950794,99.5605156 45.628,100.303279 L45.628,100.484079 Z" id="Shape" fill="#FFFFFF"></path>
                    <path d="M58.68,103.698479 C58.3999529,104.117618 58.0225185,104.462662 57.58,104.704079 C57.1148098,104.941225 56.5980148,105.059153 56.076,105.047279 C55.2072953,105.099474 54.3603712,104.762639 53.7648,104.128079 C53.1474864,103.278666 52.857454,102.235004 52.948,101.188879 L52.948,95.5768785 L55.4488,95.5768785 L55.4488,101.205679 C55.4024341,101.717387 55.5198114,102.230597 55.784,102.671279 C56.0370703,102.968563 56.4171331,103.126773 56.8064,103.096879 C57.1596654,103.107206 57.511112,103.042588 57.8376,102.907279 C58.1177103,102.782473 58.3605805,102.587019 58.5424,102.340079 L58.5424,95.5768785 L61.052,95.5768785 L61.052,104.875279 L58.8432,104.875279 L58.68,103.698479 Z" id="Path" fill="#FFFFFF"></path>
                    <path d="M65.1408,93.3512785 L62.632,93.3512785 L62.632,91.4696785 L65.1408,91.4696785 L65.1408,93.3512785 Z M65.1408,104.875279 L62.632,104.875279 L62.632,95.5768785 L65.1408,95.5768785 L65.1408,104.875279 Z" id="Shape" fill="#FFFFFF"></path>
                    <path d="M71.76,97.7952785 L70.7376,97.7696785 C70.4151971,97.7552746 70.0951781,97.8311925 69.8136,97.9888785 C69.5716089,98.1387029 69.3812278,98.3589531 69.268,98.6200785 L69.268,104.876079 L66.7632,104.876079 L66.7632,95.5768785 L69.092,95.5768785 L69.2032,96.9008785 L69.2208,96.9088785 C69.4042606,96.4782358 69.6888326,96.0981662 70.0504,95.8008785 C70.3928343,95.5346608 70.8167874,95.3950389 71.2504,95.4056785 C71.3885336,95.405583 71.5264933,95.4154754 71.6632,95.4352785 C71.7848794,95.4519252 71.9053859,95.4762402 72.024,95.5080785 L71.76,97.7952785 Z" id="Path" fill="#FFFFFF"></path>
                    <path d="M76.6696,105.047279 C75.4597296,105.111002 74.2809902,104.650757 73.4344,103.784079 C72.6248244,102.884024 72.2005765,101.702334 72.2528,100.492879 L72.2528,100.148879 C72.1968573,98.9065672 72.5949677,97.6863588 73.3728,96.7160785 C75.0008919,95.0467632 77.6567479,94.9612955 79.3888,96.5224785 C80.108533,97.3836387 80.472748,98.4868697 80.4072,99.6072785 L80.4072,100.973679 L74.788,100.973679 C74.8305793,101.552166 75.0596402,102.101239 75.4408,102.538479 C75.8312757,102.940239 76.3765924,103.15323 76.936,103.122479 C77.4039461,103.135997 77.8714028,103.082112 78.324,102.962479 C78.7404996,102.828335 79.1425081,102.652792 79.524,102.438479 L80.0736,104.096879 C79.6415166,104.406819 79.1588747,104.639343 78.6472,104.784079 C78.0047087,104.969439 77.3382072,105.058144 76.6696,105.047279 Z M76.4464,97.3384785 C76.0105057,97.3191168 75.5934757,97.5175884 75.3336,97.8680785 C75.0383589,98.2975603 74.8592242,98.7961057 74.8136,99.3152785 L77.9504,99.3152785 L77.9504,99.0920785 C77.9764839,98.6346349 77.8476902,98.1817434 77.5848,97.8064785 C77.3021473,97.477214 76.8789095,97.3032195 76.4464,97.3384785 L76.4464,97.3384785 Z" id="Shape" fill="#FFFFFF"></path>
                    <path d="M81.04,100.304079 C80.9750356,99.0463105 81.3005696,97.7992216 81.972,96.7336785 C82.5799086,95.8546896 83.5990031,95.3524043 84.6664,95.4056785 C85.1020914,95.396345 85.5333174,95.495013 85.9216,95.6928785 C86.297512,95.8984495 86.6231885,96.1847825 86.8752,96.5312785 L86.9008,96.5224785 L86.9008,91.4696785 L89.4192,91.4696785 L89.4192,104.875279 L87.236,104.875279 L87.0472,103.749679 C86.7826966,104.148379 86.4298224,104.480722 86.016,104.720879 C85.5963498,104.945817 85.1256073,105.058266 84.6496,105.047279 C83.6081684,105.104157 82.605917,104.642708 81.972,103.814479 C81.3047461,102.836483 80.9772891,101.666352 81.04,100.484079 L81.04,100.304079 Z M83.5408,100.484079 C83.5037766,101.149599 83.6416846,101.813212 83.9408,102.408879 C84.2239475,102.875426 84.7465072,103.141817 85.2904,103.096879 C85.6212938,103.106354 85.9492453,103.032344 86.244,102.881679 C86.5155651,102.731429 86.7412027,102.510215 86.8968,102.241679 L86.8968,98.2880785 C86.7413475,98.0071023 86.5166299,97.770543 86.244,97.6008785 C85.9600572,97.4354906 85.6356884,97.3523901 85.3072,97.3608785 C84.7358661,97.3289769 84.2017113,97.6448579 83.9544,98.1608785 C83.6475702,98.8324524 83.504451,99.5672407 83.5368,100.304879 L83.5408,100.484079 Z" id="Shape" fill="#FFFFFF"></path>
                    <path d="M57.1696,56.3792785 C42.5994195,56.3775112 30.7892219,44.564926 30.7904001,29.9947454 C30.7915782,15.4245649 42.6036859,3.6138897 57.1738665,3.61447872 C71.7440471,3.61506773 83.5552,15.4266979 83.5552,29.9968785 C83.5388841,44.5619612 71.7346846,56.3647292 57.1696,56.3792785 Z M40.916,18.7072785 C35.4380888,26.5709348 36.3834586,37.2299513 43.1598613,44.0067476 C49.936264,50.783544 60.5952255,51.7295329 68.4592,46.2520785 L40.916,18.7072785 Z M73.156,41.6496785 C78.9190955,33.779616 78.082018,22.8826707 71.1845129,15.9851656 C64.2870078,9.08766052 53.3900625,8.25058298 45.52,14.0136785 L73.156,41.6496785 Z" id="Shape" fill="#4C4B4B"></path>
                    <path d="M57.1704,5.2144785 C70.8573416,5.2144785 81.9528,16.3099369 81.9528,29.9968785 C81.9528,43.6838201 70.8573416,54.7792785 57.1704,54.7792785 C43.4834584,54.7792785 32.388,43.6838201 32.388,29.9968785 C32.4051899,16.3170635 43.490585,5.23166837 57.1704,5.2144785 M73.2848,44.0440785 C80.6804308,35.5738565 80.2490844,22.8219962 72.2979834,14.8708951 C64.3468823,6.91979411 51.595022,6.48844769 43.1248,13.8840785 L73.2848,44.0440785 M57.1704,51.4040874 C62.1855415,51.4064657 67.0405916,49.6386235 70.88,46.4120785 L40.7552,16.2840785 C35.4181641,22.6560435 34.2562633,31.5430606 37.7757529,39.07294 C41.2952425,46.6028193 48.8586112,51.4116177 57.1704,51.4040874 M57.1704,2.0160785 C41.7164597,2.01740396 29.1895164,14.546138 29.1904,30.0000784 C29.1912837,45.4540187 41.7196596,57.9808784 57.1735999,57.9808784 C72.6275403,57.9808784 85.1552,45.4524189 85.1552,29.9984785 C85.1384446,14.5499754 72.6189035,2.03079231 57.1704,2.0144785 L57.1704,2.0160785 Z M48.0368,14.2752785 C55.167809,10.1165148 64.2058961,11.2858644 70.0436939,17.1225349 C75.8814916,22.9592054 77.0525865,31.9970665 72.8952,39.1288785 L48.0368,14.2752785 Z M57.1704,48.2024914 C50.7393576,48.210123 44.7825777,44.8202864 41.5044741,39.287439 C38.2263704,33.7545915 38.1145523,26.9017297 41.2104,21.2648785 L65.9016,45.9552785 C63.2261443,47.4256226 60.223262,48.1979417 57.1704,48.2008785 L57.1704,48.2024914 Z" id="Shape" fill="#000000"></path>
                </g>
                <g id="Asset-3" transform="translate(0.000000, 161.263873)">
                    <path d="M86.837052,2.46985016 C86.515661,1.98918971 85.866061,1.85898354 85.384252,2.17865016 L82.679452,3.98185016 L80.346652,0.481050159 C80.1421158,0.162783195 79.7818179,-0.0204171734 79.404148,0.00181594923 C79.0264781,0.0240490719 78.690164,0.248258418 78.5243835,0.588325625 C78.3586029,0.928392833 78.3891348,1.33143719 78.604252,1.64265016 L80.936252,5.14345016 L78.230652,6.94665016 C77.9993253,7.10044752 77.8386454,7.33991466 77.7840226,7.61227843 C77.7293998,7.88464219 77.7853172,8.16754813 77.939452,8.39865016 L79.025852,10.0290502 L62.757052,18.5746502 C62.6633774,18.6236095 62.577834,18.6867551 62.503452,18.7618502 L32.766652,48.4946502 L31.188252,50.0722502 L31.188252,50.0722502 L29.727452,51.5346502 C28.2270284,53.0352072 27.7782841,55.2918548 28.590475,57.2522854 C29.4026659,59.2127161 31.3158382,60.4906729 33.437852,60.4906729 L33.437852,60.4906729 C34.8299249,60.4947608 36.165757,59.941645 37.147452,58.9546502 L39.012252,57.0906502 L42.088252,54.0146502 L42.088252,54.0146502 L69.288252,26.8146502 L83.498652,16.7442502 L83.587452,16.8770502 C84.1567787,17.732051 85.0424573,18.3258463 86.0496208,18.5277891 C87.0567844,18.7297319 88.1029182,18.5232776 88.957852,17.9538502 L91.409852,16.3210502 C93.1878745,15.1333353 93.6688782,12.7304641 92.485052,10.9498502 L86.837052,2.46985016 Z M72.269052,22.1330502 L69.201852,17.5538502 L70.801852,16.7130502 L71.715452,16.2330502 L74.573052,20.4994502 L72.269052,22.1330502 Z M62.502652,30.6354502 L58.045852,26.1786502 L60.045852,24.1786502 L64.502652,28.6354502 L62.502652,30.6354502 Z M61.021852,32.1170502 L41.345852,51.7970502 L36.888252,47.3354502 L56.568252,27.6602502 L61.021852,32.1170502 Z M38.179452,54.9594502 L37.867452,55.2706502 L33.410652,50.8146502 L34.408252,49.8154502 L35.408252,48.8146502 L39.865852,53.2706502 L38.179452,54.9594502 Z M33.437852,58.3946603 C32.1631653,58.3951074 31.013747,57.6275817 30.5256722,56.4500379 C30.0375975,55.2724941 30.3070073,53.9168847 31.208252,53.0154502 L31.928252,52.2954502 L36.385852,56.7522502 L35.665852,57.4722502 C35.0760053,58.064674 34.2738428,58.3967722 33.437852,58.3946603 L33.437852,58.3946603 Z M68.008252,25.1562502 C67.9598183,25.1899184 67.9145633,25.2279433 67.873052,25.2698502 L65.985052,27.1578502 L61.528252,22.7010502 L63.876252,20.3530502 L67.340252,18.5338502 L70.564252,23.3450502 L68.008252,25.1562502 Z M76.287452,19.2882502 L73.585052,15.2538502 L80.197052,11.7818502 L82.339452,14.9986502 L76.287452,19.2882502 Z M90.248252,14.5746502 L87.796252,16.2066502 C86.9739506,16.7266313 85.8882112,16.5089903 85.329852,15.7122502 L84.645852,14.6842502 L84.645852,14.6842502 L81.415452,9.83385016 L81.415452,9.83385016 L80.265852,8.10825016 L85.677052,4.50265016 L90.744252,12.1106502 C91.2860978,12.9283459 91.0642774,14.0302922 90.248252,14.5746502 L90.248252,14.5746502 Z" id="Shape" fill="#FFFFFF"></path>
                    <polygon id="Path" fill="#FFFFFF" points="10.968252 78.0226502 14.168252 87.2866502 14.193852 87.2866502 17.417052 78.0226502 20.697052 78.0226502 20.697052 90.5346502 18.193052 90.5346502 18.193052 86.8050502 18.442652 81.1938502 18.417052 81.1850502 15.030652 90.5346502 13.346652 90.5346502 9.97785199 81.2194502 9.95225199 81.2282502 10.201052 86.8050502 10.201052 90.5346502 7.68825199 90.5346502 7.68825199 78.0226502"></polygon>
                    <path d="M25.041052,79.0106502 L22.531452,79.0106502 L22.531452,77.1290502 L25.041052,77.1290502 L25.041052,79.0106502 Z M25.041052,90.5346502 L22.531452,90.5346502 L22.531452,81.2362502 L25.041052,81.2362502 L25.041052,90.5346502 Z" id="Shape" fill="#FFFFFF"></path>
                    <path d="M28.957852,81.2362502 L29.069052,82.5258502 L29.094652,82.5338502 C29.3747387,82.0865554 29.759036,81.713787 30.214652,81.4474502 C30.676939,81.187231 31.20024,81.0549559 31.730652,81.0642502 C32.5598184,81.0127864 33.3695638,81.3291344 33.944252,81.9290502 C34.5347952,82.7370242 34.8111875,83.7322641 34.721852,84.7290502 L34.721852,90.5378502 L32.205852,90.5378502 L32.205852,84.7346502 C32.2546578,84.2587161 32.1227286,83.7818294 31.836252,83.3986502 C31.5212359,83.1186385 31.104998,82.9803746 30.685052,83.0162502 C30.3737321,83.008593 30.0653589,83.0781281 29.787452,83.2186502 C29.5276106,83.3568059 29.3024951,83.5521065 29.129052,83.7898502 L29.129052,90.5354502 L26.620252,90.5354502 L26.620252,81.2362502 L28.957852,81.2362502 Z" id="Path" fill="#FFFFFF"></path>
                    <path d="M38.795452,79.0106502 L36.286652,79.0106502 L36.286652,77.1290502 L38.795452,77.1290502 L38.795452,79.0106502 Z M38.795452,90.5346502 L36.286652,90.5346502 L36.286652,81.2362502 L38.795452,81.2362502 L38.795452,90.5346502 Z" id="Shape" fill="#FFFFFF"></path>
                    <path d="M42.747452,81.2362502 L42.850652,82.4226502 L42.876252,82.4314502 C43.1511915,82.0056984 43.5296685,81.6566738 43.976252,81.4170502 C44.4574394,81.1724822 44.9918356,81.0512534 45.531452,81.0642502 C46.0689197,81.046275 46.6005326,81.1804955 47.065052,81.4514502 C47.5052929,81.7383333 47.8418043,82.1589725 48.025052,82.6514502 C48.289495,82.1704442 48.6725668,81.7650656 49.137852,81.4738502 C49.6286622,81.1875571 50.1898854,81.0445491 50.757852,81.0610502 C51.5911653,81.0153333 52.3986262,81.358349 52.944252,81.9898502 C53.5318472,82.8419715 53.8068403,83.8710052 53.722652,84.9026502 L53.722652,90.5314502 L51.212252,90.5314502 L51.212252,84.8946502 C51.263525,84.3785563 51.1458981,83.8597629 50.877052,83.4162502 C50.6131318,83.1314164 50.2328107,82.9838908 49.845852,83.0162502 C49.5197205,83.006019 49.1971281,83.0863209 48.913852,83.2482502 C48.6526114,83.4089486 48.4399642,83.6376342 48.298652,83.9098502 C48.298652,84.0186502 48.298652,84.1122502 48.307452,84.1890502 C48.316252,84.2658502 48.316252,84.3490502 48.316252,84.4290502 L48.316252,90.5386502 L45.815452,90.5386502 L45.815452,84.8946502 C45.8637001,84.3820462 45.7447005,83.8675975 45.476252,83.4282502 C45.2135936,83.1347502 44.8288666,82.9808594 44.436252,83.0122502 C44.127207,83.0036342 43.8206517,83.0697755 43.542652,83.2050502 C43.2941922,83.3363001 43.0795141,83.523322 42.915452,83.7514502 L42.915452,90.5314502 L40.418652,90.5314502 L40.418652,81.2362502 L42.747452,81.2362502 Z" id="Path" fill="#FFFFFF"></path>
                    <path d="M60.663452,90.5346502 C60.5877388,90.3581352 60.5217729,90.1775969 60.465852,89.9938502 C60.4081655,89.8018884 60.3622139,89.6065942 60.328252,89.4090502 C60.0465256,89.7951718 59.6863936,90.1174095 59.271452,90.3546502 C58.823901,90.5982869 58.3200542,90.7196957 57.810652,90.7066502 C57.0138536,90.7530428 56.2304502,90.4863584 55.627452,89.9634502 C55.0828734,89.424804 54.795137,88.6786695 54.837052,87.9138502 C54.794154,87.0739385 55.1830249,86.270252 55.868252,85.7826502 C56.7997662,85.2261073 57.8793605,84.9681437 58.961852,85.0434502 L60.241852,85.0434502 L60.241852,84.3042502 C60.2686194,83.9225528 60.1432192,83.5457769 59.893052,83.2562502 C59.6074966,82.9954626 59.2265561,82.864813 58.841052,82.8954502 C58.4946384,82.8709538 58.1511437,82.9733198 57.874652,83.1834502 C57.646121,83.3927672 57.5243985,83.6941332 57.543452,84.0034502 L55.043452,84.0034502 C55.0430437,83.1724643 55.4452598,82.3927791 56.122652,81.9114502 C56.9586964,81.3104112 57.9743277,81.0116463 59.002652,81.0642502 C59.9809342,81.0149797 60.9457407,81.3086657 61.730652,81.8946502 C62.4378888,82.4955552 62.8188809,83.3958122 62.757852,84.3218502 L62.757852,88.1618502 C62.7549678,88.5748877 62.7881605,88.9873882 62.857052,89.3946502 C62.9263124,89.7829628 63.0312917,90.1640482 63.170652,90.5330502 L60.663452,90.5346502 Z M58.488252,88.8594502 C58.8477251,88.865047 59.2031135,88.782654 59.523452,88.6194502 C59.811514,88.4765948 60.0590863,88.2636826 60.243452,88.0002502 L60.243452,86.4626502 L58.963452,86.4626502 C58.5199826,86.4267114 58.0802144,86.5669773 57.739452,86.8530502 C57.4748703,87.1077048 57.3296848,87.4619575 57.339452,87.8290502 C57.3264539,88.112184 57.4377887,88.3868682 57.644252,88.5810502 C57.8801456,88.7774421 58.1818055,88.876947 58.488252,88.8594502 L58.488252,88.8594502 Z" id="Shape" fill="#FFFFFF"></path>
                    <polygon id="Path" fill="#FFFFFF" points="66.857852 90.5346502 64.349052 90.5346502 64.349052 77.1290502 66.857852 77.1290502"></polygon>
                    <path d="M72.036252,85.7994502 C71.97861,84.5542518 72.3860848,83.3321126 73.179452,82.3706502 C74.9898496,80.6288246 77.8530544,80.6288246 79.663452,82.3706502 C80.4582817,83.3313883 80.8664526,84.5539042 80.808252,85.7994502 L80.808252,85.9802502 C80.8695454,87.22717 80.4617011,88.4518446 79.665052,89.4130502 C77.8462696,91.1378192 74.9958344,91.1378192 73.177052,89.4130502 C72.3804029,88.4518446 71.9725585,87.22717 72.033852,85.9802502 L72.036252,85.7994502 Z M74.537052,85.9802502 C74.502072,86.6902374 74.6531958,87.3970442 74.975452,88.0306502 C75.2769859,88.537043 75.839914,88.8282768 76.427452,88.7818502 C77.0095689,88.8230047 77.5645108,88.5298687 77.858652,88.0258502 C78.1830997,87.3946299 78.3356781,86.689127 78.301052,85.9802502 L78.301052,85.7994502 C78.3327205,85.0947159 78.178788,84.3940195 77.854652,83.7674502 C77.5601355,83.2558448 76.9995644,82.9570806 76.410652,82.9978502 C75.8244215,82.9586097 75.267752,83.2595038 74.979452,83.7714502 C74.6592391,84.3978712 74.5068185,85.0965806 74.537052,85.7994502 L74.537052,85.9802502 Z" id="Shape" fill="#FFFFFF"></path>
                    <path d="M86.910652,83.4546502 L85.888252,83.4290502 C85.5658491,83.4146462 85.2458301,83.4905642 84.964252,83.6482502 C84.7222609,83.7980745 84.5318798,84.0183248 84.418652,84.2794502 L84.418652,90.5354502 L81.917852,90.5354502 L81.917852,81.2362502 L84.248252,81.2362502 L84.360252,82.5602502 L84.377052,82.5682502 C84.5605126,82.1376074 84.8450846,81.7575379 85.206652,81.4602502 C85.5484753,81.1923738 85.9724675,81.0510431 86.406652,81.0602502 C86.5448047,81.0604251 86.6827641,81.0705849 86.819452,81.0906502 C86.9411314,81.1072968 87.0616379,81.1316119 87.180252,81.1634502 L86.910652,83.4546502 Z" id="Path" fill="#FFFFFF"></path>
                    <path d="M94.109052,81.2362502 L94.221052,82.5258502 L94.246652,82.5338502 C94.5271601,82.0868963 94.911364,81.7142185 95.366652,81.4474502 C95.8302882,81.1869748 96.3549426,81.0547067 96.886652,81.0642502 C97.7153767,81.0126028 98.5247072,81.3290173 99.098652,81.9290502 C99.6902165,82.7365569 99.9669747,83.73209 99.877052,84.7290502 L99.877052,90.5378502 L97.359452,90.5378502 L97.359452,84.7346502 C97.4079406,84.2587429 97.2760428,83.7819695 96.989852,83.3986502 C96.6745421,83.1185953 96.2580443,82.9803412 95.837852,83.0162502 C95.5262827,83.0086599 95.2176666,83.0781879 94.939452,83.2186502 C94.6802537,83.3570963 94.4557202,83.5523665 94.282652,83.7898502 L94.282652,90.5354502 L91.768252,90.5354502 L91.768252,81.2362502 L94.109052,81.2362502 Z" id="Path" fill="#FFFFFF"></path>
                    <path d="M100.922652,85.7994502 C100.864709,84.5543451 101.271904,83.3321907 102.065052,82.3706502 C103.875719,80.628725 106.739185,80.628725 108.549852,82.3706502 C109.345257,83.3311558 109.754006,84.5536957 109.696252,85.7994502 L109.696252,85.9802502 C109.757847,87.227076 109.350283,88.4517663 108.553852,89.4130502 C106.734801,91.1379216 103.884103,91.1379216 102.065052,89.4130502 C101.268621,88.4517663 100.861057,87.227076 100.922652,85.9802502 L100.922652,85.7994502 Z M103.423452,85.9802502 C103.388225,86.6901665 103.539072,87.3969695 103.861052,88.0306502 C104.162987,88.5370292 104.726114,88.8282055 105.313852,88.7818502 C105.895928,88.8228118 106.450774,88.5297265 106.745052,88.0258502 C107.069143,87.3945022 107.221701,86.6890959 107.187452,85.9802502 L107.187452,85.7994502 C107.218912,85.0946413 107.0647,84.3939312 106.740252,83.7674502 C106.446384,83.2572028 105.887767,82.958653 105.300252,82.9978502 C104.714021,82.9586097 104.157352,83.2595038 103.869052,83.7714502 C103.549116,84.3979455 103.396972,85.0966511 103.427452,85.7994502 L103.423452,85.9802502 Z" id="Shape" fill="#FFFFFF"></path>
                    <path d="M0.00825198926,103.56345 C-0.0572656382,102.305516 0.268611113,101.058185 0.941051989,99.9930502 C1.54810132,99.1134043 2.56721892,98.6106558 3.63465199,98.6642502 C4.07038363,98.6554297 4.50154947,98.7543587 4.88985199,98.9522502 C5.265764,99.1578211 5.59144049,99.4441542 5.84345199,99.7906502 L5.86905199,99.7818502 L5.86905199,94.7290502 L8.38745199,94.7290502 L8.38745199,108.13465 L6.20425199,108.13465 L6.01545199,107.00905 C5.75072797,107.407565 5.39790185,107.739862 4.98425199,107.98025 C4.56456269,108.205086 4.09384765,108.317528 3.61785199,108.30665 C2.5765619,108.363967 1.57435603,107.902401 0.941051989,107.07385 C0.272806606,106.096284 -0.0550021686,104.9259 0.00825198926,103.74345 L0.00825198926,103.56345 Z M2.50905199,103.74345 C2.47202859,104.408971 2.60993657,105.072584 2.90905199,105.66825 C3.19206661,106.134525 3.7142362,106.400875 4.25785199,106.35625 C4.58900147,106.365722 4.91721096,106.291717 5.21225199,106.14105 C5.48364818,105.990574 5.70923152,105.769414 5.86505199,105.50105 L5.86505199,101.54745 C5.70936959,101.266643 5.48470173,101.030136 5.21225199,100.86025 C4.92827697,100.694941 4.60393079,100.611846 4.27545199,100.62025 C3.70394178,100.588456 3.16961,100.904255 2.92185199,101.42025 C2.61532621,102.0919 2.47248311,102.826679 2.50505199,103.56425 L2.50905199,103.74345 Z" id="Shape" fill="#FFFFFF"></path>
                    <path d="M14.882652,101.05465 L13.859452,101.02905 C13.5373137,101.014754 13.2175807,101.09067 12.936252,101.24825 C12.6942609,101.398075 12.5038798,101.618325 12.390652,101.87945 L12.390652,108.13545 L9.88985199,108.13545 L9.88985199,98.8362502 L12.218652,98.8362502 L12.329852,100.16025 L12.347452,100.16825 C12.531203,99.7379904 12.8154093,99.3580428 13.176252,99.0602502 C13.5182333,98.792668 13.9421176,98.6513732 14.376252,98.6602502 C14.5144047,98.6604251 14.6523641,98.6705849 14.789052,98.6906502 C14.9107176,98.7073779 15.0312191,98.7316919 15.149852,98.7634502 L14.882652,101.05465 Z" id="Path" fill="#FFFFFF"></path>
                    <path d="M18.481052,96.6106502 L15.972252,96.6106502 L15.972252,94.7290502 L18.481052,94.7290502 L18.481052,96.6106502 Z M18.481052,108.13465 L15.972252,108.13465 L15.972252,98.8362502 L18.481052,98.8362502 L18.481052,108.13465 Z" id="Shape" fill="#FFFFFF"></path>
                    <polygon id="Path" fill="#FFFFFF" points="22.741852 108.13465 20.233052 108.13465 20.233052 94.7290502 22.741852 94.7290502"></polygon>
                    <polygon id="Path" fill="#FFFFFF" points="27.002652 108.13465 24.493052 108.13465 24.493052 94.7290502 27.002652 94.7290502"></polygon>
                    <path d="M31.263452,96.6106502 L28.754652,96.6106502 L28.754652,94.7290502 L31.263452,94.7290502 L31.263452,96.6106502 Z M31.263452,108.13465 L28.754652,108.13465 L28.754652,98.8362502 L31.263452,98.8362502 L31.263452,108.13465 Z" id="Shape" fill="#FFFFFF"></path>
                    <path d="M35.181052,98.8362502 L35.292252,100.12585 L35.318652,100.13385 C35.598589,99.6864344 35.9829196,99.3136337 36.438652,99.0474502 C36.9022594,98.7869025 37.4269337,98.6546293 37.958652,98.6642502 C38.7873247,98.6129348 39.5965202,98.9292966 40.170652,99.5290502 C40.7622165,100.336557 41.0389747,101.33209 40.949052,102.32905 L40.949052,108.13785 L38.429052,108.13785 L38.429052,102.33465 C38.4778578,101.858716 38.3459286,101.381829 38.059452,100.99865 C37.7443877,100.718722 37.3281867,100.58047 36.908252,100.61625 C36.5964753,100.60709 36.2872793,100.67525 36.008252,100.81465 C35.7488953,100.952866 35.5243143,101.148178 35.351452,101.38585 L35.351452,108.13145 L32.843452,108.13145 L32.843452,98.8362502 L35.181052,98.8362502 Z" id="Path" fill="#FFFFFF"></path>
                    <path d="M41.993052,103.56345 C41.9278092,102.304338 42.2569642,101.056234 42.934652,99.9930502 C43.5466449,99.1140192 44.5680418,98.6119357 45.637852,98.6642502 C46.1194209,98.6516824 46.5955094,98.7688394 47.016252,99.0034502 C47.4267321,99.2537236 47.7727975,99.596775 48.026652,100.00505 L48.206652,98.8362502 L50.389852,98.8362502 L50.389852,107.86025 C50.4484703,108.963692 50.0266025,110.038492 49.233052,110.80745 C48.3366805,111.568788 47.1805092,111.953796 46.006652,111.88185 C45.4890468,111.878716 44.9737631,111.812358 44.472252,111.68425 C43.9563251,111.557446 43.45636,111.37281 42.981852,111.13385 L43.445852,109.42425 C43.8217514,109.602281 44.2129344,109.746062 44.614652,109.85385 C45.0216801,109.959071 45.4406523,110.010972 45.861052,110.00825 C46.425314,110.052211 46.9798339,109.842543 47.373852,109.43625 C47.7287001,108.986972 47.906075,108.42296 47.872252,107.85145 L47.872252,107.27545 L47.845852,107.26665 C47.5940574,107.596449 47.2685801,107.862748 46.895452,108.04425 C46.4959842,108.227035 46.060236,108.316756 45.621052,108.30665 C44.5756712,108.364161 43.5690475,107.903041 42.929852,107.07385 C42.2595371,106.097084 41.9302475,104.926433 41.993052,103.74345 L41.993052,103.56345 Z M44.503452,103.74345 C44.4668395,104.40894 44.6047258,105.072448 44.903452,105.66825 C45.1867322,106.13507 45.7096821,106.401502 46.253852,106.35625 C46.5901668,106.367707 46.924321,106.298297 47.228252,106.15385 C47.4949538,106.013082 47.7167202,105.800187 47.868252,105.53945 L47.868252,101.50025 C47.7159667,101.228951 47.4953212,101.002238 47.228252,100.84265 C46.9341958,100.682775 46.6027752,100.604338 46.268252,100.61545 C45.6965117,100.583544 45.1618897,100.899328 44.913852,101.41545 C44.6083856,102.087418 44.4658541,102.822004 44.497852,103.55945 L44.503452,103.74345 Z" id="Shape" fill="#FFFFFF"></path>
                    <path d="M60.808252,101.05465 L59.785852,101.02905 C59.4634491,101.014646 59.1434301,101.090564 58.861852,101.24825 C58.6198609,101.398075 58.4294798,101.618325 58.316252,101.87945 L58.316252,108.13545 L55.817852,108.13545 L55.817852,98.8362502 L58.146652,98.8362502 L58.257852,100.16025 L58.275452,100.16825 C58.4589126,99.7376074 58.7434846,99.3575379 59.105052,99.0602502 C59.4468753,98.7923738 59.8708675,98.6510431 60.305052,98.6602502 C60.4432047,98.6604251 60.5811641,98.6705849 60.717852,98.6906502 C60.8395314,98.7072968 60.9600379,98.7316119 61.078652,98.7634502 L60.808252,101.05465 Z" id="Path" fill="#FFFFFF"></path>
                    <path d="M65.725052,108.30665 C64.5151647,108.370479 63.3363834,107.910218 62.489852,107.04345 C61.6796868,106.1437 61.2551011,104.961869 61.307452,103.75225 L61.307452,103.40825 C61.2515093,102.165939 61.6496197,100.94573 62.427452,99.9754502 C64.0550046,98.3049114 66.7118594,98.2194115 68.443452,99.7818502 C69.1635444,100.64281 69.5278078,101.746188 69.461852,102.86665 L69.461852,104.23305 L63.842652,104.23305 C63.8852313,104.811538 64.1142922,105.360611 64.495452,105.79785 C64.886353,106.199468 65.4318392,106.412412 65.991452,106.38185 C66.4591312,106.395292 66.9263129,106.341407 67.378652,106.22185 C67.7951515,106.087707 68.1971601,105.912163 68.578652,105.69785 L69.128252,107.35625 C68.6962602,107.666345 68.2135903,107.898882 67.701852,108.04345 C67.0596348,108.228814 66.3933966,108.31752 65.725052,108.30665 Z M65.501052,100.59785 C65.0651866,100.578631 64.6482201,100.777072 64.388252,101.12745 C64.0933682,101.557115 63.9142683,102.055564 63.868252,102.57465 L67.005052,102.57465 L67.005052,102.35145 C67.0311359,101.894007 66.9023422,101.441115 66.639452,101.06585 C66.3567993,100.736586 65.9335615,100.562591 65.501052,100.59785 Z" id="Shape" fill="#FFFFFF"></path>
                    <path d="M70.097052,103.56345 C70.0320876,102.305682 70.3576216,101.058593 71.029052,99.9930502 C71.6370317,99.1136288 72.6564558,98.6110275 73.724252,98.6642502 C74.1953807,98.6529598 74.6609914,98.7675674 75.073052,98.9962502 C75.4782786,99.2365427 75.8224452,99.5672932 76.078652,99.9626502 L76.276252,98.8362502 L78.450652,98.8362502 L78.450652,111.70985 L75.941052,111.70985 L75.941052,107.30105 L75.915452,107.29305 C75.6610486,107.612888 75.3378436,107.871288 74.969852,108.04905 C74.5733958,108.228451 74.1416983,108.316485 73.706652,108.30665 C72.6652204,108.363529 71.6629689,107.90208 71.029052,107.07385 C70.3617981,106.095855 70.0343411,104.925723 70.097052,103.74345 L70.097052,103.56345 Z M72.597852,103.74345 C72.5623518,104.414954 72.7015465,105.084191 73.001852,105.68585 C73.2820935,106.156329 73.8056432,106.426328 74.351452,106.38185 C74.6792252,106.392783 75.0048474,106.325025 75.301052,106.18425 C75.5644171,106.044658 75.7854515,105.836886 75.941052,105.58265 L75.941052,101.45465 C75.7858815,101.190157 75.5655453,100.969821 75.301052,100.81465 C75.0150114,100.660205 74.69316,100.584297 74.368252,100.59465 C73.7950466,100.564155 73.2603697,100.883507 73.015452,101.40265 C72.70823,102.079761 72.5651517,102.819821 72.597852,103.56265 L72.597852,103.74345 Z" id="Shape" fill="#FFFFFF"></path>
                    <path d="M85.650652,106.95785 C85.3706049,107.37699 84.9931704,107.722034 84.550652,107.96345 C84.0854617,108.200597 83.5686668,108.318525 83.046652,108.30665 C82.1777284,108.35875 81.330599,108.02195 80.734652,107.38745 C80.1180161,106.537739 79.828312,105.494237 79.918652,104.44825 L79.918652,98.8362502 L82.419452,98.8362502 L82.419452,104.46505 C82.3726942,104.976785 82.490099,105.490116 82.754652,105.93065 C83.0077223,106.227934 83.3877851,106.386145 83.777052,106.35625 C84.1303119,106.366505 84.4817433,106.30189 84.808252,106.16665 C85.0883623,106.041845 85.3312325,105.846391 85.513052,105.59945 L85.513052,98.8362502 L88.022652,98.8362502 L88.022652,108.13465 L85.813852,108.13465 L85.650652,106.95785 Z" id="Path" fill="#FFFFFF"></path>
                    <path d="M92.110652,96.6106502 L89.601052,96.6106502 L89.601052,94.7290502 L92.110652,94.7290502 L92.110652,96.6106502 Z M92.110652,108.13465 L89.601052,108.13465 L89.601052,98.8362502 L92.110652,98.8362502 L92.110652,108.13465 Z" id="Shape" fill="#FFFFFF"></path>
                    <path d="M98.728252,101.05465 L97.705852,101.02905 C97.3837016,101.014626 97.0639339,101.09055 96.782652,101.24825 C96.5404309,101.398029 96.3497799,101.618268 96.236252,101.87945 L96.236252,108.13545 L93.735452,108.13545 L93.735452,98.8362502 L96.064252,98.8362502 L96.176252,100.16025 L96.193852,100.16825 C96.3773126,99.7376074 96.6618846,99.3575379 97.023452,99.0602502 C97.3652753,98.7923738 97.7892675,98.6510431 98.223452,98.6602502 C98.3613391,98.6604246 98.4990326,98.6705845 98.635452,98.6906502 C98.7571446,98.7072183 98.8776561,98.7315344 98.996252,98.7634502 L98.728252,101.05465 Z" id="Path" fill="#FFFFFF"></path>
                    <path d="M103.640252,108.30665 C102.430365,108.370479 101.251583,107.910218 100.405052,107.04345 C99.5954763,106.143396 99.1712284,104.961706 99.223452,103.75225 L99.223452,103.40825 C99.1675093,102.165939 99.5656197,100.94573 100.343452,99.9754502 C101.970731,98.3050123 104.627326,98.2195095 106.358652,99.7818502 C107.079032,100.642692 107.443586,101.746081 107.377852,102.86665 L107.377852,104.23305 L101.757852,104.23305 C101.800032,104.811633 102.029144,105.360827 102.410652,105.79785 C102.801128,106.19961 103.346444,106.412602 103.905852,106.38185 C104.373531,106.395292 104.840713,106.341407 105.293052,106.22185 C105.709665,106.088006 106.111702,105.912449 106.493052,105.69785 L107.043452,107.35625 C106.611277,107.666037 106.128663,107.898547 105.617052,108.04345 C104.974818,108.228732 104.308592,108.317437 103.640252,108.30665 Z M103.417052,100.59785 C102.980966,100.578646 102.563766,100.777056 102.303452,101.12745 C102.008495,101.557012 101.829638,102.055552 101.784252,102.57465 L104.921052,102.57465 L104.921052,102.35145 C104.946759,101.894048 104.818,101.441278 104.555452,101.06585 C104.27233,100.737236 103.849438,100.563384 103.417052,100.59785 L103.417052,100.59785 Z" id="Shape" fill="#FFFFFF"></path>
                    <path d="M108.013052,103.56345 C107.948088,102.305682 108.273622,101.058593 108.945052,99.9930502 C109.552567,99.1135167 110.571837,98.6108419 111.639452,98.6642502 C112.074942,98.6552965 112.50588,98.7542366 112.893852,98.9522502 C113.270161,99.1575709 113.596149,99.4439379 113.848252,99.7906502 L113.873852,99.7818502 L113.873852,94.7290502 L116.391452,94.7290502 L116.391452,108.13465 L114.209052,108.13465 L114.020252,107.00905 C113.755749,107.407751 113.402874,107.740093 112.989052,107.98025 C112.569363,108.205086 112.098648,108.317528 111.622652,108.30665 C110.581139,108.363953 109.578699,107.902417 108.945052,107.07385 C108.277798,106.095855 107.950341,104.925723 108.013052,103.74345 L108.013052,103.56345 Z M110.513852,103.74345 C110.476829,104.408971 110.614737,105.072584 110.913852,105.66825 C111.196867,106.134525 111.719036,106.400875 112.262652,106.35625 C112.593811,106.365826 112.922046,106.291815 113.217052,106.14105 C113.488448,105.990574 113.714032,105.769414 113.869852,105.50105 L113.869852,101.54745 C113.71417,101.266643 113.489502,101.030136 113.217052,100.86025 C112.933109,100.694862 112.60874,100.611762 112.280252,100.62025 C111.708742,100.588456 111.17441,100.904255 110.926652,101.42025 C110.620505,102.092022 110.47768,102.826708 110.509852,103.56425 L110.513852,103.74345 Z" id="Shape" fill="#FFFFFF"></path>
                    <path d="M58.400252,59.6386502 C43.8301757,59.6364411 32.0203795,47.8236603 32.0218521,33.2535839 C32.0233248,18.6835075 43.8355087,6.87311425 58.4055851,6.8738505 C72.9756615,6.87458674 84.786652,18.6861737 84.786652,33.2562502 C84.7703353,47.8216449 72.965649,59.6245417 58.400252,59.6386502 Z M42.146652,21.9666502 C36.6704813,29.8300421 37.6162649,40.4874129 44.3916139,47.2635492 C51.166963,54.0396855 61.8242239,54.9867073 69.688252,49.5114502 L42.146652,21.9666502 Z M74.386652,44.9090502 C80.1549461,37.0384394 79.3192775,26.1366897 72.4187879,19.2371988 C65.5182984,12.3377078 54.6164278,11.503617 46.746652,17.2730502 L74.386652,44.9090502 Z" id="Shape" fill="#4C4B4B"></path>
                    <path d="M58.400252,8.47385016 C68.4238699,8.47385016 77.4606778,14.5113593 81.2967745,23.7718819 C85.1328712,33.0324045 83.0127917,43.6918878 75.9251379,50.7797704 C68.8374841,57.867653 58.1780693,59.9880766 48.9174229,56.1522788 C39.6567765,52.316481 33.618652,43.2798681 33.618652,33.2562502 C33.6362806,19.5769295 44.7209319,8.49192032 58.400252,8.47385016 M74.515452,47.3034502 C81.9110828,38.8332282 81.4797364,26.0813678 73.5286353,18.1302668 C65.5775343,10.1791658 52.825674,9.74781935 44.355452,17.1434502 L74.515452,47.3034502 M58.400252,54.6634583 C63.4160419,54.6669883 68.2720587,52.8996702 72.112252,49.6730502 L41.985852,19.5434502 C36.6489095,25.9153043 35.4869487,34.8021349 39.0062362,42.3319487 C42.5255237,49.8617625 50.0886078,54.6706781 58.400252,54.6634583 M58.400252,5.27545016 C42.9464159,5.27721742 30.4198739,17.8061471 30.4210521,33.2599832 C30.4222302,48.7138194 42.9506823,61.240839 58.4045185,61.24025 C73.8583547,61.2396609 86.385852,48.7116864 86.385852,33.2578502 C86.3695358,17.8088526 73.8492505,5.28928305 58.400252,5.27385016 L58.400252,5.27545016 Z M49.267452,17.5346502 C56.398461,13.3758865 65.4365481,14.545236 71.2743459,20.3819065 C77.1121436,26.218577 78.2832385,35.2564381 74.125852,42.3882502 L49.267452,17.5346502 Z M58.400252,51.4618621 C51.9693523,51.4692113 46.012832,48.0792623 42.7349228,42.5464658 C39.4570137,37.0136693 39.3452734,30.1609762 42.441052,24.5242502 L67.132252,49.2146502 C64.4566933,50.6856495 61.4535194,51.4585231 58.400252,51.4618621 L58.400252,51.4618621 Z" id="Shape" fill="#000000"></path>
                </g>
            </g>
        </g>
    </g>
</svg>