<?xml version="1.0" encoding="UTF-8"?>
<svg width="814px" height="157px" viewBox="0 0 814 157" version="1.1" xmlns="http://www.w3.org/2000/svg" xmlns:xlink="http://www.w3.org/1999/xlink">
    <title>Bundall</title>
    <g id="Page-1" stroke="none" stroke-width="1" fill="none" fill-rule="evenodd">
        <g id="Bundall-Contact" transform="translate(-555.000000, -583.000000)" fill="#FFFFFF" fill-rule="nonzero">
            <path d="M634.537014,738.341244 C673.48808,738.341244 697.367629,723.661194 697.367629,699.194444 C697.367629,668.072737 653.523212,662.983653 632.775408,662.787919 L632.775408,662.396451 C652.348808,661.809249 688.363864,658.873239 688.363864,633.036351 C688.363864,601.523176 645.498118,601.327442 611.440402,601.327442 L555.656211,601.327442 L555.656211,602.69758 C576.161305,602.69758 576.776458,612.274219 576.794912,634.464395 L576.795462,635.853097 C576.795483,636.087237 576.795483,636.322725 576.795483,636.559563 L576.795483,703.109124 L576.795462,703.792569 L576.795462,703.792569 L576.794912,705.137992 C576.776458,726.657803 576.161305,736.971106 555.656211,736.971106 L555.656211,738.341244 L634.537014,738.341244 Z M622.59724,662.004983 L617.116688,662.004983 L617.116688,602.69758 L622.205772,602.69758 C643.345044,602.69758 649.02133,613.267216 649.02133,631.861947 C649.02133,652.609751 642.953576,662.004983 622.59724,662.004983 Z M630.230866,736.971106 C617.954429,736.971106 617.144952,732.835481 617.117483,715.168845 L617.116688,663.570855 L623.57591,663.570855 C649.608532,663.570855 654.306148,677.076501 654.306148,699.194444 C654.306148,724.835598 647.06399,736.971106 630.230866,736.971106 Z M799.540778,739.711382 C807.565872,739.711382 819.114178,737.16684 835.3601,732.27349 L835.164366,730.903352 C819.468457,734.003779 818.160464,726.744905 818.135874,713.874743 L818.135508,634.210755 L767.048934,641.061445 L767.244668,642.431583 C781.294454,640.343101 781.900114,646.910427 781.923809,659.275303 L781.924645,660.047509 C781.924698,660.177434 781.924718,660.307969 781.924718,660.439111 L781.924718,716.810504 C776.052698,721.899588 769.397742,724.44413 764.700125,724.44413 C755.140065,724.44413 752.936566,716.948765 752.479064,709.789449 L752.447937,709.253253 C752.424581,708.807152 752.407496,708.363128 752.395314,707.923094 L752.382962,707.39709 C752.374483,706.960553 752.370359,706.528771 752.36922,706.103654 L752.368883,634.210755 L697.367629,641.648647 L697.563363,643.018785 C715.570891,640.669977 716.158093,647.324933 716.158093,660.439111 L716.158093,710.938484 C716.158093,730.903352 723.008783,739.711382 738.863237,739.711382 C750.803011,739.711382 763.134253,734.818032 782.51192,718.376376 C781.924718,732.077756 785.056462,739.711382 799.540778,739.711382 Z M900.148055,738.341244 L900.148055,736.971106 C889.905315,736.971106 889.404715,728.883291 889.383548,717.160887 L889.382685,657.111633 C895.254705,652.022549 901.909661,649.478007 906.607277,649.478007 C916.167338,649.478007 918.370837,656.973372 918.828339,664.132688 L918.859465,664.668884 C918.882822,665.114985 918.899907,665.559009 918.912088,665.999043 L918.924441,666.525047 C918.934616,667.048891 918.938519,667.565889 918.938519,668.072737 L918.938519,716.027568 L918.938451,716.494222 L918.938451,716.494222 L918.937721,717.40898 C918.917615,731.998621 918.431568,736.971106 908.368883,736.971106 L908.368883,738.341244 L972.178168,738.341244 L972.178168,736.971106 C957.063588,736.971106 955.185893,733.134328 955.14985,712.736098 L955.14931,662.983653 C955.14931,643.018785 948.29862,634.210755 932.444166,634.210755 C920.504391,634.210755 908.564617,639.495573 889.186951,655.350027 L889.774153,634.210755 L833.40276,649.282273 L833.794228,650.652411 C850.431619,646.737731 853.171895,652.022549 853.171895,665.136727 L853.171895,712.112888 C853.171895,733.056426 851.410289,736.971106 836.143036,736.971106 L836.143036,738.341244 L900.148055,738.341244 Z M1064.95609,739.711382 C1072.98118,739.711382 1084.33375,737.16684 1100.38394,732.27349 L1100.18821,730.903352 C1084.4923,734.003779 1083.1843,726.744905 1083.15971,713.874743 L1083.15935,583.711382 L1027.17942,598.7829 L1027.57089,600.153038 C1044.20828,596.238358 1046.75282,601.523176 1046.94856,614.637355 L1047.14429,636.559563 C1043.03388,635.189425 1038.33626,634.210755 1033.44291,634.210755 C999.385194,634.210755 977.071518,662.004983 977.071518,693.12669 C977.071518,720.920918 995.079046,739.711382 1015.82685,739.711382 C1028.74529,739.711382 1038.53199,732.27349 1047.53576,718.376376 C1046.94856,732.077756 1050.47177,739.711382 1064.95609,739.711382 Z M1031.0941,729.924682 C1016.06173,729.924682 1015.46044,699.439033 1015.43638,688.514708 L1015.43538,687.254669 L1015.43538,687.254669 C1015.43538,651.043879 1021.11167,635.776627 1034.81305,635.776627 C1046.16562,635.776627 1046.94856,642.040115 1046.94856,657.894569 L1046.94856,716.419036 C1042.05521,723.856928 1037.74906,729.924682 1031.0941,729.924682 Z M1191.00878,739.711382 C1205.10163,739.711382 1216.25847,732.469224 1225.26223,724.835598 L1224.4793,723.856928 C1220.76035,726.40147 1218.41154,726.988672 1215.867,726.988672 C1207.2725,726.988672 1206.88184,716.823041 1206.86408,710.281043 L1206.86324,664.158057 C1206.86324,641.452913 1183.76662,634.210755 1161.45295,634.210755 C1143.44542,634.210755 1110.75784,637.342499 1110.75784,661.222047 C1110.75784,673.944757 1119.76161,679.621043 1129.15684,679.621043 C1137.96487,679.621043 1145.98996,674.336225 1146.57716,663.179387 C1142.46675,661.417781 1139.72647,656.328697 1139.72647,651.826815 C1139.72647,642.235849 1148.14304,635.972361 1155.9724,635.972361 C1168.57375,635.972361 1170.21193,645.898482 1170.42489,656.599434 L1170.43743,657.338548 C1170.44094,657.585254 1170.44381,657.832259 1170.44615,658.079451 L1170.45174,658.821478 C1170.45387,659.192661 1170.45509,659.564014 1170.45579,659.935163 L1170.4567,661.047623 C1170.45671,661.171078 1170.45671,661.294469 1170.45671,661.417781 L1170.45671,673.161821 C1162.71543,678.50536 1152.28868,681.331269 1142.0046,684.073258 L1140.24354,684.542945 C1121.77816,689.475565 1104.29862,694.586865 1104.29862,714.070228 C1104.29862,730.903352 1116.04266,739.711382 1134.44166,739.711382 C1149.90464,739.711382 1164.97616,731.882022 1170.65245,718.180642 C1172.41405,731.29482 1179.85194,739.711382 1191.00878,739.711382 Z M1158.51694,725.618534 C1147.55583,725.618534 1146.1857,713.67876 1146.1857,706.240868 C1146.1857,684.514393 1156.5596,683.731457 1170.45671,674.727693 L1170.45671,711.134218 C1170.45671,718.376376 1165.95483,725.618534 1158.51694,725.618534 Z M1295.33501,738.341244 L1295.33501,736.971106 C1280.22043,736.971106 1278.34273,733.134328 1278.30669,712.736098 L1278.30615,583.711382 L1222.32622,598.7829 L1222.71769,600.153038 C1239.35508,596.238358 1242.09536,601.523176 1242.09536,614.637355 L1242.09536,712.112888 C1242.09536,733.056426 1240.33375,736.971106 1225.0665,736.971106 L1225.0665,738.341244 L1295.33501,738.341244 Z M1368.34379,738.341244 L1368.34379,736.971106 C1353.22921,736.971106 1351.35151,733.134328 1351.31547,712.736098 L1351.31493,583.711382 L1295.33501,598.7829 L1295.72647,600.153038 C1312.36386,596.238358 1315.10414,601.523176 1315.10414,614.637355 L1315.10414,712.112888 C1315.10414,733.056426 1313.34253,736.971106 1298.07528,736.971106 L1298.07528,738.341244 L1368.34379,738.341244 Z" id="Bundall"></path>
        </g>
    </g>
</svg>