<?xml version="1.0" encoding="UTF-8"?>
<svg width="834px" height="161px" viewBox="0 0 834 161" version="1.1" xmlns="http://www.w3.org/2000/svg" xmlns:xlink="http://www.w3.org/1999/xlink">
    <title>Bundall_2</title>
    <g id="Page-1" stroke="none" stroke-width="1" fill="none" fill-rule="evenodd" opacity="0.100000001">
        <g id="Bundall-Contact" transform="translate(-559.000000, -4004.000000)" fill="#565960" fill-rule="nonzero">
            <path d="M640.140527,4163.38335 C680.090339,4163.38335 704.582183,4148.32689 704.582183,4123.23278 C704.582183,4091.31308 659.613551,4086.09351 638.333752,4085.89276 L638.333752,4085.49125 C658.409034,4084.88899 695.347553,4081.8777 695.347553,4055.37833 C695.347553,4023.05712 651.382685,4022.85637 616.451694,4022.85637 L559.237139,4022.85637 L559.237139,4024.26164 C580.268005,4024.26164 580.898931,4034.08383 580.917859,4056.84299 L580.918422,4058.2673 C580.918444,4058.50744 580.918444,4058.74897 580.918444,4058.99188 L580.918444,4127.24784 L580.918422,4127.94881 L580.918422,4127.94881 L580.917859,4129.32873 C580.898931,4151.40033 580.268005,4161.97808 559.237139,4161.97808 L559.237139,4163.38335 L640.140527,4163.38335 Z M627.894605,4085.08975 L622.273526,4085.08975 L622.273526,4024.26164 L627.493099,4024.26164 C649.174404,4024.26164 654.996236,4035.10229 654.996236,4054.17381 C654.996236,4075.45361 648.772898,4085.08975 627.894605,4085.08975 Z M635.723965,4161.97808 C623.132748,4161.97808 622.302514,4157.73641 622.274342,4139.61679 L622.273526,4086.69577 L628.898369,4086.69577 C655.598494,4086.69577 660.416562,4100.54771 660.416562,4123.23278 C660.416562,4149.5314 652.988708,4161.97808 635.723965,4161.97808 Z M809.375157,4164.78862 C817.606023,4164.78862 829.450439,4162.17883 846.112923,4157.16001 L845.912171,4155.75474 C829.813802,4158.93467 828.472271,4151.48967 828.44705,4138.2895 L828.446675,4056.58285 L776.050188,4063.6092 L776.250941,4065.01446 C790.660979,4062.87243 791.282168,4069.60815 791.30647,4082.29007 L791.307328,4083.08208 C791.307383,4083.21534 791.307403,4083.34922 791.307403,4083.48372 L791.307403,4141.30054 C785.284818,4146.52011 778.459222,4149.1299 773.641154,4149.1299 C763.835964,4149.1299 761.575965,4141.44234 761.106732,4134.09946 L761.074808,4133.54951 C761.050852,4133.09197 761.033329,4132.63656 761.020835,4132.18525 L761.008166,4131.64575 C760.99947,4131.19802 760.99524,4130.75517 760.994071,4130.31915 L760.993726,4056.58285 L704.582183,4064.21145 L704.782936,4065.61672 C723.252196,4063.20769 723.854454,4070.03329 723.854454,4083.48372 L723.854454,4135.27795 C723.854454,4155.75474 730.880803,4164.78862 747.141782,4164.78862 C759.387704,4164.78862 772.035132,4159.7698 791.909661,4142.90656 C791.307403,4156.95926 794.519448,4164.78862 809.375157,4164.78862 Z M912.562108,4163.38335 L912.562108,4161.97808 C902.056733,4161.97808 901.543298,4153.68288 901.521588,4141.65991 L901.520703,4080.07093 C907.543287,4074.85135 914.368883,4072.24157 919.186951,4072.24157 C928.992142,4072.24157 931.25214,4079.92912 931.721373,4087.27201 L931.753298,4087.82195 C931.777254,4088.27949 931.794776,4088.7349 931.80727,4089.18622 L931.819939,4089.72571 C931.830375,4090.26299 931.834379,4090.79324 931.834379,4091.31308 L931.834379,4140.49753 L931.834308,4140.97615 L931.834308,4140.97615 L931.83356,4141.91436 C931.812939,4156.87809 931.314429,4161.97808 920.993726,4161.97808 L920.993726,4163.38335 L986.439147,4163.38335 L986.439147,4161.97808 C970.937014,4161.97808 969.011172,4158.04292 968.974205,4137.12166 L968.973651,4086.09351 C968.973651,4065.61672 961.947302,4056.58285 945.686324,4056.58285 C933.440402,4056.58285 921.194479,4062.00317 901.31995,4078.26415 L901.922208,4056.58285 L844.105395,4072.04081 L844.506901,4073.44608 C861.570891,4069.43103 864.38143,4074.85135 864.38143,4088.30179 L864.38143,4136.48247 C864.38143,4157.96302 862.574655,4161.97808 846.915935,4161.97808 L846.915935,4163.38335 L912.562108,4163.38335 Z M1081.59598,4164.78862 C1089.82685,4164.78862 1101.47051,4162.17883 1117.93225,4157.16001 L1117.73149,4155.75474 C1101.63312,4158.93467 1100.29159,4151.48967 1100.26637,4138.2895 L1100.266,4004.78862 L1042.85069,4020.24659 L1043.2522,4021.65186 C1060.31619,4017.6368 1062.92597,4023.05712 1063.12673,4036.50756 L1063.32748,4058.99188 C1059.11167,4057.58661 1054.2936,4056.58285 1049.27478,4056.58285 C1014.34379,4056.58285 991.457967,4085.08975 991.457967,4117.00945 C991.457967,4145.51635 1009.92723,4164.78862 1031.20703,4164.78862 C1044.45671,4164.78862 1054.49435,4157.16001 1063.72898,4142.90656 C1063.12673,4156.95926 1066.74028,4164.78862 1081.59598,4164.78862 Z M1046.86575,4154.75098 C1031.44793,4154.75098 1030.83122,4123.48364 1030.80655,4112.27921 L1030.80552,4110.98686 L1030.80552,4110.98686 C1030.80552,4073.84759 1036.62735,4058.18887 1050.68005,4058.18887 C1062.32371,4058.18887 1063.12673,4064.61296 1063.12673,4080.87394 L1063.12673,4140.89903 C1058.1079,4148.52764 1053.69134,4154.75098 1046.86575,4154.75098 Z M1210.8808,4164.78862 C1225.33501,4164.78862 1236.77792,4157.36076 1246.01255,4149.5314 L1245.20954,4148.52764 C1241.39523,4151.13743 1238.9862,4151.73968 1236.37641,4151.73968 C1227.56154,4151.73968 1227.16086,4141.3134 1227.14265,4134.60365 L1227.14178,4087.29803 C1227.14178,4064.0107 1203.45295,4056.58285 1180.56713,4056.58285 C1162.09787,4056.58285 1128.57215,4059.79489 1128.57215,4084.28674 C1128.57215,4097.33567 1137.80678,4103.1575 1147.44291,4103.1575 C1156.47679,4103.1575 1164.70765,4097.73717 1165.30991,4086.29426 C1161.0941,4084.48749 1158.28356,4079.26792 1158.28356,4074.6506 C1158.28356,4064.81371 1166.91593,4058.38962 1174.94605,4058.38962 C1187.87051,4058.38962 1189.5507,4068.57026 1189.76912,4079.54559 L1189.78198,4080.30366 C1189.78558,4080.55669 1189.78852,4080.81003 1189.79093,4081.06356 L1189.79666,4081.82461 C1189.79884,4082.20531 1189.80009,4082.58619 1189.80081,4082.96686 L1189.80174,4084.10784 C1189.80176,4084.23446 1189.80176,4084.36101 1189.80176,4084.48749 L1189.80176,4096.53266 C1181.86198,4102.01321 1171.16788,4104.91158 1160.6201,4107.72388 L1158.81388,4108.20561 C1139.87503,4113.2647 1121.9473,4118.50706 1121.9473,4138.49 C1121.9473,4155.75474 1133.99247,4164.78862 1152.86324,4164.78862 C1168.72271,4164.78862 1184.18068,4156.7585 1190.00251,4142.70581 C1191.80928,4156.15625 1199.43789,4164.78862 1210.8808,4164.78862 Z M1177.55583,4150.33441 C1166.31368,4150.33441 1164.90841,4138.08849 1164.90841,4130.45989 C1164.90841,4108.17632 1175.54831,4107.37331 1189.80176,4098.13868 L1189.80176,4135.47871 C1189.80176,4142.90656 1185.18444,4150.33441 1177.55583,4150.33441 Z M1317.88206,4163.38335 L1317.88206,4161.97808 C1302.37992,4161.97808 1300.45408,4158.04292 1300.41712,4137.12166 L1300.41656,4004.78862 L1243.00125,4020.24659 L1243.40276,4021.65186 C1260.46675,4017.6368 1263.27729,4023.05712 1263.27729,4036.50756 L1263.27729,4136.48247 C1263.27729,4157.96302 1261.47051,4161.97808 1245.81179,4161.97808 L1245.81179,4163.38335 L1317.88206,4163.38335 Z M1392.76286,4163.38335 L1392.76286,4161.97808 C1377.26073,4161.97808 1375.33489,4158.04292 1375.29792,4137.12166 L1375.29737,4004.78862 L1317.88206,4020.24659 L1318.28356,4021.65186 C1335.34755,4017.6368 1338.15809,4023.05712 1338.15809,4036.50756 L1338.15809,4136.48247 C1338.15809,4157.96302 1336.35132,4161.97808 1320.6926,4161.97808 L1320.6926,4163.38335 L1392.76286,4163.38335 Z" id="Bundall_2"></path>
        </g>
    </g>
</svg>