<?xml version="1.0" encoding="UTF-8"?>
<svg width="166px" height="85px" viewBox="0 0 166 85" version="1.1" xmlns="http://www.w3.org/2000/svg" xmlns:xlink="http://www.w3.org/1999/xlink">
    <title>Ora 16</title>
    <g id="Mobile" stroke="none" stroke-width="1" fill="none" fill-rule="evenodd">
        <g id="Same-Day--Mobile" transform="translate(-301.000000, -3407.000000)">
            <g id="Ora-16" transform="translate(308.250000, 3407.766353)">
                <g id="Group-3" transform="translate(79.513672, 0.000000)" fill-rule="nonzero">
                    <path d="M6.375,69.6511009 L6.375,68.3386009 L2.24414062,68.3386009 L2.24414062,65.9011009 L5.77734375,65.9011009 L5.77734375,64.5827415 L2.24414062,64.5827415 L2.24414062,62.4382102 L6.36328125,62.4382102 L6.36328125,61.1198509 L0.533203125,61.1198509 L0.533203125,69.6511009 L6.375,69.6511009 Z M9.13476562,69.6511009 L9.13476562,63.7975852 L9.15234375,63.7917259 L12.6152344,69.6511009 L14.3203125,69.6511009 L14.3203125,61.1198509 L12.6152344,61.1198509 L12.6152344,66.9675071 L12.5976562,66.9733665 L9.13476562,61.1198509 L7.42382812,61.1198509 L7.42382812,69.6511009 L9.13476562,69.6511009 Z M18.6445312,69.6511009 C19.84375,69.6511009 20.7910156,69.3151634 21.4863281,68.6432884 C22.1816406,67.9714134 22.5292969,67.0710227 22.5292969,65.9421165 L22.5292969,65.9421165 L22.5292969,64.8346946 C22.5292969,63.7136009 22.1826172,62.8141868 21.4892578,62.1364524 C20.7958984,61.458718 19.8574219,61.1198509 18.6738281,61.1198509 L18.6738281,61.1198509 L15.9199219,61.1198509 L15.9199219,69.6511009 L18.6445312,69.6511009 Z M18.5566406,68.3386009 L17.6308594,68.3386009 L17.6308594,62.4382102 L18.5859375,62.4382102 C19.3554688,62.4382102 19.9189453,62.6471946 20.2763672,63.0651634 C20.6337891,63.4831321 20.8125,64.0690696 20.8125,64.8229759 L20.8125,64.8229759 L20.8125,65.9421165 C20.8125,66.6921165 20.6318359,67.2790305 20.2705078,67.7028587 C19.9091797,68.1266868 19.3378906,68.3386009 18.5566406,68.3386009 L18.5566406,68.3386009 Z M30.234375,69.7741477 C31.3125,69.7741477 32.1777344,69.4352805 32.8300781,68.7575462 C33.4824219,68.0798118 33.8085938,67.2116477 33.8085938,66.153054 L33.8085938,66.153054 L33.8085938,64.6178977 C33.8085938,63.5632102 33.4814453,62.6960227 32.8271484,62.0163352 C32.1728516,61.3366477 31.3066406,60.996804 30.2285156,60.996804 C29.1582031,60.996804 28.3007812,61.3366477 27.65625,62.0163352 C27.0117188,62.6960227 26.6894531,63.5632102 26.6894531,64.6178977 L26.6894531,64.6178977 L26.6894531,66.153054 C26.6894531,67.2116477 27.0126953,68.0798118 27.6591797,68.7575462 C28.3056641,69.4352805 29.1640625,69.7741477 30.234375,69.7741477 Z M30.234375,68.4440696 C29.6445312,68.4440696 29.1904297,68.2321555 28.8720703,67.8083274 C28.5537109,67.3844993 28.3945312,66.8327415 28.3945312,66.153054 L28.3945312,66.153054 L28.3945312,64.606179 C28.3945312,63.934304 28.5527344,63.387429 28.8691406,62.965554 C29.1855469,62.543679 29.6386719,62.3327415 30.2285156,62.3327415 C30.8183594,62.3327415 31.2773438,62.5446555 31.6054688,62.9684837 C31.9335938,63.3923118 32.0976562,63.9382102 32.0976562,64.606179 L32.0976562,64.606179 L32.0976562,66.153054 C32.0976562,66.8327415 31.9355469,67.3844993 31.6113281,67.8083274 C31.2871094,68.2321555 30.828125,68.4440696 30.234375,68.4440696 Z M36.9023438,69.6511009 L36.9023438,66.106179 L40.4296875,66.106179 L40.4296875,64.7878196 L36.9023438,64.7878196 L36.9023438,62.4382102 L41.0273438,62.4382102 L41.0273438,61.1198509 L35.1914062,61.1198509 L35.1914062,69.6511009 L36.9023438,69.6511009 Z M4.39453125,83.6511009 L4.39453125,76.4382102 L7.08984375,76.4382102 L7.08984375,75.1198509 L0,75.1198509 L0,76.4382102 L2.68359375,76.4382102 L2.68359375,83.6511009 L4.39453125,83.6511009 Z M9.86132812,83.6511009 L9.86132812,80.106179 L13.3417969,80.106179 L13.3417969,83.6511009 L15.046875,83.6511009 L15.046875,75.1198509 L13.3417969,75.1198509 L13.3417969,78.7878196 L9.86132812,78.7878196 L9.86132812,75.1198509 L8.15039062,75.1198509 L8.15039062,83.6511009 L9.86132812,83.6511009 Z M22.4882812,83.6511009 L22.4882812,82.3386009 L18.3574219,82.3386009 L18.3574219,79.9011009 L21.890625,79.9011009 L21.890625,78.5827415 L18.3574219,78.5827415 L18.3574219,76.4382102 L22.4765625,76.4382102 L22.4765625,75.1198509 L16.6464844,75.1198509 L16.6464844,83.6511009 L22.4882812,83.6511009 Z M28.2363281,83.6511009 L28.2363281,80.5573509 L29.9238281,80.5573509 C30.9238281,80.5573509 31.7001953,80.3132102 32.2529297,79.824929 C32.8056641,79.3366477 33.0820312,78.6764915 33.0820312,77.8444602 C33.0820312,77.012429 32.8056641,76.3503196 32.2529297,75.8581321 C31.7001953,75.3659446 30.9238281,75.1198509 29.9238281,75.1198509 L29.9238281,75.1198509 L26.5253906,75.1198509 L26.5253906,83.6511009 L28.2363281,83.6511009 Z M29.9238281,79.2389915 L28.2363281,79.2389915 L28.2363281,76.4382102 L29.9238281,76.4382102 C30.4121094,76.4382102 30.7763672,76.5700462 31.0166016,76.833718 C31.2568359,77.0973899 31.3769531,77.4382102 31.3769531,77.856179 C31.3769531,78.2663352 31.2568359,78.599343 31.0166016,78.8552024 C30.7763672,79.1110618 30.4121094,79.2389915 29.9238281,79.2389915 L29.9238281,79.2389915 Z M36.0527344,83.6511009 L36.0527344,80.2409446 L37.59375,80.2409446 C38.0234375,80.2409446 38.3447266,80.356179 38.5576172,80.5866477 C38.7705078,80.8171165 38.8769531,81.1511009 38.8769531,81.5886009 L38.8769531,81.5886009 L38.8769531,82.1921165 C38.8769531,82.4538352 38.9003906,82.7302024 38.9472656,83.021218 C38.9941406,83.3122337 39.0976562,83.5221946 39.2578125,83.6511009 L39.2578125,83.6511009 L41.0097656,83.6511009 L41.0097656,83.4870384 C40.8496094,83.3620384 40.7382812,83.1764915 40.6757812,82.9303977 C40.6132812,82.684304 40.5820312,82.4421165 40.5820312,82.2038352 L40.5820312,82.2038352 L40.5820312,81.5768821 C40.5820312,81.0495384 40.4775391,80.6169212 40.2685547,80.2790305 C40.0595703,79.9411399 39.703125,79.6940696 39.1992188,79.5378196 L39.1992188,79.5378196 L39.1992188,79.5202415 C39.6796875,79.3327415 40.0439453,79.0866477 40.2919922,78.7819602 C40.5400391,78.4772727 40.6640625,78.0866477 40.6640625,77.6100852 C40.6640625,76.793679 40.4150391,76.1745384 39.9169922,75.7526634 C39.4189453,75.3307884 38.6777344,75.1198509 37.6933594,75.1198509 L37.6933594,75.1198509 L34.3417969,75.1198509 L34.3417969,83.6511009 L36.0527344,83.6511009 Z M37.5292969,78.9225852 L36.0527344,78.9225852 L36.0527344,76.4382102 L37.6054688,76.4382102 C38.0703125,76.4382102 38.4121094,76.5505149 38.6308594,76.7751243 C38.8496094,76.9997337 38.9589844,77.3132102 38.9589844,77.715554 C38.9589844,78.121804 38.8427734,78.4245384 38.6103516,78.6237571 C38.3779297,78.8229759 38.0175781,78.9225852 37.5292969,78.9225852 L37.5292969,78.9225852 Z M45.5214844,83.7741477 C46.5996094,83.7741477 47.4648438,83.4352805 48.1171875,82.7575462 C48.7695312,82.0798118 49.0957031,81.2116477 49.0957031,80.153054 L49.0957031,80.153054 L49.0957031,78.6178977 C49.0957031,77.5632102 48.7685547,76.6960227 48.1142578,76.0163352 C47.4599609,75.3366477 46.59375,74.996804 45.515625,74.996804 C44.4453125,74.996804 43.5878906,75.3366477 42.9433594,76.0163352 C42.2988281,76.6960227 41.9765625,77.5632102 41.9765625,78.6178977 L41.9765625,78.6178977 L41.9765625,80.153054 C41.9765625,81.2116477 42.2998047,82.0798118 42.9462891,82.7575462 C43.5927734,83.4352805 44.4511719,83.7741477 45.5214844,83.7741477 Z M45.5214844,82.4440696 C44.9316406,82.4440696 44.4775391,82.2321555 44.1591797,81.8083274 C43.8408203,81.3844993 43.6816406,80.8327415 43.6816406,80.153054 L43.6816406,80.153054 L43.6816406,78.606179 C43.6816406,77.934304 43.8398438,77.387429 44.15625,76.965554 C44.4726562,76.543679 44.9257812,76.3327415 45.515625,76.3327415 C46.1054688,76.3327415 46.5644531,76.5446555 46.8925781,76.9684837 C47.2207031,77.3923118 47.3847656,77.9382102 47.3847656,78.606179 L47.3847656,78.606179 L47.3847656,80.153054 C47.3847656,80.8327415 47.2226562,81.3844993 46.8984375,81.8083274 C46.5742188,82.2321555 46.1152344,82.4440696 45.5214844,82.4440696 Z M53.625,83.7741477 C54.6640625,83.7741477 55.4697266,83.5192649 56.0419922,83.0094993 C56.6142578,82.4997337 56.9355469,81.7741477 57.0058594,80.8327415 L57.0058594,80.8327415 L55.2949219,80.8327415 C55.2480469,81.387429 55.09375,81.7975852 54.8320312,82.0632102 C54.5703125,82.3288352 54.1679688,82.4616477 53.625,82.4616477 C53.0820312,82.4616477 52.6708984,82.2594993 52.3916016,81.8552024 C52.1123047,81.4509055 51.9726562,80.9108665 51.9726562,80.2350852 L51.9726562,80.2350852 L51.9726562,78.5300071 C51.9726562,77.8698509 52.1171875,77.3356712 52.40625,76.927468 C52.6953125,76.5192649 53.1015625,76.3151634 53.625,76.3151634 C54.1953125,76.3151634 54.6054688,76.4528587 54.8554688,76.7282493 C55.1054688,77.0036399 55.2558594,77.4206321 55.3066406,77.9792259 L55.3066406,77.9792259 L57.0117188,77.9792259 C56.9179688,77.0143821 56.59375,76.2761009 56.0390625,75.7643821 C55.484375,75.2526634 54.6796875,74.996804 53.625,74.996804 C52.6054688,74.996804 51.7910156,75.3229759 51.1816406,75.9753196 C50.5722656,76.6276634 50.2675781,77.4831321 50.2675781,78.5417259 L50.2675781,78.5417259 L50.2675781,80.2350852 C50.2675781,81.3053977 50.5673828,82.1628196 51.1669922,82.8073509 C51.7666016,83.4518821 52.5859375,83.7741477 53.625,83.7741477 Z M64.03125,83.6511009 L64.03125,82.3386009 L59.9003906,82.3386009 L59.9003906,79.9011009 L63.4335938,79.9011009 L63.4335938,78.5827415 L59.9003906,78.5827415 L59.9003906,76.4382102 L64.0195312,76.4382102 L64.0195312,75.1198509 L58.1894531,75.1198509 L58.1894531,83.6511009 L64.03125,83.6511009 Z M68.1972656,83.7741477 C69.1621094,83.7741477 69.9277344,83.5671165 70.4941406,83.153054 C71.0605469,82.7389915 71.34375,82.1589134 71.34375,81.4128196 C71.34375,80.6979759 71.1054688,80.1315696 70.6289062,79.7136009 C70.1523438,79.2956321 69.4355469,78.9518821 68.4785156,78.6823509 C67.8105469,78.4714134 67.3457031,78.2761009 67.0839844,78.0964134 C66.8222656,77.9167259 66.6914062,77.6784446 66.6914062,77.3815696 C66.6914062,77.0612571 66.8144531,76.8005149 67.0605469,76.599343 C67.3066406,76.3981712 67.6640625,76.2975852 68.1328125,76.2975852 C68.6171875,76.2975852 68.9882812,76.4177024 69.2460938,76.6579368 C69.5039062,76.8981712 69.6328125,77.2194602 69.6328125,77.621804 L69.6328125,77.621804 L71.34375,77.621804 C71.34375,76.856179 71.0517578,76.2272727 70.4677734,75.7350852 C69.8837891,75.2428977 69.1132812,74.996804 68.15625,74.996804 C67.2148438,74.996804 66.4501953,75.215554 65.8623047,75.653054 C65.2744141,76.090554 64.9804688,76.6647727 64.9804688,77.3757102 C64.9804688,78.0866477 65.2353516,78.6393821 65.7451172,79.0339134 C66.2548828,79.4284446 67.0273438,79.7741477 68.0625,80.0710227 C68.65625,80.2507102 69.0664062,80.4372337 69.2929688,80.630593 C69.5195312,80.8239524 69.6328125,81.0886009 69.6328125,81.4245384 C69.6328125,81.7487571 69.5126953,82.005593 69.2724609,82.1950462 C69.0322266,82.3844993 68.6738281,82.4792259 68.1972656,82.4792259 C67.6308594,82.4792259 67.1953125,82.3639915 66.890625,82.1335227 C66.5859375,81.903054 66.4335938,81.528054 66.4335938,81.0085227 L66.4335938,81.0085227 L64.7226562,81.0085227 C64.7226562,81.9069602 65.0644531,82.5925071 65.7480469,83.0651634 C66.4316406,83.5378196 67.2480469,83.7741477 68.1972656,83.7741477 Z M75.6972656,83.7741477 C76.6621094,83.7741477 77.4277344,83.5671165 77.9941406,83.153054 C78.5605469,82.7389915 78.84375,82.1589134 78.84375,81.4128196 C78.84375,80.6979759 78.6054688,80.1315696 78.1289062,79.7136009 C77.6523438,79.2956321 76.9355469,78.9518821 75.9785156,78.6823509 C75.3105469,78.4714134 74.8457031,78.2761009 74.5839844,78.0964134 C74.3222656,77.9167259 74.1914062,77.6784446 74.1914062,77.3815696 C74.1914062,77.0612571 74.3144531,76.8005149 74.5605469,76.599343 C74.8066406,76.3981712 75.1640625,76.2975852 75.6328125,76.2975852 C76.1171875,76.2975852 76.4882812,76.4177024 76.7460938,76.6579368 C77.0039062,76.8981712 77.1328125,77.2194602 77.1328125,77.621804 L77.1328125,77.621804 L78.84375,77.621804 C78.84375,76.856179 78.5517578,76.2272727 77.9677734,75.7350852 C77.3837891,75.2428977 76.6132812,74.996804 75.65625,74.996804 C74.7148438,74.996804 73.9501953,75.215554 73.3623047,75.653054 C72.7744141,76.090554 72.4804688,76.6647727 72.4804688,77.3757102 C72.4804688,78.0866477 72.7353516,78.6393821 73.2451172,79.0339134 C73.7548828,79.4284446 74.5273438,79.7741477 75.5625,80.0710227 C76.15625,80.2507102 76.5664062,80.4372337 76.7929688,80.630593 C77.0195312,80.8239524 77.1328125,81.0886009 77.1328125,81.4245384 C77.1328125,81.7487571 77.0126953,82.005593 76.7724609,82.1950462 C76.5322266,82.3844993 76.1738281,82.4792259 75.6972656,82.4792259 C75.1308594,82.4792259 74.6953125,82.3639915 74.390625,82.1335227 C74.0859375,81.903054 73.9335938,81.528054 73.9335938,81.0085227 L73.9335938,81.0085227 L72.2226562,81.0085227 C72.2226562,81.9069602 72.5644531,82.5925071 73.2480469,83.0651634 C73.9316406,83.5378196 74.7480469,83.7741477 75.6972656,83.7741477 Z" id="ENDOFTHEPROCESS" fill="#565960" opacity="0.5"></path>
                    <path d="M14.0722656,46.4238281 L14.0722656,17.9863281 L3.68164062,20.1933594 L3.68164062,23.2988281 L9.32617188,23.2988281 L9.32617188,46.4238281 L14.0722656,46.4238281 Z M34.6386719,46.8339844 C37.4511719,46.8339844 39.6875,45.9192708 41.3476562,44.0898438 C43.0078125,42.2604167 43.8378906,39.8613281 43.8378906,36.8925781 C43.8378906,34.093099 43.1119792,31.8177083 41.6601562,30.0664062 C40.2083333,28.3151042 38.186849,27.4394531 35.5957031,27.4394531 C34.3457031,27.4394531 33.2096354,27.6315104 32.1875,28.015625 C31.1653646,28.3997396 30.2571615,28.9563802 29.4628906,29.6855469 L29.4628906,29.6855469 L29.4628906,29.5488281 C29.4628906,27.0097656 30.0325521,25.0208333 31.171875,23.5820312 C32.3111979,22.1432292 33.844401,21.4238281 35.7714844,21.4238281 C36.7089844,21.4238281 37.5130208,21.5117188 38.1835938,21.6875 C38.8541667,21.8632812 39.5605469,22.1074219 40.3027344,22.4199219 L40.3027344,22.4199219 L41.2011719,18.7480469 C40.4459635,18.3834635 39.609375,18.0970052 38.6914062,17.8886719 C37.7734375,17.6803385 36.7936198,17.5761719 35.7519531,17.5761719 C32.5227865,17.5761719 29.8795573,18.6764323 27.8222656,20.8769531 C25.764974,23.077474 24.7363281,26.0657552 24.7363281,29.8417969 L24.7363281,29.8417969 L24.7363281,35.2714844 C24.7363281,38.9954427 25.6510417,41.8535156 27.4804688,43.8457031 C29.3098958,45.8378906 31.6959635,46.8339844 34.6386719,46.8339844 Z M34.6386719,43.0449219 C33.0891927,43.0449219 31.8391927,42.406901 30.8886719,41.1308594 C29.938151,39.8548177 29.4628906,37.9863281 29.4628906,35.5253906 L29.4628906,35.5253906 L29.4628906,33.4941406 C29.9186198,32.7519531 30.5566406,32.172526 31.3769531,31.7558594 C32.1972656,31.3391927 33.2128906,31.1308594 34.4238281,31.1308594 C35.8951823,31.1308594 37.0410156,31.6582031 37.8613281,32.7128906 C38.6816406,33.7675781 39.0917969,35.1608073 39.0917969,36.8925781 C39.0917969,38.6634115 38.7044271,40.1315104 37.9296875,41.296875 C37.1549479,42.4622396 36.0579427,43.0449219 34.6386719,43.0449219 Z" id="16" fill="#55311B"></path>
                    <path d="M54.1855469,14.6289062 C55.5266927,14.6289062 56.6139323,14.2659505 57.4472656,13.5400391 C58.280599,12.8141276 58.6972656,11.7903646 58.6972656,10.46875 C58.6972656,9.70703125 58.5182292,9.02994792 58.1601562,8.4375 C57.8020833,7.84505208 57.1835938,7.40885417 56.3046875,7.12890625 C57.0338542,6.81640625 57.577474,6.37369792 57.9355469,5.80078125 C58.2936198,5.22786458 58.4726562,4.63867188 58.4726562,4.03320312 C58.4726562,2.71809896 58.0917969,1.7171224 57.3300781,1.03027344 C56.5683594,0.343424479 55.5169271,0 54.1757812,0 C52.8606771,0 51.8027344,0.372721354 51.0019531,1.11816406 C50.2011719,1.86360677 49.8007812,2.79947917 49.8007812,3.92578125 L49.8007812,3.92578125 L51.6074219,3.92578125 C51.6074219,3.17057292 51.8385417,2.57161458 52.3007812,2.12890625 C52.7630208,1.68619792 53.3880208,1.46484375 54.1757812,1.46484375 C55.015625,1.46484375 55.640625,1.67643229 56.0507812,2.09960938 C56.4609375,2.52278646 56.6660156,3.15429688 56.6660156,3.99414062 C56.6660156,4.77539062 56.4788411,5.38085938 56.1044922,5.81054688 C55.7301432,6.24023438 55.09375,6.45507812 54.1953125,6.45507812 L54.1953125,6.45507812 L52.5644531,6.45507812 L52.5644531,7.90039063 L54.1953125,7.90039063 C55.1328125,7.90039063 55.8164062,8.10872396 56.2460938,8.52539062 C56.6757812,8.94205729 56.890625,9.60286458 56.890625,10.5078125 C56.890625,11.40625 56.65625,12.0751953 56.1875,12.5146484 C55.71875,12.9541016 55.0514323,13.1738281 54.1855469,13.1738281 C53.3391927,13.1738281 52.6783854,12.9492188 52.203125,12.5 C51.7278646,12.0507812 51.4902344,11.4388021 51.4902344,10.6640625 L51.4902344,10.6640625 L49.6738281,10.6640625 C49.6738281,11.9205729 50.0970052,12.8955078 50.9433594,13.5888672 C51.7897135,14.2822266 52.8704427,14.6289062 54.1855469,14.6289062 Z M65.6113281,14.6289062 C67.0371094,14.6289062 68.1422526,14.1536458 68.9267578,13.203125 C69.711263,12.2526042 70.1035156,10.8496094 70.1035156,8.99414062 L70.1035156,8.99414062 L70.1035156,5.64453125 C70.1035156,3.79557292 69.7080078,2.39257812 68.9169922,1.43554688 C68.1259766,0.478515625 67.0175781,0 65.5917969,0 C64.172526,0 63.0690104,0.478515625 62.28125,1.43554688 C61.4934896,2.39257812 61.0996094,3.79557292 61.0996094,5.64453125 L61.0996094,5.64453125 L61.0996094,8.99414062 C61.0996094,10.843099 61.4967448,12.2444661 62.2910156,13.1982422 C63.0852865,14.1520182 64.1920573,14.6289062 65.6113281,14.6289062 Z M65.6113281,13.1738281 C64.719401,13.1738281 64.0455729,12.8580729 63.5898438,12.2265625 C63.1341146,11.5950521 62.90625,10.641276 62.90625,9.36523438 L62.90625,9.36523438 L62.90625,5.25390625 C62.90625,3.97786458 63.1308594,3.02734375 63.5800781,2.40234375 C64.0292969,1.77734375 64.6998698,1.46484375 65.5917969,1.46484375 C66.4902344,1.46484375 67.1656901,1.77734375 67.6181641,2.40234375 C68.070638,3.02734375 68.296875,3.97786458 68.296875,5.25390625 L68.296875,5.25390625 L68.296875,9.36523438 C68.296875,10.6542969 68.0738932,11.6113281 67.6279297,12.2363281 C67.1819661,12.8613281 66.5097656,13.1738281 65.6113281,13.1738281 Z" id="30" fill="#55311B" opacity="0.7"></path>
                </g>
                <g id="Group-16" transform="translate(16.750000, 32.469283) rotate(-270.000000) translate(-16.750000, -32.469283) translate(3.750000, 15.719283)">
                    <path d="M12.8909587,-12.2381389 L16.1254993,-0.890928647 C16.5065706,0.445921408 17.1315777,1.73464483 17.987037,2.9814681 C18.672216,3.9801096 19.5981464,5.05563756 20.7534219,6.2174023 C23.2455529,7.57199878 25.3435191,9.56009705 26.8306819,11.9659428 C28.3638549,14.4462211 29.25,17.3695224 29.25,20.5 C29.25,24.9873136 27.4311568,29.0498136 24.4904852,31.9904852 C21.5498136,34.9311568 17.4873136,36.75 13,36.75 C8.51268641,36.75 4.45018641,34.9311568 1.50951481,31.9904852 C-1.4311568,29.0498136 -3.25,24.9873136 -3.25,20.5 C-3.25,17.3706965 -2.36452193,14.4484098 -0.832424083,11.968568 C0.654197948,9.56233292 2.75165731,7.57358619 5.24293306,6.2178291 C6.4101923,5.04263568 7.35099817,3.94627516 8.05473136,2.92059115 C8.91457227,1.66738173 9.52550281,0.41967933 9.85912185,-0.835095481 L9.85912185,-0.835095481 L12.8909587,-12.2381389 Z" id="Combined-Shape" stroke="#FDF6F0" stroke-width="6.5" fill="#F5701D"></path>
                    <rect id="Rectangle" fill="#FFFFFF" x="12.5" y="14" width="1" height="13" rx="0.5"></rect>
                    <rect id="Rectangle-Copy-2" fill="#FFFFFF" x="14.5" y="16.5" width="1" height="8" rx="0.5"></rect>
                    <rect id="Rectangle-Copy-9" fill="#FFFFFF" transform="translate(11.000000, 20.500000) rotate(-180.000000) translate(-11.000000, -20.500000) " x="10.5" y="16.5" width="1" height="8" rx="0.5"></rect>
                    <rect id="Rectangle-Copy-10" fill="#FFFFFF" transform="translate(9.000000, 20.500000) rotate(-180.000000) translate(-9.000000, -20.500000) " x="8.5" y="18.5" width="1" height="4" rx="0.5"></rect>
                    <rect id="Rectangle-Copy-8" fill="#FFFFFF" x="16.5" y="18.5" width="1" height="4" rx="0.5"></rect>
                </g>
                <rect id="Rectangle" fill="#F5701D" fill-rule="nonzero" x="31.0803223" y="31.9492827" width="37.52" height="1.04" rx="0.52"></rect>
            </g>
        </g>
    </g>
</svg>