<svg xmlns="http://www.w3.org/2000/svg" width="507" height="258" viewBox="0 0 507 258">
  <path id="_2019" data-name="2019" d="M447,258a70.688,70.688,0,0,1-23.494-3.694,53.941,53.941,0,0,1-9.849-4.617,52.023,52.023,0,0,1-8.585-6.464,55.664,55.664,0,0,1-7.907-9.436,56.54,56.54,0,0,1-5.647-11.012,66.046,66.046,0,0,1-3.389-12.589A85.451,85.451,0,0,1,387,196.023V176.2h39.759v19.819c0,8.607,1.824,14.669,5.422,18.016,3.118,2.869,8.1,4.324,14.819,4.324,6.955,0,11.941-1.455,14.819-4.324,3.6-3.108,5.422-9.17,5.422-18.016V151.34A73.125,73.125,0,0,1,447,153.863a70.695,70.695,0,0,1-23.494-3.693,53.946,53.946,0,0,1-9.849-4.617,53.576,53.576,0,0,1-16.491-15.629A54.157,54.157,0,0,1,391.518,119a65.794,65.794,0,0,1-3.389-12.679A88.264,88.264,0,0,1,387,91.886V61.978a85.455,85.455,0,0,1,1.129-14.166,66.055,66.055,0,0,1,3.389-12.589,56.544,56.544,0,0,1,5.647-11.013,55.66,55.66,0,0,1,7.907-9.436,52.028,52.028,0,0,1,8.585-6.463,53.946,53.946,0,0,1,9.849-4.617,76.567,76.567,0,0,1,46.988,0,53.946,53.946,0,0,1,9.849,4.617,52.026,52.026,0,0,1,8.585,6.463,55.659,55.659,0,0,1,7.907,9.436,56.55,56.55,0,0,1,5.647,11.013,66.048,66.048,0,0,1,3.388,12.589A85.451,85.451,0,0,1,507,61.978V196.023a85.448,85.448,0,0,1-1.129,14.166,66.04,66.04,0,0,1-3.388,12.589,56.547,56.547,0,0,1-5.647,11.012,55.662,55.662,0,0,1-7.907,9.436,52.029,52.029,0,0,1-8.585,6.464,53.94,53.94,0,0,1-9.849,4.617A70.684,70.684,0,0,1,447,258Zm0-218c-6.636,0-11.562,1.443-14.643,4.29C428.8,47.611,427,53.625,427,62.164V91.836c0,8.539,1.8,14.553,5.358,17.874,3.081,2.847,8.007,4.29,14.643,4.29,6.873,0,11.8-1.443,14.642-4.29,3.555-3.083,5.358-9.1,5.358-17.874V62.164c0-8.777-1.8-14.791-5.358-17.874C458.8,41.443,453.873,40,447,40ZM202,258a70.684,70.684,0,0,1-23.494-3.694,53.939,53.939,0,0,1-9.849-4.617,52.029,52.029,0,0,1-8.585-6.464,55.663,55.663,0,0,1-7.907-9.436,56.541,56.541,0,0,1-5.647-11.012,66.043,66.043,0,0,1-3.389-12.589A85.45,85.45,0,0,1,142,196.023V61.978a85.453,85.453,0,0,1,1.129-14.166,66.054,66.054,0,0,1,3.389-12.589,56.544,56.544,0,0,1,5.647-11.013,55.659,55.659,0,0,1,7.907-9.436,52.026,52.026,0,0,1,8.585-6.463,53.951,53.951,0,0,1,9.849-4.617,76.567,76.567,0,0,1,46.988,0,53.946,53.946,0,0,1,9.849,4.617,52.025,52.025,0,0,1,8.585,6.463,55.659,55.659,0,0,1,7.907,9.436,56.55,56.55,0,0,1,5.647,11.013,66.05,66.05,0,0,1,3.388,12.589A85.455,85.455,0,0,1,262,61.978V196.023a85.451,85.451,0,0,1-1.129,14.166,66.043,66.043,0,0,1-3.388,12.589,56.547,56.547,0,0,1-5.647,11.012,55.663,55.663,0,0,1-7.907,9.436,52.021,52.021,0,0,1-8.585,6.464,53.941,53.941,0,0,1-9.849,4.617A70.688,70.688,0,0,1,202,258Zm0-218c-6.635,0-11.561,1.449-14.642,4.306C183.8,47.64,182,53.677,182,62.25v133.5c0,8.573,1.8,14.61,5.358,17.943C190.438,216.551,195.365,218,202,218c6.873,0,11.8-1.449,14.643-4.306C220.2,210.6,222,204.561,222,195.75V62.25c0-8.811-1.8-14.849-5.358-17.944C213.8,41.448,208.873,40,202,40ZM364,255H324.36V72.12L284,108.84V55.2L341.3,3H364V255Zm-244,0H0V184.406a81.35,81.35,0,0,1,1.667-16.613,72.443,72.443,0,0,1,5-15.262A74.561,74.561,0,0,1,15,138.62a88.021,88.021,0,0,1,11.667-12.561,98.691,98.691,0,0,1,14.594-10.264c5.855-3.464,9.553-5.584,10.991-6.3,7.892-4.3,13.106-7.453,15.5-9.365C75.878,92.24,80,83.031,80,72.754V61.949c0-8.843-1.819-14.9-5.405-18.008-2.869-2.868-7.84-4.322-14.775-4.322-6.7,0-11.667,1.454-14.774,4.322-3.587,3.346-5.405,9.4-5.405,18.008V83.92H0V61.949A88.441,88.441,0,0,1,1.126,47.52,65.9,65.9,0,0,1,4.5,34.846a54.183,54.183,0,0,1,5.631-10.917A53.484,53.484,0,0,1,26.576,8.306,53.719,53.719,0,0,1,36.4,3.692,70.315,70.315,0,0,1,59.819,0,70.319,70.319,0,0,1,83.243,3.692a53.72,53.72,0,0,1,9.82,4.615A53.483,53.483,0,0,1,109.5,23.929a54.18,54.18,0,0,1,5.631,10.917,65.888,65.888,0,0,1,3.378,12.673,88.442,88.442,0,0,1,1.126,14.429V72.754a75.638,75.638,0,0,1-1.712,16.118,73.593,73.593,0,0,1-5.135,15.217,77.119,77.119,0,0,1-8.378,13.957,85.123,85.123,0,0,1-11.442,12.336,86.893,86.893,0,0,1-11.351,8.645,122.739,122.739,0,0,1-12.073,6.483c-2.875,1.437-5.846,3.013-8.829,4.683a46.138,46.138,0,0,0-8.468,6.123c-8.369,7.647-12.613,17.1-12.613,28.093v30.975H120V255Z" fill="#ccc" opacity="0.4"/>
</svg>
