<?xml version="1.0" encoding="UTF-8"?>
<svg width="232px" height="110px" viewBox="0 0 232 110" version="1.1" xmlns="http://www.w3.org/2000/svg" xmlns:xlink="http://www.w3.org/1999/xlink">
    <title>Numbers</title>
    <g id="Design" stroke="none" stroke-width="1" fill="none" fill-rule="evenodd" opacity="0.400000006">
        <g id="Homepage" transform="translate(-1064.000000, -4588.000000)" fill="#a7958a">
            <g id="â™£ï¸-Block_Features" transform="translate(-1.000000, 1901.000000)">
                <g id="1" transform="translate(1065.000000, 2687.277344)">
                    <path d="M12.109375,88.28125 C13.0208379,88.28125 13.6393213,88.6230435 13.9648438,89.3066406 C14.2903662,89.9902378 14.583332,92.0572744 14.84375,95.5078125 C14.9628214,97.0855085 15.2520245,98.7312466 15.7113625,100.445038 L5.14573248,100.445935 C4.97045236,99.0809763 4.8828125,97.6953525 4.8828125,96.2890625 C4.8828125,94.4010322 5.59895117,92.8059961 7.03125,91.5039062 L7.56816072,91.0441563 C9.75170322,89.2022102 11.2654279,88.28125 12.109375,88.28125 Z M28.90625,0 L50.78125,0.5859375 L74.7070312,0.1953125 C76.9856885,0.1953125 78.125,0.748692383 78.125,1.85546875 C77.864582,3.0924541 76.9205811,4.85024902 75.2929688,7.12890625 L54.1992188,37.5976562 C67.7409531,38.1184922 78.5481367,42.70829 86.6210938,51.3671875 C94.3685283,59.765667 98.2421875,70.3124365 98.2421875,83.0078125 C98.2421875,89.2682661 97.3590931,95.0809125 95.5928928,100.445782 L81.9419322,100.446018 C82.6525203,97.0717678 83.0078125,93.4074735 83.0078125,89.453125 C83.0078125,78.5155703 79.8828438,69.4661816 73.6328125,62.3046875 C67.3827812,55.0129844 59.0495313,51.3671875 48.6328125,51.3671875 L39.3554688,52.34375 C37.7929609,52.34375 37.0117188,51.6927148 37.0117188,50.390625 C37.0117188,49.1536396 37.9882715,47.0703271 39.9414062,44.140625 L59.6679688,15.0390625 L55.9520418,14.9023073 C49.499454,14.6763253 44.3216958,14.5593003 40.4186593,14.5512296 L37.5589289,14.5542144 C34.3173208,14.5641326 32.246912,14.5955401 31.3476562,14.6484375 C30.2408799,14.713542 29.3294307,14.843749 28.6132812,15.0390625 C27.3762959,15.2994805 26.4322949,15.8528604 25.78125,16.6992188 C24.4791602,18.3919355 23.0468828,19.2382812 21.484375,19.2382812 C19.9218672,19.2382812 19.140625,18.326832 19.140625,16.5039062 C19.140625,15.8528613 19.5637979,14.7135498 20.4101562,13.0859375 L20.9060084,12.1695527 C22.5133112,9.1740134 23.6652391,6.76924056 24.3618188,4.95517892 L24.4628906,4.6875 C25.2115923,2.66926074 25.8626274,1.38346631 26.4160156,0.830078125 C26.9694038,0.276689941 27.7994736,0 28.90625,0 Z" id="Combined-Shape"></path>
                    <rect id="line" x="0" y="108.445312" width="232" height="1"></rect>
                </g>
            </g>
        </g>
    </g>
</svg>