<?xml version="1.0" encoding="UTF-8"?>
<svg width="232px" height="114px" viewBox="0 0 232 114" version="1.1" xmlns="http://www.w3.org/2000/svg" xmlns:xlink="http://www.w3.org/1999/xlink">
    <title>1</title>
    <g id="Design" stroke="none" stroke-width="1" fill="none" fill-rule="evenodd" opacity="0.400000006">
        <g id="Homepage" transform="translate(-296.000000, -5677.000000)" fill="#55311B">
            <g id="♣️-Block_Features" transform="translate(-1.000000, 1901.000000)">
                <g id="1" transform="translate(297.000000, 3776.746094)">
                    <path d="M71.875,0 C73.0468809,0 73.6328125,0.699862793 73.6328125,2.09960938 C73.6328125,3.49935596 73.6002607,4.83397803 73.5351562,6.10351562 L73.4424825,7.80751779 C73.3973083,8.5967378 73.3468195,9.42847405 73.2910156,10.3027344 L72.9492188,15.5761719 C72.8190098,17.5618589 72.7213545,20.0195166 72.65625,22.9492187 L72.579611,25.1198421 C72.3702861,31.5324202 72.265625,39.1747042 72.265625,48.046875 L72.265625,75.9765625 L85.4492188,75.9765625 C92.6107129,75.9765625 98.242167,75.1627686 102.34375,73.5351562 C103.059899,73.2747383 103.678383,73.1445312 104.199219,73.1445312 C105.631518,73.1445312 106.347656,73.8281182 106.347656,75.1953125 C106.347656,75.985247 105.922313,76.9453076 105.071615,78.0755198 L104.882812,78.3203125 C102.734364,81.1198057 101.318363,83.2519458 100.634766,84.7167969 C99.9511685,86.1816479 99.2187539,87.1419248 98.4375,87.5976562 C97.6562461,88.0533877 96.2565205,88.28125 94.2382812,88.28125 L72.265625,88.28125 L72.2668125,104.253 L57.3228125,104.253 L57.3242188,88.28125 L53.125,88.28125 L7.71484375,89.1601562 C5.82681348,89.1601562 4.8828125,88.3789141 4.8828125,86.8164062 C4.8828125,85.5794209 5.82681348,83.821626 7.71484375,81.5429688 L65.9179688,5.6640625 L66.86279,4.5033025 C69.0264786,1.8680403 70.3228553,0.464607866 70.7519531,0.29296875 C71.2402368,0.0976552734 71.614582,0 71.875,0 Z M57.3242188,28.7109375 L21.875,75.9765625 L57.3242188,75.9765625 L57.3242188,28.7109375 Z" id="Combined-Shape"></path>
                    <rect id="line" x="0" y="112.253906" width="232" height="1"></rect>
                </g>
            </g>
        </g>
    </g>
</svg>