<svg id="Icons_credit_card_Copy_2" data-name="Icons/credit_card Copy 2" xmlns="http://www.w3.org/2000/svg" width="32" height="32" viewBox="0 0 32 32">
  <path id="Combined_Shape" data-name="Combined Shape" d="M5.635,26.666A5.642,5.642,0,0,1,0,21.031V5.635A5.642,5.642,0,0,1,5.635,0h15.4a5.642,5.642,0,0,1,5.635,5.635v15.4a5.642,5.642,0,0,1-5.635,5.635ZM1.777,5.635v15.4a3.862,3.862,0,0,0,3.858,3.858h15.4a3.862,3.862,0,0,0,3.858-3.858V5.635a3.862,3.862,0,0,0-3.858-3.858H5.635A3.862,3.862,0,0,0,1.777,5.635Zm4.89,7.7A6.667,6.667,0,1,1,13.334,20,6.674,6.674,0,0,1,6.667,13.334Zm1.771-.01a4.9,4.9,0,1,0,4.9-4.886v-.01A4.9,4.9,0,0,0,8.438,13.325ZM20.665,8a2,2,0,0,1-.006-4h.008a2,2,0,0,1,2,1.992V6a2.015,2.015,0,0,1-1.992,2ZM19.452,5.984a1.215,1.215,0,0,0,1.207,1.223h.006a1.216,1.216,0,0,0,.01-2.431h-.007A1.218,1.218,0,0,0,19.452,5.984Z" transform="translate(2.667 2.667)" fill="#fff"/>
</svg>
