<svg height="32" viewBox="0 0 32 32" width="32" xmlns="http://www.w3.org/2000/svg"><path d="m5.635 26.666a5.642 5.642 0 0 1 -5.635-5.635v-15.396a5.642 5.642 0 0 1 5.635-5.635h15.4a5.642 5.642 0 0 1 5.635 5.635v15.4a5.642 5.642 0 0 1 -5.635 5.635zm-3.858-21.031v15.4a3.862 3.862 0 0 0 3.858 3.858h15.4a3.862 3.862 0 0 0 3.858-3.858v-15.4a3.862 3.862 0 0 0 -3.858-3.858h-15.4a3.862 3.862 0 0 0 -3.858 3.858zm4.89 7.7a6.667 6.667 0 1 1 6.667 6.665 6.674 6.674 0 0 1 -6.667-6.666zm1.771-.01a4.9 4.9 0 1 0 4.9-4.886v-.01a4.9 4.9 0 0 0 -4.9 4.896zm12.227-5.325a2 2 0 0 1 -.006-4h.008a2 2 0 0 1 2 1.992v.008a2.015 2.015 0 0 1 -1.992 2zm-1.213-2.016a1.215 1.215 0 0 0 1.207 1.223h.006a1.216 1.216 0 0 0 .01-2.431h-.007a1.218 1.218 0 0 0 -1.216 1.208z" fill="#fff" transform="translate(2.667 2.667)"/></svg>