<svg id="Icons_Arrow" data-name="Icons/Arrow" xmlns="http://www.w3.org/2000/svg" width="13.333" height="13.333" viewBox="0 0 13.333 13.333">
  <path id="Combined_Shape" data-name="Combined Shape" d="M6.666,13.333a6.667,6.667,0,1,1,6.667-6.667A6.674,6.674,0,0,1,6.666,13.333ZM5.914,4a.587.587,0,0,0-.411.164.553.553,0,0,0,0,.8L7.265,6.667,5.509,8.374a.554.554,0,0,0,0,.8.606.606,0,0,0,.411.162.618.618,0,0,0,.411-.162L8.5,7.066a.572.572,0,0,0,.168-.4.553.553,0,0,0-.168-.4l-2.173-2.1A.59.59,0,0,0,5.914,4Z" fill="#fff"/>
</svg>
