<?xml version="1.0" encoding="UTF-8"?>
<svg width="347px" height="574px" viewBox="0 0 347 574" version="1.1" xmlns="http://www.w3.org/2000/svg" xmlns:xlink="http://www.w3.org/1999/xlink">
    <title>certificate@2x</title>
    <g id="Design" stroke="none" stroke-width="1" fill="none" fill-rule="evenodd">
        <g id="Why-Proud-Smile" transform="translate(-390.000000, -8349.000000)">
            <g id="certificate" transform="translate(390.500000, 8349.500000)">
                <g id="noun_guarantee_2261669" opacity="0.900000036">
                    <path d="M0.15,494.5 L345.95,494.5 L345.95,0.5 L0.15,0.5 L0.15,494.5 Z M16.6166667,16.9666667 L329.483333,16.9666667 L329.483333,478.033333 L16.6166667,478.033333 L16.6166667,16.9666667 Z" id="Shape" fill="#ADAFB2"></path>
                    <rect id="Rectangle" fill="#ADAFB2" fill-rule="nonzero" x="113.983333" y="262.266667" width="118.133333" height="14.7666667"></rect>
                    <rect id="Rectangle" fill="#ADAFB2" fill-rule="nonzero" x="77.0666667" y="291.8" width="191.966667" height="14.7666667"></rect>
                    <rect id="Rectangle" fill="#ADAFB2" fill-rule="nonzero" x="77.0666667" y="321.333333" width="191.966667" height="14.7666667"></rect>
                    <rect id="Rectangle" fill="#ADAFB2" fill-rule="nonzero" x="77.0666667" y="350.866667" width="191.966667" height="14.7666667"></rect>
                    <rect id="Rectangle" fill="#ADAFB2" fill-rule="nonzero" x="106.6" y="387.783333" width="44.3" height="14.7666667"></rect>
                    <rect id="Rectangle" fill="#ADAFB2" fill-rule="nonzero" x="195.2" y="387.783333" width="44.3" height="14.7666667"></rect>
                    <path d="M276.416667,70.3 L276.416667,55.5333333 L69.6833333,55.5333333 L69.6833333,70.3 C69.6833333,74.73 66.73,77.6833333 62.3,77.6833333 L47.5333333,77.6833333 L47.5333333,417.316667 L62.3,417.316667 C66.73,417.316667 69.6833333,420.27 69.6833333,424.7 L69.6833333,439.466667 L276.416667,439.466667 L276.416667,424.7 C276.416667,420.27 279.37,417.316667 283.8,417.316667 L298.566667,417.316667 L298.566667,77.6833333 L283.8,77.6833333 C279.37,77.6833333 276.416667,74.73 276.416667,70.3 Z M283.8,402.55 C271.248333,402.55 261.65,412.148333 261.65,424.7 L84.45,424.7 C84.45,412.148333 74.8516667,402.55 62.3,402.55 L62.3,92.45 C74.8516667,92.45 84.45,82.8516667 84.45,70.3 L261.65,70.3 C261.65,82.8516667 271.248333,92.45 283.8,92.45 L283.8,402.55 Z" id="Shape" stroke="#ADAFB2" stroke-width="6" opacity="0.649999976" fill-rule="nonzero"></path>
                </g>
                <g id="Group" transform="translate(173.500000, 345.500000)">
                    <path d="M63.55,-3.55766833 L70.8113503,4.28923934 L79.7382433,-1.59329805 L84.9099305,7.76530636 L94.9856679,4.19032771 L97.7667355,14.5118611 L108.401312,13.4525704 L108.63378,24.143906 L119.217224,25.6595868 L116.881268,36.0935264 L126.794076,40.1003185 L122.032626,49.6692757 L130.695573,55.9285291 L123.782619,64.0828313 L130.698385,72.2356701 L122.034485,78.4956124 L126.79585,88.0665929 L116.883318,92.0732736 L119.21913,102.506568 L108.635819,104.024424 L108.403333,114.712177 L97.7684142,113.652852 L94.9852244,123.976315 L84.9099305,120.401494 L79.7379738,129.760586 L70.8110502,123.875835 L63.55,131.722418 L56.2889498,123.875835 L47.3620262,129.760586 L42.1901551,120.401649 L32.1168837,123.97653 L29.3336221,113.652801 L18.6960015,114.712177 L18.4657092,104.024424 L7.8808494,102.506661 L10.2167257,92.0730801 L0.306311293,88.0663691 L5.06742735,78.4958898 L-3.59828803,72.236221 L3.31734084,64.08135 L-3.59828803,55.926479 L5.06723626,49.6669482 L0.306035764,40.0984923 L10.2167257,36.0916699 L7.88070508,25.6574445 L18.4657092,24.1418544 L18.6959872,13.4525719 L29.3337592,14.5119624 L32.1170474,4.19032772 L42.1901551,7.76515147 L47.3617567,-1.59329805 L56.2886497,4.28923934 L63.55,-3.55766833 Z M63.55,20.8395 C51.6091345,20.8395 40.798806,25.6798378 32.9736331,33.5053576 C25.1482364,41.3311012 20.30815,52.142198 20.30815,64.0834 C20.30815,76.024602 25.1482364,86.8356988 32.9736331,94.6614424 C40.798806,102.486962 51.6091345,107.3273 63.55,107.3273 C75.491674,107.3273 86.3019016,102.487114 94.1268104,94.6615114 C101.952167,86.8354612 106.79185,76.0236972 106.79185,64.08135 C106.79185,52.1408054 101.951982,41.3299472 94.1264534,33.504419 C86.3015613,25.6795269 75.491486,20.8395 63.55,20.8395 Z" id="Shape" stroke="#FDF9F8" stroke-width="6" fill="#F16139" fill-rule="nonzero"></path>
                    <polygon id="Path" fill="#F16139" fill-rule="nonzero" points="84.8495 123.1152 81.1923 129.73055 79.68965 132.4468 77.09845 130.73915 70.78855 126.5797 65.6574 132.127 63.55 134.4066 61.4426 132.127 56.3094 126.5797 50.00155 130.73915 47.4083 132.4468 45.9077 129.73055 42.24845 123.1152 35.1288 125.63875 34.1161 126.0016 34.1161 226.14065 63.55 196.7047 92.9839 226.14065 92.9839 126.0016 91.96915 125.63875"></polygon>
                    <circle id="Oval" fill="#F16139" fill-rule="nonzero" cx="63.55" cy="64.0834" r="47.5"></circle>
                    <path d="M83.9476113,69.1977596 C77.125992,70.9042618 70.1720584,72.0288032 63.1605468,72.5592981 C56.4656642,72.0604461 49.8322037,70.935016 43.3471153,69.1977596 C44.9441446,79.1611351 53.5155316,86.5017337 63.5986816,86.5413494 C73.6959636,86.5940952 82.3609173,79.2264972 83.9476113,69.1977596 Z M94.1683537,51.3709662 C99.3074921,63.7485549 96.4873242,78.0055698 87.0236243,87.4902743 C77.5599245,96.9749787 63.317698,99.818228 50.9417819,94.6934789 C38.5658659,89.5687299 30.4951598,77.4859135 30.4951598,64.082375 C30.5218837,45.8162669 45.2975608,31.0077953 63.55,30.9540979 C76.9435372,30.9344588 89.0292152,38.9933776 94.1683537,51.3709662 Z M25.5783132,64.082375 C25.5783132,85.0691955 42.5788164,102.082375 63.55,102.082375 C84.5211836,102.082375 101.521687,85.0691955 101.521687,64.082375 C101.521687,43.0955545 84.5211836,26.082375 63.55,26.082375 C42.5788164,26.082375 25.5783132,43.0955545 25.5783132,64.082375 Z" id="Shape" fill="#FFFFFF"></path>
                </g>
                <g id="noun_guarantee_952398" transform="translate(118.000000, 103.500000)" fill="#B5B6B9" fill-rule="nonzero">
                    <g id="Group">
                        <path d="M55.5345778,22.9201778 C37.2935111,22.9201778 22.4634667,37.7464889 22.4634667,55.9875556 C22.4634667,74.2074667 37.2935111,89.0574222 55.5345778,89.0574222 C73.7793778,89.0574222 88.6056889,74.2062222 88.6056889,55.9875556 C88.6056889,37.7464889 73.7793778,22.9201778 55.5345778,22.9201778 Z M55.5345778,83.4437333 C40.4108444,83.4437333 28.0784,71.1399111 28.0784,55.9875556 C28.0784,40.8638222 40.3859556,28.5338667 55.5345778,28.5338667 C70.6832,28.5338667 82.9907556,40.8625778 82.9907556,55.9875556 C82.9907556,71.1150222 70.6620444,83.4437333 55.5345778,83.4437333 Z" id="Shape"></path>
                        <path d="M108.611378,60.5272889 L106.617778,57.7770667 C105.679467,56.4928 105.655822,54.7306667 106.596622,53.424 L108.542933,50.6501333 C110.077333,48.4723556 110.627378,45.7221333 110.011378,43.1088 C109.391644,40.4954667 107.696711,38.2753778 105.334756,37.0147556 L102.354311,35.4106667 C100.931911,34.6540444 100.179022,33.096 100.4304,31.5130667 L101.0016,28.168 C101.437156,25.5310222 100.727822,22.8268444 99.0552889,20.7424 C97.3603556,18.6554667 94.8590222,17.3973333 92.2033778,17.2816 L88.8097778,17.1447111 C87.2056889,17.0750222 85.8280889,15.9960889 85.3950222,14.4616889 L84.4106667,11.2286222 C83.2645333,7.26382222 79.5735111,4.49244444 75.4257778,4.49244444 C74.1651556,4.49244444 72.9045333,4.74506667 71.7347556,5.24906667 L68.6174222,6.57688889 C67.1738667,7.19662222 65.4092444,6.80835556 64.3788444,5.63857778 L62.1102222,3.11733333 C60.3468444,1.14488889 57.8044444,0 55.1699556,0 C52.4632889,0 49.8984889,1.16977778 48.1089778,3.20817778 L45.9088,5.77546667 C44.8784,6.9664 43.1349333,7.37955556 41.6702222,6.78471111 L38.5292444,5.50293333 C37.3843556,5.04373333 36.1934222,4.79235556 34.9776,4.79235556 C30.7850667,4.79235556 27.0716444,7.61226667 25.9690667,11.6679111 L25.0755556,14.9432889 C24.6624,16.4801778 23.2885333,17.5802667 21.6844444,17.6711111 L18.3144889,17.8776889 C15.6563556,18.0145778 13.1587556,19.3212444 11.5086222,21.4293333 C9.856,23.5374222 9.19395556,26.2664889 9.67306667,28.8785778 L10.2928,32.2024889 C10.5902222,33.7829333 9.8336,35.3658667 8.43608889,36.1436444 L5.48053333,37.7937778 C3.14097778,39.1004444 1.46968889,41.3454222 0.896,43.9587556 C0.322311111,46.5720889 0.896,49.3210667 2.47893333,51.4752 L4.47253333,54.2030222 C5.41084444,55.4885333 5.43573333,57.2506667 4.49368889,58.5560889 L2.54613333,61.3299556 C1.01173333,63.5089778 0.461688889,66.2579556 1.07893333,68.8712889 C1.69866667,71.4846222 3.3936,73.7059556 5.75431111,74.9653333 L8.73475556,76.5694222 C10.1571556,77.3260444 10.9100444,78.8840889 10.6574222,80.4670222 L10.0862222,83.8120889 C9.65191111,86.4453333 10.36,89.1532444 12.0337778,91.2376889 C13.7287111,93.3246222 16.2300444,94.5827556 18.8844444,94.6972444 L22.2780444,94.8341333 C23.8821333,94.9038222 25.2584889,95.9802667 25.6928,97.5159111 L26.6311111,100.770133 C27.776,104.734933 31.4682667,107.5088 35.6147556,107.5088 C36.8753778,107.5088 38.136,107.257422 39.3057778,106.752178 L42.4193778,105.423111 C43.8654222,104.805867 45.6312889,105.194133 46.6604444,106.363911 L48.9303111,108.882667 C50.7011556,110.855111 53.2435556,112 55.8780444,112 C58.5847111,112 61.1495111,110.832711 62.9390222,108.791822 L65.1591111,106.224533 C66.192,105.0336 67.9329778,104.620444 69.4001778,105.215289 L72.5386667,106.499556 C73.6835556,106.957511 74.8782222,107.210133 76.0928,107.210133 C80.2853333,107.210133 83.9987556,104.390222 85.0976,100.334578 L85.9911111,97.0567111 C86.4042667,95.5223111 87.7806222,94.4234667 89.3847111,94.3288889 L92.7758222,94.1248 C95.4588444,93.9642667 97.9328,92.6787556 99.5816889,90.5719111 C101.234311,88.4625778 101.896356,85.7596444 101.417244,83.1251556 L100.797511,79.8012444 C100.500089,78.2183111 101.256711,76.6378667 102.654222,75.8600889 L105.609778,74.2074667 C107.949333,72.9020444 109.620622,70.6558222 110.195556,68.0437333 C110.769244,65.4304 110.195556,62.6814222 108.611378,60.5272889 Z M104.716267,66.8279111 C104.488533,67.8832 103.822756,68.7543111 102.884444,69.2832 L99.9288889,70.9333333 C96.4208,72.8796444 94.5429333,76.8444444 95.2746667,80.7856 L95.8944,84.1095111 C96.1009778,85.1884444 95.8247111,86.2424889 95.1626667,87.0899556 C94.4968889,87.9386667 93.5336889,88.4426667 92.4348444,88.5098667 L89.0648889,88.7164444 C85.0540444,88.9479111 81.6392889,91.6968889 80.5864889,95.5708444 L79.6929778,98.8250667 C79.2574222,100.450311 77.7665778,101.574044 76.0952889,101.574044 C75.6112,101.574044 75.1320889,101.4832 74.6728889,101.300267 L71.5319111,100.016 C70.3857778,99.5568 69.1948444,99.3041778 67.9802667,99.3041778 C65.2760889,99.3041778 62.7100444,100.473956 60.9230222,102.512356 L58.6992,105.059733 C57.9886222,105.882311 56.9793778,106.340267 55.8792889,106.340267 C54.8040889,106.340267 53.816,105.905956 53.1079111,105.104533 L50.8380444,102.583289 C49.0734222,100.612089 46.5297778,99.4659556 43.8716444,99.4659556 C42.5861333,99.4659556 41.3504,99.7173333 40.1806222,100.222578 L37.0632889,101.549156 C36.5829333,101.755733 36.1038222,101.850311 35.5985778,101.850311 C33.9459556,101.850311 32.4812444,100.746489 32.0220444,99.1672889 L31.0837333,95.9130667 C29.96,92.064 26.5203556,89.3573333 22.5095111,89.1756444 L19.1184,89.0387556 C18.0394667,88.9939556 17.0551111,88.5098667 16.3905778,87.6624 C15.7036444,86.8149333 15.4311111,85.7621333 15.6128,84.7068444 L16.184,81.3617778 C16.8497778,77.3957333 14.9258667,73.4769778 11.3717333,71.5754667 L8.39377778,69.9713778 C7.43057778,69.4673778 6.7648,68.5950222 6.51342222,67.5409778 C6.26204444,66.4869333 6.46737778,65.4104889 7.10951111,64.5393778 L9.05706667,61.7655111 C11.3717333,58.4913778 11.3505778,54.1134222 8.96622222,50.8592 L6.97262222,48.1313778 C6.33173333,47.2590222 6.10026667,46.1838222 6.35288889,45.1297778 C6.58435556,44.0757333 7.24888889,43.2033778 8.18844444,42.6782222 L11.144,41.0280889 C14.6496,39.0805333 16.5312,35.1157333 15.7957333,31.1720889 L15.1996444,27.8730667 C14.9930667,26.7941333 15.2693333,25.7400889 15.9313778,24.8926222 C16.5971556,24.0451556 17.5603556,23.5411556 18.6592,23.4739556 L22.0291556,23.2673778 C26.04,23.0359111 29.4298667,20.2869333 30.5088,16.4129778 L31.4023111,13.1376 C31.8366222,11.5086222 33.3287111,10.3848889 35,10.3848889 C35.4828444,10.3848889 35.9632,10.4794667 36.4224,10.6611556 L39.5633778,11.9429333 C40.7082667,12.4021333 41.8992,12.6535111 43.1150222,12.6535111 C45.8192,12.6535111 48.3864889,11.4837333 50.1722667,9.44533333 L52.3960889,6.90293333 C53.1066667,6.07662222 54.1159111,5.61742222 55.216,5.61742222 C56.2912,5.61742222 57.2792889,6.05546667 57.9873778,6.85688889 L60.256,9.37564444 C62.0218667,11.3468444 64.5642667,12.4929778 67.2236444,12.4929778 C68.5079111,12.4929778 69.7448889,12.2403556 70.9146667,11.7363556 L74.032,10.4085333 C74.5123556,10.2019556 74.9914667,10.1111111 75.4967111,10.1111111 C77.1493333,10.1111111 78.6140444,11.2112 79.0732444,12.7904 L80.0115556,16.0471111 C81.1352889,19.8961778 84.5749333,22.6003556 88.5857778,22.7832889 L91.9768889,22.9226667 C93.0558222,22.9687111 94.0401778,23.4478222 94.7271111,24.2965333 C95.4165333,25.144 95.6890667,26.1980444 95.5073778,27.2520889 L94.9336889,30.5996444 C94.2679111,34.5644444 96.1943111,38.4807111 99.7459556,40.3859556 L102.7264,41.9900444 C103.6896,42.4915556 104.352889,43.3639111 104.604267,44.4179556 C104.856889,45.472 104.6528,46.5509333 104.033067,47.4195556 L102.086756,50.1934222 C99.7720889,53.4712889 99.792,57.8467556 102.1776,61.1047111 L104.1712,63.8288 C104.716267,64.6986667 104.947733,65.7738667 104.716267,66.8279111 Z" id="Shape"></path>
                        <path d="M63.6707556,46.8919111 L51.3868444,59.1048889 L47.3971556,55.0940444 C46.2970667,53.9939556 44.5324444,53.9939556 43.4323556,55.0940444 C42.3322667,56.1941333 42.3322667,57.9587556 43.4112,59.0600889 L49.3932444,65.0657778 C49.9184,65.5909333 50.6302222,65.8896 51.3868444,65.8896 C52.1185778,65.8896 52.8304,65.5909333 53.3580444,65.0657778 L67.6355556,50.8778667 C68.7356444,49.7777778 68.7356444,48.0131556 67.6604444,46.9130667 C66.5603556,45.8129778 64.7708444,45.8129778 63.6707556,46.8919111 Z" id="Path"></path>
                    </g>
                </g>
            </g>
        </g>
    </g>
</svg>