<svg height="574" viewBox="0 0 347 574" width="347" xmlns="http://www.w3.org/2000/svg"><g fill="none" fill-rule="evenodd"><g opacity=".9" transform="translate(.5 .5)"><g fill="#adafb2"><path d="m.15 494.5h345.8v-494h-345.8zm16.4666667-477.5333333h312.8666663v461.0666663h-312.8666663z"/><path d="m113.983333 262.266667h118.133333v14.766667h-118.133333z" fill-rule="nonzero"/><path d="m77.066667 291.8h191.966667v14.766667h-191.966667z" fill-rule="nonzero"/><path d="m77.066667 321.333333h191.966667v14.766667h-191.966667z" fill-rule="nonzero"/><path d="m77.066667 350.866667h191.966667v14.766667h-191.966667z" fill-rule="nonzero"/><path d="m106.6 387.783333h44.3v14.766667h-44.3z" fill-rule="nonzero"/><path d="m195.2 387.783333h44.3v14.766667h-44.3z" fill-rule="nonzero"/></g><path d="m276.416667 70.3v-14.7666667h-206.7333337v14.7666667c0 4.43-2.9533333 7.3833333-7.3833333 7.3833333h-14.7666667v339.6333337h14.7666667c4.43 0 7.3833333 2.953333 7.3833333 7.383333v14.766667h206.7333337v-14.766667c0-4.43 2.953333-7.383333 7.383333-7.383333h14.766667v-339.6333337h-14.766667c-4.43 0-7.383333-2.9533333-7.383333-7.3833333zm7.383333 332.25c-12.551667 0-22.15 9.598333-22.15 22.15h-177.2c0-12.551667-9.5983333-22.15-22.15-22.15v-310.1c12.5516667 0 22.15-9.5983333 22.15-22.15h177.2c0 12.5516667 9.598333 22.15 22.15 22.15z" fill-rule="nonzero" opacity=".65" stroke="#adafb2" stroke-width="6"/></g><g transform="translate(174 346)"><g fill="#f16139" fill-rule="nonzero"><path d="m63.55-3.55766833 7.2613503 7.84690767 8.926893-5.88253739 5.1716872 9.35860441 10.0757374-3.57497865 2.7810676 10.32153339 10.6345765-1.0592907.232468 10.6913356 10.583444 1.5156808-2.335956 10.4339396 9.912808 4.0067921-4.76145 9.5689572 8.662947 6.2592534-6.912954 8.1543022 6.915766 8.1528388-8.6639 6.2599423 4.761365 9.5709805-9.912532 4.0066807 2.335812 10.4332944-10.583311 1.517856-.232486 10.687753-10.6349188-1.059325-2.7831898 10.323463-10.0752939-3.574821-5.1719567 9.359092-8.9269236-5.884751-7.2610502 7.846583-7.2610502-7.846583-8.9269236 5.884751-5.1718711-9.358937-10.0732714 3.574881-2.7832616-10.323729-10.6376206 1.059376-.2302923-10.687753-10.5848598-1.517763 2.3358763-10.4335809-9.91041441-4.006711 4.76111606-9.5704793-8.66571538-6.2596688 6.91562887-8.154871-6.91562887-8.154871 8.66552429-6.2595308-4.7612005-9.5684559 9.91068994-4.0068224-2.33602062-10.4342254 10.58500412-1.5155901.230278-10.6892825 10.637772 1.0593905 2.7832882-10.32163468 10.0731077 3.57482375 5.1716016-9.35844952 8.926893 5.88253739zm0 24.39716833c-11.9408655 0-22.751194 4.8403378-30.5763669 12.6658576-7.8253967 7.8257436-12.6654831 18.6368404-12.6654831 30.5780424s4.8400864 22.7522988 12.6654831 30.5780424c7.8251729 7.8255196 18.6355014 12.6658576 30.5763669 12.6658576 11.941674 0 22.7519016-4.840186 30.5768104-12.6657886 7.8253566-7.8260502 12.6650396-18.6378142 12.6650396-30.5801614 0-11.9405446-4.839868-22.7514028-12.6653966-30.576931-7.8248921-7.8248921-18.6349674-12.664919-30.5764534-12.664919z" stroke="#fdf9f8" stroke-width="6"/><path d="m84.8495 123.1152-3.6572 6.61535-1.50265 2.71625-2.5912-1.70765-6.3099-4.15945-5.13115 5.5473-2.1074 2.2796-2.1074-2.2796-5.1332-5.5473-6.30785 4.15945-2.59325 1.70765-1.5006-2.71625-3.65925-6.61535-7.11965 2.52355-1.0127.36285v100.13905l29.4339-29.43595 29.4339 29.43595v-100.13905l-1.01475-.36285z"/><circle cx="63.55" cy="64.0834" r="47.5"/></g><path d="m83.9476113 69.1977596c-6.8216193 1.7065022-13.7755529 2.8310436-20.7870645 3.3615385-6.6948826-.498852-13.3283431-1.6242821-19.8134315-3.3615385 1.5970293 9.9633755 10.1684163 17.3039741 20.2515663 17.3435898 10.097282.0527458 18.7622357-7.3148522 20.3489297-17.3435898zm10.2207424-17.8267934c5.1391384 12.3775887 2.3189705 26.6346036-7.1447294 36.1193081-9.4636998 9.4847044-23.7059263 12.3279537-36.0818424 7.2032046-12.375916-5.124749-20.4466221-17.2075654-20.4466221-30.6111039.0267239-18.2661081 14.802401-33.0745797 33.0548402-33.1282771 13.3935372-.0196391 25.4792152 8.0392797 30.6183537 20.4168683zm-68.5900405 12.7114088c0 20.9868205 17.0005032 38 37.9716868 38s37.971687-17.0131795 37.971687-38-17.0005034-38-37.971687-38-37.9716868 17.0131795-37.9716868 38z" fill="#fff"/></g><g fill="#b5b6b9" fill-rule="nonzero" transform="translate(118.5 104)"><path d="m55.5345778 22.9201778c-18.2410667 0-33.0711111 14.8263111-33.0711111 33.0673778 0 18.2199111 14.8300444 33.0698666 33.0711111 33.0698666 18.2448 0 33.0711111-14.8512 33.0711111-33.0698666 0-18.2410667-14.8263111-33.0673778-33.0711111-33.0673778zm0 60.5235555c-15.1237334 0-27.4561778-12.3038222-27.4561778-27.4561777 0-15.1237334 12.3075556-27.4536889 27.4561778-27.4536889s27.4561778 12.3287111 27.4561778 27.4536889c0 15.1274666-12.3287112 27.4561777-27.4561778 27.4561777z"/><path d="m108.611378 60.5272889-1.9936-2.7502222c-.938311-1.2842667-.961956-3.0464-.021156-4.3530667l1.946311-2.7738667c1.5344-2.1777777 2.084445-4.928 1.468445-7.5413333-.619734-2.6133333-2.314667-4.8334222-4.676622-6.0940444l-2.980445-1.6040889c-1.4224-.7566223-2.175289-2.3146667-1.923911-3.8976l.5712-3.3450667c.435556-2.6369778-.273778-5.3411556-1.9463111-7.4256-1.6949333-2.0869333-4.1962667-3.3450667-6.8519111-3.4608l-3.3936-.1368889c-1.6040889-.0696889-2.9816889-1.1486222-3.4147556-2.6830222l-.9843555-3.2330667c-1.1461334-3.96479998-4.8371556-6.73617776-8.9848889-6.73617776-1.2606222 0-2.5212445.25262223-3.6910222.75662223l-3.1173334 1.32782222c-1.4435555.61973333-3.2081778.23146667-4.2385778-.93831111l-2.2686222-2.52124445c-1.7633778-1.97244444-4.3057778-3.11733333-6.9402666-3.11733333-2.7066667 0-5.2714667 1.16977778-7.0609778 3.20817778l-2.2001778 2.56728889c-1.0304 1.19093333-2.7738667 1.60408889-4.2385778 1.00924444l-3.1409778-1.28177778c-1.1448888-.4592-2.3358222-.71057777-3.5516444-.71057777-4.1925333 0-7.9059556 2.81991111-9.0085333 6.87555554l-.8935111 3.2753778c-.4131556 1.5368889-1.7870223 2.6369778-3.3911112 2.7278222l-3.3699555.2065778c-2.6581333.1368889-5.1557333 1.4435555-6.8058667 3.5516444-1.6526222 2.1080889-2.31466664 4.8371556-1.83555553 7.4492445l.61973333 3.3239111c.2974222 1.5804444-.4592 3.1633778-1.85671111 3.9411555l-2.95555556 1.6501334c-2.33955555 1.3066666-4.01084444 3.5516444-4.58453333 6.1649778-.57368889 2.6133333 0 5.3623111 1.58293333 7.5164444l1.9936 2.7278222c.93831111 1.2855111.9632 3.0476445.02115556 4.3530667l-1.94755556 2.7738667c-1.5344 2.1790222-2.08444444 4.928-1.4672 7.5413333.61973334 2.6133333 2.31466667 4.8346667 4.67537778 6.0940444l2.98044445 1.6040889c1.42240004.7566222 2.17528884 2.3146667 1.92266664 3.8976l-.5712 3.3450667c-.43431109 2.6332444.2737778 5.3411555 1.9475556 7.4256 1.6949333 2.0869333 4.1962666 3.3450667 6.8506666 3.4595555l3.3936.1368889c1.6040889.0696889 2.9804445 1.1461334 3.4147556 2.6817778l.9383111 3.2542219c1.1448889 3.9648 4.8371556 6.738667 8.9836445 6.738667 1.2606222 0 2.5212444-.251378 3.6910222-.756622l3.1136-1.329067c1.4460444-.617244 3.2119111-.228978 4.2410666.9408l2.2698667 2.518756c1.7708445 1.972444 4.3132445 3.117333 6.9477333 3.117333 2.7066667 0 5.2714667-1.167289 7.0609778-3.208178l2.2200889-2.567289c1.0328889-1.190933 2.7738667-1.604089 4.2410667-1.009244l3.1384889 1.284267c1.1448889.457955 2.3395555.710577 3.5541333.710577 4.1925333 0 7.9059556-2.819911 9.0048-6.875555l.8935111-3.2778669c.4131556-1.5344 1.7895111-2.6332444 3.3936-2.7278222l3.3911111-.2040889c2.6830222-.1605333 5.1569778-1.4460444 6.8058667-3.5528889 1.6526221-2.1093333 2.3146671-4.8122667 1.8355551-7.4467555l-.619733-3.3239112c-.297422-1.5829333.4592-3.1633777 1.856711-3.9411555l2.955556-1.6526222c2.339555-1.3054223 4.010844-3.5516445 4.585778-6.1637334.573688-2.6133333 0-5.3623111-1.584178-7.5164444zm-3.895111 6.3006222c-.227734 1.0552889-.893511 1.9264-1.831823 2.4552889l-2.9555551 1.6501333c-3.5080889 1.9463111-5.3859556 5.9111111-4.6542222 9.8522667l.6197333 3.3239111c.2065778 1.0789333-.0696889 2.1329778-.7317333 2.9804445-.6657778.8487111-1.6289778 1.3527111-2.7278223 1.4199111l-3.3699555.2065777c-4.0108445.2314667-7.4256 2.9804445-8.4784 6.8544l-.8935111 3.2542223c-.4355556 1.6252443-1.9264 2.7489773-3.5976889 2.7489773-.4840889 0-.9632-.090844-1.4224-.273777l-3.1409778-1.284267c-1.1461333-.4592-2.3370667-.7118222-3.5516444-.7118222-2.7041778 0-5.2702223 1.1697782-7.0572445 3.2081782l-2.2238222 2.547377c-.7105778.822578-1.7198222 1.280534-2.8199111 1.280534-1.0752 0-2.0632889-.434311-2.7713778-1.235734l-2.2698667-2.521244c-1.7646222-1.9712-4.3082666-3.1173334-6.9664-3.1173334-1.2855111 0-2.5212444.2513777-3.6910222.7566224l-3.1173333 1.326578c-.4803556.206577-.9594667.301155-1.4647111.301155-1.6526222 0-3.1173334-1.103822-3.5765334-2.6830221l-.9383111-3.2542222c-1.1237333-3.8490667-4.5633777-6.5557334-8.5742222-6.7374223l-3.3911111-.1368888c-1.0789333-.0448-2.0632889-.5288889-2.7278222-1.3763556-.6869334-.8474667-.9594667-1.9002667-.7777778-2.9555556l.5712-3.3450666c.6657778-3.9660445-1.2581333-7.8848-4.8122667-9.7863111l-2.97795552-1.6040889c-.9632-.504-1.62897778-1.3763556-1.88035556-2.4304-.25137778-1.0540445-.04604444-2.1304889.59608889-3.0016l1.94755556-2.7738667c2.31466663-3.2741333 2.29351113-7.6520889-.09084445-10.9063111l-1.9936-2.7278222c-.64088889-.8723556-.87235555-1.9475556-.61973333-3.0016.23146667-1.0540445.896-1.9264 1.83555555-2.4515556l2.95555556-1.6501333c3.5056-1.9475556 5.3872-5.9123556 4.6517333-9.856l-.5960889-3.2990222c-.2065777-1.0789334.0696889-2.1329778.7317334-2.9804445.6657778-.8474666 1.6289778-1.3514666 2.7278222-1.4186666l3.3699556-.2065778c4.0108444-.2314667 7.4007111-2.9804445 8.4796444-6.8544l.8935111-3.2753778c.4343111-1.6289778 1.9264-2.7527111 3.5976889-2.7527111.4828444 0 .9632.0945778 1.4224.2762667l3.1409778 1.2817777c1.1448889.4592 2.3358222.7105778 3.5516444.7105778 2.7041778 0 5.2714667-1.1697778 7.0572445-3.20817777l2.2238222-2.5424c.7105778-.82631111 1.7198222-1.28551111 2.8199111-1.28551111 1.0752 0 2.0632889.43804445 2.7713778 1.23946667l2.2686222 2.51875555c1.7658667 1.97119996 4.3082667 3.11733336 6.9676444 3.11733336 1.2842667 0 2.5212445-.2526222 3.6910223-.7566222l3.1173333-1.3278223c.4803556-.2065777.9594667-.2974222 1.4647111-.2974222 1.6526222 0 3.1173333 1.1000889 3.5765333 2.6792889l.9383112 3.2567111c1.1237333 3.8490667 4.5633777 6.5532445 8.5742222 6.7361778l3.3911111.1393778c1.0789333.0460444 2.0632889.5251555 2.7502222 1.3738666.6894222.8474667.9619556 1.9015111.7802667 2.9555556l-.5736889 3.3475555c-.6657778 3.9648 1.2606222 7.8810667 4.8122667 9.7863112l2.9804444 1.6040888c.9632.5015112 1.626489 1.3738667 1.877867 2.4279112.252622 1.0540444.048533 2.1329777-.5712 3.0016l-1.946311 2.7738666c-2.3146671 3.2778667-2.294756 7.6533334.090844 10.9112889l1.9936 2.7240889c.545067.8698667.776533 1.9450667.545067 2.9991111z"/><path d="m63.6707556 46.8919111-12.2839112 12.2129778-3.9896888-4.0108445c-1.1000889-1.1000888-2.8647112-1.1000888-3.9648 0-1.1000889 1.1000889-1.1000889 2.8647112-.0211556 3.9660445l5.9820444 6.0056889c.5251556.5251555 1.2369778.8238222 1.9936.8238222.7317334 0 1.4435556-.2986667 1.9712-.8238222l14.2775112-14.1879111c1.1000888-1.1000889 1.1000888-2.8647111.0248888-3.9648-1.1000888-1.1000889-2.8896-1.1000889-3.9896888-.0211556z"/></g></g></svg>