<?xml version="1.0" encoding="UTF-8"?>
<svg width="267px" height="259px" viewBox="0 0 267 259" version="1.1" xmlns="http://www.w3.org/2000/svg" xmlns:xlink="http://www.w3.org/1999/xlink">
    <title>D6B00192-4A3D-4654-A349-3A334D5BF762@2x</title>
    <defs>
        <filter id="filter-1">
            <feColorMatrix in="SourceGraphic" type="matrix" values="0 0 0 0 1.000000 0 0 0 0 1.000000 0 0 0 0 1.000000 0 0 0 1.000000 0"></feColorMatrix>
        </filter>
        <polygon id="path-2" points="0.000516556291 0.115933775 266.634305 0.115933775 266.634305 196.947987 0.000516556291 196.947987"></polygon>
        <polygon id="path-4" points="0.910516556 0.103314292 11.7392583 0.103314292 11.7392583 17.7950229 0.910516556 17.7950229"></polygon>
        <polygon id="path-6" points="0 257.884238 266.634305 257.884238 266.634305 0.721854305 0 0.721854305"></polygon>
    </defs>
    <g id="Design" stroke="none" stroke-width="1" fill="none" fill-rule="evenodd">
        <g id="Why-Proud-Smile" transform="translate(-893.000000, -10623.000000)">
            <g id="Group-11" transform="translate(0.000000, 10463.000000)">
                <g id="facespa_logo" transform="translate(893.000000, 160.000000)" filter="url(#filter-1)">
                    <g>
                        <g id="Group-3" transform="translate(0.000000, 0.606093)">
                            <mask id="mask-3" fill="white">
                                <use xlink:href="#path-2"></use>
                            </mask>
                            <g id="Clip-2"></g>
                            <path d="M106.905285,76.9881192 C105.663828,78.1021589 103.804225,78.7237483 101.944623,78.7237483 C96.1178675,78.7237483 92.7705828,73.2689139 92.7705828,65.0849404 C92.7705828,57.2746093 95.6219735,53.9256026 101.076808,51.6958013 L106.905285,49.3385828 L106.905285,76.9881192 Z M137.652437,78.5997748 C136.908596,78.9716954 135.668861,79.3436159 134.057205,79.3436159 C131.081841,79.3436159 129.34449,77.4840132 129.34449,73.8870596 L129.34449,40.6604371 C129.34449,24.5421589 118.930715,19.0873245 101.698397,19.0873245 C87.6876689,19.0873245 74.4207815,25.1620265 74.4207815,35.6997748 C74.4207815,40.164543 77.1481987,43.2638808 80.4954834,44.3813642 L94.8781325,42.5200397 C94.1342914,40.164543 93.5144238,35.6997748 93.5144238,32.4764636 C93.5144238,25.6579205 95.6219735,20.9469272 100.45694,20.9469272 C105.291907,20.9469272 106.905285,25.4099735 106.905285,31.856596 L106.905285,47.232755 L89.423298,53.1834834 C78.2639603,56.9026887 70.8255497,61.9856026 70.8255497,71.7812318 C70.8255497,77.8025563 73.5288609,82.238053 77.6475364,84.9172583 C72.8986623,83.3021589 67.690053,82.3878543 62.0991921,82.3878543 C56.959457,82.3878543 51.9987947,83.4020265 47.5770728,85.2822914 C36.7948212,84.5384503 33.3511126,83.278053 33.3511126,76.7384503 L33.3511126,43.5118278 L44.1368079,43.5118278 C53.0646225,43.5118278 55.173894,48.7187152 56.0399868,57.1506358 L57.7756159,57.1506358 L57.7756159,27.2695762 L56.0399868,27.2695762 C55.173894,35.8254702 53.0646225,41.0323576 44.1368079,41.0323576 L33.3511126,41.0323576 L33.3511126,2.59712583 L44.7583974,2.59712583 C56.4119073,2.59712583 63.1081987,7.1841457 69.3068742,25.1620265 L70.6705828,25.1620265 L70.0507152,0.115933775 L0.000516556291,0.115933775 L0.000516556291,1.97725828 C8.30674172,2.84507285 9.05058278,3.96083444 9.05058278,10.407457 L9.05058278,76.8641457 C9.05058278,83.3107682 8.30674172,84.4265298 0.000516556291,85.2943444 L0.000516556291,87.153947 L43.8768079,87.153947 C35.7703179,91.8959338 30.2345563,99.9542119 30.2345563,110.405868 C30.2345563,141.650636 75.1164106,130.740967 75.1164106,155.659642 C75.1164106,164.835404 67.925947,169.92004 58.6279338,169.92004 C43.6254172,169.92004 33.2099205,154.917523 30.2345563,141.029046 L28.8708477,141.029046 L30.2345563,163.595669 C36.0613113,168.182689 46.972702,171.901894 58.3782649,171.901894 C77.9678013,171.901894 93.5919073,160.000437 93.5919073,142.14653 C93.5919073,108.918185 47.9644901,117.720305 47.9644901,97.7588477 C47.9644901,89.7022914 53.9169404,84.3714305 62.8430331,84.3714305 C74.7444901,84.3714305 83.6723046,95.0314305 86.7716424,109.909974 L88.0113775,109.909974 L87.5172053,89.7505033 L87.520649,89.7505033 L87.520649,87.863351 C87.8236954,87.875404 88.123298,87.8977881 88.4315099,87.8977881 C96.6137616,87.8977881 103.308331,83.1885166 107.027536,78.3518278 C108.764887,84.3025563 114.219722,88.3936821 121.534159,88.3936821 C128.476675,88.3936821 134.801046,84.4265298 138.150053,79.2196424 L137.652437,78.5997748 Z M253.211245,102.035934 C245.798662,102.035934 239.789391,108.045205 239.789391,115.457788 C239.789391,122.870371 245.798662,128.881364 253.211245,128.881364 C260.623828,128.881364 266.634821,122.870371 266.634821,115.457788 C266.634821,108.045205 260.623828,102.035934 253.211245,102.035934 L253.211245,102.035934 Z M253.211245,103.757788 C259.663033,103.757788 264.912967,109.007722 264.912967,115.457788 C264.912967,121.909576 259.663033,127.15951 253.211245,127.15951 C246.759457,127.15951 241.511245,121.909576 241.511245,115.457788 C241.511245,109.007722 246.759457,103.757788 253.211245,103.757788 L253.211245,103.757788 Z M253.211245,123.407589 C256.83747,123.407589 259.83694,120.75249 260.393099,117.281232 C260.393099,117.281232 255.509921,118.45898 253.033894,118.45898 C250.561311,118.45898 246.029391,117.281232 246.029391,117.281232 C246.583828,120.75249 249.583298,123.407589 253.211245,123.407589 L253.211245,123.407589 Z M210.381841,160.496331 L210.381841,132.846795 L204.553364,135.204013 C199.09853,137.433815 196.247139,140.782821 196.247139,148.593152 C196.247139,156.777126 199.594424,162.23196 205.421179,162.23196 C207.280781,162.23196 209.140384,161.610371 210.381841,160.496331 L210.381841,160.496331 Z M232.821046,157.395272 C232.821046,160.992225 234.558397,162.851828 237.53204,162.851828 C239.145417,162.851828 240.385152,162.479907 241.128993,162.107987 L241.624887,162.727854 C238.277603,167.934742 231.953232,171.901894 225.010715,171.901894 C217.696278,171.901894 212.241444,167.810768 210.504093,161.86004 C206.784887,166.696728 200.090318,171.406 191.906344,171.406 C182.360384,171.406 174.302106,165.703219 174.302106,155.289444 C174.302106,145.493815 181.740517,140.410901 192.898132,136.691695 L210.381841,130.740967 L210.381841,115.364808 C210.381841,108.918185 208.768464,104.455139 203.933497,104.455139 C199.09853,104.455139 196.989258,109.166132 196.989258,115.984675 C196.989258,119.209709 197.610848,123.672755 198.352967,126.028252 L183.97204,127.889576 C180.623033,126.772093 177.895616,123.672755 177.895616,119.209709 C177.895616,108.670238 191.164225,102.595536 205.173232,102.595536 C222.407272,102.595536 232.821046,108.050371 232.821046,124.168649 L232.821046,157.395272 Z M147.775219,140.658848 C147.775219,123.672755 141.82449,114.870636 132.402503,114.870636 C129.79906,114.870636 127.317868,115.488781 125.088066,116.978185 L125.088066,155.413417 C125.088066,164.091563 127.939457,169.794344 133.766212,169.794344 C142.816278,169.794344 147.775219,157.023351 147.775219,140.658848 L147.775219,140.658848 Z M134.881974,195.334609 L134.881974,196.947987 L95.2070066,196.947987 L95.2070066,195.334609 C100.165947,194.964411 102.275219,194.468517 102.275219,190.499642 L102.275219,117.224411 L95.3292583,110.281894 L95.3292583,109.786 L125.088066,102.595536 L125.58396,102.595536 L125.088066,115.860702 C128.681576,109.414079 136.367934,102.595536 146.537205,102.595536 C161.538,102.595536 170.959987,114.496993 170.959987,133.094742 C170.959987,157.149046 155.215351,171.901894 135.253894,171.901894 C130.789126,171.901894 127.317868,170.910106 125.088066,169.29845 L125.088066,190.00547 C125.088066,193.970901 128.185682,194.714742 134.881974,195.334609 L134.881974,195.334609 Z M223.595351,43.8837483 L243.804755,43.8837483 C243.804755,30.7425563 241.077338,21.0709007 234.50502,21.0709007 C227.43853,21.0709007 223.967272,31.7343444 223.595351,43.8837483 L223.595351,43.8837483 Z M235.002636,88.3936821 C217.396675,88.3936821 203.261974,75.9963311 203.261974,55.2893113 C203.261974,34.8336821 218.510715,19.0873245 236.490318,19.0873245 C254.344225,19.0873245 263.518265,31.112755 263.518265,45.6193775 L263.518265,46.3632185 L223.595351,46.3632185 C223.843298,63.7212318 231.903298,73.2689139 244.796543,73.2689139 C251.988728,73.2689139 258.681576,70.6637483 263.270318,64.5890464 L263.766212,64.8369934 C261.162768,79.0956689 250.00343,88.3936821 235.002636,88.3936821 L235.002636,88.3936821 Z M160.026212,44.8772583 C160.026212,63.4732848 168.082768,73.2689139 180.607536,73.2689139 C187.550053,73.2689139 193.376808,70.6637483 197.715881,64.5890464 L198.211775,64.8369934 C195.732305,79.0956689 185.194556,88.3936821 170.438265,88.3936821 C153.329921,88.3936821 140.063033,75.9963311 140.063033,55.2893113 C140.063033,34.9576556 155.685417,19.0873245 174.655086,19.0873245 C187.054159,19.0873245 197.219987,24.4181854 197.219987,34.3360662 C197.219987,39.0487815 194.368596,42.6440132 191.641179,43.8837483 L179.490053,43.8837483 C180.111642,41.1563311 180.233894,39.0487815 180.233894,36.8172583 C180.233894,29.6250728 178.622238,21.1948742 172.547536,21.1948742 C165.109126,21.1948742 160.026212,32.6021589 160.026212,44.8772583 L160.026212,44.8772583 Z" id="Fill-1" fill="#55311B" mask="url(#mask-3)"></path>
                        </g>
                        <path d="M126.33004,250.374887 L124.329245,245.042305 C124.070967,244.36906 123.802358,243.539126 123.528583,242.559391 C123.354675,243.311841 123.10845,244.140053 122.786464,245.042305 L120.763285,250.374887 L126.33004,250.374887 Z M129.095338,257.649722 L126.953351,252.175947 L120.055603,252.175947 L117.937722,257.649722 L115.912821,257.649722 L122.715868,240.369192 L124.399841,240.369192 L131.16845,257.649722 L129.095338,257.649722 Z" id="Fill-4" fill="#55311B"></path>
                        <polygon id="Fill-6" fill="#55311B" points="143.849563 257.649033 134.257113 257.649033 134.257113 240.440821 143.849563 240.440821 143.849563 242.217775 136.257907 242.217775 136.257907 247.762146 143.389828 247.762146 143.389828 249.527046 136.257907 249.527046 136.257907 255.860026 143.849563 255.860026"></polygon>
                        <g id="Group-10" transform="translate(146.357616, 240.089216)">
                            <mask id="mask-5" fill="white">
                                <use xlink:href="#path-4"></use>
                            </mask>
                            <g id="Clip-9"></g>
                            <path d="M11.7392583,12.9810626 C11.7392583,14.4962944 11.1917086,15.6757646 10.0914437,16.5246388 C8.99290066,17.3717911 7.50177483,17.7953673 5.61806623,17.7953673 C3.57939073,17.7953673 2.01078146,17.5336454 0.910516556,17.006758 L0.910516556,15.0765593 C1.61647682,15.3744401 2.3861457,15.6086123 3.21780132,15.7825196 C4.04945695,15.9564269 4.87422517,16.0407977 5.68866225,16.0407977 C7.02482119,16.0407977 8.02866225,15.7876852 8.70190728,15.2831818 C9.37859603,14.7752348 9.71435762,14.0727183 9.71435762,13.1687448 C9.71435762,12.5729832 9.59554967,12.0839765 9.35621192,11.7051686 C9.11687417,11.3229169 8.71568212,10.9716587 8.15607947,10.6496719 C7.59475497,10.329407 6.74243709,9.9643739 5.59568212,9.55629442 C3.99435762,8.98291694 2.85104636,8.30450635 2.16402649,7.51934078 C1.47700662,6.73417522 1.13435762,5.70967191 1.13435762,4.4475527 C1.13435762,3.12000303 1.63369536,2.0662282 2.62892715,1.28106264 C3.62588079,0.495897074 4.94482119,0.103314292 6.58402649,0.103314292 C8.29554967,0.103314292 9.86760265,0.41841363 11.3036291,1.0451686 L10.6803179,2.78768515 C9.26150993,2.19020171 7.87886093,1.89404277 6.53753642,1.89404277 C5.47687417,1.89404277 4.65038411,2.11960568 4.05290066,2.57589707 C3.45713907,3.03218846 3.15925828,3.66238714 3.15925828,4.47165866 C3.15925828,5.06742025 3.26945695,5.55642688 3.48813245,5.93695668 C3.7085298,6.31748648 4.07872848,6.6670229 4.60045033,6.98384409 C5.12217219,7.30238714 5.92111258,7.65192356 6.99554967,8.03761893 C8.80177483,8.68159244 10.0432318,9.37033416 10.7216424,10.1090097 C11.400053,10.8476852 11.7392583,11.8033143 11.7392583,12.9810626" id="Fill-8" fill="#55311B" mask="url(#mask-5)"></path>
                        </g>
                        <polygon id="Fill-11" fill="#55311B" points="167.635947 257.649033 165.635152 257.649033 165.635152 242.217775 160.185483 242.217775 160.185483 240.440821 173.085616 240.440821 173.085616 242.217775 167.635947 242.217775"></polygon>
                        <polygon id="Fill-13" fill="#55311B" points="189.46355 257.649033 187.462755 257.649033 187.462755 249.551152 178.398914 249.551152 178.398914 257.649033 176.398119 257.649033 176.398119 240.440821 178.398914 240.440821 178.398914 247.762146 187.462755 247.762146 187.462755 240.440821 189.46355 240.440821"></polygon>
                        <polygon id="Fill-15" fill="#55311B" points="203.776464 257.649033 194.184013 257.649033 194.184013 240.440821 203.776464 240.440821 203.776464 242.217775 196.184808 242.217775 196.184808 247.762146 203.316728 247.762146 203.316728 249.527046 196.184808 249.527046 196.184808 255.860026 203.776464 255.860026"></polygon>
                        <polygon id="Fill-17" fill="#55311B" points="213.611523 257.649033 211.610728 257.649033 211.610728 242.217775 206.16106 242.217775 206.16106 240.440821 219.061192 240.440821 219.061192 242.217775 213.611523 242.217775"></polygon>
                        <mask id="mask-7" fill="white">
                            <use xlink:href="#path-6"></use>
                        </mask>
                        <g id="Clip-20"></g>
                        <polygon id="Fill-19" fill="#55311B" mask="url(#mask-7)" points="222.854437 257.648344 224.855232 257.648344 224.855232 240.440132 222.854437 240.440132"></polygon>
                        <path d="M237.305616,241.982397 C235.413298,241.982397 233.92045,242.612596 232.827073,243.871272 C231.731974,245.131669 231.184424,246.855245 231.184424,249.045444 C231.184424,251.295907 231.713033,253.036702 232.766808,254.266106 C233.824026,255.493788 235.328927,256.106768 237.28151,256.106768 C238.483364,256.106768 239.852238,255.891536 241.389854,255.459351 L241.389854,257.213921 C240.198331,257.659881 238.726146,257.883722 236.976742,257.883722 C234.442172,257.883722 232.484424,257.115775 231.108662,255.578159 C229.731179,254.038821 229.042437,251.853788 229.042437,249.021338 C229.042437,247.247828 229.374755,245.692993 230.035947,244.360278 C230.700583,243.025841 231.657934,241.997894 232.908,241.276437 C234.16151,240.55498 235.633695,240.193391 237.329722,240.193391 C239.134225,240.193391 240.711444,240.522265 242.061377,241.181735 L241.214225,242.900146 C239.910781,242.288887 238.60906,241.982397 237.305616,241.982397" id="Fill-21" fill="#55311B" mask="url(#mask-7)"></path>
                        <path d="M255.58,253.070278 C255.58,254.58551 255.030728,255.76498 253.932185,256.613854 C252.833642,257.461007 251.342517,257.884583 249.458808,257.884583 C247.420132,257.884583 245.849801,257.622861 244.751258,257.095974 L244.751258,255.165775 C245.457219,255.463656 246.225166,255.697828 247.058543,255.871735 C247.890199,256.045642 248.714967,256.130013 249.529404,256.130013 C250.863841,256.130013 251.869404,255.876901 252.542649,255.372397 C253.217616,254.86445 253.555099,254.161934 253.555099,253.25796 C253.555099,252.662199 253.436291,252.173192 253.195232,251.794384 C252.957616,251.412132 252.556424,251.060874 251.995099,250.738887 C251.435497,250.418623 250.581457,250.053589 249.436424,249.64551 C247.835099,249.072132 246.691788,248.393722 246.004768,247.608556 C245.317748,246.823391 244.975099,245.798887 244.975099,244.536768 C244.975099,243.209219 245.472715,242.155444 246.469669,241.370278 C247.466623,240.585113 248.785563,240.19253 250.424768,240.19253 C252.13457,240.19253 253.708344,240.507629 255.144371,241.134384 L254.52106,242.876901 C253.10053,242.279417 251.719603,241.983258 250.378278,241.983258 C249.317616,241.983258 248.491126,242.208821 247.893642,242.665113 C247.296159,243.121404 247,243.751603 247,244.560874 C247,245.156636 247.108477,245.645642 247.328874,246.026172 C247.549272,246.406702 247.91947,246.756238 248.441192,247.07306 C248.962914,247.391603 249.761854,247.741139 250.836291,248.126834 C252.640795,248.770808 253.883974,249.45955 254.560662,250.198225 C255.240795,250.936901 255.58,251.89253 255.58,253.070278" id="Fill-22" fill="#55311B" mask="url(#mask-7)"></path>
                        <path d="M22.8715629,248.95057 C22.8715629,246.705272 22.3085166,245.016132 21.1824238,243.877987 C20.0563311,242.739841 18.3826887,242.169907 16.1632185,242.169907 L13.2550066,242.169907 L13.2550066,255.918914 L15.6914305,255.918914 C18.0761987,255.918914 19.8703709,255.331762 21.0705033,254.157457 C22.2706358,252.986596 22.8715629,251.249245 22.8715629,248.95057 M24.9894437,248.879974 C24.9894437,251.719311 24.2197748,253.892291 22.6769934,255.39547 C21.1359338,256.896927 18.9164636,257.649377 16.0203046,257.649377 L11.2542119,257.649377 L11.2542119,240.441166 L16.5265298,240.441166 C19.2040132,240.441166 21.2822914,241.181563 22.7648079,242.665801 C24.2490464,244.148318 24.9894437,246.219709 24.9894437,248.879974" id="Fill-23" fill="#55311B" mask="url(#mask-7)"></path>
                        <polygon id="Fill-24" fill="#55311B" mask="url(#mask-7)" points="38.5406093 257.649033 28.9481589 257.649033 28.9481589 240.440821 38.5406093 240.440821 38.5406093 242.217775 30.9489536 242.217775 30.9489536 247.762146 38.0808742 247.762146 38.0808742 249.527046 30.9489536 249.527046 30.9489536 255.860026 38.5406093 255.860026"></polygon>
                        <path d="M45.0791788,248.774079 L47.8220927,248.774079 C49.2340132,248.774079 50.2705695,248.493417 50.9283179,247.933815 C51.5877881,247.37249 51.9183841,246.528781 51.9183841,245.407854 C51.9183841,244.269709 51.5826225,243.450106 50.9110993,242.947325 C50.241298,242.444543 49.1634172,242.194874 47.6809007,242.194874 L45.0791788,242.194874 L45.0791788,248.774079 Z M45.0791788,250.49249 L45.0791788,257.648517 L43.0783841,257.648517 L43.0783841,240.440305 L47.7979868,240.440305 C49.9089801,240.440305 51.4689801,240.84494 52.4762649,241.65249 C53.4852715,242.461762 53.9897748,243.677391 53.9897748,245.301099 C53.9897748,247.577391 52.8361325,249.115007 50.5288477,249.915669 L55.2019603,257.648517 L52.8361325,257.648517 L48.669245,250.49249 L45.0791788,250.49249 Z" id="Fill-25" fill="#55311B" mask="url(#mask-7)"></path>
                        <path d="M66.3182517,257.649033 L60.4794437,242.395126 L60.3864636,242.395126 C60.4966623,243.603868 60.5500397,245.039894 60.5500397,246.703205 L60.5500397,257.649033 L58.7024901,257.649033 L58.7024901,240.440821 L61.7157351,240.440821 L67.165404,254.635788 L67.260106,254.635788 L72.7562649,240.440821 L75.7471258,240.440821 L75.7471258,257.649033 L73.7446093,257.649033 L73.7446093,246.562013 C73.7446093,245.289563 73.7997086,243.910358 73.9099073,242.41751 L73.8152053,242.41751 L67.9316291,257.649033 L66.3182517,257.649033 Z" id="Fill-26" fill="#55311B" mask="url(#mask-7)"></path>
                        <path d="M88.9990331,250.374887 L86.9982384,245.042305 C86.7399603,244.36906 86.4730728,243.539126 86.1975762,242.559391 C86.0253907,243.311841 85.7774437,244.140053 85.455457,245.042305 L83.4322781,250.374887 L88.9990331,250.374887 Z M91.7643311,257.649722 L89.6223444,252.175947 L82.724596,252.175947 L80.6067152,257.649722 L78.5818146,257.649722 L85.3848609,240.369192 L87.0688344,240.369192 L93.8374437,257.649722 L91.7643311,257.649722 Z" id="Fill-27" fill="#55311B" mask="url(#mask-7)"></path>
                        <polygon id="Fill-28" fill="#55311B" mask="url(#mask-7)" points="96.9255894 257.649033 96.9255894 240.440821 98.9263841 240.440821 98.9263841 255.835921 106.51804 255.835921 106.51804 257.649033"></polygon>
                    </g>
                </g>
            </g>
        </g>
    </g>
</svg>