<svg id="Icons_video_play" data-name="Icons/video_play" xmlns="http://www.w3.org/2000/svg" width="48" height="48" viewBox="0 0 48 48">
  <path id="Combined_Shape" data-name="Combined Shape" d="M0,20A20,20,0,1,1,20,40,20.022,20.022,0,0,1,0,20Zm1.667,0A18.333,18.333,0,1,0,20,1.667,18.354,18.354,0,0,0,1.667,20ZM16,22.757v-5.51a1.382,1.382,0,0,1,2.065-1.078l5.254,2.754a1.2,1.2,0,0,1,0,2.158l-5.254,2.756a1.5,1.5,0,0,1-.681.163A1.319,1.319,0,0,1,16,22.757Z" transform="translate(4 4)" fill="#f05024"/>
</svg>
