<?xml version="1.0" encoding="UTF-8"?>
<svg width="157px" height="54px" viewBox="0 0 157 54" version="1.1" xmlns="http://www.w3.org/2000/svg" xmlns:xlink="http://www.w3.org/1999/xlink">
    <title>Ora 10</title>
    <g id="Mobile" stroke="none" stroke-width="1" fill="none" fill-rule="evenodd">
        <g id="Same-Day--Mobile" transform="translate(-337.000000, -1996.000000)">
            <g id="Ora-10" transform="translate(343.750000, 1996.240537)">
                <g id="Group-3" transform="translate(83.460938, 0.000000)" fill="#55311B" fill-rule="nonzero">
                    <path d="M10.390625,46.4238281 L10.390625,17.9863281 L0,20.1933594 L0,23.2988281 L5.64453125,23.2988281 L5.64453125,46.4238281 L10.390625,46.4238281 Z M30.1757812,46.8339844 C33.1054688,46.8339844 35.3873698,45.8834635 37.0214844,43.9824219 C38.655599,42.0813802 39.4726562,39.2428385 39.4726562,35.4667969 L39.4726562,35.4667969 L39.4726562,28.9628906 C39.4726562,25.1998698 38.6490885,22.3613281 37.0019531,20.4472656 C35.3548177,18.5332031 33.0664062,17.5761719 30.1367188,17.5761719 C27.2070312,17.5761719 24.921875,18.5332031 23.28125,20.4472656 C21.640625,22.3613281 20.8203125,25.1998698 20.8203125,28.9628906 L20.8203125,28.9628906 L20.8203125,35.4667969 C20.8203125,39.2298177 21.6471354,42.0651042 23.3007812,43.9726562 C24.9544271,45.8802083 27.2460938,46.8339844 30.1757812,46.8339844 Z M30.1757812,43.0449219 C28.6523438,43.0449219 27.5032552,42.4947917 26.7285156,41.3945312 C25.953776,40.2942708 25.5664062,38.546224 25.5664062,36.1503906 L25.5664062,36.1503906 L25.5664062,28.2402344 C25.5664062,25.8704427 25.9472656,24.1354167 26.7089844,23.0351562 C27.4707031,21.9348958 28.6132812,21.3847656 30.1367188,21.3847656 C31.6601562,21.3847656 32.8059896,21.9348958 33.5742188,23.0351562 C34.3424479,24.1354167 34.7265625,25.8704427 34.7265625,28.2402344 L34.7265625,28.2402344 L34.7265625,36.1503906 C34.7265625,38.5592448 34.3489583,40.3105469 33.59375,41.4042969 C32.8385417,42.4980469 31.6992188,43.0449219 30.1757812,43.0449219 Z" id="10"></path>
                    <path d="M50.4335938,14.6289062 C51.859375,14.6289062 52.9645182,14.1536458 53.7490234,13.203125 C54.5335286,12.2526042 54.9257812,10.8496094 54.9257812,8.99414062 L54.9257812,8.99414062 L54.9257812,5.64453125 C54.9257812,3.79557292 54.5302734,2.39257812 53.7392578,1.43554688 C52.9482422,0.478515625 51.8398438,0 50.4140625,0 C48.9947917,0 47.891276,0.478515625 47.1035156,1.43554688 C46.3157552,2.39257812 45.921875,3.79557292 45.921875,5.64453125 L45.921875,5.64453125 L45.921875,8.99414062 C45.921875,10.843099 46.3190104,12.2444661 47.1132812,13.1982422 C47.9075521,14.1520182 49.0143229,14.6289062 50.4335938,14.6289062 Z M50.4335938,13.1738281 C49.5416667,13.1738281 48.8678385,12.8580729 48.4121094,12.2265625 C47.9563802,11.5950521 47.7285156,10.641276 47.7285156,9.36523438 L47.7285156,9.36523438 L47.7285156,5.25390625 C47.7285156,3.97786458 47.953125,3.02734375 48.4023438,2.40234375 C48.8515625,1.77734375 49.5221354,1.46484375 50.4140625,1.46484375 C51.3125,1.46484375 51.9879557,1.77734375 52.4404297,2.40234375 C52.8929036,3.02734375 53.1191406,3.97786458 53.1191406,5.25390625 L53.1191406,5.25390625 L53.1191406,9.36523438 C53.1191406,10.6542969 52.8961589,11.6113281 52.4501953,12.2363281 C52.0042318,12.8613281 51.3320312,13.1738281 50.4335938,13.1738281 Z M61.6640625,14.6289062 C63.0898438,14.6289062 64.194987,14.1536458 64.9794922,13.203125 C65.7639974,12.2526042 66.15625,10.8496094 66.15625,8.99414062 L66.15625,8.99414062 L66.15625,5.64453125 C66.15625,3.79557292 65.7607422,2.39257812 64.9697266,1.43554688 C64.1787109,0.478515625 63.0703125,0 61.6445312,0 C60.2252604,0 59.1217448,0.478515625 58.3339844,1.43554688 C57.546224,2.39257812 57.1523438,3.79557292 57.1523438,5.64453125 L57.1523438,5.64453125 L57.1523438,8.99414062 C57.1523438,10.843099 57.5494792,12.2444661 58.34375,13.1982422 C59.1380208,14.1520182 60.2447917,14.6289062 61.6640625,14.6289062 Z M61.6640625,13.1738281 C60.7721354,13.1738281 60.0983073,12.8580729 59.6425781,12.2265625 C59.186849,11.5950521 58.9589844,10.641276 58.9589844,9.36523438 L58.9589844,9.36523438 L58.9589844,5.25390625 C58.9589844,3.97786458 59.1835938,3.02734375 59.6328125,2.40234375 C60.0820312,1.77734375 60.7526042,1.46484375 61.6445312,1.46484375 C62.5429688,1.46484375 63.2184245,1.77734375 63.6708984,2.40234375 C64.1233724,3.02734375 64.3496094,3.97786458 64.3496094,5.25390625 L64.3496094,5.25390625 L64.3496094,9.36523438 C64.3496094,10.6542969 64.1266276,11.6113281 63.6806641,12.2363281 C63.2347005,12.8613281 62.5625,13.1738281 61.6640625,13.1738281 Z" id="00" opacity="0.7"></path>
                </g>
                <g id="Group-16" transform="translate(16.750000, 33.469283) rotate(-270.000000) translate(-16.750000, -33.469283) translate(3.750000, 16.719283)">
                    <path d="M12.8909587,-12.2381389 L16.1254993,-0.890928647 C16.5065706,0.445921408 17.1315777,1.73464483 17.987037,2.9814681 C18.672216,3.9801096 19.5981464,5.05563756 20.7534219,6.2174023 C23.2455529,7.57199878 25.3435191,9.56009705 26.8306819,11.9659428 C28.3638549,14.4462211 29.25,17.3695224 29.25,20.5 C29.25,24.9873136 27.4311568,29.0498136 24.4904852,31.9904852 C21.5498136,34.9311568 17.4873136,36.75 13,36.75 C8.51268641,36.75 4.45018641,34.9311568 1.50951481,31.9904852 C-1.4311568,29.0498136 -3.25,24.9873136 -3.25,20.5 C-3.25,17.3706965 -2.36452193,14.4484098 -0.832424083,11.968568 C0.654197948,9.56233292 2.75165731,7.57358619 5.24293306,6.2178291 C6.4101923,5.04263568 7.35099817,3.94627516 8.05473136,2.92059115 C8.91457227,1.66738173 9.52550281,0.41967933 9.85912185,-0.835095481 L9.85912185,-0.835095481 L12.8909587,-12.2381389 Z" id="Combined-Shape" stroke="#F3F1F1" stroke-width="6.5" fill="#F5701D"></path>
                    <rect id="Rectangle" fill="#FFFFFF" x="12.5" y="14" width="1" height="13" rx="0.5"></rect>
                    <rect id="Rectangle-Copy-2" fill="#FFFFFF" x="14.5" y="16.5" width="1" height="8" rx="0.5"></rect>
                    <rect id="Rectangle-Copy-9" fill="#FFFFFF" transform="translate(11.000000, 20.500000) rotate(-180.000000) translate(-11.000000, -20.500000) " x="10.5" y="16.5" width="1" height="8" rx="0.5"></rect>
                    <rect id="Rectangle-Copy-10" fill="#FFFFFF" transform="translate(9.000000, 20.500000) rotate(-180.000000) translate(-9.000000, -20.500000) " x="8.5" y="18.5" width="1" height="4" rx="0.5"></rect>
                    <rect id="Rectangle-Copy-8" fill="#FFFFFF" x="16.5" y="18.5" width="1" height="4" rx="0.5"></rect>
                </g>
                <rect id="Rectangle" fill="#F5701D" fill-rule="nonzero" x="31.0803223" y="32.9492827" width="37.52" height="1.04" rx="0.52"></rect>
            </g>
        </g>
    </g>
</svg>