<?xml version="1.0" encoding="UTF-8"?>
<svg width="205px" height="89px" viewBox="0 0 205 89" version="1.1" xmlns="http://www.w3.org/2000/svg" xmlns:xlink="http://www.w3.org/1999/xlink">
    <title>Ora 8</title>
    <g id="Mobile" stroke="none" stroke-width="1" fill="none" fill-rule="evenodd">
        <g id="Same-Day--Mobile" transform="translate(-307.000000, -940.000000)">
            <g id="Ora-8" transform="translate(314.250000, 940.576172)">
                <g id="Group-3" transform="translate(79.250000, 0.000000)" fill-rule="nonzero">
                    <path d="M3.9140625,70.7741477 C4.87890625,70.7741477 5.64453125,70.5671165 6.2109375,70.153054 C6.77734375,69.7389915 7.06054688,69.1589134 7.06054688,68.4128196 C7.06054688,67.6979759 6.82226562,67.1315696 6.34570312,66.7136009 C5.86914062,66.2956321 5.15234375,65.9518821 4.1953125,65.6823509 C3.52734375,65.4714134 3.0625,65.2761009 2.80078125,65.0964134 C2.5390625,64.9167259 2.40820312,64.6784446 2.40820312,64.3815696 C2.40820312,64.0612571 2.53125,63.8005149 2.77734375,63.599343 C3.0234375,63.3981712 3.38085938,63.2975852 3.84960938,63.2975852 C4.33398438,63.2975852 4.70507812,63.4177024 4.96289062,63.6579368 C5.22070312,63.8981712 5.34960938,64.2194602 5.34960938,64.621804 L5.34960938,64.621804 L7.06054688,64.621804 C7.06054688,63.856179 6.76855469,63.2272727 6.18457031,62.7350852 C5.60058594,62.2428977 4.83007812,61.996804 3.87304688,61.996804 C2.93164062,61.996804 2.16699219,62.215554 1.57910156,62.653054 C0.991210938,63.090554 0.697265625,63.6647727 0.697265625,64.3757102 C0.697265625,65.0866477 0.952148438,65.6393821 1.46191406,66.0339134 C1.97167969,66.4284446 2.74414062,66.7741477 3.77929688,67.0710227 C4.37304688,67.2507102 4.78320312,67.4372337 5.00976562,67.630593 C5.23632812,67.8239524 5.34960938,68.0886009 5.34960938,68.4245384 C5.34960938,68.7487571 5.22949219,69.005593 4.98925781,69.1950462 C4.74902344,69.3844993 4.390625,69.4792259 3.9140625,69.4792259 C3.34765625,69.4792259 2.91210938,69.3639915 2.60742188,69.1335227 C2.30273438,68.903054 2.15039062,68.528054 2.15039062,68.0085227 L2.15039062,68.0085227 L0.439453125,68.0085227 C0.439453125,68.9069602 0.78125,69.5925071 1.46484375,70.0651634 C2.1484375,70.5378196 2.96484375,70.7741477 3.9140625,70.7741477 Z M12.1582031,70.6511009 L12.1582031,63.4382102 L14.8535156,63.4382102 L14.8535156,62.1198509 L7.76367188,62.1198509 L7.76367188,63.4382102 L10.4472656,63.4382102 L10.4472656,70.6511009 L12.1582031,70.6511009 Z M16.9101562,70.6511009 L17.4902344,68.7878196 L20.484375,68.7878196 L21.0644531,70.6511009 L22.7929688,70.6511009 L19.8691406,62.1198509 L18.1171875,62.1198509 L15.1816406,70.6511009 L16.9101562,70.6511009 Z M20.0742188,67.4694602 L17.9003906,67.4694602 L18.9785156,64.012429 L18.9960938,64.012429 L20.0742188,67.4694602 Z M25.3652344,70.6511009 L25.3652344,67.2409446 L26.90625,67.2409446 C27.3359375,67.2409446 27.6572266,67.356179 27.8701172,67.5866477 C28.0830078,67.8171165 28.1894531,68.1511009 28.1894531,68.5886009 L28.1894531,68.5886009 L28.1894531,69.1921165 C28.1894531,69.4538352 28.2128906,69.7302024 28.2597656,70.021218 C28.3066406,70.3122337 28.4101562,70.5221946 28.5703125,70.6511009 L28.5703125,70.6511009 L30.3222656,70.6511009 L30.3222656,70.4870384 C30.1621094,70.3620384 30.0507812,70.1764915 29.9882812,69.9303977 C29.9257812,69.684304 29.8945312,69.4421165 29.8945312,69.2038352 L29.8945312,69.2038352 L29.8945312,68.5768821 C29.8945312,68.0495384 29.7900391,67.6169212 29.5810547,67.2790305 C29.3720703,66.9411399 29.015625,66.6940696 28.5117188,66.5378196 L28.5117188,66.5378196 L28.5117188,66.5202415 C28.9921875,66.3327415 29.3564453,66.0866477 29.6044922,65.7819602 C29.8525391,65.4772727 29.9765625,65.0866477 29.9765625,64.6100852 C29.9765625,63.793679 29.7275391,63.1745384 29.2294922,62.7526634 C28.7314453,62.3307884 27.9902344,62.1198509 27.0058594,62.1198509 L27.0058594,62.1198509 L23.6542969,62.1198509 L23.6542969,70.6511009 L25.3652344,70.6511009 Z M26.8417969,65.9225852 L25.3652344,65.9225852 L25.3652344,63.4382102 L26.9179688,63.4382102 C27.3828125,63.4382102 27.7246094,63.5505149 27.9433594,63.7751243 C28.1621094,63.9997337 28.2714844,64.3132102 28.2714844,64.715554 C28.2714844,65.121804 28.1552734,65.4245384 27.9228516,65.6237571 C27.6904297,65.8229759 27.3300781,65.9225852 26.8417969,65.9225852 L26.8417969,65.9225852 Z M35.3613281,70.6511009 L35.3613281,63.4382102 L38.0566406,63.4382102 L38.0566406,62.1198509 L30.9667969,62.1198509 L30.9667969,63.4382102 L33.6503906,63.4382102 L33.6503906,70.6511009 L35.3613281,70.6511009 Z M4.65820312,84.6511009 L4.65820312,77.4382102 L7.35351562,77.4382102 L7.35351562,76.1198509 L0.263671875,76.1198509 L0.263671875,77.4382102 L2.94726562,77.4382102 L2.94726562,84.6511009 L4.65820312,84.6511009 Z M10.125,84.6511009 L10.125,81.106179 L13.6054688,81.106179 L13.6054688,84.6511009 L15.3105469,84.6511009 L15.3105469,76.1198509 L13.6054688,76.1198509 L13.6054688,79.7878196 L10.125,79.7878196 L10.125,76.1198509 L8.4140625,76.1198509 L8.4140625,84.6511009 L10.125,84.6511009 Z M22.7519531,84.6511009 L22.7519531,83.3386009 L18.6210938,83.3386009 L18.6210938,80.9011009 L22.1542969,80.9011009 L22.1542969,79.5827415 L18.6210938,79.5827415 L18.6210938,77.4382102 L22.7402344,77.4382102 L22.7402344,76.1198509 L16.9101562,76.1198509 L16.9101562,84.6511009 L22.7519531,84.6511009 Z M28.5,84.6511009 L28.5,81.5573509 L30.1875,81.5573509 C31.1875,81.5573509 31.9638672,81.3132102 32.5166016,80.824929 C33.0693359,80.3366477 33.3457031,79.6764915 33.3457031,78.8444602 C33.3457031,78.012429 33.0693359,77.3503196 32.5166016,76.8581321 C31.9638672,76.3659446 31.1875,76.1198509 30.1875,76.1198509 L30.1875,76.1198509 L26.7890625,76.1198509 L26.7890625,84.6511009 L28.5,84.6511009 Z M30.1875,80.2389915 L28.5,80.2389915 L28.5,77.4382102 L30.1875,77.4382102 C30.6757812,77.4382102 31.0400391,77.5700462 31.2802734,77.833718 C31.5205078,78.0973899 31.640625,78.4382102 31.640625,78.856179 C31.640625,79.2663352 31.5205078,79.599343 31.2802734,79.8552024 C31.0400391,80.1110618 30.6757812,80.2389915 30.1875,80.2389915 L30.1875,80.2389915 Z M36.3164062,84.6511009 L36.3164062,81.2409446 L37.8574219,81.2409446 C38.2871094,81.2409446 38.6083984,81.356179 38.8212891,81.5866477 C39.0341797,81.8171165 39.140625,82.1511009 39.140625,82.5886009 L39.140625,82.5886009 L39.140625,83.1921165 C39.140625,83.4538352 39.1640625,83.7302024 39.2109375,84.021218 C39.2578125,84.3122337 39.3613281,84.5221946 39.5214844,84.6511009 L39.5214844,84.6511009 L41.2734375,84.6511009 L41.2734375,84.4870384 C41.1132812,84.3620384 41.0019531,84.1764915 40.9394531,83.9303977 C40.8769531,83.684304 40.8457031,83.4421165 40.8457031,83.2038352 L40.8457031,83.2038352 L40.8457031,82.5768821 C40.8457031,82.0495384 40.7412109,81.6169212 40.5322266,81.2790305 C40.3232422,80.9411399 39.9667969,80.6940696 39.4628906,80.5378196 L39.4628906,80.5378196 L39.4628906,80.5202415 C39.9433594,80.3327415 40.3076172,80.0866477 40.5556641,79.7819602 C40.8037109,79.4772727 40.9277344,79.0866477 40.9277344,78.6100852 C40.9277344,77.793679 40.6787109,77.1745384 40.1806641,76.7526634 C39.6826172,76.3307884 38.9414062,76.1198509 37.9570312,76.1198509 L37.9570312,76.1198509 L34.6054688,76.1198509 L34.6054688,84.6511009 L36.3164062,84.6511009 Z M37.7929688,79.9225852 L36.3164062,79.9225852 L36.3164062,77.4382102 L37.8691406,77.4382102 C38.3339844,77.4382102 38.6757812,77.5505149 38.8945312,77.7751243 C39.1132812,77.9997337 39.2226562,78.3132102 39.2226562,78.715554 C39.2226562,79.121804 39.1064453,79.4245384 38.8740234,79.6237571 C38.6416016,79.8229759 38.28125,79.9225852 37.7929688,79.9225852 L37.7929688,79.9225852 Z M45.7851562,84.7741477 C46.8632812,84.7741477 47.7285156,84.4352805 48.3808594,83.7575462 C49.0332031,83.0798118 49.359375,82.2116477 49.359375,81.153054 L49.359375,81.153054 L49.359375,79.6178977 C49.359375,78.5632102 49.0322266,77.6960227 48.3779297,77.0163352 C47.7236328,76.3366477 46.8574219,75.996804 45.7792969,75.996804 C44.7089844,75.996804 43.8515625,76.3366477 43.2070312,77.0163352 C42.5625,77.6960227 42.2402344,78.5632102 42.2402344,79.6178977 L42.2402344,79.6178977 L42.2402344,81.153054 C42.2402344,82.2116477 42.5634766,83.0798118 43.2099609,83.7575462 C43.8564453,84.4352805 44.7148438,84.7741477 45.7851562,84.7741477 Z M45.7851562,83.4440696 C45.1953125,83.4440696 44.7412109,83.2321555 44.4228516,82.8083274 C44.1044922,82.3844993 43.9453125,81.8327415 43.9453125,81.153054 L43.9453125,81.153054 L43.9453125,79.606179 C43.9453125,78.934304 44.1035156,78.387429 44.4199219,77.965554 C44.7363281,77.543679 45.1894531,77.3327415 45.7792969,77.3327415 C46.3691406,77.3327415 46.828125,77.5446555 47.15625,77.9684837 C47.484375,78.3923118 47.6484375,78.9382102 47.6484375,79.606179 L47.6484375,79.606179 L47.6484375,81.153054 C47.6484375,81.8327415 47.4863281,82.3844993 47.1621094,82.8083274 C46.8378906,83.2321555 46.3789062,83.4440696 45.7851562,83.4440696 Z M53.8886719,84.7741477 C54.9277344,84.7741477 55.7333984,84.5192649 56.3056641,84.0094993 C56.8779297,83.4997337 57.1992188,82.7741477 57.2695312,81.8327415 L57.2695312,81.8327415 L55.5585938,81.8327415 C55.5117188,82.387429 55.3574219,82.7975852 55.0957031,83.0632102 C54.8339844,83.3288352 54.4316406,83.4616477 53.8886719,83.4616477 C53.3457031,83.4616477 52.9345703,83.2594993 52.6552734,82.8552024 C52.3759766,82.4509055 52.2363281,81.9108665 52.2363281,81.2350852 L52.2363281,81.2350852 L52.2363281,79.5300071 C52.2363281,78.8698509 52.3808594,78.3356712 52.6699219,77.927468 C52.9589844,77.5192649 53.3652344,77.3151634 53.8886719,77.3151634 C54.4589844,77.3151634 54.8691406,77.4528587 55.1191406,77.7282493 C55.3691406,78.0036399 55.5195312,78.4206321 55.5703125,78.9792259 L55.5703125,78.9792259 L57.2753906,78.9792259 C57.1816406,78.0143821 56.8574219,77.2761009 56.3027344,76.7643821 C55.7480469,76.2526634 54.9433594,75.996804 53.8886719,75.996804 C52.8691406,75.996804 52.0546875,76.3229759 51.4453125,76.9753196 C50.8359375,77.6276634 50.53125,78.4831321 50.53125,79.5417259 L50.53125,79.5417259 L50.53125,81.2350852 C50.53125,82.3053977 50.8310547,83.1628196 51.4306641,83.8073509 C52.0302734,84.4518821 52.8496094,84.7741477 53.8886719,84.7741477 Z M64.2949219,84.6511009 L64.2949219,83.3386009 L60.1640625,83.3386009 L60.1640625,80.9011009 L63.6972656,80.9011009 L63.6972656,79.5827415 L60.1640625,79.5827415 L60.1640625,77.4382102 L64.2832031,77.4382102 L64.2832031,76.1198509 L58.453125,76.1198509 L58.453125,84.6511009 L64.2949219,84.6511009 Z M68.4609375,84.7741477 C69.4257812,84.7741477 70.1914062,84.5671165 70.7578125,84.153054 C71.3242188,83.7389915 71.6074219,83.1589134 71.6074219,82.4128196 C71.6074219,81.6979759 71.3691406,81.1315696 70.8925781,80.7136009 C70.4160156,80.2956321 69.6992188,79.9518821 68.7421875,79.6823509 C68.0742188,79.4714134 67.609375,79.2761009 67.3476562,79.0964134 C67.0859375,78.9167259 66.9550781,78.6784446 66.9550781,78.3815696 C66.9550781,78.0612571 67.078125,77.8005149 67.3242188,77.599343 C67.5703125,77.3981712 67.9277344,77.2975852 68.3964844,77.2975852 C68.8808594,77.2975852 69.2519531,77.4177024 69.5097656,77.6579368 C69.7675781,77.8981712 69.8964844,78.2194602 69.8964844,78.621804 L69.8964844,78.621804 L71.6074219,78.621804 C71.6074219,77.856179 71.3154297,77.2272727 70.7314453,76.7350852 C70.1474609,76.2428977 69.3769531,75.996804 68.4199219,75.996804 C67.4785156,75.996804 66.7138672,76.215554 66.1259766,76.653054 C65.5380859,77.090554 65.2441406,77.6647727 65.2441406,78.3757102 C65.2441406,79.0866477 65.4990234,79.6393821 66.0087891,80.0339134 C66.5185547,80.4284446 67.2910156,80.7741477 68.3261719,81.0710227 C68.9199219,81.2507102 69.3300781,81.4372337 69.5566406,81.630593 C69.7832031,81.8239524 69.8964844,82.0886009 69.8964844,82.4245384 C69.8964844,82.7487571 69.7763672,83.005593 69.5361328,83.1950462 C69.2958984,83.3844993 68.9375,83.4792259 68.4609375,83.4792259 C67.8945312,83.4792259 67.4589844,83.3639915 67.1542969,83.1335227 C66.8496094,82.903054 66.6972656,82.528054 66.6972656,82.0085227 L66.6972656,82.0085227 L64.9863281,82.0085227 C64.9863281,82.9069602 65.328125,83.5925071 66.0117188,84.0651634 C66.6953125,84.5378196 67.5117188,84.7741477 68.4609375,84.7741477 Z M75.9609375,84.7741477 C76.9257812,84.7741477 77.6914062,84.5671165 78.2578125,84.153054 C78.8242188,83.7389915 79.1074219,83.1589134 79.1074219,82.4128196 C79.1074219,81.6979759 78.8691406,81.1315696 78.3925781,80.7136009 C77.9160156,80.2956321 77.1992188,79.9518821 76.2421875,79.6823509 C75.5742188,79.4714134 75.109375,79.2761009 74.8476562,79.0964134 C74.5859375,78.9167259 74.4550781,78.6784446 74.4550781,78.3815696 C74.4550781,78.0612571 74.578125,77.8005149 74.8242188,77.599343 C75.0703125,77.3981712 75.4277344,77.2975852 75.8964844,77.2975852 C76.3808594,77.2975852 76.7519531,77.4177024 77.0097656,77.6579368 C77.2675781,77.8981712 77.3964844,78.2194602 77.3964844,78.621804 L77.3964844,78.621804 L79.1074219,78.621804 C79.1074219,77.856179 78.8154297,77.2272727 78.2314453,76.7350852 C77.6474609,76.2428977 76.8769531,75.996804 75.9199219,75.996804 C74.9785156,75.996804 74.2138672,76.215554 73.6259766,76.653054 C73.0380859,77.090554 72.7441406,77.6647727 72.7441406,78.3757102 C72.7441406,79.0866477 72.9990234,79.6393821 73.5087891,80.0339134 C74.0185547,80.4284446 74.7910156,80.7741477 75.8261719,81.0710227 C76.4199219,81.2507102 76.8300781,81.4372337 77.0566406,81.630593 C77.2832031,81.8239524 77.3964844,82.0886009 77.3964844,82.4245384 C77.3964844,82.7487571 77.2763672,83.005593 77.0361328,83.1950462 C76.7958984,83.3844993 76.4375,83.4792259 75.9609375,83.4792259 C75.3945312,83.4792259 74.9589844,83.3639915 74.6542969,83.1335227 C74.3496094,82.903054 74.1972656,82.528054 74.1972656,82.0085227 L74.1972656,82.0085227 L72.4863281,82.0085227 C72.4863281,82.9069602 72.828125,83.5925071 73.5117188,84.0651634 C74.1953125,84.5378196 75.0117188,84.7741477 75.9609375,84.7741477 Z" id="STARTTHEPROCESS" fill="#565960" opacity="0.5"></path>
                    <path d="M11.6523438,46.8339844 C14.5820312,46.8339844 16.8639323,45.8834635 18.4980469,43.9824219 C20.1321615,42.0813802 20.9492188,39.2428385 20.9492188,35.4667969 L20.9492188,35.4667969 L20.9492188,28.9628906 C20.9492188,25.1998698 20.125651,22.3613281 18.4785156,20.4472656 C16.8313802,18.5332031 14.5429688,17.5761719 11.6132812,17.5761719 C8.68359375,17.5761719 6.3984375,18.5332031 4.7578125,20.4472656 C3.1171875,22.3613281 2.296875,25.1998698 2.296875,28.9628906 L2.296875,28.9628906 L2.296875,35.4667969 C2.296875,39.2298177 3.12369792,42.0651042 4.77734375,43.9726562 C6.43098958,45.8802083 8.72265625,46.8339844 11.6523438,46.8339844 Z M11.6523438,43.0449219 C10.1289062,43.0449219 8.97981771,42.4947917 8.20507812,41.3945312 C7.43033854,40.2942708 7.04296875,38.546224 7.04296875,36.1503906 L7.04296875,36.1503906 L7.04296875,28.2402344 C7.04296875,25.8704427 7.42382812,24.1354167 8.18554688,23.0351562 C8.94726562,21.9348958 10.0898438,21.3847656 11.6132812,21.3847656 C13.1367188,21.3847656 14.2825521,21.9348958 15.0507812,23.0351562 C15.8190104,24.1354167 16.203125,25.8704427 16.203125,28.2402344 L16.203125,28.2402344 L16.203125,36.1503906 C16.203125,38.5592448 15.8255208,40.3105469 15.0703125,41.4042969 C14.3151042,42.4980469 13.1757812,43.0449219 11.6523438,43.0449219 Z M34.3867188,46.8339844 C37.2513021,46.8339844 39.5397135,46.1471354 41.2519531,44.7734375 C42.9641927,43.3997396 43.8203125,41.3652344 43.8203125,38.6699219 C43.8203125,37.0813802 43.3710938,35.6979167 42.4726562,34.5195312 C41.5742188,33.3411458 40.3307292,32.4459635 38.7421875,31.8339844 C40.1223958,31.235026 41.1933594,30.3951823 41.9550781,29.3144531 C42.7167969,28.233724 43.0976562,26.9576823 43.0976562,25.4863281 C43.0976562,22.9082031 42.3001302,20.9453125 40.7050781,19.5976562 C39.110026,18.25 36.9908854,17.5761719 34.3476562,17.5761719 C31.6783854,17.5761719 29.5592448,18.25 27.9902344,19.5976562 C26.421224,20.9453125 25.6367188,22.9082031 25.6367188,25.4863281 C25.6367188,26.9576823 26.0143229,28.233724 26.7695312,29.3144531 C27.5247396,30.3951823 28.5924479,31.2285156 29.9726562,31.8144531 C28.3580729,32.4394531 27.1080729,33.3378906 26.2226562,34.5097656 C25.3372396,35.6816406 24.8945312,37.0683594 24.8945312,38.6699219 C24.8945312,41.3652344 25.750651,43.3997396 27.4628906,44.7734375 C29.1751302,46.1471354 31.4830729,46.8339844 34.3867188,46.8339844 Z M34.3867188,29.9199219 C33.1367188,29.9199219 32.156901,29.5390625 31.4472656,28.7773438 C30.7376302,28.015625 30.3828125,26.9772135 30.3828125,25.6621094 C30.3828125,24.3339844 30.734375,23.2890625 31.4375,22.5273438 C32.140625,21.765625 33.1106771,21.3847656 34.3476562,21.3847656 C35.5585938,21.3847656 36.5286458,21.7786458 37.2578125,22.5664062 C37.9869792,23.3541667 38.3515625,24.3860677 38.3515625,25.6621094 C38.3515625,26.9772135 37.9934896,28.015625 37.2773438,28.7773438 C36.5611979,29.5390625 35.5976562,29.9199219 34.3867188,29.9199219 Z M34.3867188,43.0449219 C32.9153646,43.0449219 31.7565104,42.641276 30.9101562,41.8339844 C30.0638021,41.0266927 29.640625,39.8938802 29.640625,38.4355469 C29.640625,37.0032552 30.0670573,35.8606771 30.9199219,35.0078125 C31.7727865,34.1549479 32.9153646,33.7285156 34.3476562,33.7285156 C35.7539062,33.7285156 36.8964844,34.1582031 37.7753906,35.0175781 C38.6542969,35.8769531 39.09375,37.016276 39.09375,38.4355469 C39.09375,39.8808594 38.6640625,41.0104167 37.8046875,41.8242188 C36.9453125,42.6380208 35.8059896,43.0449219 34.3867188,43.0449219 Z" id="08" fill="#55311B"></path>
                    <path d="M54.4492188,14.6289062 C55.7903646,14.6289062 56.8776042,14.2659505 57.7109375,13.5400391 C58.5442708,12.8141276 58.9609375,11.7903646 58.9609375,10.46875 C58.9609375,9.70703125 58.781901,9.02994792 58.4238281,8.4375 C58.0657552,7.84505208 57.4472656,7.40885417 56.5683594,7.12890625 C57.297526,6.81640625 57.8411458,6.37369792 58.1992188,5.80078125 C58.5572917,5.22786458 58.7363281,4.63867188 58.7363281,4.03320312 C58.7363281,2.71809896 58.3554688,1.7171224 57.59375,1.03027344 C56.8320312,0.343424479 55.780599,0 54.4394531,0 C53.124349,0 52.0664062,0.372721354 51.265625,1.11816406 C50.4648438,1.86360677 50.0644531,2.79947917 50.0644531,3.92578125 L50.0644531,3.92578125 L51.8710938,3.92578125 C51.8710938,3.17057292 52.1022135,2.57161458 52.5644531,2.12890625 C53.0266927,1.68619792 53.6516927,1.46484375 54.4394531,1.46484375 C55.2792969,1.46484375 55.9042969,1.67643229 56.3144531,2.09960938 C56.7246094,2.52278646 56.9296875,3.15429688 56.9296875,3.99414062 C56.9296875,4.77539062 56.742513,5.38085938 56.3681641,5.81054688 C55.9938151,6.24023438 55.3574219,6.45507812 54.4589844,6.45507812 L54.4589844,6.45507812 L52.828125,6.45507812 L52.828125,7.90039063 L54.4589844,7.90039063 C55.3964844,7.90039063 56.0800781,8.10872396 56.5097656,8.52539062 C56.9394531,8.94205729 57.1542969,9.60286458 57.1542969,10.5078125 C57.1542969,11.40625 56.9199219,12.0751953 56.4511719,12.5146484 C55.9824219,12.9541016 55.3151042,13.1738281 54.4492188,13.1738281 C53.6028646,13.1738281 52.9420573,12.9492188 52.4667969,12.5 C51.9915365,12.0507812 51.7539062,11.4388021 51.7539062,10.6640625 L51.7539062,10.6640625 L49.9375,10.6640625 C49.9375,11.9205729 50.3606771,12.8955078 51.2070312,13.5888672 C52.0533854,14.2822266 53.1341146,14.6289062 54.4492188,14.6289062 Z M65.875,14.6289062 C67.3007812,14.6289062 68.4059245,14.1536458 69.1904297,13.203125 C69.9749349,12.2526042 70.3671875,10.8496094 70.3671875,8.99414062 L70.3671875,8.99414062 L70.3671875,5.64453125 C70.3671875,3.79557292 69.9716797,2.39257812 69.1806641,1.43554688 C68.3896484,0.478515625 67.28125,0 65.8554688,0 C64.4361979,0 63.3326823,0.478515625 62.5449219,1.43554688 C61.7571615,2.39257812 61.3632812,3.79557292 61.3632812,5.64453125 L61.3632812,5.64453125 L61.3632812,8.99414062 C61.3632812,10.843099 61.7604167,12.2444661 62.5546875,13.1982422 C63.3489583,14.1520182 64.4557292,14.6289062 65.875,14.6289062 Z M65.875,13.1738281 C64.9830729,13.1738281 64.3092448,12.8580729 63.8535156,12.2265625 C63.3977865,11.5950521 63.1699219,10.641276 63.1699219,9.36523438 L63.1699219,9.36523438 L63.1699219,5.25390625 C63.1699219,3.97786458 63.3945312,3.02734375 63.84375,2.40234375 C64.2929688,1.77734375 64.9635417,1.46484375 65.8554688,1.46484375 C66.7539062,1.46484375 67.429362,1.77734375 67.8818359,2.40234375 C68.3343099,3.02734375 68.5605469,3.97786458 68.5605469,5.25390625 L68.5605469,5.25390625 L68.5605469,9.36523438 C68.5605469,10.6542969 68.3375651,11.6113281 67.8916016,12.2363281 C67.445638,12.8613281 66.7734375,13.1738281 65.875,13.1738281 Z" id="30" fill="#55311B" opacity="0.7"></path>
                </g>
                <g id="Group-16" transform="translate(16.750000, 33.469283) rotate(-270.000000) translate(-16.750000, -33.469283) translate(3.750000, 16.719283)">
                    <path d="M12.8909587,-12.2381389 L16.1254993,-0.890928647 C16.5065706,0.445921408 17.1315777,1.73464483 17.987037,2.9814681 C18.672216,3.9801096 19.5981464,5.05563756 20.7534219,6.2174023 C23.2455529,7.57199878 25.3435191,9.56009705 26.8306819,11.9659428 C28.3638549,14.4462211 29.25,17.3695224 29.25,20.5 C29.25,24.9873136 27.4311568,29.0498136 24.4904852,31.9904852 C21.5498136,34.9311568 17.4873136,36.75 13,36.75 C8.51268641,36.75 4.45018641,34.9311568 1.50951481,31.9904852 C-1.4311568,29.0498136 -3.25,24.9873136 -3.25,20.5 C-3.25,17.3706965 -2.36452193,14.4484098 -0.832424083,11.968568 C0.654197948,9.56233292 2.75165731,7.57358619 5.24293306,6.2178291 C6.4101923,5.04263568 7.35099817,3.94627516 8.05473136,2.92059115 C8.91457227,1.66738173 9.52550281,0.41967933 9.85912185,-0.835095481 L9.85912185,-0.835095481 L12.8909587,-12.2381389 Z" id="Combined-Shape" stroke="#F3F1F1" stroke-width="6.5" fill="#F5701D"></path>
                    <rect id="Rectangle" fill="#FFFFFF" x="12.5" y="14" width="1" height="13" rx="0.5"></rect>
                    <rect id="Rectangle-Copy-2" fill="#FFFFFF" x="14.5" y="16.5" width="1" height="8" rx="0.5"></rect>
                    <rect id="Rectangle-Copy-9" fill="#FFFFFF" transform="translate(11.000000, 20.500000) rotate(-180.000000) translate(-11.000000, -20.500000) " x="10.5" y="16.5" width="1" height="8" rx="0.5"></rect>
                    <rect id="Rectangle-Copy-10" fill="#FFFFFF" transform="translate(9.000000, 20.500000) rotate(-180.000000) translate(-9.000000, -20.500000) " x="8.5" y="18.5" width="1" height="4" rx="0.5"></rect>
                    <rect id="Rectangle-Copy-8" fill="#FFFFFF" x="16.5" y="18.5" width="1" height="4" rx="0.5"></rect>
                </g>
                <rect id="Rectangle" fill="#F5701D" fill-rule="nonzero" x="31.0803223" y="32.9492827" width="37.52" height="1.04" rx="0.52"></rect>
            </g>
        </g>
    </g>
</svg>