<?xml version="1.0" encoding="UTF-8"?>
<svg width="76px" height="76px" viewBox="0 0 76 76" version="1.1" xmlns="http://www.w3.org/2000/svg" xmlns:xlink="http://www.w3.org/1999/xlink">
    <title>Sun-down</title>
    <g id="Mobile" stroke="none" stroke-width="1" fill="none" fill-rule="evenodd">
        <g id="Same-Day--Mobile" transform="translate(-28.000000, -3623.000000)">
            <g id="Sun-down" transform="translate(33.260000, 3628.150000)">
                <circle id="Oval" stroke="#F3F1F1" stroke-width="5" fill="#F5701D" cx="32.5" cy="32.5" r="35"></circle>
                <g id="noun-sunset-1021707" transform="translate(12.270498, 13.205350)" fill="#FFFFFF" fill-rule="nonzero">
                    <path d="M20.0885018,7.6925 C20.7068618,7.6925 21.2084018,7.19055 21.2084018,6.5726 L21.2084018,1.1199 C21.2084018,0.50154 20.7064518,0 20.0885018,0 C19.4697518,0 18.9686018,0.50195 18.9686018,1.1199 L18.9686018,6.5726 C18.9686018,7.19057 19.4697718,7.6925 20.0885018,7.6925 L20.0885018,7.6925 Z" id="Path"></path>
                    <path d="M1.48650184,20.8425093 L6.93920184,20.8425093 C7.55756184,20.8425093 8.05910184,20.34055 8.05910184,19.7226 C8.05910184,19.10424 7.55715184,18.6027 6.93920184,18.6027 L1.48650184,18.6023093 C0.868141839,18.6023093 0.366601839,19.1042593 0.366601839,19.7222093 C0.366601839,20.3405693 0.868551839,20.8425093 1.48650184,20.8425093 L1.48650184,20.8425093 Z" id="Path"></path>
                    <path d="M32.1185018,19.7225 C32.1185018,20.34086 32.6196718,20.8424 33.2384018,20.8424 L38.6907018,20.8424 C39.3094518,20.8424 39.8106018,20.34045 39.8106018,19.7225 C39.8106018,19.10414 39.3094318,18.6026 38.6907018,18.6026 L33.2384018,18.6026 C32.6196518,18.6026 32.1185018,19.10416 32.1185018,19.7225 L32.1185018,19.7225 Z" id="Path"></path>
                    <path d="M9.99850184,11.2165 C10.2176418,11.43564 10.5035818,11.54462 10.7903018,11.54462 C11.0770218,11.54462 11.3637418,11.43524 11.5821018,11.2165 C12.0196018,10.779 12.0196018,10.07 11.5821018,9.6329 L7.72590184,5.7774 C7.28840184,5.3399 6.57940184,5.3399 6.14230184,5.7774 C5.70480184,6.2149 5.70480184,6.9239 6.14230184,7.361 L9.99850184,11.2165 Z" id="Path"></path>
                    <path d="M29.3875018,11.5445 C29.6742218,11.5445 29.9605518,11.43512 30.1793018,11.21638 L34.0355018,7.36018 C34.4730018,6.92268 34.4730018,6.21368 34.0355018,5.77658 C33.5987818,5.33908 32.8886018,5.33908 32.4519018,5.77658 L28.5957018,9.63278 C28.1582018,10.07028 28.1582018,10.77928 28.5957018,11.21638 C28.8140618,11.43474 29.1007818,11.5445 29.3875018,11.5445 Z" id="Path"></path>
                    <path d="M39.5600271,22.5095 L0.89897659,22.5095 C0.402600874,22.5095 0,23.01145 0,23.6294 C0,24.24776 0.402929993,24.7493 0.89897659,24.7493 L39.5600271,24.7493 C40.0564028,24.7493 40.4590039,24.24735 40.4590039,23.6294 C40.4590039,23.01143 40.0563868,22.5095 39.5603482,22.5095 L39.5600271,22.5095 Z" id="Path"></path>
                    <path d="M35.5142713,26.4295 L4.94473247,26.4295 C4.44835675,26.4295 4.04575588,26.93145 4.04575588,27.5494 C4.04575588,28.16776 4.44868587,28.6693 4.94473247,28.6693 L35.5142713,28.6693 C36.010647,28.6693 36.4132478,28.16735 36.4132478,27.5494 C36.4132478,26.93143 36.0103178,26.4295 35.5139502,26.4295 L35.5142713,26.4295 Z" id="Path"></path>
                    <path d="M27.8722879,30.3495 L12.5867158,30.3495 C12.0903401,30.3495 11.6877392,30.85145 11.6877392,31.4694 C11.6877392,32.08776 12.0906692,32.5893 12.5867158,32.5893 L27.8722879,32.5893 C28.3686636,32.5893 28.7712645,32.08735 28.7712645,31.4694 C28.7712645,30.85143 28.3686476,30.3495 27.8722879,30.3495 Z" id="Path"></path>
                    <path d="M11.2725018,19.7285 C11.2838298,20.34686 11.8049218,20.8215 12.4116018,20.8289 C13.0299618,20.817572 13.5225018,20.30742 13.5120018,19.6894 L13.5108299,19.56909 C13.5108299,15.94099 16.4628299,12.98899 20.0913299,12.98899 C23.7194299,12.98899 26.6714299,15.94099 26.6714299,19.56909 L26.670258,19.6894 C26.65893,20.30776 27.151118,20.8183 27.770658,20.8289 L27.790189,20.8289 C28.399569,20.8289 28.898389,20.33984 28.908989,19.7285 L28.9113327,19.56873 C28.9113327,14.70503 24.9543327,10.74883 20.0914327,10.74883 C15.2273327,10.74883 11.2707327,14.70503 11.2707327,19.56873 L11.2725018,19.7285 Z" id="Path"></path>
                </g>
            </g>
        </g>
    </g>
</svg>