<?xml version="1.0" encoding="UTF-8"?>
<svg width="76px" height="76px" viewBox="0 0 76 76" version="1.1" xmlns="http://www.w3.org/2000/svg" xmlns:xlink="http://www.w3.org/1999/xlink">
    <title>Sun</title>
    <g id="Mobile" stroke="none" stroke-width="1" fill="none" fill-rule="evenodd">
        <g id="Same-Day--Mobile" transform="translate(-28.000000, -614.000000)">
            <g id="Sun" transform="translate(33.260000, 619.450000)">
                <circle id="Oval" stroke="#F3F1F1" stroke-width="5" fill="#F5701D" cx="32.5" cy="32.5" r="35"></circle>
                <g id="noun-sunset-1021707" transform="translate(12.778000, 12.777445)" fill="#FFFFFF" fill-rule="nonzero">
                    <g id="Group-7">
                        <path d="M19.7219,7.6925 C20.34026,7.6925 20.8418,7.19055 20.8418,6.5726 L20.8418,1.1199 C20.8418,0.50154 20.33985,0 19.7219,0 C19.10315,0 18.602,0.50195 18.602,1.1199 L18.602,6.5726 C18.602,7.19057 19.10317,7.6925 19.7219,7.6925 L19.7219,7.6925 Z" id="Path"></path>
                        <path d="M1.1199,20.8425093 L6.5726,20.8425093 C7.19096,20.8425093 7.6925,20.34055 7.6925,19.7226 C7.6925,19.10424 7.19055,18.6027 6.5726,18.6027 L1.1199,18.6023093 C0.50154,18.6023093 0,19.1042593 0,19.7222093 C0,20.3405693 0.50195,20.8425093 1.1199,20.8425093 L1.1199,20.8425093 Z" id="Path"></path>
                        <path d="M31.7519,19.7225 C31.7519,20.34086 32.25307,20.8424 32.8718,20.8424 L38.3241,20.8424 C38.94285,20.8424 39.444,20.34045 39.444,19.7225 C39.444,19.10414 38.94283,18.6026 38.3241,18.6026 L32.8718,18.6026 C32.25305,18.6026 31.7519,19.10416 31.7519,19.7225 L31.7519,19.7225 Z" id="Path"></path>
                        <path d="M9.6319,11.2165 C9.85104,11.43564 10.13698,11.54462 10.4237,11.54462 C10.71042,11.54462 10.99714,11.43524 11.2155,11.2165 C11.653,10.779 11.653,10.07 11.2155,9.6329 L7.3593,5.7774 C6.9218,5.3399 6.2128,5.3399 5.7757,5.7774 C5.3382,6.2149 5.3382,6.9239 5.7757,7.361 L9.6319,11.2165 Z" id="Path"></path>
                        <path d="M29.0209,11.5445 C29.30762,11.5445 29.59395,11.43512 29.8127,11.21638 L33.6689,7.36018 C34.1064,6.92268 34.1064,6.21368 33.6689,5.77658 C33.23218,5.33908 32.522,5.33908 32.0853,5.77658 L28.2291,9.63278 C27.7916,10.07028 27.7916,10.77928 28.2291,11.21638 C28.44746,11.43474 28.73418,11.5445 29.0209,11.5445 Z" id="Path"></path>
                        <g id="Group-6" transform="translate(19.722000, 29.023855) rotate(-180.000000) translate(-19.722000, -29.023855) translate(0.000000, 18.602600)">
                            <path d="M19.7219,7.6925 C20.34026,7.6925 20.8418,7.19055 20.8418,6.5726 L20.8418,1.1199 C20.8418,0.50154 20.33985,0 19.7219,0 C19.10315,0 18.602,0.50195 18.602,1.1199 L18.602,6.5726 C18.602,7.19057 19.10317,7.6925 19.7219,7.6925 L19.7219,7.6925 Z" id="Path"></path>
                            <path d="M1.1199,20.8425093 L6.5726,20.8425093 C7.19096,20.8425093 7.6925,20.34055 7.6925,19.7226 C7.6925,19.10424 7.19055,18.6027 6.5726,18.6027 L1.1199,18.6023093 C0.50154,18.6023093 0,19.1042593 0,19.7222093 C0,20.3405693 0.50195,20.8425093 1.1199,20.8425093 L1.1199,20.8425093 Z" id="Path"></path>
                            <path d="M31.7519,19.7225 C31.7519,20.34086 32.25307,20.8424 32.8718,20.8424 L38.3241,20.8424 C38.94285,20.8424 39.444,20.34045 39.444,19.7225 C39.444,19.10414 38.94283,18.6026 38.3241,18.6026 L32.8718,18.6026 C32.25305,18.6026 31.7519,19.10416 31.7519,19.7225 L31.7519,19.7225 Z" id="Path"></path>
                            <path d="M9.6319,11.2165 C9.85104,11.43564 10.13698,11.54462 10.4237,11.54462 C10.71042,11.54462 10.99714,11.43524 11.2155,11.2165 C11.653,10.779 11.653,10.07 11.2155,9.6329 L7.3593,5.7774 C6.9218,5.3399 6.2128,5.3399 5.7757,5.7774 C5.3382,6.2149 5.3382,6.9239 5.7757,7.361 L9.6319,11.2165 Z" id="Path"></path>
                            <path d="M29.0209,11.5445 C29.30762,11.5445 29.59395,11.43512 29.8127,11.21638 L33.6689,7.36018 C34.1064,6.92268 34.1064,6.21368 33.6689,5.77658 C33.23218,5.33908 32.522,5.33908 32.0853,5.77658 L28.2291,9.63278 C27.7916,10.07028 27.7916,10.77928 28.2291,11.21638 C28.44746,11.43474 28.73418,11.5445 29.0209,11.5445 Z" id="Path"></path>
                        </g>
                        <path d="M10.9059,19.7285 C10.917228,20.34686 11.43832,20.8215 12.045,20.8289 C12.66336,20.817572 13.1559,20.30742 13.1454,19.6894 L13.1442281,19.56909 C13.1442281,15.94099 16.0962281,12.98899 19.7247281,12.98899 C23.3528281,12.98899 26.3048281,15.94099 26.3048281,19.56909 L26.3036562,19.6894 C26.2923282,20.30776 26.7845162,20.8183 27.4040562,20.8289 L27.4235872,20.8289 C28.0329672,20.8289 28.5317872,20.33984 28.5423872,19.7285 L28.5447309,19.56873 C28.5447309,14.70503 24.5877309,10.74883 19.7248309,10.74883 C14.8607309,10.74883 10.9041309,14.70503 10.9041309,19.56873 L10.9059,19.7285 Z" id="Path"></path>
                        <path d="M10.9059,27.5819793 C10.917228,28.2003393 11.43832,28.6749793 12.045,28.6823793 C12.66336,28.6710513 13.1559,28.1608993 13.1454,27.5428793 L13.1442281,27.4225693 C13.1442281,23.7944693 16.0962281,20.8424693 19.7247281,20.8424693 C23.3528281,20.8424693 26.3048281,23.7944693 26.3048281,27.4225693 L26.3036562,27.5428793 C26.2923282,28.1612393 26.7845162,28.6717793 27.4040562,28.6823793 L27.4235872,28.6823793 C28.0329672,28.6823793 28.5317872,28.1933193 28.5423872,27.5819793 L28.5447309,27.4222093 C28.5447309,22.5585093 24.5877309,18.6023093 19.7248309,18.6023093 C14.8607309,18.6023093 10.9041309,22.5585093 10.9041309,27.4222093 L10.9059,27.5819793 Z" id="Path" transform="translate(19.724431, 23.642344) rotate(-180.000000) translate(-19.724431, -23.642344) "></path>
                    </g>
                </g>
            </g>
        </g>
    </g>
</svg>