<?xml version="1.0" encoding="UTF-8"?>
<svg width="802px" height="348px" viewBox="0 0 802 348" version="1.1" xmlns="http://www.w3.org/2000/svg" xmlns:xlink="http://www.w3.org/1999/xlink">
    <title>PorcelainVeneers</title>
    <g id="Design" stroke="none" stroke-width="1" fill="none" fill-rule="evenodd">
        <g id="Health---Dental-Emergency" transform="translate(-332.000000, -2184.000000)" fill="#FFFFFF" fill-rule="nonzero">
            <path d="M357.588427,2347.0132 L357.588427,2289.60304 L391.493701,2289.60304 C408.550341,2289.60304 421.724169,2285.39088 431.015185,2276.96657 C440.306201,2268.54225 444.951708,2257.08449 444.951708,2242.59327 C444.951708,2228.24074 440.306201,2216.81764 431.015185,2208.32399 C421.724169,2199.83034 408.550341,2195.58351 391.493701,2195.58351 L391.493701,2195.58351 L332.315478,2195.58351 L332.315478,2347.0132 L357.588427,2347.0132 Z M391.493701,2269.32228 L357.588427,2269.32228 L357.588427,2215.86427 L391.493701,2215.86427 C401.06206,2215.86427 408.15166,2218.39503 412.762499,2223.45656 C417.373339,2228.51808 419.678759,2234.96632 419.678759,2242.80128 C419.678759,2250.63624 417.373339,2257.01515 412.762499,2261.938 C408.15166,2266.86085 401.06206,2269.32228 391.493701,2269.32228 L391.493701,2269.32228 Z M503.34624,2349.09327 C519.709521,2349.09327 532.397998,2343.85841 541.411669,2333.38868 C550.425341,2322.91896 554.932177,2309.08644 554.932177,2291.89113 L554.932177,2291.89113 L554.932177,2289.70704 C554.932177,2272.58107 550.408007,2258.74855 541.359667,2248.20949 C532.311328,2237.67042 519.570849,2232.40089 503.138232,2232.40089 C486.844287,2232.40089 474.190478,2237.68776 465.176806,2248.26149 C456.163134,2258.83522 451.656298,2272.6504 451.656298,2289.70704 L451.656298,2289.70704 L451.656298,2291.89113 C451.656298,2309.08644 456.163134,2322.91896 465.176806,2333.38868 C474.190478,2343.85841 486.913623,2349.09327 503.34624,2349.09327 Z M503.34624,2328.91652 C494.193896,2328.91652 487.502978,2325.55372 483.273486,2318.82814 C479.043994,2312.10255 476.929248,2303.12355 476.929248,2291.89113 L476.929248,2291.89113 L476.929248,2289.70704 C476.929248,2278.75197 479.043994,2269.8423 483.273486,2262.97804 C487.502978,2256.11378 494.12456,2252.68165 503.138232,2252.68165 C512.290576,2252.68165 519.016162,2256.11378 523.31499,2262.97804 C527.613818,2269.8423 529.763232,2278.75197 529.763232,2289.70704 L529.763232,2289.70704 L529.763232,2291.89113 C529.763232,2303.05421 527.613818,2312.01588 523.31499,2318.77614 C519.016162,2325.53639 512.359912,2328.91652 503.34624,2328.91652 Z M593.253955,2347.0132 L593.253955,2268.90626 C595.056689,2265.09279 597.587451,2262.18068 600.84624,2260.16993 C604.105029,2258.15919 608.230517,2257.15382 613.222705,2257.15382 L613.222705,2257.15382 L625.183154,2257.56984 L628.199267,2233.64894 C627.159228,2233.30226 625.807177,2233.00758 624.143115,2232.76491 C622.479052,2232.52223 620.81499,2232.40089 619.150927,2232.40089 C613.257373,2232.40089 608.126513,2233.97828 603.758349,2237.13307 C599.390185,2240.28785 595.784716,2244.67335 592.941943,2250.28956 L592.941943,2250.28956 L592.629931,2250.28956 L591.069873,2234.48097 L567.981005,2234.48097 L567.981005,2347.0132 L593.253955,2347.0132 Z M679.313525,2349.09327 C692.071337,2349.09327 702.905078,2345.31447 711.814746,2337.75685 C720.724414,2330.19923 725.179248,2320.87355 725.179248,2309.7798 L725.179248,2309.7798 L701.362353,2309.7798 C701.362353,2315.39601 699.212939,2319.98951 694.914111,2323.56032 C690.615283,2327.13112 685.311083,2328.91652 679.001513,2328.91652 C669.225146,2328.91652 662.49956,2325.58839 658.824755,2318.93214 C655.149951,2312.27589 653.312548,2303.5049 653.312548,2292.61915 L653.312548,2292.61915 L653.312548,2288.97902 C653.312548,2278.30128 655.184619,2269.58229 658.928759,2262.82203 C662.6729,2256.06178 669.363818,2252.68165 679.001513,2252.68165 C685.796435,2252.68165 691.221972,2254.7964 695.278124,2259.02589 C699.334277,2263.25538 701.362353,2268.52492 701.362353,2274.83449 L701.362353,2274.83449 L725.179248,2274.83449 C725.179248,2262.14601 720.967089,2251.90162 712.542773,2244.10133 C704.118456,2236.30104 693.007373,2232.40089 679.209521,2232.40089 C662.360888,2232.40089 649.62041,2237.67042 640.988085,2248.20949 C632.355761,2258.74855 628.039599,2272.33839 628.039599,2288.97902 L628.039599,2288.97902 L628.039599,2292.61915 C628.039599,2309.32911 632.355761,2322.91896 640.988085,2333.38868 C649.62041,2343.85841 662.395556,2349.09327 679.313525,2349.09327 Z M783.989794,2349.09327 C793.28081,2349.09327 801.289111,2347.9319 808.014697,2345.60914 C814.740283,2343.28639 820.217822,2340.28761 824.447314,2336.61281 L824.447314,2336.61281 L817.063037,2319.34816 C812.486865,2322.46827 807.824023,2324.84303 803.074511,2326.47242 C798.324999,2328.10182 792.483447,2328.91652 785.549853,2328.91652 C776.813525,2328.91652 770.070605,2326.10841 765.321093,2320.4922 C760.571581,2314.87599 757.850146,2307.38771 757.156787,2298.02736 L757.156787,2298.02736 L828.087451,2298.02736 L828.087451,2283.1548 C828.087451,2267.41554 824.135302,2255.02174 816.231005,2245.9734 C808.326708,2236.92506 796.608935,2232.40022 781.077685,2232.40022 C766.65581,2232.33156 754.816699,2237.60109 745.560351,2248.20949 C736.304003,2258.81788 731.67583,2272.47706 731.67583,2289.18702 L731.67583,2289.18702 L731.67583,2293.34718 C731.67583,2309.98781 736.338671,2323.43898 745.664355,2333.7007 C754.990039,2343.96242 767.765185,2349.09327 783.989794,2349.09327 Z M803.022509,2279.51466 L757.676806,2279.51466 C758.924853,2271.40236 761.559619,2264.90211 765.581103,2260.01393 C769.602587,2255.12575 774.768115,2252.68165 781.077685,2252.68165 C788.565966,2252.68165 794.095507,2254.9004 797.666308,2259.3379 C801.237109,2263.7754 803.022509,2269.63429 803.022509,2276.91456 L803.022509,2276.91456 L803.022509,2279.51466 Z M866.409228,2347.0132 L866.409228,2184.7671 L841.136279,2184.7671 L841.136279,2347.0132 L866.409228,2347.0132 Z M918.147509,2349.09327 C924.942431,2349.09327 931.043994,2347.56788 936.452197,2344.5171 C941.8604,2341.46632 946.47124,2337.51417 950.284716,2332.66066 C950.56206,2335.15675 950.960742,2337.58351 951.480761,2339.94093 C952.000781,2342.29835 952.642138,2344.65577 953.404833,2347.0132 L953.404833,2347.0132 L978.989794,2347.0132 C977.53374,2342.85304 976.511035,2338.69288 975.921679,2334.53273 C975.332324,2330.37257 975.037646,2325.9004 975.037646,2321.11622 L975.037646,2321.11622 L975.037646,2271.09034 C975.037646,2258.40187 971.033496,2248.78151 963.025195,2242.22926 C955.016894,2235.67701 944.321826,2232.40089 930.93999,2232.40089 C917.003466,2232.40089 905.788378,2235.79835 897.294726,2242.59327 C888.801074,2249.3882 884.554248,2257.5005 884.554248,2266.93019 L884.554248,2266.93019 L909.827197,2266.93019 C909.827197,2262.49269 911.560595,2258.90455 915.027392,2256.16578 C918.494189,2253.42701 923.278369,2252.05763 929.379931,2252.05763 C936.036181,2252.05763 941.097705,2253.70436 944.564501,2256.99782 C948.031298,2260.29127 949.764697,2264.91945 949.764697,2270.88234 L949.764697,2270.88234 L949.764697,2280.76271 L931.356005,2280.76271 C915.478076,2280.76271 903.309619,2283.74415 894.850634,2289.70704 C886.39165,2295.66993 882.162158,2304.19826 882.162158,2315.29201 C882.162158,2325.96974 885.264941,2334.27272 891.470507,2340.20094 C897.676074,2346.12916 906.568408,2349.09327 918.147509,2349.09327 Z M923.659716,2328.81251 C918.251513,2328.81251 914.195361,2327.5818 911.491259,2325.12037 C908.787158,2322.65895 907.435107,2319.24415 907.435107,2314.87599 C907.435107,2309.81447 909.463183,2305.4983 913.519335,2301.9275 C917.575488,2298.3567 923.382373,2296.5713 930.93999,2296.5713 L930.93999,2296.5713 L949.764697,2296.5713 L949.764697,2315.70802 C947.407275,2319.45216 943.923144,2322.57228 939.312304,2325.06837 C934.701464,2327.56447 929.483935,2328.81251 923.659716,2328.81251 Z M1019.49565,2206.91993 L1019.49565,2184.7671 L994.222705,2184.7671 L994.222705,2206.91993 L1019.49565,2206.91993 Z M1019.49565,2347.0132 L1019.49565,2234.48097 L994.222705,2234.48097 L994.222705,2347.0132 L1019.49565,2347.0132 Z M1063.84966,2347.0132 L1063.84966,2265.37013 C1066.41509,2261.48732 1069.58721,2258.4712 1073.36602,2256.32179 C1077.14482,2254.17238 1081.56499,2253.09767 1086.62651,2253.09767 C1093.90679,2253.09767 1099.26299,2254.83107 1102.69512,2258.29786 C1106.12725,2261.76466 1107.84331,2267.83156 1107.84331,2276.49855 L1107.84331,2276.49855 L1107.84331,2347.0132 L1133.11626,2347.0132 L1133.11626,2276.29054 C1133.11626,2260.9673 1129.90947,2249.82155 1123.4959,2242.85328 C1117.08232,2235.88502 1107.87798,2232.40089 1095.88286,2232.40089 C1088.8106,2232.40089 1082.53569,2233.96095 1077.05815,2237.08107 C1071.58061,2240.20118 1067.00444,2244.60402 1063.32964,2250.28956 L1063.32964,2250.28956 L1063.12163,2250.18556 L1061.66558,2234.48097 L1038.57671,2234.48097 L1038.57671,2347.0132 L1063.84966,2347.0132 Z M449.472216,2529.0132 L503.450244,2377.58351 L476.513232,2377.58351 L440.423876,2489.59572 L437.615771,2500.72413 L437.303759,2500.72413 L434.39165,2489.38771 L398.406298,2377.58351 L371.365283,2377.58351 L425.447314,2529.0132 L449.472216,2529.0132 Z M554.25249,2531.09327 C563.543505,2531.09327 571.551806,2529.9319 578.277392,2527.60914 C585.002978,2525.28639 590.480517,2522.28761 594.710009,2518.61281 L594.710009,2518.61281 L587.325732,2501.34816 C582.74956,2504.46827 578.086718,2506.84303 573.337206,2508.47242 C568.587695,2510.10182 562.746142,2510.91652 555.812548,2510.91652 C547.07622,2510.91652 540.3333,2508.10841 535.583789,2502.4922 C530.834277,2496.87599 528.112841,2489.38771 527.419482,2480.02736 L527.419482,2480.02736 L598.350146,2480.02736 L598.350146,2465.1548 C598.350146,2449.41554 594.397998,2437.02174 586.493701,2427.9734 C578.589404,2418.92506 566.87163,2414.40022 551.34038,2414.40022 C536.918505,2414.33156 525.079394,2419.60109 515.823046,2430.20949 C506.566699,2440.81788 501.938525,2454.47706 501.938525,2471.18702 L501.938525,2471.18702 L501.938525,2475.34718 C501.938525,2491.98781 506.601367,2505.43898 515.92705,2515.7007 C525.252734,2525.96242 538.02788,2531.09327 554.25249,2531.09327 Z M573.285205,2461.51466 L527.939501,2461.51466 C529.187548,2453.40236 531.822314,2446.90211 535.843798,2442.01393 C539.865283,2437.12575 545.03081,2434.68165 551.34038,2434.68165 C558.828662,2434.68165 564.358203,2436.9004 567.929003,2441.3379 C571.499804,2445.7754 573.285205,2451.63429 573.285205,2458.91456 L573.285205,2458.91456 L573.285205,2461.51466 Z M634.799853,2529.0132 L634.799853,2447.37013 C637.365283,2443.48732 640.537402,2440.4712 644.31621,2438.32179 C648.095019,2436.17238 652.515185,2435.09767 657.576708,2435.09767 C664.856982,2435.09767 670.213183,2436.83107 673.645312,2440.29786 C677.077441,2443.76466 678.793505,2449.83156 678.793505,2458.49855 L678.793505,2458.49855 L678.793505,2529.0132 L704.066455,2529.0132 L704.066455,2458.29054 C704.066455,2442.9673 700.859667,2431.82155 694.446093,2424.85328 C688.032519,2417.88502 678.828173,2414.40089 666.833056,2414.40089 C659.76079,2414.40089 653.485888,2415.96095 648.008349,2419.08107 C642.53081,2422.20118 637.954638,2426.60402 634.279833,2432.28956 L634.279833,2432.28956 L634.071826,2432.18556 L632.615771,2416.48097 L609.526904,2416.48097 L609.526904,2529.0132 L634.799853,2529.0132 Z M769.637255,2531.09327 C778.928271,2531.09327 786.936572,2529.9319 793.662158,2527.60914 C800.387744,2525.28639 805.865283,2522.28761 810.094775,2518.61281 L810.094775,2518.61281 L802.710498,2501.34816 C798.134326,2504.46827 793.471484,2506.84303 788.721972,2508.47242 C783.97246,2510.10182 778.130908,2510.91652 771.197314,2510.91652 C762.460986,2510.91652 755.718066,2508.10841 750.968554,2502.4922 C746.219042,2496.87599 743.497607,2489.38771 742.804248,2480.02736 L742.804248,2480.02736 L813.734912,2480.02736 L813.734912,2465.1548 C813.734912,2449.41554 809.782763,2437.02174 801.878466,2427.9734 C793.974169,2418.92506 782.256396,2414.40022 766.725146,2414.40022 C752.303271,2414.33156 740.46416,2419.60109 731.207812,2430.20949 C721.951464,2440.81788 717.32329,2454.47706 717.32329,2471.18702 L717.32329,2471.18702 L717.32329,2475.34718 C717.32329,2491.98781 721.986132,2505.43898 731.311816,2515.7007 C740.637499,2525.96242 753.412646,2531.09327 769.637255,2531.09327 Z M788.66997,2461.51466 L743.324267,2461.51466 C744.572314,2453.40236 747.20708,2446.90211 751.228564,2442.01393 C755.250048,2437.12575 760.415576,2434.68165 766.725146,2434.68165 C774.213427,2434.68165 779.742968,2436.9004 783.313769,2441.3379 C786.88457,2445.7754 788.66997,2451.63429 788.66997,2458.91456 L788.66997,2458.91456 L788.66997,2461.51466 Z M873.37749,2531.09327 C882.668505,2531.09327 890.676806,2529.9319 897.402392,2527.60914 C904.127978,2525.28639 909.605517,2522.28761 913.835009,2518.61281 L913.835009,2518.61281 L906.450732,2501.34816 C901.87456,2504.46827 897.211718,2506.84303 892.462206,2508.47242 C887.712695,2510.10182 881.871142,2510.91652 874.937548,2510.91652 C866.20122,2510.91652 859.4583,2508.10841 854.708789,2502.4922 C849.959277,2496.87599 847.237841,2489.38771 846.544482,2480.02736 L846.544482,2480.02736 L917.475146,2480.02736 L917.475146,2465.1548 C917.475146,2449.41554 913.522998,2437.02174 905.618701,2427.9734 C897.714404,2418.92506 885.99663,2414.40022 870.46538,2414.40022 C856.043505,2414.33156 844.204394,2419.60109 834.948046,2430.20949 C825.691699,2440.81788 821.063525,2454.47706 821.063525,2471.18702 L821.063525,2471.18702 L821.063525,2475.34718 C821.063525,2491.98781 825.726367,2505.43898 835.05205,2515.7007 C844.377734,2525.96242 857.15288,2531.09327 873.37749,2531.09327 Z M892.410205,2461.51466 L847.064501,2461.51466 C848.312548,2453.40236 850.947314,2446.90211 854.968798,2442.01393 C858.990283,2437.12575 864.15581,2434.68165 870.46538,2434.68165 C877.953662,2434.68165 883.483203,2436.9004 887.054003,2441.3379 C890.624804,2445.7754 892.410205,2451.63429 892.410205,2458.91456 L892.410205,2458.91456 L892.410205,2461.51466 Z M954.132861,2529.0132 L954.132861,2450.90626 C955.935595,2447.09279 958.466357,2444.18068 961.725146,2442.16993 C964.983935,2440.15919 969.109423,2439.15382 974.101611,2439.15382 L974.101611,2439.15382 L986.06206,2439.56984 L989.078173,2415.64894 C988.038134,2415.30226 986.686083,2415.00758 985.022021,2414.76491 C983.357958,2414.52223 981.693896,2414.40089 980.029833,2414.40089 C974.136279,2414.40089 969.005419,2415.97828 964.637255,2419.13307 C960.269091,2422.28785 956.663623,2426.67335 953.820849,2432.28956 L953.820849,2432.28956 L953.508837,2432.28956 L951.948779,2416.48097 L928.859912,2416.48097 L928.859912,2529.0132 L954.132861,2529.0132 Z M1038.32036,2531.09327 C1052.25688,2531.09327 1063.3333,2528.00783 1071.54961,2521.83693 C1079.76592,2515.66603 1083.87407,2507.41505 1083.87407,2497.084 C1083.87407,2487.72365 1080.52861,2480.46071 1073.83769,2475.29518 C1067.14678,2470.12965 1056.59038,2466.05617 1042.16851,2463.07472 C1032.73882,2461.20265 1026.56792,2459.13991 1023.65581,2456.88649 C1020.7437,2454.63307 1019.28765,2451.49562 1019.28765,2447.47413 C1019.28765,2443.45265 1020.8477,2440.08986 1023.96782,2437.38576 C1027.08794,2434.68165 1031.76811,2433.3296 1038.00835,2433.3296 C1044.31792,2433.3296 1049.2061,2434.97633 1052.6729,2438.26979 C1056.1397,2441.56325 1057.8731,2445.5674 1057.8731,2450.28224 L1057.8731,2450.28224 L1083.04204,2450.28224 C1083.04204,2439.74318 1079.03789,2431.12819 1071.02959,2424.43727 C1063.02129,2417.74635 1052.01421,2414.40089 1038.00835,2414.40089 C1024.76519,2414.40089 1014.20879,2417.67701 1006.33916,2424.22926 C998.469531,2430.78151 994.534716,2438.87648 994.534716,2448.51417 C994.534716,2457.66652 997.914843,2464.80812 1004.6751,2469.93898 C1011.43535,2475.06984 1021.67974,2479.09132 1035.40825,2482.00343 C1044.69927,2484.01417 1050.95684,2486.26759 1054.18096,2488.76368 C1057.40508,2491.25978 1059.01714,2494.4839 1059.01714,2498.43605 C1059.01714,2502.73488 1057.28374,2506.09767 1053.81694,2508.52443 C1050.35015,2510.95118 1045.28862,2512.16456 1038.63237,2512.16456 C1032.11479,2512.16456 1026.67192,2510.72584 1022.30376,2507.8484 C1017.9356,2504.97096 1015.61284,2500.20411 1015.3355,2493.54786 L1015.3355,2493.54786 L990.89458,2493.54786 C990.89458,2503.74025 995.07207,2512.54591 1003.42705,2519.96486 C1011.78203,2527.3838 1023.41313,2531.09327 1038.32036,2531.09327 Z" id="PorcelainVeneers"></path>
        </g>
    </g>
</svg>