<svg height="40" viewBox="0 0 40 40" width="40" xmlns="http://www.w3.org/2000/svg"><g fill="none" fill-rule="evenodd"><circle cx="20" cy="20" fill="#faece9" r="20"/><path d="m10.8333333 0c5.9735 0 10.8333334 4.85983333 10.8333334 10.8333333 0 5.9735-4.8598334 10.8333334-10.8333334 10.8333334-5.97349997 0-10.8333333-4.8598334-10.8333333-10.8333334 0-5.97349997 4.85983333-10.8333333 10.8333333-10.8333333zm0 1.56361111c-5.11116663 0-9.26972219 4.15831482-9.26972219 9.26972219 0 5.1111667 4.15831482 9.2697223 9.26972219 9.2697223 5.1114074 0 9.269963-4.1583149 9.269963-9.2697223 0-5.11140737-4.1583148-9.26972219-9.269963-9.26972219zm.5926556 9.20914579c.1743986 0 .3389389.0680695.4624028.1905945l3.0577264 3.0560833v-2.0768222c0-.3595944.2924638-.6520583.6520583-.6520583.3593597 0 .6518236.2924639.6518236.6520583v3.6513389c0 .3617069-.2943417.6560486-.6558139.655814h-3.6513389c-.3593597 0-.6518236-.292464-.6518236-.6518237 0-.3595945.2924639-.6520584.6518236-.6520584h2.0772917l-3.0560833-3.0577264c-.1229945-.1232291-.1908292-.2873-.1908292-.4624027 0-.1748681.0676-.3391736.1908292-.4621681.1232291-.1229944.2870652-.1908292.4619333-.1908292zm-2.60893751-6.25886801c.35959444 0 .65229305.29246389.65229305.65205833 0 .35959445-.29269861.65205834-.65205833.65205834h-2.07682222l3.05584861 3.05561388c.12299444.12299445.19082917.28683056.19082917.46122917s-.06783473.33823472-.19082917.46122917c-.12299444.12299444-.28659583.19082916-.46075972.19082916-.17392917 0-.33776528-.0676-.46146389-.19035972l-3.05608333-3.05608333v2.07682222c0 .35935972-.29246389.65205833-.65205834.65205833-.35959444 0-.65205833-.29269861-.65205833-.65205833v-3.65133889c0-.35959444.29246389-.65205833.65205833-.65205833z" fill="#f05024" transform="translate(9.166667 9.166667)"/></g></svg>