<svg height="334" viewBox="0 0 586 334" width="586" xmlns="http://www.w3.org/2000/svg"><text fill="#fff" font-family="TimesNewRomanPS-BoldMT, Times New Roman" font-size="44" font-weight="700" letter-spacing="-.014em" transform="translate(293 324)"><tspan x="-292.619" y="0">Department of Veteran’s Affairs</tspan></text><path d="m8.5 269h569v4h-569z" fill="#fff"/><text fill="#fff" font-family="TimesNewRomanPS-BoldMT, Times New Roman" font-size="44" font-weight="700" letter-spacing="-.014em" transform="translate(292.5 247)"><tspan x="-218.265" y="0">Australian Government</tspan></text><g fill="#fffffe"><path d="m1.333.669a1.6 1.6 0 0 1 -.666.662" transform="translate(253.5 140)"/><path d="m1 2a1 1 0 1 0 -1-1 1 1 0 0 0 1 1" transform="translate(258.5 95)"/><path d="m20.954 52a1.959 1.959 0 0 1 -1.473-.672l-16.148-9.786c-1.944-.909-3.3-3.836-3.3-7.118l-.033-34.401h.006v-.023h41.989v.023h.005l-.033 34.4c0 3.281-1.357 6.208-3.3 7.118l-16.4 9.939a1.95 1.95 0 0 1 -1.313.52zm-5.854-26.825v22.143l4.613 2.794a1.918 1.918 0 0 0 1.238.454 1.965 1.965 0 0 0 1.222-.435h.081l4.646-2.813v-22.143zm12.937 0v21.45l10.048-6.09c1.568-1.083 2.485-2.992 2.725-5.675v-9.685zm-26.853 0v9.684c.239 2.683 1.156 4.593 2.725 5.675l10.048 6.09v-21.449zm26.858-24.006v22.841h12.771v-22.841zm-12.939 0v22.841h11.797v-22.841zm-4.775 14.479v8.362h3.632v-8.362zm-9.141 0v8.362h4.413v-8.362zm6.794 6.3.622.474v-.748l.659-.127-.515-.545.321-.6-.69.064-.4-.717-.409.728-.678-.075.319.6-.515.545.659.127v.748l.623-.474zm-2.589-10.548c-.1 0-.2.075-.318.243a3.086 3.086 0 0 1 .667.566 1.591 1.591 0 0 0 .809.56l-.029.029c-.347.357-1.271 1.305-1.146 1.6.025.059.091.089.2.089s.214-.1.342-.247c.34-.38.909-1.016 2.86-1.016a1.671 1.671 0 0 1 -.3.209c-.194.118-.4.24-.4.381 0 .227.1.271.261.271h.123.034c.154-.008.271-.158.394-.318.136-.177.278-.359.483-.359.1 0 .411.052.446.283a.29.29 0 0 1 -.057.118c-.062.1-.146.234-.1.322.034.061.128.092.281.092a.505.505 0 0 0 .415-.169.679.679 0 0 0 .126-.438c0-.884-1-2.542-1.89-2.542-.548 0-.634.537-.691.892-.028.176-.049.3-.113.3s-.068-.1-.085-.237c-.044-.358-.119-.958-.988-.958-.624 0-.847.326-.847.631l-.062-.051c-.167-.151-.292-.251-.415-.251zm7.208 2.051.626.473v-.744l.659-.13-.517-.547.319-.6-.687.064-.4-.721-.408.728-.68-.073.323.6-.517.547.659.13v.745l.621-.473zm-9.6 0 .623.473v-.744l.657-.13-.513-.55.321-.6-.685.066-.403-.72-.41.728-.676-.074.321.6-.515.547.657.13v.745l.623-.47zm7.328-12.282v8.811h3.632v-8.811zm-9.141 0v8.811h4.413v-8.811zm6.794 3.7.622.474v-.743l.659-.126-.515-.549.321-.6-.69.064-.4-.719-.406.73-.678-.073.319.6-.513.55.659.126v.745l.623-.474z" transform="translate(272.5 47)"/><path d="m11.881 7.008c-.064-.142-1.642.53-1.193.488a4.772 4.772 0 0 1 1.312-1.796c-.072-.557-.777-.052-1.514.34 2.453-3.562.879-2.1-.493-1.847 2.19-2.392 1.614-2.352 0-1.609 1.27-1.017 1.539-2.231 1.346-2.584-1.19 1.607-2.287 1.357-2.287 2.847a6.006 6.006 0 0 1 -.847 3.137c-.638.7-.15-2.63-1.828-2.63-.538 0-1.809-.044-2.192.622.345 0 .856.885.856 1.237s.318 1.321-.26 1.321-1.239-1.225-1.239-1.813-.042-.447-.042-1.29c0-1.411-2.264-3.395-3.185-3.395 0 .983 1.265 1.217 1.265 2.471-.536 0-1.3-1.02-1.3-.39s.807.743.807 1.292-.923-.2-.923.392c0 .52.506.43.625.937-.373-.108-.709-.058-.775.136-.061.169.108.39.392.549-.131.121-.242.415-.242 1.24 0 2.784 1.724 4.078 2.989 4.078.9 0 .76-.637.87-.941.038.472.479-.236.479.588 0 .862-.871.486-.871 1.229 0 .995 1.379-.035 1.379 1.068a13.283 13.283 0 0 1 -.165 1.815c0 .351 1.445-.488 1.354-.637.347.127.332 1.162.976 1.137.415-.017.506-1.062.834-1.152-.193.054 1.307.993 1.307.516 0-1.3-.525-.745-.525-1.636 0-.824 1.773-.664 1.493-1.087-.235-.349-.4-.134-.583-.749.034.113-1.394-2.062.3-.941 1.779 1.179 1.98-2.74 1.885-2.943" transform="translate(273.5 73)"/><path d="m1.5 2c.83 0 1.5-.449 1.5-1s-.67-1-1.5-1-1.5.448-1.5 1 .672 1 1.5 1" transform="translate(329.5 87)"/><path d="m1.5 2c.83 0 1.5-.448 1.5-1s-.67-1-1.5-1-1.5.449-1.5 1 .67 1 1.5 1" transform="translate(323.5 90)"/><path d="m1.5 2c.828 0 1.5-.449 1.5-1s-.672-1-1.5-1-1.5.449-1.5 1 .674 1 1.5 1" transform="translate(256.5 98)"/><path d="m1.5 2c.83 0 1.5-.449 1.5-1s-.67-1-1.5-1-1.5.447-1.5 1 .672 1 1.5 1" transform="translate(260.5 98)"/><path d="m1.879 1.844a7.9 7.9 0 0 1 1.151 9.156c-.9-.072-.74-1.107-.9-1.7-1.65-2.73-2.967-6.2-1.485-9.3 1.07.148.657 1.329 1.234 1.844" transform="translate(380.5 40)"/><path d="m3 3.834a13.741 13.741 0 0 0 0 6.058c-.375.384-.3-.384-.676-.307-2.924-2.147-1.574-6.363-2.324-9.352a.574.574 0 0 1 .75-.154 5.483 5.483 0 0 1 2.25 3.755" transform="translate(203.5 42)"/><path d="m2.874.816c.442.875-.371 1.751-.965 2.149a1.866 1.866 0 0 1 -1.852-.875 1.873 1.873 0 0 1 .892-2.072 1.867 1.867 0 0 1 1.924.8" transform="translate(386.5 45)"/><path d="m3 1.116a2.569 2.569 0 0 1 -1.035 1.884c-.478 0-1.197 0-1.515-.427a1.658 1.658 0 0 1 -.321-1.803 1.82 1.82 0 0 1 1.517-.77c.554.258 1.115.429 1.354 1.116" transform="translate(198.5 48)"/><path d="m2.887.822a1.954 1.954 0 0 1 0 1.312 1.666 1.666 0 0 1 -2.051.739 2.23 2.23 0 0 1 -.836-1.396 2.416 2.416 0 0 1 1.291-1.477 2.374 2.374 0 0 1 1.6.822" transform="translate(389.5 50)"/><path d="m2.667.462c.649.328.163 1.16.082 1.656-.406.417-.969 1.077-1.7.828-.405-.411-.886-.411-1.049-.994a1.836 1.836 0 0 1 1.132-1.907 1.976 1.976 0 0 1 1.535.417" transform="translate(385.5 50)"/><path d="m3 .848c0 .848.084 1.926-1.027 2.082a1.632 1.632 0 0 1 -1.964-1.081 1.819 1.819 0 0 1 1.282-1.849 2.4 2.4 0 0 1 1.709.848" transform="translate(379.5 51)"/><path d="m2.954 1.141c.251.866-.579 1.39-1.075 1.825-.579.174-1.328-.348-1.662-.959-.579-.607.167-1.129.334-1.649a1.516 1.516 0 0 1 2.4.783" transform="translate(206.5 51)"/><path d="m2 1.24a2.07 2.07 0 0 1 -.668 1.69c-.488.263-.975-.269-1.221-.8a1.812 1.812 0 0 1 .548-2.048c.673-.358 1.097.533 1.341 1.158" transform="translate(203.5 51)"/><path d="m1.615.975a17.758 17.758 0 0 1 1.385 5.596c-.278 1.476.208 3.418-.765 4.429-.969-.389-1.035-1.71-1.66-2.408-1.247-2.719-.138-5.908.277-8.549.555-.233.555.545.763.932" transform="translate(362.5 51)"/><path d="m2.955 1.017c.231.929-.465 1.4-1.008 1.937a1.815 1.815 0 0 1 -1.938-1.085 1.94 1.94 0 0 1 1.008-1.859 2 2 0 0 1 1.938 1.007" transform="translate(198.5 52)"/><path d="m3.176 2.777a9.732 9.732 0 0 1 .377 6.865l-.453.358c-1.058-1.931-2.568-3.719-3.1-5.793a9.029 9.029 0 0 1 .911-4.076c.528-.353.829.073 1.056.5a2.779 2.779 0 0 0 1.21 2.144" transform="translate(373.5 53)"/><path d="m3 1.079a2 2 0 0 1 -1.163 1.875 1.385 1.385 0 0 1 -1.776-.936 1.689 1.689 0 0 1 .849-1.875c.851-.469 1.7.315 2.09.936" transform="translate(382.5 53)"/><path d="m3 1.429a1.617 1.617 0 0 1 -1.152 1.429c-.615.452-1.074-.3-1.614-.525a1.737 1.737 0 0 1 0-1.733c.233-.451.766-.451 1.231-.6.691.377 1.38.678 1.535 1.429" transform="translate(202.5 55)"/><path d="m2.926 1.234c.343.843-.594 1.263-.935 1.682-1.022.339-1.533-.416-1.957-1.01-.172-.843.341-1.349.935-1.853 1.021-.253 1.531.422 1.957 1.181" transform="translate(205.5 55)"/><path d="m8 0c-.075.964-1.557 1.927-1.7 2.889a7.485 7.485 0 0 1 -4.583 4.15 3.539 3.539 0 0 1 -1.706.961c-.145-1.48 1.186-2.815 2-4.145a10.969 10.969 0 0 1 5.989-3.855" transform="translate(379.5 56)"/><path d="m5.09 2.734a26.759 26.759 0 0 0 2.9 3.517c.073.3-.141.749-.494.749-3.466-.225-5.796-3.968-7.496-6.586.214-.824 1.131-.15 1.629-.225 1.2.972 2.543 1.272 3.462 2.544" transform="translate(198.5 56)"/><path d="m7 0c-.147 3.272-1.678 6.62-4.521 8.218-.801.305-1.679 1.141-2.479.609 1.533-3.274 3.865-5.934 6.417-8.827z" transform="translate(381.5 60)"/><path d="m2.954.876a1.775 1.775 0 0 1 -1.254 2.118c-.809.074-1.323-.583-1.692-1.167a1.525 1.525 0 0 1 1.032-1.607 1.233 1.233 0 0 1 .882-.22c.444.146.663.51 1.032.876" transform="translate(371.5 61)"/><path d="m6.029 1.029a43.426 43.426 0 0 1 3.971 3.639c-.955.7-2.132.076-3.237.076-2.499-.927-4.19-3.173-6.763-3.944.072-.857 1.029-.547 1.544-.78 1.618-.155 2.94.62 4.485 1.008" transform="translate(193.5 62)"/><path d="m95.482 26.44c-4.146-1.64-6.882 2.683-11.107 2.16-.517.3-.37.821-.666 1.194-.222.222-.594.075-.814-.075-.22-1.791-.814-3.43-1.036-5.147-.446-.743-.224-1.788-.592-2.532-2.371-6.486 5.775-1.567 7.4-5.367 1.409-3.282-2.74-3.654-4-5.964v-.97c-1.185-1.192-2.443-1.566-3.185-3.133a10.8 10.8 0 0 0 .222-5.74c-.075-.446-.37-1.043-1.034-.819-1.409 1.939-2.445 3.5-3.778 5.369a39.8 39.8 0 0 0 -4.368-3.28c-1.113-.149-2.147-1.269-3.407-.819a1.018 1.018 0 0 0 .222 1.116c.075 2.909 1.555 5.219 3.627 7.307l.224 1.118c-1.331 3.057-.963 6.559-1.331 9.841a54.62 54.62 0 0 1 -16.07 22.587c-4.219 4.771-9.255 9.4-9.921 15.955-.22 1.045.149 2.312-.666 3.057a25.543 25.543 0 0 1 -6.886-3.652c-3.4-2.387-8.292-2.09-10.513-6.414-.889-1.713.224-3.428 1.036-4.695 2.521-2.386 2.151-6.637.82-9.537-.295-.075-.371.295-.592.369-.224 4.4-3.705 7.455-2.371 12.3.3 1.414 1.038 2.31 1.407 3.652a11.666 11.666 0 0 1 -1.7-.371c-1.628-.224-3.257-.9-4.962-.674-3.4 1.567-8.068-.369-10.81 2.76-.444.075-1.036.149-.887.819 1.628 0 3.181.446 4.812.375 2.591.446 4.293-1.715 6.07-2.685h.444c.741-.746 2-.3 2.964-.448 4.663.522 8.29 2.758 12.141 5.07v.3c-1.48.672-3.183 1.12-4.665 1.939-1.7 1.269-3.629 2.907-4.146 5-1.185 1.864.371 3.5 1.111 5.068.073.746.147 1.64.814 1.939 2.371-2.534.147-5.665.517-8.573.594-2.237 2.669-3.279 4.814-3.876 4.221-1.79 7.259 1.638 10.661 3.579-.073 3.43.373 6.708-.368 10.062a9.188 9.188 0 0 1 -3.483.522c-5.848.448-10.438 3.652-15.695 5.441-2.367.821-5.182.746-7.551 1.64 1.85.522 3.776-.147 5.7-.222 7.256-1.045 12.809-6.636 20.656-5.667l.147.224a17.493 17.493 0 0 1 -3.479 4.846c-.224-.821-.295-1.489-1.036-1.939a1.379 1.379 0 0 0 -1.7.6 1.022 1.022 0 0 0 0 1.12 2.421 2.421 0 0 0 1.628 1.03c-.149.674-.965.97-1.407 1.566-2.074 3.5-6.294 2.088-8.738 4.549-.37.522-1.7.819-1.111 1.64a11.111 11.111 0 0 0 7.627-1.943c2.74-3.053 5.628-5.96 8.366-8.867a8.885 8.885 0 0 1 -1.628 6.783 8.625 8.625 0 0 0 -2-1.118 1.821 1.821 0 0 0 -1.332 1.49 4.38 4.38 0 0 0 1.107 1.493c-2.514 1.79-5.7 1.939-8.587 2.758a145.818 145.818 0 0 1 -16.139 1.194c-2.593-.149-5.555.745-8 0-2.815.521-5.85-.375-8.146 1.191-.3.371.071.748.071 1.118 3.41 2.239 8.075.448 11.924 1.12h29.176c2.149-.075 4.3-.149 6-1.12 3.778-2.161 5.848-6.04 7.777-9.841a15.257 15.257 0 0 0 1.553-4.469 6.44 6.44 0 0 1 5.551-4.549 33.912 33.912 0 0 1 -1.264 11.331c-.444 2.387-2 4.695-1.036 7.231.222 1.192 1.482 1.192 2.443 1.342 8.96-.149 17.92-.522 27.4.151a22.267 22.267 0 0 0 5.036.743c.147-.224.666-.3.444-.743a2.82 2.82 0 0 0 -1.779-2.092c-.146-.444-.812-.3-1.036-.593-4.738-2.685-10.439-1.265-15.994-1.194-2.888.3-5.775.821-8.219-.819-1.109-1.342-.295-5.591-.295-5.591 0-1.685 4.073-13.419 4.592-14.389a12.91 12.91 0 0 0 .442-3.43c.592-1.491.446-3.428.446-5.068.295-2.387 1.48-4.622 2.294-6.932.444-1.12.816-2.312 1.258-3.432.444-1.414.6-2.758 1.482-3.876 2.415 1.532 4.777 1.487 5.938 4.227l1.021 6.21c0 .375.3 1.118.814.674 1.926-1.269 1.335-4.1 1.335-6.038.444-2.312-1.183-3.432-1.852-5.443a8.91 8.91 0 0 1 -1.37-2.152c-.3-1.642-3.886-2.769-3.073-4.783.442-1.715.889-3.28 2.516-4.249a.773.773 0 0 1 .37.53l.89-.623.091-6.234c2.4-.009 5.979.3 8.422.3.668.224 1.185.745 1.926.819l.594-.822 6-1.17c-2.548.286-4.1-2.64-6.518-2.64" transform="translate(183.5 14)"/><path d="m.7 1.057a3.626 3.626 0 0 0 .6-.114z" transform="translate(284.5 42)"/><path d="m2.992 1.03a1.894 1.894 0 0 1 -1.292 1.97c-.681-.255-1.194-.341-1.622-1.028-.343-.942.513-1.629 1.198-1.972.687.172 1.543.258 1.716 1.03" transform="translate(218.5 63)"/><path d="m2.509.338a1.945 1.945 0 0 1 .348 2.029c-.609.531-1.567.973-2.089.267-.521-.534-1.04-1.149-.606-1.856.607-.619 1.652-1.147 2.347-.44" transform="translate(213.5 64)"/><path d="m.966.943c.022.038.044.076.068.114" transform="translate(318.5 64)"/><path d="m2.92.954a1.748 1.748 0 0 1 -1.054 2.046c-.812-.267-1.866-.445-1.866-1.6a1.644 1.644 0 0 1 1.218-1.337c.73-.263 1.377.358 1.702.891" transform="translate(372.5 65)"/><path d="m2.551.66c.235.44.788 1.15.157 1.59a3.1 3.1 0 0 0 -.792.706 1.5 1.5 0 0 1 -1.893-1.062c-.16-.971.551-1.414 1.184-1.854.551-.177.946.265 1.344.619" transform="translate(376.5 65)"/><path d="m3 1.085a1.859 1.859 0 0 1 -2.313.828 2.711 2.711 0 0 1 -.687-.828 1.216 1.216 0 0 1 .945-1.085c1.028.064 1.8.383 2.055 1.085" transform="translate(194.5 66)"/><path d="m3 1.371a2.652 2.652 0 0 1 -1.306 1.622c-.772.083-1.308-.598-1.694-1.193 0-.685.308-1.54.922-1.711a1.7 1.7 0 0 1 2.078 1.282" transform="translate(219.5 67)"/><path d="m2.662.445c.239.18.477.657.239.958a2.092 2.092 0 0 1 -1.994.478c-.482-.3-1.037-.538-.88-1.137a3.548 3.548 0 0 1 1.2-.717c.636-.118.956.18 1.434.418" transform="translate(215.5 68)"/><path d="m3 1.223a2.335 2.335 0 0 1 -.994 1.655 1.373 1.373 0 0 1 -1.677-.434c-.456-.175-.306-.871-.306-1.31a2.669 2.669 0 0 1 1.45-1.134 2.836 2.836 0 0 1 1.527 1.223" transform="translate(387.5 67)"/><path d="m3 .8a2.034 2.034 0 0 1 -1.667 1.2c-.524-.067-1.49-.2-1.311-.8a1.17 1.17 0 0 1 .787-1.069 1.741 1.741 0 0 1 2.191.669" transform="translate(392.5 69)"/><path d="m2.96.962a1.558 1.558 0 0 1 -.944 1.92c-.552.318-1.101-.082-1.494-.399a1.388 1.388 0 0 1 -.395-1.601c.157-.722.865-.561 1.337-.882a1.943 1.943 0 0 1 1.5.962" transform="translate(203.5 69)"/><path d="m2.951 1.158c.241.7-.482.967-.643 1.5a1.259 1.259 0 0 1 -1.447.172c-.561-.53-1.206-1.319-.644-2.11.644-1.32 2.331-.62 2.734.438" transform="translate(206.5 70)"/><path d="m2.993.525c.091.63-.7 1.072-1.225 1.45a1.617 1.617 0 0 1 -1.757-.757c-.088-.505.352-.882.967-1.198a2.366 2.366 0 0 1 2.015.505" transform="translate(383.5 70)"/><path d="m3 .968c-.149.7-.074 1.488-.811 1.956a2.023 2.023 0 0 1 -1.772-.311 1.493 1.493 0 0 1 -.296-1.645 1.713 1.713 0 0 1 1.772-.938c.519.313.664.7 1.107.938" transform="translate(389.5 71)"/><path d="m1.941.985c.236.507-.3.637-.478.892a1.15 1.15 0 0 1 -1.194-.128c-.419-.257-.239-.891-.179-1.211.536-1.084 1.61-.319 1.851.447" transform="translate(201.5 72)"/><path d="m8.824 2.529c.293.079.148.554.072.71-1.763.949-4.41 1.186-5.956-.314a22.393 22.393 0 0 0 -2.94-1.739c.367-1.028 1.691-.949 2.647-1.186 2.13.316 3.823 2.45 6.177 2.529" transform="translate(378.5 72)"/><path d="m1.975.721c.121.488-.24.671-.361 1.035-.24.366-.72.244-1.022.122a1.091 1.091 0 0 1 -.421-1.523 1.081 1.081 0 0 1 1.8.366" transform="translate(204.5 74)"/><path d="m2.9 1.033a1.551 1.551 0 0 1 -.764 1.852c-.542.337-1-.167-1.46-.251-.382-.591-1.076-1.266-.382-1.941.691-1.261 2.072-.593 2.606.34" transform="translate(210.5 74)"/><path d="m11 1.568c-.144 1.511-2.677-.216-2.318 1.8.363 1.439.655 3.166 1.521 4.245.722 1.007.361 2.591.292 3.814a6.879 6.879 0 0 1 -2.9 2.445c-2.17-.216-5.355 1.079-6.369-1.583-.426-1.153-1.226-2.304-1.226-3.599.219-.142.509-.142.726-.358 0-.5-.578-.792-.507-1.3 2.459-.432-1.014-2.587 1.087-2.732 1.735 1.8 4.556 1.226 6.077 3.167a6.614 6.614 0 0 0 1.084.933c-.29-1.8-1.158-3.6-1.448-5.539a2.487 2.487 0 0 1 .871-2.516c1.303-1.007 2.386.432 3.11 1.223" transform="translate(287.5 76)"/><path d="m1.957.627c.2.626-.329 1-.725 1.315-.591.249-.921-.376-1.185-.69-.197-.625.264-.938.659-1.252a1.451 1.451 0 0 1 1.251.627" transform="translate(217.5 77)"/><path d="m2.509.42a9.87 9.87 0 0 1 -.875 8.127c-.072.579.149 1.522-.653 1.449-1.962-2.684-.508-6.458.293-9.287.145-.725 1.017-1.009 1.235-.289" transform="translate(262.5 78)"/><path d="m2.167 1.689a7.882 7.882 0 0 1 .151 6.731l-.6.58a16.1 16.1 0 0 1 -1.718-5.139 16.948 16.948 0 0 0 .9-3.837c1.048-.216.97 1.087 1.27 1.665" transform="translate(326.5 78)"/><path d="m9 .737c-.439.932-1.684 1.163-2.488 1.787a8.355 8.355 0 0 1 -6.512 1.323c1.9-2.797 4.829-4.43 8.34-3.654.147.307.514.157.66.544" transform="translate(216.5 80)"/><path d="m.79 0c2.91 1.844 3.7 4.4 5.427 6.955.234.284 1.024.355.71.926-.627.419-1.259-.429-2.127-.287a7.725 7.725 0 0 1 -4.8-7.31c0-.284.473-.284.79-.284" transform="translate(194.5 83)"/><path d="m1.985.563c.061.6-.061 1.209-.544 1.39a1.108 1.108 0 0 1 -1.391-.726c-.182-.427.181-.664.303-.967a1.077 1.077 0 0 1 1.632.3" transform="translate(323.5 85)"/><path d="m40.163 68.1a36.872 36.872 0 0 1 .515-4.081 2.7 2.7 0 0 0 .3-1.559c1.771-2.376 5.38-1.633 8.18-1.41 1.105.593 2.5.518 3.684.817a2.686 2.686 0 0 1 1.838-.367c2.356-1.261.81-4 .959-6.158l-.886-2.227a8.609 8.609 0 0 1 -.589-1.484c-.44-.518-.736-1.484-1.178-2-1.252-3.266-3.686-5.121-5.748-7.718-3.76-4.9-9.655-7.644-15.55-9.574-5.821-2-11.717.594-16.951 2.448a4.232 4.232 0 0 1 -2.872-3.117 14.742 14.742 0 0 1 1.4-7.865c.223-1.856 1.471-3.266 1.99-4.973 1.326-4.155 2.725-8.237 3.023-12.763.144-2.752-1.918-4.682-3.978-5.869a4.018 4.018 0 0 0 -4.052.817c-.959 2-3.023 3.34-4.789 4.3-.149 1.261 1.4.446 1.914.892 1.622.3 3.467-.223 4.791.815.149 2.968-1.548 5.419-3.1 7.644-2.506 3.71-5.157 7.5-6.7 11.576l-.3-.3.357 18.141c2.35 3.915 5.279 8.372 9.666 9.845 2.356 1.928 5.3 4.228 8.474 2.524 1.694-.522 1.841 1.854 2.651 2.818.884 2.747-1.1 4.676-1.252 7.2l-1.917 4.081c-2.211 4.306-4.2 8.905-7.589 12.542-1.105 0-1.767 1.185-2.872 1.261-.591.815-1.771.223-2.506.52-2.287.966-5.528.371-7.076 2.524a1.008 1.008 0 0 0 .589.372c4.494.074 9.507.372 14.3.149a1.779 1.779 0 0 0 1.18-1.41c-.661-1.261.221-2.376.81-3.34.368-1.783 1.548-2.894 2.066-4.6 1.546-3.043 3.314-6.011 5.009-9.054l2.285-3.71a26.175 26.175 0 0 1 2.283-4.157 9.444 9.444 0 0 0 1.326-2c.076-.743-.294-1.038-.738-1.56.516-.518 1.326-.37 1.993-.518 1.841 1.113 3.757 2.894 4.124 4.9l.665 1.928.3.892-.15 2.448.3 2.3c.37 3.561-.3 7.2-.663 10.761-1.254 4.3-6.19 3.858-9.728 4.824-.884.593-2.577.3-2.577 1.78 4.271.892 9.284.372 13.852.3.736-.3.884-.966 1.252-1.633.149-.966 1.107-1.783.81-2.82-.81-1.038-.072-2.671-.294-4.081a2.277 2.277 0 0 0 0-1.412c.591-2.151.442-4.748.884-6.827z" transform="translate(316.5 21)"/><path d="m10 .116c-2.425 3.155-5 6.733-9.238 7.857-.306 0-.609.139-.762-.212 2.576-2.527 3.943-6.453 7.955-7.361a2.661 2.661 0 0 1 2.045-.284" transform="translate(383.5 86)"/><path d="m2 1.048c-.312.246-.062.8-.626.865a1.012 1.012 0 0 1 -1.311-.556 1.094 1.094 0 0 1 .811-1.357c.5.247 1 .432 1.126 1.048" transform="translate(189.5 89)"/><path d="m8.962 1.838c.21.612-.5.612-.849.749a7.906 7.906 0 0 1 -8.113-1.977c0-.271 0-.543.283-.61 2.892.679 6.281.135 8.679 1.838" transform="translate(203.5 89)"/><path d="m2.814.488a1.293 1.293 0 0 1 .156.919 2.008 2.008 0 0 1 -1.951.55 2.337 2.337 0 0 1 -1.019-.797c.081-.61.7-.978 1.329-1.16a2.706 2.706 0 0 1 1.485.488" transform="translate(192.5 90)"/><path d="m2.972.625c.176.631-.52 1.058-1.045 1.338a1.935 1.935 0 0 1 -1.827-.563.944.944 0 0 1 .611-1.339c.784-.141 2-.071 2.261.564" transform="translate(262.5 90)"/><path d="m2.952.628c.239.618-.47.926-1.026 1.3a2.143 2.143 0 0 1 -1.5-.186c-.081-.312-.553-.559-.393-.992a1.836 1.836 0 0 1 1.814-.741 9.508 9.508 0 0 1 1.105.619" transform="translate(393.5 90)"/><path d="m2.794.56c.451.721.076 1.289-.3 1.851a1.01 1.01 0 0 1 -1.361.481c-.455-.481-1.061-.725-1.133-1.448 0-.644.678-1.126 1.13-1.368.758-.322 1.059.484 1.664.484" transform="translate(398.5 90)"/><path d="m2.991 1.231c.079.573-.393.9-.55 1.4-.395.164-.788.493-1.26.329a2.362 2.362 0 0 1 -1.181-1.32 2.107 2.107 0 0 1 1.417-1.64 2.041 2.041 0 0 1 1.574 1.231" transform="translate(185.5 91)"/><path d="m2.891.5c.173.244.089.548.089.793a1.954 1.954 0 0 1 -2.061.607c-.512-.369-1.119-.735-.858-1.284a2.105 2.105 0 0 1 2.83-.116" transform="translate(341.5 92)"/><path d="m2 1.707c-.128.6-.322 1.2-.9 1.286s-.774-.6-1.1-.944c0-.771-.064-1.544.518-1.973.773-.341 1.482.515 1.482 1.631" transform="translate(198.5 92)"/><path d="m2.944 1.185a1.652 1.652 0 0 1 -.8 1.738 1.882 1.882 0 0 1 -2.144-1.106 2.242 2.242 0 0 1 1.429-1.817c.718 0 1.116.792 1.515 1.185" transform="translate(190.5 93)"/><path d="m2.954.918a1.7 1.7 0 0 1 -.854 2.006c-.933.335-1.711-.5-2.1-1.171.388-.67.465-1.588 1.4-1.753a1.763 1.763 0 0 1 1.554.918" transform="translate(345.5 93)"/><path d="m1.95.842c.182.418-.181.6-.306.9-.3 0-.484.358-.848.237-.243-.3-.729-.417-.79-.835-.06-.601.365-.898.794-1.139a1.119 1.119 0 0 1 1.15.837" transform="translate(194.5 93)"/><path d="m3 1.625a2.4 2.4 0 0 1 -1.3 1.346c-.613.166-1-.425-1.456-.677-.387-.335-.234-1.088-.078-1.511a1.518 1.518 0 0 1 2.834.842" transform="translate(388.5 93)"/><path d="m3 .969c-.235.665-1.095.97-1.876 1.031-.706-.243-1.487-.667-.941-1.394.317-.243.472-.487.941-.548a1.547 1.547 0 0 1 1.876.911" transform="translate(394.5 94)"/><path d="m2.9.968c.424 1.151-.585 1.502-1.26 2.032a3.787 3.787 0 0 1 -1.6-.707 2.047 2.047 0 0 1 1.179-2.293 2.017 2.017 0 0 1 1.681.968" transform="translate(359.5 94)"/><path d="m2.721.524c.431.134.257.605.17.81-.516.27-1.209.945-1.989.541-.602-.275-1.036-.675-.864-1.284a1.9 1.9 0 0 1 2.683-.067" transform="translate(339.5 96)"/><path d="m1.985.693a.986.986 0 0 1 -.485 1.113c-.431.483-.919-.07-1.345-.206a1.242 1.242 0 0 1 -.063-1.046 1.352 1.352 0 0 1 .794-.554c.428.139.916.139 1.1.693" transform="translate(344.5 96)"/><path d="m2.81.817c.476.489-.08 1.064-.161 1.556a1.535 1.535 0 0 1 -1.988.407c-.797-.328-.717-1.394-.561-2.045.481-.164.481-.735 1.117-.735a2.748 2.748 0 0 1 1.593.817" transform="translate(218.5 96)"/><path d="m2.979.9c.158.649-.629.909-1.175 1.039-.943.261-1.414-.328-1.804-.85 0-.389.467-.647.625-.97a2.164 2.164 0 0 1 2.354.781" transform="translate(367.5 96)"/><path d="m2.935 1.07c.305.891-.541 1.34-.85 1.785a1.405 1.405 0 0 1 -1.698-.355c-.387-.27-.387-.807-.387-1.343.463-.444.7-.981 1.239-1.157a1.965 1.965 0 0 1 1.7 1.07" transform="translate(363.5 96)"/><path d="m11.989 1.447c.148.941-1.207.469-1.733.737-3.168 1.68-7.239.4-10.255-.6.227-.874 1.358-.538 1.962-.874 3.24-1.812 6.557.4 9.8.538z" transform="translate(387.5 97)"/><path d="m10 .407-.291.511c-2.701 1.61-6.209 2.709-9.415 1.682l-.294-.435a13.25 13.25 0 0 1 9.783-1.98z" transform="translate(187.5 97)"/><path d="m3 .707a1.412 1.412 0 0 1 -.819 1.223c-.819.192-1.881 0-2.129-.707-.243-.516.411-1.03 1.065-1.223.573 0 1.555.063 1.883.707" transform="translate(375.5 97)"/><path d="m3 1.2c-.319.684-.159 1.374-.958 1.718s-1.752-.432-1.989-1.118c-.241-.946.396-1.2.796-1.632.951-.518 1.675.256 2.151 1.032" transform="translate(207.5 97)"/><path d="m2.935 1.313c.238.573-.242.9-.4 1.313a1.438 1.438 0 0 1 -1.6.247 1.907 1.907 0 0 1 -.879-1.973 4.523 4.523 0 0 1 1.28-.9 1.816 1.816 0 0 1 1.6 1.313" transform="translate(202.5 97)"/><path d="m3 1.406a1.845 1.845 0 0 1 -1.31 1.584 1.831 1.831 0 0 1 -1.556-.88 1.44 1.44 0 0 1 .328-1.668c.163-.266.738-.266 1.065-.442a1.811 1.811 0 0 1 1.473 1.406" transform="translate(380.5 99)"/><path d="m7.943.152c.229.607-.3.834-.383 1.293-.229 1.293-1.067 2.131-1.677 3.27-1.454 1.748-3.516 1.748-5.577 2.285l-.306-.611a20.027 20.027 0 0 1 7.714-6.389z" transform="translate(192.5 99)"/><path d="m2.978.826c.169.743-.671.867-1.254 1.174a2.074 2.074 0 0 1 -1.679-.742c-.245-.679.587-.925 1.09-1.237a1.815 1.815 0 0 1 1.843.805" transform="translate(376.5 100)"/><path d="m2.764.559c-.079.119.08.239.236.3-.077.663-.7.841-1.168 1.141a2.41 2.41 0 0 1 -1.713-.6c-.31-.542 0-1.2.781-1.381.7-.06 1.637 0 1.868.54" transform="translate(205.5 100)"/><path d="m5.413 3.118c.745-.082.9-1.037 1.719-1.2a1.794 1.794 0 0 1 1.795.882c.3.953-.377 1.433-.973 1.832-.524.4-1.646-.478-1.572.556a2.483 2.483 0 0 1 1.048 1.593c-.149.319-.673.239-.9.08-2.17-.955-4.487-2.548-5.384-4.938-.295-.723-1.714-1.275-.894-1.913 2.17-.161 3.963 1.673 5.162 3.108" transform="translate(387.5 100)"/><path d="m2.785.453a.8.8 0 0 1 -.071 1.147c-.365.6-1.449.361-2.1.3-.364-.3-.726-.6-.581-1.085a2.229 2.229 0 0 1 1.086-.783 2.292 2.292 0 0 1 1.666.421" transform="translate(397.5 101)"/><path d="m6.4 3.956a10.316 10.316 0 0 1 1.6 2.888c-.147.215-.509.145-.652.145-2.472-1.373-5.669-2.889-6.616-5.775-.218-.29-.8-.651-.725-1.155 1.893-.359 3.706 1.01 5.014 2.022.509.719 1.088 1.084 1.379 1.875" transform="translate(366.5 101)"/><path d="m2.908.742c.341.549-.345.982-.769 1.226a2.448 2.448 0 0 1 -1.968-.491c-.599-.677.513-1.226 1.198-1.472.681-.063 1.11.43 1.539.737" transform="translate(201.5 101)"/><path d="m2.993.935c.08.412-.565.686-.811.962-.649.069-1.3.275-1.87-.206-.162-.344-.567-.891-.08-1.234.893-.964 2.2-.208 2.761.478" transform="translate(379.5 103)"/><path d="m2.957.923a1.939 1.939 0 0 1 -1.026 2.019c-.731.242-1.311-.324-1.752-.726-.365-.487-.072-.97 0-1.534a1.714 1.714 0 0 1 1.9-.564 4.006 4.006 0 0 1 .877.8" transform="translate(397.5 104)"/><path d="m10 .459c0 .914-1.618.685-2.28 1.372-2.281 1.217-5 1.217-7.72 1.142v-.458a10.685 10.685 0 0 1 10-2.056" transform="translate(339.5 115)"/><path d="m2 .937a1.188 1.188 0 0 1 -.912 1.063 1.169 1.169 0 0 1 -1.032-.625c-.245-.75.364-1.061.788-1.375a1.428 1.428 0 0 1 1.156.937" transform="translate(239.5 117)"/><path d="m3 1.094a2.334 2.334 0 0 1 -1.125 1.87c-.675.16-1.126-.244-1.652-.564-.374-.33-.147-.9-.223-1.306a1.574 1.574 0 0 1 3 0" transform="translate(345.5 118)"/><path d="m11 .539c-1.9 1.126-4.019 2.461-6.524 2.461l-4.094-.072-.382-.28c2.5-2.81 7.054-2.81 11-2.53z" transform="translate(352.5 119)"/><path d="m3 1.308a1.587 1.587 0 0 1 -1.1 1.646 1.525 1.525 0 0 1 -1.768-.78 1.58 1.58 0 0 1 .674-1.991c.929-.607 1.858.434 2.194 1.125" transform="translate(219.5 120)"/><path d="m1.94.9c.192.344-.126.551-.255.9-.385.2-.893.335-1.214-.01a.894.894 0 0 1 -.383-1.169c.192-.413.575-.344.767-.621a1.838 1.838 0 0 1 1.085.9" transform="translate(223.5 121)"/><path d="m8 6.686c-.755.834-1.961-.209-2.793-.627-2.641-1.389-2.564-4.103-5.207-5.702.3-.832.98.071 1.509-.07a10.476 10.476 0 0 0 1.591.766c2.56 1.321 3.165 3.547 4.9 5.633" transform="translate(189.5 123)"/><path d="m183.468 84c-.447-.354-.115-.781.206-1.195a2.518 2.518 0 0 0 .385-.6 29.31 29.31 0 0 0 2.725-12.769c-.783-6.414-5.2-11.975-10.753-13.522a35.4 35.4 0 0 0 -4.135-1.361c-.411-.117-.832-.236-1.242-.357l-.221.3a12.381 12.381 0 0 0 2.515 3.03c1.337 1.289 2.6 2.506 2.863 4.738a3.045 3.045 0 0 1 0 2.763l-.221.15a19.7 19.7 0 0 1 -4.2-8.066c-1.337-3.7-4.642-4.61-7.838-5.492a22.664 22.664 0 0 1 -4.02-1.381c-.983-.2-1.955-.448-2.895-.689a26.672 26.672 0 0 0 -6.731-1.108q-.157 0-.316 0l-.293.3.227.24c1.635 1.727 3.046 3.219 3.75 5.289a18.835 18.835 0 0 1 1.4 6.157c.288 2.513.585 5.111 1.987 7.06a13.714 13.714 0 0 0 .968 1.093 5.462 5.462 0 0 1 1.831 3.092 3.887 3.887 0 0 0 .166.48 1.485 1.485 0 0 1 .053 1.462c-1.346-.171-2.5-1.271-3.533-3.362-.043-.2-.083-.393-.122-.584a6.148 6.148 0 0 0 -1.278-3.152c-.072.418-.129.868-.185 1.3a13 13 0 0 1 -.478 2.506c-.509-.154-.455-.735-.4-1.351a4.56 4.56 0 0 0 .028-.812.583.583 0 0 1 -.039-.2c-.009-.107-.018-.207-.106-.252a7.985 7.985 0 0 0 -1.023 1.173 5.415 5.415 0 0 1 -2.146 1.962 5.9 5.9 0 0 1 -2.135.6 1.7 1.7 0 0 1 -.881-.221 7.159 7.159 0 0 1 1.986-2.391c1.871-.832 4.2-1.868 4.786-4.108a20.257 20.257 0 0 0 -2.87-12.25 18.4 18.4 0 0 0 -4.493-3.883h-.035a1.808 1.808 0 0 0 -.85.149 11.134 11.134 0 0 1 2.264 3.366c.17.336.345.684.538 1.043.139.548.306 1.1.483 1.678.662 2.172 1.346 4.414.473 6.536a4.785 4.785 0 0 0 -.262.74c-.181.614-.367 1.247-.989 1.35-1.094-1.8-.788-3.87-.493-5.869.337-2.285.686-4.647-1.128-6.528a7.37 7.37 0 0 0 -3.9-2.464 24.641 24.641 0 0 0 -10.53 3.733 3.86 3.86 0 0 0 -.135 2.624c.049.263.1.535.134.813.122.22.24.44.354.653a12.623 12.623 0 0 0 1.708 2.634 7.918 7.918 0 0 0 4.341 1.287 5.909 5.909 0 0 0 2.731-.614 4.473 4.473 0 0 0 2.428-3.511 3.909 3.909 0 0 0 -1.031-2.913 3.107 3.107 0 0 0 -1.632-.635 1.48 1.48 0 0 0 -.723.185l-.265.177c-.818.543-1.59 1.056-1.724 2.067a.852.852 0 0 1 -.843.378h-.15-.111c-.459-.265-.451-.825-.444-1.367 0-.068 0-.136 0-.2.968-1.436 2.128-2.765 4.051-2.765a5.072 5.072 0 0 1 4.049 1.942 3.572 3.572 0 0 1 .71 3.164 11.541 11.541 0 0 1 -1.225 3.11 7.545 7.545 0 0 1 -6.126 2.773 11.021 11.021 0 0 1 -1.826-.157 9.866 9.866 0 0 1 -6.407-5.678 2.13 2.13 0 0 1 -.158-.657c-.07-.48-.149-1.024-.57-1.024a1.09 1.09 0 0 0 -.524.185c-4.175 3.718-6.727 7.84-7.584 12.252a2.5 2.5 0 0 0 -.222 1.791l-2.576-.224a6.688 6.688 0 0 0 .022-2.345 13.783 13.783 0 0 1 -.1-1.389 19.239 19.239 0 0 0 -7.584-9.86c-.134.309-.248.608-.358.9a6.722 6.722 0 0 1 -1.263 2.315 8.347 8.347 0 0 1 -6.817 3.41 9.5 9.5 0 0 1 -2.243-.272 6.38 6.38 0 0 1 -4.563-4.779 5.288 5.288 0 0 1 1.693-5.227 3.906 3.906 0 0 1 2.778-.928 8.064 8.064 0 0 1 1.271.105 2.215 2.215 0 0 1 1.4.964 3.036 3.036 0 0 0 .807.752.949.949 0 0 1 -.293 1.2 1.376 1.376 0 0 1 -.592.139 2.414 2.414 0 0 1 -1.26-.511c-.164-.105-.334-.214-.5-.3a2.465 2.465 0 0 0 -.791-.134 3.4 3.4 0 0 0 -2.45 1.329 5.14 5.14 0 0 0 1.175 4.557 5.267 5.267 0 0 0 3.249 1.018 6.806 6.806 0 0 0 3.455-.941 6.355 6.355 0 0 0 2.726-5.007c-.114-.8-.882-1.255-1.559-1.654-.209-.123-.407-.24-.579-.362-.573-.254-1.156-.527-1.72-.791-2.67-1.249-5.431-2.54-8.444-2.54-.319 0-.64.015-.954.043-1.674.663-3.237 1.414-3.977 3.287-.967 1.654-.568 3.245-.145 4.93a14.778 14.778 0 0 1 .441 2.24 16.107 16.107 0 0 0 -.416 1.553 8.254 8.254 0 0 1 -1.126 3 2.718 2.718 0 0 1 -.949-1.982 4.97 4.97 0 0 0 -.3-1.159c-1.246-2.207-.475-4.8.663-6.5a15.3 15.3 0 0 0 .984-2.044 8.155 8.155 0 0 1 2.393-3.63.348.348 0 0 1 -.072-.224h-.22a10.219 10.219 0 0 0 -4.64 2.539c-.161.2-.341.4-.532.621a7.554 7.554 0 0 0 -1.531 2.218 12.727 12.727 0 0 0 -1.447 4.488l-.027.141c-.142 2.945-.156 6.029 1.326 8.516 2.9.155 6.073.649 7.661 3.137l-.518.521a9.71 9.71 0 0 1 -3.033-.62c-.469-.15-.954-.3-1.456-.426a2.627 2.627 0 0 1 -.926-.642 1.808 1.808 0 0 0 -1.147-.65 1.163 1.163 0 0 0 -.58.172 2.249 2.249 0 0 0 .347.878c.25.442.487.86.172 1.365a2.039 2.039 0 0 1 -1.4-1.5 8.071 8.071 0 0 1 -2.5 4.932l-1.452-.163a6.087 6.087 0 0 0 .46-1.164 4.773 4.773 0 0 1 .549-1.289 11.017 11.017 0 0 1 1.014-1.479c.894-1.163 1.738-2.261 1.269-3.9-1.049-4.1-1.069-9.686 1.251-12.923a10.713 10.713 0 0 1 2.942-3.871c.453-.445.922-.9 1.329-1.358a.251.251 0 0 0 -.29-.234c-.043 0-.09 0-.135.007s-.1.008-.145.008a.314.314 0 0 1 -.24-.078c-5.6.06-10.438 2.12-15.118 4.112-1.17.5-2.38 1.013-3.585 1.49-2.325 1.692-2.152 4.227-1.985 6.679a15.547 15.547 0 0 1 -.006 3.335c-.6 1.157-1.428 2.74-2.722 3.438a1.225 1.225 0 0 1 -.041-.891 2.258 2.258 0 0 0 .041-.9c-.233-3.142.886-5.792 1.968-8.354.281-.666.57-1.351.829-2.03l-.219-.3c-.763.393-1.561.765-2.406 1.159-4.17 1.94-8.891 4.14-9.75 9.449-1.721 4.85-1.944 8.97-.661 12.247a.732.732 0 0 0 -.112.075.3.3 0 0 1 -.333.075c-1.651-3.053-1.651-7.425 0-13a15.466 15.466 0 0 0 1.548-3.587 1.127 1.127 0 0 0 -.446-.09 2.748 2.748 0 0 0 -1.1.331 3.365 3.365 0 0 1 -1.111.357 13.731 13.731 0 0 1 -3.085 1.05 15.711 15.711 0 0 1 -2.432.86 15.716 15.716 0 0 0 -2.429.858 2.71 2.71 0 0 0 .342.165c.323.138.656.28.762.659.239.792-.132 1.4-1.1 1.793-.863-.22-1.357-.6-1.471-1.122a.793.793 0 0 1 .283-.98 1.4 1.4 0 0 0 .378-.514.6.6 0 0 0 -.448-.2 1.61 1.61 0 0 0 -.56.146 2.056 2.056 0 0 1 -.391.125c-1.35.038-2.745.207-4.094.37-1.385.168-2.816.341-4.23.379a2.4 2.4 0 0 1 -.918.152c-.239 0-.482-.02-.718-.039s-.478-.038-.713-.038a2.061 2.061 0 0 0 -1.186.3 1.734 1.734 0 0 1 -.075 1.869 1.282 1.282 0 0 0 -.509.37 1.239 1.239 0 0 1 -.347.051 2.131 2.131 0 0 1 -1.365-.755c-.068-.062-.137-.125-.207-.187a1.119 1.119 0 0 1 .168-1.068c.116-.207.215-.385.149-.538s-.254-.247-.611-.337a23.17 23.17 0 0 0 -3.379-.323 6.385 6.385 0 0 0 -4.132 1.217 10.777 10.777 0 0 0 -2.012 1.7c-1.088 1.077-2.213 2.19-3.735 2.331a6.615 6.615 0 0 1 -2.282.375 6.631 6.631 0 0 0 -2.284.375.262.262 0 0 1 -.2-.074.8.8 0 0 1 -.1-.544c0-.047 0-.091 0-.132a15.055 15.055 0 0 0 4.2-3.434l.2-.08a7.314 7.314 0 0 1 2.705-.675c.086 0 .172 0 .256.008a7.407 7.407 0 0 1 1.953-.565c.3-.057.576-.111.846-.179a4.4 4.4 0 0 0 1.989-.6 4.082 4.082 0 0 1 -1.768-1.045c.111 0 .229-.006.348-.006a21.408 21.408 0 0 1 3.292.342 24.415 24.415 0 0 0 2.916.337c1.779.071 3.388.105 4.92.105 6.978 0 12.387-.722 17.025-2.272l.515-.3c-.249-.057-.5-.111-.747-.164a15.834 15.834 0 0 1 -3.083-.882 13.009 13.009 0 0 1 -4.788-2.093 2.2 2.2 0 0 0 -2.023-.767 2.342 2.342 0 0 1 -1.953-.652 14.8 14.8 0 0 1 -2.115-1.939 12.374 12.374 0 0 0 -2.376-2.094c-.055-.281.1-.35.269-.431a1.241 1.241 0 0 0 .173-.091c.143-.007.287-.01.428-.01a7.267 7.267 0 0 1 7.007 4.34 12.787 12.787 0 0 0 9.257 3.68 15.153 15.153 0 0 0 1.654-.091c.129.008.261.011.39.011 2.307 0 4.316-1.221 6.258-2.4a22.943 22.943 0 0 1 3.508-1.864 5.067 5.067 0 0 1 .589-.352 3.062 3.062 0 0 0 .96-.7 5.394 5.394 0 0 0 -3.016-.638 6.622 6.622 0 0 1 -2.654-.41c-1.4-.667-2.6-1.313-3.17-2.464a.644.644 0 0 1 .378-.106 2.419 2.419 0 0 1 .454.062l.032.006a2.771 2.771 0 0 0 .542.068 1.337 1.337 0 0 0 .291-.03c.2.015.423.023.68.023.309 0 .636-.011.951-.021h.013c.306-.01.651-.022.982-.022a4.167 4.167 0 0 1 3.264 1.066 6.576 6.576 0 0 1 .87.754 3.538 3.538 0 0 0 1.708 1.114 43.789 43.789 0 0 0 7.655-3.331c.845-.434 1.716-.881 2.581-1.3a.778.778 0 0 0 -.534-.221 1.754 1.754 0 0 0 -.6.151l-.015.006a1.885 1.885 0 0 1 -.653.157.944.944 0 0 1 -.184-.018 10.181 10.181 0 0 1 -3.877-1.582 9.168 9.168 0 0 0 -4.625-1.65c-.159 0-.321.007-.482.02-.108-.055-.1-.191-.083-.349 0-.057.01-.115.01-.174a17.879 17.879 0 0 1 4.5-.6 9.282 9.282 0 0 1 6.172 1.948 4.436 4.436 0 0 0 2.921 1.266 3.283 3.283 0 0 0 .688-.073c.572-.161 1.155-.343 1.718-.518a20.118 20.118 0 0 1 5.988-1.212c.181 0 .363 0 .541.014a36.218 36.218 0 0 1 4.316-.26 33.56 33.56 0 0 1 8.793 1.143 27.264 27.264 0 0 1 7.808 3.448c.056 0 .113 0 .167.01s.1.008.142.008c.111 0 .172-.028.207-.093-.682-3-3.529-4.9-5.965-5.676a44.142 44.142 0 0 0 -8.73-.716c-1.7 0-3.406.049-5.057.1h-.072c-1.624.047-3.3.1-4.918.1-1.17 0-2.206-.025-3.168-.076l-71.655-.3a10.813 10.813 0 0 1 -4.773-1.928 8.654 8.654 0 0 1 -3.18-4.052 9.616 9.616 0 0 1 -.267-3.361 4.362 4.362 0 0 1 1.447-2.914 5.9 5.9 0 0 1 4.4-1.741c.2 0 .407.008.61.025a4.961 4.961 0 0 1 3.46 3.061c.441.319.341.919.261 1.4-.014.086-.028.166-.038.242a3.465 3.465 0 0 1 -1.916 2.389.556.556 0 0 1 -.223.05c-.382 0-.6-.471-.663-.721a7.8 7.8 0 0 1 .446-.807 3.852 3.852 0 0 0 .735-1.881 3.9 3.9 0 0 0 -2.507-2.092 4.546 4.546 0 0 0 -3.754 2.017 5.024 5.024 0 0 0 0 4.106c.889 3.235 4.612 4.264 7.584 4.559 3.389.059 6.866.087 10.629.087 7.4 0 14.765-.113 21.89-.223s14.5-.222 21.947-.222c3.116 0 6.016.019 8.866.058l26.806.15c.4.114.814.208 1.253.307 1.565.355 3.183.723 4.049 2.008a9.282 9.282 0 0 1 3.737 3.361 12.294 12.294 0 0 1 1.861 4.929c.668.706 1.4 1.343 2.1 1.958a18.044 18.044 0 0 1 3.5 3.718 1.847 1.847 0 0 0 -.065-1.678 3.7 3.7 0 0 1 -.233-.859c-5.1-11.71-12.21-20.179-21.133-25.172-.516-.3-1.037-.614-1.541-.916a36.9 36.9 0 0 0 -5.823-3.044c-.057-.035-5.753-3.515-7.888-4.057l.678-1.9a140.518 140.518 0 0 1 24.516 14.919v-.148a8.425 8.425 0 0 1 .319-4.43 10.641 10.641 0 0 0 .491-3.264l1.106.9a1.234 1.234 0 0 0 .287.783 2.655 2.655 0 0 1 .226.412 5.632 5.632 0 0 1 .323 2.977 4.708 4.708 0 0 1 -1.282 2.7 1.449 1.449 0 0 0 .182 1.356 2.991 2.991 0 0 1 .264.659 53.755 53.755 0 0 1 9.427 13.667 2.093 2.093 0 0 1 .656 1.078 2.121 2.121 0 0 0 .744 1.163 2.217 2.217 0 0 1 .348-.268c.333-.224.677-.455.461-1-.354-.581-.721-1.118-1.077-1.637a13.967 13.967 0 0 1 -2.09-3.888 6.087 6.087 0 0 1 -1.25-2.575 9.509 9.509 0 0 0 -.666-1.758 7.7 7.7 0 0 1 -.671-4.537 9.027 9.027 0 0 1 1.7-4.2l.735.445a13.451 13.451 0 0 0 .41 1.9 7.125 7.125 0 0 1 .255 4.076 8.121 8.121 0 0 0 -.638 3.7 4.921 4.921 0 0 0 1.3 3.249c.276.4.531.846.777 1.277a6.2 6.2 0 0 0 2.685 2.981 7.159 7.159 0 0 0 2.108-2.371c.257-.4.523-.806.837-1.216v-.3c1.853-2.07 1.48-4.778 1.119-7.4-.342-2.487-.7-5.059.845-7.1l1.39-.667c-.941.585-.537 1.3-.068 2.131a2.719 2.719 0 0 1 .545 2.047 2.526 2.526 0 0 1 .067 1.891 4.523 4.523 0 0 0 -.143 1.471 1.331 1.331 0 0 0 -.33.919 1.145 1.145 0 0 1 -.331.874 24.852 24.852 0 0 1 -5.23 10.9c.368.825.8 1.644 1.695 1.793.48-1.005.954-2.041 1.412-3.043 1.8-3.934 3.655-8 6.468-11.446.735-.853.382-1.9.041-2.911a7.971 7.971 0 0 1 -.337-1.2c-.665-1.725-.056-4.752.589-6.349l1.08-.7c-.16.4.281 1.436.493 1.934l.048.113a4.436 4.436 0 0 1 .733 2.531c.021.25.044.508.076.754a8.451 8.451 0 0 1 -.737 3.139c7.717-7.751 18.015-11.769 27.1-15.314a5.3 5.3 0 0 0 2-.513 7.43 7.43 0 0 1 1.383-.455 2.789 2.789 0 0 0 1.841-1.718l4.272-.671a41.168 41.168 0 0 0 7.618-2.765h.007c.446-.2.906-.4 1.359-.593.2-.092 19.874-9.188 20.324-9.188a12.5 12.5 0 0 0 3.39-2.913 2.5 2.5 0 0 0 -.2-.834c-.2-.534-.38-1.039.2-1.482a1.144 1.144 0 0 1 .9-.421 1.447 1.447 0 0 1 .568.122 1.417 1.417 0 0 1 .814 1.421 48.718 48.718 0 0 1 -5.6 6.123l-19.735 9.112a22.9 22.9 0 0 0 -3.793 1.457 22.9 22.9 0 0 1 -3.794 1.458c-.049.148.034.232.115.313a.53.53 0 0 1 .106.132h7.514l4.123.376a16.657 16.657 0 0 0 4.344 1.019c.388.055.79.113 1.177.176 3.031.784 6.147 1.526 9.16 2.244l2.182.52a8.023 8.023 0 0 0 3.734-2.466 7.764 7.764 0 0 1 3.784-2.461h.1a3.177 3.177 0 0 0 .963-.22h.009a3.137 3.137 0 0 1 .933-.217.824.824 0 0 1 .652.286c.039.334-.193.432-.438.537-.188.08-.382.162-.445.359-1.438 1.64-3.667 3.856-6.409 4.182a.718.718 0 0 1 -.442.224.729.729 0 0 0 -.515.3 5.166 5.166 0 0 0 2.288 1.181 8.34 8.34 0 0 1 1.687.687c.291.125.593.25.885.371a15.762 15.762 0 0 1 4.713 2.614h-.041-.117a6.438 6.438 0 0 1 -2.7-.825 11.794 11.794 0 0 0 -1.411-.6 69.271 69.271 0 0 0 -15.688-4.483.92.92 0 0 0 .068.738c.144.392.292.8-.289 1.206a2.56 2.56 0 0 0 -.3.154 1.444 1.444 0 0 1 -.71.252.851.851 0 0 1 -.24-.035 1.777 1.777 0 0 1 -.98-.908.986.986 0 0 1 .1-.809l.732-.823a9.126 9.126 0 0 0 -3.683-.881 5.6 5.6 0 0 0 -1.25.135 2.369 2.369 0 0 0 .613.611c.523.416 1.063.847.566 1.553a2.921 2.921 0 0 1 -1.732-.909 3.012 3.012 0 0 0 -1.583-.884l-3.533-.894-.52-.448c-.124 0-.253 0-.382 0-1.17 0-2.382-.1-3.554-.189s-2.386-.189-3.543-.189a11.639 11.639 0 0 0 -3.785.522.47.47 0 0 1 -.115.015.571.571 0 0 1 -.356-.157.84.84 0 0 0 -.119-.083l-3.905 1.048a1.412 1.412 0 0 0 -.8-.237 3.643 3.643 0 0 0 -1.153.277 3.879 3.879 0 0 1 -1.224.274c-.8.306-1.6.589-2.384.864a36.83 36.83 0 0 0 -5.642 2.346 43.471 43.471 0 0 0 -9.132 4.93c-.06.186.03.269.144.375.025.023.051.047.077.073.172.012.352.019.534.019a15.06 15.06 0 0 0 2.967-.39l.04-.008a14.462 14.462 0 0 1 2.846-.382 5.518 5.518 0 0 1 2.452.538 9.346 9.346 0 0 0 1.918 1.113 7.668 7.668 0 0 1 1.985 1.2.7.7 0 0 1 -.221.524 24.267 24.267 0 0 1 -2.428.125 18.222 18.222 0 0 1 -7.809-1.62c-.37 0-.756-.008-1.129-.016s-.78-.016-1.171-.016c-2.1 0-4.234.248-5.579 2.049-4.038 2.984-6.662 7.277-9.2 11.428q-.3.485-.594.97a11.57 11.57 0 0 0 -.738 2.217 8.331 8.331 0 0 1 -1.176 2.937 19.88 19.88 0 0 1 -.772 2.57 19.82 19.82 0 0 0 -.776 2.587l.221.22a53.205 53.205 0 0 1 5.746-5.9c1.077-4.077 2.911-6.766 5.449-7.991 3.754-2.32 8.125-2.639 12.288-2.639 1.2 0 2.427.03 3.615.059h.031c1.183.029 2.4.059 3.592.059 1.6 0 2.905-.053 4.112-.167.108 0 10.909.047 23.934.047 20.466 0 45.626-.112 49.268-.644a6.6 6.6 0 0 0 4.564-3.735 6.024 6.024 0 0 0 0-3.96 4.688 4.688 0 0 0 -1.976-2.01l-.234-.157c-.211 0-.442-.021-.686-.044-.263-.024-.534-.049-.8-.049a1.826 1.826 0 0 0 -1.384.467 2.492 2.492 0 0 0 -.809 2.614 1.187 1.187 0 0 0 .469.66.815.815 0 0 1 .34 1.06 1 1 0 0 1 -.9.492 1.431 1.431 0 0 1 -.567-.12 3.764 3.764 0 0 1 -1.4-4.108 5.038 5.038 0 0 1 4.123-3.062 5.814 5.814 0 0 1 5.523 3.062 7.579 7.579 0 0 1 -.516 6.873c-1.585 2.75-4.591 4.266-8.469 4.266-22.811.352-44.479.562-67.419.784h-.011c-6.152.06-12.513.121-18.881.186-3.021.111-8.35.988-10.089 5.6.1.2.21.3.344.3a.958.958 0 0 0 .472-.232l.012-.008.062-.043a1.262 1.262 0 0 1 .7-.284.779.779 0 0 1 .251.042c3.647-2.3 8.261-2.78 11.49-2.78a36 36 0 0 1 8.614 1.064c.907.257 1.829.5 2.72.735.921.243 1.871.493 2.8.759l.564.162c.839.242 1.7.491 2.6.735 1.444.517 2.931 1.005 4.369 1.477a69.252 69.252 0 0 1 10.58 4.122c1.67.662 3.367 1.483 5.008 2.277l.075.036a3.85 3.85 0 0 1 1.144.486 3.847 3.847 0 0 0 1.141.486c1.431.677 2.831 1.31 4.313 1.979h.005l.016.007c.773.349 1.572.71 2.37 1.076.053 0 .109 0 .168.009s.124.009.185.009a.4.4 0 0 0 .306-.094 1.835 1.835 0 0 1 -1.1-1.419 2.077 2.077 0 0 1 1.1-1.27 2 2 0 0 1 1.695.821 1.922 1.922 0 0 1 -1.177 1.868c-.043 0-.088 0-.136-.006s-.1-.006-.144-.006c-.128 0-.265.019-.311.161a55.361 55.361 0 0 0 14.512 3.661 1.979 1.979 0 0 0 1.24.314c.14 0 .284 0 .424-.009s.288-.009.428-.009a1.68 1.68 0 0 1 1.443.527l.076-.073v.15a5.665 5.665 0 0 1 -1.318.148 12.708 12.708 0 0 1 -2.123-.237h-.013a12.882 12.882 0 0 0 -2.158-.238 6.33 6.33 0 0 0 -.649.032c-.943-.234-1.917-.442-2.859-.643a40.386 40.386 0 0 1 -6.2-1.671 4.816 4.816 0 0 1 -2.578-.824 43.482 43.482 0 0 1 -5.671-2.073c-1.31-.55-2.664-1.118-4.05-1.586l-.147.224a11.539 11.539 0 0 1 2.194 3.14v.007c.155.285.3.553.45.811a3.623 3.623 0 0 1 .886-1.643 3.8 3.8 0 0 1 .752-.08 1.562 1.562 0 0 1 1.386.6c.276.283.176.65.08 1a3.425 3.425 0 0 0 -.08.34 1.427 1.427 0 0 1 -.856.575 2.491 2.491 0 0 0 -.546.248c-.071-.024-.144-.047-.213-.068a1.921 1.921 0 0 1 -1.039-.6c-.308.583-.036 1.079.253 1.6a2.76 2.76 0 0 1 .412 1.085 19.623 19.623 0 0 1 .165 7.927 21.415 21.415 0 0 1 -2.6 7.086 5.232 5.232 0 0 0 -.386.762 3.339 3.339 0 0 1 -1.005 1.478zm-63.849-30.323a4.052 4.052 0 0 1 -.559.652c-.523.53-1.017 1.031-.543 1.887a6.532 6.532 0 0 1 .491 1.4 5.326 5.326 0 0 0 .612 1.587 2.248 2.248 0 0 0 .29 1.57 2.231 2.231 0 0 1 .3 1.42l.3-.151a3.543 3.543 0 0 1 .467-1.785 8.026 8.026 0 0 0 .343-.829 3.829 3.829 0 0 1 .278-1.444 2.939 2.939 0 0 0 .164-1.992c-.215-.261-.4-.529-.576-.788a3.762 3.762 0 0 0 -1.561-1.527z" transform="translate(173.5 69)"/><path d="m10.677.241c0 .207.439.274.293.624-2.558 2.153-6.14 2.775-9.797 2.914a2.115 2.115 0 0 1 -.949.207c-.224-.137-.296-.346-.146-.486a11.572 11.572 0 0 1 10.6-3.26" transform="translate(364.5 123)"/><path d="m2.928.893c.299 1.093-.377 1.718-1.212 2.107a2.158 2.158 0 0 1 -1.661-1.251c-.225-.622.303-.934.531-1.323a1.414 1.414 0 0 1 2.342.467" transform="translate(360.5 124)"/><path d="m2.924.7a1.877 1.877 0 0 1 -.405 1.834 1.579 1.579 0 0 1 -1.464.435c-.568-.087-.893-.784-1.055-1.309a1.886 1.886 0 0 1 1.055-1.66c.651 0 1.38-.087 1.87.7" transform="translate(220.5 124)"/><path d="m9 5.308v.553a5.587 5.587 0 0 1 -4.848-1.186 10.243 10.243 0 0 0 -3.952-3.959c0-.242-.45-.557 0-.716 3.729 0 5.968 3.168 8.8 5.308" transform="translate(200.5 124)"/><path d="m8 .09c-1.788 2.434-3.339 5.442-6.523 6.517-.544 0-1.009.715-1.477.215a13.634 13.634 0 0 1 6.915-6.804 2.783 2.783 0 0 1 1.085.072" transform="translate(378.5 125)"/><path d="m1.995.747c.063.722-.435.854-.873 1.246-.5.066-.746-.328-1.06-.722-.249-.657.314-.917.623-1.245a1.283 1.283 0 0 1 1.31.721" transform="translate(225.5 125)"/><path d="m6 .452c-.642.981-.356 2.417-1 3.475-1.422 1.734-2.635 3.695-4.916 4.073-.354-.752.5-1.508.855-2.19 1-2.262 2.426-4.829 4.7-5.81z" transform="translate(389.5 125)"/><path d="m2.713.615a1.78 1.78 0 0 1 0 1.917 1.894 1.894 0 0 1 -1.907.346 1.658 1.658 0 0 1 -.663-2.089c.5-.782 1.987-1.215 2.57-.174" transform="translate(184.5 126)"/><path d="m2.745.789c.081.419.32.755.239 1.174a1.9 1.9 0 0 1 -1.122 1 1.669 1.669 0 0 1 -1.847-1.084 1.654 1.654 0 0 1 .8-1.759 1.605 1.605 0 0 1 1.93.669" transform="translate(180.5 127)"/><path d="m2.883.731c.155.7.306 1.933-.6 2.107-1.069.53-1.676-.35-2.283-1.054a2.059 2.059 0 0 1 .911-1.757 1.933 1.933 0 0 1 1.972.7" transform="translate(188.5 127)"/><path d="m3 .528c-.087.462.085 1.125-.6 1.256a2.337 2.337 0 0 1 -1.637.132c-.174-.4-1.124-.728-.6-1.19a3.262 3.262 0 0 1 1.198-.726c.517.2 1.295 0 1.639.528" transform="translate(200.5 128)"/><path d="m3 .967c-.231.45-.538 1.033-1.155 1.033a2.135 2.135 0 0 1 -1.769-.712c-.309-.707.383-1.096 1-1.288.769 0 1.771.257 1.924.967" transform="translate(399.5 128)"/><path d="m2.995 1.383c.07.691-.556 1.2-.835 1.463-.974.514-1.809-.346-2.16-1.291a2.084 2.084 0 0 1 1.186-1.547c.9-.086 1.391.516 1.809 1.375" transform="translate(386.5 128)"/><path d="m3 .736a1.366 1.366 0 0 1 -.722 1.153 2.151 2.151 0 0 1 -1.934-.27c-.721-.545-.16-1.019.325-1.426.724-.34 2.088-.272 2.331.543" transform="translate(395.5 129)"/><path d="m2.956.9a1.754 1.754 0 0 1 -1.038 2.1 1.985 1.985 0 0 1 -1.9-1.175 1.551 1.551 0 0 1 .863-1.757 2.008 2.008 0 0 1 2.075.832" transform="translate(182.5 130)"/><path d="m2.942.877a1.777 1.777 0 0 1 -1.078 2.082c-.614.158-1.001-.159-1.464-.559-.3-.4-.688-1.282-.072-1.681.614-1.202 2.15-.719 2.614.158" transform="translate(382.5 131)"/><path d="m2.932 1.187c.336.959-.672 1.136-.925 1.66-.34.175-1.014.263-1.265-.085-.422-.526-.926-1.054-.675-1.84.421-.351.589-.699 1.095-.874.928-.263 1.269.613 1.77 1.139" transform="translate(221.5 131)"/><path d="m2.967 1.238c.162.616-.318.879-.4 1.322a2.013 2.013 0 0 1 -1.844.355c-.723-.443-.723-1.149-.723-1.939.481-.353.56-.795 1.122-.976a1.828 1.828 0 0 1 1.845 1.238" transform="translate(398.5 132)"/><path d="m6.43 1c.285.838-.5 1.256-1.072 1.466-.286.068-.715-.14-.787.277 1.859.909 3 2.372 4.429 3.694v.563a9.828 9.828 0 0 1 -7.075-2.649c-.497-.351-1.354-.351-1.925-.836.928-.906 2.644-.558 3.928-.628.929-.976-1.072-1.674.142-2.508.429-.07.715-.49 1.288-.351a2.435 2.435 0 0 1 1.072.972" transform="translate(390.5 132)"/><path d="m2.967 1.118c.159.435-.312.955-.391 1.392a1.48 1.48 0 0 1 -1.733.348c-.4-.609-1.029-1.131-.791-2a1.578 1.578 0 0 1 2.915.261" transform="translate(363.5 132)"/><path d="m3 1.007a1.512 1.512 0 0 1 -1.452.993 1.786 1.786 0 0 1 -1.537-.744c-.086-.433.344-.682.428-.994.939-.562 2.642-.185 2.561.745" transform="translate(198.5 135)"/><path d="m7 0c0 1.1-1.044 1.724-1.393 2.822-1.044 2.59-2.921 4.942-5.564 5.178-.281-.7.9-1.569 1.182-2.274 1.11-2.667 3.338-4.078 5.357-5.726z" transform="translate(200.5 135)"/><path d="m3 1.135a2.04 2.04 0 0 1 -1.211 1.808c-.636.236-1.134-.315-1.489-.63-.565-.628-.21-1.257.074-1.885.851-.942 2.055-.157 2.626.707" transform="translate(361.5 135)"/><path d="m3 1.076a2.108 2.108 0 0 1 -1.318 1.924c-.146-.263-.51-.088-.73-.177a1.933 1.933 0 0 1 -.952-1.572c.367-.44.514-1.136 1.025-1.225.657-.088 1.756 0 1.975 1.05" transform="translate(366.5 135)"/><path d="m2.993.726c.086.664-.61 1.027-1.308 1.268a1.863 1.863 0 0 1 -1.66-.726c-.174-.542.61-.905 1.046-1.208 1.05-.242 1.312.3 1.922.666" transform="translate(216.5 136)"/><path d="m3 .937a1.827 1.827 0 0 1 -1.537 1.063c-.563-.124-1.212-.249-1.457-.751-.077-.623.569-.938 1.131-1.249.807 0 1.698.25 1.863.937" transform="translate(221.5 136)"/><path d="m6.11 5.756c.363.281 1.016.633.869 1.132-1.163.493-2.107-.78-3.2-.99a14.432 14.432 0 0 1 -3.779-5.651c.653-.639 1.381.139 1.964.353a13.915 13.915 0 0 1 4.146 5.156" transform="translate(379.5 136)"/><path d="m2.876.643a2.147 2.147 0 0 1 -.145 1.75c-.431.794-1.364.637-2.011.476-.361-.476-1.008-1.113-.577-1.829.216-.633.863-.793 1.366-1.032.5-.078.861.4 1.366.635" transform="translate(385.5 136)"/><path d="m1.946.454c.062.482.183 1.208-.42 1.511a1.174 1.174 0 0 1 -1.45-.726c-.301-.724.361-.845.724-1.207.483-.122.784.119 1.145.422" transform="translate(228.5 138)"/><path d="m4.021 3.308a10.967 10.967 0 0 1 1.885 5.28c-.22.519.364 1.04-.071 1.412h-.29c-3.268-2.38-3.993-5.726-5.226-9.07a.613.613 0 0 1 -.293-.745c.726-.668 1.233.67 1.961.893z" transform="translate(365.5 140)"/><path d="m9.929.618c-.071.069 0 .14.071.14-2.811 1.987-6.749 3.193-9.982 1.278a.54.54 0 0 1 .349-.636c2.042-.641 4.009-1.634 6.189-1.35z" transform="translate(230.5 140)"/><path d="m10 .625c-2.613 1.637-5 4.835-8.233 5.614-.615.232-1 1.093-1.767.623 1.385-4.213 5.924-6.472 10-6.862z" transform="translate(213.5 141)"/><path d="m2.909.861c.241.692 0 1.644-.646 1.817a1.073 1.073 0 0 1 -1.535 0c-.728-.347-.728-1.125-.728-1.731.238-.601.807-.687 1.211-.947.726.171 1.294.171 1.7.861" transform="translate(362.5 144)"/><path d="m10 .443a4.326 4.326 0 0 1 -2.748 2.191c-2.596 1.016-4.962-.334-7.252-1.009.075-.675.839-.425 1.222-.846 2.517-.589 5.112-1.179 7.783-.42a.752.752 0 0 1 .995.084" transform="translate(348.5 145)"/><path d="m3 1.492c-.236.349-.317 1.137-.956 1.4a1.545 1.545 0 0 1 -1.585-.349c-.159-.529-.717-.965-.318-1.578.159-.614.795-.789 1.272-.965a1.754 1.754 0 0 1 1.587 1.492" transform="translate(220.5 146)"/><path d="m3 1.4a3 3 0 0 1 -1.1 1.558 1.687 1.687 0 0 1 -1.568-.575 2 2 0 0 1 -.232-1.639c.155-.412.7-.494 1.1-.739.779-.08 1.486.739 1.8 1.395" transform="translate(225.5 147)"/><path d="m2.989 1.137a2.008 2.008 0 0 1 -.487 1.4 1.149 1.149 0 0 1 -1.532.293c-.489-.075-.63-.664-.839-1.03-.418-.587.28-.957.491-1.47a1.493 1.493 0 0 1 2.368.808" transform="translate(360.5 148)"/><path d="m2.778.707c.083.408.331.814.167 1.141-.5.408-.828 1.467-1.819 1.061-.491.159-.739-.49-.989-.653a1.543 1.543 0 0 1 .989-2.2c.743-.249 1.241.406 1.653.651" transform="translate(364.5 148)"/><path d="m2.963.962a1.936 1.936 0 0 1 -.756 1.968c-.826.146-1.885.146-2.185-.8a1.924 1.924 0 0 1 .905-2.114 1.843 1.843 0 0 1 2.036.946" transform="translate(222.5 150)"/><path d="m6 0c-.142 2.189-.571 4.855-2.57 6.106-1.146.237-2.288 1.411-3.43.629v-.392c1.5-2.35 4.215-4.154 6-6.343" transform="translate(223.5 150)"/><path d="m2.9 1.23c.316.524-.238.961-.476 1.4-.474.607-1.351.345-1.9.085s-.635-1.136-.397-1.745a1.67 1.67 0 0 1 1.031-.963c.716-.085 1.351.616 1.742 1.223" transform="translate(349.5 151)"/><path d="m3.908 4.125c1.092 1.708.469 4.01 1.092 5.864-1.326.149-1.876-1.262-2.734-2-1.718-2.231-1.486-5.2-2.266-7.795a.428.428 0 0 1 .548-.151c1.171.741 2.03 2.152 2.968 3.118-.154.518.471.518.392.964" transform="translate(233.5 151)"/><path d="m2 .943c0 .565-.535.706-.832 1.057a2.071 2.071 0 0 1 -1.129-.636c-.179-.704.297-.916.594-1.264.594-.286 1.189.066 1.367.843" transform="translate(353.5 152)"/><path d="m5 6.465c0 .218-.08.651-.468.505h-.311c-2.251-1.886-4.502-3.992-4.192-6.899l.471-.071c2.091 1.671 4.42 3.485 4.5 6.465" transform="translate(359.5 153)"/><path d="m2.99 1.254a2.082 2.082 0 0 1 -.69 1.628c-.843.26-2.141.172-2.3-1.113-.07-.856.772-1.285 1.154-1.714.918-.255 1.529.429 1.836 1.199" transform="translate(355.5 156)"/><path d="m5.7 1.6c-.979 2.821-3.648 4.266-5.473 6.4-.35-.229-.209-.837-.138-1.142a10.362 10.362 0 0 1 5.403-6.858c1.124.153 0 .992.211 1.6" transform="translate(348.5 157)"/><path d="m3 .777c0 .611-.748.883-1.163 1.223a2.666 2.666 0 0 1 -1.83-.748c-.084-.679.581-.883 1.08-1.221a1.866 1.866 0 0 1 1.913.746" transform="translate(356.5 160)"/><path d="m24.142 4h-22.285a1.935 1.935 0 0 1 -1.857-2 1.933 1.933 0 0 1 1.857-2h22.285a1.934 1.934 0 0 1 1.858 2 1.936 1.936 0 0 1 -1.858 2zm-.726-3.365a1.212 1.212 0 0 0 -.781.213.655.655 0 0 0 -.23.532 2.481 2.481 0 0 0 1.85 2.077c.738 0 1.124-.724 1.124-1.44a1.629 1.629 0 0 0 -.279-.952 1.017 1.017 0 0 0 -.855-.43zm-9.13 0a1.189 1.189 0 0 0 -.739.192.583.583 0 0 0 -.219.484 2.718 2.718 0 0 0 2.012 2.147h2.175a1.188 1.188 0 0 0 .738-.192.583.583 0 0 0 .219-.484 2.719 2.719 0 0 0 -2.011-2.147zm-9.13 0a1.189 1.189 0 0 0 -.739.192.583.583 0 0 0 -.219.484 2.716 2.716 0 0 0 2.008 2.147h2.179a1.188 1.188 0 0 0 .738-.192.583.583 0 0 0 .219-.484 2.719 2.719 0 0 0 -2.011-2.147z" transform="translate(280.5 25)"/><path d="m1.691 19 1.769-6.761-3.46.949.925-3.8-.925-3.65 3.31.533-1.617-6.271 4.346 1.636 4.268-1.636-1.69 6.271 3.383-.686-1.156 3.8 1.156 3.651-3-.8 1.306 6.764-4.267-1.633-4.346 1.633zm4.318-12.577a1.655 1.655 0 0 1 -1.7 1.117c-.654.058-1.22.108-1.22 1.241v.029a4.984 4.984 0 0 0 .191 1.814c.208.476.62.688 1.337.688h3.483c.932 0 1.06-1.18 1.06-2.455 0-1.182-.439-1.278-.969-1.278-.076 0-.155 0-.232 0s-.166 0-.252 0a1.652 1.652 0 0 1 -1.7-1.165zm1.923 3.107a4.892 4.892 0 0 1 -.8-.1 5.583 5.583 0 0 0 -.942-.115 5.581 5.581 0 0 0 -.941.115 4.886 4.886 0 0 1 -.8.1.7.7 0 0 1 -.439-.113.508.508 0 0 1 -.168-.43c0-.876.534-.995 1.057-.995.2 0 .428.021.644.041s.439.041.644.041.428-.021.643-.041.44-.041.645-.041c.523 0 1.058.118 1.058.995.006.375-.181.543-.601.543z" transform="translate(300.5 51)"/><path d="m.773 3v-.838l-.773-.143.6-.61-.368-.675.789.082.479-.816.47.8.8-.07-.379.674.609.615-.771.144v.837l-.729-.533z" transform="translate(292.5 57)"/><path d="m.773 3v-.834l-.773-.146.6-.613-.37-.672.792.082.478-.817.468.8.8-.07-.368.677.6.613-.771.146v.834l-.729-.531z" transform="translate(288.5 61)"/><path d="m.77 3v-.838l-.77-.141.6-.614-.368-.675.791.084.477-.816.465.8.8-.072-.365.678.6.614-.768.142v.838l-.732-.533z" transform="translate(294.5 61)"/><path d="m.6 1.85v-.476l-.424-.08.331-.346-.207-.382.437.046.263-.462.256.456.444-.04-.207.382.332.346-.424.08v.476l-.4-.3z" transform="translate(295.5 65)"/><path d="m1.286 5v-1.4l-1.286-.233 1.007-1.022-.624-1.119 1.317.134.8-1.36.78 1.342 1.336-.116-.623 1.119 1.007 1.022-1.284.233v1.4l-1.216-.884z" transform="translate(289.5 65)"/><path d="m11.5 0 2.61 6.537 6.612-1.981-3.353 6.168 5.631 4.069-6.8 1.155.416 7.052-5.116-4.728-5.12 4.728.413-7.051-6.793-1.156 5.633-4.069-3.355-6.17 6.61 1.983z" transform="translate(281.5)"/><path d="m9.849.308c-.762.292-1.06.512-.873 1.331l.905 3.951a3.658 3.658 0 0 1 -.254 2.591 4.608 4.608 0 0 1 -2.607 1.605 5.109 5.109 0 0 1 -3.075-.058 2.33 2.33 0 0 1 -1.5-2l-.945-4.141c-.237-1.04-.615-.972-1.429-.848l-.071-.31 4.823-1.2.074.31c-.936.272-1.375.394-1.127 1.485l.945 4.139c.163.706.555 2.416 2.609 1.905a2.417 2.417 0 0 0 1.928-3.32l-.866-3.779c-.171-.758-.439-1.138-1.678-.879l-.071-.311 3.139-.779z" transform="translate(259.5 143)"/><path d="m6.3 2.7a3.271 3.271 0 0 0 -3.461-1.6c-.783.167-1.526.705-1.345 1.49.149.647.5.849 1.878 1.088l2.413.409a2.645 2.645 0 0 1 2.167 1.866c.248 1.058-.383 2.72-3.152 3.307a14.1 14.1 0 0 1 -2.667.14c-.318.067-.341.3-.356.505l-.435.095-.686-2.975.434-.094a3.236 3.236 0 0 0 3.68 1.921c1.808-.384 1.607-1.592 1.568-1.752-.185-.805-.958-.947-2.023-1.11l-1.1-.171c-2.797-.436-3.035-1.474-3.162-2.027-.172-.735-.082-2.471 2.775-3.08a14.054 14.054 0 0 1 2.44-.1c.345-.075.379-.273.4-.518l.453-.094.6 2.611z" transform="translate(270.5 142)"/><path d="m7.76 8.5-5.2.5-.027-.306c1.056-.177 1.4-.235 1.307-1.27l-.615-6.491c-1.012.147-2.507.353-2.614 2.354l-.423.04-.188-2.48 8.738-.847.262 2.472-.419.042c-.481-1.942-1.981-1.86-2.994-1.809l.613 6.49c.1 1.046.452 1.037 1.537.993z" transform="translate(278.5 141)"/><path d="m10 9-2.98-.061-2.929-4.133-.391-.006-.047 2.548c-.02 1.039.3 1.084 1.254 1.219v.326l-4.907-.102v-.326c.983-.083 1.28-.108 1.3-1.17l.106-5.746c.022-1.118-.429-1.155-1.248-1.223v-.326l4.674.1c1.528.028 4.085.374 4.048 2.372-.028 1.58-1.5 1.963-2.287 2.169l-.032.008 2.85 3.765a.7.7 0 0 0 .589.26zm-5.42-8.464c-.7 0-.733.144-.809.529l-.062 3.316h.233c1.675 0 2.427-.279 2.457-1.936.023-1.276-.524-1.884-1.721-1.909z" transform="translate(288.5 140)"/><path d="m9.962 9-4.747-.588.04-.3h.03c.255.015.457.026.618.026.418 0 .549-.08.582-.355a6.172 6.172 0 0 0 -.47-1.691l-3.3-.408-.015.037a6.872 6.872 0 0 0 -.819 1.445c-.058.46.632.58 1.136.669l-.037.3-2.98-.364.04-.3c.809 0 1.06-.389 1.611-1.239l4.089-6.232.41.049 2.465 6.768c.508 1.409.685 1.817 1.385 1.883zm-5.216-6.53-1.746 2.77 2.858.351z" transform="translate(298.5 141)"/><path d="m8.845 10-8.845-1.576.06-.312c.873.065 1.338.11 1.48-.649l1.126-6.032c.152-.821-.466-.957-1.149-1.119l.057-.312 5.34.951-.06.31c-1.077-.151-1.554-.224-1.754.873l-1.1 5.881c-.111.6.206.761 1.23.942a3.863 3.863 0 0 0 4.326-1.751l.444.078z" transform="translate(308.5 142)"/><path d="m5.242 9-5.242-1.032.068-.3c.819.1 1.415.17 1.576-.562l1.256-5.699c.172-.78-.53-.94-1.209-1.114l.067-.293 5.242 1.032-.064.294c-.709-.114-1.43-.243-1.608.557l-1.26 5.7c-.165.756.426.91 1.239 1.117z" transform="translate(318.5 144)"/><path d="m9.971 9-4.752-.491.032-.309h.03c.21.008.391.015.537.015.485 0 .626-.08.655-.371a6.435 6.435 0 0 0 -.507-1.7l-3.298-.344-.039.065a6.428 6.428 0 0 0 -.769 1.45c-.048.465.643.572 1.147.65l-.03.307-2.977-.303.032-.309c.81-.012 1.068-.437 1.583-1.283l3.943-6.377.412.04 2.608 6.783c.537 1.412.722 1.822 1.422 1.87zm-5.352-6.487-1.683 2.837 2.859.3z" transform="translate(323.5 146)"/><path d="m4 6h-2.99a.419.419 0 0 1 -.389-.444v-.94a2.082 2.082 0 0 1 -.621-1.787c0-1.274.5-1.374 1.087-1.49a1.588 1.588 0 0 0 1.458-1.339c.381 1.18.9 1.278 1.352 1.278h.141.136c.468 0 .826.121.826 1.639a2.216 2.216 0 0 1 -.609 1.624v1.016a.419.419 0 0 1 -.391.443zm-1.443-2.477a3.874 3.874 0 0 1 .719.1 3.5 3.5 0 0 0 .638.089.567.567 0 0 0 .413-.132.69.69 0 0 0 .16-.516c0-1.1-.636-1.248-1.259-1.248-.15 0-.3.009-.448.018s-.27.016-.393.016-.263-.013-.387-.021-.255-.017-.376-.017c-.6 0-1 .212-1 1.248 0 .448.177.648.574.648a3.513 3.513 0 0 0 .639-.088 3.887 3.887 0 0 1 .72-.097z" transform="translate(290.5 50)"/><path d="m1.5 2c.83 0 1.5-.448 1.5-1s-.67-1-1.5-1-1.5.449-1.5 1 .67 1 1.5 1" transform="translate(320.5 88)"/><path d="m.992 0a7.336 7.336 0 0 0 -.7 1.284.712.712 0 1 0 1.424 0c-.004-.022-.724-1.284-.724-1.284" transform="translate(314.5 45)"/><path d="m.989 0a7.349 7.349 0 0 0 -.7 1.284.711.711 0 1 0 1.422 0c0-.022-.722-1.284-.722-1.284" transform="translate(269.5 45)"/><path d="m.989 0a7.349 7.349 0 0 0 -.7 1.284.711.711 0 1 0 1.422 0c0-.022-.722-1.284-.722-1.284" transform="translate(280.5 45)"/><path d="m.99 0a7.342 7.342 0 0 0 -.7 1.284.712.712 0 1 0 1.424 0c-.002-.022-.724-1.284-.724-1.284" transform="translate(291.5 45)"/><path d="m.988 0a7.349 7.349 0 0 0 -.7 1.284.712.712 0 1 0 1.424 0c0-.022-.724-1.284-.724-1.284" transform="translate(303.5 45)"/><path d="m1.012 0a7.306 7.306 0 0 1 .7 1.286.712.712 0 1 1 -1.424 0c0-.024.724-1.286.724-1.286" transform="translate(269.5 60)"/><path d="m1.012 0a7.306 7.306 0 0 1 .7 1.286.712.712 0 1 1 -1.424 0c0-.022.724-1.286.724-1.286" transform="translate(269.5 75)"/><path d="m1.009 0a7.336 7.336 0 0 1 .7 1.284.713.713 0 1 1 -1.426 0c.004-.022.726-1.284.726-1.284" transform="translate(271.5 87)"/><path d="m1.01 0a7.358 7.358 0 0 1 .7 1.285.712.712 0 1 1 -1.424 0c.002-.021.724-1.285.724-1.285" transform="translate(280.5 93)"/><path d="m.988 0a7.312 7.312 0 0 0 -.7 1.286.71.71 0 1 0 1.42 0c.002-.024-.72-1.286-.72-1.286" transform="translate(314.5 60)"/><path d="m.988 0a7.312 7.312 0 0 0 -.7 1.286.71.71 0 1 0 1.42 0c.002-.022-.72-1.286-.72-1.286" transform="translate(314.5 75)"/><path d="m.99 0a7.342 7.342 0 0 0 -.7 1.284.712.712 0 1 0 1.424 0c-.002-.022-.724-1.284-.724-1.284" transform="translate(313.5 87)"/><path d="m.988 0a7.364 7.364 0 0 0 -.7 1.285.712.712 0 1 0 1.424 0c0-.021-.724-1.285-.724-1.285" transform="translate(303.5 93)"/><path d="m.989 0a7.34 7.34 0 0 0 -.7 1.283.711.711 0 1 0 1.422 0c0-.024-.722-1.283-.722-1.283" transform="translate(292.5 100)"/><path d="m10.651 2.208c.139.211.488.282.927.129l.422-1.206c.035-.084-.483-.563-.79-.486-1.184.284-2.439.428-3.136 1.563a2.348 2.348 0 0 0 1.114 1.844c.418-.14.487.284.766.5a.5.5 0 0 1 -.487.639c-.838-.853-2.3.284-2.929-.782.278-1.064.838-2.272-.07-3.265.07-.213.42-.424.209-.639-.348-.993-1.393-.214-2.022-.214a2.662 2.662 0 0 0 -2.511 1.278 1.98 1.98 0 0 0 .556 1.063c.279-.071.418 0 .488.284l-.7.426a1.508 1.508 0 0 1 .279.78c-.49.213-.977-.5-1.186-.851 0-.567.07-1.561-.7-1.7a2.984 2.984 0 0 0 -.605.206 2.078 2.078 0 0 0 -.276 1.171 4.877 4.877 0 0 0 .274 1.27 12.1 12.1 0 0 1 2.638 2.6c-.629 1.282-.629 3.052-2.092 3.761a1.191 1.191 0 0 0 -.42 1.137l.351.284c.907-.5 2.648-.638 2.511-2.2a5.611 5.611 0 0 1 1.323-1.844 1.444 1.444 0 0 1 1.6.78 2.765 2.765 0 0 1 -1.882 2.128c-.139.142-.07.357-.07.568.279.5 1.047.284 1.463.215 1.188-.783 1.676-2.2 2.72-2.627.139.709-1.4.924-.418 1.632.627-.142 1.465.071 1.882-.782-.488-1.2 1.673-1.774.35-2.838 0-1.064 1.114-1.488 1.043-2.625-.418-1.135-1.743-1.135-2.089-2.2a1.524 1.524 0 0 1 1.463 0" transform="translate(300.5 76)"/><path d="m1.5 2c.828 0 1.5-.448 1.5-1s-.672-1-1.5-1-1.5.448-1.5 1 .67 1 1.5 1" transform="translate(258.5 88)"/><path d="m1.5 3a1.5 1.5 0 1 0 -1.5-1.5 1.5 1.5 0 0 0 1.5 1.5" transform="translate(186.5 130)"/><path d="m.324.266h-.1l-.094-.122h-.012v.078c0 .032.01.032.04.036v.008h-.158v-.008c.032 0 .04 0 .04-.036v-.176c0-.034-.014-.034-.04-.038v-.008h.15c.034 0 .134 0 .134.07 0 .048-.048.06-.072.068l.094.114a.024.024 0 0 0 .018.006z" transform="translate(233.5 143)"/><path d="m1.087.945a.1.1 0 0 0 -.094-.074c-.024 0-.048.014-.048.036s.01.032.046.05l.07.028a.081.081 0 0 1 .052.072c0 .036-.03.084-.118.084a.365.365 0 0 1 -.078-.014c-.017 0-.017.008-.017.014h-.013v-.1h.013a.1.1 0 0 0 .1.086c.056 0 .06-.04.06-.048 0-.024-.024-.032-.054-.044l-.033-.012c-.082-.034-.082-.066-.082-.086s.016-.078.109-.078a.4.4 0 0 1 .076.014c.01 0 .012-.006.016-.014h.008v.086z" transform="translate(233.5 142)"/><path d="m1.227.873a.042.042 0 0 0 -.027.027l-.1.237h-.011l-.08-.186-.09.186h-.012l-.1-.237a.041.041 0 0 0 -.034-.027v-.01h.138v.01c-.016 0-.028 0-.028.018s.002.009.002.009l.056.142.059-.117-.019-.038c-.006-.006-.01-.012-.036-.014v-.01h.155v.01c-.02 0-.036 0-.036.016a.049.049 0 0 0 .008.022l.05.132.049-.136a.023.023 0 0 0 0-.014c0-.018-.02-.018-.034-.02v-.01h.086z" transform="translate(233.5 142)"/><path d="m0 .268a.146.146 0 0 0 .13-.104.039.039 0 0 1 -.02.006.051.051 0 0 1 -.022 0 .081.081 0 0 1 -.088-.082.094.094 0 0 1 .1-.088.105.105 0 0 1 .112.116c0 .074-.066.15-.21.16z" transform="translate(234.5 143)"/><path d="m.946.948a.218.218 0 0 1 .1.018.083.083 0 0 1 .052.076c0 .05-.052.094-.138.094-.034 0-.06-.012-.06-.036s0-.024.024-.024.06.036.09.036a.042.042 0 0 0 .046-.042c0-.022-.026-.042-.05-.052a.3.3 0 0 0 -.102-.018l.046-.136h.146l-.02.05h-.126z" transform="translate(233.5 142)"/><path d="m25.447 61a2.378 2.378 0 0 1 -1.791-.811l-19.608-12.498c-2.359-1.091-4.007-4.606-4.007-8.55l-.041-39.111h.009v-.03h50.983v.03h.008l-.04 39.111c0 3.945-1.649 7.461-4.01 8.55l-19.91 12.683a2.371 2.371 0 0 1 -1.593.626zm-24-59.6v38.265c.293 3.224 1.406 5.518 3.308 6.819l19.185 12.246a2.346 2.346 0 0 0 2.983.02h.105l19.22-12.266c1.9-1.3 3.016-3.6 3.307-6.819v-38.265z" transform="translate(267.5 44)"/><path d="m.664 1.162.672-.324a3.462 3.462 0 0 0 -.672.324" transform="translate(299.5 100)"/><path d="m.034 9-.034-.3c.785-.191.938-.63 1.273-1.593l2.477-7.058.412-.049 4.007 6.038c.753 1.136 1.042 1.529 1.6 1.529a1.377 1.377 0 0 0 .2-.016l.034.3-4.752.549-.034-.3h.024c.876-.159 1.141-.207 1.093-.605a6.234 6.234 0 0 0 -.863-1.555l-3.3.38-.021.063a6.626 6.626 0 0 0 -.442 1.585c.042.363.488.4.819.4.158 0 .323-.011.444-.02l.037.305-2.973.347zm3.341-6.3-1.036 3.121 2.861-.333z" transform="translate(251.5 147)"/><path d="m47.614 45a3.089 3.089 0 0 1 -.864-.121.943.943 0 0 1 -.572-.538.747.747 0 0 1 .054-.655c1.768-2.607 3.568-5.486 5.247-8.217v-.448a21.646 21.646 0 0 0 -2.691.426 18.02 18.02 0 0 1 -3.587.472 8.632 8.632 0 0 0 -2.036.973 8.64 8.64 0 0 1 -2.027.97 6.417 6.417 0 0 1 -2.412 1.054 11.861 11.861 0 0 0 -1.357.439 14.553 14.553 0 0 0 -1.839.254 12.593 12.593 0 0 1 -2.295.27 1.321 1.321 0 0 1 -.924.336 1.315 1.315 0 0 0 -.923.336c-.455-.077-.517-.16-.444-.6a3.582 3.582 0 0 1 .508-.289 1.461 1.461 0 0 0 .894-.832c-.072-.473-.494-.644-.9-.809-.43-.174-.835-.337-.8-.837a43.759 43.759 0 0 0 5.112-1.012 31.669 31.669 0 0 1 7.478-1.161c.187 0 .375 0 .56.009a18.49 18.49 0 0 0 2.584-1.41 14.284 14.284 0 0 1 3.473-1.726 3.764 3.764 0 0 0 -1.111-.934c-.871-.566-1.771-1.151-1.178-2.5a18.377 18.377 0 0 1 3.1-6.72 53.126 53.126 0 0 0 -10.49 1.417 4.72 4.72 0 0 0 -1.506.308 5.235 5.235 0 0 1 -1.228.291c-1.213.307-2.441.637-3.628.955-4.9 1.314-9.959 2.672-15.428 2.853-2.175-.228-4.368-.684-5.685-2.464a7.01 7.01 0 0 1 -.735-4.111 13.406 13.406 0 0 0 -.079-2.163.812.812 0 0 0 -.526-.205 1.9 1.9 0 0 0 -.582.131l-.267.011c-1.026.044-2.087.09-3.157.09a15.545 15.545 0 0 1 -7.353-1.449c.269-.638.994-.664 1.694-.689a3.141 3.141 0 0 0 1.257-.205 8.222 8.222 0 0 1 2.258-.31 10.842 10.842 0 0 1 6.091 2.027c.741-.61.5-1.35.246-2.134a3.3 3.3 0 0 1 -.246-1.375c-.18-.994-.475-2.026-.76-3.025-.778-2.721-1.582-5.534-.347-8.254a6.265 6.265 0 0 1 5.24-3.1 5.681 5.681 0 0 1 .67.04 3.947 3.947 0 0 1 .527-.036c2.09-.001 3.77 1.667 4.57 3.096.548 1.478-.054 2.705-.636 3.891-.6 1.218-1.216 2.477-.618 4.024a2.321 2.321 0 0 0 .545.071 1.608 1.608 0 0 0 .272-.022l2.432-.57a2.1 2.1 0 0 0 .605.085 4.808 4.808 0 0 0 1.3-.243h.017a5.046 5.046 0 0 1 1.353-.247 2.459 2.459 0 0 1 .416.034 21.18 21.18 0 0 1 3.093-.78 24.133 24.133 0 0 0 2.668-.638c8.879-2.308 18.253-2.781 27.103-3.068l2.974.316a27.673 27.673 0 0 0 3.81.448 34.119 34.119 0 0 1 3.409.36c5.076.534 10.085 1.44 14.929 2.317 5.3.96 10.79 1.954 16.386 2.461.532-.269.527-.665.521-1.167 0-.057 0-.116 0-.177a17.087 17.087 0 0 0 -.341-2.558c-.411-2.236-.835-4.547 1.079-6.106a5.8 5.8 0 0 1 4.495-1.86 8.939 8.939 0 0 1 1.929.218 7.792 7.792 0 0 1 5.022 4.629c.239 2.663-.712 5.074-1.632 7.406a29.048 29.048 0 0 0 -1.322 3.875c-.182 1.145-.386 2.307-.584 3.432-.2 1.151-.411 2.34-.6 3.512a6.218 6.218 0 0 1 -4.189 3.2 21.778 21.778 0 0 1 -5.692.535h-1.267a58.69 58.69 0 0 1 -12.654-2.08 85.041 85.041 0 0 0 -8.4-1.73c-.393-.08-.79-.164-1.174-.245a28.45 28.45 0 0 0 -5.985-.82c-.274 0-.549.007-.818.021l-.222.226a7.477 7.477 0 0 0 2.224.977c1.376.437 2.675.85 3.095 2.308a4.169 4.169 0 0 1 -.221 3.957 5.032 5.032 0 0 1 -1.743 1.8 10.16 10.16 0 0 0 -.844.668 16.953 16.953 0 0 1 3.718 2.431c1.938 1.522 3.942 3.1 6.7 3.1.251.085.5.177.738.267a10.024 10.024 0 0 0 1.845.556 8.208 8.208 0 0 0 1.813.46 10.693 10.693 0 0 1 2.576.693 1.041 1.041 0 0 1 .859.565 1.557 1.557 0 0 1 -1.058.485c-.321.06-.624.116-.749.307a.5.5 0 0 0 -.04.4 3.123 3.123 0 0 1 1.106.823.846.846 0 0 1 -.723.316 4.034 4.034 0 0 1 -.963-.172 4.75 4.75 0 0 0 -.678-.144 20.494 20.494 0 0 0 -2.6-.757 15.939 15.939 0 0 1 -3.232-1.036c-.252-.165-.519-.331-.777-.491a10.237 10.237 0 0 1 -2.916-2.347 6.55 6.55 0 0 0 -2.286-.745 8.854 8.854 0 0 1 -1.7-.451 8.588 8.588 0 0 1 -2.479-.909 12.807 12.807 0 0 0 -1.512-.662 4.643 4.643 0 0 0 .637 1.62 7.664 7.664 0 0 1 .546 1.145c.391.681.841 1.317 1.318 1.99a26.441 26.441 0 0 1 1.49 2.269 7.072 7.072 0 0 0 .548.754 3.277 3.277 0 0 1 .853 1.56 1.6 1.6 0 0 1 -.959.313 4.3 4.3 0 0 1 -1.784-.588 7.338 7.338 0 0 0 -1.1-.471 4.234 4.234 0 0 1 -.6-.874c-.348-.61-.707-1.241-1.442-1.241a1.5 1.5 0 0 0 -.248.022 4.116 4.116 0 0 1 -3.6 1.488c-.407 0-.829-.022-1.238-.043h-.009c-.412-.021-.839-.043-1.265-.043a5.747 5.747 0 0 0 -2.68.541c-.279-.018-.571-.019-.853-.019a3.842 3.842 0 0 1 -2.547-.579c-2.031-1.889-1.565-4.881-1.106-6.5l.1-.171a32.931 32.931 0 0 1 3.442-5.057.368.368 0 0 0 -.316-.2 1.085 1.085 0 0 0 -.519.224 2.243 2.243 0 0 1 -.2.119c-.249.232-.5.458-.743.677-1.553 1.4-3.02 2.727-3.468 4.926-1.319 2.9-2.8 5.553-4.212 7.99a4.247 4.247 0 0 1 -2.008.57zm6.079-10.873a14.037 14.037 0 0 0 -2.12 3.339 16.786 16.786 0 0 1 -1.646 2.784 6.221 6.221 0 0 1 -.612.926 3.263 3.263 0 0 0 -.865 1.837l.082-.013c.428-.071.961-.16 1.1-.509a56.955 56.955 0 0 0 3.622-7.021 1.063 1.063 0 0 1 .324-.652c.2-.236.366-.44.118-.69zm13.591-1.121-.3.075c.276.617.541 1.236.8 1.834a30.261 30.261 0 0 0 3.857 7.128.412.412 0 0 0 .285.1.306.306 0 0 0 .307-.177c-.919-1.47-1.753-3.07-2.561-4.617-.755-1.446-1.535-2.942-2.39-4.346zm-10.429 6.854a1.386 1.386 0 0 0 -.5.091 1.092 1.092 0 0 0 .258.746 1.1 1.1 0 0 1 .259.749 2.8 2.8 0 0 0 1.955.642 10.956 10.956 0 0 0 1.755-.192 11.242 11.242 0 0 1 1.164-.152 3.169 3.169 0 0 1 1.254-.207c.338 0 .687.027 1.024.053h.012c.331.025.672.052.99.052a1.777 1.777 0 0 0 2.036-1.393c-.046-.482-.2-.707-.478-.707a1.948 1.948 0 0 0 -.713.235l-.038.017a2.091 2.091 0 0 1 -.814.253.655.655 0 0 1 -.173-.022 9.633 9.633 0 0 0 -2.1-.193c-.412 0-.829.014-1.232.028-.381.013-.813.028-1.232.028-.219 0-.419 0-.609-.012a1.3 1.3 0 0 1 -.926.393 3.035 3.035 0 0 1 -.923-.2h-.013a3.125 3.125 0 0 0 -.956-.209zm23.338-2.16a.577.577 0 0 0 -.362.161.84.84 0 0 1 -.116.082 11.182 11.182 0 0 0 4.842 2.506c.6.2 1.22.4 1.8.629a.81.81 0 0 1 .1-.62 1.117 1.117 0 0 1 .782-.3c.412-.056.838-.114.941-.571a32.474 32.474 0 0 1 -7.875-1.874.477.477 0 0 0 -.112-.013zm-12.17 1.057-.006.036c-.077.464-.206 1.242.154 1.533l.371-.149c.326-.577-.185-1.14-.519-1.421zm-6.823-7.657a.885.885 0 0 0 -.641.337 31.568 31.568 0 0 0 -2.226 5.634c-.165.508-.336 1.034-.507 1.537.342.637 1.284.645 2.042.651.224 0 .435 0 .617.02a3.537 3.537 0 0 1 1.93-.422c.177 0 .356 0 .53.008s.354.008.528.008a3.086 3.086 0 0 0 2.183-.639c.787-1.594-.436-2.8-1.619-3.973a9.979 9.979 0 0 1 -1.262-1.4c-.357-.807-.923-1.761-1.575-1.761zm-20.7 5.055a16 16 0 0 0 -4.64.947l-.265.082a2.926 2.926 0 0 1 -1.154.274 1.682 1.682 0 0 0 -1.281.478l1.031.968c.524-.121 1.072-.229 1.6-.333 2.122-.418 4.316-.85 6.082-2.28a6.756 6.756 0 0 0 -1.373-.136zm18.362-3.9-.369.6a8.97 8.97 0 0 1 -.937 1.549c-.7 1-1.426 2.041-1.133 3.23a31.3 31.3 0 0 0 2.441-5.376zm7.608 3.436a2.115 2.115 0 0 0 .311 1.6c.023.042.043.08.06.113.265-.4.1-.672-.082-.984a1.738 1.738 0 0 1 -.289-.733zm3.1-2.988.076.374c.226.156.451.318.669.474 1.323.949 2.571 1.843 4.32 1.843h.18a.3.3 0 0 1 .147-.3c-.4-.218-.8-.456-1.182-.685a9.733 9.733 0 0 0 -4.207-1.703zm-18.728.211a7.27 7.27 0 0 0 -3.252 1.132c-.469.249-.911.485-1.36.673 1.123-.044 3.92-.289 5.614-1.642a3.137 3.137 0 0 0 -.999-.16zm12.727-1.588a1.954 1.954 0 0 0 -.351.033l1.7 1.344a.317.317 0 0 0 .128-.332.381.381 0 0 1 .021-.191 1.836 1.836 0 0 0 -1.495-.851zm-10.623-8.713a8.1 8.1 0 0 0 -1.689.233 8.09 8.09 0 0 0 -2.366 6.723 8.9 8.9 0 0 0 2.351 1.25 12.473 12.473 0 0 1 1.641.765.962.962 0 0 0 .662-.894 3.23 3.23 0 0 0 -1.754-.819 2.622 2.622 0 0 1 -1.939-1.125 2.344 2.344 0 0 1 -.232-1.437 5.869 5.869 0 0 0 .008-.878c.411-2.275 2.5-2.827 4.347-3.315l.457-.116a2.734 2.734 0 0 0 -1.486-.387zm2 8.449v.373h.154v-.3h-.149a.452.452 0 0 1 .3-.075zm18.1-5.9.075 3.359c-.891 2.162-3.4 2.5-4.433 2.541a2.928 2.928 0 0 0 .994.156 4.1 4.1 0 0 0 1.889-.453 3.967 3.967 0 0 0 2.51-3.662l-.006-.059c-.075-.744-.167-1.663-1.03-1.881zm-3.223-1.492c-1.364 0-3.021 1.571-3.645 2.163a.9.9 0 0 0 -.459.543 1.522 1.522 0 0 0 .4 1.053 1.642 1.642 0 0 1 .427 1.17.783.783 0 0 1 .3.745 2.379 2.379 0 0 0 1.447.538 2.265 2.265 0 0 0 .251-.014c.23-.052.469-.1.7-.137 1.1-.2 2.234-.408 2.844-1.581a3.712 3.712 0 0 0 -.391-2.6c-.094-.224-.191-.456-.272-.687a1.751 1.751 0 0 0 -1.603-1.192zm-6.415 6.086a.474.474 0 0 0 -.332.112h.667a.482.482 0 0 0 -.334-.112zm-6.168-3.773a12.551 12.551 0 0 0 -1.181 3.137 6.326 6.326 0 0 0 1.179-3.137zm-2.95-1.9a4.225 4.225 0 0 0 -3.4 1.753 2.922 2.922 0 0 1 -.167.828c-.167.549-.324 1.068.167 1.563a17.656 17.656 0 0 0 3.543.9 7.908 7.908 0 0 0 1.849-4.259 2.653 2.653 0 0 0 -1.994-.787zm3.994 3.51a.325.325 0 0 0 -.23.111 3.207 3.207 0 0 1 -.114.392 1.24 1.24 0 0 0 -.107.654 1.023 1.023 0 0 0 .174.015 1.106 1.106 0 0 0 .934-.537l-.043-.067c-.129-.202-.363-.571-.616-.571zm4.938.036c-.46 0-.8.534-1.08.963l-.1.157a3.049 3.049 0 0 0 1.127-.719c.068-.059.135-.117.2-.174-.078-.08-.148-.156-.148-.23zm-2.732.524-.441.449h.294a.6.6 0 0 1 .107-.138c.063-.067.128-.137.12-.205a.156.156 0 0 0 -.081-.109zm-.441-6.8a4.92 4.92 0 0 0 -.84 1.886c-.08.282-.162.573-.27.877a2.087 2.087 0 0 0 .739 2.615 1.053 1.053 0 0 0 .739.288 3.094 3.094 0 0 0 1.3-.43c.115-.057.223-.112.324-.158 1.405-.893.912-2.142.435-3.349a5.705 5.705 0 0 1 -.435-1.432 4.341 4.341 0 0 0 -1.993-.297zm-48.085-10.233a4.427 4.427 0 0 0 .3 1.945 14.33 14.33 0 0 0 .3 2.165 10.82 10.82 0 0 1 .285 2.986 10.384 10.384 0 0 1 .385 2.651c.107 1.772.218 3.6 1.979 4.447a14.213 14.213 0 0 0 4.378.607 44.12 44.12 0 0 0 5.706-.5l.258-.034c5.826-1.672 11.285-2.967 16.69-3.958a75.114 75.114 0 0 1 16.646-1.75 100.582 100.582 0 0 1 21.244 2.346c1.933.34 3.909.765 5.82 1.176a67.4 67.4 0 0 0 14.008 2 27.932 27.932 0 0 0 6.1-.636c1.047-.57 2.069-1.235 2.069-2.539a1.9 1.9 0 0 0 .469-1.37 2.2 2.2 0 0 1 .343-1.243 27.985 27.985 0 0 1 .678-3.082 18.681 18.681 0 0 0 .8-4.686 18.8 18.8 0 0 1 -7.971 1.56 59.469 59.469 0 0 1 -9.874-1.125c-.861-.147-1.752-.3-2.611-.434-.3-.06-.606-.1-.906-.132a6.585 6.585 0 0 1 -1.311-.242 58.9 58.9 0 0 1 -7.053-1.065c-1.666-.322-3.388-.655-5.137-.876-.9-.068-1.77-.214-2.612-.356a24.421 24.421 0 0 0 -3.22-.392 65.51 65.51 0 0 0 -11.195-.793c-1.75 0-3.535.033-5.261.065-1.1.02-2.233.041-3.344.053a125.23 125.23 0 0 0 -17.062 2.616c-1.342.243-2.694.544-4 .835a44.081 44.081 0 0 1 -9.559 1.4 20.653 20.653 0 0 1 -3.943-.366 9.152 9.152 0 0 1 -1.567-.618 6.6 6.6 0 0 0 -1.832-.654zm45.719 13.374v.821h.073v-.821zm10.226-1.5a3.113 3.113 0 0 0 -2.323 1.573 3.43 3.43 0 0 0 1.266-.795 3.894 3.894 0 0 1 1.171-.772c-.033-.007-.07-.009-.114-.009zm-12.2-1.47a4.17 4.17 0 0 0 -1.354.207 2.241 2.241 0 0 1 1.4.681 2.847 2.847 0 0 0 1.114.661 1.5 1.5 0 0 1 .2-.459c.168-.3.342-.614.1-.961a10.287 10.287 0 0 0 -1.456-.131zm8.874.139a.28.28 0 0 0 -.235.075.344.344 0 0 0 -.024.29c.159.625.4.928.731.929a2.3 2.3 0 0 0 1.111-.577l.053-.039a2.5 2.5 0 0 1 1.259-.615h.006l.09.006a.775.775 0 0 0 -.09-.006l-2.2-.144a.459.459 0 0 1 -.329.1c-.061 0-.123 0-.192-.01s-.12-.012-.175-.012zm38.672-12.109c0 .126-.007.265-.014.412a3.031 3.031 0 0 0 .233 1.679h1.775a1.961 1.961 0 0 1 .689-.28c.506-.135.983-.263.934-1.064a8.292 8.292 0 0 0 -2.506-.583c-.366-.048-.75-.096-1.111-.164zm-88.781-1.454a2.454 2.454 0 0 0 .039.974 2.147 2.147 0 0 1 .036.894c.5.89 1.535 1.034 2.54 1.173.338.047.687.095 1 .171a2.916 2.916 0 0 0 .371-2.541 9.48 9.48 0 0 0 -1.382-.091 4.377 4.377 0 0 1 -2.604-.58zm92.043-4.575a4.045 4.045 0 0 1 3.458 1.617 4.133 4.133 0 0 1 -.491 3.042 5.52 5.52 0 0 0 -.617 2.038 4.252 4.252 0 0 0 3.175-2.541c.21-1.274.527-3.2-.592-4.255a3.338 3.338 0 0 0 -2.435-1.568 4.9 4.9 0 0 0 -2.349-.556 4.382 4.382 0 0 0 -1.936.406 4.309 4.309 0 0 0 -2.289 3.883c.089.21.164.436.236.653.3.893.577 1.736 1.758 1.736l.294-2.462a2.783 2.783 0 0 0 .107-.716 1.282 1.282 0 0 1 .485-1.152 5.812 5.812 0 0 1 1.196-.121zm-91.124-1.918a5.464 5.464 0 0 0 -2.62.626 5.378 5.378 0 0 0 -1.769 3.733c-.2 1.549.742 2.557 1.575 3.447.091.1.181.194.268.289l.221-.3a3.736 3.736 0 0 1 -.106-1.256 2.776 2.776 0 0 0 -.262-1.581 3.426 3.426 0 0 1 .958-3.283 5.432 5.432 0 0 1 2.524-.867 2.81 2.81 0 0 1 .8.117 4.341 4.341 0 0 0 .447.236c.463.221.9.43.955 1.109a8.336 8.336 0 0 0 -.441 3.362h.737a3.362 3.362 0 0 0 1.12-3.363 2.875 2.875 0 0 0 -1.184-1.419 6.447 6.447 0 0 0 -3.223-.85zm91.589 3.336c-.4 0-.461.813-.524 1.674a3.5 3.5 0 0 1 -.4 1.815.734.734 0 0 0 .4.119 1.811 1.811 0 0 0 1.03-.54l.124-.1c.534-.4.525-1.19.519-1.765 0-.061 0-.121 0-.178-.517-.69-.892-1.025-1.149-1.025zm-91.342-1.074a2.162 2.162 0 0 0 -.576.082c-.569.1-.632.588-.693 1.056a2.742 2.742 0 0 1 -.119.588c.322.974.855 1.427 1.677 1.427.055 0 .112 0 .17-.006a14.819 14.819 0 0 0 .369-2.616c-.056-.462-.543-.531-.828-.531z" transform="translate(232.5 131)"/></g></svg>