<svg xmlns="http://www.w3.org/2000/svg" width="586" height="334" viewBox="0 0 586 334">
  <g id="Group_11" data-name="Group 11" transform="translate(0.5)">
    <g id="Group_5" data-name="Group 5" transform="translate(0 208)">
      <text id="Department_of_Vetera" data-name="Department of Vetera" transform="translate(292.5 116)" fill="#fff" font-size="44" font-family="TimesNewRomanPS-BoldMT, Times New Roman" font-weight="700" letter-spacing="-0.014em"><tspan x="-292.619" y="0">Department of Veteran’s Affairs</tspan></text>
      <rect id="Rectangle" width="569" height="4" transform="translate(8 61)" fill="#fff"/>
      <text id="Australian_Governmen" data-name="Australian Governmen" transform="translate(292 39)" fill="#fff" font-size="44" font-family="TimesNewRomanPS-BoldMT, Times New Roman" font-weight="700" letter-spacing="-0.014em"><tspan x="-218.265" y="0">Australian Government</tspan></text>
    </g>
    <g id="dfat-strip-white" transform="translate(173)">
      <path id="Fill_41" data-name="Fill 41" d="M1.333.669a1.6,1.6,0,0,1-.666.662" transform="translate(80 140)" fill="#fffffe"/>
      <path id="Fill_43" data-name="Fill 43" d="M1,2A1,1,0,1,0,0,1,1,1,0,0,0,1,2" transform="translate(85 95)" fill="#fffffe"/>
      <path id="Fill_45" data-name="Fill 45" d="M20.954,52a1.959,1.959,0,0,1-1.473-.672L3.333,41.542c-1.944-.909-3.3-3.836-3.3-7.118L0,.023H.006V0H41.995V.023H42l-.033,34.4c0,3.281-1.357,6.208-3.3,7.118l-16.4,9.939A1.95,1.95,0,0,1,20.954,52ZM15.1,25.175V47.318l4.613,2.794a1.918,1.918,0,0,0,1.238.454,1.965,1.965,0,0,0,1.222-.435h.081L26.9,47.318V25.175Zm12.937,0v21.45l10.048-6.09c1.568-1.083,2.485-2.992,2.725-5.675V25.175Zm-26.853,0v9.684c.239,2.683,1.156,4.593,2.725,5.675l10.048,6.09V25.175ZM28.042,1.169V24.01H40.813V1.169Zm-12.939,0V24.01H26.9V1.169ZM10.328,15.648V24.01H13.96V15.648Zm-9.141,0V24.01H5.6V15.648Zm6.794,6.3h0l.622.474v-.748l.659-.127-.515-.545.321-.6-.69.064-.4-.717-.409.728-.678-.075.319.6-.515.545.659.127v.748l.623-.474ZM5.392,11.4c-.1,0-.2.075-.318.243a3.086,3.086,0,0,1,.667.566,1.591,1.591,0,0,0,.809.56l-.029.029c-.347.357-1.271,1.305-1.146,1.6.025.059.091.089.2.089s.214-.1.342-.247c.34-.38.909-1.016,2.86-1.016a1.671,1.671,0,0,1-.3.209c-.194.118-.4.24-.4.381,0,.227.1.271.261.271.038,0,.079,0,.123,0l.034,0c.154-.008.271-.158.394-.318.136-.177.278-.359.483-.359.1,0,.411.052.446.283a.29.29,0,0,1-.057.118c-.062.1-.146.234-.1.322.034.061.128.092.281.092a.505.505,0,0,0,.415-.169.679.679,0,0,0,.126-.438c0-.884-1-2.542-1.89-2.542-.548,0-.634.537-.691.892-.028.176-.049.3-.113.3s-.068-.1-.085-.237c-.044-.358-.119-.958-.988-.958-.624,0-.847.326-.847.631l-.062-.051C5.64,11.5,5.515,11.4,5.392,11.4ZM12.6,13.451h0l.626.473V13.18l.659-.13-.517-.547.319-.6L13,11.967l-.4-.721-.408.728-.68-.073.323.6-.517.547.659.13v.745l.621-.473Zm-9.6,0H3l.623.473V13.18l.657-.13L3.767,12.5l.321-.6-.685.066L3,11.246l-.41.728L1.914,11.9l.321.6-.515.547.657.13v.745L3,13.452ZM10.328,1.169V9.98H13.96V1.169Zm-9.141,0V9.98H5.6V1.169Zm6.794,3.7h0l.622.474V4.6l.659-.126-.515-.549.321-.6-.69.064-.4-.719L7.572,3.4l-.678-.073.319.6L6.7,4.477l.659.126v.745l.623-.474Z" transform="translate(99 47)" fill="#fffffe"/>
      <path id="Fill_47" data-name="Fill 47" d="M11.881,7.008c-.064-.142-1.642.53-1.193.488A4.772,4.772,0,0,1,12,5.7c-.072-.557-.777-.052-1.514.34,2.453-3.562.879-2.1-.493-1.847,2.19-2.392,1.614-2.352,0-1.609C11.263,1.567,11.532.353,11.339,0c-1.19,1.607-2.287,1.357-2.287,2.847a6.006,6.006,0,0,1-.847,3.137c-.638.7-.15-2.63-1.828-2.63-.538,0-1.809-.044-2.192.622.345,0,.856.885.856,1.237s.318,1.321-.26,1.321S3.542,5.309,3.542,4.721,3.5,4.274,3.5,3.431C3.5,2.02,1.236.036.315.036c0,.983,1.265,1.217,1.265,2.471-.536,0-1.3-1.02-1.3-.39s.807.743.807,1.292-.923-.2-.923.392c0,.52.506.43.625.937-.373-.108-.709-.058-.775.136-.061.169.108.39.392.549-.131.121-.242.415-.242,1.24,0,2.784,1.724,4.078,2.989,4.078.9,0,.76-.637.87-.941.038.472.479-.236.479.588,0,.862-.871.486-.871,1.229,0,.995,1.379-.035,1.379,1.068A13.283,13.283,0,0,1,4.845,14.5c0,.351,1.445-.488,1.354-.637.347.127.332,1.162.976,1.137.415-.017.506-1.062.834-1.152-.193.054,1.307.993,1.307.516,0-1.3-.525-.745-.525-1.636,0-.824,1.773-.664,1.493-1.087-.235-.349-.4-.134-.583-.749.034.113-1.394-2.062.3-.941,1.779,1.179,1.98-2.74,1.885-2.943" transform="translate(100 73)" fill="#fffffe"/>
      <path id="Fill_48" data-name="Fill 48" d="M1.5,2C2.33,2,3,1.551,3,1S2.33,0,1.5,0,0,.448,0,1,.672,2,1.5,2" transform="translate(156 87)" fill="#fffffe"/>
      <path id="Fill_49" data-name="Fill 49" d="M1.5,2C2.33,2,3,1.552,3,1S2.33,0,1.5,0,0,.449,0,1,.67,2,1.5,2" transform="translate(150 90)" fill="#fffffe"/>
      <path id="Fill_50" data-name="Fill 50" d="M1.5,2C2.328,2,3,1.551,3,1S2.328,0,1.5,0,0,.449,0,1,.674,2,1.5,2" transform="translate(83 98)" fill="#fffffe"/>
      <path id="Fill_51" data-name="Fill 51" d="M1.5,2C2.33,2,3,1.551,3,1S2.33,0,1.5,0,0,.447,0,1,.672,2,1.5,2" transform="translate(87 98)" fill="#fffffe"/>
      <path id="Fill_52" data-name="Fill 52" d="M1.879,1.844A7.9,7.9,0,0,1,3.03,11c-.9-.072-.74-1.107-.9-1.7C.48,6.57-.837,3.1.645,0c1.07.148.657,1.329,1.234,1.844" transform="translate(207 40)" fill="#fffffe"/>
      <path id="Fill_53" data-name="Fill 53" d="M3,3.834A13.741,13.741,0,0,0,3,9.892c-.375.384-.3-.384-.676-.307C-.6,7.438.75,3.222,0,.233A.574.574,0,0,1,.75.079,5.483,5.483,0,0,1,3,3.834" transform="translate(30 42)" fill="#fffffe"/>
      <path id="Fill_54" data-name="Fill 54" d="M2.874.816c.442.875-.371,1.751-.965,2.149A1.866,1.866,0,0,1,.057,2.09,1.873,1.873,0,0,1,.949.018a1.867,1.867,0,0,1,1.924.8" transform="translate(213 45)" fill="#fffffe"/>
      <path id="Fill_55" data-name="Fill 55" d="M3,1.116A2.569,2.569,0,0,1,1.965,3C1.487,3,.768,3,.45,2.573A1.658,1.658,0,0,1,.129.77,1.82,1.82,0,0,1,1.646,0C2.2.258,2.761.429,3,1.116" transform="translate(25 48)" fill="#fffffe"/>
      <path id="Fill_56" data-name="Fill 56" d="M2.887.822a1.954,1.954,0,0,1,0,1.312,1.666,1.666,0,0,1-2.051.739A2.23,2.23,0,0,1,0,1.477,2.416,2.416,0,0,1,1.291,0a2.374,2.374,0,0,1,1.6.822" transform="translate(216 50)" fill="#fffffe"/>
      <path id="Fill_57" data-name="Fill 57" d="M2.667.462c.649.328.163,1.16.082,1.656-.406.417-.969,1.077-1.7.828C.644,2.535.163,2.535,0,1.952A1.836,1.836,0,0,1,1.132.045,1.976,1.976,0,0,1,2.667.462" transform="translate(212 50)" fill="#fffffe"/>
      <path id="Fill_58" data-name="Fill 58" d="M3,.848c0,.848.084,1.926-1.027,2.082A1.632,1.632,0,0,1,.009,1.849,1.819,1.819,0,0,1,1.291,0,2.4,2.4,0,0,1,3,.848" transform="translate(206 51)" fill="#fffffe"/>
      <path id="Fill_59" data-name="Fill 59" d="M2.954,1.141c.251.866-.579,1.39-1.075,1.825C1.3,3.14.551,2.618.217,2.007-.362,1.4.384.878.551.358a1.516,1.516,0,0,1,2.4.783" transform="translate(33 51)" fill="#fffffe"/>
      <path id="Fill_60" data-name="Fill 60" d="M2,1.24a2.07,2.07,0,0,1-.668,1.69c-.488.263-.975-.269-1.221-.8A1.812,1.812,0,0,1,.659.082C1.332-.276,1.756.615,2,1.24" transform="translate(30 51)" fill="#fffffe"/>
      <path id="Fill_61" data-name="Fill 61" d="M1.615.975A17.758,17.758,0,0,1,3,6.571C2.722,8.047,3.208,9.989,2.235,11,1.266,10.611,1.2,9.29.575,8.592-.672,5.873.437,2.684.852.043c.555-.233.555.545.763.932" transform="translate(189 51)" fill="#fffffe"/>
      <path id="Fill_62" data-name="Fill 62" d="M2.955,1.017c.231.929-.465,1.4-1.008,1.937A1.815,1.815,0,0,1,.009,1.869,1.94,1.94,0,0,1,1.017.01,2,2,0,0,1,2.955,1.017" transform="translate(25 52)" fill="#fffffe"/>
      <path id="Fill_63" data-name="Fill 63" d="M3.176,2.777a9.732,9.732,0,0,1,.377,6.865L3.1,10C2.042,8.069.532,6.281,0,4.207A9.029,9.029,0,0,1,.911.131c.528-.353.829.073,1.056.5a2.779,2.779,0,0,0,1.21,2.144" transform="translate(200 53)" fill="#fffffe"/>
      <path id="Fill_64" data-name="Fill 64" d="M3,1.079A2,2,0,0,1,1.837,2.954,1.385,1.385,0,0,1,.061,2.018,1.689,1.689,0,0,1,.91.143c.851-.469,1.7.315,2.09.936" transform="translate(209 53)" fill="#fffffe"/>
      <path id="Fill_65" data-name="Fill 65" d="M3,1.429A1.617,1.617,0,0,1,1.848,2.858c-.615.452-1.074-.3-1.614-.525A1.737,1.737,0,0,1,.234.6C.467.149,1,.149,1.465,0,2.156.377,2.845.678,3,1.429" transform="translate(29 55)" fill="#fffffe"/>
      <path id="Fill_66" data-name="Fill 66" d="M2.926,1.234c.343.843-.594,1.263-.935,1.682C.969,3.255.458,2.5.034,1.906-.138,1.063.375.557.969.053,1.99-.2,2.5.475,2.926,1.234" transform="translate(32 55)" fill="#fffffe"/>
      <path id="Fill_67" data-name="Fill 67" d="M8,0C7.925.964,6.443,1.927,6.3,2.889a7.485,7.485,0,0,1-4.583,4.15A3.539,3.539,0,0,1,.011,8c-.145-1.48,1.186-2.815,2-4.145A10.969,10.969,0,0,1,8,0" transform="translate(206 56)" fill="#fffffe"/>
      <path id="Fill_68" data-name="Fill 68" d="M5.09,2.734a26.759,26.759,0,0,0,2.9,3.517c.073.3-.141.749-.494.749C4.03,6.775,1.7,3.032,0,.414.214-.41,1.131.264,1.629.189c1.2.972,2.543,1.272,3.462,2.544" transform="translate(25 56)" fill="#fffffe"/>
      <path id="Fill_69" data-name="Fill 69" d="M7,0C6.853,3.272,5.322,6.62,2.479,8.218,1.678,8.523.8,9.359,0,8.827,1.533,5.553,3.865,2.893,6.417,0Z" transform="translate(208 60)" fill="#fffffe"/>
      <path id="Fill_70" data-name="Fill 70" d="M2.954.876A1.775,1.775,0,0,1,1.7,2.994C.891,3.068.377,2.411.008,1.827A1.525,1.525,0,0,1,1.04.22,1.233,1.233,0,0,1,1.922,0c.444.146.663.51,1.032.876" transform="translate(198 61)" fill="#fffffe"/>
      <path id="Fill_71" data-name="Fill 71" d="M6.029,1.029A43.426,43.426,0,0,1,10,4.668c-.955.7-2.132.076-3.237.076C4.264,3.817,2.573,1.571,0,.8.072-.057,1.029.253,1.544.02c1.618-.155,2.94.62,4.485,1.008" transform="translate(20 62)" fill="#fffffe"/>
      <path id="Fill_72" data-name="Fill 72" d="M95.482,26.44C91.336,24.8,88.6,29.123,84.375,28.6c-.517.3-.37.821-.666,1.194-.222.222-.594.075-.814-.075-.22-1.791-.814-3.43-1.036-5.147-.446-.743-.224-1.788-.592-2.532-2.371-6.486,5.775-1.567,7.4-5.367,1.409-3.282-2.74-3.654-4-5.964v-.97c-1.185-1.192-2.443-1.566-3.185-3.133a10.8,10.8,0,0,0,.222-5.74c-.075-.446-.37-1.043-1.034-.819-1.409,1.939-2.445,3.5-3.778,5.369a39.8,39.8,0,0,0-4.368-3.28c-1.113-.149-2.147-1.269-3.407-.819a1.018,1.018,0,0,0,.222,1.116c.075,2.909,1.555,5.219,3.627,7.307l.224,1.118c-1.331,3.057-.963,6.559-1.331,9.841a54.62,54.62,0,0,1-16.07,22.587c-4.219,4.771-9.255,9.4-9.921,15.955-.22,1.045.149,2.312-.666,3.057a25.543,25.543,0,0,1-6.886-3.652c-3.4-2.387-8.292-2.09-10.513-6.414-.889-1.713.224-3.428,1.036-4.695C31.36,45.151,30.99,40.9,29.659,38c-.295-.075-.371.295-.592.369-.224,4.4-3.705,7.455-2.371,12.3.3,1.414,1.038,2.31,1.407,3.652a11.666,11.666,0,0,1-1.7-.371c-1.628-.224-3.257-.9-4.962-.674-3.4,1.567-8.068-.369-10.81,2.76-.444.075-1.036.149-.887.819,1.628,0,3.181.446,4.812.375,2.591.446,4.293-1.715,6.07-2.685h.444c.741-.746,2-.3,2.964-.448,4.663.522,8.29,2.758,12.141,5.07v.3c-1.48.672-3.183,1.12-4.665,1.939-1.7,1.269-3.629,2.907-4.146,5-1.185,1.864.371,3.5,1.111,5.068.073.746.147,1.64.814,1.939,2.371-2.534.147-5.665.517-8.573.594-2.237,2.669-3.279,4.814-3.876,4.221-1.79,7.259,1.638,10.661,3.579-.073,3.43.373,6.708-.368,10.062a9.188,9.188,0,0,1-3.483.522c-5.848.448-10.438,3.652-15.695,5.441-2.367.821-5.182.746-7.551,1.64,1.85.522,3.776-.147,5.7-.222,7.256-1.045,12.809-6.636,20.656-5.667l.147.224a17.493,17.493,0,0,1-3.479,4.846c-.224-.821-.295-1.489-1.036-1.939a1.379,1.379,0,0,0-1.7.6,1.022,1.022,0,0,0,0,1.12A2.421,2.421,0,0,0,40.1,82.2c-.149.674-.965.97-1.407,1.566-2.074,3.5-6.294,2.088-8.738,4.549-.37.522-1.7.819-1.111,1.64a11.111,11.111,0,0,0,7.627-1.943c2.74-3.053,5.628-5.96,8.366-8.867a8.885,8.885,0,0,1-1.628,6.783,8.625,8.625,0,0,0-2-1.118A1.821,1.821,0,0,0,39.877,86.3a4.38,4.38,0,0,0,1.107,1.493c-2.514,1.79-5.7,1.939-8.587,2.758a145.818,145.818,0,0,1-16.139,1.194c-2.593-.149-5.555.745-8,0-2.815.521-5.85-.375-8.146,1.191-.3.371.071.748.071,1.118,3.41,2.239,8.075.448,11.924,1.12H41.283c2.149-.075,4.3-.149,6-1.12,3.778-2.161,5.848-6.04,7.777-9.841a15.257,15.257,0,0,0,1.553-4.469,6.44,6.44,0,0,1,5.551-4.549A33.912,33.912,0,0,1,60.9,86.526c-.444,2.387-2,4.695-1.036,7.231.222,1.192,1.482,1.192,2.443,1.342,8.96-.149,17.92-.522,27.4.151a22.267,22.267,0,0,0,5.036.743c.147-.224.666-.3.444-.743a2.82,2.82,0,0,0-1.779-2.092c-.146-.444-.812-.3-1.036-.593C87.634,89.88,81.933,91.3,76.378,91.371c-2.888.3-5.775.821-8.219-.819-1.109-1.342-.295-5.591-.295-5.591,0-1.685,4.073-13.419,4.592-14.389a12.91,12.91,0,0,0,.442-3.43c.592-1.491.446-3.428.446-5.068.295-2.387,1.48-4.622,2.294-6.932.444-1.12.816-2.312,1.258-3.432.444-1.414.6-2.758,1.482-3.876,2.415,1.532,4.777,1.487,5.938,4.227l1.021,6.21c0,.375.3,1.118.814.674,1.926-1.269,1.335-4.1,1.335-6.038.444-2.312-1.183-3.432-1.852-5.443a8.91,8.91,0,0,1-1.37-2.152c-.3-1.642-3.886-2.769-3.073-4.783.442-1.715.889-3.28,2.516-4.249a.773.773,0,0,1,.37.53l.89-.623.091-6.234c2.4-.009,5.979.3,8.422.3.668.224,1.185.745,1.926.819L96,30.25l6-1.17c-2.548.286-4.1-2.64-6.518-2.64" transform="translate(10 14)" fill="#fffffe"/>
      <path id="Fill_73" data-name="Fill 73" d="M.7,1.057A3.626,3.626,0,0,0,1.3.943Z" transform="translate(111 42)" fill="#fffffe"/>
      <path id="Fill_74" data-name="Fill 74" d="M2.992,1.03A1.894,1.894,0,0,1,1.7,3C1.019,2.745.506,2.659.078,1.972-.265,1.03.591.343,1.276,0c.687.172,1.543.258,1.716,1.03" transform="translate(45 63)" fill="#fffffe"/>
      <path id="Fill_75" data-name="Fill 75" d="M2.509.338a1.945,1.945,0,0,1,.348,2.029c-.609.531-1.567.973-2.089.267C.247,2.1-.272,1.485.162.778.769.159,1.814-.369,2.509.338" transform="translate(40 64)" fill="#fffffe"/>
      <path id="Fill_76" data-name="Fill 76" d="M.966.943c.022.038.044.076.068.114" transform="translate(145 64)" fill="#fffffe"/>
      <path id="Fill_77" data-name="Fill 77" d="M2.92.954A1.748,1.748,0,0,1,1.866,3C1.054,2.733,0,2.555,0,1.4A1.644,1.644,0,0,1,1.218.063C1.948-.2,2.595.421,2.92.954" transform="translate(199 65)" fill="#fffffe"/>
      <path id="Fill_78" data-name="Fill 78" d="M2.551.66c.235.44.788,1.15.157,1.59a3.1,3.1,0,0,0-.792.706A1.5,1.5,0,0,1,.023,1.894C-.137.923.574.48,1.207.04c.551-.177.946.265,1.344.619" transform="translate(203 65)" fill="#fffffe"/>
      <path id="Fill_79" data-name="Fill 79" d="M3,1.085a1.859,1.859,0,0,1-2.313.828A2.711,2.711,0,0,1,0,1.085,1.216,1.216,0,0,1,.945,0C1.973.064,2.745.383,3,1.085" transform="translate(21 66)" fill="#fffffe"/>
      <path id="Fill_80" data-name="Fill 80" d="M3,1.371A2.652,2.652,0,0,1,1.694,2.993C.922,3.076.386,2.395,0,1.8,0,1.115.308.26.922.089A1.7,1.7,0,0,1,3,1.371" transform="translate(46 67)" fill="#fffffe"/>
      <path id="Fill_81" data-name="Fill 81" d="M2.662.445c.239.18.477.657.239.958a2.092,2.092,0,0,1-1.994.478C.425,1.581-.13,1.343.027.744a3.548,3.548,0,0,1,1.2-.717c.636-.118.956.18,1.434.418" transform="translate(42 68)" fill="#fffffe"/>
      <path id="Fill_82" data-name="Fill 82" d="M3,1.223a2.335,2.335,0,0,1-.994,1.655A1.373,1.373,0,0,1,.329,2.444c-.456-.175-.306-.871-.306-1.31A2.669,2.669,0,0,1,1.473,0,2.836,2.836,0,0,1,3,1.223" transform="translate(214 67)" fill="#fffffe"/>
      <path id="Fill_83" data-name="Fill 83" d="M3,.8A2.034,2.034,0,0,1,1.333,2C.809,1.933-.157,1.8.022,1.2A1.17,1.17,0,0,1,.809.131,1.741,1.741,0,0,1,3,.8" transform="translate(219 69)" fill="#fffffe"/>
      <path id="Fill_84" data-name="Fill 84" d="M2.96.962a1.558,1.558,0,0,1-.944,1.92C1.464,3.2.915,2.8.522,2.483A1.388,1.388,0,0,1,.127.882C.284.16.992.321,1.464,0a1.943,1.943,0,0,1,1.5.962" transform="translate(30 69)" fill="#fffffe"/>
      <path id="Fill_85" data-name="Fill 85" d="M2.951,1.158c.241.7-.482.967-.643,1.5A1.259,1.259,0,0,1,.861,2.83C.3,2.3-.345,1.511.217.72.861-.6,2.548.1,2.951,1.158" transform="translate(33 70)" fill="#fffffe"/>
      <path id="Fill_86" data-name="Fill 86" d="M2.993.525c.091.63-.7,1.072-1.225,1.45A1.617,1.617,0,0,1,.011,1.218C-.077.713.363.336.978.02A2.366,2.366,0,0,1,2.993.525" transform="translate(210 70)" fill="#fffffe"/>
      <path id="Fill_87" data-name="Fill 87" d="M3,.968c-.149.7-.074,1.488-.811,1.956A2.023,2.023,0,0,1,.417,2.613,1.493,1.493,0,0,1,.121.968,1.713,1.713,0,0,1,1.893.03c.519.313.664.7,1.107.938" transform="translate(216 71)" fill="#fffffe"/>
      <path id="Fill_88" data-name="Fill 88" d="M1.941.985c.236.507-.3.637-.478.892A1.15,1.15,0,0,1,.269,1.749C-.15,1.492.03.858.09.538.626-.546,1.7.219,1.941.985" transform="translate(28 72)" fill="#fffffe"/>
      <path id="Fill_89" data-name="Fill 89" d="M8.824,2.529c.293.079.148.554.072.71-1.763.949-4.41,1.186-5.956-.314A22.393,22.393,0,0,0,0,1.186C.367.158,1.691.237,2.647,0,4.777.316,6.47,2.45,8.824,2.529" transform="translate(205 72)" fill="#fffffe"/>
      <path id="Fill_90" data-name="Fill 90" d="M1.975.721c.121.488-.24.671-.361,1.035-.24.366-.72.244-1.022.122A1.091,1.091,0,0,1,.171.355a1.081,1.081,0,0,1,1.8.366" transform="translate(31 74)" fill="#fffffe"/>
      <path id="Fill_91" data-name="Fill 91" d="M2.9,1.033a1.551,1.551,0,0,1-.764,1.852c-.542.337-1-.167-1.46-.251C.294,2.043-.4,1.368.294.693.985-.568,2.366.1,2.9,1.033" transform="translate(37 74)" fill="#fffffe"/>
      <path id="Fill_92" data-name="Fill 92" d="M11,1.568c-.144,1.511-2.677-.216-2.318,1.8.363,1.439.655,3.166,1.521,4.245.722,1.007.361,2.591.292,3.814a6.879,6.879,0,0,1-2.9,2.445c-2.17-.216-5.355,1.079-6.369-1.583C.8,11.136,0,9.985,0,8.69c.219-.142.509-.142.726-.358,0-.5-.578-.792-.507-1.3C2.678,6.6-.795,4.445,1.306,4.3,3.041,6.1,5.862,5.526,7.383,7.467A6.614,6.614,0,0,0,8.467,8.4c-.29-1.8-1.158-3.6-1.448-5.539A2.487,2.487,0,0,1,7.89.345C9.193-.662,10.276.777,11,1.568" transform="translate(114 76)" fill="#fffffe"/>
      <path id="Fill_93" data-name="Fill 93" d="M1.957.627c.2.626-.329,1-.725,1.315-.591.249-.921-.376-1.185-.69C-.15.627.311.314.706,0A1.451,1.451,0,0,1,1.957.627" transform="translate(44 77)" fill="#fffffe"/>
      <path id="Fill_94" data-name="Fill 94" d="M2.509.42a9.87,9.87,0,0,1-.875,8.127c-.072.579.149,1.522-.653,1.449C-.981,7.312.473,3.538,1.274.709,1.419-.016,2.291-.3,2.509.42" transform="translate(89 78)" fill="#fffffe"/>
      <path id="Fill_95" data-name="Fill 95" d="M2.167,1.689A7.882,7.882,0,0,1,2.318,8.42l-.6.58A16.1,16.1,0,0,1,0,3.861,16.948,16.948,0,0,0,.9.024c1.048-.216.97,1.087,1.27,1.665" transform="translate(153 78)" fill="#fffffe"/>
      <path id="Fill_96" data-name="Fill 96" d="M9,.737C8.561,1.669,7.316,1.9,6.512,2.524A8.355,8.355,0,0,1,0,3.847C1.9,1.05,4.829-.583,8.34.193,8.487.5,8.854.35,9,.737" transform="translate(43 80)" fill="#fffffe"/>
      <path id="Fill_97" data-name="Fill 97" d="M.79,0c2.91,1.844,3.7,4.4,5.427,6.955.234.284,1.024.355.71.926C6.3,8.3,5.668,7.452,4.8,7.594A7.725,7.725,0,0,1,0,.284C0,0,.473,0,.79,0" transform="translate(21 83)" fill="#fffffe"/>
      <path id="Fill_98" data-name="Fill 98" d="M1.985.563c.061.6-.061,1.209-.544,1.39A1.108,1.108,0,0,1,.05,1.227C-.132.8.231.563.353.26a1.077,1.077,0,0,1,1.632.3" transform="translate(150 85)" fill="#fffffe"/>
      <path id="Fill_99" data-name="Fill 99" d="M40.163,68.1a36.872,36.872,0,0,1,.515-4.081,2.7,2.7,0,0,0,.3-1.559c1.771-2.376,5.38-1.633,8.18-1.41,1.105.593,2.5.518,3.684.817A2.686,2.686,0,0,1,54.68,61.5c2.356-1.261.81-4,.959-6.158l-.886-2.227a8.609,8.609,0,0,1-.589-1.484c-.44-.518-.736-1.484-1.178-2-1.252-3.266-3.686-5.121-5.748-7.718-3.76-4.9-9.655-7.644-15.55-9.574-5.821-2-11.717.594-16.951,2.448a4.232,4.232,0,0,1-2.872-3.117,14.742,14.742,0,0,1,1.4-7.865c.223-1.856,1.471-3.266,1.99-4.973,1.326-4.155,2.725-8.237,3.023-12.763C18.422,3.317,16.36,1.387,14.3.2a4.018,4.018,0,0,0-4.052.817c-.959,2-3.023,3.34-4.789,4.3-.149,1.261,1.4.446,1.914.892,1.622.3,3.467-.223,4.791.815.149,2.968-1.548,5.419-3.1,7.644-2.506,3.71-5.157,7.5-6.7,11.576l-.3-.3.357,18.141C4.771,48,7.7,52.457,12.087,53.93c2.356,1.928,5.3,4.228,8.474,2.524,1.694-.522,1.841,1.854,2.651,2.818.884,2.747-1.1,4.676-1.252,7.2l-1.917,4.081c-2.211,4.306-4.2,8.905-7.589,12.542-1.105,0-1.767,1.185-2.872,1.261-.591.815-1.771.223-2.506.52C4.789,85.842,1.548,85.247,0,87.4a1.008,1.008,0,0,0,.589.372c4.494.074,9.507.372,14.3.149a1.779,1.779,0,0,0,1.18-1.41c-.661-1.261.221-2.376.81-3.34.368-1.783,1.548-2.894,2.066-4.6,1.546-3.043,3.314-6.011,5.009-9.054l2.285-3.71a26.175,26.175,0,0,1,2.283-4.157,9.444,9.444,0,0,0,1.326-2c.076-.743-.294-1.038-.738-1.56.516-.518,1.326-.37,1.993-.518,1.841,1.113,3.757,2.894,4.124,4.9l.665,1.928.3.892-.15,2.448.3,2.3c.37,3.561-.3,7.2-.663,10.761-1.254,4.3-6.19,3.858-9.728,4.824-.884.593-2.577.3-2.577,1.78,4.271.892,9.284.372,13.852.3.736-.3.884-.966,1.252-1.633.149-.966,1.107-1.783.81-2.82-.81-1.038-.072-2.671-.294-4.081a2.277,2.277,0,0,0,0-1.412c.591-2.151.442-4.748.884-6.827Z" transform="translate(143 21)" fill="#fffffe"/>
      <path id="Fill_100" data-name="Fill 100" d="M10,.116C7.575,3.271,5,6.849.762,7.973c-.306,0-.609.139-.762-.212C2.576,5.234,3.943,1.308,7.955.4A2.661,2.661,0,0,1,10,.116" transform="translate(210 86)" fill="#fffffe"/>
      <path id="Fill_101" data-name="Fill 101" d="M2,1.048c-.312.246-.062.8-.626.865A1.012,1.012,0,0,1,.063,1.357,1.094,1.094,0,0,1,.874,0c.5.247,1,.432,1.126,1.048" transform="translate(16 89)" fill="#fffffe"/>
      <path id="Fill_102" data-name="Fill 102" d="M8.962,1.838c.21.612-.5.612-.849.749A7.906,7.906,0,0,1,0,.61C0,.339,0,.067.283,0,3.175.679,6.564.135,8.962,1.838" transform="translate(30 89)" fill="#fffffe"/>
      <path id="Fill_103" data-name="Fill 103" d="M2.814.488a1.293,1.293,0,0,1,.156.919,2.008,2.008,0,0,1-1.951.55A2.337,2.337,0,0,1,0,1.16C.081.55.7.182,1.329,0A2.706,2.706,0,0,1,2.814.488" transform="translate(19 90)" fill="#fffffe"/>
      <path id="Fill_104" data-name="Fill 104" d="M2.972.625c.176.631-.52,1.058-1.045,1.338A1.935,1.935,0,0,1,.1,1.4.944.944,0,0,1,.711.061c.784-.141,2-.071,2.261.564" transform="translate(89 90)" fill="#fffffe"/>
      <path id="Fill_105" data-name="Fill 105" d="M2.952.628c.239.618-.47.926-1.026,1.3a2.143,2.143,0,0,1-1.5-.186C.345,1.43-.127,1.183.033.75A1.836,1.836,0,0,1,1.847.009,9.508,9.508,0,0,1,2.952.628" transform="translate(220 90)" fill="#fffffe"/>
      <path id="Fill_106" data-name="Fill 106" d="M2.794.56c.451.721.076,1.289-.3,1.851a1.01,1.01,0,0,1-1.361.481C.678,2.411.072,2.167,0,1.444,0,.8.678.318,1.13.076,1.888-.246,2.189.56,2.794.56" transform="translate(225 90)" fill="#fffffe"/>
      <path id="Fill_107" data-name="Fill 107" d="M2.991,1.231c.079.573-.393.9-.55,1.4-.395.164-.788.493-1.26.329A2.362,2.362,0,0,1,0,1.64,2.107,2.107,0,0,1,1.417,0,2.041,2.041,0,0,1,2.991,1.231" transform="translate(12 91)" fill="#fffffe"/>
      <path id="Fill_108" data-name="Fill 108" d="M2.891.5c.173.244.089.548.089.793A1.954,1.954,0,0,1,.919,1.9C.407,1.531-.2,1.165.061.616A2.105,2.105,0,0,1,2.891.5" transform="translate(168 92)" fill="#fffffe"/>
      <path id="Fill_109" data-name="Fill 109" d="M2,1.707c-.128.6-.322,1.2-.9,1.286s-.774-.6-1.1-.944C0,1.278-.064.505.518.076,1.291-.265,2,.591,2,1.707" transform="translate(25 92)" fill="#fffffe"/>
      <path id="Fill_110" data-name="Fill 110" d="M2.944,1.185a1.652,1.652,0,0,1-.8,1.738A1.882,1.882,0,0,1,0,1.817,2.242,2.242,0,0,1,1.429,0c.718,0,1.116.792,1.515,1.185" transform="translate(17 93)" fill="#fffffe"/>
      <path id="Fill_111" data-name="Fill 111" d="M2.954.918A1.7,1.7,0,0,1,2.1,2.924c-.933.335-1.711-.5-2.1-1.171C.388,1.083.465.165,1.4,0A1.763,1.763,0,0,1,2.954.918" transform="translate(172 93)" fill="#fffffe"/>
      <path id="Fill_112" data-name="Fill 112" d="M1.95.842c.182.418-.181.6-.306.9-.3,0-.484.358-.848.237-.243-.3-.729-.417-.79-.835C-.054.543.371.246.8.005A1.119,1.119,0,0,1,1.95.842" transform="translate(21 93)" fill="#fffffe"/>
      <path id="Fill_113" data-name="Fill 113" d="M3,1.625A2.4,2.4,0,0,1,1.7,2.971c-.613.166-1-.425-1.456-.677C-.143,1.959.01,1.206.166.783A1.518,1.518,0,0,1,3,1.625" transform="translate(215 93)" fill="#fffffe"/>
      <path id="Fill_114" data-name="Fill 114" d="M3,.969C2.765,1.634,1.905,1.939,1.124,2,.418,1.757-.363,1.333.183.606.5.363.655.119,1.124.058A1.547,1.547,0,0,1,3,.969" transform="translate(221 94)" fill="#fffffe"/>
      <path id="Fill_115" data-name="Fill 115" d="M2.9.968C3.324,2.119,2.315,2.47,1.64,3a3.787,3.787,0,0,1-1.6-.707A2.047,2.047,0,0,1,1.219,0,2.017,2.017,0,0,1,2.9.968" transform="translate(186 94)" fill="#fffffe"/>
      <path id="Fill_116" data-name="Fill 116" d="M2.721.524c.431.134.257.605.17.81-.516.27-1.209.945-1.989.541C.3,1.6-.134,1.2.038.591A1.9,1.9,0,0,1,2.721.524" transform="translate(166 96)" fill="#fffffe"/>
      <path id="Fill_117" data-name="Fill 117" d="M1.985.693A.986.986,0,0,1,1.5,1.806C1.069,2.289.581,1.736.155,1.6A1.242,1.242,0,0,1,.092.554,1.352,1.352,0,0,1,.886,0c.428.139.916.139,1.1.693" transform="translate(171 96)" fill="#fffffe"/>
      <path id="Fill_118" data-name="Fill 118" d="M2.81.817c.476.489-.08,1.064-.161,1.556A1.535,1.535,0,0,1,.661,2.78C-.136,2.452-.056,1.386.1.735.581.571.581,0,1.217,0A2.748,2.748,0,0,1,2.81.817" transform="translate(45 96)" fill="#fffffe"/>
      <path id="Fill_119" data-name="Fill 119" d="M2.979.9c.158.649-.629.909-1.175,1.039C.861,2.2.39,1.611,0,1.089,0,.7.467.442.625.119A2.164,2.164,0,0,1,2.979.9" transform="translate(194 96)" fill="#fffffe"/>
      <path id="Fill_120" data-name="Fill 120" d="M2.935,1.07c.305.891-.541,1.34-.85,1.785A1.405,1.405,0,0,1,.387,2.5C0,2.23,0,1.693,0,1.157.463.713.7.176,1.239,0a1.965,1.965,0,0,1,1.7,1.07" transform="translate(190 96)" fill="#fffffe"/>
      <path id="Fill_121" data-name="Fill 121" d="M11.989,1.447c.148.941-1.207.469-1.733.737-3.168,1.68-7.239.4-10.255-.6C.228.71,1.359,1.046,1.963.71c3.24-1.812,6.557.4,9.8.538Z" transform="translate(214 97)" fill="#fffffe"/>
      <path id="Fill_122" data-name="Fill 122" d="M10,.407,9.709.918C7.008,2.528,3.5,3.627.294,2.6L0,2.165A13.25,13.25,0,0,1,9.783.185Z" transform="translate(14 97)" fill="#fffffe"/>
      <path id="Fill_123" data-name="Fill 123" d="M3,.707A1.412,1.412,0,0,1,2.181,1.93C1.362,2.122.3,1.93.052,1.223-.191.707.463.193,1.117,0,1.69,0,2.672.063,3,.707" transform="translate(202 97)" fill="#fffffe"/>
      <path id="Fill_124" data-name="Fill 124" d="M3,1.2c-.319.684-.159,1.374-.958,1.718S.29,2.486.053,1.8C-.188.854.449.6.849.168,1.8-.35,2.524.424,3,1.2" transform="translate(34 97)" fill="#fffffe"/>
      <path id="Fill_125" data-name="Fill 125" d="M2.935,1.313c.238.573-.242.9-.4,1.313a1.438,1.438,0,0,1-1.6.247A1.907,1.907,0,0,1,.056.9,4.523,4.523,0,0,1,1.336,0a1.816,1.816,0,0,1,1.6,1.313" transform="translate(29 97)" fill="#fffffe"/>
      <path id="Fill_126" data-name="Fill 126" d="M3,1.406A1.845,1.845,0,0,1,1.69,2.99,1.831,1.831,0,0,1,.134,2.11,1.44,1.44,0,0,1,.462.442C.625.176,1.2.176,1.527,0A1.811,1.811,0,0,1,3,1.406" transform="translate(207 99)" fill="#fffffe"/>
      <path id="Fill_127" data-name="Fill 127" d="M7.943.152c.229.607-.3.834-.383,1.293-.229,1.293-1.067,2.131-1.677,3.27C4.429,6.463,2.367,6.463.306,7L0,6.389A20.027,20.027,0,0,1,7.714,0Z" transform="translate(19 99)" fill="#fffffe"/>
      <path id="Fill_128" data-name="Fill 128" d="M2.978.826c.169.743-.671.867-1.254,1.174A2.074,2.074,0,0,1,.045,1.258C-.2.579.632.333,1.135.021A1.815,1.815,0,0,1,2.978.826" transform="translate(203 100)" fill="#fffffe"/>
      <path id="Fill_129" data-name="Fill 129" d="M2.764.559c-.079.119.08.239.236.3C2.923,1.522,2.3,1.7,1.832,2A2.41,2.41,0,0,1,.119,1.4C-.191.858.119.2.9.019c.7-.06,1.637,0,1.868.54" transform="translate(32 100)" fill="#fffffe"/>
      <path id="Fill_130" data-name="Fill 130" d="M5.413,3.118c.745-.082.9-1.037,1.719-1.2A1.794,1.794,0,0,1,8.927,2.8c.3.953-.377,1.433-.973,1.832-.524.4-1.646-.478-1.572.556A2.483,2.483,0,0,1,7.43,6.781c-.149.319-.673.239-.9.08-2.17-.955-4.487-2.548-5.384-4.938C.851,1.2-.568.648.252.01c2.17-.161,3.963,1.673,5.162,3.108" transform="translate(214 100)" fill="#fffffe"/>
      <path id="Fill_131" data-name="Fill 131" d="M2.785.453A.8.8,0,0,1,2.714,1.6c-.365.6-1.449.361-2.1.3C.25,1.6-.112,1.3.033.815A2.229,2.229,0,0,1,1.119.032,2.292,2.292,0,0,1,2.785.453" transform="translate(224 101)" fill="#fffffe"/>
      <path id="Fill_132" data-name="Fill 132" d="M6.4,3.956A10.316,10.316,0,0,1,8,6.844c-.147.215-.509.145-.652.145C4.876,5.616,1.679,4.1.732,1.214.514.924-.068.563.007.059,1.9-.3,3.713,1.069,5.021,2.081,5.53,2.8,6.109,3.165,6.4,3.956" transform="translate(193 101)" fill="#fffffe"/>
      <path id="Fill_133" data-name="Fill 133" d="M2.908.742c.341.549-.345.982-.769,1.226A2.448,2.448,0,0,1,.171,1.477C-.428.8.684.251,1.369.005c.681-.063,1.11.43,1.539.737" transform="translate(28 101)" fill="#fffffe"/>
      <path id="Fill_134" data-name="Fill 134" d="M2.993.935c.08.412-.565.686-.811.962-.649.069-1.3.275-1.87-.206C.15,1.347-.255.8.232.457c.893-.964,2.2-.208,2.761.478" transform="translate(206 103)" fill="#fffffe"/>
      <path id="Fill_135" data-name="Fill 135" d="M2.957.923A1.939,1.939,0,0,1,1.931,2.942C1.2,3.184.62,2.618.179,2.216c-.365-.487-.072-.97,0-1.534a1.714,1.714,0,0,1,1.9-.564,4.006,4.006,0,0,1,.877.8" transform="translate(224 104)" fill="#fffffe"/>
      <path id="Fill_136" data-name="Fill 136" d="M10,.459c0,.914-1.618.685-2.28,1.372C5.439,3.048,2.72,3.048,0,2.973V2.515A10.685,10.685,0,0,1,10,.459" transform="translate(166 115)" fill="#fffffe"/>
      <path id="Fill_137" data-name="Fill 137" d="M2,.937A1.188,1.188,0,0,1,1.088,2,1.169,1.169,0,0,1,.056,1.375C-.189.625.42.314.844,0A1.428,1.428,0,0,1,2,.937" transform="translate(66 117)" fill="#fffffe"/>
      <path id="Fill_138" data-name="Fill 138" d="M3,1.094A2.334,2.334,0,0,1,1.875,2.964C1.2,3.124.749,2.72.223,2.4-.151,2.07.076,1.5,0,1.094a1.574,1.574,0,0,1,3,0" transform="translate(172 118)" fill="#fffffe"/>
      <path id="Fill_139" data-name="Fill 139" d="M11,.539C9.1,1.665,6.981,3,4.476,3L.382,2.928,0,2.648C2.5-.162,7.054-.162,11,.118Z" transform="translate(179 119)" fill="#fffffe"/>
      <path id="Fill_140" data-name="Fill 140" d="M3,1.308A1.587,1.587,0,0,1,1.9,2.954,1.525,1.525,0,0,1,.132,2.174,1.58,1.58,0,0,1,.806.183C1.735-.424,2.664.617,3,1.308" transform="translate(46 120)" fill="#fffffe"/>
      <path id="Fill_141" data-name="Fill 141" d="M1.94.9c.192.344-.126.551-.255.9C1.3,2,.792,2.135.471,1.79A.894.894,0,0,1,.088.621C.28.208.663.277.855,0A1.838,1.838,0,0,1,1.94.9" transform="translate(50 121)" fill="#fffffe"/>
      <path id="Fill_142" data-name="Fill 142" d="M8,6.686c-.755.834-1.961-.209-2.793-.627C2.566,4.67,2.643,1.956,0,.357.3-.475.98.428,1.509.287A10.476,10.476,0,0,0,3.1,1.053C5.66,2.374,6.265,4.6,8,6.686" transform="translate(16 123)" fill="#fffffe"/>
      <path id="Fill_143" data-name="Fill 143" d="M183.468,84h0c-.447-.354-.115-.781.206-1.195a2.518,2.518,0,0,0,.385-.6,29.31,29.31,0,0,0,2.725-12.769c-.783-6.414-5.2-11.975-10.753-13.522a35.4,35.4,0,0,0-4.135-1.361c-.411-.117-.832-.236-1.242-.357l-.221.3a12.381,12.381,0,0,0,2.515,3.03c1.337,1.289,2.6,2.506,2.863,4.738a3.045,3.045,0,0,1,0,2.763l-.221.15a19.7,19.7,0,0,1-4.2-8.066c-1.337-3.7-4.642-4.61-7.838-5.492a22.664,22.664,0,0,1-4.02-1.381c-.983-.2-1.955-.448-2.895-.689a26.672,26.672,0,0,0-6.731-1.108q-.157,0-.316,0l-.293.3.227.24c1.635,1.727,3.046,3.219,3.75,5.289a18.835,18.835,0,0,1,1.4,6.157c.288,2.513.585,5.111,1.987,7.06a13.714,13.714,0,0,0,.968,1.093,5.462,5.462,0,0,1,1.831,3.092,3.887,3.887,0,0,0,.166.48,1.485,1.485,0,0,1,.053,1.462c-1.346-.171-2.5-1.271-3.533-3.362-.043-.2-.083-.393-.122-.584a6.148,6.148,0,0,0-1.278-3.152c-.072.418-.129.868-.185,1.3a13,13,0,0,1-.478,2.506c-.509-.154-.455-.735-.4-1.351a4.56,4.56,0,0,0,.028-.812.583.583,0,0,1-.039-.2c-.009-.107-.018-.207-.106-.252a7.985,7.985,0,0,0-1.023,1.173,5.415,5.415,0,0,1-2.146,1.962,5.9,5.9,0,0,1-2.135.6,1.7,1.7,0,0,1-.881-.221,7.159,7.159,0,0,1,1.986-2.391c1.871-.832,4.2-1.868,4.786-4.108a20.257,20.257,0,0,0-2.87-12.25,18.4,18.4,0,0,0-4.493-3.883h-.035a1.808,1.808,0,0,0-.85.149,11.134,11.134,0,0,1,2.264,3.366c.17.336.345.684.538,1.043.139.548.306,1.1.483,1.678.662,2.172,1.346,4.414.473,6.536a4.785,4.785,0,0,0-.262.74c-.181.614-.367,1.247-.989,1.35-1.094-1.8-.788-3.87-.493-5.869.337-2.285.686-4.647-1.128-6.528a7.37,7.37,0,0,0-3.9-2.464,24.641,24.641,0,0,0-10.53,3.733,3.86,3.86,0,0,0-.135,2.624c.049.263.1.535.134.813.122.22.24.44.354.653a12.623,12.623,0,0,0,1.708,2.634,7.918,7.918,0,0,0,4.341,1.287,5.909,5.909,0,0,0,2.731-.614,4.473,4.473,0,0,0,2.428-3.511,3.909,3.909,0,0,0-1.031-2.913,3.107,3.107,0,0,0-1.632-.635,1.48,1.48,0,0,0-.723.185l-.265.177c-.818.543-1.59,1.056-1.724,2.067a.852.852,0,0,1-.843.378l-.15,0-.111,0c-.459-.265-.451-.825-.444-1.367,0-.068,0-.136,0-.2.968-1.436,2.128-2.765,4.051-2.765a5.072,5.072,0,0,1,4.049,1.942,3.572,3.572,0,0,1,.71,3.164,11.541,11.541,0,0,1-1.225,3.11,7.545,7.545,0,0,1-6.126,2.773,11.021,11.021,0,0,1-1.826-.157,9.866,9.866,0,0,1-6.407-5.678,2.13,2.13,0,0,1-.158-.657c-.07-.48-.149-1.024-.57-1.024a1.09,1.09,0,0,0-.524.185c-4.175,3.718-6.727,7.84-7.584,12.252a2.5,2.5,0,0,0-.222,1.791l-2.576-.224a6.688,6.688,0,0,0,.022-2.345,13.783,13.783,0,0,1-.1-1.389,19.239,19.239,0,0,0-7.584-9.86c-.134.309-.248.608-.358.9a6.722,6.722,0,0,1-1.263,2.315,8.347,8.347,0,0,1-6.817,3.41,9.5,9.5,0,0,1-2.243-.272,6.38,6.38,0,0,1-4.563-4.779,5.288,5.288,0,0,1,1.693-5.227,3.906,3.906,0,0,1,2.778-.928,8.064,8.064,0,0,1,1.271.105,2.215,2.215,0,0,1,1.4.964,3.036,3.036,0,0,0,.807.752.949.949,0,0,1-.293,1.2,1.376,1.376,0,0,1-.592.139,2.414,2.414,0,0,1-1.26-.511c-.164-.105-.334-.214-.5-.3a2.465,2.465,0,0,0-.791-.134,3.4,3.4,0,0,0-2.45,1.329,5.14,5.14,0,0,0,1.175,4.557,5.267,5.267,0,0,0,3.249,1.018,6.806,6.806,0,0,0,3.455-.941,6.355,6.355,0,0,0,2.726-5.007c-.114-.8-.882-1.255-1.559-1.654-.209-.123-.407-.24-.579-.362-.573-.254-1.156-.527-1.72-.791-2.67-1.249-5.431-2.54-8.444-2.54-.319,0-.64.015-.954.043-1.674.663-3.237,1.414-3.977,3.287-.967,1.654-.568,3.245-.145,4.93a14.778,14.778,0,0,1,.441,2.24A16.107,16.107,0,0,0,91,60.315a8.254,8.254,0,0,1-1.126,3,2.718,2.718,0,0,1-.949-1.982,4.97,4.97,0,0,0-.3-1.159c-1.246-2.207-.475-4.8.663-6.5a15.3,15.3,0,0,0,.984-2.044A8.155,8.155,0,0,1,92.665,48a.348.348,0,0,1-.072-.224h-.22a10.219,10.219,0,0,0-4.64,2.539c-.161.2-.341.4-.532.621a7.554,7.554,0,0,0-1.531,2.218,12.727,12.727,0,0,0-1.447,4.488l-.027.141c-.142,2.945-.156,6.029,1.326,8.516,2.9.155,6.073.649,7.661,3.137l-.518.521a9.71,9.71,0,0,1-3.033-.62c-.469-.15-.954-.3-1.456-.426a2.627,2.627,0,0,1-.926-.642,1.808,1.808,0,0,0-1.147-.65,1.163,1.163,0,0,0-.58.172,2.249,2.249,0,0,0,.347.878c.25.442.487.86.172,1.365a2.039,2.039,0,0,1-1.4-1.5,8.071,8.071,0,0,1-2.5,4.932l-1.452-.163a6.087,6.087,0,0,0,.46-1.164,4.773,4.773,0,0,1,.549-1.289,11.017,11.017,0,0,1,1.014-1.479c.894-1.163,1.738-2.261,1.269-3.9-1.049-4.1-1.069-9.686,1.251-12.923a10.713,10.713,0,0,1,2.942-3.871c.453-.445.922-.9,1.329-1.358a.251.251,0,0,0-.29-.234c-.043,0-.09,0-.135.007s-.1.008-.145.008a.314.314,0,0,1-.24-.078c-5.6.06-10.438,2.12-15.118,4.112-1.17.5-2.38,1.013-3.585,1.49-2.325,1.692-2.152,4.227-1.985,6.679A15.547,15.547,0,0,1,68,62.638c-.6,1.157-1.428,2.74-2.722,3.438a1.225,1.225,0,0,1-.041-.891,2.258,2.258,0,0,0,.041-.9c-.233-3.142.886-5.792,1.968-8.354.281-.666.57-1.351.829-2.03l-.219-.3c-.763.393-1.561.765-2.406,1.159C61.28,56.7,56.559,58.9,55.7,64.209c-1.721,4.85-1.944,8.97-.661,12.247a.732.732,0,0,0-.112.075.3.3,0,0,1-.333.075c-1.651-3.053-1.651-7.425,0-13a15.466,15.466,0,0,0,1.548-3.587,1.127,1.127,0,0,0-.446-.09,2.748,2.748,0,0,0-1.1.331,3.365,3.365,0,0,1-1.111.357A13.731,13.731,0,0,1,50.4,61.667a15.711,15.711,0,0,1-2.432.86,15.716,15.716,0,0,0-2.429.858,2.71,2.71,0,0,0,.342.165c.323.138.656.28.762.659.239.792-.132,1.4-1.1,1.793-.863-.22-1.357-.6-1.471-1.122a.793.793,0,0,1,.283-.98,1.4,1.4,0,0,0,.378-.514.6.6,0,0,0-.448-.2,1.61,1.61,0,0,0-.56.146,2.056,2.056,0,0,1-.391.125c-1.35.038-2.745.207-4.094.37-1.385.168-2.816.341-4.23.379a2.4,2.4,0,0,1-.918.152c-.239,0-.482-.02-.718-.039s-.478-.038-.713-.038a2.061,2.061,0,0,0-1.186.3A1.734,1.734,0,0,1,31.4,66.45a1.282,1.282,0,0,0-.509.37,1.239,1.239,0,0,1-.347.051,2.131,2.131,0,0,1-1.365-.755c-.068-.062-.137-.125-.207-.187a1.119,1.119,0,0,1,.168-1.068c.116-.207.215-.385.149-.538s-.254-.247-.611-.337a23.17,23.17,0,0,0-3.379-.323,6.385,6.385,0,0,0-4.132,1.217,10.777,10.777,0,0,0-2.012,1.7c-1.088,1.077-2.213,2.19-3.735,2.331a6.615,6.615,0,0,1-2.282.375,6.631,6.631,0,0,0-2.284.375.262.262,0,0,1-.2-.074.8.8,0,0,1-.1-.544c0-.047,0-.091,0-.132a15.055,15.055,0,0,0,4.2-3.434l.2-.08a7.314,7.314,0,0,1,2.705-.675c.086,0,.172,0,.256.008a7.407,7.407,0,0,1,1.953-.565c.3-.057.576-.111.846-.179a4.4,4.4,0,0,0,1.989-.6,4.082,4.082,0,0,1-1.768-1.045c.111,0,.229-.006.348-.006a21.408,21.408,0,0,1,3.292.342,24.415,24.415,0,0,0,2.916.337c1.779.071,3.388.105,4.92.105,6.978,0,12.387-.722,17.025-2.272l.515-.3c-.249-.057-.5-.111-.747-.164a15.834,15.834,0,0,1-3.083-.882,13.009,13.009,0,0,1-4.788-2.093,2.2,2.2,0,0,0-2.023-.767,2.342,2.342,0,0,1-1.953-.652,14.8,14.8,0,0,1-2.115-1.939,12.374,12.374,0,0,0-2.376-2.094c-.055-.281.1-.35.269-.431a1.241,1.241,0,0,0,.173-.091c.143-.007.287-.01.428-.01a7.267,7.267,0,0,1,7.007,4.34A12.787,12.787,0,0,0,50,59.444a15.153,15.153,0,0,0,1.654-.091c.129.008.261.011.39.011,2.307,0,4.316-1.221,6.258-2.4A22.943,22.943,0,0,1,61.81,55.1a5.067,5.067,0,0,1,.589-.352,3.062,3.062,0,0,0,.96-.7,5.394,5.394,0,0,0-3.016-.638A6.622,6.622,0,0,1,57.689,53c-1.4-.667-2.6-1.313-3.17-2.464a.644.644,0,0,1,.378-.106,2.419,2.419,0,0,1,.454.062l.032.006a2.771,2.771,0,0,0,.542.068,1.337,1.337,0,0,0,.291-.03c.2.015.423.023.68.023.309,0,.636-.011.951-.021h.013c.306-.01.651-.022.982-.022a4.167,4.167,0,0,1,3.264,1.066,6.576,6.576,0,0,1,.87.754,3.538,3.538,0,0,0,1.708,1.114,43.789,43.789,0,0,0,7.655-3.331c.845-.434,1.716-.881,2.581-1.3a.778.778,0,0,0-.534-.221,1.754,1.754,0,0,0-.6.151l-.015.006a1.885,1.885,0,0,1-.653.157.944.944,0,0,1-.184-.018,10.181,10.181,0,0,1-3.877-1.582,9.168,9.168,0,0,0-4.625-1.65c-.159,0-.321.007-.482.02-.108-.055-.1-.191-.083-.349,0-.057.01-.115.01-.174a17.879,17.879,0,0,1,4.5-.6,9.282,9.282,0,0,1,6.172,1.948,4.436,4.436,0,0,0,2.921,1.266,3.283,3.283,0,0,0,.688-.073c.572-.161,1.155-.343,1.718-.518a20.118,20.118,0,0,1,5.988-1.212c.181,0,.363,0,.541.014a36.218,36.218,0,0,1,4.316-.26,33.56,33.56,0,0,1,8.793,1.143,27.264,27.264,0,0,1,7.808,3.448c.056,0,.113,0,.167.01s.1.008.142.008c.111,0,.172-.028.207-.093-.682-3-3.529-4.9-5.965-5.676a44.142,44.142,0,0,0-8.73-.716c-1.7,0-3.406.049-5.057.1l-.072,0c-1.624.047-3.3.1-4.918.1-1.17,0-2.206-.025-3.168-.076l-71.655-.3A10.813,10.813,0,0,1,3.5,41.744,8.654,8.654,0,0,1,.32,37.692a9.616,9.616,0,0,1-.267-3.361A4.362,4.362,0,0,1,1.5,31.417a5.9,5.9,0,0,1,4.4-1.741c.2,0,.407.008.61.025a4.961,4.961,0,0,1,3.46,3.061c.441.319.341.919.261,1.4-.014.086-.028.166-.038.242a3.465,3.465,0,0,1-1.916,2.389.556.556,0,0,1-.223.05c-.382,0-.6-.471-.663-.721a7.8,7.8,0,0,1,.446-.807,3.852,3.852,0,0,0,.735-1.881,3.9,3.9,0,0,0-2.507-2.092,4.546,4.546,0,0,0-3.754,2.017,5.024,5.024,0,0,0,0,4.106C3.2,40.7,6.923,41.729,9.895,42.024c3.389.059,6.866.087,10.629.087,7.4,0,14.765-.113,21.89-.223s14.5-.222,21.947-.222c3.116,0,6.016.019,8.866.058l26.806.15c.4.114.814.208,1.253.307,1.565.355,3.183.723,4.049,2.008a9.282,9.282,0,0,1,3.737,3.361,12.294,12.294,0,0,1,1.861,4.929c.668.706,1.4,1.343,2.1,1.958a18.044,18.044,0,0,1,3.5,3.718,1.847,1.847,0,0,0-.065-1.678,3.7,3.7,0,0,1-.233-.859c-5.1-11.71-12.21-20.179-21.133-25.172-.516-.3-1.037-.614-1.541-.916a36.9,36.9,0,0,0-5.823-3.044c-.057-.035-5.753-3.515-7.888-4.057l.678-1.9a140.518,140.518,0,0,1,24.516,14.919V35.3a8.425,8.425,0,0,1,.319-4.43,10.641,10.641,0,0,0,.491-3.264l1.106.9a1.234,1.234,0,0,0,.287.783,2.655,2.655,0,0,1,.226.412,5.632,5.632,0,0,1,.323,2.977,4.708,4.708,0,0,1-1.282,2.7,1.449,1.449,0,0,0,.182,1.356,2.991,2.991,0,0,1,.264.659,53.755,53.755,0,0,1,9.427,13.667,2.093,2.093,0,0,1,.656,1.078,2.121,2.121,0,0,0,.744,1.163,2.217,2.217,0,0,1,.348-.268c.333-.224.677-.455.461-1-.354-.581-.721-1.118-1.077-1.637a13.967,13.967,0,0,1-2.09-3.888,6.087,6.087,0,0,1-1.25-2.575,9.509,9.509,0,0,0-.666-1.758,7.7,7.7,0,0,1-.671-4.537,9.027,9.027,0,0,1,1.7-4.2l.735.445a13.451,13.451,0,0,0,.41,1.9,7.125,7.125,0,0,1,.255,4.076,8.121,8.121,0,0,0-.638,3.7,4.921,4.921,0,0,0,1.3,3.249c.276.4.531.846.777,1.277a6.2,6.2,0,0,0,2.685,2.981,7.159,7.159,0,0,0,2.108-2.371c.257-.4.523-.806.837-1.216v-.3c1.853-2.07,1.48-4.778,1.119-7.4-.342-2.487-.7-5.059.845-7.1l1.39-.667c-.941.585-.537,1.3-.068,2.131a2.719,2.719,0,0,1,.545,2.047,2.526,2.526,0,0,1,.067,1.891,4.523,4.523,0,0,0-.143,1.471,1.331,1.331,0,0,0-.33.919,1.145,1.145,0,0,1-.331.874,24.852,24.852,0,0,1-5.23,10.9c.368.825.8,1.644,1.695,1.793.48-1.005.954-2.041,1.412-3.043,1.8-3.934,3.655-8,6.468-11.446.735-.853.382-1.9.041-2.911a7.971,7.971,0,0,1-.337-1.2c-.665-1.725-.056-4.752.589-6.349l1.08-.7c-.16.4.281,1.436.493,1.934l.048.113a4.436,4.436,0,0,1,.733,2.531c.021.25.044.508.076.754a8.451,8.451,0,0,1-.737,3.139c7.717-7.751,18.015-11.769,27.1-15.314a5.3,5.3,0,0,0,2-.513,7.43,7.43,0,0,1,1.383-.455,2.789,2.789,0,0,0,1.841-1.718l4.272-.671a41.168,41.168,0,0,0,7.618-2.765l.007,0c.446-.2.906-.4,1.359-.593.2-.092,19.874-9.188,20.324-9.188a12.5,12.5,0,0,0,3.39-2.913,2.5,2.5,0,0,0-.2-.834c-.2-.534-.38-1.039.2-1.482a1.144,1.144,0,0,1,.9-.421,1.447,1.447,0,0,1,.568.122,1.417,1.417,0,0,1,.814,1.421,48.718,48.718,0,0,1-5.6,6.123l-19.735,9.112a22.9,22.9,0,0,0-3.793,1.457,22.9,22.9,0,0,1-3.794,1.458c-.049.148.034.232.115.313a.53.53,0,0,1,.106.132h7.514l4.123.376a16.657,16.657,0,0,0,4.344,1.019c.388.055.79.113,1.177.176,3.031.784,6.147,1.526,9.16,2.244l2.182.52A8.023,8.023,0,0,0,203.545,22a7.764,7.764,0,0,1,3.784-2.461c.031,0,.063,0,.1,0a3.177,3.177,0,0,0,.963-.22l.009,0a3.137,3.137,0,0,1,.933-.217.824.824,0,0,1,.652.286c.039.334-.193.432-.438.537-.188.08-.382.162-.445.359-1.438,1.64-3.667,3.856-6.409,4.182a.718.718,0,0,1-.442.224.729.729,0,0,0-.515.3,5.166,5.166,0,0,0,2.288,1.181,8.34,8.34,0,0,1,1.687.687c.291.125.593.25.885.371a15.762,15.762,0,0,1,4.713,2.614l-.041,0h-.117a6.438,6.438,0,0,1-2.7-.825,11.794,11.794,0,0,0-1.411-.6,69.271,69.271,0,0,0-15.688-4.483.92.92,0,0,0,.068.738c.144.392.292.8-.289,1.206a2.56,2.56,0,0,0-.3.154,1.444,1.444,0,0,1-.71.252.851.851,0,0,1-.24-.035,1.777,1.777,0,0,1-.98-.908.986.986,0,0,1,.1-.809l.732-.823a9.126,9.126,0,0,0-3.683-.881,5.6,5.6,0,0,0-1.25.135,2.369,2.369,0,0,0,.613.611c.523.416,1.063.847.566,1.553a2.921,2.921,0,0,1-1.732-.909,3.012,3.012,0,0,0-1.583-.884l-3.533-.894-.52-.448c-.124,0-.253,0-.382,0-1.17,0-2.382-.1-3.554-.189s-2.386-.189-3.543-.189a11.639,11.639,0,0,0-3.785.522.47.47,0,0,1-.115.015.571.571,0,0,1-.356-.157.84.84,0,0,0-.119-.083l-3.905,1.048a1.412,1.412,0,0,0-.8-.237A3.643,3.643,0,0,0,160.9,23a3.879,3.879,0,0,1-1.224.274c-.8.306-1.6.589-2.384.864a36.83,36.83,0,0,0-5.642,2.346,43.471,43.471,0,0,0-9.132,4.93c-.06.186.03.269.144.375.025.023.051.047.077.073.172.012.352.019.534.019a15.06,15.06,0,0,0,2.967-.39l.04-.008a14.462,14.462,0,0,1,2.846-.382,5.518,5.518,0,0,1,2.452.538,9.346,9.346,0,0,0,1.918,1.113,7.668,7.668,0,0,1,1.985,1.2.7.7,0,0,1-.221.524,24.267,24.267,0,0,1-2.428.125,18.222,18.222,0,0,1-7.809-1.62c-.37,0-.756-.008-1.129-.016s-.78-.016-1.171-.016c-2.1,0-4.234.248-5.579,2.049-4.038,2.984-6.662,7.277-9.2,11.428q-.3.485-.594.97a11.57,11.57,0,0,0-.738,2.217,8.331,8.331,0,0,1-1.176,2.937,19.88,19.88,0,0,1-.772,2.57,19.82,19.82,0,0,0-.776,2.587l.221.22a53.205,53.205,0,0,1,5.746-5.9c1.077-4.077,2.911-6.766,5.449-7.991,3.754-2.32,8.125-2.639,12.288-2.639,1.2,0,2.427.03,3.615.059h.031c1.183.029,2.4.059,3.592.059,1.6,0,2.905-.053,4.112-.167.108,0,10.909.047,23.934.047,20.466,0,45.626-.112,49.268-.644a6.6,6.6,0,0,0,4.564-3.735,6.024,6.024,0,0,0,0-3.96,4.688,4.688,0,0,0-1.976-2.01l-.234-.157c-.211,0-.442-.021-.686-.044-.263-.024-.534-.049-.8-.049a1.826,1.826,0,0,0-1.384.467,2.492,2.492,0,0,0-.809,2.614,1.187,1.187,0,0,0,.469.66.815.815,0,0,1,.34,1.06,1,1,0,0,1-.9.492,1.431,1.431,0,0,1-.567-.12,3.764,3.764,0,0,1-1.4-4.108,5.038,5.038,0,0,1,4.123-3.062,5.814,5.814,0,0,1,5.523,3.062,7.579,7.579,0,0,1-.516,6.873C236.306,41.484,233.3,43,229.422,43c-22.811.352-44.479.562-67.419.784h-.011c-6.152.06-12.513.121-18.881.186-3.021.111-8.35.988-10.089,5.6.1.2.21.3.344.3a.958.958,0,0,0,.472-.232l.012-.008.062-.043a1.262,1.262,0,0,1,.7-.284.779.779,0,0,1,.251.042c3.647-2.3,8.261-2.78,11.49-2.78a36,36,0,0,1,8.614,1.064c.907.257,1.829.5,2.72.735.921.243,1.871.493,2.8.759l.564.162c.839.242,1.7.491,2.6.735,1.444.517,2.931,1.005,4.369,1.477A69.252,69.252,0,0,1,178.6,55.619c1.67.662,3.367,1.483,5.008,2.277l.075.036a3.85,3.85,0,0,1,1.144.486,3.847,3.847,0,0,0,1.141.486c1.431.677,2.831,1.31,4.313,1.979l.005,0,.016.007c.773.349,1.572.71,2.37,1.076.053,0,.109,0,.168.009s.124.009.185.009a.4.4,0,0,0,.306-.094,1.835,1.835,0,0,1-1.1-1.419,2.077,2.077,0,0,1,1.1-1.27,2,2,0,0,1,1.695.821,1.922,1.922,0,0,1-1.177,1.868c-.043,0-.088,0-.136-.006s-.1-.006-.144-.006c-.128,0-.265.019-.311.161A55.361,55.361,0,0,0,207.77,65.7a1.979,1.979,0,0,0,1.24.314c.14,0,.284,0,.424-.009s.288-.009.428-.009a1.68,1.68,0,0,1,1.443.527l.076-.073V66.6a5.665,5.665,0,0,1-1.318.148,12.708,12.708,0,0,1-2.123-.237l-.013,0a12.882,12.882,0,0,0-2.158-.238,6.33,6.33,0,0,0-.649.032c-.943-.234-1.917-.442-2.859-.643a40.386,40.386,0,0,1-6.2-1.671,4.816,4.816,0,0,1-2.578-.824,43.482,43.482,0,0,1-5.671-2.073c-1.31-.55-2.664-1.118-4.05-1.586l-.147.224a11.539,11.539,0,0,1,2.194,3.14l0,.007c.155.285.3.553.45.811a3.623,3.623,0,0,1,.886-1.643,3.8,3.8,0,0,1,.752-.08,1.562,1.562,0,0,1,1.386.6c.276.283.176.65.08,1a3.425,3.425,0,0,0-.08.34,1.427,1.427,0,0,1-.856.575,2.491,2.491,0,0,0-.546.248c-.071-.024-.144-.047-.213-.068a1.921,1.921,0,0,1-1.039-.6c-.308.583-.036,1.079.253,1.6a2.76,2.76,0,0,1,.412,1.085,19.623,19.623,0,0,1,.165,7.927,21.415,21.415,0,0,1-2.6,7.086,5.232,5.232,0,0,0-.386.762A3.339,3.339,0,0,1,183.468,84ZM119.619,53.677a4.052,4.052,0,0,1-.559.652c-.523.53-1.017,1.031-.543,1.887a6.532,6.532,0,0,1,.491,1.4,5.326,5.326,0,0,0,.612,1.587,2.248,2.248,0,0,0,.29,1.57,2.231,2.231,0,0,1,.3,1.42l.3-.151a3.543,3.543,0,0,1,.467-1.785,8.026,8.026,0,0,0,.343-.829,3.829,3.829,0,0,1,.278-1.444,2.939,2.939,0,0,0,.164-1.992c-.215-.261-.4-.529-.576-.788a3.762,3.762,0,0,0-1.561-1.527h0Z" transform="translate(0 69)" fill="#fffffe"/>
      <path id="Fill_144" data-name="Fill 144" d="M10.677.241c0,.207.439.274.293.624C8.412,3.018,4.83,3.64,1.173,3.779a2.115,2.115,0,0,1-.949.207C0,3.849-.072,3.64.078,3.5a11.572,11.572,0,0,1,10.6-3.26" transform="translate(191 123)" fill="#fffffe"/>
      <path id="Fill_145" data-name="Fill 145" d="M2.928.893C3.227,1.986,2.551,2.611,1.716,3A2.158,2.158,0,0,1,.055,1.749C-.17,1.127.358.815.586.426A1.414,1.414,0,0,1,2.928.893" transform="translate(187 124)" fill="#fffffe"/>
      <path id="Fill_146" data-name="Fill 146" d="M2.924.7a1.877,1.877,0,0,1-.405,1.834,1.579,1.579,0,0,1-1.464.435C.487,2.882.162,2.185,0,1.66A1.886,1.886,0,0,1,1.055,0c.651,0,1.38-.087,1.87.7" transform="translate(47 124)" fill="#fffffe"/>
      <path id="Fill_147" data-name="Fill 147" d="M9,5.308v.553A5.587,5.587,0,0,1,4.152,4.675,10.243,10.243,0,0,0,.2.716C.2.474-.25.159.2,0,3.929,0,6.168,3.168,9,5.308" transform="translate(27 124)" fill="#fffffe"/>
      <path id="Fill_148" data-name="Fill 148" d="M8,.09C6.212,2.524,4.661,5.532,1.477,6.607c-.544,0-1.009.715-1.477.215A13.634,13.634,0,0,1,6.915.018,2.783,2.783,0,0,1,8,.09" transform="translate(205 125)" fill="#fffffe"/>
      <path id="Fill_149" data-name="Fill 149" d="M1.995.747c.063.722-.435.854-.873,1.246-.5.066-.746-.328-1.06-.722C-.187.614.376.354.685.026a1.283,1.283,0,0,1,1.31.721" transform="translate(52 125)" fill="#fffffe"/>
      <path id="Fill_150" data-name="Fill 150" d="M6,.452c-.642.981-.356,2.417-1,3.475C3.578,5.661,2.365,7.622.084,8c-.354-.752.5-1.508.855-2.19,1-2.262,2.426-4.829,4.7-5.81Z" transform="translate(216 125)" fill="#fffffe"/>
      <path id="Fill_151" data-name="Fill 151" d="M2.713.615a1.78,1.78,0,0,1,0,1.917,1.894,1.894,0,0,1-1.907.346A1.658,1.658,0,0,1,.143.789C.643.007,2.13-.426,2.713.615" transform="translate(11 126)" fill="#fffffe"/>
      <path id="Fill_152" data-name="Fill 152" d="M2.745.789c.081.419.32.755.239,1.174a1.9,1.9,0,0,1-1.122,1A1.669,1.669,0,0,1,.015,1.879,1.654,1.654,0,0,1,.815.12a1.605,1.605,0,0,1,1.93.669" transform="translate(7 127)" fill="#fffffe"/>
      <path id="Fill_153" data-name="Fill 153" d="M2.883.731c.155.7.306,1.933-.6,2.107C1.214,3.368.607,2.488,0,1.784A2.059,2.059,0,0,1,.911.027a1.933,1.933,0,0,1,1.972.7" transform="translate(15 127)" fill="#fffffe"/>
      <path id="Fill_154" data-name="Fill 154" d="M3,.528c-.087.462.085,1.125-.6,1.256a2.337,2.337,0,0,1-1.637.132c-.174-.4-1.124-.728-.6-1.19A3.262,3.262,0,0,1,1.361,0C1.878.2,2.656,0,3,.528" transform="translate(27 128)" fill="#fffffe"/>
      <path id="Fill_155" data-name="Fill 155" d="M3,.967C2.769,1.417,2.462,2,1.845,2A2.135,2.135,0,0,1,.076,1.288C-.233.581.459.192,1.076,0,1.845,0,2.847.257,3,.967" transform="translate(226 128)" fill="#fffffe"/>
      <path id="Fill_156" data-name="Fill 156" d="M2.995,1.383c.07.691-.556,1.2-.835,1.463C1.186,3.36.351,2.5,0,1.555A2.084,2.084,0,0,1,1.186.008c.9-.086,1.391.516,1.809,1.375" transform="translate(213 128)" fill="#fffffe"/>
      <path id="Fill_157" data-name="Fill 157" d="M3,.736a1.366,1.366,0,0,1-.722,1.153,2.151,2.151,0,0,1-1.934-.27C-.377,1.074.184.6.669.193,1.393-.147,2.757-.079,3,.736" transform="translate(222 129)" fill="#fffffe"/>
      <path id="Fill_158" data-name="Fill 158" d="M2.956.9A1.754,1.754,0,0,1,1.918,3a1.985,1.985,0,0,1-1.9-1.175A1.551,1.551,0,0,1,.881.068,2.008,2.008,0,0,1,2.956.9" transform="translate(9 130)" fill="#fffffe"/>
      <path id="Fill_159" data-name="Fill 159" d="M2.942.877A1.777,1.777,0,0,1,1.864,2.959C1.25,3.117.863,2.8.4,2.4.1,2-.288,1.118.328.719.942-.483,2.478,0,2.942.877" transform="translate(209 131)" fill="#fffffe"/>
      <path id="Fill_160" data-name="Fill 160" d="M2.932,1.187c.336.959-.672,1.136-.925,1.66-.34.175-1.014.263-1.265-.085C.32,2.236-.184,1.708.067.922.488.571.656.223,1.162.048,2.09-.215,2.431.661,2.932,1.187" transform="translate(48 131)" fill="#fffffe"/>
      <path id="Fill_161" data-name="Fill 161" d="M2.967,1.238c.162.616-.318.879-.4,1.322a2.013,2.013,0,0,1-1.844.355C0,2.472,0,1.766,0,.976.481.623.56.181,1.122,0A1.828,1.828,0,0,1,2.967,1.238" transform="translate(225 132)" fill="#fffffe"/>
      <path id="Fill_162" data-name="Fill 162" d="M6.43,1c.285.838-.5,1.256-1.072,1.466-.286.068-.715-.14-.787.277,1.859.909,3,2.372,4.429,3.694V7A9.828,9.828,0,0,1,1.925,4.351C1.428,4,.571,4,0,3.515c.928-.906,2.644-.558,3.928-.628.929-.976-1.072-1.674.142-2.508.429-.07.715-.49,1.288-.351A2.435,2.435,0,0,1,6.43,1" transform="translate(217 132)" fill="#fffffe"/>
      <path id="Fill_163" data-name="Fill 163" d="M2.967,1.118c.159.435-.312.955-.391,1.392a1.48,1.48,0,0,1-1.733.348c-.4-.609-1.029-1.131-.791-2a1.578,1.578,0,0,1,2.915.261" transform="translate(190 132)" fill="#fffffe"/>
      <path id="Fill_164" data-name="Fill 164" d="M3,1.007A1.512,1.512,0,0,1,1.548,2,1.786,1.786,0,0,1,.011,1.256C-.075.823.355.574.439.262,1.378-.3,3.081.077,3,1.007" transform="translate(25 135)" fill="#fffffe"/>
      <path id="Fill_165" data-name="Fill 165" d="M7,0C7,1.1,5.956,1.724,5.607,2.822,4.563,5.412,2.686,7.764.043,8c-.281-.7.9-1.569,1.182-2.274C2.335,3.059,4.563,1.648,6.582,0Z" transform="translate(27 135)" fill="#fffffe"/>
      <path id="Fill_166" data-name="Fill 166" d="M3,1.135A2.04,2.04,0,0,1,1.789,2.943C1.153,3.179.655,2.628.3,2.313-.265,1.685.09,1.056.374.428,1.225-.514,2.429.271,3,1.135" transform="translate(188 135)" fill="#fffffe"/>
      <path id="Fill_167" data-name="Fill 167" d="M3,1.076A2.108,2.108,0,0,1,1.682,3c-.146-.263-.51-.088-.73-.177A1.933,1.933,0,0,1,0,1.251C.367.811.514.115,1.025.026,1.682-.062,2.781.026,3,1.076" transform="translate(193 135)" fill="#fffffe"/>
      <path id="Fill_168" data-name="Fill 168" d="M2.993.726c.086.664-.61,1.027-1.308,1.268a1.863,1.863,0,0,1-1.66-.726C-.149.726.635.363,1.071.06c1.05-.242,1.312.3,1.922.666" transform="translate(43 136)" fill="#fffffe"/>
      <path id="Fill_169" data-name="Fill 169" d="M3,.937A1.827,1.827,0,0,1,1.463,2C.9,1.876.251,1.751.006,1.249-.071.626.575.311,1.137,0,1.944,0,2.835.25,3,.937" transform="translate(48 136)" fill="#fffffe"/>
      <path id="Fill_170" data-name="Fill 170" d="M6.11,5.756c.363.281,1.016.633.869,1.132-1.163.493-2.107-.78-3.2-.99A14.432,14.432,0,0,1,0,.247C.653-.392,1.381.386,1.964.6A13.915,13.915,0,0,1,6.11,5.756" transform="translate(206 136)" fill="#fffffe"/>
      <path id="Fill_171" data-name="Fill 171" d="M2.876.643a2.147,2.147,0,0,1-.145,1.75c-.431.794-1.364.637-2.011.476C.359,2.393-.288,1.756.143,1.04.359.407,1.006.247,1.509.008c.5-.078.861.4,1.366.635" transform="translate(212 136)" fill="#fffffe"/>
      <path id="Fill_172" data-name="Fill 172" d="M1.946.454c.062.482.183,1.208-.42,1.511a1.174,1.174,0,0,1-1.45-.726C-.225.515.437.394.8.032c.483-.122.784.119,1.145.422" transform="translate(55 138)" fill="#fffffe"/>
      <path id="Fill_173" data-name="Fill 173" d="M4.021,3.308a10.967,10.967,0,0,1,1.885,5.28c-.22.519.364,1.04-.071,1.412H5.545C2.277,7.62,1.552,4.274.319.93A.613.613,0,0,1,.026.185c.726-.668,1.233.67,1.961.893Z" transform="translate(192 140)" fill="#fffffe"/>
      <path id="Fill_174" data-name="Fill 174" d="M9.929.618c-.071.069,0,.14.071.14C7.189,2.745,3.251,3.951.018,2.036A.54.54,0,0,1,.367,1.4C2.409.759,4.376-.234,6.556.05Z" transform="translate(57 140)" fill="#fffffe"/>
      <path id="Fill_175" data-name="Fill 175" d="M10,.625C7.387,2.262,5,5.46,1.767,6.239c-.615.232-1,1.093-1.767.623C1.385,2.649,5.924.39,10,0Z" transform="translate(40 141)" fill="#fffffe"/>
      <path id="Fill_176" data-name="Fill 176" d="M2.909.861c.241.692,0,1.644-.646,1.817a1.073,1.073,0,0,1-1.535,0C0,2.331,0,1.553,0,.947.238.346.807.26,1.211,0c.726.171,1.294.171,1.7.861" transform="translate(189 144)" fill="#fffffe"/>
      <path id="Fill_177" data-name="Fill 177" d="M10,.443A4.326,4.326,0,0,1,7.252,2.634C4.656,3.65,2.29,2.3,0,1.625.075.95.839,1.2,1.222.779,3.739.19,6.334-.4,9.005.359A.752.752,0,0,1,10,.443" transform="translate(175 145)" fill="#fffffe"/>
      <path id="Fill_178" data-name="Fill 178" d="M3,1.492c-.236.349-.317,1.137-.956,1.4A1.545,1.545,0,0,1,.459,2.543C.3,2.014-.258,1.578.141.965.3.351.936.176,1.413,0A1.754,1.754,0,0,1,3,1.492" transform="translate(47 146)" fill="#fffffe"/>
      <path id="Fill_179" data-name="Fill 179" d="M3,1.4A3,3,0,0,1,1.9,2.958,1.687,1.687,0,0,1,.332,2.383,2,2,0,0,1,.1.744C.255.332.8.25,1.2.005,1.979-.075,2.686.744,3,1.4" transform="translate(52 147)" fill="#fffffe"/>
      <path id="Fill_180" data-name="Fill 180" d="M2.989,1.137a2.008,2.008,0,0,1-.487,1.4A1.149,1.149,0,0,1,.97,2.83C.481,2.755.34,2.166.131,1.8-.287,1.213.411.843.622.33a1.493,1.493,0,0,1,2.368.808" transform="translate(187 148)" fill="#fffffe"/>
      <path id="Fill_181" data-name="Fill 181" d="M2.778.707c.083.408.331.814.167,1.141-.5.408-.828,1.467-1.819,1.061-.491.159-.739-.49-.989-.653a1.543,1.543,0,0,1,.989-2.2c.743-.249,1.241.406,1.653.651" transform="translate(191 148)" fill="#fffffe"/>
      <path id="Fill_182" data-name="Fill 182" d="M2.963.962a1.936,1.936,0,0,1-.756,1.968c-.826.146-1.885.146-2.185-.8A1.924,1.924,0,0,1,.927.016,1.843,1.843,0,0,1,2.963.962" transform="translate(49 150)" fill="#fffffe"/>
      <path id="Fill_183" data-name="Fill 183" d="M6,0c-.142,2.189-.571,4.855-2.57,6.106C2.284,6.343,1.142,7.517,0,6.735V6.343C1.5,3.993,4.215,2.189,6,0" transform="translate(50 150)" fill="#fffffe"/>
      <path id="Fill_184" data-name="Fill 184" d="M2.9,1.23c.316.524-.238.961-.476,1.4-.474.607-1.351.345-1.9.085S-.111,1.579.127.97A1.67,1.67,0,0,1,1.158.007C1.874-.078,2.509.623,2.9,1.23" transform="translate(176 151)" fill="#fffffe"/>
      <path id="Fill_185" data-name="Fill 185" d="M3.908,4.125C5,5.833,4.377,8.135,5,9.989c-1.326.149-1.876-1.262-2.734-2C.548,5.758.78,2.789,0,.194A.428.428,0,0,1,.548.043c1.171.741,2.03,2.152,2.968,3.118-.154.518.471.518.392.964" transform="translate(60 151)" fill="#fffffe"/>
      <path id="Fill_186" data-name="Fill 186" d="M2,.943c0,.565-.535.706-.832,1.057A2.071,2.071,0,0,1,.039,1.364C-.14.66.336.448.633.1,1.227-.186,1.822.166,2,.943" transform="translate(180 152)" fill="#fffffe"/>
      <path id="Fill_187" data-name="Fill 187" d="M5,6.465c0,.218-.08.651-.468.505H4.221C1.97,5.084-.281,2.978.029.071L.5,0C2.591,1.671,4.92,3.485,5,6.465" transform="translate(186 153)" fill="#fffffe"/>
      <path id="Fill_188" data-name="Fill 188" d="M2.99,1.254A2.082,2.082,0,0,1,2.3,2.882c-.843.26-2.141.172-2.3-1.113C-.07.913.772.484,1.154.055,2.072-.2,2.683.484,2.99,1.254" transform="translate(182 156)" fill="#fffffe"/>
      <path id="Fill_189" data-name="Fill 189" d="M5.7,1.6C4.721,4.421,2.052,5.866.227,8c-.35-.229-.209-.837-.138-1.142A10.362,10.362,0,0,1,5.492,0c1.124.153,0,.992.211,1.6" transform="translate(175 157)" fill="#fffffe"/>
      <path id="Fill_190" data-name="Fill 190" d="M3,.777C3,1.388,2.252,1.66,1.837,2a2.666,2.666,0,0,1-1.83-.748C-.077.573.588.369,1.087.031A1.866,1.866,0,0,1,3,.777" transform="translate(183 160)" fill="#fffffe"/>
      <path id="Fill_191" data-name="Fill 191" d="M24.142,4H1.857A1.935,1.935,0,0,1,0,2,1.933,1.933,0,0,1,1.857,0H24.142A1.934,1.934,0,0,1,26,2,1.936,1.936,0,0,1,24.142,4ZM23.416.635a1.212,1.212,0,0,0-.781.213.655.655,0,0,0-.23.532,2.481,2.481,0,0,0,1.85,2.077c.738,0,1.124-.724,1.124-1.44a1.629,1.629,0,0,0-.279-.952,1.017,1.017,0,0,0-.855-.43Zm-9.13,0a1.189,1.189,0,0,0-.739.192.583.583,0,0,0-.219.484A2.718,2.718,0,0,0,15.34,3.458h2.175a1.188,1.188,0,0,0,.738-.192.583.583,0,0,0,.219-.484A2.719,2.719,0,0,0,16.461.635Zm-9.13,0a1.189,1.189,0,0,0-.739.192.583.583,0,0,0-.219.484A2.716,2.716,0,0,0,6.206,3.458H8.385a1.188,1.188,0,0,0,.738-.192.583.583,0,0,0,.219-.484A2.719,2.719,0,0,0,7.331.635Z" transform="translate(107 25)" fill="#fffffe"/>
      <path id="Fill_192" data-name="Fill 192" d="M1.691,19v0l1.769-6.761L0,13.188l.925-3.8L0,5.738l3.31.533L1.693,0,6.039,1.636,10.307,0,8.617,6.271,12,5.585l-1.156,3.8L12,13.036l-3-.8L10.306,19,6.039,17.367,1.693,19ZM6.009,6.423h0a1.655,1.655,0,0,1-1.7,1.117c-.654.058-1.22.108-1.22,1.241V8.81a4.984,4.984,0,0,0,.191,1.814c.208.476.62.688,1.337.688H8.1c.932,0,1.06-1.18,1.06-2.455,0-1.182-.439-1.278-.969-1.278-.076,0-.155,0-.232,0s-.166,0-.252,0a1.652,1.652,0,0,1-1.7-1.165ZM7.932,9.53a4.892,4.892,0,0,1-.8-.1,5.583,5.583,0,0,0-.942-.115,5.581,5.581,0,0,0-.941.115,4.886,4.886,0,0,1-.8.1.7.7,0,0,1-.439-.113.508.508,0,0,1-.168-.43c0-.876.534-.995,1.057-.995.2,0,.428.021.644.041s.439.041.644.041.428-.021.643-.041.44-.041.645-.041c.523,0,1.058.118,1.058.995C8.539,9.362,8.352,9.53,7.932,9.53Z" transform="translate(127 51)" fill="#fffffe"/>
      <path id="Fill_193" data-name="Fill 193" d="M.773,3V2.162L0,2.019l.6-.61L.232.734l.789.082L1.5,0l.47.8.8-.07-.379.674L3,2.019l-.771.144V3L1.5,2.467Z" transform="translate(119 57)" fill="#fffffe"/>
      <path id="Fill_194" data-name="Fill 194" d="M.773,3V2.166L0,2.02l.6-.613L.23.735l.792.082L1.5,0l.468.8.8-.07L2.4,1.407,3,2.02l-.771.146V3L1.5,2.469Z" transform="translate(115 61)" fill="#fffffe"/>
      <path id="Fill_195" data-name="Fill 195" d="M.77,3V2.162L0,2.021l.6-.614L.232.732l.791.084L1.5,0l.465.8.8-.072L2.4,1.406l.6.614-.768.142V3L1.5,2.467Z" transform="translate(121 61)" fill="#fffffe"/>
      <path id="Fill_196" data-name="Fill 196" d="M.6,1.85V1.374l-.424-.08L.507.948.3.566.737.612,1,.15l.256.456L1.7.566,1.493.948l.332.346-.424.08V1.85l-.4-.3Z" transform="translate(122 65)" fill="#fffffe"/>
      <path id="Fill_197" data-name="Fill 197" d="M1.286,5V3.6L0,3.367,1.007,2.345.383,1.226,1.7,1.36,2.5,0l.78,1.342,1.336-.116L3.993,2.345,5,3.367,3.716,3.6V5L2.5,4.116Z" transform="translate(116 65)" fill="#fffffe"/>
      <path id="Fill_198" data-name="Fill 198" d="M11.5,0,14.11,6.537l6.612-1.981-3.353,6.168L23,14.793l-6.8,1.155L16.616,23,11.5,18.272,6.38,23l.413-7.051L0,14.793l5.633-4.069L2.278,4.554l6.61,1.983Z" transform="translate(108)" fill="#fffffe"/>
      <path id="Fill_199" data-name="Fill 199" d="M9.849.308C9.087.6,8.789.82,8.976,1.639L9.881,5.59a3.658,3.658,0,0,1-.254,2.591A4.608,4.608,0,0,1,7.02,9.786a5.109,5.109,0,0,1-3.075-.058,2.33,2.33,0,0,1-1.5-2L1.5,3.587C1.263,2.547.885,2.615.071,2.739L0,2.429l4.823-1.2.074.31c-.936.272-1.375.394-1.127,1.485l.945,4.139c.163.706.555,2.416,2.609,1.905A2.417,2.417,0,0,0,9.252,5.748L8.386,1.969c-.171-.758-.439-1.138-1.678-.879L6.637.779,9.776,0Z" transform="translate(86 143)" fill="#fffffe"/>
      <path id="Fill_200" data-name="Fill 200" d="M6.3,2.7A3.271,3.271,0,0,0,2.839,1.1c-.783.167-1.526.705-1.345,1.49.149.647.5.849,1.878,1.088l2.413.409A2.645,2.645,0,0,1,7.952,5.953C8.2,7.011,7.569,8.673,4.8,9.26a14.1,14.1,0,0,1-2.667.14c-.318.067-.341.3-.356.505L1.342,10,.656,7.025l.434-.094a3.236,3.236,0,0,0,3.68,1.921C6.578,8.468,6.377,7.26,6.338,7.1c-.185-.805-.958-.947-2.023-1.11l-1.1-.171C.418,5.383.18,4.345.053,3.792-.119,3.057-.029,1.321,2.828.712a14.054,14.054,0,0,1,2.44-.1c.345-.075.379-.273.4-.518L6.121,0l.6,2.611Z" transform="translate(97 142)" fill="#fffffe"/>
      <path id="Fill_201" data-name="Fill 201" d="M7.76,8.5,2.56,9l-.027-.306c1.056-.177,1.4-.235,1.307-1.27L3.225.933C2.213,1.08.718,1.286.611,3.287l-.423.04L0,.847,8.738,0,9,2.472l-.419.042C8.1.572,6.6.654,5.587.705L6.2,7.195c.1,1.046.452,1.037,1.537.993Z" transform="translate(105 141)" fill="#fffffe"/>
      <path id="Fill_202" data-name="Fill 202" d="M10,9h0L7.02,8.939,4.091,4.806,3.7,4.8,3.653,7.348c-.02,1.039.3,1.084,1.254,1.219l0,.326L0,8.791l0-.326c.983-.083,1.28-.108,1.3-1.17l.106-5.746C1.428.431.977.394.158.326V0L4.832.1C6.36.128,8.917.474,8.88,2.472c-.028,1.58-1.5,1.963-2.287,2.169l-.032.008L9.411,8.414a.7.7,0,0,0,.589.26L10,9ZM4.58.536c-.7,0-.733.144-.809.529L3.709,4.381l.233,0c1.675,0,2.427-.279,2.457-1.936C6.422,1.169,5.875.561,4.678.536Z" transform="translate(115 140)" fill="#fffffe"/>
      <path id="Fill_203" data-name="Fill 203" d="M9.962,9h0L5.215,8.412l.04-.3.03,0c.255.015.457.026.618.026.418,0,.549-.08.582-.355a6.172,6.172,0,0,0-.47-1.691l-3.3-.408L2.7,5.721a6.872,6.872,0,0,0-.819,1.445c-.058.46.632.58,1.136.669l-.037.3L0,7.771l.04-.3c.809,0,1.06-.389,1.611-1.239L5.74,0l.41.049L8.615,6.817C9.123,8.226,9.3,8.634,10,8.7L9.962,9ZM4.746,2.47h0L3,5.24l2.858.351L4.746,2.47Z" transform="translate(125 141)" fill="#fffffe"/>
      <path id="Fill_204" data-name="Fill 204" d="M8.845,10,0,8.424l.06-.312c.873.065,1.338.11,1.48-.649L2.666,1.431C2.818.61,2.2.474,1.517.312L1.574,0l5.34.951-.06.31C5.777,1.11,5.3,1.037,5.1,2.134L4,8.015c-.111.6.206.761,1.23.942A3.863,3.863,0,0,0,9.556,7.206L10,7.284Z" transform="translate(135 142)" fill="#fffffe"/>
      <path id="Fill_205" data-name="Fill 205" d="M5.242,9,0,7.968l.068-.3c.819.1,1.415.17,1.576-.562L2.9,1.407c.172-.78-.53-.94-1.209-1.114L1.758,0,7,1.032l-.064.294c-.709-.114-1.43-.243-1.608.557l-1.26,5.7c-.165.756.426.91,1.239,1.117Z" transform="translate(145 144)" fill="#fffffe"/>
      <path id="Fill_206" data-name="Fill 206" d="M9.971,9h0L5.219,8.509,5.251,8.2h.03c.21.008.391.015.537.015.485,0,.626-.08.655-.371a6.435,6.435,0,0,0-.507-1.7L2.668,5.8l-.039.065a6.428,6.428,0,0,0-.769,1.45c-.048.465.643.572,1.147.65l-.03.307L0,7.969l.032-.309C.842,7.648,1.1,7.223,1.615,6.377L5.558,0,5.97.04,8.578,6.823C9.115,8.235,9.3,8.645,10,8.693L9.971,9ZM4.619,2.513,2.936,5.35l2.859.3Z" transform="translate(150 146)" fill="#fffffe"/>
      <path id="Fill_207" data-name="Fill 207" d="M4,6H1.01a.419.419,0,0,1-.389-.444V4.616A2.082,2.082,0,0,1,0,2.829c0-1.274.5-1.374,1.087-1.49A1.588,1.588,0,0,0,2.545,0c.381,1.18.9,1.278,1.352,1.278l.141,0,.136,0c.468,0,.826.121.826,1.639a2.216,2.216,0,0,1-.609,1.624V5.557A.419.419,0,0,1,4,6ZM2.557,3.523a3.874,3.874,0,0,1,.719.1,3.5,3.5,0,0,0,.638.089.567.567,0,0,0,.413-.132.69.69,0,0,0,.16-.516c0-1.1-.636-1.248-1.259-1.248-.15,0-.3.009-.448.018s-.27.016-.393.016S2.124,1.837,2,1.829s-.255-.017-.376-.017c-.6,0-1,.212-1,1.248,0,.448.177.648.574.648a3.513,3.513,0,0,0,.639-.088A3.887,3.887,0,0,1,2.557,3.523Z" transform="translate(117 50)" fill="#fffffe"/>
      <path id="Fill_208" data-name="Fill 208" d="M1.5,2C2.33,2,3,1.552,3,1S2.33,0,1.5,0,0,.449,0,1,.67,2,1.5,2" transform="translate(147 88)" fill="#fffffe"/>
      <path id="Fill_209" data-name="Fill 209" d="M.992,0a7.336,7.336,0,0,0-.7,1.284.712.712,0,1,0,1.424,0C1.712,1.262.992,0,.992,0" transform="translate(141 45)" fill="#fffffe"/>
      <path id="Fill_210" data-name="Fill 210" d="M.989,0a7.349,7.349,0,0,0-.7,1.284.711.711,0,1,0,1.422,0C1.711,1.262.989,0,.989,0" transform="translate(96 45)" fill="#fffffe"/>
      <path id="Fill_211" data-name="Fill 211" d="M.989,0a7.349,7.349,0,0,0-.7,1.284.711.711,0,1,0,1.422,0C1.711,1.262.989,0,.989,0" transform="translate(107 45)" fill="#fffffe"/>
      <path id="Fill_212" data-name="Fill 212" d="M.99,0a7.342,7.342,0,0,0-.7,1.284.712.712,0,1,0,1.424,0C1.712,1.262.99,0,.99,0" transform="translate(118 45)" fill="#fffffe"/>
      <path id="Fill_213" data-name="Fill 213" d="M.988,0a7.349,7.349,0,0,0-.7,1.284.712.712,0,1,0,1.424,0C1.712,1.262.988,0,.988,0" transform="translate(130 45)" fill="#fffffe"/>
      <path id="Fill_214" data-name="Fill 214" d="M1.012,0a7.306,7.306,0,0,1,.7,1.286.712.712,0,1,1-1.424,0C.288,1.262,1.012,0,1.012,0" transform="translate(96 60)" fill="#fffffe"/>
      <path id="Fill_215" data-name="Fill 215" d="M1.012,0a7.306,7.306,0,0,1,.7,1.286.712.712,0,1,1-1.424,0C.288,1.264,1.012,0,1.012,0" transform="translate(96 75)" fill="#fffffe"/>
      <path id="Fill_216" data-name="Fill 216" d="M1.009,0a7.336,7.336,0,0,1,.7,1.284.713.713,0,1,1-1.426,0C.287,1.262,1.009,0,1.009,0" transform="translate(98 87)" fill="#fffffe"/>
      <path id="Fill_217" data-name="Fill 217" d="M1.01,0a7.358,7.358,0,0,1,.7,1.285.712.712,0,1,1-1.424,0C.288,1.264,1.01,0,1.01,0" transform="translate(107 93)" fill="#fffffe"/>
      <path id="Fill_218" data-name="Fill 218" d="M.988,0a7.312,7.312,0,0,0-.7,1.286.71.71,0,1,0,1.42,0C1.71,1.262.988,0,.988,0" transform="translate(141 60)" fill="#fffffe"/>
      <path id="Fill_219" data-name="Fill 219" d="M.988,0a7.312,7.312,0,0,0-.7,1.286.71.71,0,1,0,1.42,0C1.71,1.264.988,0,.988,0" transform="translate(141 75)" fill="#fffffe"/>
      <path id="Fill_220" data-name="Fill 220" d="M.99,0a7.342,7.342,0,0,0-.7,1.284.712.712,0,1,0,1.424,0C1.712,1.262.99,0,.99,0" transform="translate(140 87)" fill="#fffffe"/>
      <path id="Fill_221" data-name="Fill 221" d="M.988,0a7.364,7.364,0,0,0-.7,1.285.712.712,0,1,0,1.424,0C1.712,1.264.988,0,.988,0" transform="translate(130 93)" fill="#fffffe"/>
      <path id="Fill_222" data-name="Fill 222" d="M.989,0a7.34,7.34,0,0,0-.7,1.283.711.711,0,1,0,1.422,0C1.711,1.259.989,0,.989,0" transform="translate(119 100)" fill="#fffffe"/>
      <path id="Fill_223" data-name="Fill 223" d="M10.651,2.208c.139.211.488.282.927.129L12,1.131c.035-.084-.483-.563-.79-.486-1.184.284-2.439.428-3.136,1.563A2.348,2.348,0,0,0,9.188,4.052c.418-.14.487.284.766.5a.5.5,0,0,1-.487.639c-.838-.853-2.3.284-2.929-.782.278-1.064.838-2.272-.07-3.265.07-.213.42-.424.209-.639C6.329-.488,5.284.291,4.655.291A2.662,2.662,0,0,0,2.144,1.569,1.98,1.98,0,0,0,2.7,2.632c.279-.071.418,0,.488.284l-.7.426a1.508,1.508,0,0,1,.279.78c-.49.213-.977-.5-1.186-.851,0-.567.07-1.561-.7-1.7a2.984,2.984,0,0,0-.605.206A2.078,2.078,0,0,0,0,2.948a4.877,4.877,0,0,0,.274,1.27,12.1,12.1,0,0,1,2.638,2.6C2.283,8.1,2.283,9.87.82,10.579A1.191,1.191,0,0,0,.4,11.716L.751,12c.907-.5,2.648-.638,2.511-2.2A5.611,5.611,0,0,1,4.585,7.956a1.444,1.444,0,0,1,1.6.78,2.765,2.765,0,0,1-1.882,2.128c-.139.142-.07.357-.07.568.279.5,1.047.284,1.463.215,1.188-.783,1.676-2.2,2.72-2.627.139.709-1.4.924-.418,1.632.627-.142,1.465.071,1.882-.782-.488-1.2,1.673-1.774.35-2.838,0-1.064,1.114-1.488,1.043-2.625-.418-1.135-1.743-1.135-2.089-2.2a1.524,1.524,0,0,1,1.463,0" transform="translate(127 76)" fill="#fffffe"/>
      <path id="Fill_224" data-name="Fill 224" d="M1.5,2C2.328,2,3,1.552,3,1S2.328,0,1.5,0,0,.448,0,1,.67,2,1.5,2" transform="translate(85 88)" fill="#fffffe"/>
      <path id="Fill_225" data-name="Fill 225" d="M1.5,3A1.5,1.5,0,1,0,0,1.5,1.5,1.5,0,0,0,1.5,3" transform="translate(13 130)" fill="#fffffe"/>
      <path id="Fill_226" data-name="Fill 226" d="M.324.266h-.1L.13.144H.118V.222c0,.032.01.032.04.036V.266H0V.258c.032,0,.04,0,.04-.036V.046C.04.012.026.012,0,.008V0H.15C.184,0,.284,0,.284.07.284.118.236.13.212.138L.306.252A.024.024,0,0,0,.324.258Z" transform="translate(60 143)" fill="#fffffe"/>
      <path id="Fill_227" data-name="Fill 227" d="M1.087.945A.1.1,0,0,0,.993.871C.969.871.945.885.945.907s.01.032.046.05l.07.028a.081.081,0,0,1,.052.072c0,.036-.03.084-.118.084a.365.365,0,0,1-.078-.014C.9,1.127.9,1.135.9,1.141H.887v-.1H.9a.1.1,0,0,0,.1.086c.056,0,.06-.04.06-.048,0-.024-.024-.032-.054-.044L.973,1.023C.891.989.891.957.891.937S.907.859,1,.859a.4.4,0,0,1,.076.014c.01,0,.012-.006.016-.014H1.1V.945Z" transform="translate(60 142)" fill="#fffffe"/>
      <path id="Fill_228" data-name="Fill 228" d="M1.227.873A.042.042,0,0,0,1.2.9L1.1,1.137H1.089L1.009.951h0l-.09.186H.907L.807.9A.041.041,0,0,0,.773.873V.863H.911v.01c-.016,0-.028,0-.028.018S.885.9.885.9l.056.142h0L1,.925.981.887C.975.881.971.875.945.873V.863H1.1v.01c-.02,0-.036,0-.036.016a.049.049,0,0,0,.008.022l.05.132h0L1.171.907a.023.023,0,0,0,0-.014c0-.018-.02-.018-.034-.02V.863h.086Z" transform="translate(60 142)" fill="#fffffe"/>
      <path id="Fill_229" data-name="Fill 229" d="M0,.268A.146.146,0,0,0,.13.164.039.039,0,0,1,.11.17a.051.051,0,0,1-.022,0A.081.081,0,0,1,0,.088.094.094,0,0,1,.1,0,.105.105,0,0,1,.212.116c0,.074-.066.15-.21.16Z" transform="translate(61 143)" fill="#fffffe"/>
      <path id="Fill_230" data-name="Fill 230" d="M.946.948a.218.218,0,0,1,.1.018.083.083,0,0,1,.052.076c0,.05-.052.094-.138.094C.926,1.136.9,1.124.9,1.1S.9,1.076.924,1.076s.06.036.09.036A.042.042,0,0,0,1.06,1.07c0-.022-.026-.042-.05-.052A.3.3,0,0,0,.908,1L.954.864H1.1l-.02.05H.954Z" transform="translate(60 142)" fill="#fffffe"/>
      <path id="Fill_231" data-name="Fill 231" d="M25.447,61a2.378,2.378,0,0,1-1.791-.811L4.048,47.691C1.689,46.6.041,43.085.041,39.141L0,.03H.009V0H50.992V.03H51L50.96,39.141c0,3.945-1.649,7.461-4.01,8.55L27.04,60.374A2.371,2.371,0,0,1,25.447,61Zm-24-59.6V39.665c.293,3.224,1.406,5.518,3.308,6.819L23.94,58.73a2.346,2.346,0,0,0,2.983.02h.105l19.22-12.266c1.9-1.3,3.016-3.6,3.307-6.819V1.4Z" transform="translate(94 44)" fill="#fffffe"/>
      <path id="Fill_232" data-name="Fill 232" d="M.664,1.162,1.336.838a3.462,3.462,0,0,0-.672.324" transform="translate(126 100)" fill="#fffffe"/>
      <path id="Fill_233" data-name="Fill 233" d="M.034,9h0L0,8.7c.785-.191.938-.63,1.273-1.593L3.75.049,4.162,0,8.169,6.038c.753,1.136,1.042,1.529,1.6,1.529a1.377,1.377,0,0,0,.2-.016l.034.3L5.251,8.4l-.034-.3.024,0c.876-.159,1.141-.207,1.093-.605A6.234,6.234,0,0,0,5.471,5.94l-3.3.38-.021.063a6.626,6.626,0,0,0-.442,1.585c.042.363.488.4.819.4.158,0,.323-.011.444-.02l.037.305L.035,9ZM3.375,2.7,2.339,5.821,5.2,5.488Z" transform="translate(78 147)" fill="#fffffe"/>
      <path id="Fill_234" data-name="Fill 234" d="M47.614,45h0a3.089,3.089,0,0,1-.864-.121.943.943,0,0,1-.572-.538.747.747,0,0,1,.054-.655C48,41.079,49.8,38.2,51.479,35.469v-.448a21.646,21.646,0,0,0-2.691.426,18.02,18.02,0,0,1-3.587.472,8.632,8.632,0,0,0-2.036.973,8.64,8.64,0,0,1-2.027.97,6.417,6.417,0,0,1-2.412,1.054,11.861,11.861,0,0,0-1.357.439,14.553,14.553,0,0,0-1.839.254,12.593,12.593,0,0,1-2.295.27,1.321,1.321,0,0,1-.924.336,1.315,1.315,0,0,0-.923.336c-.455-.077-.517-.16-.444-.6a3.582,3.582,0,0,1,.508-.289,1.461,1.461,0,0,0,.894-.832c-.072-.473-.494-.644-.9-.809-.43-.174-.835-.337-.8-.837a43.759,43.759,0,0,0,5.112-1.012,31.669,31.669,0,0,1,7.478-1.161c.187,0,.375,0,.56.009A18.49,18.49,0,0,0,46.38,33.61a14.284,14.284,0,0,1,3.473-1.726,3.764,3.764,0,0,0-1.111-.934c-.871-.566-1.771-1.151-1.178-2.5a18.377,18.377,0,0,1,3.1-6.72,53.126,53.126,0,0,0-10.49,1.417,4.72,4.72,0,0,0-1.506.308,5.235,5.235,0,0,1-1.228.291c-1.213.307-2.441.637-3.628.955-4.9,1.314-9.959,2.672-15.428,2.853-2.175-.228-4.368-.684-5.685-2.464a7.01,7.01,0,0,1-.735-4.111,13.406,13.406,0,0,0-.079-2.163.812.812,0,0,0-.526-.205,1.9,1.9,0,0,0-.582.131l-.267.011c-1.026.044-2.087.09-3.157.09A15.545,15.545,0,0,1,0,17.394c.269-.638.994-.664,1.694-.689A3.141,3.141,0,0,0,2.951,16.5a8.222,8.222,0,0,1,2.258-.31A10.842,10.842,0,0,1,11.3,18.217c.741-.61.5-1.35.246-2.134a3.3,3.3,0,0,1-.246-1.375c-.18-.994-.475-2.026-.76-3.025-.778-2.721-1.582-5.534-.347-8.254a6.265,6.265,0,0,1,5.24-3.1,5.681,5.681,0,0,1,.67.04,3.947,3.947,0,0,1,.527-.036C18.72.332,20.4,2,21.2,3.429c.548,1.478-.054,2.705-.636,3.891-.6,1.218-1.216,2.477-.618,4.024a2.321,2.321,0,0,0,.545.071,1.608,1.608,0,0,0,.272-.022l2.432-.57a2.1,2.1,0,0,0,.605.085,4.808,4.808,0,0,0,1.3-.243l.017,0a5.046,5.046,0,0,1,1.353-.247,2.459,2.459,0,0,1,.416.034,21.18,21.18,0,0,1,3.093-.78,24.133,24.133,0,0,0,2.668-.638C41.526,6.726,50.9,6.253,59.75,5.966l2.974.316a27.673,27.673,0,0,0,3.81.448,34.119,34.119,0,0,1,3.409.36c5.076.534,10.085,1.44,14.929,2.317,5.3.96,10.79,1.954,16.386,2.461.532-.269.527-.665.521-1.167,0-.057,0-.116,0-.177a17.087,17.087,0,0,0-.341-2.558c-.411-2.236-.835-4.547,1.079-6.106A5.8,5.8,0,0,1,107.012,0a8.939,8.939,0,0,1,1.929.218,7.792,7.792,0,0,1,5.022,4.629c.239,2.663-.712,5.074-1.632,7.406a29.048,29.048,0,0,0-1.322,3.875c-.182,1.145-.386,2.307-.584,3.432-.2,1.151-.411,2.34-.6,3.512a6.218,6.218,0,0,1-4.189,3.2,21.778,21.778,0,0,1-5.692.535H98.677a58.69,58.69,0,0,1-12.654-2.08,85.041,85.041,0,0,0-8.4-1.73c-.393-.08-.79-.164-1.174-.245a28.45,28.45,0,0,0-5.985-.82c-.274,0-.549.007-.818.021l-.222.226a7.477,7.477,0,0,0,2.224.977c1.376.437,2.675.85,3.095,2.308a4.169,4.169,0,0,1-.221,3.957,5.032,5.032,0,0,1-1.743,1.8,10.16,10.16,0,0,0-.844.668,16.953,16.953,0,0,1,3.718,2.431c1.938,1.522,3.942,3.1,6.7,3.1.251.085.5.177.738.267a10.024,10.024,0,0,0,1.845.556,8.208,8.208,0,0,0,1.813.46,10.693,10.693,0,0,1,2.576.693,1.041,1.041,0,0,1,.859.565,1.557,1.557,0,0,1-1.058.485c-.321.06-.624.116-.749.307a.5.5,0,0,0-.04.4,3.123,3.123,0,0,1,1.106.823.846.846,0,0,1-.723.316,4.034,4.034,0,0,1-.963-.172,4.75,4.75,0,0,0-.678-.144,20.494,20.494,0,0,0-2.6-.757,15.939,15.939,0,0,1-3.232-1.036c-.252-.165-.519-.331-.777-.491a10.237,10.237,0,0,1-2.916-2.347,6.55,6.55,0,0,0-2.286-.745,8.854,8.854,0,0,1-1.7-.451,8.588,8.588,0,0,1-2.479-.909,12.807,12.807,0,0,0-1.512-.662,4.643,4.643,0,0,0,.637,1.62,7.664,7.664,0,0,1,.546,1.145c.391.681.841,1.317,1.318,1.99a26.441,26.441,0,0,1,1.49,2.269,7.072,7.072,0,0,0,.548.754,3.277,3.277,0,0,1,.853,1.56,1.6,1.6,0,0,1-.959.313,4.3,4.3,0,0,1-1.784-.588,7.338,7.338,0,0,0-1.1-.471,4.234,4.234,0,0,1-.6-.874c-.348-.61-.707-1.241-1.442-1.241a1.5,1.5,0,0,0-.248.022,4.116,4.116,0,0,1-3.6,1.488c-.407,0-.829-.022-1.238-.043h-.009c-.412-.021-.839-.043-1.265-.043a5.747,5.747,0,0,0-2.68.541c-.279-.018-.571-.019-.853-.019a3.842,3.842,0,0,1-2.547-.579c-2.031-1.889-1.565-4.881-1.106-6.5l.1-.171a32.931,32.931,0,0,1,3.442-5.057.368.368,0,0,0-.316-.2,1.085,1.085,0,0,0-.519.224,2.243,2.243,0,0,1-.2.119c-.249.232-.5.458-.743.677-1.553,1.4-3.02,2.727-3.468,4.926-1.319,2.9-2.8,5.553-4.212,7.99A4.247,4.247,0,0,1,47.614,45Zm6.079-10.873h0a14.037,14.037,0,0,0-2.12,3.339,16.786,16.786,0,0,1-1.646,2.784,6.221,6.221,0,0,1-.612.926,3.263,3.263,0,0,0-.865,1.837L48.532,43c.428-.071.961-.16,1.1-.509a56.955,56.955,0,0,0,3.622-7.021,1.063,1.063,0,0,1,.324-.652c.2-.236.366-.44.118-.69Zm13.591-1.121-.3.075c.276.617.541,1.236.8,1.834a30.261,30.261,0,0,0,3.857,7.128.412.412,0,0,0,.285.1.306.306,0,0,0,.307-.177c-.919-1.47-1.753-3.07-2.561-4.617-.755-1.446-1.535-2.942-2.39-4.346ZM56.855,39.86a1.386,1.386,0,0,0-.5.091,1.092,1.092,0,0,0,.258.746,1.1,1.1,0,0,1,.259.749,2.8,2.8,0,0,0,1.955.642,10.956,10.956,0,0,0,1.755-.192,11.242,11.242,0,0,1,1.164-.152A3.169,3.169,0,0,1,63,41.537c.338,0,.687.027,1.024.053h.012c.331.025.672.052.99.052a1.777,1.777,0,0,0,2.036-1.393c-.046-.482-.2-.707-.478-.707a1.948,1.948,0,0,0-.713.235l-.038.017a2.091,2.091,0,0,1-.814.253.655.655,0,0,1-.173-.022,9.633,9.633,0,0,0-2.1-.193c-.412,0-.829.014-1.232.028-.381.013-.813.028-1.232.028-.219,0-.419,0-.609-.012a1.3,1.3,0,0,1-.926.393,3.035,3.035,0,0,1-.923-.2l-.013,0A3.125,3.125,0,0,0,56.855,39.86ZM80.193,37.7a.577.577,0,0,0-.362.161.84.84,0,0,1-.116.082,11.182,11.182,0,0,0,4.842,2.506c.6.2,1.22.4,1.8.629a.81.81,0,0,1,.1-.62,1.117,1.117,0,0,1,.782-.3c.412-.056.838-.114.941-.571a32.474,32.474,0,0,1-7.875-1.874A.477.477,0,0,0,80.193,37.7Zm-12.17,1.057-.006.036c-.077.464-.206,1.242.154,1.533l.371-.149C68.868,39.6,68.357,39.037,68.023,38.756ZM61.2,31.1a.885.885,0,0,0-.641.337,31.568,31.568,0,0,0-2.226,5.634c-.165.508-.336,1.034-.507,1.537.342.637,1.284.645,2.042.651.224,0,.435,0,.617.02a3.537,3.537,0,0,1,1.93-.422c.177,0,.356,0,.53.008s.354.008.528.008a3.086,3.086,0,0,0,2.183-.639c.787-1.594-.436-2.8-1.619-3.973a9.979,9.979,0,0,1-1.262-1.4C62.418,32.054,61.852,31.1,61.2,31.1ZM40.5,36.155a16,16,0,0,0-4.64.947l-.265.082a2.926,2.926,0,0,1-1.154.274,1.682,1.682,0,0,0-1.281.478l1.031.968c.524-.121,1.072-.229,1.6-.333,2.122-.418,4.316-.85,6.082-2.28A6.756,6.756,0,0,0,40.5,36.155Zm18.362-3.9-.369.6a8.97,8.97,0,0,1-.937,1.549c-.7,1-1.426,2.041-1.133,3.23A31.3,31.3,0,0,0,58.864,32.258Zm7.608,3.436h0a2.115,2.115,0,0,0,.311,1.6c.023.042.043.08.06.113.265-.4.1-.672-.082-.984a1.738,1.738,0,0,1-.289-.733Zm3.1-2.988.076.374c.226.156.451.318.669.474,1.323.949,2.571,1.843,4.32,1.843.06,0,.119,0,.18,0a.3.3,0,0,1,.147-.3c-.4-.218-.8-.456-1.182-.685A9.733,9.733,0,0,0,69.573,32.706Zm-18.728.211a7.27,7.27,0,0,0-3.252,1.132c-.469.249-.911.485-1.36.673,1.123-.044,3.92-.289,5.614-1.642A3.137,3.137,0,0,0,50.845,32.917Zm12.727-1.588a1.954,1.954,0,0,0-.351.033l1.7,1.344a.317.317,0,0,0,.128-.332.381.381,0,0,1,.021-.191A1.836,1.836,0,0,0,63.572,31.329ZM52.946,22.613a8.1,8.1,0,0,0-1.689.233,8.09,8.09,0,0,0-2.366,6.723,8.9,8.9,0,0,0,2.351,1.25,12.473,12.473,0,0,1,1.641.765.962.962,0,0,0,.662-.894,3.23,3.23,0,0,0-1.754-.819,2.622,2.622,0,0,1-1.939-1.125,2.344,2.344,0,0,1-.232-1.437,5.869,5.869,0,0,0,.008-.878c.411-2.275,2.5-2.827,4.347-3.315L54.432,23A2.734,2.734,0,0,0,52.946,22.613Zm2,8.449v.373H55.1v-.3h-.149a.452.452,0,0,1,.3-.075Zm18.1-5.9.075,3.359c-.891,2.162-3.4,2.5-4.433,2.541a2.928,2.928,0,0,0,.994.156,4.1,4.1,0,0,0,1.889-.453,3.967,3.967,0,0,0,2.51-3.662l-.006-.059C74,26.3,73.908,25.381,73.045,25.163Zm-3.223-1.492c-1.364,0-3.021,1.571-3.645,2.163a.9.9,0,0,0-.459.543,1.522,1.522,0,0,0,.4,1.053,1.642,1.642,0,0,1,.427,1.17.783.783,0,0,1,.3.745,2.379,2.379,0,0,0,1.447.538,2.265,2.265,0,0,0,.251-.014c.23-.052.469-.1.7-.137,1.1-.2,2.234-.408,2.844-1.581a3.712,3.712,0,0,0-.391-2.6c-.094-.224-.191-.456-.272-.687A1.751,1.751,0,0,0,69.822,23.671Zm-6.415,6.086a.474.474,0,0,0-.332.112h.667a.482.482,0,0,0-.334-.112Zm-6.168-3.773a12.551,12.551,0,0,0-1.181,3.137A6.326,6.326,0,0,0,57.238,25.983Zm-2.95-1.9a4.225,4.225,0,0,0-3.4,1.753,2.922,2.922,0,0,1-.167.828c-.167.549-.324,1.068.167,1.563a17.656,17.656,0,0,0,3.543.9,7.908,7.908,0,0,0,1.849-4.259A2.653,2.653,0,0,0,54.288,24.081Zm3.994,3.51a.325.325,0,0,0-.23.111,3.207,3.207,0,0,1-.114.392,1.24,1.24,0,0,0-.107.654,1.023,1.023,0,0,0,.174.015,1.106,1.106,0,0,0,.934-.537l-.043-.067C58.769,27.959,58.535,27.59,58.282,27.59Zm4.938.036c-.46,0-.8.534-1.08.963l-.1.157a3.049,3.049,0,0,0,1.127-.719c.068-.059.135-.117.2-.174C63.291,27.776,63.221,27.7,63.221,27.626Zm-2.732.524-.441.449h.294a.6.6,0,0,1,.107-.138c.063-.067.128-.137.12-.205A.156.156,0,0,0,60.489,28.15Zm-.441-6.8a4.92,4.92,0,0,0-.84,1.886c-.08.282-.162.573-.27.877a2.087,2.087,0,0,0,.739,2.615,1.053,1.053,0,0,0,.739.288,3.094,3.094,0,0,0,1.3-.43c.115-.057.223-.112.324-.158,1.405-.893.912-2.142.435-3.349a5.705,5.705,0,0,1-.435-1.432A4.341,4.341,0,0,0,60.048,21.353ZM11.964,11.12a4.427,4.427,0,0,0,.3,1.945,14.33,14.33,0,0,0,.3,2.165,10.82,10.82,0,0,1,.285,2.986,10.384,10.384,0,0,1,.385,2.651c.107,1.772.218,3.6,1.979,4.447a14.213,14.213,0,0,0,4.378.607,44.12,44.12,0,0,0,5.706-.5l.258-.034c5.826-1.672,11.285-2.967,16.69-3.958a75.114,75.114,0,0,1,16.646-1.75,100.582,100.582,0,0,1,21.244,2.346c1.933.34,3.909.765,5.82,1.176a67.4,67.4,0,0,0,14.008,2,27.932,27.932,0,0,0,6.1-.636c1.047-.57,2.069-1.235,2.069-2.539a1.9,1.9,0,0,0,.469-1.37,2.2,2.2,0,0,1,.343-1.243,27.985,27.985,0,0,1,.678-3.082,18.681,18.681,0,0,0,.8-4.686,18.8,18.8,0,0,1-7.971,1.56,59.469,59.469,0,0,1-9.874-1.125c-.861-.147-1.752-.3-2.611-.434-.3-.06-.606-.1-.906-.132a6.585,6.585,0,0,1-1.311-.242,58.9,58.9,0,0,1-7.053-1.065c-1.666-.322-3.388-.655-5.137-.876-.9-.068-1.77-.214-2.612-.356a24.421,24.421,0,0,0-3.22-.392A65.51,65.51,0,0,0,58.532,7.79c-1.75,0-3.535.033-5.261.065-1.1.02-2.233.041-3.344.053a125.23,125.23,0,0,0-17.062,2.616c-1.342.243-2.694.544-4,.835a44.081,44.081,0,0,1-9.559,1.4,20.653,20.653,0,0,1-3.943-.366,9.152,9.152,0,0,1-1.567-.618,6.6,6.6,0,0,0-1.832-.654ZM57.683,24.494v.821h.073v-.821Zm10.226-1.5a3.113,3.113,0,0,0-2.323,1.573,3.43,3.43,0,0,0,1.266-.795A3.894,3.894,0,0,1,68.023,23C67.99,22.993,67.953,22.991,67.909,22.991Zm-12.2-1.47a4.17,4.17,0,0,0-1.354.207,2.241,2.241,0,0,1,1.4.681,2.847,2.847,0,0,0,1.114.661,1.5,1.5,0,0,1,.2-.459c.168-.3.342-.614.1-.961A10.287,10.287,0,0,0,55.713,21.522Zm8.874.139a.28.28,0,0,0-.235.075.344.344,0,0,0-.024.29c.159.625.4.928.731.929a2.3,2.3,0,0,0,1.111-.577l.053-.039a2.5,2.5,0,0,1,1.259-.615h.006l.09.006a.775.775,0,0,0-.09-.006l-2.2-.144a.459.459,0,0,1-.329.1c-.061,0-.123,0-.192-.01S64.643,21.66,64.588,21.66ZM103.255,9.554c0,.126-.007.265-.014.412a3.031,3.031,0,0,0,.233,1.679h1.775a1.961,1.961,0,0,1,.689-.28c.506-.135.983-.263.934-1.064a8.292,8.292,0,0,0-2.506-.583C104,9.67,103.616,9.622,103.255,9.554ZM14.474,8.1a2.454,2.454,0,0,0,.039.974,2.147,2.147,0,0,1,.036.894c.5.89,1.535,1.034,2.54,1.173.338.047.687.095,1,.171a2.916,2.916,0,0,0,.371-2.541,9.48,9.48,0,0,0-1.382-.091A4.377,4.377,0,0,1,14.474,8.1Zm92.043-4.575a4.045,4.045,0,0,1,3.458,1.617,4.133,4.133,0,0,1-.491,3.042,5.52,5.52,0,0,0-.617,2.038,4.252,4.252,0,0,0,3.175-2.541c.21-1.274.527-3.2-.592-4.255a3.338,3.338,0,0,0-2.435-1.568,4.9,4.9,0,0,0-2.349-.556,4.382,4.382,0,0,0-1.936.406,4.309,4.309,0,0,0-2.289,3.883c.089.21.164.436.236.653.3.893.577,1.736,1.758,1.736l.294-2.462a2.783,2.783,0,0,0,.107-.716,1.282,1.282,0,0,1,.485-1.152A5.812,5.812,0,0,1,106.517,3.529ZM15.393,1.607a5.464,5.464,0,0,0-2.62.626,5.378,5.378,0,0,0-1.769,3.733c-.2,1.549.742,2.557,1.575,3.447.091.1.181.194.268.289l.221-.3a3.736,3.736,0,0,1-.106-1.256A2.776,2.776,0,0,0,12.7,6.565a3.426,3.426,0,0,1,.958-3.283,5.432,5.432,0,0,1,2.524-.867,2.81,2.81,0,0,1,.8.117,4.341,4.341,0,0,0,.447.236c.463.221.9.43.955,1.109a8.336,8.336,0,0,0-.441,3.362h.737A3.362,3.362,0,0,0,19.8,3.876a2.875,2.875,0,0,0-1.184-1.419A6.447,6.447,0,0,0,15.393,1.607Zm91.589,3.336c-.4,0-.461.813-.524,1.674a3.5,3.5,0,0,1-.4,1.815.734.734,0,0,0,.4.119,1.811,1.811,0,0,0,1.03-.54l.124-.1c.534-.4.525-1.19.519-1.765,0-.061,0-.121,0-.178C107.614,5.278,107.239,4.943,106.982,4.943ZM15.64,3.869a2.162,2.162,0,0,0-.576.082c-.569.1-.632.588-.693,1.056a2.742,2.742,0,0,1-.119.588c.322.974.855,1.427,1.677,1.427.055,0,.112,0,.17-.006A14.819,14.819,0,0,0,16.468,4.4C16.412,3.938,15.925,3.869,15.64,3.869Z" transform="translate(59 131)" fill="#fffffe"/>
    </g>
  </g>
</svg>
