<svg height="88" viewBox="0 0 88 88" width="88" xmlns="http://www.w3.org/2000/svg" xmlns:xlink="http://www.w3.org/1999/xlink"><mask id="a" fill="#fff"><path d="m0 0h88v88h-88z" fill="#fff" fill-rule="evenodd"/></mask><g fill="none" fill-rule="evenodd" mask="url(#a)"><g transform="translate(8 23.5)"><g fill-rule="nonzero"><g fill="#a7958a" opacity=".6"><path d="m1.1064764 18.7296215c.12313763.3067479.191748.6326471.20273791.9630051 0 .3801335-.15205343.7602671-.22808015 1.1150585-.16789676.6759688-.29483878 1.3614557-.38013358 2.0527213-.68750812 6.6031008 2.31164797 13.0493389 7.8054095 16.776562.67187754.4570652 1.46828064.6959862 2.28080152.6842404h.4054758c2.0153402-.3363241 3.4872986-2.0876323 3.4718867-4.1307849v-5.0684477c-.0343336-.7865673.2455759-1.5544948.7780152-2.1344734.5324394-.5799786 1.2736868-.9243827 2.0603155-.9572797 1.6290256.2342041 2.8073663 1.6768456 2.7116195 3.3198332v4.8910521c.020537 2.1481824 1.6842199 3.922043 3.8266781 4.0801004.8558604.0424119 1.7018897-.1980386 2.4075126-.6842404 6.2598688-4.0329922 9.2560271-11.6049161 7.4506182-18.8292833 0-.3801336-.1773957-.734925-.2280802-1.1150585.0112058-.3280057.0709878-.6525367.1773957-.9630051l.2027379-.7095827c.5599614-2.401987.857365-4.8576909.8869784-7.323907.0809092-2.18001196-.3170092-4.35126269-1.165743-6.36090186-1.2516559-2.55228431-3.7994573-4.21516232-6.6396665-4.33352281-3.2685525-.04136932-6.5028217.66964964-9.452655 2.07806357l-.7602672-.27876462-.4054758-.15205344c-.8362939-.27876462-1.69793-.58287148-2.5342239-.83629387-.9555334-.2849069-1.9291957-.50503924-2.9143574-.65889821-.5285212-.07993675-1.0620473-.12228009-1.59656105-.12671119-.35479134 0-1.77395671 0-2.12874805 0-.63169788.05395058-1.25363035.19026455-1.84998342.40547582-.94385152.30722397-1.80889111.81759733-2.53422386 1.49519208-.74560524.7255141-1.34747277 1.58532485-1.77395671 2.53422386-.87292879 2.00233179-1.27186617 4.17914226-1.16574297 6.36090187.00578639 2.4760961.30350102 4.9428745.88697835 7.3492492zm4.66297191-12.1896168c.15593836-.34538455.38005535-.65570038.6588982-.91232059.20880828-.20379002.4596368-.35947669.73492492-.45616029.16793656-.02614769.33890822-.02614769.50684478 0h1.64724551 1.01368958c.7456412.11837926 1.4822923.28772433 2.2047747.50684477.7856094.22808015 1.5458766.50684477 2.3568282.7856094h.3801336c.7520483.29167473 1.4735575.65667351 2.1540903 1.08971626 1.956874 1.41427958 4.3637601 2.06332751 6.7663777 1.82464118.9448922-.20071298 1.6935046-.92113587 1.9303198-1.85763232.2368152-.93649644-.0793576-1.92617538-.8152613-2.5519172.4723455-.03664479.9468199-.03664479 1.4191654 0 1.0668622-.04970072 2.0618252.53732746 2.5342238 1.49519208.5160559 1.33880953.7239379 2.77666039.6082138 4.20681161-.0279935 2.0826702-.2829215 4.1560843-.7602672 6.1835062l-.1267112.532187c-.3353402.9764118-.4479076 2.0154954-.3294491 3.0410687 0 .532187.2027379 1.0390318.3041069 1.5458765.1196702.441742.2127586.8902589.2787646 1.3431387.4134734 4.027608-1.0547004 8.0206665-3.9787315 10.8211359v-2.863673c.093584-4.3706797-3.2438661-8.0529996-7.6026716-8.388281h-.4561603c-4.3171257.2312098-7.67704956 3.8375281-7.60267156 8.1602009v2.9650419c-2.82524276-2.8039291-4.23172687-6.734633-3.82667803-10.6944247.05995211-.4519937.1445523-.9003747.25342238-1.3431387.13654247-.5092321.24650737-1.0252213.32944911-1.5458765.12019686-1.0255664.00758767-2.0650359-.32944911-3.0410687v-.532187c-.50203694-2.0229342-.75731662-4.0992089-.76026716-6.1835062-.13090359-1.39736733.04199806-2.80651576.50684478-4.1307849z"/><path d="m38.0664766 18.7296215c.1231376.3067479.191748.6326471.2027379.9630051 0 .3801335-.1520535.7602671-.2280802 1.1150585-.1678967.6759688-.2948387 1.3614557-.3801335 2.0527213-.6875082 6.6031008 2.3116479 13.0493389 7.8054095 16.776562.6718775.4570652 1.4682806.6959862 2.2808014.6842404h.4054758c2.0153402-.3363241 3.4872987-2.0876323 3.4718867-4.1307849v-5.0684477c-.0343335-.7865673.2455759-1.5544948.7780153-2.1344734s1.2736868-.9243827 2.0603155-.9572797c1.6290255.2342041 2.8073663 1.6768456 2.7116195 3.3198332v4.8910521c.0205369 2.1481824 1.6842198 3.922043 3.826678 4.0801004.8558605.0424119 1.7018898-.1980386 2.4075127-.6842404 6.2598687-4.0329922 9.2560271-11.6049161 7.4506182-18.8292833 0-.3801336-.1773957-.734925-.2280802-1.1150585.0112057-.3280057.0709878-.6525367.1773957-.9630051l.2027379-.7095827c.5599614-2.401987.857365-4.8576909.8869784-7.323907.0809092-2.18001196-.3170093-4.35126269-1.165743-6.36090186-1.2516559-2.55228431-3.7994573-4.21516232-6.6396665-4.33352281-3.2685525-.04136932-6.5028217.66964964-9.4526551 2.07806357l-.7602671-.27876462-.4054758-.15205344c-.8362939-.27876462-1.69793-.58287148-2.5342239-.83629387-.9555335-.2849069-1.9291957-.50503924-2.9143574-.65889821-.5285213-.07993675-1.0620473-.12228009-1.5965611-.12671119-.3547913 0-1.7739567 0-2.128748 0-.6316979.05395058-1.2536304.19026455-1.8499834.40547582-.9438516.30722397-1.8088912.81759733-2.5342239 1.49519208-.7456053.7255141-1.3474728 1.58532485-1.7739567 2.53422386-.8729288 2.00233179-1.2718662 4.17914226-1.165743 6.36090187.0057864 2.4760961.303501 4.9428745.8869784 7.3492492zm4.6629719-12.1896168c.1559383-.34538455.3800553-.65570038.6588982-.91232059.2088083-.20379002.4596368-.35947669.7349249-.45616029.1679366-.02614769.3389082-.02614769.5068448 0h1.6472455 1.0136895c.7456413.11837926 1.4822924.28772433 2.2047748.50684477.7856094.22808015 1.5458766.50684477 2.3568282.7856094h.3801336c.7520483.29167473 1.4735575.65667351 2.1540903 1.08971626 1.956874 1.41427958 4.36376 2.06332751 6.7663777 1.82464118.9448922-.20071298 1.6935046-.92113587 1.9303198-1.85763232.2368152-.93649644-.0793577-1.92617538-.8152613-2.5519172.4723454-.03664479.9468199-.03664479 1.4191653 0 1.0668622-.04970072 2.0618252.53732746 2.5342239 1.49519208.5160558 1.33880953.7239379 2.77666039.6082137 4.20681161-.0279934 2.0826702-.2829214 4.1560843-.7602671 6.1835062l-.1267112.532187c-.3353402.9764118-.4479076 2.0154954-.3294491 3.0410687 0 .532187.2027379 1.0390318.3041068 1.5458765.1196702.441742.2127587.8902589.2787647 1.3431387.4134733 4.027608-1.0547004 8.0206665-3.9787315 10.8211359v-2.863673c.0935839-4.3706797-3.2438661-8.0529996-7.6026716-8.388281h-.4561603c-4.3171257.2312098-7.6770496 3.8375281-7.6026716 8.1602009v2.9650419c-2.8252428-2.8039291-4.2317269-6.734633-3.826678-10.6944247.0599521-.4519937.1445523-.9003747.2534224-1.3431387.1365424-.5092321.2465073-1.0252213.3294491-1.5458765.1201968-1.0255664.0075876-2.0650359-.3294491-3.0410687v-.532187c-.502037-2.0229342-.7573167-4.0992089-.7602672-6.1835062-.1309036-1.39736733.0419981-2.80651576.5068448-4.1307849z"/></g><g fill="#4f2c18"><path d="m50.3657497 12.4450192c0 .6749864.5461853 1.2211763 1.2211762 1.2211763h4.3170412v.5104157c0 .6749863.5461944 1.2211762 1.2211762 1.2211762.6749909 0 1.2211762-.5461899 1.2211762-1.2211762v-1.8937776h2.1084413v6.8559954h-2.1084413v-.1621902c0-.6749816-.5461853-1.2211716-1.2211762-1.2211716h-4.3170412v-.8240571c0-.6749863-.5461944-1.2211762-1.2211762-1.2211762-.6749909 0-1.2211762.5461899-1.2211762 1.2211762v2.2074189h-2.1084412v-6.8559954h2.1084412z"/><path d="m14.3657497 12.4450192c0 .6749864.5461853 1.2211763 1.2211762 1.2211763h4.3170412v.5104157c0 .6749863.5461944 1.2211762 1.2211762 1.2211762.6749909 0 1.2211762-.5461899 1.2211762-1.2211762v-1.8937776h2.1084413v6.8559954h-2.1084413v-.1621902c0-.6749816-.5461853-1.2211716-1.2211762-1.2211716h-4.3170412v-.8240571c0-.6749863-.5461944-1.2211762-1.2211762-1.2211762-.6749909 0-1.2211762.5461899-1.2211762 1.2211762v2.2074189h-2.1084412v-6.8559954h2.1084412z"/></g></g><path d="m23.759115 15.5h24.240885" fill="none" opacity=".7" stroke="#4f2c18" stroke-linecap="round" stroke-width="2"/></g></g></svg>