<?xml version="1.0" encoding="UTF-8"?>
<svg width="56px" height="38px" viewBox="0 0 56 38" version="1.1" xmlns="http://www.w3.org/2000/svg" xmlns:xlink="http://www.w3.org/1999/xlink">
    <title>Icons/credit_card@2x</title>
    <g id="Design" stroke="none" stroke-width="1" fill="none" fill-rule="evenodd">
        <g id="Health---Root-Canal-Therapy" transform="translate(-296.000000, -3660.000000)">
            <g id="Group-11" transform="translate(-543.000000, 2370.000000)">
                <g id="Group-10" transform="translate(0.000000, 1.000000)">
                    <g id="Icons/credit_card" transform="translate(839.000000, 1280.000000)">
                        <path d="M9.56666672,9.33333333 L53.4333333,9.33333333 C54.8508642,9.33333333 56,10.4824692 56,11.9000001 L56,37.0999999 C56,38.5175308 54.8508642,39.6666667 53.4333333,39.6666667 L46.6666667,39.6666667 L46.6666667,39.6666667 L44.5870251,20.9498925 C44.442598,19.6500486 43.3438998,18.6666667 42.0360568,18.6666667 L7,18.6666667 L7,18.6666667 L7,11.9000001 C7,10.4824692 8.14913583,9.33333333 9.56666672,9.33333333 Z" id="Card_light" fill="#F5F5F5" opacity="0.300000012"></path>
                        <path d="M46.2523364,16.3393772 C47.7691229,16.341074 48.9982965,17.5654065 49,19.0762193 L49,19.0762193 L49,43.9237807 C48.9982965,45.4345935 47.7691229,46.658926 46.2523364,46.6606228 L46.2523364,46.6606228 L2.74766355,46.6606228 C1.23087705,46.658926 0.00170351175,45.4345935 0,43.9237807 L0,43.9237807 L0,19.0762193 C0.00170351175,17.5654065 1.23087705,16.341074 2.74766355,16.3393772 L2.74766355,16.3393772 Z M42.6348137,35.8128582 C41.1507291,33.9581033 38.5765946,33.371326 36.4303551,34.3985439 C35.7412012,34.0675729 34.9858524,33.8960472 34.2207757,33.8967895 C32.1219146,33.8970543 30.2370545,35.1767356 29.4695333,37.1225334 C28.702012,39.0683313 29.2082243,41.2837582 30.7455629,42.7070489 C32.2829015,44.1303397 34.5381091,44.471476 36.4303551,43.5669649 C38.5765946,44.5941828 41.1507291,44.0074055 42.6348137,42.1526505 C44.1188983,40.2978956 44.1188983,37.6676132 42.6348137,35.8128582 Z M21.8219439,42.699386 L19.053215,42.699386 C18.6738418,42.699386 18.3662991,43.0057175 18.3662991,43.3835965 C18.3662991,43.7614755 18.6738418,44.067807 19.053215,44.067807 L19.053215,44.067807 L21.8219439,44.067807 C22.2013171,44.067807 22.5088598,43.7614755 22.5088598,43.3835965 C22.5088598,43.0057175 22.2013171,42.699386 21.8219439,42.699386 L21.8219439,42.699386 Z M16.2550631,42.699386 L3.79486682,42.699386 C3.41549365,42.699386 3.10795093,43.0057175 3.10795093,43.3835965 C3.10795093,43.7614755 3.41549365,44.067807 3.79486682,44.067807 L3.79486682,44.067807 L16.2550631,44.067807 C16.6344363,44.067807 16.941979,43.7614755 16.941979,43.3835965 C16.941979,43.0057175 16.6344363,42.699386 16.2550631,42.699386 L16.2550631,42.699386 Z M31.3073271,36.6608467 C32.2033721,35.545171 33.6621512,35.0398596 35.0598435,35.361 C34.0839577,36.3152216 33.5341816,37.6201657 33.5341816,38.9822982 C33.5341816,40.3444308 34.0839577,41.6493749 35.0598435,42.6035965 C34.7848571,42.6670928 34.5035123,42.6992292 34.2212336,42.699386 C32.7868376,42.699386 31.4793905,41.8804849 30.8579988,40.5927641 C30.236607,39.3050432 30.411282,37.7765225 31.3073271,36.6608467 Z M37.8014393,35.361 C39.2999169,35.0146012 40.8582641,35.6194503 41.7263649,36.8844012 C42.5944657,38.149352 42.5944657,39.8152445 41.7263649,41.0801953 C40.8582641,42.3451462 39.2999169,42.9499953 37.8014393,42.6035965 C38.777325,41.6493749 39.3271011,40.3444308 39.3271011,38.9822982 C39.3271011,37.6201657 38.777325,36.3152216 37.8014393,35.361 Z M36.4306986,35.9887632 C37.3878212,36.6881416 37.9532519,37.7998086 37.9532519,38.9821842 C37.9532519,40.1645599 37.3878212,41.2762268 36.4306986,41.9756053 C35.4734873,41.2762848 34.9079872,40.1645968 34.9079872,38.9821842 C34.9079872,37.7997716 35.4734873,36.6880836 36.4306986,35.9887632 Z M21.8219439,38.7382632 L9.7738972,38.7382632 C9.39452403,38.7382632 9.08698131,39.0445946 9.08698131,39.4224737 C9.08698131,39.8003527 9.39452403,40.1066842 9.7738972,40.1066842 L9.7738972,40.1066842 L21.8219439,40.1066842 C22.2013171,40.1066842 22.5088598,39.8003527 22.5088598,39.4224737 C22.5088598,39.0445946 22.2013171,38.7382632 21.8219439,38.7382632 L21.8219439,38.7382632 Z M6.97563084,38.7382632 L3.79486682,38.7382632 C3.41549365,38.7382632 3.10795093,39.0445946 3.10795093,39.4224737 C3.10795093,39.8003527 3.41549365,40.1066842 3.79486682,40.1066842 L3.79486682,40.1066842 L6.97563084,40.1066842 C7.35500401,40.1066842 7.66254673,39.8003527 7.66254673,39.4224737 C7.66254673,39.0445946 7.35500401,38.7382632 6.97563084,38.7382632 L6.97563084,38.7382632 Z M19.538521,20.0346842 L3.79486682,20.0346842 C3.41549365,20.0346842 3.10795093,20.3410157 3.10795093,20.7188947 L3.10795093,20.7188947 L3.10795093,25.0408246 C3.10795093,25.4187036 3.41549365,25.7250351 3.79486682,25.7250351 L3.79486682,25.7250351 L19.538521,25.7250351 C19.9178942,25.7250351 20.2254369,25.4187036 20.2254369,25.0408246 L20.2254369,25.0408246 L20.2254369,20.7188947 C20.2254369,20.3410157 19.9178942,20.0346842 19.538521,20.0346842 L19.538521,20.0346842 Z M18.8516051,21.4031053 L18.8516051,24.3570702 L4.48178271,24.3570702 L4.48178271,21.4031053 L18.8516051,21.4031053 Z" id="Card_gri" fill="#FFFFFF"></path>
                    </g>
                </g>
            </g>
        </g>
    </g>
</svg>