<svg height="88" viewBox="0 0 88 88" width="88" xmlns="http://www.w3.org/2000/svg" xmlns:xlink="http://www.w3.org/1999/xlink"><mask id="a" fill="#fff"><path d="m0 0h88v88h-88z" fill="#fff" fill-rule="evenodd"/></mask><g fill="#55311b" fill-rule="evenodd" mask="url(#a)" opacity=".6"><g transform="translate(2.800002 12.600002)"><path d="m28.3814719 49.0870038c-.0593221.1004987-.1319045.1821539-.2324033.2310075"/><path d="m30.0100401 33.8485335c.193003 0 .3489539-.1559448.3489539-.3492285 0-.1921855-.1559509-.3486794-.3489539-.3486794-.1930031 0-.348954.1564939-.348954.3486794 0 .1932837.1559509.3492285.348954.3492285"/><path d="m44.3317558 24.7791498h4.4564801v-7.9704447h-4.4564801zm4.4564801 3.7858631c-.0766692.8608394-.3646621 1.5759179-.9509563 1.9805189l-3.506168 2.1249726v-7.4847927h4.4571243zm-8.9715896-3.7858631h4.1163006v-7.9704447h-4.1163006zm4.1163006 8.1332002-1.6197182.9817621h-.0283483c-.1179031.0928164-.2641545.1516437-.4265129.1516437-.1655798 0-.3150526-.0607882-.4323114-.15818l-1.6094098-.9752258v-7.7266383h4.1163006zm-5.7824069-8.1332002h1.2672974v-2.9178338h-1.2672974zm1.2672974 7.8913546-3.5061681-2.1249726c-.5862941-.404601-.874287-1.1196795-.9509562-1.9805189v-3.3793012h4.4571243zm-4.4571243-12.7870928h1.5391833v-3.0747065h-1.5391833zm1.9231737-1.9203843.179754-.1915155-.1114603-.2098174.2364505.0254919.14303-.2542647.13852.2509965.2409605-.0222237-.1121046.2098174.1797539.1915155-.2300077.0437937v.2601473l-.2171221-.16537-.2177664.16537v-.2601473zm1.0894764 3.2126239c-.011597-.0777828-.1114603-.0986991-.1552713-.0986991-.135943 0-.1919953.2300801-.3060327.2359628-.0850449.0045754-.1456071.0130727-.1456071-.0921628 0-.0777827.1745997-.1385709.2416047-.2058955-.950312 0-.9683518.4412047-1.1171803.4412047-.2486919 0 .2087465-.464082.3408237-.6000384-.1919952-.0307209-.3034555-.2725665-.5147792-.3928356.0992191-.1438.1559156-.0823582.2796173.0196091 0-.1019673.0747364-.2202755.2957242-.2202755.4245801 0 .3060327.4170201.3743263.4170201s-.00451-.4170201.2802615-.4170201c.4207144 0 .9477349 1.0987631.4709682 1.0987631-.2055251 0-.0399454-.1562192-.0444553-.1856328zm-1.0211827 2.3459017.2364505.0261455.14303-.2542646.13852.2503428.2409605-.0222237-.1121046.2098174.1797539.1902082-.2300077.0444473v.260801l-.2171221-.16537-.2177664.16537v-.260801l-.2300078-.0444473.179754-.1902082zm-1.7376214-2.9675101.2364505.0254918.14303-.2542646.1398087.2516501.2390276-.0228773-.1121046.2098173.1803982.1908619-.2293635.045101v.2601473l-.2177664-.16537-.2177664.16537v-.2601473l-.2293634-.045101.1797539-.1908619zm-.253846 4.225107h1.5391833v-2.9178338h-1.5391833zm3.5364492-3.8244278.1803982-.1908619-.1127489-.2098173.2370948.0254918.1423857-.2542646.1398086.2516501.2396719-.0228773-.1114603.2098173.1803982.1908619-.2300077.045101v.2601473l-.2184107-.16537-.2171221.16537v-.2601473zm-.3466223-1.0713104h1.2672974v-3.0747065h-1.2672974zm11.0500347-3.4747321v-.0078437h-14.6522004v.0078437h-.0019328l.0109527 12.0046898c0 1.1588976.4838538 2.1713807 1.1519714 2.483819l5.634867 3.4145976c.1249902.1431464.3086098.2346556.5141349.2346556.1784654 0 .3369581-.0705928.4580826-.1810574l5.7231332-3.4681958c.6674734-.3124383 1.1513272-1.3249214 1.1513272-2.483819l.011597-12.0046898z"/><path d="m39.0411964 27.9191921c-.0224759-.0495811-.5731346.184924-.4164646.1701837.0158654-.1648236.3206116-.501171.4581111-.6257937-.0251201-.1943042-.2710325-.0180904-.5281829.1185926.8560661-1.2428771.3067295-.733666-.1718742-.6445541.7641794-.8348382.5632187-.8207679 0-.5614722.4429067-.3557778.5367765-.7792271.4693489-.9025098-.4151424.5608023-.7978932.4737004-.7978932.9936318 0 .3423774-.1216341.9045197-.2954915 1.0948039-.2227755.2452253-.0522234-.9179201-.637918-.9179201-.1877395 0-.6313073-.0154103-.7648404.2170848.120312 0 .2987968.3088767.2987968.4314894 0 .1232827.1110572.46097-.0905645.46097-.1996386 0-.432991-.4274693-.432991-.6324938 0-.2050244-.0132211-.1561134-.0132211-.4502498 0-.4924608-.7912826-1.1845859-1.1125553-1.1845859 0 .3430475.4415847.4247893.4415847.8623089-.1870786 0-.4548058-.3557778-.4548058-.136013 0 .2184248.2816094.2592957.2816094.4509198 0 .1922942-.3219337-.0683415-.3219337.136683 0 .181574.1765016.1500833.2181481.3269672-.1302278-.0375209-.2472345-.0201005-.2703715.047571-.0211537.0589613.0376802.136013.1368384.1916242-.0456128.0422109-.084615.1447232-.084615.4328294 0 .9715213.6015599 1.4231111 1.0431445 1.4231111.3140011 0 .265083-.2224448.3034242-.3283071.0132211.1648236.1672469-.0824118.1672469.2050244 0 .3008366-.3040852.1695137-.3040852.4288094 0 .3470676.4812479-.0120603.4812479.3725281 0 .4649902-.0568507.45628-.0568507.6331639 0 .1226126.5043848-.1701838.4726542-.2224449.120973.044221.1156846.4053589.3404432.3966487.1447711-.0060302.1765017-.3705181.2908642-.4020088-.0674276.0187604.4561278.3463976.4561278.1802339 0-.4522599-.1831122-.2599657-.1831122-.5708524 0-.2874363.6187474-.2318251.5209113-.3792283-.0819708-.1219427-.1381605-.046901-.2036049-.2613057.011899.0395308-.4865364-.7195957.1031245-.3283072.6207305.411389.6908023-.9561109.6577496-1.0271324"/><path d="m54.9602478 31.0569019c.2897064 0 .5234309-.156738.5234309-.3489539 0-.1927455-.2337245-.348954-.5234309-.348954-.2890067 0-.523431.1562085-.523431.348954 0 .1922159.2344243.3489539.523431.3489539"/><path d="m52.8668742 32.1037638c.2891999 0 .5230808-.1562085.5230808-.348954 0-.1922159-.2338809-.3489539-.5230808-.3489539-.2899002 0-.5237811.156738-.5237811.3489539 0 .1927455.2338809.348954.5237811.348954"/><path d="m29.4873089 34.8953954c.2883069 0 .5227312-.1566192.5227312-.3486894 0-.1925993-.2344243-.3492185-.5227312-.3492185-.2890067 0-.5241307.1566192-.5241307.3492185 0 .1920702.235124.3486894.5241307.3486894"/><path d="m30.8824249 34.8953954c.2897065 0 .523431-.1566192.523431-.3492185s-.2337245-.3486894-.523431-.3486894c-.2890066 0-.5234309.1560901-.5234309.3486894s.2344243.3492185.5234309.3492185"/><path d="m72.88927 14.6017765c.8039501.8506339.9761735 2.2159045.4016133 3.1948752-.3155016-.0251515-.258335-.3863-.3155016-.5926707-.5745602-.9531743-1.0340636-2.1636669-.51667-3.2458228.3733918.0515926.2293899.4636889.4305583.6436183"/><path d="m11.5154805 15.9940141c-.1571944.6421313-.1571944 1.5253128 0 2.1138772-.1307752.1339169-.104356-.1339168-.2357916-.1071334-1.0217636-.7492647-.5495199-2.2203411-.8110703-3.2635532.052178-.0803501.1822927-.1064639.2615504-.0535668.4709227.3207308.6809555.7760481.7853115 1.3103762"/><path d="m75.3299168 15.987509c.154357.3054289-.1296078.6108578-.3367197.7500053-.2325125.0556591-.4910767-.0834885-.646085-.3054289-.0768529-.3054289.0775041-.583724.3113192-.7228715.2572616-.0271338.5158259.0278295.6714855.2782951"/><path d="m9.77071071 17.1391805c-.05538776.2688293-.13881996.5391563-.36107213.6574712-.1668644 0-.41786212 0-.52863765-.1490169-.1668644-.1497656-.19490884-.4185949-.11217775-.6290157.11217775-.2081742.33442992-.2388762.52933876-.2688293.19420773.0898594.38911657.1497656.47254877.3893907"/><path d="m76.381314 17.7343929c.0528026.1713003.0528026.2859784 0 .4579955-.1844749.2580257-.4504932.371987-.715843.2580257-.1851433-.1146781-.2386143-.3153647-.2914169-.4873818.0528026-.2286394.2653498-.429326.4504931-.5153346.2386144 0 .3976906.1433476.5567668.2866952"/><path d="m74.9090437 17.6088187c.2262967.1144003.05693.4047452.028465.5777937-.1416134.1455345-.3380219.3757832-.5934952.2888969-.1409018-.1433624-.3088452-.1433624-.3657752-.346821 0-.289621.1124367-.5785178.3949518-.6654041.2262967-.0579242.3671985.0579242.5358536.1455345"/><path d="m72.930871 18.0926744c0 .2960227.0293084.6721062-.3584643.7266013-.3577128.1069718-.5959375-.1621398-.6846142-.377429-.0300599-.2684388.1487965-.5375504.447141-.645195.2374732 0 .447141.1345557.5959375.2960227"/><path d="m12.5462236 18.1949c.0875584.3020708-.202114.484983-.3750419.6367773-.2028436.0607178-.4633299-.1214355-.5800744-.3347065-.202114-.2102352.0583723-.3939063.1167445-.5753006.2889428-.2732298.7223569-.0607177.8383718.2732298"/><path d="m11.1665265 18.2295015c0 .2463513-.0852155.4958112-.2331368.5898444-.1704311.0917018-.3403263-.0940332-.4260778-.2805452-.1061175-.3092992.0219738-.5890673.191333-.7134087.2347448-.1251185.3826661.185735.4678816.4041095"/><path d="m66.515966 18.1367421c.241292.5694916.433838 1.2475872.4831932 1.9528338-.0968824.5151898.0725094 1.1926066-.2668835 1.5455693-.3381743-.1357549-.3613285-.5966427-.5794662-.8403227-.4350566-.9489266-.0481365-2.0614378.0968824-2.9832134.1937647-.0814529.1937647.1900569.2662741.325133"/><path d="m9.75487278 18.5004609c.08044339.3243393-.16225022.4868475-.3517694.6757633-.32450045.0819312-.54060684-.1618311-.67626984-.3785087-.02726895-.2701699.135663-.5410169.35176939-.6486785.27132601-.0270847.54060685.1076616.67626985.3514239"/><path d="m70.8991022 19.463761c.3430646.7237542.3689939 1.5967553.1316411 2.3954452l-.1582352.1248929c-.3689939-.673797-.896223-1.2976369-1.0817173-2.0213911 0-.5233011.1063766-.9972696.3178002-1.4225298.1841645-.1230195.2892114.025603.368329.1754745.0265942.2741398.1589001.5988613.4221822.7481083"/><path d="m73.9782383 18.8711927c-.0271894.2728673-.1352673.5723391-.4058019.6541993-.2691751.0552556-.5383502-.0272867-.6199184-.3267585-.0808885-.2721851.0815682-.5177657.2963645-.6541993.2970442-.1637204.5940885.1098291.7293558.3267585"/><path d="m11.1665265 19.6911627c0 .2095966-.1870745.4461319-.4018389.4986953-.2147643.1576902-.3748245-.1051268-.5632497-.1833149-.0803678-.2102536-.1343966-.3942255 0-.603822.0810431-.1583473.268793-.1583473.4295286-.2102536.2411033.1314085.4815313.2365353.53556.4986952"/><path d="m12.1874426 19.6230187c.119786.2942187-.2073796.4405924-.326417.5869662-.3563635.118423-.5345452-.1463738-.6827804-.3523268-.0598931-.2942187.1190373-.4707499.3264169-.6465455.3563635-.08753.5345453.1471093.6827805.4119061"/><path d="m74.6761462 19.5414214c-.0260238.3364971-.5432461.6723471-.5939924 1.0081971-.2836591.6982314-.9030247 1.2152722-1.5991604 1.4482317-.155492.1287748-.3617303.3099656-.594643.3352029-.0507463-.5163937.4137779-.9823127.6974369-1.4462904.5419449-.6988786 1.2907787-1.1382661 2.0903589-1.3453413"/><path d="m10.5001677 20.4953264c.3693152.4439511.5670294.8355957 1.0103319 1.2272404.0254915.1052667-.0491176.2615323-.1722227.2615323-1.2080461-.0784597-2.02190726-1.3848136-2.61442805-2.2982152.07460913-.2876856.39480662-.0523065.56827283-.0784597.41843284.3393381.88722682.4439511 1.20804602.8879022"/><path d="m75.0251001 20.9372372c-.0513033 1.1417419-.5854987 2.3100667-1.577576 2.8676461-.2796029.1063322-.5854987.3980811-.8651016.2126644.5348367-1.1424064 1.3486351-2.0708193 2.2393884-3.0803105z"/><path d="m70.1237126 21.5919393c.0764453.3823447-.1289205.6121345-.4366454.7391572-.2831068.0255322-.462559-.2036193-.5914795-.4072386-.0252658-.255322.1289205-.4851118.3602-.5610701.0764453-.0765966.204718-.0765966.3077248-.0765966.1548342.0510644.2312796.1780871.3602001.3057481"/><path d="m9.08289491 21.9940472c.48843203.3511662.92381579.8376564 1.38572369 1.2700171-.3331688.24426-.74396929.0263882-1.12953947.0263882-.87206142-.3234247-1.46206143-1.1069515-2.36000005-1.3775998.02523027-.2977131.35904606-.1894538.53889256-.2706483.56476974-.0541296 1.02603072.2165187 1.56492327.3518428"/><path d="m36.8082274 14.1116916c-1.4467127-.5723704-2.4029371.9363693-3.8757049.7540442-.180432.1041858-.1289731.2865108-.2325423.416743-.0775141.0774881-.2071386.0260464-.2840013-.0260464-.0768627-.6251145-.2840012-1.1968337-.3615153-1.7959017-.1556796-.259162-.0781655-.6238121-.2064872-.8836252-.8272513-2.2634352 2.0153666-.5469752 2.5833691-1.8727387.4917911-1.1453919-.9562244-1.27497291-1.3952538-2.08111004v-.33860364c-.4136256-.41609179-.8526551-.54632396-1.1112525-1.09329907.1810833-.64985853.2585974-1.35246109.0775141-2.00297078-.0260552-.15562744-.1289731-.36399892-.360864-.28585962-.4917911.67655613-.8533065 1.22288008-1.3183911 1.87338977-.4911397-.36399891-.9562243-.83218356-1.5242268-1.14474077-.3882219-.05209287-.7490858-.44278938-1.1887667-.28585962-.0768627.15562745 0 .28585962.0775141.38939419.0260552 1.01515977.5425987 1.8212969 1.2656294 2.5499459l.0781655.39004535c-.4644332 1.06660147-.3361116 2.28883043-.4644332 3.43422233-1.1640143 2.9653865-3.0497565 5.8265873-5.6077217 7.8816509-1.4721166 1.6650183-3.2295371 3.2785949-3.4620794 5.5674253-.0768627.3646501.0521104.8067883-.2325423 1.0666015-.8526551-.3125572-1.7046588-.728649-2.402937-1.2743218-1.1881153-.8328347-2.8934255-.7293001-3.6685665-2.2380398-.3100564-.5977657.0781655-1.1961825.3615153-1.6383207.8780589-.8328348.7490859-2.315528.2846526-3.3293855-.1029178-.0260464-.1296244.1028834-.2064871.1289299-.0781655 1.5354373-1.2929873 2.6013876-.8272513 4.2931035.1035693.4935799.3621667.8061371.4911397 1.2743218-.1817347-.0520929-.4390294-.0520929-.594709-.129581-.5680024-.0781394-1.1366563-.3125573-1.7313653-.2350691-1.18811529.5469751-2.81526-.1289299-3.77213574.9630669-.1550282.0260464-.36151534.0520929-.30940502.2858596.56800248 0 1.1099498.1556274 1.67925503.1308833.90411404.1556275 1.49817163-.5984168 2.11828443-.9370204h.1550282c.2585975-.2604644.6982783-.1041858 1.0343899-.1562786 1.6271447.182325 2.8927741.9624157 4.2365689 1.769204v.1035346c-.5165435.2344179-1.1106012.3906965-1.6277961.6765561-.594709.4427894-1.2662807 1.0145086-1.4467127 1.7431576-.4136257.6505097.1296244 1.2228801.3875705 1.7685529.0254038.2604643.0514589.5723704.2840012.6765561.8272513-.8842764.051459-1.9769244.180432-2.991433.2071385-.7807418.931472-1.1440896 1.6799064-1.3524611 1.4727679-.6244632 2.5332129.5717193 3.7200254 1.2489266-.0254038 1.1968336.1302758 2.3409232-.1283216 3.5110593-.3621668.1302321-.8266.2083714-1.2154732.182325-2.0407704.1562786-3.6425113 1.2743218-5.4767946 1.8987851-.8259485.2865107-1.808228.2604643-2.63482797.5723703.64551657.1823251 1.31773967-.0514417 1.98931147-.0774881 2.5319101-.3646501 4.4697626-2.315528 7.2081598-1.9775755l.051459.0781393c-.309405.6498585-.7230307 1.1968336-1.2141705 1.6910647-.0781654-.2865107-.1029178-.5196263-.3615153-.6765561-.2064871-.1035346-.4396808 0-.5940576.2083715-.0775141.129581-.0775141.2858596 0 .3906965.128973.2337667.3361115.2858596.5686538.3633477-.0521103.2350691-.3367629.3386037-.4911397.546324-.7236821 1.2228801-2.19645.728649-3.0491051 1.5875302-.128973.182325-.5940576.2858596-.3875705.5723703.9822795.1041858 1.9385039-.1569297 2.6615346-.6778584.9562243-1.0652992 1.9639076-2.0798078 2.9194806-3.0943164.1543768.8328348-.0775141 1.6910648-.5680025 2.3669697-.2325423-.1302321-.414277-.3125572-.6982783-.3900453-.257946.0520928-.4390294.311906-.4644332.5196263.1029179.1823251.2064872.3906965.3862678.5209287-.8774075.6244633-1.9880087.6765561-2.9963434.9624158-1.8857421.2337667-3.7200254.3906965-5.63182271.4167429-.90476541-.0520929-1.93850387.2598132-2.79050759 0-.98227951.1816739-2.04142175-.1308833-2.8426179.4154406-.10356926.129581.0247524.2611155.0247524.3900454 1.19006941.781393 2.8178655.1562786 4.16100898.3906965h10.17975082c.7497372-.0260465 1.4988231-.0520929 2.0928807-.3906965 1.3183911-.7540443 2.0407704-2.1078077 2.7136449-3.4342224.2572947-.4668823.4390294-1.0138574.5419473-1.5595302.2579461-.8842764 1.0591422-1.5093909 1.9372011-1.5875302.1296244 1.3524611-.1283217 2.7055734-.4390294 3.9544999-.1550282.8328347-.6976269 1.6383207-.3615154 2.5232483.0775141.4160918.5171949.4160918.8526551.4681846 3.1266192-.0520928 6.2532383-.182325 9.559638.0527441.5940577.1035346 1.1112526.2852084 1.7574206.259162.0514589-.0781393.2325423-.1035346.1550282-.259162-.0775141-.287162-.2846527-.6511609-.6207642-.7299513-.0508076-.1549763-.2833499-.1035346-.3615154-.2070692-1.6531998-.9370205-3.6425113-.4427894-5.5810151-.4167429-1.0076833.1048369-2.0153666.2865107-2.8680217-.2858596-.3869191-.4681847-.1029179-1.950878-.1029179-1.950878 0-.5879982 1.421309-4.6824976 1.6023923-5.0211013.0508076-.3900453.2058358-.7540442.1543768-1.1968336.2064872-.5202775.1556796-1.1961825.1556796-1.7685529.1029179-.8328347.5165435-1.6129254.8005448-2.4190626.1550282-.3906965.2846526-.8067883.4390294-1.1974848.1550282-.4935799.2077899-.9624157.5171949-1.3524611.8428845.5346031 1.6668789.5189752 2.0720366 1.4748794l.3563043 2.1670633c0 .1308833.1035693.3900453.2840012.2350691.6722232-.4427894.465736-1.4312516.465736-2.1071566.1550282-.8067883-.4129743-1.1974848-.6461679-1.8994362-.1810834-.1302321-.4781122-.7507884-.4781122-.7507884-.1042206-.5730216-1.3561711-.9663227-1.0721698-1.6689253.1543768-.5984168.3100564-1.1447408.8780589-1.4826933.0840278.0586045.1198537.1204648.128973.1849297l.3107078-.2174877.0319175-2.1755284c.837022-.0032558 2.0863669.1041857 2.939022.1041857.2331937.0781393.4136257.2598132.6722232.2858597l.2058357-.2858597 2.0941835-.4082778c-.8891324.0996276-1.4297769-.9213926-2.2746155-.9213926"/><path d="m38.9795525 15.0249104c.0676971-.0069791.1353941-.0202393.2065807-.0397807z"/><path d="m16.7470323 22.3435367c.0294156.3586887-.1802648.5683606-.4495306.6874243-.239096-.0891106-.4178523-.1190637-.567193-.3586888-.1199251-.3287355.1787563-.5683606.4178523-.6881731.2398502.0599063.5385316.0898594.5988713.3594376"/><path d="m14.8337861 22.4509984c.1820316.184364.2126251.4929228.1216093.7081426-.2126251.1851353-.5468597.3394148-.7288913.0933391-.1820316-.1851353-.3632984-.4011265-.2118603-.6479736.2118603-.2159912.5766884-.4003551.8191423-.1535081"/><path d="m50.9354129 22.6621166c.007677.0132603.0153539.0265205.0237288.0397808"/><path d="m70.4607902 23.0147962c.1135344.3418846-.1413824.589751-.3677372.7140727-.2834789-.0932413-.6512161-.1554021-.6512161-.5586706.027848-.2486434.2256406-.4032685.4248614-.4662063.2549168-.0924643.4805575.1250987.5940919.3108042"/><path d="m71.7277551 22.912198c.081968.1536082.275079.4013883.0548769.5549966-.111143.0918561-.1938057.1227322-.2764683.2462363-.3028648.061752-.5772491-.0617521-.6606064-.3705123-.0555715-.3388644.1924164-.4932446.4133132-.6468528.1924163-.061752.3299558.0926281.4688846.2161322"/><path d="m8.3748949 23.4096361c-.11841305.2667432-.4185939.3781182-.80701887.2890182-.08899835-.066825-.17950513-.1782-.23984299-.2890182.03016893-.1564819.08975256-.3118501.32959555-.3786751.35901027.022275.62826797.13365.71726631.3786751"/><path d="m17.0987438 23.8584275c-.027727.2378517-.2691545.4466244-.4558042.5659231-.2691545.0290791-.4564805-.2087727-.5910577-.4167998 0-.2385974.1075265-.5368441.3219032-.5964934.2955289-.1192987.6174321.1200443.7249587.4473701"/><path d="m15.5851006 23.8840082c.0835346.0627073.1663672.2294041.0835346.3344388-.1670692.1039895-.4176728.2921113-.6956534.1666968-.168473-.1045121-.3622171-.1875992-.3074633-.3966235.1123154-.0836096.2506037-.2085016.4190767-.2503065.2218229-.0412822.3334363.0627073.5005054.1457944"/><path d="m75.723008 23.8066445c0 .2430835-.2126881.486929-.3468762.577609-.2126881.0922041-.4515429.0312427-.5850601-.1516414-.1590129-.0609614-.1066795-.3040448-.1066795-.4572103.1335171-.2126028.3200386-.3345255.5058891-.3954869.2401967.0609614.3992096.2438455.5327267.4267296"/><path d="m77.4677778 24.3566809c-.0918114.2092335-.3055238.3957369-.5817296.4190498-.1828514-.0233129-.5200077-.0693559-.4575142-.279755 0-.1626077.1219009-.3257982.2746628-.372424.3055238-.1165646.6727696 0 .764581.2331292"/><path d="m11.5015729 24.4134922c.0553856.33497-.0546933.5580502-.3295445.66994-.1924651.1118898-.3842378-.0272731-.5213173-.1391629-.1377717-.1398622-.2464661-.3636418-.1377717-.5587496.0546933-.251752.3018516-.1958071.4666239-.3076969.2478507.0286718.3849302.1398623.5220096.3356694"/><path d="m12.5453232 24.830984c.0841738.2451771-.1683476.3374067-.2242277.5226346-.1400538.091461-.3366951.1836907-.5050427.0607178-.1966413-.1836907-.4208689-.4603796-.224935-.7362999.224935-.4603796.8134442-.2152025.9542054.1529475"/><path d="m74.3246899 24.6100505c.0316444.2197302-.2438941.3739269-.4275864.5060955-.2755385.0440561-.5518488-.0881124-.6128223-.2643372-.0308727-.1762247.1227188-.3078426.3372838-.417983.2755385-.0220281.551077 0 .7031249.1762247"/><path d="m76.4209159 25.1136506c-.0519572.2460047-.0259786.5193432-.2831669.682663-.2071794.0546677-.4637182.0266505-.618291-.1086521-.1545728-.1366692-.1805514-.3826739-.103265-.5740109.1285941-.2179875.3604533-.3819906.618291-.3273229.1812009.1093354.2318592.2453213.3864319.3273229"/><path d="m10.4480195 25.4684669c.0824241.1770303-.104999.2221229-.1669483.3111948-.1454235.0890719-.29189698.022268-.41632068-.0445359-.14647348-.0896286-.08347414-.3111948-.06247435-.4225347.18689805-.3785554.56226913-.1113398.64574333.1558758"/><path d="m74.614812 26.0070556c.1022104.0275957.0517521.1931696.0252291.247671-.6152034.3311478-1.5389788.4139347-2.0784947-.1096927-.3079251-.2759565-.6921846-.3856493-1.0259858-.6064145.1280865-.3587434.5899742-.3311478.9237754-.4139347.7432899.1103826 1.333911.8547753 2.155476.8823709"/><path d="m11.506905 26.0741147c.0423271.1702544-.0835959.2340998-.1259229.3612586-.083596.1276908-.2513169.0851272-.3566054.0425636-.1883554-.1276908-.2730095-.3612586-.1470865-.5315131.2312115-.2335678.5036919-.1058769.6296148.1276909"/><path d="m13.9239399 26.183067c.1073276.2642373-.0533262.4997691-.2666314.6462405-.1890045.1177659-.3483083-.0581469-.5096372-.0875884-.1336532-.2060904-.374634-.4416222-.1336532-.6771541.2409808-.4401501.7229423-.2060903.9099218.118502"/><path d="m43.6192443 27.0675783c-.0502509.5272341-.9339955-.0754137-.8087034.6277857.1266321.5020962.2284738 1.104744.5306488 1.4811508.2519241.3512689.125962.9043024.1018416 1.3309849-.2278037.3764068-.60636.6522621-1.0103767.8533652-.7571125-.0754137-1.8686609.3764068-2.2224267-.552372-.1514225-.4022062-.4294771-.8037509-.4294771-1.2555714.0763812-.0496142.1775529-.0496142.2532642-.1250279 0-.1759652-.2016734-.2765167-.176883-.4524819.8582842-.1508274-.3537658-.9036409.3792263-.9539167.60569.6277856 1.5899363.4273441 2.1205851 1.104744.1259621.1005515.2271337.2513789.3785562.326131-.1011716-.6277857-.4040166-1.2549098-.5051883-1.9329712-.0757113-.3512689.0509208-.6780615.303515-.8785031.4549375-.3512689.8328238.1508274 1.085418.4266826"/><path d="m16.0369111 27.0883088c.0689049.2183071-.1146487.3501668-.2530377.4590468-.2061359.0869946-.3213636-.1313125-.4134299-.2407397-.068905-.2183071.0920663-.3277343.2298763-.4371614.1603923 0 .3439459.0656563.4365913.2188543"/><path d="m31.9325583 27.3650067c.3045252.9879555.2028035 1.9999919-.3051649 2.8358567-.0249506.2021538.0518204.5310497-.2277541.5057013-.6851817-.9366248-.177853-2.2534762.1017216-3.2407979.0505409-.2528507.3550661-.3536107.4311974-.1007601"/><path d="m54.1461129 27.8076645c.3649283.7073681.3905719 1.6416756.0526022 2.3490437l-.209094.2022858c-.2866825-.5809395-.5214202-1.161879-.5996661-1.79339.1301906-.4545108.2866824-.8590824.3129836-1.338879.3655859-.0752251.3386272.3792858.4431743.5809395"/><path d="m18.1456056 28.1736318c-.1531993.325014-.5876931.4064371-.8683439.6235654-.6121535.4878602-1.5062452.5964244-2.2722417.4613977.6636491-.9757204 1.6851923-1.5456822 2.910143-1.2749503.0514955.1085641.1795907.0549606.2304426.1899872"/><path d="m7.60368256 28.9631782c1.01548056.6435984 1.29029023 1.5358318 1.8939024 2.426825.08168146.0992059.35718335.1240074.24781325.3230393-.22012462.1481888-.43955703-.1494289-.74205533-.099826-1.04316919-.4210051-1.70215862-1.4614273-1.67446999-2.5508324 0-.0992059.16405514-.0992059.27480967-.0992059"/><path d="m53.0359403 29.8574411c.021274.2106044-.021274.4217367-.1898707.4850764-.2324187.0633397-.4222894-.0633397-.4855796-.2533587-.0632902-.1472648.0632902-.2317177.1058383-.3372838.1685966-.1689059.4637737-.0839251.569612.1055661"/><path d="m63.9153165 31.0930854c0-.4919923.1290112-.9580561.1795785-1.4241199.0771474-.1555706.1290112-.3370698.1030793-.5438491.6178278-.8290621 1.8774703-.5697776 2.854455-.4919923.3857372.2067794.8739054.1808509 1.2855745.2852129.1802268-.1302904.437601-.1562188.6431114-.1302904.8220416-.4401354.2826578-1.3975432.3345216-2.1488199l-.309238-.7772052c-.0777957-.1555706-.1542949-.3357733-.2055104-.5179206-.1536466-.180851-.2567259-.5179207-.4110208-.6987716-.4369527-1.1395552-1.2862227-1.7871181-2.0058332-2.6933173-1.3121547-1.7093328-3.3692035-2.6673888-5.4262523-3.3408802-2.0311169-.6987716-4.088814.2074276-5.9150688.8543423-.5646674-.1555707-.8473252-.595706-1.0022684-1.0876983-.1030793-.9833363.1030794-1.9413923.4888166-2.7445259.0777957-.6475629.5134518-1.1395552.6943269-1.7352612.4628846-1.4500483.9510528-2.8741682 1.0547804-4.4538587.0505673-.95870426-.6690433-1.63219563-1.3893021-2.04640254-.4881682-.12899402-1.0541321-.10306557-1.4139374.28521289-.3345216.69941982-1.0547805 1.16548362-1.6713116 1.5019052-.0518639.44013536.4875199.15557067.6677467.31114134.5659639.10306557 1.2097236-.07778534 1.6719599.28456469.0518638 1.03584142-.540032 1.89083182-1.0800641 2.66738882-.8745537 1.2944776-1.7996746 2.6155319-2.3397066 4.0396518l-.1030793-.1037138.1244731 6.3304299c.8200967 1.3638362 1.8437589 2.9188947 3.3730933 3.4329261.8220415.6728432 1.8508901 1.4753286 2.9568861.880919.5912475-.1821474.6424631.6469147.9251209.9833363.3085897.9587042-.3850889 1.6315474-.4369527 2.5118181l-.6690433 1.4241199c-.7714743 1.5025534-1.4645046 3.1075241-2.6482964 4.3767215-.3857371 0-.6165311.4135587-1.0022683.4401354-.2061587.2845647-.6178278.0777853-.8745537.1814991-.7974062.3370698-1.9286858.1296422-2.4687179.8802707.0512156.0777853.128363.1037138.2055104.1296422 1.5682323.0259285 3.3173397.1296423 4.9886513.0518569.2061587-.0777853.3863855-.2592844.4116691-.4919922-.230794-.4401354.0771474-.8290621.2826578-1.1654836.128363-.6222827.5400321-1.009913.7209071-1.605619.5393838-1.0617698 1.1565632-2.0976112 1.7478108-3.1593811l.7974062-1.2944776c.1802268-.4401354.4881683-.9846327.796758-1.4506965.2055104-.2067794.3085897-.4401354.4628846-.6987716.0265802-.2592845-.102431-.36235-.2573742-.5444974.1802268-.1808509.4628846-.128994.6956235-.1808509.6424631.3882785 1.3108581 1.009913 1.439221 1.7093328l.2320906.6728431.1030794.3111414-.0525122.8543423.1030794.8031335c.1290112 1.2426208-.1030794 2.5118182-.2314423 3.7550871-.437601 1.501257-2.1601282 1.3463346-3.3944871 1.6834043-.3085897.2067794-.899189.1030656-.899189.6209863 1.4904366.3111414 3.2395439.1296422 4.8337081.1037138.2567259-.1037138.3085898-.3370698.4369527-.5697776.0518638-.3370698.3863855-.6222827.2826578-.9839845-.2826578-.36235-.0252836-.9321276-.102431-1.4241198.0518638-.1296423.0518638-.3104932 0-.4926405.2061587-.7506285.1542949-1.6568277.3085897-2.3821759z"/><path d="m76.7698699 30.050658c-.8462317 1.1009231-1.7451029 2.3494936-3.2236762 2.7415865-.1066119 0-.2125574.0483989-.2658633-.0741301.8988712-.8815962 1.3759593-2.2514704 2.7759063-2.5700458.2112248-.0974106.5024084-.1954338.7136332-.0974106"/><path d="m6.28117117 31.4227438c-.10899092.0856684-.02146791.2801734-.2185323.3017252-.17449557.0862072-.37045904-.0215518-.4574316-.1939662-.08862393-.2149793.10844046-.4310361.28293603-.4736009.17449557.0862072.3495416.1508626.39302787.3658419"/><path d="m13.5958559 31.6983863c.0732461.2136297-.1731836.2136297-.2960882.2612353-1.034136.3564463-2.0924805.0238027-2.8311491-.689685 0-.094616 0-.189827.0986961-.2130347 1.0093068.2368375 2.1917973.0470105 3.0285412.6414844"/><path d="m7.61191572 31.576278c.05427673.0854781.08175863.2345307.05427673.3205431-.16351725.1917916-.40948019.2345307-.68086387.1917916-.1642043-.0635744-.24527588-.1490526-.35520345-.277804.02816894-.2131612.24596293-.3413784.46375692-.4049528.21848105.0213695.38131126.0635744.51803367.1704221"/><path d="m32.0940911 31.6240205c.0612841.2202434-.181554.369123-.3646401.4669406-.2734801.0492164-.5155521-.0492164-.6373542-.1968656-.09116-.1716422 0-.4177242.2129621-.4669406.2734801-.0492164.6986382-.0246082.7890322.1968656"/><path d="m77.800094 31.6248787c.0833978.2157855-.1640156.3231388-.3579155.4520707-.1647106.0647356-.3579155 0-.5240161-.0647357-.0277993-.1073533-.1925099-.1936675-.1369114-.3447173.1091121-.1936676.3579155-.2799818.6331282-.2584032.1383014.0857747.2481085.1078928.3857148.2157855"/><path d="m79.4895261 31.6011036c.1573898.2516354.0265637.4498509-.1055905.6459578-.1055906.1961068-.3161076.2516353-.4748255.1679912-.1580538-.1679912-.3692349-.2530412-.3944704-.5053794 0-.2249254.2364166-.3929166.3944704-.4772636.2643084-.1124628.3692349.168694.580416.168694"/><path d="m5.23119616 32.1843678c.02770402.200078-.13713486.314818-.19185029.4869281-.13782747.05737-.27496234.17211-.43980122.11474-.19323549-.086055-.33037036-.2581651-.4120972-.4589601.05540803-.257448.21886171-.4869281.49451664-.572266.21955431.05737.46750523.171393.54923207.429558"/><path d="m59.633031 32.2768307c.0603431.0851494.0309258.191054.0309258.2767356-.1795206.1697667-.4193844.3187782-.7188369.2123414-.1787664-.1277241-.3892129-.2554483-.2994525-.4470345.240618-.2336287.7490084-.3182459.9873636-.0420425"/><path d="m9.42175676 32.699443c-.04480953.2097032-.11230744.4186574-.31480115.448615-.20249372.0299576-.26999162-.2097032-.38229906-.3295336 0-.2688694-.02325558-.5384879.17980534-.6882759.26999162-.1190814.51729487.1797456.51729487.5691945"/><path d="m6.95945088 32.866204c.08262684.2756575-.11203639.4686177-.27799029.6064465-.33330827.110263-.61129856-.1378288-.74924337-.3859205.02660864-.2480918.2219721-.5506259.49856194-.6340123.25068143 0 .38932646.2763467.52867172.4134863"/><path d="m61.050919 32.7731053c.0547227.291195-.0273614.5823901-.2982387.6998898-.3256001.11677-.5971615-.1751549-.7326002-.4086948.1354387-.2335399.162116-.5539274.4884001-.6115826.2442001 0 .4070001.1160402.5424388.3203876"/><path d="m8.00842271 32.7464224c.06356904.1459032-.06303484.2079121-.10683871.3126498-.10523614 0-.16880517.1250599-.29594325.0828521-.08493677-.1036955-.25427614-.1453821-.27564388-.2912853-.02083355-.2084332.12767226-.3121288.27564388-.3960231.21207485-.0203223.33974712.125581.40278196.2918065"/><path d="m76.071962 33.0196441c-.0795927.2334387-.240127.3516262-.4546225.4698137-.2138209.0579926-.3480492-.1482849-.5079091-.236375-.1342283-.1167193-.0809417-.3795214-.026306-.5270723.2671075-.4984429.9888376-.2642702.9888376.2936336"/><path d="m78.1656857 33.1396349c-.0819037.2323761-.3819877.3387715-.6545412.3599447-.2463993-.0846929-.5189527-.2329054-.3283029-.4864547.1094343-.0846929.1644956-.1699151.3283029-.1910883.3276148-.0841635.5726375.1063954.6545412.3175983"/><path d="m65.9170168 33.1393193c.1482163.4016311-.2037974.5242018-.4394613.7092142-.2060207-.0316062-.3823981-.1233416-.5595166-.2466832-.0585454-.3391894.0881887-.6475434.4127824-.8001786.2645661 0 .4105592.1225707.5861955.3376476"/><path d="m58.8756991 33.6823657c.150554.0465911.0897241.2111344.0593092.2824955-.1802086.0943618-.4220075.3296764-.6942213.1887236-.2106235-.0943618-.3611775-.2364942-.301108-.4476287.1520747-.2589051.7847057-.2824955.9360201-.0235904"/><path d="m60.3638045 33.741546c.0214826.1928455-.0209455.290481-.1697121.3881166-.1498407.1685882-.3200899-.0242573-.4688565-.0727718-.042428-.0976356-.0853931-.2431793-.0220196-.3638593.0639106-.0964228.1707862-.1691946.2771248-.1934519.1493037.0485146.3195529.0485146.3834634.2419664"/><path d="m16.6833898 33.7845573c.1659396.170701-.0280067.3713996-.0560133.5428148-.1386331.1699867-.4439059.3128327-.6938655.1421317-.2779663-.1142768-.2499596-.4863906-.1939463-.7135157.1659396-.0571384.1659396-.2564085.3878925-.2564085.2499597.0285692.3885927.1421317.5559326.2849777"/><path d="m68.7367324 33.8127885c.0552279.2263059-.2195309.3170551-.4100672.3624297-.3292964.0907492-.4935994-.1134365-.6295981-.2955021 0-.1355566.1629223-.2257387.2181502-.338608.383834-.1361238.6302885.0907492.8215151.2716804"/><path d="m67.3252968 33.8730032c.1065442.3110564-.1886578.467754-.2965592.6228924-.1886578.0927712-.4302484.0615876-.5924399-.1247344-.1350464-.0935508-.1350464-.2806524-.1350464-.467754.1615128-.1551384.2429478-.34224.4322843-.4038276.2415906 0 .4838598.1551384.5917612.3734236"/><path d="m78.8596642 34.3534618c.0517303.328242-.4211373.1635348-.604846.2573183-1.1055682.5861463-2.5261604.1406751-3.578672-.2104266.079585-.3042099.4741939-.1869807.6850942-.3042099 1.1307701-.6324519 2.2880686.1406751 3.4181756.1875668z"/><path d="m8.3748949 33.9905916-.10146251.1784455c-.94270225.5615597-2.16538964.9453134-3.28533019.5877829l-.10274684-.152862c.94270225-.6907567 2.19043418-.8692022 3.41376374-.6907567z"/><path d="m71.5355606 34.0953328c0 .1798993-.1144607.3367489-.2857917.4266986-.2857917.0669-.6572489 0-.7429145-.2467993-.0849456-.1798993.1432558-.3592363.3714573-.4266986.2001261 0 .5427882.0219253.6572489.2467993"/><path d="m12.9112963 34.2666645c-.1114593.2386124-.0553791.4794759-.3343779.5995324-.2775967.1193062-.6112735-.1500707-.6939917-.3909341-.0841203-.3286548.1380973-.4186972.2775967-.5680175.3329758-.1808352.5846355.089292.7507729.3594192"/><path d="m11.1438786 34.3067343c.0829043.2000595-.0843095.3147889-.1405158.4582007-.1391106.1720942-.3899313.1434118-.5571451.0860471-.1939117-.1720942-.3899312-.3728707-.3070269-.6869426.1679163-.1434118.2508206-.2301759.4468401-.315506.2508207.0566477.5016414.1720942.5578477.4582008"/><path d="m73.2803304 35.0370823c-.0288019.2764174-.2289746.4914087-.4572291.5528348-.2289745.0307131-.4284272-.1535652-.5429145-.3071304-.0856854-.1835105-.0568836-.4292148.1144873-.5820122.0568836-.092907.2570563-.092907.3715436-.154333.2563363.0314808.457229.2464721.5141127.4906408"/><path d="m9.40194762 34.5996009c.07996287.2119734-.10616921.2910481-.13371944.451191-.07996288.451191-.37226416.7435681-.58527452 1.1409352-.50732751.6100049-1.22699342.6100049-1.94598737.797392l-.10684116-.2133023c.77275051-.9814568 1.59925758-1.7516046 2.69185961-2.2293753z"/><path d="m71.8768342 35.1837774c.058941.2593304-.2342907.3025521-.4376374.4095259-.2637612 0-.4678446-.1069738-.5857267-.2587901-.0869381-.2371793.2048201-.3230825.3801698-.4316771.292495-.0432217.5562562.1085946.6431943.2809413"/><path d="m12.1312026 35.0904116c-.0273953.0414702.0280801.0834653.0821858.1044629-.0267104.2314981-.2445029.293441-.4075048.3984288-.2451877 0-.4349-.0629927-.5979019-.2089258-.1082114-.189503 0-.4199514.2712132-.4824191.2451878-.0209976.5711916 0 .6520077.1884532"/><path d="m76.5651572 35.983503c.259842-.0285246.3124682-.3617753.5999388-.417433.2611576-.0556577.4946864.1106197.626252.3061175.1039367.332555-.1315656.5002239-.3394391.6393682-.1828761.1384487-.5742835-.1669732-.5486283.1941064.1828761.1377529.3394391.3339464.3657522.5558816-.0519684.1113155-.2348445.0834866-.3131259.0278289-.7571597-.3332507-1.5656298-.8891323-1.8787558-1.7233026-.1039367-.2504598-.599281-.4445661-.3131259-.6671971.7571596-.0563534 1.3827537.5837105 1.801132 1.0846301"/><path d="m79.1376125 35.402584c.1262078.1049188.0758522.2947216-.0248592.4001677-.1274826.2103648-.5054688.1260079-.7330253.105446-.1268453-.105446-.2530531-.2108921-.2026975-.3796057.1007113-.126008.2026975-.2103648.379261-.2731052.2275565-.0421784.40412.0416512.581321.1470972"/><path d="m69.5822653 36.6247438c.2282342.2767423.455829.7047788.5574795 1.0079977-.0511449.0750167-.1777286.0504314-.2275948.0504314-.862431-.4790984-1.9780292-1.0079977-2.3085531-2.015365-.0760781-.1008628-.2793791-.2269413-.2531673-.4028208.6591299-.1260785 1.2933267.3523894 1.749795.7054092.1777285.2515267.3797509.3782356.4820407.6543475"/><path d="m10.7855307 35.5032837c.1188194.1916938-.1203235.3426928-.2684717.4278305-.3278814.0428366-.5076145-.0428366-.68659566-.1713464-.20906198-.2350658.17898116-.4278305.41812396-.5135037.2376388-.0219538.3872911.1499281.5369434.2570196"/><path d="m72.9290032 36.2684364c.0278727.143895-.197253.2392255-.2830152.335755-.2265551.0239825-.4538248.09593-.6525072-.0719475-.0564601-.1199125-.1979677-.3111729-.0278727-.4304858.3116025-.3363546.7661421-.0725471.9633951.1666783"/><path d="m79.1977066 36.6131565c.075859.3378123-.1536468.5634906-.3580806.7045396-.2545779.0846294-.457726-.1128392-.6113728-.2531829-.1272889-.169964-.025072-.3385175 0-.5352808.178076-.1692588.4075819-.311013.6634455-.1967633.1015741.0839241.203791.1403437.3060079.2806874"/><path d="m61.4158959 40.2897433c0 .318927-.5647697.2390288-.7957237.4787235-.7957237.4247922-1.7447697.4247922-2.6938158.3988253v-.1597965c.9238158-.7976505 2.2577851-1.0899449 3.4895395-.7177523"/><path d="m23.7288689 41.1544671c-.0224317.19644-.1281811.3055734-.3183163.3710534-.1484764 0-.2964186-.0873067-.3599751-.2182667-.085454-.2613744.1271129-.3699621.2750552-.4796412.1912034.0218267.3599751.1751591.4032362.3268545"/><path d="m61.066942 41.5584019c-.0527676.2552659-.1312593.5388947-.3924586.6523462-.2361347.0560167-.3931181-.0850887-.5764853-.1978311-.1305996-.1141606-.0514483-.3119917-.0771725-.4545151.182048-.5091137.8627492-.5091137 1.0461164 0"/><path d="m66.3012513 41.7134665c-.6618783.3929279-1.402488.8589159-2.2765409.8589159l-1.4285094-.0251719-.1334432-.0976181c.8733857-.9804779 2.4613597-.9804779 3.8384935-.8828599z"/><path d="m17.0987438 42.3310705c0 .2724211-.1172277.4835474-.3828449.5743545-.2938112.0612947-.5000726-.0597813-.6180423-.2724211-.1172277-.2716644 0-.5433288.2351974-.6946739.324231-.2118831.6484621.1513451.7656898.3927405"/><path d="m18.1246418 42.5357936c.0669353.1201404-.0438736.1922247-.0888721.3123651-.1338707.0720843-.3116149.1201404-.4235488 0-.1563699-.096713-.2019309-.2643089-.1338706-.4078768.0669353-.1441685.200806-.1201404.2677413-.2168535.1558074.072685.3121773.1447693.3785502.3123652"/><path d="m8.3748949 45.2543653c-.26356189.290949-.68446426-.0728892-.97458151-.2186674-.9214708-.4847126-.89491544-1.4316636-1.81705012-1.9898727.10555753-.2903416.34190018.0249038.5264599-.0242963.15800436.0977928.36911942.1949783.55367914.26726.89491544.4610236 1.10603051 1.2379001 1.71149259 1.9655764"/><path d="m42.333092 44.8153454c-.1030106.3125038-.308384.5734674-.2824694.9120676l-.1030107.0528451c.0770961-.3914453-.308384-.6256601-.2060213-1.0432018-.2053734-.3131562-.2053734-.7039491-.3848322-1.0425493-.2312881-.4175417.2047256-.5995637.3848322-.8859712.3608612.1565781.4884908.4951783.7456935.8076821.154192.4429856-.1801067.7815858-.1541921 1.1991275m40.8595951-9.6178113c-.4107468-.7554895-1.1052589-1.0686457-1.9274005-1.0686457-.6673017.0521927-1.1564403.4951783-1.4389097 1.0686457-.1541921.5734674.0511814 1.094742.4884907 1.4333422.1801067.0782891.4107469.0521927.5131097-.1298293.1289252-.3392526-.2299924-.3392526-.2824695-.6002162-.1030106-.3646965.0265625-.6772004.2824695-.9120676.2572026-.2603111.694512-.1304817 1.0022482-.1304817.3083841.2094232.6174161.3914453.7709602.7561418.1548399.4429856.1548399.9388164 0 1.381802-.2824694.6517564-.9245044 1.1723787-1.5924539 1.3035129-2.1334218.3118514-25.5440495.2081184-25.5440495.2081184-2.7495421.2603111-5.8845643-.5219271-8.2486263.9381639-1.0799922.5212747-1.6190165 1.7197498-1.9014859 2.7883955-.6945121.6263125-1.4395577 1.3557056-2.0051444 2.0590023l-.077096-.0769842c.1282774-.6263125.4113947-1.1736836.54032-1.7993436.3848322-.5212747.3848322-1.2252239.6679495-1.7986913.9763337-1.5892679 1.900838-3.2052847 3.4174917-4.3261231.6426828-.8605273 1.7732085-.7039491 2.7495421-.7039491 1.0534296.4951783 2.2876138.6517564 3.5723316.5219271.0505335-.0528452.077096-.1043855.077096-.1826745-.3595655-.3392526-.9510669-.4697344-1.3618138-.8076822-1.027515-.4958307-2.0051444.1559257-3.0844886.0776367-.0511814-.0521927-.1023628-.0776367-.0770961-.1565782.9776294-.7293931 2.0815926-1.2506677 3.1868515-1.7204021.8992376-.4951783 1.8503045-.7554895 2.8007235-1.120186.3854801 0 .7456934-.3386002 1.104611-.1043854l1.3624617-.365349c.0518292.0267488.1036585.1043854.2060212.0782891 1.1557925-.3907929 2.6212647-.0260964 3.9306014-.0515403l.1814024.1565781 1.2328884.3118514c.4625761.0521927.6685974.5995638 1.1564403.6256601.2572027-.3653489-.2824694-.5212746-.4113947-.7554894.5662346-.1298294 1.2082696.0254439 1.7213792.2603111l-.2552591.2870599c-.1561356.2870599.0764482.4951783.3077362.5989113.1794588.0528451.3083841-.0776366.4360137-.1291769.3349465-.2355196-.0252668-.4697344.077096-.6785052 1.9021337.3386002 3.7271715.8076821 5.4744653 1.5644764.487195.1559257.950419.5206223 1.4900911.4945259-.5396721-.4945259-1.2853655-.7554894-1.9533151-1.0418969-.4373094-.2609636-1.0534296-.2870599-1.3870805-.6517565.0764482-.1304817.2565548-.078289.3336509-.1826745.8746187-.103733 1.6190164-.7554894 2.2364324-1.4594386.0505335-.1559257.333003-.1043854.3083841-.3125038-.2319359-.261616-.617416.0776367-.9258001.0521927-1.0793443.207466-1.5419204 1.4848826-2.6212647 1.7197497-1.3099845-.3131562-2.6471793-.6250076-3.9578117-.9642602-.6426828-.1043855-1.3358991-.1565782-1.9267526-.4168893l-1.4389098-.1311342h-2.6219125c-.0252668-.0515403-.1023628-.0776366-.0770961-.1552733.9258001-.2348672 1.7220271-.7822382 2.6478272-1.0171054l6.8868126-3.1798407c.7197788-.6517565 1.3618137-1.381802 1.9533151-2.136639.0246189-.2087709-.1030106-.4175417-.2837651-.4958308-.1794588-.0776366-.3848323-.0521927-.5131097.1043854-.3083841.2348672 0 .5212747 0 .8083346-.3083841.4162369-.7975227.7815858-1.1817071 1.016453-.1030106-.0267488-7.0934817 3.2059371-7.0934817 3.2059371-1.027515.4429856-2.0556779.938164-3.1350222 1.1730311l-1.490739.2342148c-.1023628.3131563-.3589176.4951783-.6426828.5995638-.410099.078289-.7450456.3379477-1.1817071.3379477-3.3410435 1.3035129-6.8097166 2.6853149-9.4568959 5.343881.1548399-.3131563.231936-.7039492.2572027-1.0953945-.0518292-.3907929-.0252667-.8331261-.2824694-1.1462824-.0602516-.1441823-.2494283-.5636812-.188529-.7143876l-.3770578.2453057c-.2312881.5734674-.4366615 1.6153643-.2053734 2.2155805.077096.4684295.4625761 1.0164529.1030106 1.4333422-1.2335363 1.5116313-1.9280484 3.3364189-2.7495421 5.0561686-.3090319-.0515403-.463224-.3386002-.5915014-.6256601.8739709-1.1208384 1.567835-2.3721586 1.8250377-3.8048484.1794588-.1304818.0511814-.4697344.2306402-.6256601-.0511814-.4168893.2312881-.8337785.0265625-1.1730311.16391-.5689005-.7521721-1.0940897-.1665015-1.4581338l-.4852514.23291c-1.1052589 1.460091.574009 3.6495751-.6854419 5.056821v.103733c-.3595655.4697344-.5396722.9388163-1.0275151 1.2513202-.6167681-.2603112-.8480562-.9642603-1.2082695-1.485535-.5655868-.547371-.5655868-1.6682094-.2306402-2.4243513.2306402-.7554894-.1541921-1.4072459-.2319359-2.0850987l-.2565549-.1552733c-.6167681.8076822-.8480562 2.0844463-.3602133 3.0487066.2565548.4690819.2831173 1.1208384.6685974 1.5122837.2312881.7554895.6932163 1.2506678 1.1052589 1.9278682.1030107.2609635-.1548399.3131562-.2824694.443638-.2824695-.1826745-.2325838-.5995637-.4884908-.7822382-.8487041-1.8241352-1.9533151-3.2842262-3.2892142-4.7691087-.0518293-.2355196-.2831173-.4436381-.1554878-.7032968.4891386-.4703868.5915014-1.3824544.3342987-1.9813657-.0505335-.1304818-.2047256-.2870599-.1788109-.4168892l-.386128-.3131563c.0518293.9120676-.5396721 1.7197497-.2824694 2.6846624v.0521928c-2.6471794-2.0068097-5.5729409-3.7996292-8.5550668-5.2062227l-.236471.662195c.7528199.1911558 2.7527814 1.4157272 2.7527814 1.4157272.8992376.3392526 1.7207313.8866236 2.5694354 1.3818019 3.4945877 1.9552694 5.8081162 5.1866504 7.3746555 8.7840329.0265625.2864075.2837652.5989113.1036585.8853188-.54032-.8337785-1.3106323-1.3022081-1.9526673-1.9807133-.1807545-1.2252238-.8998854-2.3976025-1.9533151-2.8927809-.386128-.5728149-1.2076217-.6250076-1.8503045-.8083345l-9.3538852-.0521927c-7.6072393-.1043855-14.5452332.2355196-22.09999538.1043854-1.05407753-.1043854-2.33944311-.4684296-2.64717933-1.5899204-.20537343-.3907929-.20537343-1.0686457 0-1.4326898.28246946-.4958308.79622697-.6517565 1.30998449-.7039492.41139473.0521927.69451205.4423332.87461871.7300455 0 .3379478-.28376518.651104-.41204259.9375115.02591463.1043854.12827741.3131563.30903195.2342148.33365084-.1298294.59085353-.4938735.66859742-.8337785.02461889-.1826745.10236278-.4429856-.07774389-.5734674-.15419204-.547371-.71977881-.9381639-1.2076217-1.0679933-.64333066-.0521927-1.31063234.1298294-1.7479417.5989113-.6161203.5212747-.59085354 1.4600911-.41074687 2.1894842.41074687 1.1469347 1.61901643 1.9291729 2.77545674 2.0850987l25.00437735.1043854c2.441158.1304817 5.1907002-.2864075 7.6577728.2087708.8992376.2864075 1.8503045.9636079 2.0815926 1.9807133-.0272104.0515403-.1036586.0260963-.1801067.0260963-2.031059-1.3289568-4.7028573-1.8241351-7.2988552-1.5116313-1.027515-.0521927-1.9526673.3386002-2.8778195.5989114-.4884908.1050378-.9510669-.1304818-1.259451-.4162369-.9251522-.8344309-2.5435208-.7822382-3.7252278-.4697344 0 .0782891-.0259147.1565782.0252667.1826745 1.2588031-.1043854 2.0038487.9903567 3.1350222 1.1208384.2565549.0515403.4619283-.2342148.6938642-.0260963-1.1810592.5728149-2.3128806 1.2506677-3.5723316 1.6160167-.3854801-.0776367-.5908535-.4429856-.8992376-.6517564-.4884907-.5467187-1.3870805-.3131563-2.0556779-.3646966-.2312881.0515403-.4366615-.1043854-.5915014 0 .2060213.4168893.6685974.651104 1.1059068.8598749.6413871.2870599 1.3870805-.0260964 1.9785819.3646965-.1548399.1826745-.3602133.2348672-.54032.365349-1.2076217.469082-2.20987 1.563824-3.5457691 1.4855349-1.4129951.1559258-2.8525527-.2603111-3.8042675-1.2513201-.4107468-1.0171054-1.4641765-1.5638241-2.5947022-1.5109789-.077096.0515403-.1801067.0515403-.154192.182022.5649389.3386002 1.0022482 1.0151482 1.5671871 1.4072459.3602134.4429856 1.0540776 0 1.3870805.4951783.4897865.3386002 1.1065547.6256601 1.6708457.7300456.4113948.182022.8746188.2603111 1.336547.3653489l-.1794588.103733c-2.3381474.7815858-5.0371559.8605273-7.65777278.7561419-.7709602-.0267488-1.51665364-.2609636-2.28761385-.2348672.12827741.1565781.3854801.2864075.61676817.3646965-.20472557.1298294-.43730936.1820221-.69386419.2094233-.30773621.0776366-.66794955.1043854-.9769815.2596587-.41074687-.0254439-.7709602.1304818-1.10461105.2609636-.43730936.4690819-.95106687.9642602-1.46417652 1.198475 0 .1043854-.02591463.261616.10236278.261616.48849075-.2087709 1.10525892-.0528451 1.5931018-.261616.84740836-.078289 1.33654698-1.0158006 2.0051444-1.4072459.71848308-.5734674 1.74664597-.4429856 2.62126474-.3118514.5137575.1298294-.05247717.3379478.1023627.6778528.2060213.1820221.3848323.3901405.6685975.3118514.0511813-.0521927.1017149-.1043854.1788109-.1298293.1548399-.2087709.1289253-.4436381.0259146-.6524089.3602134-.2348672.8480562.0267488 1.2335364-.1298294.9769815-.0260963 1.9533151-.2348671 2.904382-.2616159.1535441-.025444.3342987-.1820221.4878428-.025444-.0764481.2094233-.3342987.2348672-.2306401.5212747.0505335.2342148.308384.3392526.5131096.3914453.2572027-.1050378.4878429-.2870599.3854801-.6256601-.0511814-.1826744-.2565548-.2087708-.3854801-.2870599.5396721-.2609635 1.1564403-.3386001 1.6961125-.5995637.3854801-.0782891.7456934-.2081184 1.0793442-.3646965.3342987-.025444.6174161-.3386002.9251523-.2087709-.1289253.4429856-.3077362.8605273-.54032 1.2513202-.4094512 1.381802-.7184831 3.2059371 0 4.534894.0783917.0267487.1036585-.0260964.1554877-.0521928-.54032-1.3804971-.2319359-2.9704175.2306402-4.2739304.3595655-2.2155804 2.6212647-2.8673369 4.240929-3.7017678l.0764482.1050378c-.4373094 1.1462824-1.0786964 2.2410244-.9763337 3.6234788.0511814.2335624-.1023627.4677772 0 .6250077.4366615-.2355196.719131-.7567943.9497712-1.1997799.1801067-1.1723787-.487195-2.6318173.6951599-3.4923446 2.1068593-.8337785 4.0854412-1.9285206 6.5265992-1.9546169.0770961.078289.2578506-.0521927.2824695.103733-.5137575.5734674-1.2581552 1.1214908-1.4900912 1.8247876-.8221415 1.1469347-.7968748 3.1015516-.4366614 4.50945.231288.8076821-.4625762 1.2513201-.7968749 1.8763278-.1593749.2211666-.2047255.6008686-.3524389.8559604l.506631.0567596c.4373093-.469082.8480562-1.0425493.8739708-1.7210546.0511814.2609636.2824695.4697344.4884908.5225795.1794588-.2877123-.1548399-.4964831-.1807546-.7828906.4113948-.2342148.5921493.2864075.9258001.3907929.5396722.1304818 1.0022483.365349 1.5665393.365349l.1807546-.1820221c-.5655868-.8866236-1.6961125-1.0425493-2.673094-1.094742-.5131096-.8605273-.5131096-1.9285206-.4625761-2.9717224.1036585-.547371.2060213-1.1208384.5144054-1.6153643.1289253-.365349.4878429-.7046016.7197788-.9910091.4625761-.443638 1.0534297-.7561418 1.6190164-.8859712h.0764482c0 .0521927.0252667.0782891.0252667.0782891-.6932163.547371-.7696644 1.3028605-1.1810592 1.9807133-.4373093.651104-.6433306 1.5370752-.231288 2.2664683.154192.3392526.077096.8605273.4366615 1.0960469.3336508-.469082.3602133-1.0692981.5396721-1.5905728-.0777439-.8598749-.5908535-1.6682094-.1030106-2.5019879.2572027-.6511041.7968748-.91272 1.3877283-1.1469348 1.413643-.1298294 2.6471794.6002161 3.8800678 1.1469348.2578506.1826744.6938642.3386002.7456935.7032967-.0259147.7046016-.4107469 1.4078983-.9510669 1.7471509-.6938642.4162369-1.6954646.4684296-2.3394431-.0267487-.3848323-.390793-.5383764-1.0679933-.410099-1.5899204.2831173-.3125039.6685974-.5734674 1.1311735-.4168893.2565549.1311342.487195.3914453.8221416.2348672.1282774-.0776367.1801067-.2870599.1023628-.4175417-.2824694-.1552733-.3848322-.547371-.7709602-.5989113-.4878429-.0782891-1.0793443-.0528451-1.4129951.2870599-.5396722.4684296-.7456935 1.1723787-.5908536 1.8241352.1801067.8337785.796227 1.4339946 1.592454 1.667557 1.1823549.2877123 2.4165391-.0782891 3.1615847-1.0947421.3077362-.3386002.3848322-.7032967.5655867-1.1208384 1.2328885.7561419 2.1573929 2.0857511 2.6465315 3.4408043 0 .443638.1289253.9120676.0259146 1.3028605l.8985898.0782891c-.077096-.2081185 0-.4423332.0777439-.6250077.3342987-1.7204022 1.3877283-3.1543968 2.6465314-4.2752352.4373094-.2603112.3342987.3392526.4373094.521927.3848322.9910091 1.2853656 1.6936534 2.2357846 1.9813657 1.0780485.1820221 2.1068593-.0789414 2.7748088-.91272.3342988-.62566.7463414-1.53838.1801067-2.1894841-.3595655-.4423332-.8480562-.6778528-1.4129951-.6778528-.6679496 0-1.0793443.469082-1.413643.9649127 0 .2081185-.0259146.4429856.154192.5473711.1023628 0 .3083841.0254439.3854801-.1304818.0518293-.3914453.3848323-.5734674.6938642-.7828906.2831173-.1559258.5908536 0 .8221416.1572305.2824695.2342148.3342987.6256601.3595655 1.016453-.0511814.4951783-.3848323 1.0171054-.8474084 1.2252238-.7456934.3907929-1.8250377.2081184-2.4677205-.2348672-.3077362-.3392526-.4884907-.7293931-.7191309-1.1469347-.0518293-.4168893-.2060213-.7815858 0-1.1991275 1.1305256-.6778528 2.3128806-1.1730311 3.6746943-1.3028605.5396722.1043854 1.0028961.469082 1.3618138.8598749 1.181707 1.2252238-.2565549 2.9717223.5655867 4.3261231.3083841-.0508879.3083841-.4684296.4366615-.7293931.386128-.9375115-.1030106-1.9546169-.3336508-2.8660321-.309032-.5741198-.4884908-1.0692981-.9776294-1.5383801.1289253-.0521927.1814024-.0521927.309032-.0521927.5396721.3646966 1.1305256.7822382 1.567835 1.3550532.7450456 1.2252238 1.1311735 2.68401 1.0016004 4.2745828-.2047256.7815858-1.027515 1.1475872-1.6701978 1.4333423-.255907.2094232-.5649389.5212746-.6932164.8344309.3083841.1826745.7450456 0 1.0527818-.1304818.4884908-.1826745.7716081-.8083346 1.1059068-1.0940896.0505335.0254439.0259146.1043854.0505335.1565781.0265625.2857551-.1282774.6772004.1289253.754837.1289253-.3646965.1548399-.8859712.2312881-1.3289568.3342987.365349.3854801.8337785.4884907 1.3035129.2312881.469082.6167682 1.0947421 1.2328885 1.1730311.154192-.2348672-.0252668-.4697344-.0764482-.6778528-.077096-.6517564-.617416-.991009-.9763336-1.460091-.8998855-1.2513202-.4884907-3.2059371-1.1823549-4.6125306-.2572027-.7561419-.7968749-1.3035129-1.3877284-1.929173l.1023628-.1043854c1.2594509-.0254439 2.3128806.3914453 3.4693209.6256601 1.413643.7032967 3.4693209.5480234 4.1379183 2.3982549.2824695 1.041897.7450456 2.0068097 1.4648244 2.8144918l.0770961-.0521927c.1535441-.2596587.1535441-.7032967 0-.9642603-.1541921-1.3035128-1.2853656-1.6160167-1.876867-2.7107587l.077096-.1043855c.6167682.1826745 1.2600988.3392526 1.8762191.5995638 2.0569737.5734674 3.4945877 2.6063733 3.7524382 4.7182208 0 1.667557-.308384 3.0487066-.9510668 4.4559525-.077096.2094232-.4366615.4429856-.2060213.6256601.2831173-.2081184.3342987-.5467186.4884907-.7815858.8480562-1.4333423 1.2840699-3.4140556.8480562-5.2388431-.0259146-.3392526-.4107468-.5995638-.2319359-.938164.1295732.1565782.2837652.1820221.4373094.2342148.1548399-.1043854.3867758-.1043854.4891386-.2870599.0252668-.1565781.1276295-.3386002 0-.4690819-.1548399-.2342148-.4891386-.2342148-.7456934-.1820221-.1282775.1565781-.2824695.3646965-.309032.5734674-.2559069-.4429856-.5137575-1.0158006-.9245044-1.3811496l.0511814-.078289c1.1570882.3907929 2.20987.9642602 3.3922249 1.2767641.2565548.1565781.5396722.2877123.8998855.2877123 1.0022483.3901405 2.1068593.5460662 3.1609368.8076822.7703124-.0782891 1.4129952.2864074 2.1846032.103733v-.0515403l-.0265625.0254439c-.2831173-.3646965-.8985897-.0254439-1.2335363-.2870599-1.7732084-.1820221-3.4693209-.651104-5.0624227-1.2767641.0252668-.0776367.1289253-.0521927.2060213-.0521927.2572027-.1304818.4366615-.3646966.4107469-.6517565-.1282774-.182022-.3342987-.2864075-.5915014-.2864075-.1535442.0782891-.3595655.2603112-.3854801.4429857.0259146.2087708.2060213.4429856.3854801.4951783-.0505336.0521927-.1535442.0267487-.2299924.0267487-.7975227-.3653489-1.5684829-.7046015-2.3394431-1.0692981-.2824694-.0521927-.5137575-.2870599-.7968748-.3392526-.5908535-.2857551-1.1823549-.572815-1.7738563-.8070297-1.6429875-.8598749-3.4680252-1.3289569-5.2153191-1.954617-.3854801-.1043854-.7456934-.2100756-1.1052589-.3131562-.6420349-.1826745-1.2847177-.3392526-1.9274005-.5212747-2.1839553-.5467186-5.114252-.5989113-7.0157379.5989113-.3077362-.1043854-.4884907.3907929-.6426827.0789415.54032-1.4346471 2.1075071-1.9030766 3.5205023-1.9552693 10.3049521-.1043854 19.9685171-.1820221 30.1186293-.3386002 1.182355 0 2.3387953-.4175417 2.9549156-1.485535.4373093-.6256601.5144053-1.6949582.1801066-2.3982549"/><path d="m70.3760836 43.0054911c0 .0721258.1530978.0957637.1022796.2175895-.8928561.7515627-2.1427259.9685461-3.4189698 1.017034-.1022796.0242439-.2045592.0963697-.331283.0721257-.0765489-.0478818-.1029229-.1206136-.0508182-.1691015.9179435-.9449082 2.3209112-1.4285751 3.6987914-1.1376477"/><path d="m66.2761017 43.5818497c.104389.3812932-.1316497.5995648-.4228749.7353025-.2898954-.0266019-.4474762-.2175895-.5797909-.4365432-.0784579-.2169074.1057188-.3260432.1855065-.4617809.2101077-.2196358.7114406-.2196358.8171593.1630216"/><path d="m17.4212182 43.5146573c.0564498.2136019.0285822.4874701-.1414816.6400429-.113614.1518099-.367995.1823245-.5109057.1518099-.1979313-.0305146-.3115453-.2738682-.3679951-.4569555 0-.2738682.1414816-.426441.3679951-.5782509.227228 0 .4816091-.0305146.6523873.2433536"/><path d="m12.5623423 45.1224764v.193037c-.6246758.1390696-1.2231048-.0276756-1.6916117-.4137495-.3641755-.553511-.7808448-1.1063301-1.37927378-1.3817018 0-.0844104-.15682514-.1944207 0-.2497718 1.30118928 0 2.08269028 1.1056382 3.07088548 1.8521861"/><path d="m74.3271922 43.6505201c-.6239314.8494525-1.165173 1.8990706-2.2763586 2.274381-.1899813 0-.3519438.2495814-.515273.0750621.4339501-.9507863 1.3551543-1.9741327 2.4130358-2.3744638.107975 0 .2699375-.0250207.3785958.0250207"/><path d="m18.8416316 43.8798535c.0219191.2520475-.1517892.2978743-.3046743.4347818-.1737082.0229134-.2602884-.114567-.3698835-.2520474-.0865801-.229134.1095951-.3196419.2175463-.4342089.1737082-.0463997.3704314.0910807.4570115.2514745"/><path d="m77.4677778 43.7768257c-.2238643.3421958-.1241601.8432917-.3473973 1.2125202-.4978944.6052711-.9211674 1.2896627-1.7169205 1.42153-.123533-.262416.1743258-.5261507.2984858-.7641713.3492786-.789226.8465459-1.6852646 1.6416719-2.0274603z"/><path d="m4.78517938 44.1827835c.08675494.2128253.17350988.4256506 0 .6688795-.17350989.151258-.43377472.2113051-.66560726.1208544-.2595358-.151258-.34629074-.4864578-.2311035-.7289267.17423892-.2728724.69331051-.4241304.89671076-.0608072"/><path d="m3.40040125 44.5924976c.02826241.1463336.11163653.2634006.08337412.4097342-.08337412.1463337-.22327306.321934-.39143442.3504691-.3080603.0585334-.5037775-.1163353-.64438301-.3797358-.02826241-.2634006.05581827-.4968027.27909133-.6138697.25294859-.1177985.53345304.0292668.67335198.2334022"/><path d="m6.24033567 44.5722539c.05410899.2448057.10688195.6745585-.21109185.7351843-.37141478.1849472-.58317464-.1220191-.79493451-.3675921 0-.2755023.13226642-.4903787.3179738-.6131652.26453283-.0299292.5036812 0 .68805256.245573"/><path d="m10.4686186 44.8503474c-.0303503.1611389.0295916.39274-.210935.4383672-.1502343.1155117-.4218701.0698846-.57134565.0462047-.06070073-.1386141-.39227848-.2541259-.21093504-.4152648.1206427-.1160894.24052665-.1848189.42111132-.2535484.18058467.0687295.45222047 0 .57210437.1842413"/><path d="m79.9104555 45.0035128c-.0806239.157156-.1876708.3605012-.4031196.3605012-.2418717-.021968-.4837435-.0450626-.6172133-.2484079-.1077244-.246718.1334698-.3824693.3489186-.4495.2682947 0 .6178908.0895621.6714143.3374067"/><path d="m75.3721543 45.1486253c.0244865.2409591-.1940556.4203648-.2913895.5104429-.3397505.1794057-.63114-.1193535-.7535726-.4503908.0483609-.2687332.2197665-.4496402.4138221-.5397184.3146518-.030026.4854452.1801564.63114.4796663"/><path d="m78.5146397 45.2719163c0 .1659581-.112468.3319163-.251815.4024485-.2249358.0705322-.505752.0474166-.6748075-.0942405-.251815-.1902592-.0558803-.3556246.1131752-.4978744.2525223-.1185416.7285658-.0948333.8134473.1896664"/><path d="m4.17216342 45.6792391c.06086717.3215101-.06010633.6144577-.36215964.7316368-.27161972 0-.57367304-.1457415-.66345211-.4101267-.03119442-.2629206.05858465-.5251087.30129248-.612993.30129247-.089349.54400029.0878843.72431927.2914829"/><path d="m73.9578407 46.0191438c.0797777.3075487-.0804538.5864395-.3759018.7262343-.2143181.055219-.3495346-.0559179-.5097661-.1957128-.106821-.1397948-.2413614-.4466445-.0263672-.5857404.2143181-.4193846.7504514-.2516308.9120351.0552189"/><path d="m17.7729863 46.1270687c.1171886.3346708-.2343772.396562-.3226395.5791791-.118672.0611271-.3537909.0916907-.4413115-.0297994-.1475983-.1833813-.3233812-.3675266-.2358606-.6418344.1468566-.1222542.2054509-.2437443.3819755-.3048714.3241229-.0916906.4427949.2139448.6178361.3973261"/><path d="m79.5499465 46.4940861c.0564584.2149265-.1107997.3065977-.1397347.4614372-.1679639.1540692-.4474332.1848831-.6436263.1240257-.2519458-.1548395-.2519458-.4013502-.2519458-.6771341.1679639-.1232554.1954873-.2773246.3916805-.340493.2519458 0 .56035.1240257.6436263.4321642"/><path d="m77.9667324 46.4121763c.0993021.2923059-.1747214.4384589-.3739541.5115354-.0999306.0237498-.2495122-.0487177-.2746519.0968263.648606.3172737 1.0470713.8275912 1.5454672 1.289191v.1948706c-.8968612-.0243588-1.8201192-.2429793-2.4687252-.9244175-.1734644-.1211852-.4726277-.1211852-.6718604-.291697.3236746-.3160558.9226295-.1948706 1.3707459-.2192294.324303-.3404147-.373954-.5840029.0496511-.8750909.1495816-.0243589.2495122-.1711208.4493733-.1224031.1740929.0730764.273395.1954795.3739541.3404146"/><path d="m67.3367575 46.4521638c.0554742.151805-.1088683.3332118-.1366054.4857758-.1657293.1821659-.4132832.2117679-.6046694.1214439-.1386857-.2125269-.3591959-.3946928-.2759845-.6983026.2205102-.4554148.9347413-.3635728 1.0172593.0910829"/><path d="m9.76966924 47.4603103c-.08926068.1946024-.20927504.3246987-.50556049.3463814-.23852854-.0216827-.4463034-.0867309-.53631417-.2596505-.03000359-.151237.12001436-.2379679.14926786-.3469235.32778922-.1946024.9218603-.0645061.8926068.2601926"/><path d="m11.8644344 47.1087838c0 .382359-.3642273.6016329-.4860445.9846771-.3642273.9038199-1.0192243 1.7247268-1.94172948 1.8069545-.09794348-.2459979.31525558-.5474996.41258691-.7934976.38748887-.9305439 1.16491527-1.4232251 1.86949617-1.998134z"/><path d="m66.6485402 47.5046794c.0243153.3014251-.2225783.5211427-.4208413.6310015-.2219548.0823941-.3959025-.1098588-.5193493-.2197176-.1976395-.219031-.0735693-.4387486.0255622-.6577796.2967711-.3288898.7169889-.0549294.9146284.2464957"/><path d="m68.394975 47.4843285c-.0263645.334513-.2044853.5796698-.4597704.6713172-.0507998-.0916474-.1781209-.0305492-.2546421-.061862-.1787639-.1214328-.3324494-.3047276-.3324494-.5483569.1279641-.1535094.179407-.396375.3575278-.4276878.2295637-.0305492.6128129 0 .6893341.3665895"/><path d="m16.0493659 47.7109141c.0299647.2317122-.2128258.3583887-.4563846.4423118-.27506.0216405-.4579212-.1050359-.5793164-.2533528-.0606977-.188959.2128258-.3156354.364954-.4211991.3664906-.084451.4579212.1055637.670747.2322401"/><path d="m17.7966517 47.784848c-.0853354.1960476-.2545839.3276563-.5361906.3707977-.1976936-.0431414-.4231213-.086829-.5084566-.2621251-.0270229-.2173453.1984047-.3271102.3946761-.4357828.2816067 0 .5923697.087375.6499711.3271102"/><path d="m74.0165291 49.4662258c.1266923.0980975.3544826.2208736.3032937.3948578-.4056714.1721333-.7351994-.2720817-1.1159163-.3455006-.609147-.5916697-1.0660073-1.2326966-1.319392-1.9718211.2277903-.2227244.4818149.0487403.6852904.1233931.5835526.4682767 1.1415108 1.084625 1.4467242 1.7990708"/><path d="m74.981709 47.6822799c.0746129.1944976.0499527.4167806-.050585.6105836-.1504903.2771591-.4761312.222283-.7018667.1660176-.1258302-.1660176-.3515657-.3883006-.2010754-.638369.0752452-.2208937.3009807-.2764644.4767636-.3598205.1745182-.0270908.3003484.1389268.4767635.2215883"/><path d="m19.8717038 48.3142066c.0217867.1683287.063766.4216133-.1466619.5271485-.1902353.0422141-.4426424-.021107-.5058771-.2532845-.1052139-.2527569.1259379-.294971.2529386-.4210856.1684486-.0427418.2736625.0416864.3996004.1472216"/><path d="m68.4021636 50.0078507c.3543542.5188706.6071907 1.1669718.6576303 1.8423478-.0766171.1811826.1270567.3630146-.0249006.4928946h-.1008792c-1.1403181-.8305826-1.3931545-1.9982038-1.8234873-3.1651756-.1021562-.0513026-.1276952-.155856-.1021562-.2597601.253475-.2331346.4303328.2337841.6844462.3117121z"/><path d="m23.3551761 49.0693401c-.0247388.0241742 0 .0489683.0247388.0489683-.9808942.6929943-2.3551356 1.1138736-3.4832258.4456734-.0247388-.0743822.0247388-.1977327.1218387-.2225268.712478-.2231466 1.3989802-.5696437 2.1596989-.4704675z"/><path d="m17.4476977 49.4204881c-.9118157.5715178-1.7444313 1.6873058-2.8728624 1.9591003-.2145847.0810615-.3486155.381466-.6166771.2172994.4833232-1.4700064 2.0673237-2.2581424 3.4895395-2.3943803z"/><path d="m66.9672622 50.5497125c.0839285.241482 0 .5735196-.2254687.6338901-.1415403.1501715-.4231984.1501715-.5355771 0-.2539191-.120741-.2539191-.3924081-.2539191-.6037048.0832172-.2097874.2816581-.2399727.4224872-.3305284.2532078.0596158.4516487.0596158.5924777.3003431"/><path d="m64.5564815 50.7530094c-.1605081.4124968-.6124827.6474727-.9590189.7645923-.905964.3543053-1.7313382-.1171196-2.5305206-.3520955.0261917-.2357124.2928097-.1480569.4264545-.2953772.8784291-.2055118 1.7837215-.4110236 2.7158772-.1465837.0805898-.0589281.2672896-.0883921.3472078.0294641"/><path d="m17.4476977 51.4679089c-.0825054.1217359-.1104733.3965987-.3335174.4892405-.1929786.0911105-.3866565 0-.5530656-.1225015-.0552366-.184518-.2503128-.3368793-.1111724-.5504913.0559358-.2143778.2775815-.2756285.4439906-.3368793.2768824.0306254.4985282.2143777.5537648.5206316"/><path d="m19.1924675 51.7849332c-.0821336.1703812-.1635769.4288165-.3823697.5433585-.2201731.0565551-.3844402-.057271-.5487073-.2004485-.0814434-.1725288-.1642671-.3715455-.0814434-.571994.0545256-.1438933.2457105-.1725288.3830599-.2577194.2733183-.0279196.519719.2577194.6294605.4868034"/><path d="m66.2975543 52.042118c.023923.2054228-.0723823.3338121-.1699143.4878792-.1220685.1791031-.3649785.204139-.5348929.1027114-.1705277-.0263198-.2196004-.2317426-.2925961-.3594899-.1459914-.2047809.097532-.3338121.1711411-.5129151.266833-.2311007.7048072-.1027115.8262622.2818144"/><path d="m67.6197092 51.8917566c.029056.1424449.1154976.2841776.058112.3981335-.1743361.1424449-.2891073.5120894-.6348739.3703567-.1714304.0555535-.2578721-.1709339-.3450401-.2279118-.1154976-.2848898-.029056-.7108.3450401-.767778.2593249-.0868914.4329346.1417327.5767619.2271996"/><path d="m18.1326056 52.6787426c.0516805.280353-.0536681.5340056-.2637027.6865786-.2882179.0508577-.6579319.0508577-.7626179-.2790815-.0258402-.254924 0-.5842275.3160458-.7374362.2637028-.0254289.5777609.0254288.7102748.3299391"/><path d="m19.5414214 52.3430931c-.049656.7640082-.1992526 1.6942241-.896951 2.1306048-.3997623.0827618-.7982675.4924672-1.1967727.2195583v-.1367965c.522331-.8200947 1.4708236-1.4493584 2.0937237-2.2133666"/><path d="m62.4295916 53.1211465c.1103528.1828431-.0831138.3352125-.1662277.4883437-.1655292.2117933-.4714441.1203717-.6642123.029712-.1948636-.0921835-.2221026-.3961603-.1389887-.6087155.0551764-.1828432.2214041-.2742648.3596943-.3359744.25004-.029712.4714441.2148408.6097344.4266342"/><path d="m22.3010049 54.1315399c.3810021.5958499.1636796 1.3991775.3810021 2.0462485-.4628419.0518694-.6547185-.4402417-.9538808-.6989404-.5997002-.7773929-.5185481-1.8134845-.790889-2.7192542.0543307-.0778042.1361705-.0778042.1911888-.0525178.4085114.2586987.7083614.7508098 1.0357207 1.087961-.0536429.1808946.1643673.1808946.1368582.3365029"/><path d="m63.5096196 53.3698916c0 .1971378-.1867265.2464223-.2902891.3690173-.1454061-.0246422-.2698904-.0985689-.3938517-.22178-.0627652-.2458062.1035626-.3197328.2071252-.4423279.2071252-.0985689.4147735.0240262.4770156.2950906"/><path d="m66.6502052 55.6460431c0 .0761334-.0280024.2271314-.1632339.1763758h-.1085949c-.7854351-.6585544-1.5708701-1.3932422-1.4629582-2.4077205l.1632339-.0247434c.7307961.5830554 1.5435507 1.2162319 1.5715531 2.2560881"/><path d="m64.5530015 54.874473c.0269182.2395364-.1069999.4199373-.240245.5681505-.2940813.0905747-.74698.0598841-.8014894-.3884982-.0262452-.298672.2678361-.4483822.4010812-.5980925.3203266-.0898262.5336533.1497103.6406532.4184402"/><path d="m63.0570001 55.3440971c-.3427673.9842249-1.274106 1.4886484-1.9108501 2.2333053-.1222846-.0798559-.0728767-.2921397-.0481727-.3986144.244569-1.010178.980129-1.9937374 1.8855285-2.3930172.3921752.0532373 0 .3460425.0734943.5583263"/><path d="m64.9054355 56.103853c0 .213047-.2610861.3079984-.4058902.4266876-.2325641-.0231444-.4636655-.0706201-.6384543-.2611162-.0292533-.2367849.2025794-.3079984.3766368-.4260942.2903395-.0480691.5514256.0706201.6677077.2605228"/><path d="m45.7980452 8.94565359h-.2888964c-.7602538 0-.1156908.98470003.292863.98470003.5070562 0 .5394496-.98470003-.0039666-.98470003zm-2.3481926.98470003c.7602538 0 .0416487-.98470003-.3675662-.98470003h-.7589316c-.7602538 0-.0416487.98470003.3675662.98470003zm-3.185794 0c.7602538 0 .0409876-.98470003-.3675662-.98470003h-.7589316c-.7602538 0-.0409876.98470003.366244.98470003zm5.4982877-1.20650477c.3589721 0 .6485296.31292835.6485296.69720153 0 .38639233-.2895575.69861432-.6485296.69861432h-7.7764048c-.3576498 0-.6478684-.31222199-.6478684-.69861432 0-.38427318.2902186-.69720153.6478684-.69720153z"/><path d="m45.6596977 20.9324323c0 .3446712.4699921.1144493.8186089.1144493s.8186089.2302219.8186089-.1144493c0-.4882292-.4699921-.318209-.8186089-.318209s-.8186089-.1700202-.8186089.318209zm1.4848244.8117305c.3398508 0 .3701946-.4597822.3701946-.8567164 0-.9023639-.7282517 0-1.1004693-.8494393-.2717458.7164663-1.0195529.0529245-1.0195529.822977 0 .5299072-.003371.8831787.5333775.8831787zm-2.2366769-3.9475111 1.5165168.5709237 1.4895445-.5709237-.5900187 2.1884308 1.1807118-.2394837-.4032357 1.326422.4032357 1.2734974-1.047199-.2785155.4565059 2.3597741-1.4895445-.5696007-1.5165168.5696007.6169911-2.3597741-1.2076841.3314401.3229931-1.326422-.3229931-1.2728358 1.1550881.1858975z"/><path d="m41.795286 20.9372372v-.2923417l-.2697655-.0501157.2110897-.2129919-.1302316-.2352655.27549.0285382.1667251-.2846852.1638629.2805088.2804988-.0243618-.1323783.2352655.2118053.2129919-.2690499.0501157v.2923417l-.2547388-.1858458z"/><path d="m40.3994702 22.3330531v-.2911433l-.2697655-.0508455.2110897-.2138301-.1309471-.2347255.2762055.0285571.1674406-.2848746.1631473.2806955.2797833-.024378-.1309471.2347255.2110897.2138301-.26905.0508455v.2911433l-.2540232-.185273z"/><path d="m42.4922946 22.3330531v-.2923418l-.2688662-.0494197.2109456-.2143839-.1301427-.2352655.2760169.0292342.1673262-.2846852.1623208.2805089.2803073-.0250579-.1301426.2352655.2102304.2143839-.2681511.0494197v.2923418l-.2545648-.1858459z"/><path d="m42.7814058 23.3275718v-.1661021l-.1479565-.0279163.1158528-.120738-.0725825-.1333004.1528419.0160518.0921238-.1612167.0893322.159123.1549356-.0139581-.0725824.1333004.1158527.120738-.1479565.0279163v.1661021l-.1395816-.1053841z"/><path d="m40.9275524 24.4267768v-.4872903l-.4488937-.0825686.3514594-.3566694-.2178353-.3905089.4600291.0466986.2790796-.4744312.2721201.4683401.4662927-.0406075-.2178353.3905089.3514594.3566694-.4481977.0825686v.4872903l-.4238392-.3086172z"/><path d="m41.7003236 0 .9103935 2.28126662 2.3072869-.69135329-1.169947 2.15242653 1.964911 1.41989754-2.371197.40312339.1434718 2.46058015-1.7849192-1.64968451-1.7868756 1.64968451.1441239-2.46058015-2.3705449-.40312339 1.9655632-1.41989754-1.1705992-2.15309065 2.3066347.69201741z"/><path d="m33.4468113 50.0078469c-.2659256.1028459-.3697632.178834-.3045481.4644445l.3159449 1.3789219c.0576172.2554772.0766119.65769-.0886419.9039963-.1962783.2967466-.6109956.4860618-.9098453.5600846-.2184388.0543708-.6926727.1460806-1.0731995-.0203071-.2519961-.1113619-.4153504-.2312397-.5223538-.6983044l-.3311406-1.4444289c-.0823103-.3629087-.2140068-.3393262-.4982939-.2960915l-.024693-.1080866 1.6829288-.4185896.0259594.1080866c-.3267085.0949851-.4799323.1375646-.3931899.5181602l.3298743 1.4444288c.0569841.2463063.1937458.8430749.9104785.6648959.8769212-.2174832.7357273-.881724.6724117-1.1588185l-.3020154-1.3186555c-.0595167-.2646482-.1532238-.3969722-.5856694-.3065726l-.0246931-.1087416 1.09536-.271854z"/><path d="m36.0470694 50.4943918c-.1615194-.2745722-.5882496-.6899181-1.2077397-.5586561-.2731871.0583386-.5324158.2460369-.4692703.519975.0518457.2257452.1734838.2961321.6553832.3798354l.8421608.1426761c.1947539.032974.6500658.1915029.7557513.6506028.0850802.3690554-.1336025.9492714-1.0993954 1.1540909-.4985167.1065314-.7683804.0145846-.9305645.0488269-.111003.0234623-.1189793.1052632-.1242968.1762842l-.1522138.032974-.239288-1.0380476.1515491-.0329741c.2027301.4026636.6181607.8116683 1.284179.6702605.6307897-.1337984.5603327-.5554855.5470389-.6100194-.0644748-.2809134-.3343385-.3303744-.7058996-.3874448l-.3828608-.0596069c-.9770927-.1534561-1.0601788-.5155362-1.1047129-.7083074-.059822-.256817-.0285817-.8623976.9684517-1.0748264.4207481-.0887762.6999174-.0038047.8514665-.0348764.1203086-.0259987.132273-.0951174.1402493-.180723l.1575313-.032974.2100417.9112245z"/><path d="m39.3479581 52.1676272-1.8144484.1754659-.0094634-.1068053c.3684416-.0616674.489573-.0820113.4561357-.443115l-.2145036-2.2651633c-.3533001.0514954-.8750487.1233348-.9122714.8213839l-.1476289.0139865-.0656129-.8652504 3.0491061-.295622.0914795.8627074-.1463672.0146222c-.1671867-.6777053-.6920897-.6490967-1.0447589-.6312958l.212611 2.2645275c.0359609.3649182.1577232.3617395.536259.3464816z"/><path d="m41.4239588 50.3824174c.6624678.0093549.9279558-.0855309.9386004-.6748918.00814-.4583919-.1953591-.6581866-.6004788-.6668733-.2780111-.0046775-.2892818.04477-.3168324.1844259zm2.1940332 1.6117218-1.0387846-.0213828-1.0218784-1.4419965-.1365009-.003341-.0162799.8900553c-.0068877.3628379.103941.3782067.4383057.4256496l-.0025046.1135956-1.7106446-.0354151.0012523-.1135956c.3456354-.0294013.4464457-.0407608.4527072-.4082762l.0369429-2.0052973c.0075138-.3909027-.1490239-.4029304-.4370534-.426986l.0012523-.1135956 1.6311234.0347469c.3544014.0066821 1.426372.0654845 1.4125966.8279118-.0100184.5586233-.5347329.688256-.8089871.7597544l.9943278 1.3137003c.0695028.0835262.1452671.0895401.2053776.0908765z"/><path d="m45.6623986 51.1533064-.3872312-1.0888617-.610144.9666233zm1.4330104 1.1897867-1.65656-.2049843.0140117-.1053131c.3190836.0181791.4120701.0250746.4292662-.1140891.0146486-.1140891-.1101826-.4469536-.1643185-.5905053l-1.1502297-.1416711c-.1808778.2858497-.2846914.449461-.2936079.5165354-.0203806.160477.2241865.2031037.3967846.2331932l-.0133747.1059399-1.0381364-.1278801.0140116-.10594c.2795963 0 .3693983-.1347756.562377-.4325357l1.4266415-2.1733354.143301.0169253.8598062 2.3620213c.1732351.4801774.2369244.6337589.4834022.6556991z"/><path d="m50.1951682 53.041001-3.0863844-.5500207.020795-.1087023c.3045465.0227819.4668819.0384038.5165216-.2265174l.3930931-2.1050496c.0529938-.2864013-.1630062-.3339179-.4011427-.3905472l.0201242-.1087023 1.8635026.3319651-.020795.1080514c-.3763229-.0527238-.5426831-.0781094-.6137887.3046269l-.3830309 2.0523257c-.0389068.2095937.0717764.2655721.4293166.3287106.8063104.1438515 1.173242-.1640299 1.5099873-.6112064l.1549564.0273383z"/><path d="m52.4276909 53.389955-1.8293676-.3602327.0237666-.1033658c.2858593.0358995.493817.0594198.5499326-.1962092l.4390218-1.9899454c.0600767-.2723408-.1848513-.3280469-.421857-.3887047l.0224462-.1021278 1.8293675.3602327-.0224462.1027468c-.2475687-.0396132-.4990985-.0847971-.5611557.1943524l-.439682 1.9899453c-.0574359.2636755.1485412.3175247.43242.3899426z"/><path d="m54.3652594 52.9171083-.4105341-1.0928731-.5872035.9896643zm1.4572052 1.1707546-1.6580238-.1715925.0108036-.1070078c.3196573.0120304.4124405.0170959.4264216-.1241038.011439-.1158724-.1194743-.4489265-.1766695-.5932921l-1.1508935-.1190383c-.1753984.2931635-.2758077.4596905-.2821627.5287074-.016523.1620948.2281451.2000857.400366.2266794l-.010168.1070078-1.0390452-.1070078.011439-.1076411c.2789853-.0044322.3666845-.1430992.552251-.4482932l1.375861-2.2250036.1436234.01393.9100384 2.3668365c.1830244.4818519.2503876.6357153.4963268.6528112z"/><path d="m41.7199067 18.6770526c-.2871751 0-.6744995.2237671-.6744995-.1616854 0-.5457736.3269935-.4236567.6147719-.4236567.2865718 0 .7330205-.1221169.7330205.4236567 0 .3854525-.3867211.1616854-.6732929.1616854m.8524757-.2128517c0-1.1140602-.5514245-.0709505-.8566989-1.0165032-.2238276.8002405-.8880709.1262101-.8880709.9871679 0 .3281463.076017.5178026.216588.6235463v.3281463c0 .0859593.0609342.1548632.1357445.1548632h1.044328c.0754136 0 .1357445-.0689039.1357445-.1548632v-.355435c.1260916-.1214346.2123648-.314502.2123648-.5669223"/><path d="m51.8193121 31.4058559c.2899002 0 .523781-.1562086.523781-.348954 0-.1922159-.2338808-.3489539-.523781-.3489539-.2892 0-.5230808.156738-.5230808.3489539 0 .1927454.2338808.348954.5230808.348954"/><path d="m49.5486699 15.7029279s-.2456636.3777139-.2456636.448016c0 .1380477.1123631.2498919.2491531.2498919.1367899 0 .2477573-.1118442.2477573-.2498919 0-.0076693-.2512468-.448016-.2512468-.448016"/><path d="m33.8446951 15.7029279s-.2442678.3777139-.2442678.448016c0 .1380477.1109673.2498919.2477573.2498919.1374879 0 .2484552-.1118442.2484552-.2498919 0-.0076693-.2519447-.448016-.2519447-.448016"/><path d="m37.6831885 15.7029279s-.2442677.3777139-.2442677.448016c0 .1380477.1116652.2498919.2477573.2498919.1374878 0 .2484552-.1118442.2484552-.2498919 0-.0076693-.2519448-.448016-.2519448-.448016"/><path d="m41.522031 15.7029279s-.2449657.3777139-.2449657.448016c0 .1380477.1116653.2498919.2477573.2498919.1374879 0 .2491532-.1118442.2491532-.2498919 0-.0076693-.2519448-.448016-.2519448-.448016"/><path d="m45.7087805 15.7029279s-.2442677.3777139-.2442677.448016c0 .1380477.1116652.2498919.2484552.2498919.1374878 0 .2484552-.1118442.2484552-.2498919 0-.0076693-.2526427-.448016-.2526427-.448016"/><path d="m33.852721 20.9372372s.2442678.3777139.2442678.4486551c0 .1380477-.1109674.2492529-.2484553.2492529-.1374878 0-.2484552-.1112052-.2484552-.2492529 0-.0083084.2526427-.4486551.2526427-.4486551"/><path d="m33.852721 26.1715466s.2442678.3777139.2442678.448655c0 .1374086-.1109674.2492529-.2484553.2492529-.1374878 0-.2484552-.1118443-.2484552-.2492529 0-.0076693.2526427-.448655.2526427-.448655"/><path d="m34.549582 30.358994s.2456636.3777139.2456636.448016c0 .1374086-.1123631.2498919-.2491531.2498919-.1374879 0-.2484552-.1124833-.2484552-.2498919 0-.0076693.2519447-.448016.2519447-.448016"/><path d="m37.6905166 32.4527177s.2449657.3780069.2449657.4482446c0 .1379215-.1116653.2496633-.2477573.2496633-.1374879 0-.2491532-.1117418-.2491532-.2496633 0-.0070237.2519448-.4482446.2519448-.4482446"/><path d="m49.547274 20.9372372s-.2435698.3777139-.2435698.4486551c0 .1380477.1116652.2492529.2477573.2492529.1367899 0 .2477573-.1112052.2477573-.2492529 0-.0083084-.2519448-.4486551-.2519448-.4486551"/><path d="m49.547274 26.1715466s-.2435698.3777139-.2435698.448655c0 .1374086.1116652.2492529.2477573.2492529.1367899 0 .2477573-.1118443.2477573-.2492529 0-.0076693-.2519448-.448655-.2519448-.448655"/><path d="m49.199018 30.358994s-.2449657.3777139-.2449657.448016c0 .1374086.1116653.2498919.2491531.2498919.13679 0 .2477573-.1124833.2477573-.2498919 0-.0076693-.2519447-.448016-.2519447-.448016"/><path d="m45.7087805 32.4527177s-.2442677.3780069-.2442677.4482446c0 .1379215.1109673.2496633.2484552.2496633.1374878 0 .2484552-.1117418.2484552-.2496633 0-.0070237-.2526427-.4482446-.2526427-.4482446"/><path d="m41.870636 34.8953954s-.2442678.3773683-.2442678.4476061c0 .1379214.1109674.2503018.2477573.2503018.13679 0 .2484553-.1123804.2484553-.2503018 0-.0083008-.2519448-.4476061-.2519448-.4476061"/><path d="m48.0339939 27.2909937c.0484216.0737285.170444.0985221.3234562.0450201l.1465561-.4208394c.0122668-.0293608-.1685072-.1963916-.2756803-.1696406-.4131977.0991745-.8509289.1494143-1.0943281.5454599 0 .2720775.194332.5193614.3893096.6433296.1459104-.0489348.1697984.0991745.2672872.1735554.0245336.1239682-.0490672.2231427-.1697984.2231427-.2924664-.2975236-.8025072.0991746-1.0220184-.2727299.0968432-.3712521.2924664-.7927439-.0245336-1.1392023.0245336-.0743809.146556-.1481093.0729552-.2231427-.1213768-.3458059-.4861529-.0737284-.7056641-.0737284-.3641304-.0502397-.6565968.1487618-.8761081.4456329.0245336.1233157.0729552.2479364.1949777.3712521.0974888-.0247937.1459104 0 .170444.0991745l-.2433992.1487618c.0729552.0743809.0729552.172903.0974888.2720775-.1710897.0743809-.3408881-.1729029-.4138433-.2968711 0-.1976966.0245336-.5448075-.2433992-.5943948-.0484216 0-.2111182.0717711-.2111182.0717711-.0587515.0756858-.0994256.2303198-.0994256.4097474 0 .1761653.0955519.4430231.0955519.4430231s.7502119.5617715.920656.9082299c-.2195113.4449805-.2195113 1.0641689-.7301977 1.3114528-.1459104.0991745-.1459104.2479363-.1459104.3966981l.1220224.0991746c.3163544-.172903.9238841-.2224903.8761081-.7672978.1220224-.2231427.2427536-.471079.4616192-.643982.2440448-.0495872.4629104.0743809.5597536.2720775-.0729552.3719045-.3157088.6191884-.6565968.7425041-.0484216.0495873-.0245336.1246207-.0245336.1983491.0974888.1735554.3654216.0991745.5106864.0750334.4144889-.2733825.5849329-.7679502.9490633-.916712.0484216.2472838-.4867984.3223172-.1459104.5696011.2188656-.0495873.511332.0247936.6565968-.27273-.170444-.4201868.5836417-.6191884.1220225-.9904404 0-.3712521.388664-.5193614.3641304-.9160595-.1459105-.3960457-.6081753-.3960457-.7289065-.7672978.1459104-.099827.3647761-.0743809.5106865 0"/><path d="m30.184517 31.4058559c.2890067 0 .523431-.1563272.523431-.3492189 0-.1923619-.2344243-.348689-.523431-.348689-.2897064 0-.5234309.1563271-.5234309.348689 0 .1928917.2337245.3492189.5234309.3492189"/><path d="m5.05983233 46.4108759c.28945162 0 .52343094-.2341177.52343094-.5238014 0-.2889427-.23397932-.5230605-.52343094-.5230605-.28945161 0-.52343093.2341178-.52343093.5230605 0 .2896837.23397932.5238014.52343093.5238014"/><path d="m21.1316372 50.0600154h-.0588l-.0576-.0732h-.0072v.0468c0 .0192.006.0192.024.0216v.0048h-.0948v-.0048c.0192-.0024.024-.0024.024-.0216v-.1056c0-.0204-.0084-.0204-.024-.0228v-.0048h.09c.0204 0 .0804.0024.0804.042 0 .0288-.0288.036-.0432.0408l.0564.0684c.0036.0036.0084.0036.0108.0036z"/><path d="m21.3165502 49.881223c-.0027916-.0097707-.0125623-.0258226-.0328017-.0258226-.0083749 0-.0167498.0048853-.0167498.0125623s.0034896.0111665.0160519.0174477l.0244268.0097707c.0062812.0020938.0181456.0111666.0181456.0251247 0 .0125624-.0104686.0293121-.0411766.0293121-.014656 0-.0230309-.0048853-.0272184-.0048853-.0041874 0-.0048853.0027916-.0055832.0048853h-.0048854v-.0341974h.0048854c.0041874.0132602.0125623.03001.0341974.03001.0195415 0 .0209373-.0139582.0209373-.0167498 0-.0083749-.0083749-.0111665-.0188435-.015354l-.0111666-.0048853c-.0286142-.0118645-.0286142-.023031-.0286142-.0300101 0-.0083749.0055833-.0272184.0362912-.0272184.0139582 0 .0216352.0048854.0265205.0048854.0034896 0 .0041875-.0020937.0055833-.0048854h.0048853v.0300101z"/><path d="m21.3654037 49.8560983c-.0048853.0006979-.0090728.0041874-.0111665.0090728l-.0328017.083051h-.0041874l-.0279163-.0649054h-.0006979l-.0314059.0649054h-.0034895l-.0348954-.083051c-.0034896-.0062812-.0055833-.007677-.0118644-.0090728v-.0034896h.0481556v.0034896c-.0055833.0006979-.0097707.0013958-.0097707.0062812 0 .0013958.0006979.0027916.0006979.0048853l.0195414.0495515h.0006979l.0195414-.0425724-.0062811-.0132603c-.0020937-.0020937-.0034896-.0041874-.0125624-.0048853v-.0034896h.0523431v.0034896c-.0069791.0006979-.0125623.0006979-.0125623.0055832 0 .0020938.0013958.0055833.0027916.007677l.0174477.046062h.0006979l.0181456-.0474578c.0006979-.0006979.0013958-.0027916.0013958-.0048853 0-.0062812-.006979-.0062812-.0118644-.0069791v-.0034896h.03001z"/><path d="m21.2873912 50.0612154c.03-.0048.0624-.018.0768-.0624-.0048.0024-.0072.0036-.012.0036-.006.0024-.0096.0024-.0132.0024-.0204 0-.0528-.0096-.0528-.0516 0-.0132.0108-.0528.0624-.0528.0252 0 .0648.0144.0648.0696 0 .0444-.0396.09-.126.096z"/><path d="m21.2673477 49.8822698c.0146561 0 .0244268.0013958.0348954.0062812.0083749.0041874.0181456.0118644.0181456.0265205 0 .0174477-.0181456.0328017-.0481557.0328017-.0118644 0-.022333-.0041875-.022333-.0125624 0-.0041874.0027916-.0083749.0097707-.0083749.0104686 0 .0209372.0125624.0314059.0125624.0055832 0 .0160518-.0027917.0160518-.0146561 0-.007677-.0090728-.0146561-.0174477-.0181456-.0111665-.0048853-.0237288-.0055833-.0355933-.0062812l.0160519-.0474577h.0523431l-.0069791.0174477h-.045364z"/><path d="m50.0943895 29.1952316c-.0933211 1.0331033-.4421488 1.8930535-1.1539634 2.3795618l-6.7068894 4.2803684h-.0366849c-.1415906.1130663-.319866.1834905-.5155185.1834905-.2014448 0-.3822946-.0730086-.525816-.1905976l-6.6959484-4.2732613c-.711171-.4865083-1.0606423-1.3464585-1.154607-2.3795618v-13.3515189h16.7894276zm.5013595-13.8309201v-.0103375h-17.7908593v.0103375h-.003218l.014159 13.6480757c0 1.3923311.587601 2.6089249 1.3985291 2.983659l6.8420441 4.3611301c.1506009.1725069.3745715.2829889.6249294.2829889.2156039 0 .4093256-.0852843.5560649-.2183796l6.9475935-4.4257394c.8122152-.3747341 1.3991726-1.5913279 1.3991726-2.983659l.014159-13.6480757z"/><path d="m44.1999036 35.3008799.2344971-.1130611c-.0977071.0355933-.1709874.0732804-.2344971.1130611"/><path d="m29.0328417 53.2113764-.636833-.9736636-.3613598 1.0897712zm1.6751063.8253739-1.6572927.190568-.0120878-.1060114c.3149174-.0574228.4065298-.0725672.3899887-.2126536-.012724-.1154767-.213126-.411425-.3009211-.539522l-1.1502439.1325142c-.1075172.3230821-.1698645.5073399-.161594.574859.0184497.1615411.2659303.1463966.4408844.1344072l.012724.1066424-1.0389094.1192627-.0120878-.1053803c.2722923-.066257.3270052-.2189638.4440654-.5559284l.8645915-2.4622393.1437805-.0170375 1.3983606 2.1069751c.2837437.4284624.381718.5641317.6266538.5281636z"/><path d="m59.6859603 48.3944693c-.2313203.469714-.5925958.8082996-1.1078682.8865852.0253413-.625633.5925958-1.0685994.3866168-1.7725181-.3352845-.4951568-1.0058534-.6504234-1.6237905-.5205997-.23197.155919-.1286556.4162189-.2066288.6517282l-.1026646.8591853c-.5159222 0-.5419133-.4690617-.6959102-.8337424.0253413-.5473473.2573113-1.0946946.7985748-1.3549945.4126078-.2094142 1.082527-.1826666 1.4951348.0521904.3352845.0776333.7219012.2342047.8499071.5473474.3872666.3646807.2839522 1.0157565.2066288 1.4848182zm-2.0877306.2609522c.2839522-.286395-.0766735-1.9290894.7219013-.86049 0 .2087618.0253413.5219045-.1806378.6778235-.1293054.1043809-.3352844.3131427-.5412635.1826665zm.2839522.6517282c.0253413.4162189-.3606257.3124904-.5666047.4690617h-.6192367c-.1286556-.2081094-.0766735-.5212521-.0766735-.7293615.411958.0776333.8758981.0776333 1.2625149.2602998zm.7212515 3.1797031c-.2053293.2609522-.0253413.677171-.2833024.912028 0 .4697141-.3872666.7039187-.7219013.8859329-3.0669431.6778234-6.0825539-.3646808-9.0461827-.8859329-4.1494701-.912028-8.9948504-1.1729803-13.2222936-.2081094-1.9844162.3640284-3.9168502.8337424-5.8239431 1.3810897-1.1864911.155919-2.4743473.3385856-3.6088564-.0254428-.9272304-.4436188-.5419132-1.6426943-.8252156-2.4764367.0513323-.6517283-.179988-1.1729803-.2053292-1.797961-.0773234-.2087617-.1293055-.469714-.1033144-.6784758.385967.0521905.7732335.3385856 1.1858413.4436188 2.165054.4162188 4.097488-.2870474 6.1078953-.6517282 1.9337336-.4168712 3.9175-.7567615 5.9538983-.9126804 2.3197006-.0254429 4.6907335-.155919 6.9071198.234857.7212514.0260952 1.340488.2087618 2.0350987.2609522 1.4444522.1826666 2.7849403.5734426 4.2534343.6771711.23197.0776333.5152724.0776333.7738833.1304761 2.3190508.3653331 4.9220539 1.016409 7.1384401 0 0 .9387757-.385967 1.7986133-.5152724 2.7106414zm-13.0923385 1.9016894c.1280059.3653331.359976.7052234.2313203 1.1475375-.2573113.4951568-.7732335.4951568-1.2365239.5995377-.2326198.0260952-.4132576-.0521904-.5925958-.1826665.0253413-.1043809-.0266408-.1820142-.1033144-.2602999.0766736-.3392379-.5932455-.6778234-.1293054-.9648709.411958-.390776 1.3918204-1.2760564 1.8304192-.3392379zm.5666048.1050333c.3092934.0782856.3346347.4168712.3606257.677171-.025991.5734426-.3346347 1.0685994-.8758981 1.2780136-.2839522.155919-.7219013.2081094-1.0058534.1037285.6192366-.0260952 1.2891557-.2609522 1.5471168-.8865852zm.6699191 3.4660981c-.0513323.0260952-.0513323.078938-.0513323.1043809-.7478922.0260952-1.2371736-.4162189-1.8037784-.8076472l-.0266408-.1304761c.69656.0521904 1.2631647.4958092 1.8817515.8337424zm-.9525717 2.398151c-.0266408.0776333-.1559463.0776333-.2066288.0260953-.7732335-.9909662-1.134509-2.032818-1.6244402-3.1275126l.1033144-.0260952c.6185868 1.0164089 1.108518 2.1365464 1.7277546 3.1275125zm-1.2891558-.625633-.1293054.0521905c-.1286557-.1043809-.0773234-.3914284-.0513323-.5473473.1539969.1298237.2839521.3124903.1806377.4951568zm-.7219012-1.5637562c.025991.2609522.2833024.3646807.1293054.5988853-.0526318-.1037285-.2066288-.3379331-.1293054-.5988853zm-.1539969-1.642042h.0513323v-.0776333h-.0513323zm-1.4951348 3.7531456c-.4899312.0260952-1.2371737.3124903-1.7011138-.1037286.0253413-.2094141-.205979-.3131426-.1806378-.5219044.4119581-.155919.7725838.3385855 1.1598504-.0260953.5925957.0260953 1.2111826-.0782856 1.8037784.0521905.2839521.0782857.7219012-.469714.7732335.0782857-.205979.8598376-1.2371736.2602998-1.8551107.5212521zm-1.1345091-3.1014174.1286557-.2087618c-.2066288.6262854-.5159222 1.2773612-.8512067 1.8762466-.1539969-.6243282.490581-1.1201375.722551-1.6674848zm.7219013-.4958092c.3346347-.3646808.6439281.2087618.7732335.4958092.3866168.5727902 1.3911706 1.0946947 1.0052036 1.8762466-.4905809.4436188-1.2638145.0260952-1.8044282.3646808-.2833023-.0260953-.7738833.0521904-.9278802-.2342047.2833024-.8337424.5419132-1.7725181.9538713-2.5025319zm-.0773234-.9896614h-.1026646l.1539969-.1565713c.0773234.0521904-.0266408.1043809-.0513323.1565713zm.591946.0515381c.1033144-.155919.2319701-.390776.4126079-.390776 0 .0260952.0253412.0528428.051982.078938-.1546467.1298238-.2833023.2602999-.4645899.311838zm.3612755.3914283c.0513324-.0521904.1806378-.0521904.2326199 0zm.6959102.8076472c-.025991.0521904.0259911.1304761-.0519821.1826666l-.5925957-.4690617c.2839521-.0521904.4905809.0776333.6445778.2863951zm-.0779731-1.5109135h.025991v-.078938h-.025991zm1.1091678-1.6948847c-.3092934.1050332-.5412635.469714-.8505569.5473473.1552965-.2863951.5412635-.5734426.8505569-.5473473zm-1.2891558-.3385856c-.0513323-.234857.2319701-.051538.3352845-.1559189l.7992246.0521904c-.4132576-.0521904-.9285301.9120281-1.1345091.1037285zm-1.8811018.7293615c.1286557-.3646807.1552965-.6765186.3872666-.9642185.2566616 0 .4892814 0 .6946106.1043809.0519821.5212521.69656 1.2251708 0 1.6681372-.2313203.1043809-.5672545.3385855-.823916.1043809-.3352845-.2870475-.3872666-.5473473-.2579612-.9126805zm-.3866167 1.6159468c-.0259911-.1037285.0513323-.2342047.0773233-.3646808.1286557-.1304761.2579611.1043809.3092934.1826666-.0773233.1304761-.2326198.2087618-.3866167.1820142zm-.0513323-1.1977708h.0253412v-.2863951h-.0253412zm-.2833024-.7828567c-.3352845-.0782857-.516572-.4684093-.876548-.4684093.3092935-.1043809.6179371-.078938.9792126-.0267476.1286557.183319-.0773233.3392379-.1026646.4951569zm-.2839522 2.1111036c.0779732-.3385855.2319701-.7808996.4119581-1.0946947-.0253413.339238-.179988.8082996-.4119581 1.0946947zm-.5672545 0c-.4379491-.0521905-.8505569-.1820142-1.2365239-.3124903-.2586109-.2602999 0-.5473473 0-.8343948.3606257-.5727902 1.3911706-.8591852 1.8817516-.3392379-.0779732.5740949-.2839522 1.0692518-.6452277 1.486123zm.2319701.7039186v.1037286h-.0519821v-.1037286-.0260952h.1039642c-.0259911 0-.0779732 0-.1039642.0260952zm-.6439281 1.5115659c-.3606258.8343948-.7738833 1.6420419-1.2638145 2.4496891-.0506826.1298238-.2579611.1565714-.4113083.1826666 0-.3646808.3606257-.6517282.5152725-.9642185.5412634-.7039187.6959101-1.4593754 1.3138472-2.1365465.1546467.1552666-.1539969.2596475-.1539969.4684093zm-2.4490061-.2609523c.6192366-.2602998 1.2631647-.8069947 1.9590749-.5727901-.4899312.3914283-1.2891558.5466949-1.9590749.5727901zm.9272305-1.7979609c-.1280059-.912028.2332696-1.6942324.8258654-2.3459606.3606257-.0776333.7732335-.1559189 1.1078682.0521905-.6699191.1826665-1.520476.3385855-1.6757725 1.1990755.0266408.3385855-.0766736.5212521.0779731.8076472.2839522.4951568.9278803.2870474 1.288506.6784758 0 .1298237-.1026646.2857427-.2313203.3118379-.4392486-.2602998-.9798623-.3640284-1.3931199-.7032663zm-12.0871348-8.3661287c.0773233-.2081094 0-.5212521.2833023-.5734426.1806378-.051538.46459-.051538.4899312.1565714-.0253412.3131427-.0513323.6249806-.1286556.9126804-.3612756.0260953-.5412635-.1833189-.6445779-.4958092zm.0773233.8754947c.3866168.2863951.9272305.155919 1.3924702.2342047.0766736.2863951.0766736.6517282-.1293055.8865852-.437949-.1050333-1.0052036-.0528428-1.2371736-.4690616.0513323-.183319-.0779732-.4436188-.0259911-.6517283zm-1.2105328-.745671c.0766736-.4684092.1793382-.9635661.6172873-1.302804.6192366-.3392379 1.4697935-.2602999 2.037048.0782857.179988.1037285.3092934.2609522.4132576.4951568.1280059.4429664-.0786229.9120281-.3879163 1.1729803h-.2573114c0-.4175235 0-.8343947.153997-1.1729803-.0253413-.3131427-.2833024-.3392379-.4892814-.4690616-.4385989-.1304761-.8252157.0776333-1.1605001.2616046-.2573114.3118379-.4886316.7032663-.3339849 1.1455803.1799879.2876999.0246915.6771711.1280059.9909661l-.0773234.1037286c-.3086436-.3379332-.7212515-.7039187-.6432783-1.3034565zm24.1833664 11.0780749c.615338.2798713 1.8551108.551914 2.7479031.6536854-.0799224.3542426-.7089057.0221809-.635481.5199473-.7985748-.3124903-1.7264551-.4690617-2.3190509-1.0940423.0506826-.0267476.1033144-.1050332.2066288-.0795904zm-16.0917048.4162188-.3599759-.3379331c.1799879-.2355094.5666047-.1056857.8499071-.262257.6699191-.2081094 1.4438024-.4677569 2.1910449-.311838-.7732335.625633-1.7777873.7032663-2.6809761.9120281zm27.8357579-11.8850696c-.3086437-.8076472-.9532216-1.3549945-1.7524461-1.6152944-.8245659-.1826666-1.7011138-.0521904-2.2423773.5734425-.9272305.7554568-.2833024 2.0067228-.2573114 3.0231317 0 .2081094.0253413.3646808-.1812875.4690617-3.7362125-.3385856-7.2164132-1.2773612-10.9272845-1.6674848-.8538057-.1480904-1.7082613-.1096-2.5191819-.2818285l-1.0376924-.1102523c-3.2215898.1043809-6.4431797.2870475-9.4587905 1.0692518-.6439281.2081094-1.3664791.2602999-2.0104072.4951569-.4632904-.0782857-.8505569.2602999-1.288506.1304761l-.8486076.1989761c-.0799224.0137-.17414.0097857-.2852517-.0169619-.4126078-1.0685994.8245659-1.7196752.4379491-2.7621794-.3352845-.5995378-1.0052036-1.1729803-1.7784371-1.0685995-.876548-.1043808-1.6491318.390776-2.0623894 1.0685995-.591946 1.302804.1552965 2.6584509.3866168 3.9358121-.0519821.4162188.4132576.8846281 0 1.2245184-.8245658-.574095-1.9070928-.8865853-2.9122964-.5995378-.3092934.1565713-.8758982-.0521905-1.0298951.3124903 1.1078682.5995378 2.5250299.5219045 3.7622035.4690616.1546468-.0521904.2573114-.0782856.3866168.0260953.1033144.6778234-.1293054 1.5905039.2839522 2.1893892.4632903.6262854 1.2371736.781552 1.9837664.8598377 2.3723325-.0782857 4.4847545-.7808996 6.6498085-1.3288993.3359342-.0260952.5925958-.2087618.9538713-.2087618 1.1592005-.2602998 2.423015-.4684093 3.6601887-.4945045-.5419133.7032663-.8505569 1.4848182-1.0831768 2.3453083-.3092934.7039186.5412635.8082995.7992246 1.1984231-.7992246.234857-1.3658293.7828567-2.1130718 1.0946946-1.6497815-.0521904-3.0416019.574095-4.5887188.7554568-.0253412.3398903.5419133.2355094.5932456.5740949-.0773234.234857-.3086436.2609522-.4892814.390776-.025991.1565713 0 .1826665.1546467.2087618.1546467-.1826666.4892814-.0521905.6445779-.2348571.5152724 0 .9532215-.1565713 1.4425029-.1826665.4392487-.1820142.9272305-.2081094 1.3151468-.5205997.5406137-.1572238.8758982-.5212521 1.4178114-.6778235.7725838 0 1.468494-.2609522 2.1903952-.3131427v.1565714c-.5938953.9642185-1.2111826 1.9545322-1.8304192 2.8672127-.1026646.1820142.025991.3646807.1806377.4162188.3612756.1050333.7212515 0 1.0045539-.1559189.5419132-.9381233 1.0311946-1.8247086 1.4697935-2.7882747.1806377-.8865852.8245659-1.3556469 1.4691437-1.9551846.1033144-.0515381.2579611-.2087618.3606258-.0515381-.5159223.5995378-.8505569 1.1729803-1.2365239 1.8240561-.2072786.7300139-.2586109 1.6674848.385967 2.2670226.3092934.2616046.7732335.1826666 1.1864911.2087618 1.0045538-.5205997 2.2930598.3131427 3.0669431-.6778235.4632904-.0782856.539964.4690617.7979251.7306663.4385988.1304761.902539.5721378 1.340488.2602999-.025991-.2870475-.3352844-.5479997-.4892814-.8076472-.3099431-.5479997-.6959101-.9909661-.9798623-1.486123-.1293054-.3646808-.3606257-.5995378-.4126078-.9648709.4645899.1565713.8765479.469714 1.3924701.5479997.4379491.1826666.9792126.155919 1.3918204.4168712.3352845.4429664.8499072.7032663 1.288506.9903137.6432783.3124903 1.3651796.3646808 2.0357485.625633.2579611.0260953.6452277.2342047.8245659 0-.1033144-.1298237-.2319701-.2081094-.385967-.2870474-.0779732-.3385856.4632903-.1565714.6445778-.4168712-.063678-.128519-.1760893-.1794047-.2995467-.197019-.3697226-.1989761-1.2878562-.2681284-1.5315223-.4025188-.3086436-.0515381-.5925958-.1820142-.9012394-.2870475-1.5464671 0-2.397024-1.4071849-3.6341977-1.928437.2833024-.2602999.7212515-.4684093.902539-.8598376.2319701-.3653332.3092934-.9642185.0773234-1.3810897-.2326199-.8082996-1.2638145-.7039187-1.8557605-1.1462327l.0773233-.0789381c1.0045538-.0515381 1.8817516.1820142 2.7836408.3646808 2.4736975.3385855 4.7674071 1.2773612 7.3457187 1.3295516 1.4165118 0 3.194949.0782857 3.891509-1.3034564.1280058-.8076472.2833023-1.6152944.411958-2.4229415.3092934-1.3034565 1.1592005-2.502532 1.0305449-3.9364645z"/></g></g></svg>