<svg height="88" viewBox="0 0 88 88" width="88" xmlns="http://www.w3.org/2000/svg" xmlns:xlink="http://www.w3.org/1999/xlink"><mask id="a" fill="#fff"><path d="m0 0h88v88h-88z" fill="#fff" fill-rule="evenodd"/></mask><g fill="none" fill-rule="evenodd" mask="url(#a)"><g fill-rule="nonzero" transform="translate(-15.65 12.5)"><path d="m19.50036 82.280011h76.1090001c7.8858859-.0090388 14.9918199-4.761905 18.0111109-12.0469006s1.358853-15.6711138-4.208641-21.2559403l-.6171-.55539c-.652142-4.1548164-4.207736-7.2322745-8.41313-7.28178h-11.5191999c-4.7667167.0113089-8.628091 3.8726833-8.6394 8.6394v7.8166c-.0204696.3493904-.0204696.6996795 0 1.04907-5.6454763 5.6774918-14.801 5.7782025-20.57.22627 0-.43197 0-.84337 0-1.27534v-7.8166c-.011309-4.7667167-3.8726834-8.6280911-8.6394-8.6394h-11.5192c-2.5451209.0126748-4.9545059 1.1496033-6.5824001 3.10607-1.6278941-1.9564667-4.0372791-3.0933952-6.5824-3.10607h-11.5192c-4.2432856.0109732-7.84728292 3.1088402-8.49540999 7.30235-5.92336361 5.4311885-7.90344206 13.9424783-4.98562002 21.4304928 2.91782203 7.4880144 10.13457451 12.4156151 18.17099001 12.4071681zm64.8366401-32.5006109c.0112626-2.4946294 2.0307706-4.5141374 4.5254-4.5254h11.5191999c2.49463.0112626 4.514138 2.0307706 4.5254 4.5254v7.8166c0 5.6802486-4.604751 10.285-10.2849999 10.285-5.6802486 0-10.285-4.6047514-10.285-10.285zm-49.3680001 0c.0112627-2.4946294 2.0307707-4.5141374 4.5254001-4.5254h11.5192c2.4946294.0112626 4.5141374 2.0307706 4.5254 4.5254v7.8166c0 5.6802486-4.6047514 10.285-10.285 10.285-5.6802487 0-10.2850001-4.6047514-10.2850001-10.285zm-24.684 0c.0112626-2.4946294 2.0307706-4.5141374 4.5254-4.5254h11.5192c2.4946294.0112626 4.5141374 2.0307706 4.5254 4.5254v7.8166c0 5.6802486-4.6047513 10.285-10.285 10.285-5.6802486 0-10.285-4.6047514-10.285-10.285zm-4.11399999 5.32763v2.48897c.01433482 6.4643367 4.33496779 12.1268127 10.56608979 13.847561 6.2311219 1.7207483 12.845286-.9220414 16.1749102-6.462931 2.7757334 4.6328085 7.9105291 7.3228028 13.2995201 6.9672941s10.1259106-3.6967343 12.26899-8.6540341c3.3059226 2.4813522 7.3239722 3.8303204 11.45749 3.84659 4.1041477-.0839616 8.0745558-1.4746853 11.33407-3.97001 2.5944407 6.4233814 9.3951713 10.0887966 16.1870288 8.7243834 6.7918571-1.3644131 11.6494121-7.371856 11.5619011-14.2988534v-2.48897c2.73838 4.7599588 2.732312 10.6185585-.015922 15.3728345-2.748235 4.7542761-7.821997 7.6834685-13.3134379 7.6863187h-76.1090001c-5.506131.0266247-10.6068725-2.8909191-13.3752111-7.6505933s-2.78223105-10.6358492-.03642889-15.4085599z" fill="#a7958a"/><path d="m69.9380001 53.4820001c1.1360497 0 2.057-.9209503 2.057-2.057v-6.84981h2.65353l-4.71053-8.1662901-4.71053 8.2280001h2.65353v6.7881c0 1.1360497.9209503 2.057 2.057 2.057z" fill="#a7958a"/><path d="m56.8760501 15.38636c.0999494.2489837.1556396.5135124.16456.78166 0 .30855-.12342.6171-.18513.90508-.1362799.5486761-.2393172 1.1050778-.30855 1.66617-.5580424 5.3596601 1.8763377 10.5919965 6.33556 13.61734.5453552.3709946 1.1917863.5649239 1.8513.55539h.32912c1.6358282-.2729903 2.8305997-1.6945068 2.81809-3.35291v-4.114c-.0278682-.6384475.1993311-1.2617653.6315059-1.7325271.4321749-.4707619 1.0338367-.7503107 1.6723341-.7770129 1.3222611.1901008 2.2787066 1.3610761 2.20099 2.69467v3.97001c.0166696 1.7436547 1.3670616 3.1834766 3.10607 3.31177.694692.0344253 1.3814041-.1607456 1.95415-.55539 5.0810626-3.2735328 7.5130094-9.4195752 6.04758-15.28351 0-.30855-.14399-.59653-.18513-.90508.0090956-.2662383.0576199-.5296564.14399-.78166l.16456-.57596c.4545142-1.9496649.6959132-3.9429312.71995-5.94472999.0656731-1.76949035-.2573127-3.53186929-.94622-5.16307001-1.0159545-2.07165945-3.0839752-3.42139817-5.38934-3.51747-2.653046-.033579-5.2782646.54354681-7.67261 1.68674l-.6171-.22627-.32912-.12342c-.67881-.22627-1.37819-.47311-2.057-.67881-.7755954-.23125561-1.5659057-.40993447-2.36555-.53482-.4289945-.06488373-.8620514-.09925333-1.29591-.10285-.28798 0-1.4399 0-1.72788 0-.5127418.04379106-1.0175572.15443552-1.50161.32912-.7661133.24937012-1.4682559.66363423-2.057 1.21363-.6051991.58889135-1.093728 1.28678973-1.4399 2.057-.7085462 1.6252694-1.032359 3.39216112-.94622 5.16307001.0046967 2.00981839.2463482 4.01207359.71995 5.96529999zm3.78488-9.89416999c.1265733-.28034463.3084865-.53222437.53482-.74052.1694872-.16541399.3730818-.29178304.59653-.37026.1363121-.02122378.2750878-.02122378.4114 0h1.33705.8228c.6052283.09608706 1.2031594.23354249 1.78959.4114.63767.18513 1.25477.4114 1.91301.63767h.30855c.6104289.23674898 1.1960695.53301424 1.74845.88451 1.5883718 1.14795427 3.5420132 1.67477891 5.49219 1.48104.766958-.16291638 1.374598-.74767526 1.5668181-1.50781852.1922202-.76014326-.0644137-1.56345413-.6617381-2.07136148.3833973-.02974415.7685227-.02974415 1.15192 0 .8659596-.04034149 1.6735595.43614244 2.057 1.21363.4188765 1.08669611.587612 2.25378291.49368 3.41462-.022722 1.69047919-.229644 3.37344519-.6171 5.01907999l-.10285.43197c-.2721917.7925421-.3635613 1.6359541-.26741 2.4684 0 .43197.16456.84337.24684 1.25477.0971349.3585568.1726937.7226128.22627 1.09021.3356115 3.2691626-.856088 6.5102816-3.22949 8.78339v-2.32441c.075961-3.5476298-2.6330083-6.536526-6.171-6.80867h-.37026c-3.5041607.1876703-6.2313718 3.1148769-6.171 6.62354v2.40669c-2.2932167-2.2759165-3.4348434-5.4664232-3.10607-8.68054.0486624-.366878.1173314-.7308237.2057-1.09021.1108299-.4133378.2000871-.8321602.26741-1.25477.0975624-.8324403.0061588-1.6761655-.26741-2.4684v-.43197c-.4074976-1.6419921-.6147051-3.3272801-.6171-5.01907999-.1062529-1.13422679.0340893-2.27801616.4114-3.35291z" fill="#55311b"/></g></g></svg>