<svg height="88" viewBox="0 0 88 88" width="88" xmlns="http://www.w3.org/2000/svg" xmlns:xlink="http://www.w3.org/1999/xlink"><mask id="a" fill="#fff"><path d="m0 0h88v88h-88z" fill="#fff" fill-rule="evenodd"/></mask><path d="m26.5958827 42.4758751c.1309337.3261686.2038879.6727011.2155736 1.0239745 0 .4042005-.1616802.808401-.2425203 1.1856548-.1785266.7187656-.3135055 1.4476519-.4042004 2.1826826-.7310355 7.0211543 2.4580023 13.8755147 8.2995832 17.8387146.7144153.4860029 1.56124.7400503 2.4252029.7275609h.4311472c2.1429348-.3576174 3.7080854-2.2198039 3.6916977-4.3923119v-5.3893398c-.0365073-.8363662.2611237-1.6529124.8272728-2.2696105.566149-.616698 1.354326-.9829069 2.1907575-1.0178867 1.732162.2490319 2.9851055 1.7830095 2.8832968 3.5300175v5.2007129c.0218371 2.2841874 1.7908506 4.1703542 4.0689515 4.3384185.9100465.045097 1.8096393-.2105767 2.5599364-.7275609 6.6561917-4.2883278 9.8420419-12.339643 7.9223295-20.0213972 0-.4042005-.1886269-.7814543-.2425203-1.1856548.0119151-.3487722.0754821-.6938498.1886269-1.0239745l.2155736-.7545076c.5954135-2.5540609.9116462-5.1652396.9431344-7.787596.0860318-2.3180322-.3370796-4.6267485-1.2395481-6.7636214-1.3309004-2.7138737-4.0400074-4.4820314-7.0600351-4.6078855-3.4754901-.0439885-6.9145264.7120463-10.0511187 2.2096293l-.808401-.2964137-.4311472-.1616801c-.889241-.2964137-1.8054288-.6197741-2.6946698-.8892411-1.01603-.3029449-2.0513364-.5370141-3.0988704-.7006142-.5619828-.0849977-1.1292873-.1300218-1.697642-.1347335-.3772538 0-1.886269 0-2.2635227 0-.6716918.0573663-1.3329999.2023105-1.9671091.4311472-1.0036083.3266748-1.923415.8693608-2.6946698 1.5898552-.7928108.7714477-1.4327836 1.6856945-1.886269 2.6946699-.9281954 2.1291028-1.3523901 4.4437309-1.2395481 6.7636214.0061527 2.632862.3227162 5.2558163.9431344 7.8145427zm4.9581926-12.9613622c.1658111-.3672514.4041173-.6972139.7006142-.9700811.2220283-.2166923.4887372-.3822358.7814543-.4850406.1785689-.0278031.360365-.0278031.5389339 0h1.7515355 1.0778679c.7928491.125874 1.5761388.3059406 2.3443628.538934.8353477.2425203 1.6437487.5389339 2.506043.8353476h.4042005c.7996618.3101412 1.566851.6982487 2.2904694 1.1587081 2.080767 1.50382 4.6400372 2.1939603 7.1947686 1.9401623 1.004715-.2134204 1.8007233-.9794545 2.0525317-1.9752422.2518083-.9957876-.084382-2.0481248-.866877-2.7134834.5022505-.0389648 1.0067647-.0389648 1.5090152 0 1.134407-.0528473 2.1923628.5713466 2.6946699 1.5898552.5487282 1.4235719.7697716 2.9524555.6467207 4.473152-.0297657 2.2145276-.3008336 4.4192131-.8084009 6.5749946l-.1347335.5658806c-.3565711 1.0382301-.4762654 2.1430998-.3503071 3.2336039 0 .5658807.2155736 1.1048147.3233604 1.6437486.1272467.4697094.2262287.9466227.2964137 1.4281751.4396511 4.2826027-1.1214752 8.5284685-4.2306318 11.5062404v-3.044977c.099509-4.6473949-3.4492407-8.5628487-8.0840096-8.9193573h-.4850406c-4.5904502.245848-8.1630966 4.0804885-8.0840096 8.676837v3.1527638c-3.0041137-2.9814506-4.4996447-7.1610141-4.0689516-11.3715069.0637478-.4806102.1537042-.957379.269467-1.4281751.1451872-.5414725.2621142-1.0901298.3503071-1.6437486.1278067-1.0904968.0080681-2.1957768-.3503071-3.2336039v-.5658806c-.5338217-2.1510097-.8052636-4.3587368-.808401-6.5749946-.1391913-1.485837.0446571-2.984201.538934-4.3923119z" fill="#55311b" mask="url(#a)"/></svg>