<svg height="88" viewBox="0 0 88 88" width="88" xmlns="http://www.w3.org/2000/svg" xmlns:xlink="http://www.w3.org/1999/xlink"><mask id="a" fill="#fff"><path d="m0 0h88v88h-88z" fill="#fff" fill-rule="evenodd"/></mask><g fill="none" fill-rule="evenodd"><g fill="#a7958a" mask="url(#a)"><g transform="translate(12.800002 15.200002)"><path d="m60.0052575 13.2188796c.1474039.0162294.2951424.0473499.4417097.0948672 1.1623323.3754532 1.799967 1.6222792 1.4243632 2.7844442l-3.6546626 11.3081028c-.3756038 1.1623323-1.6222792 1.8001343-2.7844442 1.4243464-1.1623323-.3756205-1.799967-1.6222792-1.4243464-2.7846115l3.6546458-11.3081028c.3282706-1.0155977 1.3217828-1.6308123 2.3427345-1.5190463"/><path d="m45.5598446 19.5527289c.2313957.0252644.4624567.08784.6854866.1905709l10.7927749 4.9744208c1.1092936.5113125 1.5940031 1.8248969 1.0826907 2.9341905-.5111284 1.1092937-1.8248969 1.5940032-2.9341905 1.082858l-10.7927749-4.9744208c-1.1092936-.5113124-1.5941704-1.8250641-1.082858-2.9343578.4085815-.8862637 1.3294793-1.3739848 2.2488712-1.2732616"/><path d="m10.2476643 50.6859005c8.8101006 7.4682401 20.9365376 8.6764165 30.7970372 3.9553095 1.241472-.5943003 1.6492169-2.1630389.8541562-3.2865543-.6279473-.8872676-1.8051705-1.188768-2.7834571-.7147666-4.0570366 1.9659428-8.5415612 2.7123317-13.0485059 2.2190893-13.2146491-1.4462647-22.788874-13.3737649-21.34260938-26.5882466 1.44626463-13.214649 13.37376488-22.78887398 26.58824658-21.34260936 10.6945614 1.17036338 20.0308821 9.64918176 21.3650295 21.51561226l4.4977424.4922386c-1.6997458-21.02588336-23.8024639-32.78355964-41.7775387-23.3078828-17.90279511 9.4381984-20.58785465 33.9708218-5.1501008 47.05781"/></g></g><path d="m31.4277353 44.1617313c.0720135.1793927.1121383.3699856.1185655.563186 0 .2223103-.0889241.4446205-.1333862.6521101-.0981896.3953211-.172428.7962086-.2223103 1.2004755-.4020695 3.861635 1.3519014 7.6315332 4.5647709 9.8112932.3929284.2673016.858682.4070277 1.3338617.4001585h.2371309c1.1786142-.1966895 2.039447-1.2208921 2.0304338-2.4157716v-2.9641369c-.020079-.4600014.1436181-.9091019.455-1.2482858.311382-.3391839.7448794-.5405989 1.2049167-.5598377.9526891.1369676 1.641808.9806552 1.5858133 1.9415097v2.8603921c.0120104 1.2563031.9849678 2.2936948 2.2379233 2.3861302.5005256.0248034.9953017-.1158172 1.4079651-.4001585 3.6609055-2.3585803 5.4131231-6.7868038 4.3572813-11.0117687 0-.2223102-.1037448-.4297998-.1333862-.6521101.0065534-.1918247.0415152-.3816175.1037448-.563186l.1185655-.4149792c.3274774-1.4047335.5014054-2.8408818.518724-4.2831779.0473174-1.2749177-.1853938-2.5447117-.6817515-3.7199918-.7319952-1.4926306-2.2220041-2.4651174-3.8830194-2.5343371-1.9115196-.0241937-3.8029896.3916255-5.5281154 1.2152961l-.4446206-.1630275-.2371309-.0889241c-.4890826-.1630275-.9929859-.3408758-1.4820685-.4890826-.5588165-.1666197-1.128235-.2953578-1.7043787-.3853378-.3090906-.0467487-.6211081-.071512-.9337032-.0741034-.2074895 0-1.0374479 0-1.2449375 0-.3694304.0315514-.7331499.1112708-1.08191.2371309-.5519846.1796712-1.0578783.4781485-1.4820684.8744204-.436046.4242962-.788031.927132-1.0374479 1.4820685-.5105075 1.1710066-.7438147 2.444052-.6817515 3.7199919.003384 1.4480741.1774939 2.8906989.5187239 4.2979985zm2.727006-7.1287494c.0911961-.2019883.2222645-.3834676.3853378-.5335446.1221155-.1191808.2688054-.2102297.4297998-.2667723.0982129-.0152918.1982008-.0152918.2964137 0h.9633445.5928274c.436067.0692307.8668764.1682673 1.2893996.2964137.4594412.1333861.9040618.2964137 1.3783237.4594412h.2223102c.439814.1705776.8617681.3840367 1.2597582.6372894 1.1444219.8271011 2.5520205 1.2066782 3.9571229 1.0670893.5525932-.1173812.9903978-.5387 1.1288924-1.0863832s-.0464101-1.1264687-.4767823-1.4924159c.2762377-.0214307.5537206-.0214307.8299583 0 .6239239-.0290661 1.2057996.3142406 1.4820685.8744204.3018005.7829645.4233744 1.6238505.3556964 2.4602336-.0163712 1.2179902-.1654585 2.4305673-.4446205 3.6162471l-.0741034.3112344c-.1961142.5710265-.261946 1.1787049-.1926689 1.7784822 0 .3112343.1185654.607648.1778482.9040617.0699857.2583402.1244258.5206425.1630275.7854963.2418081 2.3554316-.6168114 4.6906578-2.3268475 6.3284324v-1.6747374c.0547299-2.5560672-1.8970825-4.7095669-4.4462054-4.9056466h-.2667723c-2.5247477.1352164-4.4897033 2.2442687-4.4462054 4.7722604v1.7340201c-1.6522626-1.6397978-2.4748047-3.9385578-2.2379234-6.2543289.0350613-.2643356.0845373-.5265584.1482068-.7854963.079853-.2978099.1441628-.5995714.1926689-.9040617.0702937-.5997733.0044375-1.2076773-.1926689-1.7784822v-.3112344c-.2936019-1.1830553-.442895-2.3973053-.4446205-3.6162471-.0765552-.8172103.0245614-1.6413106.2964137-2.4157716z" fill="#55311b" fill-rule="nonzero" mask="url(#a)"/></g></svg>