<svg xmlns="http://www.w3.org/2000/svg" xmlns:xlink="http://www.w3.org/1999/xlink" width="115" height="241.965" viewBox="0 0 115 241.965">
  <defs>
    <filter id="Body" x="0" y="0" width="115" height="241.965" filterUnits="userSpaceOnUse">
      <feOffset dy="12" input="SourceAlpha"/>
      <feGaussianBlur stdDeviation="8.5" result="blur"/>
      <feFlood flood-opacity="0.141"/>
      <feComposite operator="in" in2="blur"/>
      <feComposite in="SourceGraphic"/>
    </filter>
  </defs>
  <g transform="matrix(1, 0, 0, 1, 0, 0)" filter="url(#Body)">
    <path id="Body-2" data-name="Body" d="M0,6.643A4,4,0,0,1,3.627,2.66l28-2.625a4,4,0,0,1,.747,0l28,2.625A4,4,0,0,1,64,6.643V184.357a4,4,0,0,1-3.627,3.983l-28,2.625a4,4,0,0,1-.747,0l-28-2.625A4,4,0,0,1,0,184.357Z" transform="translate(25.5 13.48)" fill="#fff"/>
  </g>
</svg>
