<svg id="Icons_calculator" data-name="Icons/calculator" xmlns="http://www.w3.org/2000/svg" width="28" height="28" viewBox="0 0 28 28">
  <path id="Shape" d="M19.884,23.333H14.49a3.424,3.424,0,0,1-2.816-1.513,3.592,3.592,0,0,1-2.943,1.513H3.559A3.51,3.51,0,0,1,0,19.884V14.49a3.424,3.424,0,0,1,1.513-2.816A3.592,3.592,0,0,1,0,8.731V3.559A3.51,3.51,0,0,1,3.449,0H8.843a3.42,3.42,0,0,1,2.815,1.513A3.6,3.6,0,0,1,14.6,0h5.171a3.51,3.51,0,0,1,3.56,3.449V8.842a3.421,3.421,0,0,1-1.513,2.816A3.6,3.6,0,0,1,23.333,14.6v5.172A3.509,3.509,0,0,1,19.884,23.333ZM12.289,12.289v7.484a2.261,2.261,0,0,0,2.2,2.312h5.393a2.262,2.262,0,0,0,2.2-2.312V14.6a2.263,2.263,0,0,0-2.2-2.313H12.289Zm-8.73,0a2.262,2.262,0,0,0-2.313,2.2v5.393a2.263,2.263,0,0,0,2.313,2.2H8.731a2.262,2.262,0,0,0,2.312-2.2V12.289ZM14.6,1.246a2.262,2.262,0,0,0-2.312,2.2v7.594h7.483a2.261,2.261,0,0,0,2.312-2.2V3.449a2.262,2.262,0,0,0-2.312-2.2Zm-11.153,0a2.263,2.263,0,0,0-2.2,2.313V8.731a2.262,2.262,0,0,0,2.2,2.312h7.594V3.559a2.261,2.261,0,0,0-2.2-2.313ZM7.7,19.364a.623.623,0,0,1-.44-.183L6.145,18.069,5.033,19.18a.623.623,0,0,1-.881-.881l1.112-1.112L4.152,16.076a.624.624,0,1,1,.882-.882l1.112,1.112,1.112-1.112a.623.623,0,0,1,.881.882L7.027,17.187,8.139,18.3A.624.624,0,0,1,7.7,19.364ZM19.383,19.1h-4.39a.624.624,0,1,1,0-1.247h4.39a.624.624,0,0,1,0,1.247Zm0-2.587h-4.39a.623.623,0,1,1,0-1.246h4.39a.623.623,0,1,1,0,1.246ZM17.188,8.964a.624.624,0,0,1-.624-.624V6.768H14.993a.623.623,0,1,1,0-1.246h1.572V3.949a.623.623,0,0,1,1.246,0V5.522h1.572a.623.623,0,1,1,0,1.246H17.811V8.34A.624.624,0,0,1,17.188,8.964Zm-8.847-2.2H3.949a.623.623,0,1,1,0-1.246H8.34a.623.623,0,1,1,0,1.246Z" transform="translate(2.333 2.333)" fill="#adafb2"/>
</svg>
