<svg id="icon_chat" xmlns="http://www.w3.org/2000/svg" width="32" height="32" viewBox="0 0 32 32">
  <path id="Combined_Shape" data-name="Combined Shape" d="M2.887,21.3a.609.609,0,0,1-.407-.62V17.872A3.037,3.037,0,0,1,0,14.9V8.37A3.1,3.1,0,0,1,3.16,5.333h9.682A3.1,3.1,0,0,1,16,8.37V14.9a3.1,3.1,0,0,1-3.158,3.036H6.93l-3.3,3.2a.679.679,0,0,1-.475.2A.782.782,0,0,1,2.887,21.3ZM3.14,6.7l0,0a1.74,1.74,0,0,0-1.8,1.663v6.282A1.743,1.743,0,0,0,3.14,16.31a.658.658,0,0,1,.683.628v1.728l2.352-2.2a.705.705,0,0,1,.478-.188h6.206a1.743,1.743,0,0,0,1.807-1.666V8.332a1.743,1.743,0,0,0-1.807-1.666H3.14ZM22.9,15.8,19.516,12.6h-1.4a.656.656,0,1,1,0-1.309h1.674a.707.707,0,0,1,.488.2l2.407,2.29v-1.8a.68.68,0,0,1,.7-.655,1.805,1.805,0,0,0,1.849-1.734V3.043a1.805,1.805,0,0,0-1.849-1.734H12.433A1.823,1.823,0,0,0,10.688,2.52a.7.7,0,0,1-.871.425.642.642,0,0,1-.454-.818A3.2,3.2,0,0,1,12.433,0h10.99a3.164,3.164,0,0,1,3.244,3.043V9.587a3.128,3.128,0,0,1-2.546,2.977v2.782a.73.73,0,0,1-.419.622c-.139,0-.209.032-.314.032A.714.714,0,0,1,22.9,15.8ZM4,14.666V13.333H8v1.333ZM4,12V10.667h8V12ZM4,9.334V8h8V9.334Z" transform="translate(2.667 5.333)" fill="#adafb2"/>
</svg>
