<svg xmlns="http://www.w3.org/2000/svg" xmlns:xlink="http://www.w3.org/1999/xlink" width="16" height="16" viewBox="0 0 16 16">
  <defs>
    <clipPath id="clip-path">
      <path id="Clip_2" data-name="Clip 2" d="M0,0H16V16H0Z" fill="none"/>
    </clipPath>
  </defs>
  <g id="Group_3" data-name="Group 3" clip-path="url(#clip-path)">
    <path id="Fill_1" data-name="Fill 1" d="M8,16a8,8,0,1,1,8-8A8.009,8.009,0,0,1,8,16ZM7.2,4.535a1.031,1.031,0,0,0-.752.316,1.068,1.068,0,0,0,0,1.516L8.084,8,6.451,9.634a1.072,1.072,0,1,0,1.516,1.516l2.392-2.392A1.028,1.028,0,0,0,10.678,8a1.1,1.1,0,0,0-.32-.758L7.966,4.85A1.073,1.073,0,0,0,7.2,4.535Z" transform="translate(0 0)" fill="#55311b"/>
  </g>
</svg>
