<svg height="78" viewBox="0 0 76 78" width="76" xmlns="http://www.w3.org/2000/svg"><path d="m30.2 77.09q-4.184-1.17-6.275-1.734a11.83 11.83 0 0 1 -3.269-1.517q-1.046-.606-3.137-1.908l-1.438-.867-3.878 6.2a2.858 2.858 0 0 1 -.742-4.162 27.647 27.647 0 0 1 2.354-3.208q.61-.91.218-1.388-.915-1.386-3.007-4.032a1.5 1.5 0 0 0 -2.398-.474q-2.918 2.552-4.445 3.855a3.287 3.287 0 0 1 -1.046.694 4.142 4.142 0 0 1 -.523-1.171 21.966 21.966 0 0 1 2.179-3.729 11.572 11.572 0 0 1 3.094-2.3 1.447 1.447 0 0 0 .613-2.079 3.361 3.361 0 0 1 -.305-.694 14.961 14.961 0 0 1 -.871-1.864l-.61-3.339.479-.217.262-.216a11.546 11.546 0 0 1 1.394 1.517 128.481 128.481 0 0 0 6.363 11.62 9.891 9.891 0 0 0 2.353 2.341q1.875 1.388 2.746 2.081a14.675 14.675 0 0 0 5.447 2.6q.74.173 5.753 1.214a21.2 21.2 0 0 0 10.022-.131q1.353-.347 4.14-1.084a17.558 17.558 0 0 0 3.965-1.821q1.265-.868 10.284-7.241a11.38 11.38 0 0 0 .959-1.3 7.191 7.191 0 0 0 -1.308-1q-.915-.607-.131-1.648.915-1.083 1.394-.91a13.234 13.234 0 0 1 2.005 1.474 19.638 19.638 0 0 0 3.573-3.469q1.089-1.345 3.225-4.119l-7.365-7.891 2.354-3.641.218.737 1.481-2.211q2.4-3.86 2.659-4.423 4.184-7.414 3.486-17.863a4.966 4.966 0 0 0 -.436-1.734q-2.179-5.81-9.151-9.539a23.933 23.933 0 0 0 -9.8-2.644q-.567-2.689 2.265-2.6a20.58 20.58 0 0 1 9.37 2.385 34.538 34.538 0 0 1 7.67 5.636 11.28 11.28 0 0 1 3.61 8.544q0 9.755-2.265 15.132a25.26 25.26 0 0 1 -2.048 3.815q-1.487 2.516-2.224 3.773a28.393 28.393 0 0 1 -2.222 2.687 20.606 20.606 0 0 1 -1.961 1.388l5.926 6.243a1.623 1.623 0 0 1 .131 2.515l-.219.26a3.364 3.364 0 0 1 -.479 2.948 20.942 20.942 0 0 0 -1.569 2.428 9.553 9.553 0 0 1 4.447 4.291q1.264 2.689-.61 3.989l-1.22-1.734a13.879 13.879 0 0 0 -1.309-1.555 29.654 29.654 0 0 0 -3.268-2.65q-4.4 3.816-6.754 6.027c-.116.057-.146.274-.087.65a1.355 1.355 0 0 0 .348.737 34.009 34.009 0 0 1 3.137 3.816 3.125 3.125 0 0 1 .742 2.558 4.3 4.3 0 0 1 -2.005 2.125 5.568 5.568 0 0 0 -1.481-3.425 24.257 24.257 0 0 0 -2.614-2.558 1.41 1.41 0 0 0 -1.961-.217 96.09 96.09 0 0 1 -9.413 5.116 24.743 24.743 0 0 1 -10.329 1.821 26.92 26.92 0 0 1 -6.493-.91zm11.025-3.99a9.1 9.1 0 0 1 -.7-.824 18.615 18.615 0 0 1 1.656-1.691q.173-.088.653.477.872.78 1.22 1.04-.872.694-1.22.911a2.693 2.693 0 0 1 -1 .476.261.261 0 0 1 -.083.014c-.151-.003-.33-.133-.526-.403zm-16.472-2.254a1.19 1.19 0 0 1 -.262-.868 1.4 1.4 0 0 1 .523-.867q.305-.261.871-.737a6.494 6.494 0 0 1 .959.824 1.857 1.857 0 0 1 .653.824q.262 1.692-2.136 1.734a7.794 7.794 0 0 0 -.608-.91zm7.277.694a1.734 1.734 0 0 1 -.872-.564 8.413 8.413 0 0 1 -.741-.737q.045-.085.741-.91a2 2 0 0 1 .915-.651 1.435 1.435 0 0 1 1.133.217 1.308 1.308 0 0 1 .566 1.214 1.488 1.488 0 0 1 -.566 1.257 1.339 1.339 0 0 1 -.755.231 1.643 1.643 0 0 1 -.421-.057zm-10.807-2.082a1.4 1.4 0 0 1 -.785-.39q-.436-.521-.348-.651t1.264-1.951l.741.131a10.349 10.349 0 0 1 .436 1.127 2.019 2.019 0 0 1 .13 1.04 1.209 1.209 0 0 1 -.566.477 1.463 1.463 0 0 1 -.707.236.669.669 0 0 1 -.165-.019zm27.889-1.864a2.715 2.715 0 0 1 .741-1.517q.784-.824 1.264-.651a5.3 5.3 0 0 1 1.351 1.388q-.174 2.036-1.961 2.038-1.481 0-1.395-1.257zm-12.376-3.468 1.351-.78q1.874.693 1.481 2.384a1.274 1.274 0 0 1 -.566.563 1.565 1.565 0 0 1 -.785.26q-1.611-.129-1.481-2.427zm-6.8 1.778c-.378-.319-.538-.52-.48-.608a4.18 4.18 0 0 1 1.444-1.778q.131-.085.7.347a14.66 14.66 0 0 0 1.264.953 15.991 15.991 0 0 1 -2.266 1.562.118.118 0 0 1 -.028 0q-.189.004-.631-.48zm15.383-.347a1.3 1.3 0 0 1 -.828-1.344 5.007 5.007 0 0 1 .653-1.344 1.871 1.871 0 0 1 .175-.347c.174.115.334.217.479.3a3.563 3.563 0 0 1 1 .477q.653.39.305 1.388a2.345 2.345 0 0 1 -.871.694 1.62 1.62 0 0 1 -.7.231.384.384 0 0 1 -.211-.056zm-22.659-4.557q-.086-.261.305-.78.174-.261.654-1.04.653.823.871 1.127a1.7 1.7 0 0 1 .436.824 1.193 1.193 0 0 1 -.436.78c-.348.376-.581.635-.7.78a12.476 12.476 0 0 1 -1.13-1.691zm8.716-.217c-.086-.173-.232-.434-.436-.78q.219-.173 1.438-1.214l1.308 1.778-1.438 1.345zm-15.076 1.044a4.05 4.05 0 0 0 -1.308 0l-.609-.347 1.264-2.168a4.45 4.45 0 0 0 .828.694 2.079 2.079 0 0 1 .479.737q.2 1.09-.539 1.09-.057 0-.115-.006zm1.569-1.994a6.631 6.631 0 0 1 .044-2.515 4.242 4.242 0 0 1 1.961 1.128q.784.823.436 1.431a1.374 1.374 0 0 1 -1.4.78 1.056 1.056 0 0 1 -1.043-.824zm33.033-1.3q-.393-.52-.349-.65.088-.174 1.4-1.691a6.212 6.212 0 0 1 1.347 1.608q.045.217-.436.737-.914.911-.958 1-.353-.398-1.006-1.005zm-9.152.52q-.522-.433-.523-.694c.058-.231.131-.665.218-1.3a.95.95 0 0 1 1.177-.65 2.787 2.787 0 0 1 .915.52q.7.52 1.176.867-.872.824-1.176 1.128a1.777 1.777 0 0 1 -.915.52.284.284 0 0 1 -.088.013 1.536 1.536 0 0 1 -.787-.404zm-18.52-1.387.915-2.342 2 1.04-.043.608-2.4 1.084zm-23.23-3.466q.479-.607 1.394-1.865a9.16 9.16 0 0 1 1.526-1.694q1.35-1 3.312-2.471 2.615-2.08 6.449-4.855l-5.36-5.16a21.3 21.3 0 0 1 -6.493-10.666v-.089a13.9 13.9 0 0 1 .785-9.019 37.875 37.875 0 0 1 10.72-14.392 20.761 20.761 0 0 1 9.587-3.858q1.656-.261 1.918 0 .3.259.087 1.994a3.424 3.424 0 0 0 1.046.26q1.7.737.218 1.777l-3.095 1.908a6.139 6.139 0 0 0 -1.438 1.474q-1.743 2.645-.305 4.076a3.734 3.734 0 0 0 2.4 1.084 3.4 3.4 0 0 0 2.484-.78 4.874 4.874 0 0 0 .915-1.04 13.658 13.658 0 0 0 .828-1.257 6.818 6.818 0 0 0 .785-1.3c.29-.521.58-.809.871-.868q1.7-.39 2.266 2.3 1.656 7.328-2.179 12.791-2.572 3.729-9.2 5.549-2.521 1.037-3.789 1.514l2.179 3.642q.566.953 1.046.954.435 0 1.219-.911a4.317 4.317 0 0 1 1.875-.954q1.655-.91 5.011-2.818a51.055 51.055 0 0 1 5.186-2.385q2.7-1.127 8.41-.433a29.918 29.918 0 0 1 12.2 4.6q.612.39 6.145 4.336l3.009-4.344q-1.177-.78-3.487-2.081a17.444 17.444 0 0 1 -3.094-2.3q-6.755-6.418-6.667-14.785a10.1 10.1 0 0 1 .653-2.081 13.568 13.568 0 0 0 1.743.823 4.733 4.733 0 0 1 2.7 1.734 22.038 22.038 0 0 0 2.14 2.348 2.6 2.6 0 0 0 1.525.737q2.093.39 2.179.174a4.928 4.928 0 0 0 .349-2.905 10.122 10.122 0 0 0 -4.753-5.507 14.219 14.219 0 0 1 -2-1.864q4.184-1.952 7.06 2.081a21.826 21.826 0 0 1 3.093 5.2 4.424 4.424 0 0 1 .087 2.168 5.19 5.19 0 0 1 -.784 2.081 3.531 3.531 0 0 1 -1.526 1.214 4.58 4.58 0 0 1 -1.961.391q-4.575-.3-6.275-3.122l-1.046-1.04a19.828 19.828 0 0 0 10.805 13.877 9.6 9.6 0 0 1 1.307.823q.524.651-.086 1.734a3.63 3.63 0 0 0 -.437 1.777 5.772 5.772 0 0 1 -.305 1.778 10.731 10.731 0 0 1 -1.089 1.734q-.915 1.084-1.308 1.648l-.479-.174v1.214q-.567.911-.872 1.345l-1.046-.822q-1.481-1.04-4.314-3.338a41.238 41.238 0 0 0 -4.489-3.035q-9.065-5.334-17.78-2.385-1.787.651-4.358 1.865a14.681 14.681 0 0 1 -1.961 1.04q-1.395.78-2.309 1.214a10.57 10.57 0 0 0 -3.443 2.384q-.174.3-1.09.217a4.474 4.474 0 0 1 -1.394-.347 6.48 6.48 0 0 1 -2.92-3.165 6.624 6.624 0 0 1 -.61-4.206v-.217q.043-.433.087-1.517a1.785 1.785 0 0 1 .784-1.171 11.472 11.472 0 0 1 3.051-.91 12.065 12.065 0 0 0 7.756-4.206 10.4 10.4 0 0 0 2.752-7.849 39.859 39.859 0 0 1 -4.968 1.517q-4.271.911-6.058-3.6a4.84 4.84 0 0 1 -.174-3.597 5.927 5.927 0 0 1 2.348-2.994 6.876 6.876 0 0 0 1-1.431c.116-.2.291-.491.523-.867a17.148 17.148 0 0 0 -3.007.867 17.657 17.657 0 0 0 -4.053 2.254 29.287 29.287 0 0 0 -8.145 10.583 16.565 16.565 0 0 0 -1.831 9.538q.088.608.218 1.258a13.889 13.889 0 0 0 4.315 7.587 14.679 14.679 0 0 0 1.045 1.211 10.63 10.63 0 0 0 2.7 2.515 6.812 6.812 0 0 1 3.4 4.986 1.791 1.791 0 0 1 -.742 1.734l-5.14 3.865q-1.526 1.08-2.789 1.992-2.442 1.733-3.835 2.818a3.384 3.384 0 0 0 -.958.217q-.436.217.392 1.517zm28.718.433a1.453 1.453 0 0 1 -.828-.737q-.828-1.561 1.176-2.6a4.567 4.567 0 0 1 1.22 1.3 1.5 1.5 0 0 1 -.348 1.691 1.147 1.147 0 0 1 -.836.425 1.034 1.034 0 0 1 -.384-.082zm-16.778-1.26a1.667 1.667 0 0 1 -.871-.563 1.3 1.3 0 0 1 -.48-.823 2.273 2.273 0 0 1 .48-.824 2.138 2.138 0 0 1 .871-.563q.174-.086.7.391a14.823 14.823 0 0 0 1.133 1.04q-.088.086-1.133.911-.449.446-.641.445a.126.126 0 0 1 -.059-.014zm6.1-2.731q-.61-.347-.131-1.214a9.976 9.976 0 0 1 .7-1.213q.436-.521 1.264-.044a1.861 1.861 0 0 1 .348.26 1.328 1.328 0 0 1 .218 2.082l-.348.347v-1.085l-.218-.131-.61 1.648a3.736 3.736 0 0 0 -1.222-.651zm-4.183-1.43q-.481-.564-.392-.694a4.563 4.563 0 0 1 .741-1l.958-.911q.524.564.785.868.522.477.436.737a2.578 2.578 0 0 1 -.567.91 13.474 13.474 0 0 1 -1.046 1.084q-.129-.172-.914-.995zm9.02-1.6q-.479-.217-.479-.346.086-.824.479-2.6l.61-.043q.567.608.872.911a2.448 2.448 0 0 1 .566.954q.174.432-1.438 1.257a.185.185 0 0 1 -.1.024 1.415 1.415 0 0 1 -.509-.163zm-4.4-5.9a7.59 7.59 0 0 1 1.874-1.951 10.636 10.636 0 0 1 1.264.868 1.3 1.3 0 0 1 .131.434 4.159 4.159 0 0 1 -.48 1.127h-.043q-.786 1.17-.915 1.3zm7.277-1.084a2.644 2.644 0 0 1 -.523-.651q1.22-1.69 1.831-1.864.348-.173 1.743 1.17v.694a20.43 20.43 0 0 1 -2.305 1.083.183.183 0 0 1 -.068.012q-.232 0-.678-.446zm7.234-6.07c-.377-.375-.538-.665-.48-.867a4.7 4.7 0 0 1 1.482-1.908q.653.478.958.694.61.433.523.694a3.439 3.439 0 0 1 -.392 1.171l-.915 1.473a10.634 10.634 0 0 0 -1.175-1.259zm-21.488 1.042a1.8 1.8 0 0 1 -.915-.608 1.687 1.687 0 0 1 -.48-1 1.206 1.206 0 0 1 .392-1.084 1.394 1.394 0 0 1 1.308-.217 2.435 2.435 0 0 1 .828.563q1.133.953 1.176.954a15.3 15.3 0 0 0 -1.394.954 1.666 1.666 0 0 1 -.864.437.378.378 0 0 1 -.051.001zm-6.053-8.848a1.905 1.905 0 0 1 -.653-1q-.043-.3.523-.823.959-1.214 1.046-1.345.043.086 1.177 1.257.566.607.479.78a3.178 3.178 0 0 1 -1.743 1.648.236.236 0 0 1 -.039 0q-.263.006-.79-.517z" fill="#cb9f05" opacity=".2"/></svg>