<svg xmlns="http://www.w3.org/2000/svg" width="1157" height="1157" viewBox="0 0 1157 1157">
  <path id="Shape" d="M578.5,1157a587.762,587.762,0,0,1-59.148-2.987,579.991,579.991,0,0,1-57.44-8.766c-18.638-3.814-37.29-8.61-55.44-14.255-17.946-5.582-35.828-12.126-53.15-19.453-17.161-7.258-34.175-15.454-50.569-24.36-16.279-8.843-32.326-18.593-47.7-28.977-15.3-10.335-30.282-21.54-44.535-33.3-14.22-11.735-28.042-24.3-41.082-37.337S143.837,960.7,132.1,946.48c-11.763-14.253-22.968-29.237-33.3-44.535-10.385-15.373-20.135-31.421-28.977-47.7-8.906-16.394-17.1-33.408-24.36-50.569-7.326-17.321-13.871-35.2-19.453-53.15-5.645-18.15-10.441-36.8-14.255-55.44a580,580,0,0,1-8.766-57.44,587.176,587.176,0,0,1,0-118.3,579.977,579.977,0,0,1,8.766-57.44c3.814-18.637,8.61-37.29,14.255-55.44,5.582-17.947,12.127-35.829,19.453-53.15,7.258-17.161,15.454-34.175,24.36-50.569,8.842-16.277,18.591-32.325,28.977-47.7,10.335-15.3,21.54-30.282,33.3-44.535,11.735-14.22,24.3-28.042,37.337-41.082s26.862-25.6,41.082-37.337c14.253-11.763,29.237-22.968,44.535-33.3,15.372-10.385,31.42-20.135,47.7-28.977,16.394-8.906,33.408-17.1,50.569-24.36,17.321-7.326,35.2-13.871,53.15-19.453,18.151-5.645,36.8-10.441,55.44-14.255a579.977,579.977,0,0,1,57.44-8.766,587.176,587.176,0,0,1,118.3,0,580,580,0,0,1,57.44,8.766c18.637,3.814,37.29,8.61,55.44,14.255,17.947,5.582,35.829,12.127,53.15,19.453,17.161,7.258,34.175,15.455,50.569,24.36,16.277,8.842,32.325,18.591,47.7,28.977,15.3,10.335,30.282,21.54,44.535,33.3,14.22,11.735,28.042,24.3,41.082,37.337s25.6,26.862,37.337,41.082c11.763,14.253,22.968,29.237,33.3,44.535,10.384,15.371,20.134,31.419,28.977,47.7,8.906,16.394,17.1,33.408,24.36,50.569,7.327,17.322,13.872,35.2,19.453,53.15,5.645,18.15,10.442,36.8,14.255,55.44a579.991,579.991,0,0,1,8.766,57.44,587.179,587.179,0,0,1,0,118.3,580.014,580.014,0,0,1-8.766,57.44c-3.814,18.638-8.61,37.29-14.255,55.44-5.581,17.945-12.126,35.828-19.453,53.15-7.258,17.161-15.455,34.175-24.36,50.569-8.843,16.278-18.592,32.326-28.977,47.7-10.335,15.3-21.54,30.282-33.3,44.535-11.735,14.22-24.3,28.042-37.337,41.082s-26.862,25.6-41.082,37.337c-14.253,11.763-29.237,22.968-44.535,33.3-15.371,10.385-31.419,20.134-47.7,28.977-16.394,8.906-33.408,17.1-50.569,24.36-17.323,7.327-35.2,13.872-53.15,19.453-18.15,5.645-36.8,10.442-55.44,14.255a580.014,580.014,0,0,1-57.44,8.766A587.758,587.758,0,0,1,578.5,1157Zm1-1083h-.748C301.388,74.815,75.406,301.129,75,578.493A504.465,504.465,0,0,0,579.381,1083h.042A504.5,504.5,0,1,0,579.5,74Zm.179,846h-.01c-.583,0-1.139,0-1.652,0h.742A314.166,314.166,0,0,1,306.9,761.145,312.842,312.842,0,0,1,270,656a1644.139,1644.139,0,0,0,302.078,51.168A1903.274,1903.274,0,0,0,889,656,312.967,312.967,0,0,1,579.678,920Z" transform="translate(0)" fill="#015c50" opacity="0.05"/>
</svg>
