<svg height="76.646" viewBox="0 0 78.438 76.646" width="78.438" xmlns="http://www.w3.org/2000/svg"><path d="m49.233 59a11.78 11.78 0 0 1 -3.663-.706 38.376 38.376 0 0 1 -10.606-6.107 1.113 1.113 0 0 1 -.31-.788 1.778 1.778 0 0 0 -.035-.344 4.619 4.619 0 0 0 -.068-.754l.449-.275 2.1 1.374a9.5 9.5 0 0 0 .965-.824 1.507 1.507 0 0 1 .93-.446 1.428 1.428 0 0 1 .655.583c.319.455.562.778.723.961l-1.274.994a30.631 30.631 0 0 0 3.237 1.922c2.289 1 4.271 1.777 5.889 2.3a2.118 2.118 0 0 0 .574.08 3.288 3.288 0 0 0 2.216-1.109 3.088 3.088 0 0 0 1.205-2.779c-.206-.934-.51-2.371-.93-4.392a38.088 38.088 0 0 0 -1.309-4.22 8.4 8.4 0 0 0 -1.618-2.3 17.3 17.3 0 0 0 -1.137-1.337c-.28-.256-.569-.545-.86-.858a5.222 5.222 0 0 0 -.38-.515 11.5 11.5 0 0 1 -.068-1.715 6.508 6.508 0 0 1 1.412.274c.629.58 1.193 1.107 1.723 1.612a16.827 16.827 0 0 1 4.477 7.377c.523 2.064 1.068 4.523 1.618 7.308a2.328 2.328 0 0 1 -.379 1.647 13.239 13.239 0 0 1 -1.171 1.27 6.266 6.266 0 0 1 -3.856 1.75c-.167.01-.337.017-.509.017zm-31.66-1.358a13 13 0 0 1 -1.342-.549 2.339 2.339 0 0 1 -.38-.274.965.965 0 0 1 -.241-.858 1.156 1.156 0 0 1 .792-.686l11.813-4.564a11.782 11.782 0 0 1 2.857-.926.819.819 0 0 1 .1-.006 2.932 2.932 0 0 1 .76.143 3.56 3.56 0 0 0 .931.309 4.061 4.061 0 0 1 -.344.755 2.532 2.532 0 0 1 -.139.24 2.254 2.254 0 0 1 -.689.755c-1.021.52-2.84 1.317-5.407 2.367l-7.06 2.813-1.653.481zm-5.3-.666a2.166 2.166 0 0 1 -.623-.089.87.87 0 0 0 -.344-.205 2.841 2.841 0 0 1 -.965-.721 4.609 4.609 0 0 1 -.86-1.2 4.4 4.4 0 0 1 -.345-2.642l1.585-6.827c.387-1.477 1.017-3.643 1.928-6.622l.447-1.887c-1.667-.831-4.042-2.044-7.06-3.6a10.676 10.676 0 0 1 -5.58-5.631 4.605 4.605 0 0 1 -.208-3.5 8.976 8.976 0 0 1 .69-1.612 5.5 5.5 0 0 1 4.3-3.294 21.577 21.577 0 0 0 3.892-.687c1.987-.488 3.162-.775 3.927-.96l6.543-1.407a3.007 3.007 0 0 1 .241 1.922c-.16.386-.624.675-1.378.858-1.849.5-4.7 1.193-8.473 2.058-1.756.455-3.088.767-3.96.927a3.991 3.991 0 0 0 -3.547 3.259v.1c-.25 1.275.387 2.579 1.894 3.877a32.023 32.023 0 0 0 5.343 3.228c.985.525 3.58 1.667 7.715 3.4a2.172 2.172 0 0 1 1.17.275c.709.456 1.068.826 1.068 1.1a1.577 1.577 0 0 1 -.413.721 1.023 1.023 0 0 1 -.655.411 3.2 3.2 0 0 1 -.392.021 17.927 17.927 0 0 1 -2.776-.33l-2.307 8.51c-.41 1.7-.77 3.616-1.068 5.7a3 3 0 0 0 .275 2.2 3.785 3.785 0 0 0 1.894 1.236 1.492 1.492 0 0 1 -1.031 1.254 3.062 3.062 0 0 1 -.929.157zm33.848-1.426a7.645 7.645 0 0 1 -2-.755 8.761 8.761 0 0 1 .995-1.476c.189.092.967.541 2.38 1.372a3.266 3.266 0 0 1 -1.378.859zm-30.58-.755-2.341-.549-.208-.446.689-.754a1.042 1.042 0 0 1 .619-.378 1.41 1.41 0 0 1 1.109.488 1.977 1.977 0 0 1 .132 1.639zm35.471-.481-1.723-1.514c.54-.754.891-1.136 1.043-1.136a.076.076 0 0 1 .024 0 1.989 1.989 0 0 1 1.1.445 1.74 1.74 0 0 1 .413 1.166c0 .115-.1.261-.311.446l-.549.583zm-30.03-1.338-2.272-1.406a2.624 2.624 0 0 0 .413-.686c.158-.234.275-.353.347-.353a.058.058 0 0 1 .033.01 1.634 1.634 0 0 1 1.194.566 2.416 2.416 0 0 1 .287 1.868zm23.688-1.563a.311.311 0 0 1 -.1-.015 4.843 4.843 0 0 1 -1.068-.172.816.816 0 0 1 -.517-.926 1.018 1.018 0 0 1 .414-.653c.18-.279.318-.42.41-.42a.081.081 0 0 1 .037.009l2.066 1.543a4.9 4.9 0 0 0 -.792.446.849.849 0 0 1 -.45.188zm-16.25-1.285-1.686-1.474 1.1-1.2 1.515 1.476-.929 1.2zm-3.753-1.128a7.3 7.3 0 0 1 -2.134-.583c-.183-.182-.16-.621.069-1.3l-1.1-2.23a6.945 6.945 0 0 1 .758-.206 1.408 1.408 0 0 1 .554-.154.49.49 0 0 1 .134.017 1.417 1.417 0 0 1 .9.722 1.865 1.865 0 0 1 -.139 1.474 3.836 3.836 0 0 1 1.068.789 1.5 1.5 0 0 1 -.1 1.474zm22.033-.4a.045.045 0 0 1 -.033-.011c-.366-.115-.783-.577-1.238-1.373-.023-.069.115-.23.412-.481a1.049 1.049 0 0 1 .646-.381h.043a1.433 1.433 0 0 1 .758.378 7.291 7.291 0 0 1 .93.617c-.444.466-.748.769-.93.926a1.737 1.737 0 0 1 -.588.325zm-30.058-.29a7.474 7.474 0 0 0 -1.445-.1c-.479-.068-.745-.414-.792-1.03-.022-.114.07-.264.275-.445a.923.923 0 0 1 .586-.378 1.52 1.52 0 0 1 1.268.457 1.717 1.717 0 0 1 .109 1.5zm20.043-.961a13.156 13.156 0 0 1 -1.721-1.2 5.465 5.465 0 0 1 .827-.858c.779.47 1.409.84 1.928 1.132l-1.033.926zm-5.03-1.471a.138.138 0 0 1 -.033 0 6.576 6.576 0 0 0 -1.205-.309c-.434-.137-.677-.576-.724-1.3a3.024 3.024 0 0 1 1.208-.7.171.171 0 0 1 .067.012 11.437 11.437 0 0 1 1.583 1.612q-.274.275-.447.446a.92.92 0 0 1 -.449.239zm9.678-1.514c-.312-.066-.785-.145-1.445-.24a1.212 1.212 0 0 1 -.758-1.132c0-.138.141-.288.414-.445a1.075 1.075 0 0 1 .653-.275 1.5 1.5 0 0 1 1.1.606 1.805 1.805 0 0 1 .04 1.485zm-13.518-.329a.087.087 0 0 1 -.049-.014 8.071 8.071 0 0 1 -1.86-1.03 7.5 7.5 0 0 0 .655-.549.971.971 0 0 1 .62-.445 1.758 1.758 0 0 1 .411-.054.818.818 0 0 1 .616.236 1.764 1.764 0 0 1 .315 1.293 2.323 2.323 0 0 1 -.344.343.727.727 0 0 1 -.364.22zm-9.107-1.661a4.584 4.584 0 0 1 -1.893-.583 4.93 4.93 0 0 1 .1-1.338l.585-.343 1.618 1.579c.023.046-.116.276-.413.685zm13.912-.96h-.446c-.094-.163-.256-.4-.482-.721a3.048 3.048 0 0 1 -.345-.789c0-.136.139-.3.413-.48.135-.112.338-.258.62-.446l.517.481c.229.2.345.377.345.515a1.007 1.007 0 0 1 -.241.754c-.16.3-.288.527-.38.686zm4.341-.414a6.971 6.971 0 0 1 -.447-.685q-.789-1.149-.936-1.365l-.006-.009-.022-.032a.751.751 0 0 1 .242-.892.791.791 0 0 1 .466-.169.711.711 0 0 1 .292.066 2.456 2.456 0 0 1 1.274 1.441c.046.115-.024.323-.207.618a3.323 3.323 0 0 0 -.346.583l-.044.063c-.134.192-.223.318-.264.381zm-13.775-.1a5.5 5.5 0 0 0 -1.377-.274.985.985 0 0 1 -.653-1.2 1.665 1.665 0 0 1 .585-.515 1.716 1.716 0 0 1 .6-.312.071.071 0 0 1 .023 0c.579.462.917.742 1.033.858a1.345 1.345 0 0 1 -.207 1.44zm3.443-2.917-2.1-1.851.655-.653c.171-.19.3-.286.4-.286a.112.112 0 0 1 .051.011 5.51 5.51 0 0 1 1.722 1.407v.069a12.879 12.879 0 0 0 -.723 1.3zm21.408-.583c-.542 0-.989-.426-1.329-1.267 2.206-1.694 3.874-2.929 4.958-3.671a40.08 40.08 0 0 0 4.373-3.5 15.526 15.526 0 0 0 3.2-4.563 2.436 2.436 0 0 0 0-2.436 2.531 2.531 0 0 0 -2.1-1.2c-5.046-.364-8.07-.618-8.989-.755a4.015 4.015 0 0 1 -1.791-1.236.815.815 0 0 1 -.1-.514 2.959 2.959 0 0 1 .173-.584c.114-.136.415-.205.9-.205l8.815.652a7.074 7.074 0 0 1 3.853 1.333 4.883 4.883 0 0 1 1.964 3.294 4.449 4.449 0 0 1 -.242 2.024c-.046.069-.316.731-.826 2.024a10.347 10.347 0 0 1 -3.2 4.015c-1.9 1.359-3.267 2.347-4.166 3.02l-4.513 3.19a1.754 1.754 0 0 1 -.98.379zm-16.173-2.2a2.849 2.849 0 0 0 -1.239-.239.921.921 0 0 1 -.792-.927c-.045-.114.106-.288.448-.515.183-.115.473-.276.86-.48l1.239 1.75zm14.809-.309a10.176 10.176 0 0 1 -1.273-1.781c-.047-.092.021-.272.206-.549.25-.274.447-.412.586-.412 1.028.115 1.573.357 1.618.721a1.354 1.354 0 0 1 -.137.892c-.141.467-.254.8-.345 1.03l-.655.1zm-29-.96-1.721-1.612.62-.446v-.068a.976.976 0 0 1 .585-.309c.07-.007.139-.01.2-.01a1.287 1.287 0 0 1 .9.319 1.354 1.354 0 0 1 .343 1v.068c0 .114-.1.264-.309.446l-.619.617zm-5.89-1.956a12.31 12.31 0 0 1 -1.514-1.646c.542-.6.861-.9.976-.9a.048.048 0 0 1 .022 0 12.973 12.973 0 0 1 1.585 1.407l-1.068 1.131zm31.617-12.933c-.091-.068-.361-.3-.826-.72a1.423 1.423 0 0 1 -.448-.653 1.105 1.105 0 0 1 .273-.835 1.594 1.594 0 0 1 1.174-.366 1.394 1.394 0 0 1 1.129.348.758.758 0 0 1 .076.681 1.491 1.491 0 0 1 -.551.755c-.349.348-.619.606-.826.788zm-22.97-2.47a1.794 1.794 0 0 1 -.412-1.852 6.727 6.727 0 0 1 .723-1.372c1.241-2.248 2.77-4.784 4.546-7.548a17.86 17.86 0 0 1 3.03-3.81 14.02 14.02 0 0 1 1.722-1.3 4.216 4.216 0 0 1 2.238-.69 3.523 3.523 0 0 1 3.1 1.544c1.628 2.672 3 5.05 4.063 7.068.98 2.178 1.733 3.829 2.238 4.907a6.075 6.075 0 0 1 .413 1.1.944.944 0 0 1 -.585.893 1.662 1.662 0 0 1 -.581.122.846.846 0 0 1 -.556-.191 4.892 4.892 0 0 1 -.723-.995c-.36-.765-2.038-3.986-5.132-9.847l-.688-.824c-.8-.957-1.517-1.442-2.135-1.442q-.042 0-.085 0a3.6 3.6 0 0 0 -2.187 1.307 27.732 27.732 0 0 0 -3.616 4.7c-.211.3-1.23 2.023-3.03 5.112-.963 1.279-1.772 2.359-2.341 3.122z" fill="#015c50" opacity=".2" transform="matrix(.93969262 .34202014 -.34202014 .93969262 20.178156 .000049)"/></svg>