<svg height="42.98" viewBox="0 0 44.175 42.98" width="44.175" xmlns="http://www.w3.org/2000/svg"><path d="m-27.794 33a6.714 6.714 0 0 0 2.07-.395 21.728 21.728 0 0 0 5.988-3.416.627.627 0 0 0 .175-.442.982.982 0 0 1 .02-.192 2.532 2.532 0 0 1 .039-.422l-.253-.154-1.185.768a5.288 5.288 0 0 1 -.545-.461.856.856 0 0 0 -.525-.249.792.792 0 0 0 -.37.327c-.19.267-.319.438-.408.537l.719.556a17.433 17.433 0 0 1 -1.831 1.076c-1.294.562-2.413.995-3.324 1.286a1.209 1.209 0 0 1 -.323.045 1.863 1.863 0 0 1 -1.252-.621 1.718 1.718 0 0 1 -.68-1.554c.112-.5.284-1.305.525-2.456a21.083 21.083 0 0 1 .739-2.361 4.7 4.7 0 0 1 .913-1.286c.141-.189.357-.441.642-.748.157-.142.316-.3.486-.481a2.876 2.876 0 0 1 .214-.287 6.384 6.384 0 0 0 .039-.96 3.784 3.784 0 0 0 -.8.154c-.335.306-.662.609-.972.9a9.386 9.386 0 0 0 -2.527 4.126c-.3 1.163-.605 2.539-.914 4.088a1.293 1.293 0 0 0 .214.921 7.57 7.57 0 0 0 .661.71 3.562 3.562 0 0 0 2.178.979c.095.012.19.012.287.012zm17.875-.759a7.34 7.34 0 0 0 .757-.307 1.338 1.338 0 0 0 .214-.154.534.534 0 0 0 .136-.48.652.652 0 0 0 -.447-.383l-6.668-2.552a6.715 6.715 0 0 0 -1.613-.518.46.46 0 0 0 -.059 0 1.646 1.646 0 0 0 -.427.08 2.005 2.005 0 0 1 -.526.173 2.241 2.241 0 0 0 .194.422 1.333 1.333 0 0 0 .077.134 1.277 1.277 0 0 0 .389.423c.576.291 1.6.736 3.053 1.324l3.985 1.573.933.269zm2.993-.373a1.239 1.239 0 0 0 .351-.049.481.481 0 0 1 .194-.115 1.6 1.6 0 0 0 .545-.4 2.6 2.6 0 0 0 .486-.671 2.442 2.442 0 0 0 .194-1.478l-.895-3.819c-.22-.829-.586-2.076-1.089-3.7l-.252-1.056c.908-.448 2.211-1.107 3.985-2.014a6 6 0 0 0 3.15-3.155 2.55 2.55 0 0 0 .117-1.958 4.98 4.98 0 0 0 -.39-.9 3.1 3.1 0 0 0 -2.43-1.842 12.249 12.249 0 0 1 -2.2-.383c-1.151-.284-1.84-.451-2.214-.54l-3.693-.788a1.664 1.664 0 0 0 -.136 1.075c.091.216.352.378.778.48 1.062.284 2.671.671 4.783 1.151.984.253 1.736.427 2.236.518a2.244 2.244 0 0 1 2 1.823v.058a2.331 2.331 0 0 1 -1.069 2.168 18.017 18.017 0 0 1 -3.013 1.8c-.554.293-1.978.915-4.355 1.9a1.236 1.236 0 0 0 -.661.154c-.4.255-.6.461-.6.614a.885.885 0 0 0 .233.4.579.579 0 0 0 .37.23 1.833 1.833 0 0 0 .222.012 10.152 10.152 0 0 0 1.566-.184l1.3 4.759c.231.952.434 2.024.6 3.186a1.667 1.667 0 0 1 -.156 1.228 2.14 2.14 0 0 1 -1.069.69.834.834 0 0 0 .583.71 1.746 1.746 0 0 0 .529.096zm-19.11-.8a4.332 4.332 0 0 0 1.128-.422 4.984 4.984 0 0 0 -.562-.826c-.107.052-.559.31-1.344.768a1.83 1.83 0 0 0 .778.48zm17.263-.422 1.321-.307.117-.249-.389-.422a.589.589 0 0 0 -.35-.212.8.8 0 0 0 -.628.276 1.1 1.1 0 0 0 -.073.913zm-20.027-.266.971-.844c-.3-.422-.5-.635-.588-.635h-.014a1.124 1.124 0 0 0 -.622.249.968.968 0 0 0 -.234.653c0 .063.059.147.175.249l.31.326zm16.952-.749 1.282-.786a1.5 1.5 0 0 1 -.233-.384c-.089-.131-.155-.2-.2-.2a.033.033 0 0 0 -.018.005.924.924 0 0 0 -.675.319 1.347 1.347 0 0 0 -.161 1.042zm-13.372-.874a.175.175 0 0 0 .056-.009 2.7 2.7 0 0 0 .6-.1.455.455 0 0 0 .292-.517.569.569 0 0 0 -.233-.365c-.1-.156-.18-.235-.232-.235a.046.046 0 0 0 -.021 0l-1.166.863a2.719 2.719 0 0 1 .447.249.478.478 0 0 0 .26.114zm9.174-.719.951-.825-.622-.671-.855.825.524.671zm2.118-.634a4.169 4.169 0 0 0 1.205-.326c.1-.1.09-.347-.039-.729l.622-1.247a3.694 3.694 0 0 0 -.427-.115.794.794 0 0 0 -.314-.087.282.282 0 0 0 -.075.009.8.8 0 0 0 -.507.407 1.037 1.037 0 0 0 .08.822 2.125 2.125 0 0 0 -.6.442.832.832 0 0 0 .057.824zm-12.44-.224a.025.025 0 0 0 .018-.006c.207-.065.443-.323.7-.768.013-.039-.062-.127-.232-.269a.6.6 0 0 0 -.365-.212h-.024a.816.816 0 0 0 -.428.211 4.152 4.152 0 0 0 -.525.346c.257.266.424.431.525.518a.994.994 0 0 0 .334.18zm16.97-.16a4.222 4.222 0 0 1 .816-.057c.27-.038.42-.232.446-.576.013-.064-.037-.145-.155-.249a.525.525 0 0 0 -.331-.211.86.86 0 0 0 -.718.258.955.955 0 0 0 -.06.835zm-11.314-.537a7.488 7.488 0 0 0 .971-.671 3.182 3.182 0 0 0 -.467-.48c-.445.266-.8.473-1.088.633l.583.518zm2.839-.823h.018a3.727 3.727 0 0 1 .68-.173c.244-.076.382-.321.409-.729a1.718 1.718 0 0 0 -.683-.391.1.1 0 0 0 -.037.006 6.486 6.486 0 0 0 -.894.9l.125.124.127.126a.518.518 0 0 0 .258.137zm-5.464-.846c.176-.037.442-.081.815-.134a.68.68 0 0 0 .428-.634c0-.077-.08-.161-.234-.249a.609.609 0 0 0 -.369-.154.845.845 0 0 0 -.621.342 1 1 0 0 0 -.021.828zm7.631-.184a.05.05 0 0 0 .028-.008 4.589 4.589 0 0 0 1.05-.576 4.288 4.288 0 0 1 -.37-.307.546.546 0 0 0 -.35-.249 1 1 0 0 0 -.232-.03.464.464 0 0 0 -.349.133.983.983 0 0 0 -.177.721 1.367 1.367 0 0 0 .194.193.408.408 0 0 0 .212.123zm5.141-.929a2.614 2.614 0 0 0 1.069-.326 2.659 2.659 0 0 0 -.059-.749l-.33-.192-.914.883c-.013.025.066.154.233.383zm-7.853-.537h.252c.053-.091.145-.226.273-.4a1.7 1.7 0 0 0 .194-.441c0-.076-.078-.167-.233-.269-.079-.064-.2-.148-.35-.249l-.292.269c-.129.115-.194.211-.194.287a.558.558 0 0 0 .136.423c.088.163.16.291.214.383zm-2.45-.23a3.792 3.792 0 0 0 .251-.382c.366-.528.522-.754.544-.787a.417.417 0 0 0 -.137-.5.449.449 0 0 0 -.263-.095.4.4 0 0 0 -.165.037 1.377 1.377 0 0 0 -.719.806c-.026.064.013.18.117.345a1.966 1.966 0 0 1 .2.327l.174.248zm7.776-.058a3.113 3.113 0 0 1 .777-.153.551.551 0 0 0 .369-.672.947.947 0 0 0 -.33-.288.963.963 0 0 0 -.337-.174h-.013c-.334.264-.519.417-.583.48a.746.746 0 0 0 .117.8zm-1.944-1.631 1.185-1.036-.37-.364c-.1-.106-.171-.16-.224-.16a.065.065 0 0 0 -.029.007 3.093 3.093 0 0 0 -.972.787v.038a7.3 7.3 0 0 1 .408.729zm-12.085-.328c.306 0 .559-.238.751-.709-1.242-.944-2.184-1.635-2.8-2.053a22.821 22.821 0 0 1 -2.465-1.955 8.7 8.7 0 0 1 -1.808-2.552 1.352 1.352 0 0 1 0-1.363 1.432 1.432 0 0 1 1.186-.671c2.9-.208 4.558-.346 5.074-.423a2.261 2.261 0 0 0 1.011-.69.455.455 0 0 0 .058-.288 1.7 1.7 0 0 0 -.1-.327c-.065-.077-.235-.115-.506-.115l-4.977.365a4.015 4.015 0 0 0 -2.177.748 2.729 2.729 0 0 0 -1.109 1.842 2.475 2.475 0 0 0 .137 1.132c.027.039.188.431.466 1.132a5.792 5.792 0 0 0 1.808 2.246c1.111.786 1.858 1.323 2.352 1.689l2.547 1.785a1 1 0 0 0 .556.207zm9.13-1.226a1.6 1.6 0 0 1 .7-.135.515.515 0 0 0 .447-.517c.025-.064-.06-.161-.253-.288-.106-.066-.27-.156-.486-.269l-.7.979.291.23zm-8.36-.173a5.62 5.62 0 0 0 .719-1c.026-.051-.013-.154-.116-.307-.141-.153-.252-.23-.33-.23-.581.064-.888.2-.914.4a.754.754 0 0 0 .077.5c.08.26.143.449.194.576l.369.058zm16.369-.537.971-.9-.35-.249v-.042a.549.549 0 0 0 -.33-.173c-.04 0-.079-.006-.116-.006a.727.727 0 0 0 -.506.179.75.75 0 0 0 -.194.556v.039c0 .064.057.145.175.249l.349.345zm3.325-1.094a6.861 6.861 0 0 0 .854-.92c-.3-.334-.486-.5-.551-.5h-.012a7.367 7.367 0 0 0 -.895.788l.6.632zm-17.843-7.236c.05-.036.189-.156.466-.4a.782.782 0 0 0 .252-.365.614.614 0 0 0 -.152-.465.9.9 0 0 0 -.664-.207.789.789 0 0 0 -.638.2.421.421 0 0 0 -.042.38.842.842 0 0 0 .311.422c.19.188.347.336.466.44zm12.967-1.382a1 1 0 0 0 .233-1.036 3.756 3.756 0 0 0 -.408-.768c-.7-1.251-1.562-2.671-2.567-4.222a10 10 0 0 0 -1.71-2.13 7.912 7.912 0 0 0 -.972-.73 2.4 2.4 0 0 0 -1.263-.383 1.993 1.993 0 0 0 -1.75.864c-.919 1.494-1.691 2.824-2.294 3.953-.552 1.215-.977 2.139-1.264 2.744a3.4 3.4 0 0 0 -.234.615.527.527 0 0 0 .331.5.941.941 0 0 0 .327.068.478.478 0 0 0 .313-.107 2.662 2.662 0 0 0 .409-.556c.2-.431 1.153-2.233 2.9-5.508l.389-.46c.45-.535.856-.806 1.205-.806h.048a2.035 2.035 0 0 1 1.234.731 15.528 15.528 0 0 1 2.041 2.63c.118.168.694 1.13 1.711 2.859.465.612.9 1.183 1.321 1.745z" fill="#015c50" opacity=".2" transform="matrix(.93969262 -.34202014 .34202014 .93969262 32.888713 -.000157)"/></svg>