<svg height="1120" viewBox="0 0 1120 1120" width="1120" xmlns="http://www.w3.org/2000/svg"><path d="m560 1120a569 569 0 0 1 -57.257-2.891 561.5 561.5 0 0 1 -55.6-8.486c-18.042-3.692-36.1-8.335-53.667-13.8-17.372-5.4-34.683-11.739-51.45-18.831-16.613-7.026-33.083-14.961-48.952-23.581-15.757-8.56-31.292-18-46.172-28.05-14.809-10-29.314-20.851-43.111-32.237-13.764-11.359-27.143-23.519-39.768-36.143s-24.785-26-36.143-39.768c-11.386-13.8-22.233-28.3-32.238-43.111-10.053-14.88-19.49-30.415-28.05-46.172-8.621-15.869-16.555-32.339-23.581-48.952-7.096-16.768-13.431-34.078-18.835-51.451-5.465-17.569-10.107-35.625-13.8-53.667a561.477 561.477 0 0 1 -8.486-55.6 568.409 568.409 0 0 1 0-114.514 561.476 561.476 0 0 1 8.486-55.6c3.692-18.042 8.335-36.1 13.8-53.667 5.4-17.372 11.739-34.683 18.831-51.45 7.027-16.613 14.961-33.083 23.581-48.952 8.56-15.757 18-31.292 28.05-46.172 10.005-14.809 20.851-29.314 32.238-43.111 11.359-13.764 23.519-27.143 36.143-39.768s26-24.785 39.768-36.143c13.8-11.386 28.3-22.233 43.111-32.238 14.88-10.053 30.415-19.49 46.172-28.05 15.869-8.621 32.339-16.555 48.952-23.581 16.768-7.092 34.078-13.428 51.45-18.831 17.569-5.465 35.625-10.107 53.667-13.8a561.476 561.476 0 0 1 55.6-8.486 568.409 568.409 0 0 1 114.514 0 561.477 561.477 0 0 1 55.6 8.486c18.042 3.692 36.1 8.335 53.667 13.8 17.372 5.4 34.683 11.739 51.45 18.831 16.613 7.027 33.083 14.961 48.952 23.581 15.757 8.56 31.292 18 46.172 28.05 14.809 10.005 29.314 20.851 43.111 32.238 13.764 11.359 27.143 23.519 39.768 36.143s24.785 26 36.143 39.768c11.386 13.8 22.233 28.3 32.237 43.111 10.053 14.88 19.49 30.415 28.05 46.172 8.621 15.869 16.555 32.339 23.581 48.952 7.092 16.768 13.428 34.078 18.831 51.45 5.465 17.569 10.107 35.625 13.8 53.667a561.5 561.5 0 0 1 8.486 55.6 568.415 568.415 0 0 1 0 114.514 561.5 561.5 0 0 1 -8.486 55.6c-3.692 18.042-8.335 36.1-13.8 53.667-5.4 17.372-11.739 34.683-18.831 51.45-7.026 16.613-14.961 33.083-23.581 48.952-8.56 15.757-18 31.292-28.05 46.172-10 14.809-20.851 29.314-32.237 43.111-11.359 13.764-23.519 27.143-36.143 39.768s-26 24.785-39.768 36.143c-13.8 11.386-28.3 22.233-43.111 32.237-14.88 10.053-30.415 19.49-46.172 28.05-15.869 8.621-32.339 16.555-48.952 23.581-16.768 7.092-34.078 13.428-51.45 18.831-17.569 5.465-35.625 10.107-53.667 13.8a561.5 561.5 0 0 1 -55.6 8.486 568.994 568.994 0 0 1 -57.253 2.892zm.724-1048.205h-.724c-268.408.788-487.094 219.796-487.487 488.205a488.178 488.178 0 0 0 488.1 488.219h.033a488.213 488.213 0 1 0 .081-976.425zm.877 819.185c-.527 0-1.064 0-1.6-.005h.718a303.464 303.464 0 0 1 -298.668-255.59 1589.234 1589.234 0 0 0 292.2 49.539 1839.65 1839.65 0 0 0 306.569-49.539 302.725 302.725 0 0 1 -299.214 255.593h-.006z" fill="#fff" opacity=".1"/></svg>