<svg height="26" viewBox="0 0 26 26" width="26" xmlns="http://www.w3.org/2000/svg"><g fill="#fff" opacity=".3"><path d="m10.833 21.666a10.833 10.833 0 1 1 10.833-10.833 10.845 10.845 0 0 1 -10.833 10.833zm0-19.5a8.667 8.667 0 1 0 8.667 8.667 8.677 8.677 0 0 0 -8.667-8.667z" transform="translate(2.167 2.167)"/><path d="m3.224 7.283a1.1 1.1 0 0 0 1.512 0l5.784-5.535a.992.992 0 0 0 0-1.448 1.1 1.1 0 0 0 -1.514 0l-5.027 4.811-2.153-2.06a1.1 1.1 0 0 0 -1.513 0 .993.993 0 0 0 0 1.448z" transform="translate(7.583 9.75)"/></g></svg>