<?xml version="1.0" encoding="UTF-8"?>
<svg width="40px" height="48px" viewBox="0 0 40 48" version="1.1" xmlns="http://www.w3.org/2000/svg" xmlns:xlink="http://www.w3.org/1999/xlink">
    <title>marker</title>
    <g id="Design" stroke="none" stroke-width="1" fill="none" fill-rule="evenodd">
        <g id="Health---Dental-Emergency" transform="translate(-296.000000, -2073.000000)">
            <g id="marker" transform="translate(296.000000, 2073.000000)">
                <path d="M39.9049116,18.3361733 C39.2329597,11.2468282 34.9414244,5.03472523 28.599568,1.97141016 C22.2577117,-1.09190491 14.7955442,-0.557208116 8.94171578,3.37998088 C3.93558808,6.77373019 0.690098435,12.2605859 0.095088413,18.3361733 C-0.488670654,24.3727317 1.63673088,30.3553349 5.88304143,34.6281661 L18.3530215,47.2944152 C18.7948037,47.7459936 19.3961764,48 20.0235283,48 C20.6508801,48 21.2522528,47.7459936 21.694035,47.2944152 L34.1169586,34.6281661 C38.3632691,30.3553349 40.4886707,24.3727317 39.9049116,18.3361733 L39.9049116,18.3361733 Z" id="Shape" fill="#015C50"></path>
                <path d="M20,12 C15.581722,12 12,15.581722 12,20 C12,24.418278 15.581722,28 20,28 C24.418278,28 28,24.418278 28,20 C27.9902232,15.585778 24.414222,12.0097768 20,12 L20,12 Z" id="Path" fill="#58E3C2" fill-rule="nonzero"></path>
            </g>
        </g>
    </g>
</svg>