<svg height="48" viewBox="0 0 40 48" width="40" xmlns="http://www.w3.org/2000/svg"><g fill="none" fill-rule="evenodd"><path d="m39.9049116 18.3361733c-.6719519-7.0893451-4.9634872-13.30144807-11.3053436-16.36476314-6.3418563-3.06331507-13.8040238-2.52861828-19.65785222 1.40857072-5.0061277 3.39374931-8.25161734 8.88060502-8.84662737 14.95619242-.58375906 6.0365584 1.54164247 12.0191616 5.78795302 16.2919928l12.46998007 12.6662491c.4417822.4515784 1.0431549.7055848 1.6705068.7055848.6273518 0 1.2287245-.2540064 1.6705067-.7055848l12.4229236-12.6662491c4.2463105-4.2728312 6.3717121-10.2554344 5.787953-16.2919928z" fill="#015c50"/><path d="m20 12c-4.418278 0-8 3.581722-8 8s3.581722 8 8 8 8-3.581722 8-8c-.0097768-4.414222-3.585778-7.9902232-8-8z" fill="#58e3c2" fill-rule="nonzero"/></g></svg>