<svg xmlns="http://www.w3.org/2000/svg" width="2791" height="1350" viewBox="0 0 2791 1350">
  <path id="Shape" d="M2433.556,1350a265.047,265.047,0,0,1-47.625-4.253,241.352,241.352,0,0,1-44.287-12.522,224.546,224.546,0,0,1-40.022-20.437,215.334,215.334,0,0,1-63.532-63.2,231.1,231.1,0,0,1-21.653-42.051C2204.2,1176.4,2198,1141.664,2198,1104.307a297.021,297.021,0,0,1,5.12-55.108,283.351,283.351,0,0,1,14.638-50.849,273.585,273.585,0,0,1,23.068-45.639,264.282,264.282,0,0,1,30.409-39.476,253.676,253.676,0,0,1,36.664-32.361,242.154,242.154,0,0,1,41.832-24.295,232.389,232.389,0,0,1,45.911-15.275,228.468,228.468,0,0,1,48.9-5.3,263.437,263.437,0,0,1,46.933,4.052,210.638,210.638,0,0,1,40.713,11.6,173.647,173.647,0,0,1,62.723,42.482,178.9,178.9,0,0,1,37.7,62.6,212.247,212.247,0,0,1,9.44,36.753,241.9,241.9,0,0,1,3.15,39.268v5.621H2348.816a367.646,367.646,0,0,0,3.348,45.551,274.06,274.06,0,0,0,8.528,39.964,206.413,206.413,0,0,0,13.45,34.226,161.956,161.956,0,0,0,18.113,28.339,137.6,137.6,0,0,0,22.517,22.3,131.507,131.507,0,0,0,26.661,16.115,142.812,142.812,0,0,0,30.546,9.779,172.647,172.647,0,0,0,34.173,3.293c2.163.085,4.358.129,6.525.129a165.245,165.245,0,0,0,130.615-64.011l3.707,1.916a224.045,224.045,0,0,1-25.838,71.5,199.036,199.036,0,0,1-46.375,54.9,203.813,203.813,0,0,1-63.63,35.2A239.4,239.4,0,0,1,2433.556,1350Zm-4.61-500a48.365,48.365,0,0,0-18.379,3.569,55.282,55.282,0,0,0-15.938,10.175c-9.5,8.52-17.813,20.965-24.714,36.989-6.5,15.1-11.694,33.221-15.435,53.873A440.736,440.736,0,0,0,2348,1019h150a528.806,528.806,0,0,0-3.921-67.516c-2.716-20.862-6.85-38.871-12.288-53.526a119.666,119.666,0,0,0-9.529-20.179,70.963,70.963,0,0,0-11.918-15.076,47.432,47.432,0,0,0-14.406-9.438A44.488,44.488,0,0,0,2428.946,850ZM398.768,1350a413.18,413.18,0,0,1-120.091-18.078,340.652,340.652,0,0,1-49.974-19.63,221.187,221.187,0,0,1-39.039-24.054l-10.1-167.508h10.1a335.777,335.777,0,0,0,10.845,38.81,346.259,346.259,0,0,0,15.776,38.2,326.455,326.455,0,0,0,20.458,36.175,286.477,286.477,0,0,0,24.892,32.75c39.7,44.9,87.734,68.634,138.923,68.634a161.445,161.445,0,0,0,48.279-6.979,115.551,115.551,0,0,0,38.879-20.465c23.134-18.911,35.362-46.076,35.362-78.559a130.363,130.363,0,0,0-3.341-30.073,105.755,105.755,0,0,0-9.475-25.234,108.491,108.491,0,0,0-14.79-21.109,137.676,137.676,0,0,0-19.285-17.7,199.325,199.325,0,0,0-22.959-14.994c-7.708-4.363-16.152-8.617-25.814-13.005-17.976-8.165-36.884-15.32-56.9-22.894l-.006,0c-43.807-16.575-89.105-33.714-123.342-61.995-4.345-3.589-8.484-7.34-12.3-11.15a158.366,158.366,0,0,1-11.127-12.323,147.392,147.392,0,0,1-9.811-13.62,144.436,144.436,0,0,1-8.35-15.043,149.481,149.481,0,0,1-6.745-16.591,162.978,162.978,0,0,1-5-18.264,186.206,186.206,0,0,1-3.1-20.062c-.708-7.042-1.066-14.439-1.066-21.985A195.6,195.6,0,0,1,291.083,720.631H0v-13.81c16.823-1.78,28.079-3.568,36.5-5.8,9.315-2.468,15.731-5.644,20.191-9.994a26.543,26.543,0,0,0,5.464-7.687,41.412,41.412,0,0,0,3.169-10.075c1.6-8.244,1.823-18.859,1.823-29.1v-493.7c0-10.246-.221-20.865-1.823-29.12a41.534,41.534,0,0,0-3.169-10.091,26.589,26.589,0,0,0-5.464-7.7c-4.465-4.362-10.881-7.539-20.191-10-8.434-2.229-19.69-4-36.5-5.744V74H317.172a546.569,546.569,0,0,1,62.612,3.423,392.925,392.925,0,0,1,53.909,9.911A283.023,283.023,0,0,1,479.007,103.2a209.818,209.818,0,0,1,36.831,21.279,166.683,166.683,0,0,1,28.455,26.157,148.2,148.2,0,0,1,20.19,30.5c10.63,21.463,16.02,45.648,16.02,71.882l157.563-38.361h3.581l-3.581,170.321c2.845-12.624,5.976-24.726,9.3-35.969,3.428-11.584,7.161-22.584,11.1-32.695a297.187,297.187,0,0,1,12.99-28.951,207.3,207.3,0,0,1,14.986-24.74,144.744,144.744,0,0,1,17.085-20.058,106.16,106.16,0,0,1,19.285-14.908,88.345,88.345,0,0,1,21.586-9.289,89.685,89.685,0,0,1,23.991-3.2c.368,0,.752-.008,1.14-.008A81.718,81.718,0,0,1,912,227.058v137.2H890c-17.76,0-31.039.273-43.056.885a355.1,355.1,0,0,0-40.2,4.086,196.334,196.334,0,0,0-36.557,9.432,145.14,145.14,0,0,0-16.665,7.391,127.815,127.815,0,0,0-15.456,9.533V669.1c0,7.332,1.456,13.227,4.452,18.024,2.917,4.669,7.338,8.357,13.517,11.274,12.282,5.8,30.944,8.277,55.186,10.214v12.02H615.162v18.924l3.709,149.99h-9.208A342.169,342.169,0,0,0,584.6,813.308c-10.914-23.111-24.142-43.3-39.317-60.006-15.5-17.066-32.853-30.286-51.57-39.292a141.468,141.468,0,0,0-61.822-14.094,138.315,138.315,0,0,0-45.214,7.129A101.067,101.067,0,0,0,351.8,727.216a88.837,88.837,0,0,0-22.457,31.392,103.211,103.211,0,0,0-7.95,40.79,84.237,84.237,0,0,0,2.918,22.441,75.117,75.117,0,0,0,8.313,19.138,87.886,87.886,0,0,0,13.048,16.347,125.6,125.6,0,0,0,17.122,14.069c25.251,17.469,59.615,30.234,96,43.749l.015.006c23.506,8.732,47.811,17.762,71.1,28.586A372.049,372.049,0,0,1,563.833,961.5a249.19,249.19,0,0,1,30.943,21.543c4.909,4.032,9.589,8.249,13.909,12.533a179.782,179.782,0,0,1,12.63,13.891,167.568,167.568,0,0,1,11.175,15.387,164.179,164.179,0,0,1,9.541,17.021,169.082,169.082,0,0,1,7.729,18.792,183.347,183.347,0,0,1,5.741,20.7,208.5,208.5,0,0,1,3.575,22.748,246.531,246.531,0,0,1,1.231,24.932c0,32.275-6.863,62.694-20.4,90.411a201.954,201.954,0,0,1-23.979,37.716,218.144,218.144,0,0,1-31.814,32.028,244.109,244.109,0,0,1-38.636,25.819,275.97,275.97,0,0,1-44.446,19.087,310.1,310.1,0,0,1-49.241,11.835A343.819,343.819,0,0,1,398.768,1350Zm28.22-664.7A355.8,355.8,0,0,1,543.728,705a42.118,42.118,0,0,0,10.424-3.866,22.525,22.525,0,0,0,7.238-6.156c3.813-5.053,5.589-12.108,5.589-22.2L568,323.767l-.767-.767c-16.058,37.682-46.386,66.8-90.14,86.548-44.609,20.133-102.819,30.341-173.014,30.341H248V643.742c0,10.807,1.261,19.461,3.856,26.455a38.217,38.217,0,0,0,12.814,17.523c5.837,4.492,13.57,8.02,23.64,10.784,9.442,2.592,20.988,4.575,36.336,6.241A277.151,277.151,0,0,1,425.437,685.3C425.956,685.3,426.47,685.3,426.988,685.3ZM247,91V421h19.369a163.8,163.8,0,0,0,31.619-2.952,130.244,130.244,0,0,0,27.657-8.653,115.4,115.4,0,0,0,23.616-14.05,116.83,116.83,0,0,0,19.5-19.143c11.547-14.316,20.4-31.928,26.327-52.348C401,303.46,404,280.222,404,254.786,404,153.759,351.263,91,266.368,91Zm998.025,1249H978.081v-12.017a222.765,222.765,0,0,0,23.144-2.647c6.632-1.257,11.4-2.94,15.018-5.3a19.916,19.916,0,0,0,4.844-4.379,21.52,21.52,0,0,0,3.27-5.927c1.66-4.452,2.433-10.069,2.433-17.677V992.893c0-45.854-19.237-68.143-58.811-68.143a143.951,143.951,0,0,0-69.165,18.41v348.9c0,7.6.779,13.22,2.453,17.677a21.527,21.527,0,0,0,3.291,5.927,20.007,20.007,0,0,0,4.867,4.379c3.629,2.356,8.415,4.038,15.062,5.3a223.714,223.714,0,0,0,23.165,2.647V1340H677v-12.017c8.07-.616,16.5-1.363,23.523-2.647,6.929-1.267,11.967-2.95,15.854-5.3,8.244-4.976,11.762-13.345,11.762-27.983V943.16L677,892.021v-3.708L898.815,835h3.708l-3.708,102.279a239.4,239.4,0,0,1,26.832-34.266,249.033,249.033,0,0,1,37.859-33.126,201.421,201.421,0,0,1,47.064-25,166.829,166.829,0,0,1,26.414-7.269A153.179,153.179,0,0,1,1065.016,835a155.524,155.524,0,0,1,47.474,6.991,120.485,120.485,0,0,1,38.233,20.176,118.491,118.491,0,0,1,28.044,32.162,147.663,147.663,0,0,1,16.91,42.949,236.4,236.4,0,0,1,26.939-34.266,251.15,251.15,0,0,1,38.039-33.126,203.294,203.294,0,0,1,47.1-25,166.647,166.647,0,0,1,26.311-7.269A151.136,151.136,0,0,1,1361.877,835a164.7,164.7,0,0,1,29.953,2.633,129.819,129.819,0,0,1,26.308,7.743,112.025,112.025,0,0,1,22.557,12.615,109.146,109.146,0,0,1,18.7,17.25c11.128,12.961,19.669,28.929,25.386,47.46,5.742,18.61,8.654,39.86,8.654,63.161V1292.7c.256,7.225,1.441,12.886,3.624,17.307a23,23,0,0,0,9.736,10.116c4.107,2.3,9.334,3.964,16.448,5.226,7.157,1.269,15.649,2.017,23.76,2.637V1340H1276.347v-12.017a222.815,222.815,0,0,0,23.145-2.647c6.632-1.257,11.4-2.94,15.018-5.3a19.916,19.916,0,0,0,4.844-4.379,21.513,21.513,0,0,0,3.27-5.927c1.66-4.452,2.433-10.069,2.433-17.677V992.893a137.364,137.364,0,0,0-.757-14.821,94.453,94.453,0,0,0-2.371-13.3,66.274,66.274,0,0,0-4.14-11.642,50.209,50.209,0,0,0-6.06-9.841,44.108,44.108,0,0,0-8.134-7.9,47.387,47.387,0,0,0-10.36-5.816,61.366,61.366,0,0,0-12.739-3.593,89.509,89.509,0,0,0-15.271-1.229,140.646,140.646,0,0,0-68.143,18.41v348.9c0,7.639.735,13.256,2.314,17.677a21.534,21.534,0,0,0,3.147,5.927,19.318,19.318,0,0,0,4.7,4.379c3.527,2.359,8.216,4.042,14.755,5.3a217.9,217.9,0,0,0,23.024,2.647V1340Zm928.932,0H1899.578v-12.015c8.12-.62,16.612-1.369,23.725-2.646,7.086-1.272,12.263-2.954,16.294-5.294a22.053,22.053,0,0,0,9.389-10.3c2.027-4.509,3.012-10.29,3.012-17.672V704.127L1779.9,729.689H1776.2l2.43-97.011a275.537,275.537,0,0,1-28.722,34.294,241.275,241.275,0,0,1-37.364,31.083,192.259,192.259,0,0,1-45.3,22.552,167.988,167.988,0,0,1-25.4,6.414,162.517,162.517,0,0,1-27.123,2.286c-20.466,0-39.277-3.123-55.913-9.283a117.108,117.108,0,0,1-43.974-28.359,119.341,119.341,0,0,1-16.491-21.573,140.893,140.893,0,0,1-12.285-26.629,182.079,182.079,0,0,1-7.669-31.782,247.728,247.728,0,0,1-2.646-37.03V327.075c0-9.044-.523-15.554-1.695-21.1a44.452,44.452,0,0,0-2.648-8.525,34.636,34.636,0,0,0-4.32-7.4c-3.557-4.655-8.487-8.627-15.072-12.143-6.618-3.533-15.124-6.721-26-9.746v-9.2l221.83-43.2h3.708l-5.5,116.821V566.982a151.936,151.936,0,0,0,1,17.974,102.24,102.24,0,0,0,3.034,15.577,71.362,71.362,0,0,0,5.107,13.181,54.636,54.636,0,0,0,7.223,10.784,49.321,49.321,0,0,0,9.381,8.388,54.409,54.409,0,0,0,11.58,5.991,71.061,71.061,0,0,0,13.821,3.6,102.418,102.418,0,0,0,16.1,1.2l.809,0a113.174,113.174,0,0,0,64.526-20.2V326.309c0-9.031-.518-15.54-1.68-21.1a45.035,45.035,0,0,0-2.615-8.525,34.889,34.889,0,0,0-4.256-7.4c-3.5-4.654-8.343-8.626-14.805-12.142-6.492-3.532-14.828-6.72-25.486-9.746v-9.2l220.04-43.2h3.708l-4.6,116.822V638.558c0,9.09.531,15.48,1.724,20.72a35.189,35.189,0,0,0,2.746,7.951,24.987,24.987,0,0,0,4.527,6.43c3.76,3.856,8.986,6.655,15.976,8.557,7.093,1.93,16.2,2.993,27.831,3.249l77.354-19.044a198.14,198.14,0,0,1-22.6-32.918,233.127,233.127,0,0,1-16.928-39.089,276.305,276.305,0,0,1-10.622-44.625,326.908,326.908,0,0,1-3.681-49.526c0-43.656,6.934-84.125,20.608-120.281,13.062-34.533,32.078-64.7,56.521-89.653a241.994,241.994,0,0,1,39.24-32.4,249.289,249.289,0,0,1,45.233-23.609,268.33,268.33,0,0,1,50.231-14.442,297.774,297.774,0,0,1,54.235-4.9c.734-.011,1.482-.017,2.223-.017a145.02,145.02,0,0,1,72.317,19.317V108.13l-51.142-51.125V53.3L2532.081,0h3.58V639.069c0,9.13.545,15.544,1.766,20.8a34.814,34.814,0,0,0,2.819,7.983,25.176,25.176,0,0,0,4.653,6.464c3.864,3.879,9.241,6.707,16.438,8.647,7.3,1.967,16.673,3.079,28.664,3.4V697.48l-223.748,32.209h-3.58l3.708-97.65a214.783,214.783,0,0,1-23.631,35.479,181.7,181.7,0,0,1-32.993,31.32c-28.08,20.471-60.649,30.851-96.8,30.851-.452,0-.941.006-1.453.006a171.379,171.379,0,0,1-90.093-25.569V1292.07c0,7.38.992,13.161,3.033,17.672a22.113,22.113,0,0,0,9.433,10.3c4.044,2.339,9.235,4.021,16.338,5.294s15.617,2.025,23.745,2.646V1340ZM2299.073,231a66.684,66.684,0,0,0-23.552,4.19,70.225,70.225,0,0,0-20.373,12.067c-12.227,10.253-22.743,25.308-31.257,44.746-8.184,18.685-14.47,41.291-18.684,67.19-4.119,25.314-6.207,53.439-6.207,83.592,0,31.452,2.685,59.936,7.982,84.661,5.161,24.1,12.828,44.766,22.789,61.437,9.812,16.421,21.878,29.016,35.864,37.434,13.948,8.395,29.83,12.651,47.206,12.651.784.02,1.574.03,2.348.03A90.433,90.433,0,0,0,2366,623.367V337.788a205.326,205.326,0,0,0-4.4-44.256c-2.912-13.095-7.256-24.414-12.908-33.645-5.72-9.341-12.781-16.538-20.987-21.391A55.427,55.427,0,0,0,2299.073,231ZM1861,1340H1587v-12.017c8.06-.616,16.483-1.363,23.493-2.647,6.921-1.267,11.952-2.95,15.833-5.3,8.234-4.976,11.746-13.345,11.746-27.983V943.16L1587,892.021v-3.708L1804.821,835h3.7v457.057c0,7.382.991,13.164,3.029,17.677a22.106,22.106,0,0,0,9.42,10.306c4.038,2.339,9.222,4.022,16.315,5.3,7.108,1.276,15.6,2.026,23.713,2.647V1340ZM1179,730a316.655,316.655,0,0,1-53.671-4.494,279.21,279.21,0,0,1-49.216-13.125,250.951,250.951,0,0,1-43.927-21.226,232.454,232.454,0,0,1-37.807-28.793,224.855,224.855,0,0,1-30.855-35.828,229.563,229.563,0,0,1-23.07-42.331C927.545,553.19,921,518.857,921,482.161a301.892,301.892,0,0,1,5.151-55.93A277.04,277.04,0,0,1,940.972,375.1a261.382,261.382,0,0,1,23.544-45.509,252.566,252.566,0,0,1,31.318-39.07A248.854,248.854,0,0,1,1078,234.972a257.991,257.991,0,0,1,48.954-14.843A273.091,273.091,0,0,1,1179.9,215a314.021,314.021,0,0,1,53.633,4.525,276.913,276.913,0,0,1,49.114,13.2,249.413,249.413,0,0,1,43.784,21.32,231.874,231.874,0,0,1,37.643,28.878,225.084,225.084,0,0,1,30.69,35.878,230.3,230.3,0,0,1,22.927,42.318C1430.5,392.081,1437,426.3,1437,462.839a301.416,301.416,0,0,1-5.155,55.893,277.266,277.266,0,0,1-14.821,51.111,262,262,0,0,1-23.527,45.507,253.194,253.194,0,0,1-31.267,39.079,248.761,248.761,0,0,1-81.909,55.581,256.183,256.183,0,0,1-48.715,14.855A269.641,269.641,0,0,1,1179,730Zm-4.161-502a47.362,47.362,0,0,0-18.75,3.7,48.944,48.944,0,0,0-15.583,10.845,76.843,76.843,0,0,0-12.622,17.624,140.676,140.676,0,0,0-9.866,24.035C1107.239,318.359,1102,368.365,1102,437.077c0,87.568,6.434,155.922,19.123,203.163a226.855,226.855,0,0,0,11.213,32.629,112.877,112.877,0,0,0,14,24.092,66.263,66.263,0,0,0,8.083,8.647,49.246,49.246,0,0,0,8.822,6.275A40.674,40.674,0,0,0,1183.161,717l.519,0a46.974,46.974,0,0,0,18.613-3.671,48.527,48.527,0,0,0,15.471-10.784A76.335,76.335,0,0,0,1230.3,685a140.317,140.317,0,0,0,9.8-23.968C1250.8,626.936,1256,576.854,1256,507.92c0-42.693-1.565-81.312-4.652-114.787-1.582-17.152-3.591-33.231-5.973-47.791-2.426-14.831-5.3-28.47-8.545-40.537a227.492,227.492,0,0,0-11.221-32.643,113.22,113.22,0,0,0-14-24.108,66.352,66.352,0,0,0-8.077-8.654,49.265,49.265,0,0,0-8.812-6.281,40.526,40.526,0,0,0-19.88-5.12ZM2691,202a100.767,100.767,0,0,1-20.154-2.031,99.44,99.44,0,0,1-35.757-15.047,100.3,100.3,0,0,1-36.23-44,99.515,99.515,0,0,1-5.826-18.771,100.983,100.983,0,0,1,0-40.307,99.429,99.429,0,0,1,15.047-35.757,100.3,100.3,0,0,1,44-36.23,99.505,99.505,0,0,1,18.771-5.827,100.989,100.989,0,0,1,40.308,0,99.444,99.444,0,0,1,35.758,15.047,100.3,100.3,0,0,1,36.23,44,99.558,99.558,0,0,1,5.827,18.771,100.983,100.983,0,0,1,0,40.307,99.453,99.453,0,0,1-15.047,35.758,100.295,100.295,0,0,1-44,36.231,99.506,99.506,0,0,1-18.771,5.827A100.768,100.768,0,0,1,2691,202Zm.872-187a87.776,87.776,0,0,0-17.5,1.811,86.651,86.651,0,0,0-31.046,13.129,87.366,87.366,0,0,0-31.466,38.248,86.7,86.7,0,0,0-5.073,16.306A86.989,86.989,0,0,0,2691.979,189h.005A87,87,0,1,0,2692,15Zm0,146a52.823,52.823,0,0,1-18.781-3.518,53.466,53.466,0,0,1-15.964-9.614,54.357,54.357,0,0,1-11.809-14.549A55.025,55.025,0,0,1,2639,115a277.218,277.218,0,0,0,51.729,8.915A320.75,320.75,0,0,0,2745,115a54.88,54.88,0,0,1-6.311,18.368,54.2,54.2,0,0,1-11.836,14.57,53.342,53.342,0,0,1-16.005,9.6,52.631,52.631,0,0,1-18.82,3.46h-.155Z" transform="translate(0)" fill="#fff" opacity="0.05"/>
</svg>
