<svg xmlns="http://www.w3.org/2000/svg" width="99" height="99" viewBox="0 0 99 99">
  <path id="Shape" d="M49.5,99A49.513,49.513,0,0,1,30.232,3.89,49.513,49.513,0,0,1,68.768,95.11,49.191,49.191,0,0,1,49.5,99ZM50,7h-.062A43,43,0,1,0,50,7Zm-.562,72a26.433,26.433,0,0,1-9.39-1.76,26.734,26.734,0,0,1-7.982-4.807,27.178,27.178,0,0,1-5.9-7.274A27.52,27.52,0,0,1,23,56a138.536,138.536,0,0,0,25.864,4.458A160.266,160.266,0,0,0,76,56a27.453,27.453,0,0,1-3.155,9.184,27.112,27.112,0,0,1-5.917,7.285,26.669,26.669,0,0,1-8,4.8A26.31,26.31,0,0,1,49.516,79h-.08Z" fill="#fff" opacity="0.1"/>
</svg>
