<svg height="40" viewBox="0 0 110 40" width="110" xmlns="http://www.w3.org/2000/svg" xmlns:xlink="http://www.w3.org/1999/xlink"><filter id="a"><feColorMatrix in="SourceGraphic" type="matrix" values="0 0 0 0 1.000000 0 0 0 0 1.000000 0 0 0 0 1.000000 0 0 0 1.000000 0"/></filter><g fill="none" fill-rule="evenodd" filter="url(#a)" transform="translate(-683 -613)"><g transform="translate(683 613)"><g fill="#1f2448"><path d="m53.8592781 32.6471994c-.6997387.0259386-1.3768704-.2518208-1.8580753-.7630279-.470978-.5155302-.7223456-1.1964191-.6997387-1.8956812-.0064591-.7041256.1668608-1.3985242.5038119-2.0167281.2960433-.5522766.6572161-1.0672664 1.076521-1.5325405l10.4013462-11.8063976h-9.0664601c-.8784412 0-1.5071295-.3026173-1.8516162-.9035288-.3353363-.6036134-.5027353-1.2866639-.4844345-1.9777121-.0242217-.6659202.1668608-1.3218432.5447197-1.8697426.3746293-.51850232.9839402-.81263552 1.6212407-.78248187h16.018633c.6771317-.0313425 1.3375773.21707387 1.8279327.68737357.4542919.4560875.6846674 1.1045531.6846674 1.9259429.0193773.6397114-.113573 1.2746673-.3875476 1.8523421-.2626711.5036417-.5920866.9689158-.9796342 1.3833934l-10.8319546 12.1630537h10.2635515c.6173849-.0151308 1.2051653.265871 1.582486.7565433.4020806.5490342.6050048 1.2196558.5748622 1.9000043.0290661.7095295-.1399477 1.4125743-.4887406 2.0296974-.3509458.5641651-.973175.8516516-1.8473101.8516516z"/><path d="m79.0218808 7.23610081c-1.1109697 0-2.0217065-.32639437-2.71068-.9705369-.6889735-.64414254-1.0485315-1.53254046-1.0485315-2.62412427-.0263747-.96772689.3525607-1.90227395 1.0442254-2.57657013.6825144-.67224271 1.5975572-1.01592949 2.7149861-1.01592949.921502.00205347 1.8171675.30558943 2.5513548.86462084.8009317.59226528 1.2078566 1.51308649 1.2078566 2.73652498 0 1.09158382-.3530989 1.97565864-1.0485315 2.62628583-.6954326.65062718-1.6061693.96621379-2.7106799.96621379zm0 25.72236209c-2.8506277 0-3.4448673-1.4698554-3.4448673-2.7019401v-17.9841136c0-.9401671.2820485-1.7010335.8418394-2.2608755.5597909-.55984197 1.4511504-.84516685 2.6525478-.84516685 1.0119298 0 1.8128615.23128607 2.3834176.68953512.5705562.45824903.8870533 1.19749983.8870533 2.14847473v18.1570378c0 .9878293-.310038 1.7141108-.921502 2.1615521-.6114639.4474413-1.3973243.6354963-2.3984888.6354963z"/><path d="m97.968651 14.0967591c-.7336491-.0178328-1.4597625.154551-2.1078282.4993186-.6103874.3474695-1.1330384.830036-1.5286599 1.4114935-.4446032.6581926-.7691743 1.389878-.9581037 2.1615521-.2228398.8970442-.3321067 1.8189461-.3251093 2.7435501 0 2.1048113.4306084 3.7935239 1.2918252 5.019124.8612168 1.2256 2.0303187 1.7984113 3.6364881 1.7984113 1.6061693 0 2.7752708-.6138808 3.5869678-1.8783888.811697-1.2645079 1.244506-2.9488974 1.244506-4.9391465.002644-.9224424-.110391-1.8411021-.335922-2.7349039-.188929-.7684317-.506503-1.4990363-.938726-2.1615521-.384318-.5819979-.901048-1.064024-1.50713-1.4071704-.6308411-.345308-1.3397302-.5220148-2.058308-.5122879zm-8.1944781 25.7532724c-2.6654661 0-3.2295631-1.4936326-3.2295631-2.7473328v-25.4396851c-.0231452-.7968022.2820485-1.5678818.8439925-2.13134445.5576379-.55984199 1.4511503-.84516687 2.6525478-.84516687.7471056-.00761947 1.485599.164332 2.1530421.50148009.7083508.36530231 1.076521 1.08083013 1.076521 2.10756733.1437155-.165737.2976581-.3357971.462904-.5101263.4526771-.4611671.958642-.86613391 1.5071295-1.2062001 1.3332713-.83560201 2.8786172-1.26785839 4.4503379-1.24505402 1.5060534-.02939711 2.9986494.29483571 4.3577574.94675983 1.24392.6165287 2.3269 1.51665309 3.162819 2.62833929.870905 1.1893941 1.506591 2.5349603 1.873146 3.9642866.419305 1.6152198.624921 3.2790745.611464 4.9477928.01561 1.7006011-.221225 3.3936368-.701892 5.0239875-.424687 1.4476995-1.122273 2.8008311-2.054002 3.9859021-.897818 1.1159013-2.035701 2.0140262-3.328603 2.6262858-1.406474.6473849-2.939979.9699965-4.4869394.9445983-1.0361515.0297213-2.0696117-.1167238-3.0573198-.4323104-.7094273-.2415535-1.3833295-.5765941-2.0044821-.9964756-.3369511-.2296649-.6469892-.4955358-.9258081-.7932896v5.7929597c0 1.0072833-.2734364 1.7508572-.8138499 2.2091063-.5404136.458249-1.3714878.6679196-2.5492018.6679196z"/></g><path d="m39.2939485 14.9959648-8.8748394 8.0150353h-21.98040649c-2.05023431-.002702-4.03049475.747897-5.56776679 2.1096748l11.08601358-10.0144709.1700904-.1513087 13.8892743-12.55634813c2.2397021-2.02251028 5.3836817-2.69188893 8.2483042-1.7559909 2.8640842.93595206 5.0138967 3.33495068 5.6388172 6.29335899.6249205 2.95846234-.369785 6.02710984-2.609487 8.04924184z" fill="#e05741"/><path d="m8.43870261 17.1704863c4.65756829 0 8.43346579-3.7908221 8.43346579-8.46669161 0-4.67608569-3.7758975-8.46679964-8.43346579-8.46679964-4.65756825 0-8.43346578 3.79071395-8.43346578 8.46679964 0 4.67586951 3.77589753 8.46669161 8.43346578 8.46669161" fill="#ec9232" opacity=".2"/><path d="m8.43870261 23.0109928c-2.05023431-.0026947-4.03049475.7479043-5.56776679 2.1096821l-.07105039.0648466c-3.46262991 3.1266851-3.7450552 8.4792286-.63084132 11.9555448 3.11437535 3.4763162 8.44584579 3.7600199 11.90847569.6333347l16.3437423-14.7612394z" fill="#1f2448" opacity=".2"/><path d="m30.4212621 23.0110001-16.3458954 14.7612394c-1.5480372 1.3974434-3.5573637 2.1674964-5.63881713 2.1615863h25.21858173c4.795363-.0767693 8.2989007-3.8627278 8.2989007-8.4657531 0-4.6024848-3.6940819-8.3916857-8.2989007-8.4657188z" fill="#21a5a8" opacity=".4"/></g></g></svg>