<?xml version="1.0" encoding="UTF-8"?>
<svg width="275px" height="173px" viewBox="0 0 275 173" version="1.1" xmlns="http://www.w3.org/2000/svg" xmlns:xlink="http://www.w3.org/1999/xlink">
    <title>Group 13</title>
    <g id="Design" stroke="none" stroke-width="1" fill="none" fill-rule="evenodd">
        <g id="Implants" transform="translate(-295.000000, -5437.000000)" fill="#17866B">
            <g id="Group-13" transform="translate(295.000000, 5437.000000)">
                <g id="SameDayCrown" opacity="0.5">
                    <path d="M180.015772,39.6566387 C180.457984,39.7053271 180.9012,39.7986885 181.340902,39.9412403 C184.827898,41.0676 186.740803,44.808078 185.613991,48.2945729 L174.650004,82.2188813 C173.523192,85.7058782 169.783166,87.6192843 166.296671,86.4919207 C162.809674,85.365059 160.89677,81.625083 162.023632,78.1380861 L172.987569,44.2137777 C173.972381,41.1669847 176.952917,39.3213409 180.015772,39.6566387" id="Fill-3"></path>
                    <path d="M136.679534,58.6581866 C137.373721,58.73398 138.066904,58.9217066 138.735994,59.2298995 L171.114318,74.1531619 C174.442199,75.6870992 175.896328,79.6278524 174.36239,82.9557334 C172.829005,86.2836144 168.8877,87.7377428 165.559819,86.2043074 L133.181494,71.281045 C129.853613,69.7471077 128.398983,65.8058526 129.93292,62.4779716 C131.158665,59.8191804 133.921358,58.356017 136.679534,58.6581866" id="Fill-4"></path>
                    <path d="M30.7429928,152.057702 C57.1732947,174.462422 93.5526056,178.086951 123.134105,163.92363 C126.85852,162.140729 128.081755,157.434513 125.696573,154.063967 C123.812731,151.402164 120.281062,150.497663 117.346202,151.919667 C105.175092,157.817496 91.7215181,160.056663 78.200684,158.576935 C38.5567369,154.238141 9.83406211,118.45564 14.172856,78.8121953 C18.5116498,39.1682483 54.2941506,10.4455735 93.9375957,14.7843673 C126.02128,18.2954574 154.030242,43.7319125 158.032684,79.3312042 L171.525911,80.80792 C166.426674,17.7302698 100.11852,-17.542759 46.1932952,10.8842715 C-7.51509003,39.1988668 -15.5702686,112.796737 30.7429928,152.057702" id="Fill-5"></path>
                </g>
                <path d="M55.8832003,86.8851887 C56.0992409,87.4233669 56.2196154,87.9951456 56.2388967,88.5747467 C56.2388967,89.2416775 55.9721244,89.9086084 55.8387383,90.5310771 C55.5441694,91.7170404 55.3214541,92.9197028 55.1718074,94.1325035 C53.965599,105.717408 59.2275114,117.027103 68.8661201,123.566383 C70.0449053,124.368288 71.4421661,124.787466 72.867705,124.766859 L73.5790978,124.766859 C77.1149403,124.17679 79.6974389,121.104182 79.6703992,117.519544 L79.6703992,108.627133 C79.6101622,107.247129 80.1012534,105.899828 81.0353993,104.882276 C81.9695452,103.864724 83.2700373,103.260479 84.6501493,103.202763 C87.5082166,103.613665 89.5755734,106.144728 89.4075891,109.027292 L89.4075891,117.608468 C89.4436204,121.377377 92.3624927,124.489553 96.1213593,124.766859 C97.6229359,124.841269 99.1072642,124.419407 100.345254,123.566383 C111.327971,116.490642 116.584624,103.205972 113.417098,90.5310771 C113.417098,89.8641463 113.105864,89.2416775 113.01694,88.5747467 C113.0366,87.9992726 113.141485,87.4298944 113.328174,86.8851887 L113.683871,85.6402512 C114.666303,81.4260506 115.188087,77.1176056 115.240043,72.7907175 C115.381995,68.9659642 114.683861,65.1565822 113.194788,61.630742 C110.998802,57.1528501 106.528776,54.23539 101.54573,54.0277307 C95.8111711,53.9551497 90.1367611,55.2026071 84.9613837,57.6736192 L83.6275221,57.1845366 L82.9161292,56.9177642 C81.4488814,56.4286816 79.9371716,55.895137 78.4699238,55.4505165 C76.7934744,54.9506574 75.0852187,54.5644431 73.3567876,54.294503 C72.4295159,54.1542569 71.4934634,54.079967 70.5556782,54.0721928 C69.9332094,54.0721928 67.4433344,54.0721928 66.8208656,54.0721928 C65.7125742,54.1668471 64.6214159,54.4060051 63.5751357,54.7835856 C61.9191818,55.3225991 60.4015007,56.218031 59.1289303,57.4068468 C57.8207924,58.6797354 56.7648373,60.1882428 56.0165865,61.8530522 C54.485064,65.366072 53.7851426,69.1852083 53.971332,73.0130278 C53.981484,77.3572501 54.5038137,81.6851248 55.5275039,85.9070235 L55.8832003,86.8851887 Z M64.0642183,65.4989407 C64.3378066,64.8929758 64.7310118,64.3485377 65.2202317,63.8983067 C65.5865784,63.5407644 66.026648,63.2676177 66.5096312,63.0979898 C66.8042699,63.0521146 67.1042336,63.0521146 67.3988723,63.0979898 C67.976879,63.0979898 69.8442853,63.0979898 70.2889058,63.0979898 L72.067388,63.0979898 C73.375589,63.3056819 74.6680171,63.6027918 75.9355867,63.9872308 C77.3139104,64.3873893 78.647772,64.8764719 80.0705577,65.3655545 L80.7374885,65.3655545 C82.0569305,65.8772874 83.3227927,66.5176648 84.5167631,67.2774228 C87.9500288,69.7587259 92.1728246,70.8974574 96.3881316,70.4786907 C98.0459113,70.126547 99.3593251,68.8625907 99.7748089,67.2195411 C100.190293,65.5764914 99.6355787,63.840135 98.344462,62.7422933 C99.1731752,62.6780013 100.005624,62.6780013 100.834337,62.7422933 C102.706109,62.6550952 104.451736,63.6850152 105.280542,65.3655545 C106.185944,67.7144481 106.550666,70.2371062 106.347632,72.7462555 C106.298518,76.4002261 105.851256,80.0379571 105.01377,83.5949967 L104.79146,84.5286998 C104.203117,86.2417795 104.005622,88.0648145 104.213453,89.8641463 C104.213453,90.7978494 104.56915,91.6870905 104.746998,92.5763316 C104.956955,93.3513521 105.120275,94.138259 105.23608,94.9328205 C105.961505,101.999115 103.385646,109.004794 98.2555378,113.918118 L98.2555378,108.893905 C98.4197276,101.225704 92.5642905,94.7652048 84.9169216,94.1769656 L84.1166047,94.1769656 C76.5423616,94.5826148 70.6474949,100.909772 70.7779884,108.493747 L70.7779884,113.695807 C65.8212007,108.776414 63.3535745,101.880134 64.0642183,94.9328205 C64.1694021,94.1398136 64.3178301,93.3531451 64.5088388,92.5763316 C64.7483977,91.6829019 64.9413272,90.7776174 65.0868455,89.8641463 C65.2977266,88.0648266 65.1001578,86.2411145 64.5088388,84.5286998 L64.5088388,83.5949967 C63.6280329,80.0458307 63.1801538,76.4030808 63.1749772,72.7462555 C62.9453115,70.2946243 63.2486613,67.8223237 64.0642183,65.4989407 L64.0642183,65.4989407 Z" id="Shape" fill-rule="nonzero"></path>
                <text id="24-hour-teeth" font-family="Roboto-Medium, Roboto" font-size="24" font-weight="400" line-spacing="22">
                    <tspan x="130.099994" y="135.775254">24 hour teeth</tspan>
                </text>
            </g>
        </g>
    </g>
</svg>