<?xml version="1.0" encoding="UTF-8"?>
<svg width="1120px" height="152px" viewBox="0 0 1120 152" version="1.1" xmlns="http://www.w3.org/2000/svg" xmlns:xlink="http://www.w3.org/1999/xlink">
    <title>PacificFair_2</title>
    <g id="Page-1" stroke="none" stroke-width="1" fill="none" fill-rule="evenodd" fill-opacity="0.1">
        <g id="Pacific-Contact" transform="translate(-400.000000, -4013.000000)" fill="#565960" fill-rule="nonzero">
            <path d="M483.29,4163.45862 L483.29,4162.12862 C461.1322,4162.12862 460.141616,4152.63987 460.110856,4130.62231 L460.11,4107.97862 L466,4107.97862 C493.55,4107.97862 534.21,4101.51862 534.21,4069.02862 C534.21,4041.47862 512.17,4030.45862 470.56,4030.45862 L400.45,4030.45862 L400.45,4031.78862 C420.3544,4031.78862 420.951532,4041.08471 420.969446,4062.62483 L420.969979,4063.97285 C420.97,4064.20013 420.97,4064.42872 420.97,4064.65862 L420.97,4129.25862 L420.969979,4129.92204 L420.969979,4129.92204 L420.969446,4131.22805 C420.951532,4152.11744 420.3544,4162.12862 400.45,4162.12862 L400.45,4163.45862 L483.29,4163.45862 Z M465.24,4106.45862 L460.11,4106.45862 L460.11,4031.78862 L465.62,4031.78862 C485,4031.78862 492.41,4043.18862 492.41,4069.02862 C492.41,4095.05862 485,4106.45862 465.24,4106.45862 Z M628.83,4164.78862 C642.51,4164.78862 653.34,4157.75862 662.08,4150.34862 L661.32,4149.39862 C657.71,4151.86862 655.43,4152.43862 652.96,4152.43862 C644.617273,4152.43862 644.238058,4142.57079 644.220821,4136.22044 L644.22,4091.44862 C644.22,4069.40862 621.8,4062.37862 600.14,4062.37862 C582.66,4062.37862 550.93,4065.41862 550.93,4088.59862 C550.93,4100.94862 559.67,4106.45862 568.79,4106.45862 C577.34,4106.45862 585.13,4101.32862 585.7,4090.49862 C581.71,4088.78862 579.05,4083.84862 579.05,4079.47862 C579.05,4070.16862 587.22,4064.08862 594.82,4064.08862 C607.0522,4064.08862 608.642386,4073.72395 608.84911,4084.11142 L608.861286,4084.82889 C608.864689,4085.06836 608.867473,4085.30813 608.86975,4085.54808 L608.875177,4086.26837 C608.877244,4086.62868 608.878425,4086.98916 608.8791,4087.34943 L608.879986,4088.4293 C608.88,4088.54914 608.88,4088.66892 608.88,4088.78862 L608.88,4100.18862 C601.3655,4105.37562 591.2442,4108.11874 581.261386,4110.78041 L579.551916,4111.23633 C561.627475,4116.02445 544.66,4120.98602 544.66,4139.89862 C544.66,4156.23862 556.06,4164.78862 573.92,4164.78862 C588.93,4164.78862 603.56,4157.18862 609.07,4143.88862 C610.78,4156.61862 618,4164.78862 628.83,4164.78862 Z M597.29,4151.10862 C586.65,4151.10862 585.32,4139.51862 585.32,4132.29862 C585.32,4111.20862 595.39,4110.44862 608.88,4101.70862 L608.88,4137.04862 C608.88,4144.07862 604.51,4151.10862 597.29,4151.10862 Z M713.76,4164.78862 C739.79,4164.78862 756.13,4148.25862 765.44,4127.92862 L764.3,4127.35862 C757.46,4137.80862 745.3,4141.41862 735.8,4141.41862 C716.99,4141.41862 699.51,4126.97862 699.51,4100.18862 C699.51,4086.50862 704.07,4063.89862 720.03,4063.89862 C728.77,4063.89862 734.85,4070.92862 734.85,4078.90862 C734.85,4084.03862 732.38,4088.59862 728.2,4090.49862 C728.77,4101.32862 736.56,4106.45862 745.11,4106.45862 C754.23,4106.45862 762.97,4100.94862 762.97,4088.78862 C762.97,4068.07862 737.89,4062.37862 720.98,4062.37862 C688.11,4062.37862 664.93,4084.03862 664.93,4115.19862 C664.93,4145.40862 686.59,4164.78862 713.76,4164.78862 Z M804.01,4054.39862 C815.41,4054.39862 824.53,4045.08862 824.53,4033.68862 C824.53,4022.28862 815.41,4013.35862 804.01,4013.35862 C792.8,4013.35862 783.49,4022.47862 783.49,4033.68862 C783.49,4045.08862 792.8,4054.39862 804.01,4054.39862 Z M838.21,4163.45862 L838.21,4162.12862 C823.5382,4162.12862 821.715511,4158.40424 821.680524,4138.60357 L821.68,4062.37862 L767.34,4077.00862 L767.72,4078.33862 C783.87,4074.53862 786.53,4079.66862 786.53,4092.39862 L786.53,4137.99862 C786.53,4158.32862 784.82,4162.12862 770,4162.12862 L770,4163.45862 L838.21,4163.45862 Z M947.27,4054.39862 C958.67,4054.39862 967.79,4045.08862 967.79,4033.68862 C967.79,4022.28862 958.67,4013.35862 947.27,4013.35862 C936.06,4013.35862 926.75,4022.47862 926.75,4033.68862 C926.75,4045.08862 936.06,4054.39862 947.27,4054.39862 Z M908.32,4163.45862 L908.32,4162.12862 C893.6482,4162.12862 891.825511,4158.40424 891.790524,4138.60357 L891.79,4065.60862 L912.31,4065.60862 C927.7,4065.60862 929.5468,4077.30502 929.76226,4088.64745 L929.774338,4089.40295 C929.787568,4090.40924 929.79,4091.41062 929.79,4092.39862 L929.79,4137.99862 C929.79,4158.32862 928.08,4162.12862 913.26,4162.12862 L913.26,4163.45862 L981.47,4163.45862 L981.47,4162.12862 C966.7982,4162.12862 964.975511,4158.40424 964.940524,4138.60357 L964.94,4062.37862 L926.94,4063.70862 L896.16,4063.70862 C863.29,4063.70862 857.59,4016.96862 883.05,4016.96862 C889.7,4016.96862 892.17,4021.71862 892.17,4026.46862 C892.17,4032.35862 888.56,4036.53862 884.38,4038.43862 C884.95,4049.26862 892.55,4054.20862 901.1,4054.20862 C910.22,4054.20862 918.77,4048.12862 918.77,4036.72862 C918.77,4020.57862 903,4014.87862 889.32,4014.87862 C858.54,4014.87862 853.6,4037.29862 856.83,4063.70862 L840.3,4063.70862 L840.3,4065.60862 L856.64,4065.60862 L856.64,4137.99862 C856.64,4158.32862 854.93,4162.12862 840.11,4162.12862 L840.11,4163.45862 L908.32,4163.45862 Z M1036,4164.78862 C1062.03,4164.78862 1078.37,4148.25862 1087.68,4127.92862 L1086.54,4127.35862 C1079.7,4137.80862 1067.54,4141.41862 1058.04,4141.41862 C1039.23,4141.41862 1021.75,4126.97862 1021.75,4100.18862 C1021.75,4086.50862 1026.31,4063.89862 1042.27,4063.89862 C1051.01,4063.89862 1057.09,4070.92862 1057.09,4078.90862 C1057.09,4084.03862 1054.62,4088.59862 1050.44,4090.49862 C1051.01,4101.32862 1058.8,4106.45862 1067.35,4106.45862 C1076.47,4106.45862 1085.21,4100.94862 1085.21,4088.78862 C1085.21,4068.07862 1060.13,4062.37862 1043.22,4062.37862 C1010.35,4062.37862 987.17,4084.03862 987.17,4115.19862 C987.17,4145.40862 1008.83,4164.78862 1036,4164.78862 Z M1177.36,4163.45862 L1177.36,4162.12862 C1152.0368,4162.12862 1151.16538,4155.19453 1151.14066,4130.95442 L1151.14,4096.19862 C1172.23,4096.19862 1187.05,4107.97862 1186.1,4126.40862 L1187.43,4126.40862 L1190.66,4065.03862 L1189.33,4065.03862 C1188.19,4085.36862 1172.23,4094.86862 1151.14,4094.86862 L1151.14,4032.16862 L1166.34,4032.16862 C1199.02,4032.16862 1211.94,4047.55862 1215.17,4076.24862 L1217.07,4076.24862 L1212.32,4030.45862 L1091.48,4030.45862 L1091.48,4031.78862 C1111.3844,4031.78862 1111.98153,4041.08471 1111.99945,4062.62483 L1111.99998,4063.97285 C1112,4064.20013 1112,4064.42872 1112,4064.65862 L1112,4129.25862 L1111.99998,4129.92204 L1111.99998,4129.92204 L1111.99945,4131.22805 C1111.98153,4152.11744 1111.3844,4162.12862 1091.48,4162.12862 L1091.48,4163.45862 L1177.36,4163.45862 Z M1306.94,4164.78862 C1320.62,4164.78862 1331.45,4157.75862 1340.19,4150.34862 L1339.43,4149.39862 C1335.82,4151.86862 1333.54,4152.43862 1331.07,4152.43862 C1322.72727,4152.43862 1322.34806,4142.57079 1322.33082,4136.22044 L1322.33,4091.44862 C1322.33,4069.40862 1299.91,4062.37862 1278.25,4062.37862 C1260.77,4062.37862 1229.04,4065.41862 1229.04,4088.59862 C1229.04,4100.94862 1237.78,4106.45862 1246.9,4106.45862 C1255.45,4106.45862 1263.24,4101.32862 1263.81,4090.49862 C1259.82,4088.78862 1257.16,4083.84862 1257.16,4079.47862 C1257.16,4070.16862 1265.33,4064.08862 1272.93,4064.08862 C1285.1622,4064.08862 1286.75239,4073.72395 1286.95911,4084.11142 L1286.97129,4084.82889 C1286.97469,4085.06836 1286.97747,4085.30813 1286.97975,4085.54808 L1286.98518,4086.26837 C1286.98724,4086.62868 1286.98843,4086.98916 1286.9891,4087.34943 L1286.98999,4088.4293 C1286.99,4088.54914 1286.99,4088.66892 1286.99,4088.78862 L1286.99,4100.18862 C1279.4755,4105.37562 1269.3542,4108.11874 1259.37139,4110.78041 L1257.66192,4111.23633 C1239.73748,4116.02445 1222.77,4120.98602 1222.77,4139.89862 C1222.77,4156.23862 1234.17,4164.78862 1252.03,4164.78862 C1267.04,4164.78862 1281.67,4157.18862 1287.18,4143.88862 C1288.89,4156.61862 1296.11,4164.78862 1306.94,4164.78862 Z M1275.4,4151.10862 C1264.76,4151.10862 1263.43,4139.51862 1263.43,4132.29862 C1263.43,4111.20862 1273.5,4110.44862 1286.99,4101.70862 L1286.99,4137.04862 C1286.99,4144.07862 1282.62,4151.10862 1275.4,4151.10862 Z M1374.01,4054.39862 C1385.41,4054.39862 1394.53,4045.08862 1394.53,4033.68862 C1394.53,4022.28862 1385.41,4013.35862 1374.01,4013.35862 C1362.8,4013.35862 1353.49,4022.47862 1353.49,4033.68862 C1353.49,4045.08862 1362.8,4054.39862 1374.01,4054.39862 Z M1408.21,4163.45862 L1408.21,4162.12862 C1393.5382,4162.12862 1391.71551,4158.40424 1391.68052,4138.60357 L1391.68,4062.37862 L1337.34,4077.00862 L1337.72,4078.33862 C1353.87,4074.53862 1356.53,4079.66862 1356.53,4092.39862 L1356.53,4137.99862 C1356.53,4158.32862 1354.82,4162.12862 1340,4162.12862 L1340,4163.45862 L1408.21,4163.45862 Z M1482.88,4163.45862 L1482.88,4162.12862 C1463.6938,4162.12862 1462.57084,4158.40424 1462.5503,4138.60357 L1462.55,4092.20862 C1466.16,4080.99862 1473,4067.12862 1483.45,4067.12862 C1488.77,4067.12862 1491.43,4073.01862 1491.43,4078.52862 C1491.43,4084.41862 1488.39,4090.87862 1481.93,4092.39862 C1482.5,4103.22862 1490.29,4108.35862 1498.84,4108.35862 C1511.19,4108.35862 1519.55,4097.14862 1519.55,4085.93862 C1519.55,4070.35862 1505.68,4062.37862 1492.76,4062.37862 C1474.71,4062.37862 1466.92,4075.48862 1462.36,4088.21862 L1462.93,4062.37862 L1408.21,4077.00862 L1408.59,4078.33862 C1424.74,4074.53862 1427.4,4079.66862 1427.4,4092.39862 L1427.4,4137.99862 C1427.4,4158.32862 1425.69,4162.12862 1410.87,4162.12862 L1410.87,4163.45862 L1482.88,4163.45862 Z" id="PacificFair_2"></path>
        </g>
    </g>
</svg>