<?xml version="1.0" encoding="UTF-8"?>
<svg width="1168px" height="152px" viewBox="0 0 1168 152" version="1.1" xmlns="http://www.w3.org/2000/svg" xmlns:xlink="http://www.w3.org/1999/xlink">
    <title>PacificFair</title>
    <g id="Design" stroke="none" stroke-width="1" fill="none" fill-rule="evenodd" fill-opacity="0.1">
        <g id="Pacific-Contact" transform="translate(-376.000000, -9427.000000)" fill="#565960" fill-rule="nonzero">
            <path d="M458.84,9577.1 L458.84,9575.77 C436.6822,9575.77 435.691616,9566.28125 435.660856,9544.26369 L435.66,9521.62 L441.55,9521.62 C469.1,9521.62 509.76,9515.16 509.76,9482.67 C509.76,9455.12 487.72,9444.1 446.11,9444.1 L376,9444.1 L376,9445.43 C395.9044,9445.43 396.501532,9454.72609 396.519446,9476.26621 L396.519979,9477.61423 C396.52,9477.84151 396.52,9478.0701 396.52,9478.3 L396.52,9542.9 L396.519979,9543.56342 L396.519979,9543.56342 L396.519446,9544.86943 C396.501532,9565.75882 395.9044,9575.77 376,9575.77 L376,9577.1 L458.84,9577.1 Z M440.79,9520.1 L435.66,9520.1 L435.66,9445.43 L441.17,9445.43 C460.55,9445.43 467.96,9456.83 467.96,9482.67 C467.96,9508.7 460.55,9520.1 440.79,9520.1 Z M604.38,9578.43 C618.06,9578.43 628.89,9571.4 637.63,9563.99 L636.87,9563.04 C633.26,9565.51 630.98,9566.08 628.51,9566.08 C620.167273,9566.08 619.788058,9556.21217 619.770821,9549.86182 L619.77,9505.09 C619.77,9483.05 597.35,9476.02 575.69,9476.02 C558.21,9476.02 526.48,9479.06 526.48,9502.24 C526.48,9514.59 535.22,9520.1 544.34,9520.1 C552.89,9520.1 560.68,9514.97 561.25,9504.14 C557.26,9502.43 554.6,9497.49 554.6,9493.12 C554.6,9483.81 562.77,9477.73 570.37,9477.73 C582.6022,9477.73 584.192386,9487.36534 584.39911,9497.75281 L584.411286,9498.47027 C584.414689,9498.70975 584.417473,9498.94952 584.41975,9499.18947 L584.425177,9499.90976 C584.427244,9500.27006 584.428425,9500.63054 584.4291,9500.99082 L584.429986,9502.07069 C584.43,9502.19052 584.43,9502.3103 584.43,9502.43 L584.43,9513.83 C576.9155,9519.017 566.7942,9521.76012 556.811386,9524.42179 L555.101916,9524.87772 C537.177475,9529.66583 520.21,9534.6274 520.21,9553.54 C520.21,9569.88 531.61,9578.43 549.47,9578.43 C564.48,9578.43 579.11,9570.83 584.62,9557.53 C586.33,9570.26 593.55,9578.43 604.38,9578.43 Z M572.84,9564.75 C562.2,9564.75 560.87,9553.16 560.87,9545.94 C560.87,9524.85 570.94,9524.09 584.43,9515.35 L584.43,9550.69 C584.43,9557.72 580.06,9564.75 572.84,9564.75 Z M689.31,9578.43 C715.34,9578.43 731.68,9561.9 740.99,9541.57 L739.85,9541 C733.01,9551.45 720.85,9555.06 711.35,9555.06 C692.54,9555.06 675.06,9540.62 675.06,9513.83 C675.06,9500.15 679.62,9477.54 695.58,9477.54 C704.32,9477.54 710.4,9484.57 710.4,9492.55 C710.4,9497.68 707.93,9502.24 703.75,9504.14 C704.32,9514.97 712.11,9520.1 720.66,9520.1 C729.78,9520.1 738.52,9514.59 738.52,9502.43 C738.52,9481.72 713.44,9476.02 696.53,9476.02 C663.66,9476.02 640.48,9497.68 640.48,9528.84 C640.48,9559.05 662.14,9578.43 689.31,9578.43 Z M779.56,9468.04 C790.96,9468.04 800.08,9458.73 800.08,9447.33 C800.08,9435.93 790.96,9427 779.56,9427 C768.35,9427 759.04,9436.12 759.04,9447.33 C759.04,9458.73 768.35,9468.04 779.56,9468.04 Z M813.76,9577.1 L813.76,9575.77 C799.0882,9575.77 797.265511,9572.04562 797.230524,9552.24495 L797.23,9476.02 L742.89,9490.65 L743.27,9491.98 C759.42,9488.18 762.08,9493.31 762.08,9506.04 L762.08,9551.64 C762.08,9571.97 760.37,9575.77 745.55,9575.77 L745.55,9577.1 L813.76,9577.1 Z M922.82,9468.04 C934.22,9468.04 943.34,9458.73 943.34,9447.33 C943.34,9435.93 934.22,9427 922.82,9427 C911.61,9427 902.3,9436.12 902.3,9447.33 C902.3,9458.73 911.61,9468.04 922.82,9468.04 Z M883.87,9577.1 L883.87,9575.77 C869.1982,9575.77 867.375511,9572.04562 867.340524,9552.24495 L867.34,9479.25 L887.86,9479.25 C903.25,9479.25 905.0968,9490.9464 905.31226,9502.28883 L905.324338,9503.04434 C905.337568,9504.05062 905.34,9505.052 905.34,9506.04 L905.34,9551.64 C905.34,9571.97 903.63,9575.77 888.81,9575.77 L888.81,9577.1 L957.02,9577.1 L957.02,9575.77 C942.3482,9575.77 940.525511,9572.04562 940.490524,9552.24495 L940.49,9476.02 L902.49,9477.35 L871.71,9477.35 C838.84,9477.35 833.14,9430.61 858.6,9430.61 C865.25,9430.61 867.72,9435.36 867.72,9440.11 C867.72,9446 864.11,9450.18 859.93,9452.08 C860.5,9462.91 868.1,9467.85 876.65,9467.85 C885.77,9467.85 894.32,9461.77 894.32,9450.37 C894.32,9434.22 878.55,9428.52 864.87,9428.52 C834.09,9428.52 829.15,9450.94 832.38,9477.35 L815.85,9477.35 L815.85,9479.25 L832.19,9479.25 L832.19,9551.64 C832.19,9571.97 830.48,9575.77 815.66,9575.77 L815.66,9577.1 L883.87,9577.1 Z M1011.55,9578.43 C1037.58,9578.43 1053.92,9561.9 1063.23,9541.57 L1062.09,9541 C1055.25,9551.45 1043.09,9555.06 1033.59,9555.06 C1014.78,9555.06 997.3,9540.62 997.3,9513.83 C997.3,9500.15 1001.86,9477.54 1017.82,9477.54 C1026.56,9477.54 1032.64,9484.57 1032.64,9492.55 C1032.64,9497.68 1030.17,9502.24 1025.99,9504.14 C1026.56,9514.97 1034.35,9520.1 1042.9,9520.1 C1052.02,9520.1 1060.76,9514.59 1060.76,9502.43 C1060.76,9481.72 1035.68,9476.02 1018.77,9476.02 C985.9,9476.02 962.72,9497.68 962.72,9528.84 C962.72,9559.05 984.38,9578.43 1011.55,9578.43 Z M1200.91,9577.1 L1200.91,9575.77 C1175.5868,9575.77 1174.71538,9568.83591 1174.69066,9544.5958 L1174.69,9509.84 C1195.78,9509.84 1210.6,9521.62 1209.65,9540.05 L1210.98,9540.05 L1214.21,9478.68 L1212.88,9478.68 C1211.74,9499.01 1195.78,9508.51 1174.69,9508.51 L1174.69,9445.81 L1189.89,9445.81 C1222.57,9445.81 1235.49,9461.2 1238.72,9489.89 L1240.62,9489.89 L1235.87,9444.1 L1115.03,9444.1 L1115.03,9445.43 C1134.9344,9445.43 1135.53153,9454.72609 1135.54945,9476.26621 L1135.54998,9477.61423 C1135.55,9477.84151 1135.55,9478.0701 1135.55,9478.3 L1135.55,9542.9 L1135.54998,9543.56342 L1135.54998,9543.56342 L1135.54945,9544.86943 C1135.53153,9565.75882 1134.9344,9575.77 1115.03,9575.77 L1115.03,9577.1 L1200.91,9577.1 Z M1330.49,9578.43 C1344.17,9578.43 1355,9571.4 1363.74,9563.99 L1362.98,9563.04 C1359.37,9565.51 1357.09,9566.08 1354.62,9566.08 C1346.27727,9566.08 1345.89806,9556.21217 1345.88082,9549.86182 L1345.88,9505.09 C1345.88,9483.05 1323.46,9476.02 1301.8,9476.02 C1284.32,9476.02 1252.59,9479.06 1252.59,9502.24 C1252.59,9514.59 1261.33,9520.1 1270.45,9520.1 C1279,9520.1 1286.79,9514.97 1287.36,9504.14 C1283.37,9502.43 1280.71,9497.49 1280.71,9493.12 C1280.71,9483.81 1288.88,9477.73 1296.48,9477.73 C1308.7122,9477.73 1310.30239,9487.36534 1310.50911,9497.75281 L1310.52129,9498.47027 C1310.52469,9498.70975 1310.52747,9498.94952 1310.52975,9499.18947 L1310.53518,9499.90976 C1310.53724,9500.27006 1310.53843,9500.63054 1310.5391,9500.99082 L1310.53999,9502.07069 C1310.54,9502.19052 1310.54,9502.3103 1310.54,9502.43 L1310.54,9513.83 C1303.0255,9519.017 1292.9042,9521.76012 1282.92139,9524.42179 L1281.21192,9524.87772 C1263.28748,9529.66583 1246.32,9534.6274 1246.32,9553.54 C1246.32,9569.88 1257.72,9578.43 1275.58,9578.43 C1290.59,9578.43 1305.22,9570.83 1310.73,9557.53 C1312.44,9570.26 1319.66,9578.43 1330.49,9578.43 Z M1298.95,9564.75 C1288.31,9564.75 1286.98,9553.16 1286.98,9545.94 C1286.98,9524.85 1297.05,9524.09 1310.54,9515.35 L1310.54,9550.69 C1310.54,9557.72 1306.17,9564.75 1298.95,9564.75 Z M1397.56,9468.04 C1408.96,9468.04 1418.08,9458.73 1418.08,9447.33 C1418.08,9435.93 1408.96,9427 1397.56,9427 C1386.35,9427 1377.04,9436.12 1377.04,9447.33 C1377.04,9458.73 1386.35,9468.04 1397.56,9468.04 Z M1431.76,9577.1 L1431.76,9575.77 C1417.0882,9575.77 1415.26551,9572.04562 1415.23052,9552.24495 L1415.23,9476.02 L1360.89,9490.65 L1361.27,9491.98 C1377.42,9488.18 1380.08,9493.31 1380.08,9506.04 L1380.08,9551.64 C1380.08,9571.97 1378.37,9575.77 1363.55,9575.77 L1363.55,9577.1 L1431.76,9577.1 Z M1506.43,9577.1 L1506.43,9575.77 C1487.2438,9575.77 1486.12084,9572.04562 1486.1003,9552.24495 L1486.1,9505.85 C1489.71,9494.64 1496.55,9480.77 1507,9480.77 C1512.32,9480.77 1514.98,9486.66 1514.98,9492.17 C1514.98,9498.06 1511.94,9504.52 1505.48,9506.04 C1506.05,9516.87 1513.84,9522 1522.39,9522 C1534.74,9522 1543.1,9510.79 1543.1,9499.58 C1543.1,9484 1529.23,9476.02 1516.31,9476.02 C1498.26,9476.02 1490.47,9489.13 1485.91,9501.86 L1486.48,9476.02 L1431.76,9490.65 L1432.14,9491.98 C1448.29,9488.18 1450.95,9493.31 1450.95,9506.04 L1450.95,9551.64 C1450.95,9571.97 1449.24,9575.77 1434.42,9575.77 L1434.42,9577.1 L1506.43,9577.1 Z" id="PacificFair"></path>
        </g>
    </g>
</svg>