<?xml version="1.0" encoding="UTF-8"?>
<svg width="1120px" height="152px" viewBox="0 0 1120 152" version="1.1" xmlns="http://www.w3.org/2000/svg" xmlns:xlink="http://www.w3.org/1999/xlink">
    <title>PacificFair</title>
    <g id="Page-1" stroke="none" stroke-width="1" fill="none" fill-rule="evenodd">
        <g id="Pacific-Contact" transform="translate(-400.000000, -588.000000)" fill="#FFFFFF" fill-rule="nonzero">
            <path d="M483.29,738.381382 L483.29,737.051382 C461.1322,737.051382 460.141616,727.56263 460.110856,705.545076 L460.11,682.901382 L466,682.901382 C493.55,682.901382 534.21,676.441382 534.21,643.951382 C534.21,616.401382 512.17,605.381382 470.56,605.381382 L400.45,605.381382 L400.45,606.711382 C420.3544,606.711382 420.951532,616.007474 420.969446,637.547592 L420.969979,638.895612 C420.97,639.122893 420.97,639.351482 420.97,639.581382 L420.97,704.181382 L420.969979,704.844806 L420.969979,704.844806 L420.969446,706.150815 C420.951532,727.040206 420.3544,737.051382 400.45,737.051382 L400.45,738.381382 L483.29,738.381382 Z M465.24,681.381382 L460.11,681.381382 L460.11,606.711382 L465.62,606.711382 C485,606.711382 492.41,618.111382 492.41,643.951382 C492.41,669.981382 485,681.381382 465.24,681.381382 Z M628.83,739.711382 C642.51,739.711382 653.34,732.681382 662.08,725.271382 L661.32,724.321382 C657.71,726.791382 655.43,727.361382 652.96,727.361382 C644.617273,727.361382 644.238058,717.493552 644.220821,711.143201 L644.22,666.371382 C644.22,644.331382 621.8,637.301382 600.14,637.301382 C582.66,637.301382 550.93,640.341382 550.93,663.521382 C550.93,675.871382 559.67,681.381382 568.79,681.381382 C577.34,681.381382 585.13,676.251382 585.7,665.421382 C581.71,663.711382 579.05,658.771382 579.05,654.401382 C579.05,645.091382 587.22,639.011382 594.82,639.011382 C607.0522,639.011382 608.642386,648.646719 608.84911,659.034188 L608.861286,659.751649 C608.864689,659.991129 608.867473,660.230898 608.86975,660.470848 L608.875177,661.191137 C608.877244,661.551446 608.878425,661.911921 608.8791,662.272197 L608.879986,663.352068 C608.88,663.471906 608.88,663.591682 608.88,663.711382 L608.88,675.111382 C601.3655,680.298382 591.2442,683.041507 581.261386,685.70317 L579.551916,686.159097 C561.627475,690.947217 544.66,695.908782 544.66,714.821382 C544.66,731.161382 556.06,739.711382 573.92,739.711382 C588.93,739.711382 603.56,732.111382 609.07,718.811382 C610.78,731.541382 618,739.711382 628.83,739.711382 Z M597.29,726.031382 C586.65,726.031382 585.32,714.441382 585.32,707.221382 C585.32,686.131382 595.39,685.371382 608.88,676.631382 L608.88,711.971382 C608.88,719.001382 604.51,726.031382 597.29,726.031382 Z M713.76,739.711382 C739.79,739.711382 756.13,723.181382 765.44,702.851382 L764.3,702.281382 C757.46,712.731382 745.3,716.341382 735.8,716.341382 C716.99,716.341382 699.51,701.901382 699.51,675.111382 C699.51,661.431382 704.07,638.821382 720.03,638.821382 C728.77,638.821382 734.85,645.851382 734.85,653.831382 C734.85,658.961382 732.38,663.521382 728.2,665.421382 C728.77,676.251382 736.56,681.381382 745.11,681.381382 C754.23,681.381382 762.97,675.871382 762.97,663.711382 C762.97,643.001382 737.89,637.301382 720.98,637.301382 C688.11,637.301382 664.93,658.961382 664.93,690.121382 C664.93,720.331382 686.59,739.711382 713.76,739.711382 Z M804.01,629.321382 C815.41,629.321382 824.53,620.011382 824.53,608.611382 C824.53,597.211382 815.41,588.281382 804.01,588.281382 C792.8,588.281382 783.49,597.401382 783.49,608.611382 C783.49,620.011382 792.8,629.321382 804.01,629.321382 Z M838.21,738.381382 L838.21,737.051382 C823.5382,737.051382 821.715511,733.327002 821.680524,713.526336 L821.68,637.301382 L767.34,651.931382 L767.72,653.261382 C783.87,649.461382 786.53,654.591382 786.53,667.321382 L786.53,712.921382 C786.53,733.251382 784.82,737.051382 770,737.051382 L770,738.381382 L838.21,738.381382 Z M947.27,629.321382 C958.67,629.321382 967.79,620.011382 967.79,608.611382 C967.79,597.211382 958.67,588.281382 947.27,588.281382 C936.06,588.281382 926.75,597.401382 926.75,608.611382 C926.75,620.011382 936.06,629.321382 947.27,629.321382 Z M908.32,738.381382 L908.32,737.051382 C893.6482,737.051382 891.825511,733.327002 891.790524,713.526336 L891.79,640.531382 L912.31,640.531382 C927.7,640.531382 929.5468,652.227782 929.76226,663.570212 L929.774338,664.325717 C929.787568,665.332006 929.79,666.333382 929.79,667.321382 L929.79,712.921382 C929.79,733.251382 928.08,737.051382 913.26,737.051382 L913.26,738.381382 L981.47,738.381382 L981.47,737.051382 C966.7982,737.051382 964.975511,733.327002 964.940524,713.526336 L964.94,637.301382 L926.94,638.631382 L896.16,638.631382 C863.29,638.631382 857.59,591.891382 883.05,591.891382 C889.7,591.891382 892.17,596.641382 892.17,601.391382 C892.17,607.281382 888.56,611.461382 884.38,613.361382 C884.95,624.191382 892.55,629.131382 901.1,629.131382 C910.22,629.131382 918.77,623.051382 918.77,611.651382 C918.77,595.501382 903,589.801382 889.32,589.801382 C858.54,589.801382 853.6,612.221382 856.83,638.631382 L840.3,638.631382 L840.3,640.531382 L856.64,640.531382 L856.64,712.921382 C856.64,733.251382 854.93,737.051382 840.11,737.051382 L840.11,738.381382 L908.32,738.381382 Z M1036,739.711382 C1062.03,739.711382 1078.37,723.181382 1087.68,702.851382 L1086.54,702.281382 C1079.7,712.731382 1067.54,716.341382 1058.04,716.341382 C1039.23,716.341382 1021.75,701.901382 1021.75,675.111382 C1021.75,661.431382 1026.31,638.821382 1042.27,638.821382 C1051.01,638.821382 1057.09,645.851382 1057.09,653.831382 C1057.09,658.961382 1054.62,663.521382 1050.44,665.421382 C1051.01,676.251382 1058.8,681.381382 1067.35,681.381382 C1076.47,681.381382 1085.21,675.871382 1085.21,663.711382 C1085.21,643.001382 1060.13,637.301382 1043.22,637.301382 C1010.35,637.301382 987.17,658.961382 987.17,690.121382 C987.17,720.331382 1008.83,739.711382 1036,739.711382 Z M1177.36,738.381382 L1177.36,737.051382 C1152.0368,737.051382 1151.16538,730.117294 1151.14066,705.877182 L1151.14,671.121382 C1172.23,671.121382 1187.05,682.901382 1186.1,701.331382 L1187.43,701.331382 L1190.66,639.961382 L1189.33,639.961382 C1188.19,660.291382 1172.23,669.791382 1151.14,669.791382 L1151.14,607.091382 L1166.34,607.091382 C1199.02,607.091382 1211.94,622.481382 1215.17,651.171382 L1217.07,651.171382 L1212.32,605.381382 L1091.48,605.381382 L1091.48,606.711382 C1111.3844,606.711382 1111.98153,616.007474 1111.99945,637.547592 L1111.99998,638.895612 C1112,639.122893 1112,639.351482 1112,639.581382 L1112,704.181382 L1111.99998,704.844806 L1111.99998,704.844806 L1111.99945,706.150815 C1111.98153,727.040206 1111.3844,737.051382 1091.48,737.051382 L1091.48,738.381382 L1177.36,738.381382 Z M1306.94,739.711382 C1320.62,739.711382 1331.45,732.681382 1340.19,725.271382 L1339.43,724.321382 C1335.82,726.791382 1333.54,727.361382 1331.07,727.361382 C1322.72727,727.361382 1322.34806,717.493552 1322.33082,711.143201 L1322.33,666.371382 C1322.33,644.331382 1299.91,637.301382 1278.25,637.301382 C1260.77,637.301382 1229.04,640.341382 1229.04,663.521382 C1229.04,675.871382 1237.78,681.381382 1246.9,681.381382 C1255.45,681.381382 1263.24,676.251382 1263.81,665.421382 C1259.82,663.711382 1257.16,658.771382 1257.16,654.401382 C1257.16,645.091382 1265.33,639.011382 1272.93,639.011382 C1285.1622,639.011382 1286.75239,648.646719 1286.95911,659.034188 L1286.97129,659.751649 C1286.97469,659.991129 1286.97747,660.230898 1286.97975,660.470848 L1286.98518,661.191137 C1286.98724,661.551446 1286.98843,661.911921 1286.9891,662.272197 L1286.98999,663.352068 C1286.99,663.471906 1286.99,663.591682 1286.99,663.711382 L1286.99,675.111382 C1279.4755,680.298382 1269.3542,683.041507 1259.37139,685.70317 L1257.66192,686.159097 C1239.73748,690.947217 1222.77,695.908782 1222.77,714.821382 C1222.77,731.161382 1234.17,739.711382 1252.03,739.711382 C1267.04,739.711382 1281.67,732.111382 1287.18,718.811382 C1288.89,731.541382 1296.11,739.711382 1306.94,739.711382 Z M1275.4,726.031382 C1264.76,726.031382 1263.43,714.441382 1263.43,707.221382 C1263.43,686.131382 1273.5,685.371382 1286.99,676.631382 L1286.99,711.971382 C1286.99,719.001382 1282.62,726.031382 1275.4,726.031382 Z M1374.01,629.321382 C1385.41,629.321382 1394.53,620.011382 1394.53,608.611382 C1394.53,597.211382 1385.41,588.281382 1374.01,588.281382 C1362.8,588.281382 1353.49,597.401382 1353.49,608.611382 C1353.49,620.011382 1362.8,629.321382 1374.01,629.321382 Z M1408.21,738.381382 L1408.21,737.051382 C1393.5382,737.051382 1391.71551,733.327002 1391.68052,713.526336 L1391.68,637.301382 L1337.34,651.931382 L1337.72,653.261382 C1353.87,649.461382 1356.53,654.591382 1356.53,667.321382 L1356.53,712.921382 C1356.53,733.251382 1354.82,737.051382 1340,737.051382 L1340,738.381382 L1408.21,738.381382 Z M1482.88,738.381382 L1482.88,737.051382 C1463.6938,737.051382 1462.57084,733.327002 1462.5503,713.526336 L1462.55,667.131382 C1466.16,655.921382 1473,642.051382 1483.45,642.051382 C1488.77,642.051382 1491.43,647.941382 1491.43,653.451382 C1491.43,659.341382 1488.39,665.801382 1481.93,667.321382 C1482.5,678.151382 1490.29,683.281382 1498.84,683.281382 C1511.19,683.281382 1519.55,672.071382 1519.55,660.861382 C1519.55,645.281382 1505.68,637.301382 1492.76,637.301382 C1474.71,637.301382 1466.92,650.411382 1462.36,663.141382 L1462.93,637.301382 L1408.21,651.931382 L1408.59,653.261382 C1424.74,649.461382 1427.4,654.591382 1427.4,667.321382 L1427.4,712.921382 C1427.4,733.251382 1425.69,737.051382 1410.87,737.051382 L1410.87,738.381382 L1482.88,738.381382 Z" id="PacificFair"></path>
        </g>
    </g>
</svg>