<?xml version="1.0" encoding="UTF-8"?>
<svg width="1168px" height="152px" viewBox="0 0 1168 152" version="1.1" xmlns="http://www.w3.org/2000/svg" xmlns:xlink="http://www.w3.org/1999/xlink">
    <title>PacificFair</title>
    <g id="Design" stroke="none" stroke-width="1" fill="none" fill-rule="evenodd">
        <g id="Pacific-Contact" transform="translate(-376.000000, -588.000000)" fill="#FFFFFF" fill-rule="nonzero">
            <path d="M459.29,738.381382 L459.29,737.051382 C437.1322,737.051382 436.141616,727.56263 436.110856,705.545076 L436.11,682.901382 L442,682.901382 C469.55,682.901382 510.21,676.441382 510.21,643.951382 C510.21,616.401382 488.17,605.381382 446.56,605.381382 L376.45,605.381382 L376.45,606.711382 C396.3544,606.711382 396.951532,616.007474 396.969446,637.547592 L396.969979,638.895612 C396.97,639.122893 396.97,639.351482 396.97,639.581382 L396.97,704.181382 L396.969979,704.844806 L396.969979,704.844806 L396.969446,706.150815 C396.951532,727.040206 396.3544,737.051382 376.45,737.051382 L376.45,738.381382 L459.29,738.381382 Z M441.24,681.381382 L436.11,681.381382 L436.11,606.711382 L441.62,606.711382 C461,606.711382 468.41,618.111382 468.41,643.951382 C468.41,669.981382 461,681.381382 441.24,681.381382 Z M604.83,739.711382 C618.51,739.711382 629.34,732.681382 638.08,725.271382 L637.32,724.321382 C633.71,726.791382 631.43,727.361382 628.96,727.361382 C620.617273,727.361382 620.238058,717.493552 620.220821,711.143201 L620.22,666.371382 C620.22,644.331382 597.8,637.301382 576.14,637.301382 C558.66,637.301382 526.93,640.341382 526.93,663.521382 C526.93,675.871382 535.67,681.381382 544.79,681.381382 C553.34,681.381382 561.13,676.251382 561.7,665.421382 C557.71,663.711382 555.05,658.771382 555.05,654.401382 C555.05,645.091382 563.22,639.011382 570.82,639.011382 C583.0522,639.011382 584.642386,648.646719 584.84911,659.034188 L584.861286,659.751649 C584.864689,659.991129 584.867473,660.230898 584.86975,660.470848 L584.875177,661.191137 C584.877244,661.551446 584.878425,661.911921 584.8791,662.272197 L584.879986,663.352068 C584.88,663.471906 584.88,663.591682 584.88,663.711382 L584.88,675.111382 C577.3655,680.298382 567.2442,683.041507 557.261386,685.70317 L555.551916,686.159097 C537.627475,690.947217 520.66,695.908782 520.66,714.821382 C520.66,731.161382 532.06,739.711382 549.92,739.711382 C564.93,739.711382 579.56,732.111382 585.07,718.811382 C586.78,731.541382 594,739.711382 604.83,739.711382 Z M573.29,726.031382 C562.65,726.031382 561.32,714.441382 561.32,707.221382 C561.32,686.131382 571.39,685.371382 584.88,676.631382 L584.88,711.971382 C584.88,719.001382 580.51,726.031382 573.29,726.031382 Z M689.76,739.711382 C715.79,739.711382 732.13,723.181382 741.44,702.851382 L740.3,702.281382 C733.46,712.731382 721.3,716.341382 711.8,716.341382 C692.99,716.341382 675.51,701.901382 675.51,675.111382 C675.51,661.431382 680.07,638.821382 696.03,638.821382 C704.77,638.821382 710.85,645.851382 710.85,653.831382 C710.85,658.961382 708.38,663.521382 704.2,665.421382 C704.77,676.251382 712.56,681.381382 721.11,681.381382 C730.23,681.381382 738.97,675.871382 738.97,663.711382 C738.97,643.001382 713.89,637.301382 696.98,637.301382 C664.11,637.301382 640.93,658.961382 640.93,690.121382 C640.93,720.331382 662.59,739.711382 689.76,739.711382 Z M780.01,629.321382 C791.41,629.321382 800.53,620.011382 800.53,608.611382 C800.53,597.211382 791.41,588.281382 780.01,588.281382 C768.8,588.281382 759.49,597.401382 759.49,608.611382 C759.49,620.011382 768.8,629.321382 780.01,629.321382 Z M814.21,738.381382 L814.21,737.051382 C799.5382,737.051382 797.715511,733.327002 797.680524,713.526336 L797.68,637.301382 L743.34,651.931382 L743.72,653.261382 C759.87,649.461382 762.53,654.591382 762.53,667.321382 L762.53,712.921382 C762.53,733.251382 760.82,737.051382 746,737.051382 L746,738.381382 L814.21,738.381382 Z M923.27,629.321382 C934.67,629.321382 943.79,620.011382 943.79,608.611382 C943.79,597.211382 934.67,588.281382 923.27,588.281382 C912.06,588.281382 902.75,597.401382 902.75,608.611382 C902.75,620.011382 912.06,629.321382 923.27,629.321382 Z M884.32,738.381382 L884.32,737.051382 C869.6482,737.051382 867.825511,733.327002 867.790524,713.526336 L867.79,640.531382 L888.31,640.531382 C903.7,640.531382 905.5468,652.227782 905.76226,663.570212 L905.774338,664.325717 C905.787568,665.332006 905.79,666.333382 905.79,667.321382 L905.79,712.921382 C905.79,733.251382 904.08,737.051382 889.26,737.051382 L889.26,738.381382 L957.47,738.381382 L957.47,737.051382 C942.7982,737.051382 940.975511,733.327002 940.940524,713.526336 L940.94,637.301382 L902.94,638.631382 L872.16,638.631382 C839.29,638.631382 833.59,591.891382 859.05,591.891382 C865.7,591.891382 868.17,596.641382 868.17,601.391382 C868.17,607.281382 864.56,611.461382 860.38,613.361382 C860.95,624.191382 868.55,629.131382 877.1,629.131382 C886.22,629.131382 894.77,623.051382 894.77,611.651382 C894.77,595.501382 879,589.801382 865.32,589.801382 C834.54,589.801382 829.6,612.221382 832.83,638.631382 L816.3,638.631382 L816.3,640.531382 L832.64,640.531382 L832.64,712.921382 C832.64,733.251382 830.93,737.051382 816.11,737.051382 L816.11,738.381382 L884.32,738.381382 Z M1012,739.711382 C1038.03,739.711382 1054.37,723.181382 1063.68,702.851382 L1062.54,702.281382 C1055.7,712.731382 1043.54,716.341382 1034.04,716.341382 C1015.23,716.341382 997.75,701.901382 997.75,675.111382 C997.75,661.431382 1002.31,638.821382 1018.27,638.821382 C1027.01,638.821382 1033.09,645.851382 1033.09,653.831382 C1033.09,658.961382 1030.62,663.521382 1026.44,665.421382 C1027.01,676.251382 1034.8,681.381382 1043.35,681.381382 C1052.47,681.381382 1061.21,675.871382 1061.21,663.711382 C1061.21,643.001382 1036.13,637.301382 1019.22,637.301382 C986.35,637.301382 963.17,658.961382 963.17,690.121382 C963.17,720.331382 984.83,739.711382 1012,739.711382 Z M1201.36,738.381382 L1201.36,737.051382 C1176.0368,737.051382 1175.16538,730.117294 1175.14066,705.877182 L1175.14,671.121382 C1196.23,671.121382 1211.05,682.901382 1210.1,701.331382 L1211.43,701.331382 L1214.66,639.961382 L1213.33,639.961382 C1212.19,660.291382 1196.23,669.791382 1175.14,669.791382 L1175.14,607.091382 L1190.34,607.091382 C1223.02,607.091382 1235.94,622.481382 1239.17,651.171382 L1241.07,651.171382 L1236.32,605.381382 L1115.48,605.381382 L1115.48,606.711382 C1135.3844,606.711382 1135.98153,616.007474 1135.99945,637.547592 L1135.99998,638.895612 C1136,639.122893 1136,639.351482 1136,639.581382 L1136,704.181382 L1135.99998,704.844806 L1135.99998,704.844806 L1135.99945,706.150815 C1135.98153,727.040206 1135.3844,737.051382 1115.48,737.051382 L1115.48,738.381382 L1201.36,738.381382 Z M1330.94,739.711382 C1344.62,739.711382 1355.45,732.681382 1364.19,725.271382 L1363.43,724.321382 C1359.82,726.791382 1357.54,727.361382 1355.07,727.361382 C1346.72727,727.361382 1346.34806,717.493552 1346.33082,711.143201 L1346.33,666.371382 C1346.33,644.331382 1323.91,637.301382 1302.25,637.301382 C1284.77,637.301382 1253.04,640.341382 1253.04,663.521382 C1253.04,675.871382 1261.78,681.381382 1270.9,681.381382 C1279.45,681.381382 1287.24,676.251382 1287.81,665.421382 C1283.82,663.711382 1281.16,658.771382 1281.16,654.401382 C1281.16,645.091382 1289.33,639.011382 1296.93,639.011382 C1309.1622,639.011382 1310.75239,648.646719 1310.95911,659.034188 L1310.97129,659.751649 C1310.97469,659.991129 1310.97747,660.230898 1310.97975,660.470848 L1310.98518,661.191137 C1310.98724,661.551446 1310.98843,661.911921 1310.9891,662.272197 L1310.98999,663.352068 C1310.99,663.471906 1310.99,663.591682 1310.99,663.711382 L1310.99,675.111382 C1303.4755,680.298382 1293.3542,683.041507 1283.37139,685.70317 L1281.66192,686.159097 C1263.73748,690.947217 1246.77,695.908782 1246.77,714.821382 C1246.77,731.161382 1258.17,739.711382 1276.03,739.711382 C1291.04,739.711382 1305.67,732.111382 1311.18,718.811382 C1312.89,731.541382 1320.11,739.711382 1330.94,739.711382 Z M1299.4,726.031382 C1288.76,726.031382 1287.43,714.441382 1287.43,707.221382 C1287.43,686.131382 1297.5,685.371382 1310.99,676.631382 L1310.99,711.971382 C1310.99,719.001382 1306.62,726.031382 1299.4,726.031382 Z M1398.01,629.321382 C1409.41,629.321382 1418.53,620.011382 1418.53,608.611382 C1418.53,597.211382 1409.41,588.281382 1398.01,588.281382 C1386.8,588.281382 1377.49,597.401382 1377.49,608.611382 C1377.49,620.011382 1386.8,629.321382 1398.01,629.321382 Z M1432.21,738.381382 L1432.21,737.051382 C1417.5382,737.051382 1415.71551,733.327002 1415.68052,713.526336 L1415.68,637.301382 L1361.34,651.931382 L1361.72,653.261382 C1377.87,649.461382 1380.53,654.591382 1380.53,667.321382 L1380.53,712.921382 C1380.53,733.251382 1378.82,737.051382 1364,737.051382 L1364,738.381382 L1432.21,738.381382 Z M1506.88,738.381382 L1506.88,737.051382 C1487.6938,737.051382 1486.57084,733.327002 1486.5503,713.526336 L1486.55,667.131382 C1490.16,655.921382 1497,642.051382 1507.45,642.051382 C1512.77,642.051382 1515.43,647.941382 1515.43,653.451382 C1515.43,659.341382 1512.39,665.801382 1505.93,667.321382 C1506.5,678.151382 1514.29,683.281382 1522.84,683.281382 C1535.19,683.281382 1543.55,672.071382 1543.55,660.861382 C1543.55,645.281382 1529.68,637.301382 1516.76,637.301382 C1498.71,637.301382 1490.92,650.411382 1486.36,663.141382 L1486.93,637.301382 L1432.21,651.931382 L1432.59,653.261382 C1448.74,649.461382 1451.4,654.591382 1451.4,667.321382 L1451.4,712.921382 C1451.4,733.251382 1449.69,737.051382 1434.87,737.051382 L1434.87,738.381382 L1506.88,738.381382 Z" id="PacificFair"></path>
        </g>
    </g>
</svg>