<?xml version="1.0" encoding="UTF-8"?>
<svg width="635px" height="218px" viewBox="0 0 635 218" version="1.1" xmlns="http://www.w3.org/2000/svg" xmlns:xlink="http://www.w3.org/1999/xlink">
    <title>Thedentistyou’llactuallywanttovisit</title>
    <g id="Page-1" stroke="none" stroke-width="1" fill="none" fill-rule="evenodd" opacity="0.900000036">
        <g id="Bundall-Contact" transform="translate(-654.000000, -798.000000)" fill="#FFFFFF" fill-rule="nonzero">
            <path d="M704.531708,898.570655 C708.208394,902.896168 714.912939,895.32652 714.912939,895.32652 C715.345491,894.893969 714.912939,893.704453 714.047837,892.83935 C713.182734,891.86611 712.101356,891.541696 711.668805,891.974248 C711.668805,891.974248 706.694465,897.597415 706.478189,897.381139 C705.829362,896.624174 748.003114,830.768239 761.952893,809.032537 C771.685297,808.816261 781.633977,808.599985 791.474519,808.38371 C807.695192,807.951158 823.807728,807.626745 839.271437,806.977918 C839.055161,807.410469 839.379575,808.167434 839.920264,808.924399 C840.677229,809.897639 841.758607,810.438328 842.407434,810.222053 L842.407434,810.222053 L851.274736,806.329091 C851.815425,806.220953 851.815425,805.355851 851.274736,804.490748 C850.625909,803.40937 849.54453,802.544267 848.787566,802.652405 C829.971584,803.625645 809.533536,804.166335 789.203625,804.598886 C780.98515,804.815162 772.658537,804.923299 764.440063,805.139575 L764.440063,805.139575 L766.386544,802.219854 C766.710957,801.679165 766.170268,800.597786 765.305165,799.624546 C764.331925,798.759443 763.358685,798.43503 763.034271,798.975719 C763.034271,799.083857 761.520342,801.354751 758.925034,805.355851 C728.970857,806.220953 700.638747,807.843021 678.903044,811.952258 C678.254217,812.168534 678.254217,813.033636 679.011182,814.115014 C679.660009,815.088255 680.849525,815.84522 681.498352,815.737082 C701.828263,811.735982 728.32203,810.113915 756.437864,809.248812 C740.757879,834.012374 702.044538,895.542796 704.531708,898.570655 Z M752.436764,877.591917 C753.301867,878.45702 754.275107,878.781433 754.599521,878.348882 C754.600602,878.347801 754.603392,878.344794 754.607857,878.339905 L754.654468,878.288294 C755.12864,877.761169 758.573621,873.904129 762.289731,870.001502 L762.809746,869.456984 C767.327083,864.740991 772.057291,860.181727 772.225986,861.587519 C772.5504,865.372343 771.685297,870.454821 774.280605,873.266404 C776.767775,875.861712 781.95839,873.374542 792.664035,863.425862 C793.096586,862.993311 793.096586,862.236346 792.231484,861.263106 C791.366381,860.398003 790.717554,861.371244 790.285003,861.803795 C780.768874,870.671096 777.308464,871.536199 776.875913,870.99551 L776.875913,870.99551 L776.875334,870.958335 C776.866709,870.408266 776.763173,863.925137 776.659637,862.993311 C776.01081,855.856215 769.955092,858.55966 764.007512,863.101449 L764.007512,863.101449 L787.689695,824.712521 C788.014109,824.171832 787.581557,822.982316 786.608317,822.117213 C785.743214,821.252111 784.661836,820.927697 784.337422,821.468386 L784.337422,821.468386 L751.355386,874.996609 C751.030973,875.537298 751.463524,876.726815 752.436764,877.591917 Z M791.798932,876.510539 C799.260442,880.727914 816.129943,869.049029 819.157802,863.750276 C819.482215,863.101449 819.482215,862.668897 818.617113,861.803795 C817.643872,860.938692 816.562494,861.695657 816.238081,862.344484 C812.885808,868.400202 783.688596,881.809292 791.041968,866.02117 C791.064733,866.02117 791.114126,866.017975 791.188053,866.011136 L791.317081,865.998089 C792.565782,865.863007 797.632683,865.099153 802.180163,862.777035 C804.775471,861.479381 806.938228,859.100349 808.127744,856.829455 C808.668433,855.748077 809.100984,854.774836 809.209122,853.801596 C809.425398,852.503942 808.992846,851.09815 807.911468,849.908634 C807.154503,849.043532 806.289401,848.502842 805.31616,848.286567 C804.126644,848.070291 801.206923,849.367945 798.070926,851.530702 C795.691894,853.260907 793.204724,855.531801 791.041968,857.910833 C788.879211,860.398003 787.257144,863.209587 786.716455,865.913032 C785.851352,870.130407 788.122246,874.45592 791.798932,876.510539 Z M794.502378,861.04683 C796.448859,858.775936 798.936029,856.721317 801.098785,855.09925 C802.720853,853.909734 804.126644,853.044631 805.31616,852.503942 C805.099885,852.936493 804.991747,853.260907 804.775471,853.693458 C803.585955,855.748077 801.639474,858.018971 799.36858,859.208487 C797.638375,859.965452 796.016307,860.614279 794.502378,861.04683 Z M849.328255,911.655332 C850.193357,911.871607 850.625909,911.330918 850.193357,910.24954 C849.345557,908.251153 861.553885,887.53333 874.322439,866.763961 L875.692073,864.539324 C885.286547,848.977394 894.945115,833.761494 899.396067,826.76714 C901.126273,824.171832 901.991375,822.76604 901.991375,822.76604 C902.315789,822.117213 901.775099,821.035835 900.909997,820.170733 C899.936756,819.197492 898.963516,818.981216 898.639103,819.521906 L898.639103,819.521906 L896.368208,822.982316 C893.448487,827.524105 887.392769,836.283268 878.525467,846.880775 C874.632506,851.530702 870.523268,855.964352 866.522169,859.749176 C865.440791,858.127109 864.143137,855.964352 859.925762,856.07249 C855.383973,855.856215 850.734046,861.803795 848.57129,865.372343 C847.381774,867.426962 846.624809,869.48158 846.516671,871.103648 C846.192258,877.267504 852.356114,876.726815 856.0328,874.45592 C858.736245,872.725715 862.196656,870.022269 866.089618,866.669997 L866.089618,866.669997 L866.197755,866.453721 C866.95472,866.886273 867.603547,866.778135 867.711685,866.237446 C867.711685,866.129308 867.819823,865.696756 867.819823,864.939792 C869.874441,863.101449 871.92906,861.04683 873.983679,858.884074 L873.983679,858.884074 L873.152661,860.255117 C872.875526,860.712741 872.598303,861.170913 872.321125,861.629446 L871.489847,863.005934 C870.935922,863.924062 870.382689,864.842879 869.831186,865.760882 L869.005359,867.13709 C856.91607,887.307019 845.915425,906.719921 847.05736,909.384437 C847.381774,910.465816 848.463152,911.439056 849.328255,911.655332 Z M850.193357,872.509439 C850.409633,871.428061 851.05846,870.022269 851.923563,868.50834 C853.761906,865.480481 858.087419,860.181727 861.98038,860.398003 C863.386172,860.398003 863.926861,861.263106 864.143137,862.02007 L864.143137,862.02007 L862.953621,863.209587 C859.168797,866.561859 855.708386,869.265305 853.004941,870.887372 C851.815425,871.644337 850.842184,872.185026 850.193357,872.509439 Z M886.743942,876.510539 C894.205452,880.727914 911.074952,869.049029 914.102811,863.750276 C914.427225,863.101449 914.427225,862.668897 913.562122,861.803795 C912.588882,860.938692 911.507504,861.695657 911.18309,862.344484 C907.830818,868.400202 878.633605,881.809292 885.986977,866.02117 C886.009743,866.02117 886.059136,866.017975 886.133062,866.011136 L886.262091,865.998089 C887.510792,865.863007 892.577693,865.099153 897.125173,862.777035 C899.720481,861.479381 901.883237,859.100349 903.072753,856.829455 C903.613442,855.748077 904.045994,854.774836 904.154132,853.801596 C904.370407,852.503942 903.937856,851.09815 902.856478,849.908634 C902.099513,849.043532 901.23441,848.502842 900.26117,848.286567 C899.071654,848.070291 896.151933,849.367945 893.015936,851.530702 C890.636904,853.260907 888.149734,855.531801 885.986977,857.910833 C883.824221,860.398003 882.202153,863.209587 881.661464,865.913032 C880.796362,870.130407 883.067256,874.45592 886.743942,876.510539 Z M889.447388,861.04683 C891.393868,858.775936 893.881038,856.721317 896.043795,855.09925 C897.665862,853.909734 899.071654,853.044631 900.26117,852.503942 C900.044894,852.936493 899.936756,853.260907 899.720481,853.693458 C898.530965,855.748077 896.584484,858.018971 894.31359,859.208487 C892.583384,859.965452 890.961317,860.614279 889.447388,861.04683 Z M905.992475,875.645436 C906.857577,876.402401 907.830818,876.726815 908.155231,876.294263 C908.426122,876.023373 914.168184,870.535783 919.936379,865.674952 L920.49449,865.206702 C923.748482,862.488944 926.954828,860.03099 929.133969,858.884074 C928.809556,859.749176 928.377004,860.614279 927.944453,861.479381 C925.889834,865.696756 923.510802,870.454821 928.377004,873.590818 C933.887708,877.19397 945.318179,863.868665 945.773193,863.334211 L945.787194,863.317724 C946.219745,862.777035 946.868572,862.56076 945.895332,861.695657 C945.030229,860.722417 943.840713,862.128208 943.5163,862.56076 C943.408162,862.56076 931.729277,872.833853 928.268866,870.562959 C928.268866,870.562959 929.384339,868.406378 930.566922,866.066605 L930.776096,865.652204 C930.950633,865.305955 931.125287,864.958254 931.296725,864.615378 C932.05369,862.993311 932.810655,861.587519 933.135068,860.398003 C933.892033,857.694558 933.351344,855.639939 930.107209,854.666698 L930.107209,854.666698 L929.890934,854.666698 C927.780502,854.091126 922.521442,857.770457 917.284343,862.005669 L916.713263,862.46972 C916.23769,862.85797 915.76325,863.249702 915.292327,863.642138 L915.292327,863.642138 L917.995773,858.775936 C918.320187,858.235247 917.887635,857.045731 916.914395,856.180628 C916.049292,855.315525 914.967914,855.09925 914.643501,855.639939 L914.643501,855.639939 L904.911096,873.050129 C904.586683,873.590818 905.127372,874.672196 905.992475,875.645436 Z M938.109408,877.159366 C943.408162,886.89177 967.955448,862.668897 968.063586,862.56076 C968.496137,862.236346 969.144964,861.695657 968.279861,860.722417 C967.414759,859.749176 966.765932,859.965452 966.33338,860.289865 C966.33338,860.398003 944.381402,877.916331 942.434921,874.239645 C941.474158,872.492803 943.617399,868.135776 947.952977,860.88367 L948.372489,860.184231 C949.295666,858.649775 950.31096,856.991662 951.410361,855.207388 C951.626636,855.207388 951.842912,854.991112 951.842912,854.558561 L951.842912,854.558561 L951.842912,854.450423 C954.005669,850.990012 956.276563,847.421464 958.547457,843.961054 L958.547457,843.961054 L990.880667,843.961054 C991.637631,843.961054 991.745769,843.095951 991.096942,842.014573 C990.556253,841.041333 989.366737,840.17623 988.609772,840.17623 L988.609772,840.17623 L961.034627,840.17623 C969.469377,827.524105 977.363439,816.602184 977.363439,816.494047 C977.687852,816.061495 977.255301,814.871979 976.390198,814.006877 C975.525096,813.033636 974.443717,812.817361 974.119304,813.249912 C974.011166,813.35805 964.927589,826.010175 955.844012,840.17623 L955.844012,840.17623 L919.293427,840.17623 C918.536462,840.17623 918.428324,841.041333 919.077151,842.014573 C919.61784,843.095951 920.807357,843.961054 921.564321,843.961054 C921.564321,843.961054 922.671653,843.917799 924.441653,843.914338 L924.992088,843.914577 C932.394627,843.93536 949.200024,844.68774 949.031329,851.09815 C949.031329,851.09815 948.274364,852.287666 948.382502,852.287666 C941.461681,863.750276 936.487341,874.131507 938.109408,877.159366 Z M950.220845,849.151669 C948.490639,846.880775 943.191886,844.718019 939.947751,843.420365 L939.947751,843.420365 L953.464979,843.961054 L953.464979,843.961054 L950.220845,849.151669 Z M977.363439,849.367945 C978.228541,850.233048 979.309919,850.665599 979.742471,850.12491 L979.742471,850.12491 L985.798189,843.204089 C986.122602,842.6634 985.798189,841.582022 984.933086,840.608781 C983.959846,839.743679 982.986605,839.311127 982.554054,839.851817 L982.554054,839.851817 L976.498336,846.772637 C976.065785,847.313326 976.498336,848.394705 977.363439,849.367945 Z M963.089246,874.888472 C967.506676,882.593292 983.928215,865.411543 985.652041,863.674106 L985.741122,863.585285 C985.775642,863.551518 985.794945,863.534 985.798189,863.534 L985.798189,863.534 L985.901281,863.431876 C986.290951,863.04539 986.585432,862.699176 985.690051,861.803795 C984.824948,860.830554 984.067984,861.695657 983.635432,862.128208 C983.635432,862.236346 971.632134,873.915231 967.198483,873.266404 C966.117105,872.725715 966.008967,870.99551 967.522897,867.967651 C969.901929,863.425862 973.79489,858.775936 976.173922,856.721317 C976.714612,856.288766 976.390198,855.207388 975.525096,854.234147 C974.659993,853.260907 973.578615,852.828355 973.037926,853.260907 C970.550756,855.315525 966.549656,860.181727 964.170624,864.831654 C962.332281,868.50834 961.575316,872.185026 963.089246,874.888472 Z M981.148262,878.673295 C982.337778,879.322122 983.851708,879.538398 985.365638,879.213985 C986.23074,878.997709 987.095843,878.565158 987.852807,878.024468 C988.609772,877.375641 989.366737,876.618677 989.907426,875.645436 C990.772529,873.807093 991.096942,871.319923 990.448115,868.183926 C989.258599,863.209587 992.286458,858.55966 994.557353,855.964352 L994.557353,855.964352 L997.15266,853.477182 C997.585212,853.044631 997.15266,851.855115 996.287558,850.990012 C995.530593,850.016772 994.449215,849.584221 994.016663,850.016772 C994.016663,850.016772 994.01518,850.017959 994.012252,850.020321 L993.977651,850.048516 C993.772352,850.217027 992.779086,851.050089 991.529493,852.395804 L991.529493,852.395804 L983.419157,862.236346 C982.986605,862.668897 980.715711,864.615378 981.580814,865.588619 C982.445916,866.453721 983.74357,865.804894 984.176121,865.372343 L984.176121,865.372343 L988.609772,860.289865 C986.5912,863.990582 986.731378,864.87838 986.893362,865.751641 L986.927628,865.939566 C986.96067,866.129308 986.987705,866.32756 986.987705,866.561859 C987.528394,869.049029 987.203981,870.99551 986.447016,872.509439 C986.122602,873.266404 985.473775,874.023369 984.824948,874.45592 C984.176121,874.996609 983.419157,875.321023 982.662192,875.429161 C981.797089,875.645436 980.931987,875.645436 980.499435,875.429161 C980.28316,875.321023 981.797089,872.617577 981.797089,872.509439 C982.013365,871.96875 981.580814,870.779234 980.607573,869.914132 C979.634333,869.049029 978.661092,868.832753 978.336679,869.373443 C978.336679,869.376215 978.334475,869.382898 978.330284,869.393342 L978.311967,869.435807 C978.017882,870.095001 975.300502,875.698119 981.148262,878.673295 Z M995.530593,877.159366 C1000.82935,886.89177 1025.37663,862.668897 1025.48477,862.56076 C1025.91732,862.236346 1026.56615,861.695657 1025.70105,860.722417 C1024.83594,859.749176 1024.18712,859.965452 1023.75457,860.289865 C1023.75457,860.398003 1001.80259,877.916331 999.856106,874.239645 C998.895343,872.492803 1001.03858,868.135776 1005.37416,860.88367 L1005.79367,860.184231 C1006.71685,858.649775 1007.73214,856.991662 1008.83155,855.207388 C1009.04782,855.207388 1009.2641,854.991112 1009.2641,854.558561 L1009.2641,854.558561 L1009.2641,854.450423 C1011.42685,850.990012 1013.69775,847.421464 1015.96864,843.961054 L1015.96864,843.961054 L1048.30185,843.961054 C1049.05882,843.961054 1049.16695,843.095951 1048.51813,842.014573 C1047.97744,841.041333 1046.78792,840.17623 1046.03096,840.17623 L1046.03096,840.17623 L1018.45581,840.17623 C1026.89056,827.524105 1034.78462,816.602184 1034.78462,816.494047 C1035.10904,816.061495 1034.67649,814.871979 1033.81138,814.006877 C1032.94628,813.033636 1031.8649,812.817361 1031.54049,813.249912 C1031.43235,813.35805 1022.34877,826.010175 1013.2652,840.17623 L1013.2652,840.17623 L976.714612,840.17623 C975.957647,840.17623 975.849509,841.041333 976.498336,842.014573 C977.039025,843.095951 978.228541,843.961054 978.985506,843.961054 C978.985506,843.961054 980.092837,843.917799 981.862837,843.914338 L982.413272,843.914577 C989.815812,843.93536 1006.62121,844.68774 1006.45251,851.09815 C1006.45251,851.09815 1005.69555,852.287666 1005.80369,852.287666 C998.882866,863.750276 993.908526,874.131507 995.530593,877.159366 Z M1007.64203,849.151669 C1005.91182,846.880775 1000.61307,844.718019 997.368936,843.420365 L997.368936,843.420365 L1010.88616,843.961054 L1010.88616,843.961054 L1007.64203,849.151669 Z M1047.0042,911.006505 C1050.68088,911.006505 1058.79122,899.219482 1066.03645,886.999908 C1078.25603,885.269703 1095.12553,884.837151 1118.05075,886.783632 C1118.91585,886.783632 1119.02399,886.026667 1118.4833,885.053427 C1117.94261,883.972049 1116.86123,883.106946 1115.99613,882.998808 C1095.99063,881.268603 1080.41878,881.376741 1068.63176,882.674395 C1068.69907,882.556326 1068.76627,882.438359 1068.83335,882.320502 L1069.23439,881.614784 C1075.56066,870.46465 1080.7432,860.502831 1080.7432,860.398003 L1080.7432,860.398003 L1080.85134,860.289865 L1083.23037,856.07249 C1083.55478,855.531801 1083.01409,854.450423 1082.14899,853.58532 C1081.17575,852.720218 1080.31065,852.395804 1079.8781,852.936493 L1079.91414,852.896156 L1079.91968,852.933614 C1079.98171,854.545394 1068.00981,871.457945 1060.74684,870.281243 L1060.52143,870.238545 C1059.8726,869.805994 1060.08887,867.426962 1060.30515,866.99441 C1061.71094,863.642138 1064.41439,859.532901 1067.8748,855.531801 C1068.30735,854.991112 1067.8748,853.909734 1067.00969,852.936493 C1066.14459,852.071391 1065.06321,851.638839 1064.63066,852.179528 C1061.17025,856.288766 1058.35867,860.506141 1056.95288,863.966551 C1056.19591,865.696756 1055.76336,867.318824 1055.8715,868.616478 C1055.8715,870.887372 1057.06101,872.725715 1059.22377,873.915231 C1059.98074,874.347782 1060.7377,874.564058 1061.71094,874.672196 C1063.98184,874.888472 1067.44225,872.617577 1070.79452,869.697856 C1068.52362,873.807093 1065.82018,878.565158 1063.0086,883.323222 C1051.76226,885.053427 1044.40889,887.86501 1039.97524,891.001007 C1037.05552,893.055626 1035.43345,895.218382 1034.67649,897.381139 C1033.91952,899.760171 1034.35207,902.247341 1035.54159,904.410098 C1037.70434,908.194921 1042.02986,910.898367 1047.0042,911.006505 Z M1044.7333,907.221681 C1041.70544,907.113543 1039.32641,906.032165 1038.35317,904.518235 C1037.81248,903.436857 1037.59621,902.031065 1038.1369,900.30086 C1038.78572,898.462517 1040.29965,896.407899 1043.0031,894.569556 C1046.57165,891.974248 1052.19481,889.703353 1060.30515,887.973148 C1054.03316,898.354379 1047.65302,907.221681 1044.7333,907.221681 Z M1085.50126,879.105847 C1086.90705,879.862811 1088.31285,879.970949 1089.71864,879.538398 C1090.90815,879.213985 1092.09767,878.348882 1093.39532,877.267504 C1095.01739,875.861712 1096.53132,873.698955 1097.82897,871.211786 C1098.80222,869.589718 1099.45104,867.643237 1099.88359,865.804894 C1103.23587,866.99441 1107.02069,866.561859 1112.10317,863.750276 C1112.64386,863.425862 1112.75199,862.668897 1111.99503,861.695657 C1111.12993,860.722417 1110.58924,861.154968 1110.04855,861.479381 C1106.26372,863.642138 1102.69518,863.209587 1100.31614,862.777035 C1100.53242,861.154968 1100.53242,859.532901 1100.31614,858.127109 C1100.09987,856.721317 1099.77546,855.423663 1099.12663,854.234147 C1098.36966,852.61208 1097.18015,851.314426 1095.77436,850.557461 C1094.90925,850.12491 1094.04415,849.908634 1093.07091,850.016772 C1091.77326,850.233048 1091.12443,851.314426 1090.90815,852.828355 C1090.80002,854.234147 1091.12443,856.180628 1091.98953,858.127109 C1092.85463,860.07359 1094.26043,862.02007 1096.20691,863.642138 C1095.77436,865.156067 1095.23367,866.669997 1094.4767,868.075789 C1093.17905,870.562959 1091.77326,872.509439 1090.25933,873.807093 C1089.17795,874.888472 1087.98843,875.537298 1087.01519,875.861712 C1086.15009,876.077988 1085.50126,876.077988 1084.96057,875.861712 C1084.41988,874.780334 1084.85244,872.185026 1085.71754,869.373443 C1086.90705,866.02117 1088.7454,862.668897 1091.01629,860.614279 C1091.23257,860.398003 1091.55698,860.181727 1091.88139,859.965452 C1092.31395,859.532901 1092.09767,858.451522 1091.23257,857.478282 C1090.36746,856.505041 1089.28609,856.07249 1088.85354,856.396904 C1088.52912,856.613179 1088.20471,856.937593 1087.88029,857.153868 C1085.50126,859.316625 1083.44664,862.885173 1082.25713,866.453721 C1081.06761,870.238545 1080.95947,874.239645 1082.68968,876.726815 C1082.90595,876.94309 1083.12223,877.159366 1083.33851,877.375641 C1083.98733,878.132606 1084.7443,878.673295 1085.50126,879.105847 Z M1096.7476,861.04683 C1095.99063,860.398003 1095.44994,859.641038 1095.12553,858.775936 C1094.58484,857.58642 1094.36856,856.396904 1094.4767,855.423663 C1094.58484,854.450423 1094.90925,853.801596 1095.55808,853.801596 C1095.88249,853.693458 1096.20691,853.693458 1096.31505,853.801596 L1096.31505,853.801596 L1096.20691,853.801596 C1096.42318,854.342285 1096.63946,855.207388 1096.7476,856.180628 C1096.96387,857.58642 1096.96387,859.316625 1096.7476,861.04683 Z M1107.77765,864.399103 C1101.83007,877.591917 1110.58924,879.322122 1121.29488,870.130407 C1121.94371,874.780334 1126.70177,875.645436 1130.4866,873.807093 C1134.81211,871.752475 1138.92135,866.669997 1141.84107,862.885173 C1142.27362,862.452622 1142.81431,861.803795 1141.94921,860.938692 C1140.97597,859.965452 1140.54342,861.04683 1140.11086,861.587519 C1137.29928,865.264205 1132.32494,869.265305 1128.10757,871.319923 C1122.43033,874.044997 1124.70122,869.24584 1127.0569,865.527629 L1127.25884,865.211773 C1128.20048,863.752006 1129.11974,862.504528 1129.51336,862.02007 C1130.05405,861.587519 1130.27032,861.263106 1130.27032,861.263106 C1130.70287,860.830554 1130.27032,859.641038 1129.40522,858.775936 C1128.54012,857.802695 1127.45874,857.478282 1127.02619,857.910833 L1127.02619,857.910833 L1126.70177,858.343384 C1120.86233,868.183926 1112.53572,873.48268 1111.23806,872.401302 C1110.4811,871.752475 1111.12993,865.264205 1119.3484,855.856215 C1119.67282,855.315525 1119.3484,854.234147 1118.4833,853.260907 C1117.6182,852.395804 1116.53682,851.963253 1116.10427,852.395804 C1113.29268,855.423663 1109.72414,860.07359 1107.77765,864.399103 Z M1146.27472,830.22755 C1146.92355,830.22755 1147.57237,829.903137 1148.2212,829.362448 L1148.2212,829.362448 L1148.54561,829.038034 C1149.30258,828.389207 1149.84327,827.524105 1150.16768,826.442726 C1150.38396,825.793899 1150.60023,824.928797 1150.60023,824.063694 C1150.60023,822.441627 1150.05954,820.495146 1148.65375,818.873079 C1148.2212,818.33239 1147.13982,818.764941 1146.27472,819.630043 C1145.40962,820.603284 1144.97707,821.684662 1145.40962,822.225351 C1146.59913,823.631143 1147.03168,825.145072 1147.03168,826.334589 C1147.03168,826.76714 1147.03168,826.983415 1146.92355,827.307829 C1146.59913,827.632242 1146.27472,827.956656 1146.05844,828.389207 C1145.40962,829.470585 1145.51776,830.22755 1146.27472,830.22755 Z M1179.79745,888.081286 C1181.31137,890.027767 1183.36599,890.89287 1185.9613,890.568456 C1188.44847,890.244043 1190.8275,889.487078 1192.88212,888.4057 C1195.15302,887.108046 1198.61343,884.837151 1203.04708,881.376741 C1207.48073,877.916331 1211.80624,874.45592 1215.91548,870.887372 C1219.91658,867.318824 1222.51189,864.723516 1223.7014,862.993311 C1223.80954,862.777035 1223.7014,862.452622 1223.48513,862.128208 C1223.26885,861.803795 1222.94444,861.479381 1222.51189,861.263106 C1222.18747,861.04683 1221.9712,860.938692 1221.86306,860.938692 C1221.64678,860.938692 1221.43051,861.04683 1221.32237,861.263106 L1221.32237,861.263106 L1220.99796,861.587519 C1219.37589,863.209587 1216.67244,865.696756 1212.77948,869.157167 C1208.77838,872.617577 1204.77728,875.96985 1200.55991,879.213985 C1196.34253,882.458119 1193.20654,884.729014 1190.93564,886.026667 C1187.79964,887.540597 1185.74503,887.973148 1184.66365,887.324321 C1183.47413,886.675494 1183.04158,885.485978 1183.36599,883.539497 C1183.58227,881.593017 1184.12296,879.538398 1185.0962,877.375641 C1186.06944,875.104747 1186.93454,873.158266 1187.90778,871.428061 C1188.88102,869.697856 1189.52985,868.616478 1189.85426,868.400202 C1189.9624,868.183926 1191.58447,866.99441 1194.50419,864.615378 C1197.42391,862.236346 1200.99246,859.316625 1205.20983,855.639939 C1209.42721,851.963253 1213.42831,848.070291 1217.21313,843.961054 C1220.99796,839.851817 1223.91768,835.958855 1225.75602,832.498444 C1227.59436,828.821758 1228.24319,826.118313 1227.7025,824.604383 C1227.16181,822.874178 1225.86416,821.684662 1224.02582,821.143973 C1222.94444,820.711422 1221.75492,820.711422 1220.5654,821.143973 C1216.78058,822.225351 1212.99576,825.25321 1209.21093,830.443826 C1208.77838,830.660101 1206.8319,833.255409 1203.37149,838.229749 C1199.80294,843.204089 1196.01812,849.043532 1191.80074,855.964352 C1189.0973,860.181727 1186.71827,864.399103 1184.77179,868.400202 C1184.44737,868.616478 1184.12296,868.940891 1183.79854,869.265305 C1179.79745,872.617577 1175.68821,875.96985 1171.36269,879.213985 C1166.92904,882.458119 1163.68491,884.729014 1161.41402,886.026667 C1160.98146,886.242943 1160.33264,886.459219 1159.3594,886.783632 C1158.38616,886.999908 1157.52105,887.216183 1156.65595,887.324321 C1155.68271,887.432459 1155.03388,887.324321 1154.70947,886.89177 C1153.95251,885.053427 1154.81761,881.484879 1157.0885,876.077988 C1159.3594,870.671096 1162.60353,864.399103 1166.71277,857.478282 C1166.82091,857.478282 1167.03718,857.370144 1167.14532,857.370144 C1167.25346,857.262006 1168.87553,856.07249 1171.79525,853.693458 C1174.71497,851.314426 1178.28352,848.286567 1182.50089,844.609881 C1186.71827,840.933195 1190.71937,837.040233 1194.50419,832.930996 C1198.28901,828.821758 1201.20873,825.036935 1203.04708,821.576524 C1204.88542,817.899838 1205.42611,815.196393 1204.88542,813.682463 C1204.34473,811.952258 1203.15522,810.762742 1201.20873,810.113915 C1200.23549,809.789501 1199.04598,809.789501 1197.74832,810.222053 C1194.07164,811.303431 1190.28681,814.33129 1186.50199,819.521906 C1185.9613,819.846319 1183.69041,822.982316 1179.47303,829.038034 C1175.25566,835.093752 1170.71387,842.230849 1165.63139,850.449323 C1160.54891,858.667798 1156.33154,866.453721 1153.0874,873.590818 C1149.84327,880.727914 1148.87003,885.485978 1150.27582,888.081286 C1151.68161,890.027767 1153.73623,890.89287 1156.33154,890.568456 C1158.92685,890.244043 1161.30588,889.487078 1163.3605,888.4057 C1165.63139,887.108046 1169.0918,884.837151 1173.52545,881.376741 C1176.33703,879.213985 1179.14862,877.051228 1181.74393,874.780334 L1181.74393,874.780334 L1181.63579,875.321023 C1179.04048,881.376741 1178.39165,885.594116 1179.79745,888.081286 Z M1171.90338,848.827256 C1176.55331,841.473884 1180.55441,835.093752 1184.01482,829.903137 C1187.47523,824.712521 1189.31357,822.009076 1189.52985,821.7928 C1193.31467,816.81846 1196.88322,813.790601 1200.45177,812.709223 C1200.99246,812.492947 1201.42501,812.492947 1201.85756,812.492947 C1202.18197,813.790601 1201.53315,816.169633 1199.91108,819.413768 C1197.31577,824.171832 1193.20654,829.25431 1187.58337,834.769339 C1181.9602,840.17623 1176.76959,844.934294 1171.90338,848.827256 Z M1194.61233,859.749176 C1199.26225,852.395804 1203.26335,846.015673 1206.72376,840.825057 C1210.18417,835.634441 1212.02252,832.930996 1212.23879,832.71472 C1216.02362,827.74038 1219.59216,824.712521 1223.16071,823.631143 C1223.7014,823.414867 1224.24209,823.414867 1224.5665,823.414867 C1224.89092,824.712521 1224.35023,827.091553 1222.72816,830.335688 C1220.02472,835.093752 1215.91548,840.17623 1210.40045,845.691259 C1204.77728,851.09815 1199.47853,855.856215 1194.61233,859.749176 Z M658.302788,981.431692 C660.681821,982.51307 664.68292,979.160798 668.575882,975.484112 C668.467744,980.782865 672.252568,982.296794 677.226908,979.701487 C680.146629,978.187557 684.364004,974.402733 691.5011,968.022602 C691.933652,967.59005 692.04179,966.724948 691.176687,965.751707 C690.311584,964.886605 689.446482,965.427294 689.013931,965.859845 C688.915405,965.909108 685.944312,968.3821 682.697432,970.814946 L682.220611,971.170399 L682.220611,971.170399 L681.741662,971.523564 C678.146079,974.159423 674.523462,976.457352 674.307186,975.159698 C673.65836,972.131839 674.956013,969.320256 675.172289,968.779566 C675.496703,968.238877 675.064151,967.265637 674.307186,966.400534 C673.333946,965.427294 672.360706,965.10288 671.928154,965.535432 C671.928154,965.535432 662.087612,976.998041 658.302788,978.079419 C659.492305,973.105079 661.763199,969.212118 665.764298,965.967983 C667.710779,964.345916 673.009533,961.858746 675.172289,963.913364 C675.60484,964.886605 676.686219,965.859845 677.551321,966.076121 C678.416424,966.292396 678.740837,965.64357 678.308286,964.562191 C676.469943,958.290198 667.602641,958.506473 662.736439,962.507573 C659.924856,964.778467 657.437686,968.13074 656.031894,971.158599 C655.383067,972.56439 654.950516,973.970182 654.842378,975.267836 C654.626102,976.889903 655.058654,978.403833 656.140032,979.809625 L656.140032,979.809625 L656.495238,980.16158 C657.031946,980.683664 657.594977,981.166263 658.302788,981.431692 Z M686.743036,981.972381 C693.98827,988.46065 717.34604,968.455153 717.454178,968.455153 C717.88673,968.022602 717.562316,966.941223 716.697214,965.967983 C715.940249,965.751707 714.967008,967.049361 714.534457,967.157499 C714.527969,967.157499 714.442064,967.217451 714.285315,967.329295 L714.105269,967.45814 C710.992208,969.689827 691.894722,983.490636 687.716277,979.809625 C687.175588,979.268935 686.959312,978.403833 686.959312,977.430592 C687.06745,976.132938 687.500001,974.619009 688.256966,973.213217 C689.122068,971.699288 690.203447,970.185358 691.5011,968.779566 C694.853373,964.994743 699.287024,962.075021 701.341642,962.183159 C701.774194,962.183159 700.043989,965.967983 699.935851,965.967983 C699.719575,966.508672 700.260264,967.698188 701.233505,968.563291 C702.098607,969.428393 703.071848,969.644669 703.396261,968.995842 C703.396261,968.995842 708.370601,958.722749 699.178886,958.398335 C696.691716,958.290198 691.825514,961.426194 688.256966,965.427294 C686.959312,966.941223 685.769796,968.455153 684.904693,970.07722 C684.039591,971.699288 683.498902,973.321355 683.498902,975.05156 C683.390764,977.430592 684.364004,979.809625 686.743036,981.972381 Z M709.884531,981.864243 C715.183284,991.596647 739.73057,967.373775 739.838708,967.265637 C740.271259,966.941223 740.920086,966.400534 740.054984,965.427294 C739.189881,964.454053 738.541054,964.670329 738.108503,964.994743 C738.108503,965.10288 716.156524,982.621208 714.210044,978.944522 C713.249281,977.19768 715.392521,972.840654 719.7281,965.588547 L720.147611,964.889108 C721.070788,963.354652 722.086082,961.696539 723.185483,959.912265 C723.401759,959.912265 723.618034,959.695989 723.618034,959.263438 L723.618034,959.263438 L723.618034,959.1553 C725.780791,955.69489 728.051685,952.126342 730.322579,948.665931 L730.322579,948.665931 L762.655789,948.665931 C763.412754,948.665931 763.520891,947.800829 762.872064,946.71945 C762.331375,945.74621 761.141859,944.881107 760.384894,944.881107 L760.384894,944.881107 L732.809749,944.881107 C741.2445,932.228982 749.138561,921.307062 749.138561,921.198924 C749.462974,920.766373 749.030423,919.576856 748.16532,918.711754 C747.300218,917.738513 746.218839,917.522238 745.894426,917.954789 C745.786288,918.062927 736.702711,930.715052 727.619134,944.881107 L727.619134,944.881107 L691.068549,944.881107 C690.311584,944.881107 690.203447,945.74621 690.852274,946.71945 C691.392963,947.800829 692.582479,948.665931 693.339443,948.665931 C693.339443,948.665931 694.446775,948.622676 696.216775,948.619216 L696.76721,948.619454 C704.169749,948.640238 720.975146,949.392617 720.806451,955.803028 C720.806451,955.803028 720.049486,956.992544 720.157624,956.992544 C713.236803,968.455153 708.262463,978.836384 709.884531,981.864243 Z M721.995967,953.856547 C720.265762,951.585652 714.967008,949.422896 711.722874,948.125242 L711.722874,948.125242 L725.240102,948.665931 C724.158723,950.396136 723.077345,952.126342 721.995967,953.856547 Z M735.513195,969.10398 C729.565615,982.296794 738.324778,984.027 749.030423,974.835285 C749.67925,979.485211 754.437314,980.350314 758.222138,978.511971 C762.547651,976.457352 766.656888,971.374874 769.576609,967.59005 C770.009161,967.157499 770.54985,966.508672 769.684747,965.64357 C768.711507,964.670329 768.278956,965.751707 767.846404,966.292396 C765.034821,969.969083 760.060481,973.970182 755.843106,976.024801 C750.16587,978.749874 752.436764,973.950717 754.792439,970.232506 L754.994378,969.91665 C755.936018,968.456883 756.855276,967.209405 757.248898,966.724948 C757.789587,966.292396 758.005862,965.967983 758.005862,965.967983 C758.438414,965.535432 758.005862,964.345916 757.14076,963.480813 C756.275657,962.507573 755.194279,962.183159 754.761728,962.61571 L754.761728,962.61571 L754.437314,963.048262 C748.597872,972.888804 740.271259,978.187557 738.973605,977.106179 C738.216641,976.457352 738.865467,969.969083 747.083942,960.561092 C747.408356,960.020403 747.083942,958.939024 746.218839,957.965784 C745.353737,957.100681 744.272359,956.66813 743.839807,957.100681 C741.028224,960.128541 737.459676,964.778467 735.513195,969.10398 Z M765.467372,981.431692 C767.846404,982.51307 771.847504,979.160798 775.740465,975.484112 C775.632328,980.782865 779.417151,982.296794 784.391491,979.701487 C787.311213,978.187557 791.528588,974.402733 798.665684,968.022602 C799.098235,967.59005 799.206373,966.724948 798.341271,965.751707 C797.476168,964.886605 796.611066,965.427294 796.178514,965.859845 C796.079989,965.909108 793.108895,968.3821 789.862015,970.814946 L789.385195,971.170399 L789.385195,971.170399 L788.906246,971.523564 C785.310663,974.159423 781.688046,976.457352 781.47177,975.159698 C780.822943,972.131839 782.120597,969.320256 782.336873,968.779566 C782.661286,968.238877 782.228735,967.265637 781.47177,966.400534 C780.49853,965.427294 779.525289,965.10288 779.092738,965.535432 C779.092738,965.535432 769.252196,976.998041 765.467372,978.079419 C766.656888,973.105079 768.927783,969.212118 772.928882,965.967983 C774.875363,964.345916 780.174116,961.858746 782.336873,963.913364 C782.769424,964.886605 783.850802,965.859845 784.715905,966.076121 C785.581007,966.292396 785.905421,965.64357 785.47287,964.562191 C783.634527,958.290198 774.767225,958.506473 769.901023,962.507573 C767.08944,964.778467 764.60227,968.13074 763.196478,971.158599 C762.547651,972.56439 762.1151,973.970182 762.006962,975.267836 C761.790686,976.889903 762.223237,978.403833 763.304616,979.809625 L763.304616,979.809625 L763.659821,980.16158 C764.196529,980.683664 764.759561,981.166263 765.467372,981.431692 Z M815.859598,992.786163 C817.373528,994.732644 819.428146,995.597747 822.023454,995.273333 C824.510624,994.94892 826.889656,994.191955 828.944275,993.110577 C831.215169,991.812923 834.67558,989.542029 839.10923,986.081618 C843.542881,982.621208 847.868394,979.160798 851.977631,975.592249 C855.978731,972.023701 858.574039,969.428393 859.763555,967.698188 C859.871693,967.481913 859.763555,967.157499 859.547279,966.833086 C859.331004,966.508672 859.00659,966.184259 858.574039,965.967983 C858.249625,965.751707 858.03335,965.64357 857.925212,965.64357 C857.708936,965.64357 857.492661,965.751707 857.384523,965.967983 C857.276385,966.076121 857.168247,966.184259 857.060109,966.292396 C855.438042,967.914464 852.734596,970.401634 848.841635,973.862044 C844.840535,977.322455 840.839436,980.674727 836.62206,983.918862 C832.404685,987.162997 829.268688,989.433891 826.997794,990.731545 C823.861797,992.245474 821.807179,992.678026 820.7258,992.029199 C819.536284,991.380372 819.103733,990.190856 819.428146,988.244375 C819.644422,986.297894 820.185111,984.243275 821.158352,982.080519 C822.131592,979.809625 822.996695,977.863144 823.969935,976.132938 C824.943175,974.402733 825.592002,973.321355 825.916416,973.105079 C826.024554,972.888804 827.646621,971.699288 830.566342,969.320256 C833.486064,966.941223 837.054612,964.021502 841.271987,960.344816 C845.489362,956.66813 849.490462,952.775168 853.275285,948.665931 C857.060109,944.556694 859.97983,940.663732 861.818173,937.203322 C863.656516,933.526636 864.305343,930.82319 863.764654,929.309261 C863.223965,927.579055 861.926311,926.389539 860.087968,925.84885 C859.00659,925.416299 857.817074,925.416299 856.627558,925.84885 C852.842734,926.930229 849.05791,929.958088 845.273086,935.148703 C844.840535,935.364979 842.894054,937.960287 839.433644,942.934626 C835.865096,947.908966 832.080272,953.748409 827.862897,960.66923 C825.159451,964.886605 822.780419,969.10398 820.833938,973.105079 C820.509525,973.321355 820.185111,973.645769 819.860698,973.970182 C815.859598,977.322455 811.750361,980.674727 807.424848,983.918862 C802.991197,987.162997 799.747062,989.433891 797.476168,990.731545 C797.043617,990.94782 796.39479,991.164096 795.421549,991.48851 C794.448309,991.704785 793.583206,991.921061 792.718104,992.029199 C791.744863,992.137336 791.096036,992.029199 790.771623,991.596647 C790.014658,989.758304 790.879761,986.189756 793.150655,980.782865 C795.421549,975.375974 798.665684,969.10398 802.774922,962.183159 C802.883059,962.183159 803.099335,962.075021 803.207473,962.075021 C803.315611,961.966884 804.937678,960.777367 807.857399,958.398335 C810.77712,956.019303 814.345669,952.991444 818.563044,949.314758 C822.780419,945.638072 826.781518,941.74511 830.566342,937.635873 C834.351166,933.526636 837.270887,929.741812 839.10923,926.281402 C840.947573,922.604716 841.488263,919.90127 840.947573,918.38734 C840.406884,916.657135 839.217368,915.467619 837.270887,914.818792 C836.297647,914.494379 835.108131,914.494379 833.810477,914.92693 C830.133791,916.008308 826.348967,919.036167 822.564143,924.226783 C822.023454,924.551196 819.75256,927.687193 815.535185,933.742911 C811.31781,939.79863 806.776021,946.935726 801.693543,955.154201 C796.611066,963.372675 792.39369,971.158599 789.149556,978.295695 C785.905421,985.432791 784.932181,990.190856 786.337972,992.786163 C787.743764,994.732644 789.798383,995.597747 792.39369,995.273333 C794.988998,994.94892 797.36803,994.191955 799.422649,993.110577 C801.693543,991.812923 805.153954,989.542029 809.587604,986.081618 C812.399188,983.918862 815.210771,981.756105 817.806079,979.485211 L817.806079,979.485211 L817.697941,980.0259 C815.102633,986.081618 814.453807,990.298993 815.859598,992.786163 Z M807.965537,953.532133 C812.615463,946.178761 816.616563,939.79863 820.076973,934.608014 C823.537384,929.417398 825.375727,926.713953 825.592002,926.497677 C829.376826,921.523337 832.945374,918.495478 836.513923,917.4141 C837.054612,917.197824 837.487163,917.197824 837.919714,917.197824 C838.244128,918.495478 837.595301,920.87451 835.973234,924.118645 C833.377926,928.876709 829.268688,933.959187 823.645522,939.474216 C818.022355,944.881107 812.831739,949.639172 807.965537,953.532133 Z M830.67448,964.454053 C835.324407,957.100681 839.325506,950.72055 842.785916,945.529934 C846.246327,940.339319 848.08467,937.635873 848.300945,937.419597 C852.085769,932.445258 855.654317,929.417398 859.222866,928.33602 C859.763555,928.119745 860.304244,928.119745 860.628657,928.119745 C860.953071,929.417398 860.412382,931.796431 858.790314,935.040565 C856.086869,939.79863 851.977631,944.881107 846.462602,950.396136 C840.839436,955.803028 835.540682,960.561092 830.67448,964.454053 Z M845.056811,1015.71138 C848.733497,1015.71138 856.843834,1003.92436 864.089068,991.704785 C876.308642,989.97458 893.178142,989.542029 916.103361,991.48851 C916.968464,991.48851 917.076602,990.731545 916.535912,989.758304 C915.995223,988.676926 914.913845,987.811823 914.048743,987.703686 C894.043245,985.97348 878.471398,986.081618 866.684376,987.379272 C866.751686,987.261203 866.818884,987.143236 866.885964,987.02538 L867.287001,986.319662 C873.613269,975.169528 878.795812,965.207708 878.795812,965.10288 L878.795812,965.10288 L878.90395,964.994743 L881.282982,960.777367 C881.607395,960.236678 881.066706,959.1553 880.201604,958.290198 C879.228363,957.425095 878.363261,957.100681 877.930709,957.641371 L877.966755,957.601033 L877.972291,957.638492 C878.034319,959.250271 866.062424,976.162823 858.799455,974.986121 L858.574039,974.943422 C857.925212,974.510871 858.141487,972.131839 858.357763,971.699288 C859.763555,968.347015 862.467,964.237778 865.927411,960.236678 C866.359962,959.695989 865.927411,958.614611 865.062308,957.641371 C864.197206,956.776268 863.115827,956.343717 862.683276,956.884406 C859.222866,960.993643 856.411282,965.211018 855.005491,968.671429 C854.248526,970.401634 853.815974,972.023701 853.924112,973.321355 C853.924112,975.592249 855.113628,977.430592 857.276385,978.620108 C858.03335,979.05266 858.790314,979.268935 859.763555,979.377073 C862.034449,979.593349 865.494859,977.322455 868.847132,974.402733 C866.576238,978.511971 863.872792,983.270035 861.061209,988.028099 C849.814875,989.758304 842.461503,992.569888 838.027852,995.705885 C835.108131,997.760503 833.486064,999.92326 832.729099,1002.08602 C831.972134,1004.46505 832.404685,1006.95222 833.594201,1009.11497 C835.756958,1012.8998 840.082471,1015.60324 845.056811,1015.71138 Z M842.785916,1011.92656 C839.758057,1011.81842 837.379025,1010.73704 836.405785,1009.22311 C835.865096,1008.14173 835.64882,1006.73594 836.189509,1005.00574 C836.838336,1003.16739 838.352266,1001.11278 841.055711,999.274433 C844.624259,996.679125 850.247426,994.408231 858.357763,992.678026 C852.085769,1003.05926 845.705638,1011.92656 842.785916,1011.92656 Z M917.292877,981.972381 C920.537012,984.135137 924.970663,980.350314 928.539211,975.916663 C928.863624,977.863144 929.728727,979.701487 931.458932,980.891003 C934.594929,982.945621 937.730926,981.864243 941.407612,977.971281 C943.029679,976.241076 944.868022,973.862044 946.814503,971.050461 C947.355192,971.699288 948.004019,972.348115 948.869122,972.996942 C954.32786,976.272184 958.329122,972.077861 961.625354,968.440075 L961.918675,968.116004 C962.112992,967.901233 962.304876,967.6893 962.494488,967.481913 C962.927039,967.049361 963.143315,966.61681 962.278212,965.64357 C961.413109,964.778467 960.87242,964.994743 960.439869,965.427294 C958.493388,967.373775 951.46443,971.59115 948.652846,969.860945 C948.328433,969.644669 948.436571,969.10398 948.652846,968.347015 C950.274914,965.859845 952.005119,963.1564 953.9516,960.128541 L953.9516,960.128541 L953.9516,960.020403 C954.276013,959.479714 953.843462,958.290198 952.870221,957.425095 C952.005119,956.559992 951.031878,956.343717 950.599327,956.776268 C950.599327,956.776268 949.193535,958.614611 947.895881,961.101781 C944.00292,967.265637 940.866923,971.807426 938.163477,974.619009 C935.135618,977.863144 933.081,978.944522 931.56707,977.971281 C929.512451,976.56549 935.135618,966.400534 935.135618,966.400534 C935.460032,965.859845 934.919343,964.670329 934.05424,963.805227 C933.081,962.940124 932.107759,962.723848 931.783346,963.264537 L931.783346,963.264537 L931.675208,963.480813 C930.59383,965.211018 921.077701,981.53983 917.184739,978.944522 C915.887086,978.133488 918.536462,973.618734 921.52377,969.306738 L921.883638,968.790522 C924.771862,964.672578 927.838478,960.885505 927.890384,960.885505 C928.214797,960.452954 927.782246,959.263438 926.917144,958.398335 C926.052041,957.425095 924.970663,957.100681 924.646249,957.533233 C922.591631,959.371576 919.563772,963.372675 917.725429,965.64357 C917.401015,965.967983 917.509153,966.724948 918.049842,967.373775 C915.021983,972.888804 913.075502,979.268935 917.292877,981.972381 Z M958.060837,981.431692 C960.439869,982.51307 964.440969,979.160798 968.33393,975.484112 C968.225792,980.782865 972.010616,982.296794 976.984956,979.701487 C979.904677,978.187557 984.122053,974.402733 991.259149,968.022602 C991.6917,967.59005 991.799838,966.724948 990.934735,965.751707 C990.069633,964.886605 989.20453,965.427294 988.771979,965.859845 C988.673453,965.909108 985.70236,968.3821 982.45548,970.814946 L981.97866,971.170399 L981.97866,971.170399 L981.49971,971.523564 C977.904128,974.159423 974.281511,976.457352 974.065235,975.159698 C973.416408,972.131839 974.714062,969.320256 974.930337,968.779566 C975.254751,968.238877 974.8222,967.265637 974.065235,966.400534 C973.091994,965.427294 972.118754,965.10288 971.686203,965.535432 C971.686203,965.535432 961.845661,976.998041 958.060837,978.079419 C959.250353,973.105079 961.521247,969.212118 965.522347,965.967983 C967.468828,964.345916 972.767581,961.858746 974.930337,963.913364 C975.362889,964.886605 976.444267,965.859845 977.30937,966.076121 C978.174472,966.292396 978.498886,965.64357 978.066334,964.562191 C976.227991,958.290198 967.36069,958.506473 962.494488,962.507573 C959.682904,964.778467 957.195734,968.13074 955.789943,971.158599 C955.141116,972.56439 954.708564,973.970182 954.600427,975.267836 C954.384151,976.889903 954.816702,978.403833 955.89808,979.809625 C956.546907,980.458451 957.195734,981.107278 958.060837,981.431692 Z M982.932536,980.350314 C983.797639,981.107278 984.770879,981.431692 985.095293,980.999141 L985.095293,980.999141 L985.138405,980.956836 C985.736666,980.374864 991.294317,975.08386 996.876441,970.379829 L997.434552,969.911579 C1000.68854,967.193821 1003.89489,964.735867 1006.07403,963.588951 C1005.74962,964.454053 1005.31707,965.319156 1004.88451,966.184259 C1002.8299,970.401634 1000.45086,975.159698 1005.31707,978.295695 C1010.94023,981.972381 1022.72726,968.022602 1022.72726,968.022602 C1023.15981,967.481913 1023.80863,967.265637 1022.83539,966.400534 C1021.97029,965.427294 1020.78077,966.833086 1020.45636,967.265637 C1020.34822,967.265637 1008.66934,977.53873 1005.20893,975.267836 C1005.20893,975.267836 1006.3244,973.111255 1007.50698,970.771483 L1007.71616,970.357082 C1007.89069,970.010832 1008.06535,969.663132 1008.23679,969.320256 C1008.99375,967.698188 1009.75072,966.292396 1010.07513,965.10288 C1010.8321,962.399435 1010.29141,960.344816 1007.04727,959.371576 L1007.04727,959.371576 L1006.831,959.371576 C1004.72056,958.796003 999.461504,962.475334 994.224405,966.710547 L993.653325,967.174597 C993.177751,967.562847 992.703312,967.95458 992.232389,968.347015 L992.232389,968.347015 L994.935835,963.480813 C995.260248,962.940124 994.827697,961.750608 993.854457,960.885505 C992.989354,960.020403 991.907976,959.804127 991.583562,960.344816 L991.583562,960.344816 L981.851158,977.755006 C981.526745,978.295695 982.067434,979.377073 982.932536,980.350314 Z M1015.04947,981.864243 C1020.34822,991.596647 1044.89551,967.373775 1045.00365,967.265637 C1045.4362,966.941223 1046.08503,966.400534 1045.21992,965.427294 C1044.35482,964.454053 1043.70599,964.670329 1043.27344,964.994743 C1043.27344,965.10288 1021.32146,982.621208 1019.37498,978.944522 C1018.41422,977.19768 1020.55746,972.840654 1024.89304,965.588547 L1025.31255,964.889108 C1026.23573,963.354652 1027.25102,961.696539 1028.35042,959.912265 C1028.5667,959.912265 1028.78297,959.695989 1028.78297,959.263438 L1028.78297,959.263438 L1028.78297,959.1553 C1030.94573,955.69489 1033.21662,952.126342 1035.48752,948.665931 L1035.48752,948.665931 L1067.82073,948.665931 C1068.57769,948.665931 1068.68583,947.800829 1068.037,946.71945 C1067.49631,945.74621 1066.3068,944.881107 1065.54983,944.881107 L1065.54983,944.881107 L1037.97469,944.881107 C1046.40944,932.228982 1054.3035,921.307062 1054.3035,921.198924 C1054.62791,920.766373 1054.19536,919.576856 1053.33026,918.711754 C1052.46516,917.738513 1051.38378,917.522238 1051.05937,917.954789 C1050.95123,918.062927 1041.86765,930.715052 1032.78407,944.881107 L1032.78407,944.881107 L996.233489,944.881107 C995.476524,944.881107 995.368386,945.74621 996.017213,946.71945 C996.557902,947.800829 997.747418,948.665931 998.504383,948.665931 C998.504383,948.665931 999.611714,948.622676 1001.38171,948.619216 L1001.93215,948.619454 C1009.33469,948.640238 1026.14009,949.392617 1025.97139,955.803028 C1025.97139,955.803028 1025.21443,956.992544 1025.32256,956.992544 C1018.40174,968.455153 1013.4274,978.836384 1015.04947,981.864243 Z M1027.16091,953.856547 C1025.4307,951.585652 1020.13195,949.422896 1016.88781,948.125242 L1016.88781,948.125242 L1030.40504,948.665931 C1029.32366,950.396136 1028.24228,952.126342 1027.16091,953.856547 Z M1072.57879,981.864243 C1077.87755,991.596647 1102.42483,967.373775 1102.53297,967.265637 C1102.96552,966.941223 1103.61435,966.400534 1102.74925,965.427294 C1101.88414,964.454053 1101.23532,964.670329 1100.80276,964.994743 C1100.80276,965.10288 1078.85079,982.621208 1076.90431,978.944522 C1075.94354,977.19768 1078.08678,972.840654 1082.42236,965.588547 L1082.84187,964.889108 C1083.76505,963.354652 1084.78034,961.696539 1085.87975,959.912265 C1086.09602,959.912265 1086.3123,959.695989 1086.3123,959.263438 L1086.3123,959.263438 L1086.3123,959.1553 C1088.47505,955.69489 1090.74595,952.126342 1093.01684,948.665931 L1093.01684,948.665931 L1125.35005,948.665931 C1126.10702,948.665931 1126.21515,947.800829 1125.56633,946.71945 C1125.02564,945.74621 1123.83612,944.881107 1123.07916,944.881107 L1123.07916,944.881107 L1095.50401,944.881107 C1103.93876,932.228982 1111.83282,921.307062 1111.83282,921.198924 C1112.15724,920.766373 1111.72468,919.576856 1110.85958,918.711754 C1109.99448,917.738513 1108.9131,917.522238 1108.58869,917.954789 C1108.48055,918.062927 1099.39697,930.715052 1090.3134,944.881107 L1090.3134,944.881107 L1053.76281,944.881107 C1053.00585,944.881107 1052.89771,945.74621 1053.54654,946.71945 C1054.08722,947.800829 1055.27674,948.665931 1056.03371,948.665931 C1056.03371,948.665931 1057.14104,948.622676 1058.91104,948.619216 L1059.46147,948.619454 C1066.86401,948.640238 1083.66941,949.392617 1083.50071,955.803028 C1083.50071,955.803028 1082.74375,956.992544 1082.85189,956.992544 C1075.93107,968.455153 1070.95673,978.836384 1072.57879,981.864243 Z M1084.69023,953.856547 C1082.96002,951.585652 1077.66127,949.422896 1074.41714,948.125242 L1074.41714,948.125242 L1087.93436,948.665931 C1086.85299,950.396136 1085.77161,952.126342 1084.69023,953.856547 Z M1100.9109,983.810724 C1102.31669,984.567689 1103.72249,984.675827 1105.12828,984.243275 C1106.31779,983.918862 1107.50731,983.053759 1108.80496,981.972381 C1110.42703,980.566589 1111.94096,978.403833 1113.23861,975.916663 C1114.21185,974.294595 1114.86068,972.348115 1115.29323,970.509772 C1118.64551,971.699288 1122.43033,971.266736 1127.51281,968.455153 C1128.0535,968.13074 1128.16163,967.373775 1127.40467,966.400534 C1126.53957,965.427294 1125.99888,965.859845 1125.45819,966.184259 C1121.67336,968.347015 1118.10482,967.914464 1115.72578,967.481913 C1115.94206,965.859845 1115.94206,964.237778 1115.72578,962.831986 C1115.50951,961.426194 1115.1851,960.128541 1114.53627,958.939024 C1113.7793,957.316957 1112.58979,956.019303 1111.184,955.262338 C1110.31889,954.829787 1109.45379,954.613511 1108.48055,954.721649 C1107.1829,954.937925 1106.53407,956.019303 1106.31779,957.533233 C1106.20966,958.939024 1106.53407,960.885505 1107.39917,962.831986 C1108.26427,964.778467 1109.67007,966.724948 1111.61655,968.347015 C1111.184,969.860945 1110.64331,971.374874 1109.88634,972.780666 C1108.58869,975.267836 1107.1829,977.214317 1105.66897,978.511971 C1104.58759,979.593349 1103.39807,980.242176 1102.42483,980.566589 C1101.55973,980.782865 1100.9109,980.782865 1100.37021,980.566589 C1099.82952,979.485211 1100.26208,976.889903 1101.12718,974.07832 C1102.31669,970.726047 1104.15504,967.373775 1106.42593,965.319156 C1106.64221,965.10288 1106.96662,964.886605 1107.29103,964.670329 C1107.72359,964.237778 1107.50731,963.1564 1106.64221,962.183159 C1105.7771,961.209919 1104.69573,960.777367 1104.26318,961.101781 C1103.93876,961.318057 1103.61435,961.64247 1103.28993,961.858746 C1100.9109,964.021502 1098.85628,967.59005 1097.66677,971.158599 C1096.47725,974.943422 1096.36911,978.944522 1098.09932,981.431692 C1098.31559,981.647968 1098.53187,981.864243 1098.74815,982.080519 C1099.39697,982.837484 1100.15394,983.378173 1100.9109,983.810724 Z M1112.15724,965.751707 C1111.40027,965.10288 1110.85958,964.345916 1110.53517,963.480813 C1109.99448,962.291297 1109.7782,961.101781 1109.88634,960.128541 C1109.99448,959.1553 1110.31889,958.506473 1110.96772,958.506473 C1111.29213,958.398335 1111.61655,958.398335 1111.72468,958.506473 L1111.72468,958.506473 L1111.61655,958.506473 C1111.83282,959.047162 1112.0491,959.912265 1112.15724,960.885505 C1112.37351,962.291297 1112.37351,964.021502 1112.15724,965.751707 Z M1155.95306,981.53983 C1157.25071,983.053759 1158.87278,983.378173 1160.60298,982.837484 C1161.68436,982.404932 1163.09015,981.53983 1164.71222,980.350314 C1167.84822,978.187557 1171.74118,974.619009 1175.74228,970.293496 L1175.74228,970.293496 L1175.85041,970.509772 C1179.09455,977.214317 1189.47578,968.13074 1189.47578,968.13074 C1189.90833,967.698188 1189.90833,967.049361 1189.04323,966.076121 C1188.17813,965.10288 1186.88047,966.400534 1186.44792,966.724948 C1182.98751,969.536531 1179.41896,970.07722 1179.41896,969.969083 C1179.41896,967.698188 1183.74448,962.183159 1183.74448,962.075021 C1184.17703,961.64247 1183.09565,959.695989 1182.12241,958.830887 C1181.25731,957.857646 1180.71662,957.857646 1180.28407,958.398335 L1180.28407,958.398335 L1179.63524,959.371576 C1173.47138,967.59005 1166.33429,975.267836 1161.35995,978.836384 C1160.27857,979.917762 1158.76464,980.350314 1159.41347,978.836384 C1160.31227,976.634305 1162.08888,973.610458 1163.86621,970.820432 L1164.19925,970.3003 C1166.58306,966.596018 1168.86921,963.433064 1168.92959,963.372675 C1169.25401,962.940124 1168.92959,961.966884 1168.17263,961.101781 C1167.30753,960.128541 1165.36105,959.1553 1164.92849,959.587851 L1164.92849,959.587851 L1159.19719,965.211018 C1158.76464,965.535432 1158.98091,966.61681 1159.84602,967.59005 L1159.84602,967.59005 L1160.06229,967.806326 C1157.25071,972.131839 1154.43913,977.106179 1154.97981,979.485211 C1155.08795,980.242176 1155.41237,980.891003 1155.95306,981.53983 Z M1198.77563,954.072822 C1199.64074,954.937925 1200.72211,955.370476 1201.15467,954.829787 L1201.15467,954.829787 L1207.21038,947.908966 C1207.5348,947.368277 1207.21038,946.286899 1206.34528,945.313659 C1205.37204,944.448556 1204.3988,944.016005 1203.96625,944.556694 L1203.96625,944.556694 L1197.91053,951.477515 C1197.47798,952.018204 1197.91053,953.099582 1198.77563,954.072822 Z M1184.50144,979.593349 C1188.91887,987.298169 1205.34041,970.11642 1207.06424,968.378983 L1207.15332,968.290162 C1207.18784,968.256396 1207.20714,968.238877 1207.21038,968.238877 L1207.21038,968.238877 L1207.31348,968.136754 C1207.70315,967.750267 1207.99763,967.404053 1207.10225,966.508672 C1206.23714,965.535432 1205.48018,966.400534 1205.04763,966.833086 C1205.04763,966.941223 1193.04433,978.620108 1188.61068,977.971281 C1187.5293,977.430592 1187.42116,975.700387 1188.93509,972.672528 C1191.31412,968.13074 1195.20709,963.480813 1197.58612,961.426194 C1198.12681,960.993643 1197.80239,959.912265 1196.93729,958.939024 C1196.07219,957.965784 1194.99081,957.533233 1194.45012,957.965784 C1191.96295,960.020403 1187.96185,964.886605 1185.58282,969.536531 C1183.74448,973.213217 1182.98751,976.889903 1184.50144,979.593349 Z M1202.56046,983.378173 C1203.74997,984.027 1205.2639,984.243275 1206.77783,983.918862 C1207.64293,983.702586 1208.50804,983.270035 1209.265,982.729346 C1210.02197,982.080519 1210.77893,981.323554 1211.31962,980.350314 C1212.18472,978.511971 1212.50914,976.024801 1211.86031,972.888804 C1210.67079,967.914464 1213.69865,963.264537 1215.96955,960.66923 L1215.96955,960.66923 L1218.56486,958.18206 C1218.99741,957.749508 1218.56486,956.559992 1217.69975,955.69489 C1216.94279,954.721649 1215.86141,954.289098 1215.42886,954.721649 C1215.42886,954.721649 1215.42737,954.722836 1215.42445,954.725198 L1215.38985,954.753393 C1215.18455,954.921905 1214.19128,955.754966 1212.94169,957.100681 L1212.94169,957.100681 L1204.83135,966.941223 C1204.3988,967.373775 1202.12791,969.320256 1202.99301,970.293496 C1203.85811,971.158599 1205.15577,970.509772 1205.58832,970.07722 L1205.58832,970.07722 L1210.02197,964.994743 C1208.00339,968.695459 1208.14357,969.583257 1208.30556,970.456519 L1208.33982,970.644443 C1208.37287,970.834185 1208.3999,971.032438 1208.3999,971.266736 C1208.94059,973.753906 1208.61618,975.700387 1207.85921,977.214317 C1207.5348,977.971281 1206.88597,978.728246 1206.23714,979.160798 C1205.58832,979.701487 1204.83135,980.0259 1204.07439,980.134038 C1203.20928,980.350314 1202.34418,980.350314 1201.91163,980.134038 C1201.69535,980.0259 1203.20928,977.322455 1203.20928,977.214317 C1203.42556,976.673628 1202.99301,975.484112 1202.01977,974.619009 C1201.04653,973.753906 1200.07329,973.537631 1199.74887,974.07832 C1199.74887,974.081093 1199.74667,974.087776 1199.74248,974.09822 L1199.72416,974.140684 C1199.43008,974.799879 1196.7127,980.402996 1202.56046,983.378173 Z M1233.92043,954.072822 C1234.78553,954.937925 1235.86691,955.370476 1236.29946,954.829787 L1236.29946,954.829787 L1242.35518,947.908966 C1242.67959,947.368277 1242.35518,946.286899 1241.49007,945.313659 C1240.51683,944.448556 1239.54359,944.016005 1239.11104,944.556694 L1239.11104,944.556694 L1233.05532,951.477515 C1232.62277,952.018204 1233.05532,953.099582 1233.92043,954.072822 Z M1219.64623,979.593349 C1224.06366,987.298169 1240.4852,970.11642 1242.20903,968.378983 L1242.29811,968.290162 C1242.33263,968.256396 1242.35193,968.238877 1242.35518,968.238877 C1242.78773,967.806326 1243.22028,967.481913 1242.24704,966.508672 C1241.38194,965.535432 1240.62497,966.400534 1240.19242,966.833086 C1240.19242,966.941223 1228.18912,978.620108 1223.75547,977.971281 C1222.67409,977.430592 1222.56595,975.700387 1224.07988,972.672528 C1226.45892,968.13074 1230.35188,963.480813 1232.73091,961.426194 C1233.2716,960.993643 1232.94719,959.912265 1232.08208,958.939024 C1231.21698,957.965784 1230.1356,957.533233 1229.59491,957.965784 C1227.10774,960.020403 1223.10664,964.886605 1220.72761,969.536531 C1218.88927,973.213217 1218.1323,976.889903 1219.64623,979.593349 Z M1234.78553,981.864243 C1240.08428,991.596647 1264.63157,967.373775 1264.73971,967.265637 C1265.17226,966.941223 1265.82108,966.400534 1264.95598,965.427294 C1264.09088,964.454053 1263.44205,964.670329 1263.0095,964.994743 C1263.0095,965.10288 1241.05752,982.621208 1239.11104,978.944522 C1238.15028,977.19768 1240.29352,972.840654 1244.6291,965.588547 L1245.04861,964.889108 C1245.97179,963.354652 1246.98708,961.696539 1248.08648,959.912265 C1248.30276,959.912265 1248.51903,959.695989 1248.51903,959.263438 L1248.51903,959.263438 L1248.51903,959.1553 C1250.68179,955.69489 1252.95268,952.126342 1255.22358,948.665931 L1255.22358,948.665931 L1287.55679,948.665931 C1288.31375,948.665931 1288.42189,947.800829 1287.77306,946.71945 C1287.23237,945.74621 1286.04286,944.881107 1285.28589,944.881107 L1285.28589,944.881107 L1257.71075,944.881107 C1266.1455,932.228982 1274.03956,921.307062 1274.03956,921.198924 C1274.36397,920.766373 1273.93142,919.576856 1273.06632,918.711754 C1272.20122,917.738513 1271.11984,917.522238 1270.79542,917.954789 C1270.68729,918.062927 1261.60371,930.715052 1252.52013,944.881107 L1252.52013,944.881107 L1215.96955,944.881107 C1215.21258,944.881107 1215.10444,945.74621 1215.75327,946.71945 C1216.29396,947.800829 1217.48348,948.665931 1218.24044,948.665931 C1218.24044,948.665931 1219.34777,948.622676 1221.11777,948.619216 L1221.66821,948.619454 C1229.07075,948.640238 1245.87614,949.392617 1245.70745,955.803028 C1245.70745,955.803028 1244.95048,956.992544 1245.05862,956.992544 C1238.1378,968.455153 1233.16346,978.836384 1234.78553,981.864243 Z M1246.89697,953.856547 C1245.16676,951.585652 1239.86801,949.422896 1236.62387,948.125242 L1236.62387,948.125242 L1250.1411,948.665931 C1249.05972,950.396136 1247.97834,952.126342 1246.89697,953.856547 Z" id="Thedentistyou’llactuallywanttovisit"></path>
        </g>
    </g>
</svg>