<svg height="114.364" viewBox="0 0 232 114.364" width="232" xmlns="http://www.w3.org/2000/svg"><path d="m32.226 105.118h-15.039l-.292-67.989c0-3.962-.6-7.076-1.782-9.257a7.22 7.22 0 0 0 -5.346-3.888 47.593 47.593 0 0 0 -6.006-.3 4.843 4.843 0 0 1 -2.821-.684 2.351 2.351 0 0 1 -.94-2.028 2.666 2.666 0 0 1 .684-1.856c.453-.5 2.457-1.563 5.956-3.161l1.327-.6c8.91-4.064 15.495-8.185 19.571-12.247 2.009-2.061 3.669-3.108 4.933-3.108s1.9.945 1.9 2.809a17.723 17.723 0 0 1 -.607 3.571l-.174.695a41.249 41.249 0 0 0 -1.025 5.118l-.077.715c-.121 1.234-.21 2.732-.265 4.453l-.061 1.295c-.153 3.743-.231 9.958-.231 18.473l.292 67.989z" fill="#f05024" transform="translate(11.523)"/><path d="m0 113.337h232v1.028h-232z" fill="#55311b" opacity=".1"/></svg>