<svg xmlns="http://www.w3.org/2000/svg" width="232" height="109.445" viewBox="0 0 232 109.445">
  <g id="_1" data-name="1" transform="translate(0 -0.555)">
    <path id="Combined_Shape" data-name="Combined Shape" d="M90.71,100.445H77.059a53.594,53.594,0,0,0,1.066-10.993c0-10.885-3.154-20.019-9.375-27.149-6.222-7.257-14.633-10.937-25-10.937l-9.277.977c-1.555,0-2.344-.657-2.344-1.953,0-1.232.986-3.335,2.93-6.25l19.726-29.1L51.07,14.9c-6.423-.225-11.649-.343-15.534-.351l-2.859,0c-3.226.01-5.316.042-6.212.095a13.755,13.755,0,0,0-2.734.391A4.641,4.641,0,0,0,20.9,16.7a5.5,5.5,0,0,1-4.3,2.539c-1.555,0-2.344-.92-2.344-2.734a9.3,9.3,0,0,1,1.27-3.418l.5-.916a67.944,67.944,0,0,0,3.455-7.214l.1-.268A12.209,12.209,0,0,1,21.533.83,3.4,3.4,0,0,1,24.024,0L45.9.586,69.824.2c2.268,0,3.418.559,3.418,1.661a16.364,16.364,0,0,1-2.831,5.273L49.316,37.6a51.681,51.681,0,0,1,18.261,3.833,41.352,41.352,0,0,1,14.16,9.937,42.461,42.461,0,0,1,8.716,14.209A50.452,50.452,0,0,1,93.36,83.008a55.714,55.714,0,0,1-2.649,17.437Zm-79.882,0H.263A32.746,32.746,0,0,1,0,96.289,6.248,6.248,0,0,1,2.148,91.5l.537-.46c2.174-1.833,3.7-2.763,4.541-2.763a1.866,1.866,0,0,1,1.855,1.026c.324.678.619,2.765.879,6.2a27.032,27.032,0,0,0,.867,4.936Z" transform="translate(4.883 0.555)" fill="#f05024"/>
    <rect id="line" width="232" height="1" transform="translate(0 109)" fill="#55311b" opacity="0.1"/>
  </g>
</svg>
