<svg xmlns="http://www.w3.org/2000/svg" width="232" height="113.254" viewBox="0 0 232 113.254">
  <g id="_1" data-name="1" transform="translate(0 -0.746)">
    <path id="Combined_Shape" data-name="Combined Shape" d="M67.385,104.254H52.44V88.281h-4.2l-45.41.879C.953,89.16,0,88.372,0,86.817c0-1.231.953-3.006,2.832-5.274l58.2-75.879L61.98,4.5C64.135,1.88,65.443.464,65.869.293A3.359,3.359,0,0,1,66.992,0c1.166,0,1.758.706,1.758,2.1s-.033,2.74-.1,4l-.093,1.7c-.049.856-.1,1.7-.151,2.495l-.342,5.274c-.131,2-.229,4.484-.292,7.373L67.7,25.12c-.208,6.362-.314,14.076-.314,22.927v27.93H80.566c7.129,0,12.813-.821,16.895-2.441a5.583,5.583,0,0,1,1.856-.391c1.426,0,2.148.69,2.148,2.05a5.2,5.2,0,0,1-1.276,2.881l-.189.245a39.633,39.633,0,0,0-4.248,6.4,6.362,6.362,0,0,1-2.2,2.881,9.1,9.1,0,0,1-4.2.683H67.383l0,15.972ZM52.441,28.711,16.992,75.976H52.441Z" transform="translate(4.883 0.746)" fill="#f05024"/>
    <rect id="line" width="232" height="1" transform="translate(0 113)" fill="#55311b" opacity="0.1"/>
  </g>
</svg>
