<svg height="113.254" viewBox="0 0 232 113.254" width="232" xmlns="http://www.w3.org/2000/svg"><path d="m67.385 104.254h-14.945v-15.973h-4.2l-45.41.879c-1.877 0-2.83-.788-2.83-2.343 0-1.231.953-3.006 2.832-5.274l58.2-75.879.948-1.164c2.155-2.62 3.463-4.036 3.889-4.207a3.359 3.359 0 0 1 1.123-.293c1.166 0 1.758.706 1.758 2.1s-.033 2.74-.1 4l-.093 1.7c-.049.856-.1 1.7-.151 2.495l-.342 5.274c-.131 2-.229 4.484-.292 7.373l-.072 2.178c-.208 6.362-.314 14.076-.314 22.927v27.93h13.18c7.129 0 12.813-.821 16.895-2.441a5.583 5.583 0 0 1 1.856-.391c1.426 0 2.148.69 2.148 2.05a5.2 5.2 0 0 1 -1.276 2.881l-.189.245a39.633 39.633 0 0 0 -4.248 6.4 6.362 6.362 0 0 1 -2.2 2.881 9.1 9.1 0 0 1 -4.2.683h-21.969v15.972zm-14.944-75.543-35.449 47.265h35.449z" fill="#f05024" transform="translate(4.883)"/><path d="m0 112.254h232v1h-232z" fill="#55311b" opacity=".1"/></svg>