<svg height="112" viewBox="0 0 232 112" width="232" xmlns="http://www.w3.org/2000/svg"><g fill="none" fill-rule="evenodd" opacity=".5"><path d="m83.59375.28515625c1.7578125 0 1.7578125 0 1.7578125 2.5390625 0 3.90625 0 3.90625-1.3671875 8.39843745-1.3671875 4.4921876-1.3671875 4.4921876-2.6855469 5.1269532-1.3183593.6347656-1.3183593.6347656-4.6386719.6347656l-37.7929687-1.2695312-3.7109375 23.6328124.7668562-.1725038c7.7106364-1.6829649 7.7106364-1.6829649 17.1042376-1.6829649 9.8632812 0 9.8632812 0 19.140625 3.1738281 9.2773437 3.1738282 9.2773437 3.1738282 16.015625 9.1308594 14.2578122 12.5976562 14.2578122 12.5976562 14.2578122 33.59375 0 10.0088632 0 10.0088632-3.6188468 18.60931l-13.5857305.000277c1.8725463-5.8790539 1.8725463-5.8790539 1.8725463-12.8478682 0-16.5039063 0-16.5039063-9.9609375-26.6601563-10.7421875-10.9375-10.7421875-10.9375-28.2226563-10.9375-15.625 0-15.625 0-20.4101562 5.078125-.8789062.8789063-.8789062.8789063-2.0507812.8789063-1.7578126 0-1.7578126 0-1.7578126-2.34375 0-.78125 0-.78125.1464844-1.7578126.1464844-.9765624.1464844-.9765624.3417969-2.34375l6.5429687-42.77343745.0592584-.35075024c.6498109-3.7932715.6498109-3.7932715 1.2102729-4.72737476.9765625-1.85546875.9765625-1.85546875 3.8085937-1.85546875l27.9296876.78125.5443685-.00057785c13.7791741-.02947023 13.7791741-.02947023 17.1314127-1.56192215.5859375-.29296875.5859375-.29296875 1.171875-.29296875z" fill="#f05024"/><path d="m0 110h232v1h-232z" fill="#55311b" opacity=".1"/></g></svg>