<svg height="112" viewBox="0 0 232 112" width="232" xmlns="http://www.w3.org/2000/svg"><g fill="none" fill-rule="evenodd" opacity=".5"><path d="m68.1640625.69921875c7.1289063 0 7.1289063 0 11.8164063 1.31835937 4.6875 1.31835938 4.6875 1.31835938 7.9101562 3.27148438 6.9335938 4.1015625 6.9335938 4.1015625 6.9335938 8.7890625s0 4.6875-4.3945313 7.5195312c-1.0742187.6835938-1.0742187.6835938-1.9042969.6835938-.8300781 0-.8300781 0-1.7089844-.9765625-.8789062-.9765625-.8789062-.9765625-2.0019531-2.3925781s-1.1230469-1.4160156-2.6367187-3.125c-1.5136719-1.7089844-1.5136719-1.7089844-3.6621094-3.0761719-5.2734375-3.41796875-5.2734375-3.41796875-12.8417969-3.41796875-7.5683593 0-7.5683593 0-14.6972656 3.56445315-7.1289063 3.5644531-7.1289063 3.5644531-12.5 10.7910156-11.71875 15.7226563-11.71875 15.7226563-11.71875 44.0429687 0 20.5216165 0 20.5216165 6.116859 35.3086778l-18.1547014-.000728c-5.44262635-13.1340162-5.44262635-13.1340162-5.44262635-29.3509185 0-29.3945313 0-29.3945313 17.48046875-50.9765625 11.2304687-13.8671875 11.2304687-13.8671875 26.5625-19.23828125 7.7148437-2.734375 7.7148437-2.734375 14.84375-2.734375zm.78125 43.35937505c16.8945313 0 16.8945313 0 27.8320313 11.8652343 10.9375002 11.8652344 10.9375002 11.8652344 10.9375002 30.6152344 0 8.8329678 0 8.8329678-2.393514 16.4609255l-14.090776-.000165c.7616335-4.4769303.7616335-4.4769303.7616335-9.624823 0-17.3828125 0-17.3828125-8.203125-27.34375-7.421875-9.1796875-7.421875-9.1796875-19.4335937-9.1796875-13.7695313 0-13.7695313 0-21.09375 14.2578125-2.2460938 4.296875-2.2460938 4.296875-3.0761719 7.7636719s-.8300781 3.4667969-1.5625 4.1992187c-.7324219.7324219-.7324219.7324219-1.7089844.7324219-2.734375 0-2.734375 0-2.734375-5.46875s0-5.46875 2.8808594-11.6699219c2.8808593-6.2011718 2.8808593-6.2011718 7.6660156-11.1816406 10.9375-11.4257812 10.9375-11.4257812 24.21875-11.4257812z" fill="#f05024"/><path d="m0 111h232v1h-232z" fill="#55311b" opacity=".1"/></g></svg>