<?xml version="1.0" encoding="UTF-8"?>
<svg width="466px" height="100px" viewBox="0 0 466 100" version="1.1" xmlns="http://www.w3.org/2000/svg" xmlns:xlink="http://www.w3.org/1999/xlink">
    <title>Group 13</title>
    <g id="Design" stroke="none" stroke-width="1" fill="none" fill-rule="evenodd">
        <g id="Health---Invisalign" transform="translate(-733.000000, -374.000000)" fill="#55311B" fill-rule="nonzero">
            <g id="Group-15" transform="translate(-3.000000, 0.000000)">
                <g id="Group-19" transform="translate(470.000000, 374.880000)">
                    <g id="Group-13" transform="translate(266.372000, 0.000000)">
                        <path d="M31.416,76.12 L31.416,72.6 C29.4213333,72.5413333 27.8226667,72.3506667 26.62,72.028 C25.4173333,71.7053333 24.4786667,71.104 23.804,70.224 C23.1293333,69.344 22.6893333,68.0973333 22.484,66.484 C22.2786667,64.8706667 22.176,62.6853333 22.176,59.928 L22.176,59.928 L22.176,24.552 C22.176,22.088 22.2786667,20.0493333 22.484,18.436 C22.6893333,16.8226667 23.0853333,15.5466667 23.672,14.608 C24.2586667,13.6693333 25.0946667,13.0093333 26.18,12.628 C27.2653333,12.2466667 28.7173333,11.9973333 30.536,11.88 L30.536,11.88 L30.536,8.36 L0.88,8.36 L0.88,11.88 C2.69866667,11.9973333 4.15066667,12.2466667 5.236,12.628 C6.32133333,13.0093333 7.15733333,13.6693333 7.744,14.608 C8.33066667,15.5466667 8.72666667,16.8226667 8.932,18.436 C9.13733333,20.0493333 9.24,22.088 9.24,24.552 L9.24,24.552 L9.24,59.928 C9.24,62.6853333 9.12266667,64.8706667 8.888,66.484 C8.65333333,68.0973333 8.21333333,69.344 7.568,70.224 C6.92266667,71.104 5.99866667,71.7053333 4.796,72.028 C3.59333333,72.3506667 1.99466667,72.5413333 0,72.6 L0,72.6 L0,76.12 L31.416,76.12 Z M64.856,76.12 L64.856,72.6 C63.096,72.4826667 61.7026667,72.3066667 60.676,72.072 C59.6493333,71.8373333 58.8866667,71.3533333 58.388,70.62 C57.8893333,69.8866667 57.5666667,68.8306667 57.42,67.452 C57.2733333,66.0733333 57.2,64.1813333 57.2,61.776 L57.2,49.632 C57.2,47.8133333 57.3906667,46.068 57.772,44.396 C58.1533333,42.724 58.608,41.36 59.136,40.304 C60.1333333,38.4266667 61.3066667,36.96 62.656,35.904 C64.0053333,34.848 65.6186667,34.32 67.496,34.32 C69.432,34.32 71.0453333,34.5986667 72.336,35.156 C73.6266667,35.7133333 74.668,36.6226667 75.46,37.884 C76.252,39.1453333 76.824,40.8026667 77.176,42.856 C77.528,44.9093333 77.704,47.432 77.704,50.424 L77.704,50.424 L77.704,62.392 C77.704,64.5626667 77.616,66.308 77.44,67.628 C77.264,68.948 76.912,69.96 76.384,70.664 C75.856,71.368 75.0786667,71.852 74.052,72.116 C73.0253333,72.38 71.632,72.5413333 69.872,72.6 L69.872,72.6 L69.872,76.12 L97.416,76.12 L97.416,72.6 C95.7146667,72.4826667 94.3653333,72.3066667 93.368,72.072 C92.3706667,71.8373333 91.6226667,71.3533333 91.124,70.62 C90.6253333,69.8866667 90.3026667,68.8306667 90.156,67.452 C90.0093333,66.0733333 89.936,64.1813333 89.936,61.776 L89.936,49.368 C89.936,45.6133333 89.5546667,42.6653333 88.792,40.524 C88.0293333,38.3826667 87.1493333,36.6373333 86.152,35.288 C84.3333333,32.8826667 82.2653333,31.1666667 79.948,30.14 C77.6306667,29.1133333 74.5946667,28.6 70.84,28.6 C67.672,28.6 64.768,29.2746667 62.128,30.624 C59.488,31.9733333 57.2,33.88 55.264,36.344 L55.264,36.344 L54.912,36.344 L53.768,28.6 L36.784,31.944 L36.784,34.936 C38.1333333,34.936 39.248,34.98 40.128,35.068 C41.008,35.156 41.7413333,35.332 42.328,35.596 C42.9146667,35.86 43.3546667,36.2413333 43.648,36.74 C43.9413333,37.2386667 44.176,37.8693333 44.352,38.632 C44.528,39.3946667 44.6746667,40.8466667 44.792,42.988 C44.9093333,45.1293333 44.968,47.9306667 44.968,51.392 L44.968,51.392 L44.968,62.392 C44.968,64.6213333 44.88,66.3813333 44.704,67.672 C44.528,68.9626667 44.1613333,69.96 43.604,70.664 C43.0466667,71.368 42.2546667,71.8373333 41.228,72.072 C40.2013333,72.3066667 38.8373333,72.4826667 37.136,72.6 L37.136,72.6 L37.136,76.12 L64.856,76.12 Z M129.36,77 L145.816,39.688 C147.048,36.872 148.236,35.0533333 149.38,34.232 C150.524,33.4106667 151.888,33 153.472,33 L153.472,33 L153.472,29.48 L134.024,29.48 L134.024,33 C136.253333,33.0586667 137.808,33.3813333 138.688,33.968 C139.568,34.5546667 140.008,35.4933333 140.008,36.784 C140.008,37.4293333 139.890667,38.148 139.656,38.94 C139.421333,39.732 139.098667,40.6266667 138.688,41.624 L138.688,41.624 L129.272,64.592 L128.92,64.592 L120.56,41.536 C120.149333,40.5386667 119.797333,39.5413333 119.504,38.544 C119.210667,37.5466667 119.064,36.6666667 119.064,35.904 C119.064,35.4346667 119.122667,35.0093333 119.24,34.628 C119.357333,34.2466667 119.636,33.9386667 120.076,33.704 C120.516,33.4693333 121.161333,33.2933333 122.012,33.176 C122.862667,33.0586667 124.021333,33 125.488,33 L125.488,33 L125.488,29.48 L99.176,29.48 L99.176,33 C100.173333,33 101.038667,33.088 101.772,33.264 C102.505333,33.44 103.18,33.8066667 103.796,34.364 C104.412,34.9213333 105.013333,35.7133333 105.6,36.74 C106.186667,37.7666667 106.802667,39.1306667 107.448,40.832 L107.448,40.832 L121.352,77 L129.36,77 Z M169.928,16.72 C171.864,16.72 173.492,16.06 174.812,14.74 C176.132,13.42 176.792,11.8213333 176.792,9.944 C176.792,8.008 176.132,6.38 174.812,5.06 C173.492,3.74 171.864,3.08 169.928,3.08 C168.050667,3.08 166.452,3.74 165.132,5.06 C163.812,6.38 163.152,8.008 163.152,9.944 C163.152,11.8213333 163.812,13.42 165.132,14.74 C166.452,16.06 168.050667,16.72 169.928,16.72 Z M183.744,76.12 L183.744,72.6 C182.042667,72.5413333 180.693333,72.38 179.696,72.116 C178.698667,71.852 177.936,71.3386667 177.408,70.576 C176.88,69.8133333 176.528,68.728 176.352,67.32 C176.176,65.912 176.088,64.0346667 176.088,61.688 L176.088,61.688 L176.088,28.6 L155.672,31.944 L155.672,34.936 C158.370667,34.936 160.233333,35.1706667 161.26,35.64 C162.286667,36.1093333 162.946667,37.0773333 163.24,38.544 C163.416,39.3653333 163.562667,40.876 163.68,43.076 C163.797333,45.276 163.856,48.0773333 163.856,51.48 L163.856,51.48 L163.856,62.304 C163.856,64.3573333 163.753333,66.044 163.548,67.364 C163.342667,68.684 162.961333,69.7106667 162.404,70.444 C161.846667,71.1773333 161.054667,71.7053333 160.028,72.028 C159.001333,72.3506667 157.666667,72.5413333 156.024,72.6 L156.024,72.6 L156.024,76.12 L183.744,76.12 Z M207.064,77 C209.469333,77 211.654667,76.6773333 213.62,76.032 C215.585333,75.3866667 217.272,74.4773333 218.68,73.304 C220.088,72.1306667 221.173333,70.7226667 221.936,69.08 C222.698667,67.4373333 223.08,65.5893333 223.08,63.536 C223.08,61.952 222.830667,60.4706667 222.332,59.092 C221.833333,57.7133333 221.056,56.3933333 220,55.132 C218.944,53.8706667 217.565333,52.624 215.864,51.392 C214.162667,50.16 212.138667,48.8986667 209.792,47.608 C206.448,45.848 204.057333,44.2346667 202.62,42.768 C201.182667,41.3013333 200.464,39.7466667 200.464,38.104 C200.464,36.6373333 200.948,35.464 201.916,34.584 C202.884,33.704 204.189333,33.264 205.832,33.264 C207.885333,33.264 209.630667,33.9973333 211.068,35.464 C212.505333,36.9306667 213.898667,39.336 215.248,42.68 L215.248,42.68 L218.68,42.68 L218.68,29.392 L216.392,29.392 L214.808,31.504 C213.458667,30.5653333 211.889333,29.832 210.1,29.304 C208.310667,28.776 206.506667,28.512 204.688,28.512 C202.634667,28.512 200.728,28.8493333 198.968,29.524 C197.208,30.1986667 195.697333,31.152 194.436,32.384 C193.174667,33.616 192.177333,35.068 191.444,36.74 C190.710667,38.412 190.344,40.216 190.344,42.152 C190.344,45.144 191.312,47.828 193.248,50.204 C195.184,52.58 198.381333,54.9706667 202.84,57.376 C206.125333,59.136 208.501333,60.7933333 209.968,62.348 C211.434667,63.9026667 212.168,65.5013333 212.168,67.144 C212.168,68.728 211.566667,69.9746667 210.364,70.884 C209.161333,71.7933333 207.474667,72.248 205.304,72.248 C202.312,72.248 199.877333,71.28 198,69.344 C196.122667,67.408 194.685333,64.328 193.688,60.104 L193.688,60.104 L189.992,60.104 L189.992,76.12 L192.72,76.12 L194.656,73.04 C196.064,74.3306667 197.853333,75.3133333 200.024,75.988 C202.194667,76.6626667 204.541333,77 207.064,77 Z M266.024,77 C268.194667,77 270.145333,76.5746667 271.876,75.724 C273.606667,74.8733333 274.882667,73.7146667 275.704,72.248 L275.704,72.248 L274.384,69.696 C273.445333,70.4586667 272.418667,70.84 271.304,70.84 C269.309333,70.84 268.312,68.3466667 268.312,63.36 L268.312,63.36 L268.312,44.088 C268.312,38.5146667 266.904,34.54 264.088,32.164 C261.272,29.788 256.578667,28.6 250.008,28.6 C243.789333,28.6 239.14,29.4213333 236.06,31.064 C232.98,32.7066667 231.44,34.936 231.44,37.752 C231.44,39.5706667 231.88,40.9786667 232.76,41.976 C233.64,42.9733333 234.901333,43.472 236.544,43.472 C238.245333,43.472 239.58,43.0613333 240.548,42.24 C241.516,41.4186667 242.264,40.2746667 242.792,38.808 C243.554667,36.696 244.376,35.1853333 245.256,34.276 C246.136,33.3666667 247.426667,32.912 249.128,32.912 C251.650667,32.912 253.513333,33.6893333 254.716,35.244 C255.918667,36.7986667 256.52,39.2773333 256.52,42.68 L256.52,42.68 L256.52,46.376 L244.112,51.744 C238.773333,53.9146667 234.96,56.1293333 232.672,58.388 C230.384,60.6466667 229.24,63.0666667 229.24,65.648 C229.24,68.992 230.354667,71.7053333 232.584,73.788 C234.813333,75.8706667 237.776,76.912 241.472,76.912 C244.933333,76.912 248.013333,76.12 250.712,74.536 C253.410667,72.952 255.610667,70.6346667 257.312,67.584 L257.312,67.584 L257.752,67.584 C257.752,70.576 258.456,72.8933333 259.864,74.536 C261.272,76.1786667 263.325333,77 266.024,77 Z M246.576,68.728 C245.168,68.728 243.994667,68.2293333 243.056,67.232 C242.117333,66.2346667 241.648,64.8853333 241.648,63.184 C241.648,61.1306667 242.894667,59.1506667 245.388,57.244 C247.881333,55.3373333 251.592,53.2693333 256.52,51.04 L256.52,51.04 L256.52,59.4 C256.52,60.6906667 256.270667,61.908 255.772,63.052 C255.273333,64.196 254.584,65.1786667 253.704,66 C252.824,66.8213333 251.768,67.4813333 250.536,67.98 C249.304,68.4786667 247.984,68.728 246.576,68.728 Z M306.152,76.12 L306.152,72.6 C304.450667,72.5413333 303.101333,72.38 302.104,72.116 C301.106667,71.852 300.344,71.3386667 299.816,70.576 C299.288,69.8133333 298.936,68.728 298.76,67.32 C298.584,65.912 298.496,64.0346667 298.496,61.688 L298.496,61.688 L298.496,3.08 L278.08,6.424 L278.08,9.416 C280.778667,9.416 282.641333,9.65066667 283.668,10.12 C284.694667,10.5893333 285.354667,11.5573333 285.648,13.024 C285.824,13.8453333 285.970667,15.356 286.088,17.556 C286.205333,19.756 286.264,22.5573333 286.264,25.96 L286.264,25.96 L286.264,62.304 C286.264,64.3573333 286.161333,66.044 285.956,67.364 C285.750667,68.684 285.369333,69.7106667 284.812,70.444 C284.254667,71.1773333 283.462667,71.7053333 282.436,72.028 C281.409333,72.3506667 280.074667,72.5413333 278.432,72.6 L278.432,72.6 L278.432,76.12 L306.152,76.12 Z M324.456,16.72 C326.392,16.72 328.02,16.06 329.34,14.74 C330.66,13.42 331.32,11.8213333 331.32,9.944 C331.32,8.008 330.66,6.38 329.34,5.06 C328.02,3.74 326.392,3.08 324.456,3.08 C322.578667,3.08 320.98,3.74 319.66,5.06 C318.34,6.38 317.68,8.008 317.68,9.944 C317.68,11.8213333 318.34,13.42 319.66,14.74 C320.98,16.06 322.578667,16.72 324.456,16.72 Z M338.272,76.12 L338.272,72.6 C336.570667,72.5413333 335.221333,72.38 334.224,72.116 C333.226667,71.852 332.464,71.3386667 331.936,70.576 C331.408,69.8133333 331.056,68.728 330.88,67.32 C330.704,65.912 330.616,64.0346667 330.616,61.688 L330.616,61.688 L330.616,28.6 L310.2,31.944 L310.2,34.936 C312.898667,34.936 314.761333,35.1706667 315.788,35.64 C316.814667,36.1093333 317.474667,37.0773333 317.768,38.544 C317.944,39.3653333 318.090667,40.876 318.208,43.076 C318.325333,45.276 318.384,48.0773333 318.384,51.48 L318.384,51.48 L318.384,62.304 C318.384,64.3573333 318.281333,66.044 318.076,67.364 C317.870667,68.684 317.489333,69.7106667 316.932,70.444 C316.374667,71.1773333 315.582667,71.7053333 314.556,72.028 C313.529333,72.3506667 312.194667,72.5413333 310.552,72.6 L310.552,72.6 L310.552,76.12 L338.272,76.12 Z M364.584,99 C372.562667,99 378.605333,97.7093333 382.712,95.128 C386.818667,92.5466667 388.872,88.7626667 388.872,83.776 C388.872,79.6693333 387.566667,76.2226667 384.956,73.436 C382.345333,70.6493333 378.752,68.9333333 374.176,68.288 C372.944,68.112 371.785333,67.9506667 370.7,67.804 L370.7,67.804 L367.444,67.364 C366.358667,67.2173333 365.214667,67.0853333 364.012,66.968 C362.809333,66.8506667 361.416,66.7333333 359.832,66.616 C357.192,66.3813333 355.872,65.56 355.872,64.152 C355.872,63.2133333 356.414667,62.5093333 357.5,62.04 C358.585333,61.5706667 360.536,61.1893333 363.352,60.896 C366.696,60.544 369.541333,59.8693333 371.888,58.872 C374.234667,57.8746667 376.156,56.6573333 377.652,55.22 C379.148,53.7826667 380.248,52.1253333 380.952,50.248 C381.656,48.3706667 382.008,46.3173333 382.008,44.088 C382.008,42.5626667 381.890667,41.228 381.656,40.084 C381.421333,38.94 381.010667,37.8693333 380.424,36.872 C381.538667,35.288 382.712,34.496 383.944,34.496 C384.824,34.496 385.528,34.6866667 386.056,35.068 C386.584,35.4493333 387.097333,35.8893333 387.596,36.388 C388.094667,36.8866667 388.608,37.3266667 389.136,37.708 C389.664,38.0893333 390.368,38.28 391.248,38.28 C392.48,38.28 393.477333,37.884 394.24,37.092 C395.002667,36.3 395.384,35.288 395.384,34.056 C395.384,32.4133333 394.694667,31.0933333 393.316,30.096 C391.937333,29.0986667 390.133333,28.6 387.904,28.6 C387.2,28.6 386.496,28.6733333 385.792,28.82 C385.088,28.9666667 384.310667,29.2013333 383.46,29.524 C382.609333,29.8466667 381.685333,30.2866667 380.688,30.844 C379.690667,31.4013333 378.517333,32.0906667 377.168,32.912 C375.466667,31.5626667 373.413333,30.5066667 371.008,29.744 C368.602667,28.9813333 366.138667,28.6 363.616,28.6 C361.034667,28.6 358.644,28.996 356.444,29.788 C354.244,30.58 352.337333,31.6506667 350.724,33 C349.110667,34.3493333 347.849333,35.9773333 346.94,37.884 C346.030667,39.7906667 345.576,41.8293333 345.576,44 C345.576,45.5253333 345.796,47.0066667 346.236,48.444 C346.676,49.8813333 347.306667,51.216 348.128,52.448 C348.949333,53.68 349.902667,54.7653333 350.988,55.704 C352.073333,56.6426667 353.290667,57.376 354.64,57.904 L354.64,57.904 L354.64,58.256 C351.765333,58.8426667 349.550667,59.8986667 347.996,61.424 C346.441333,62.9493333 345.664,64.9146667 345.664,67.32 C345.664,72.248 348.92,75.152 355.432,76.032 L355.432,76.032 L370.832,78.144 C373.296,78.4373333 375.188,79.3026667 376.508,80.74 C377.828,82.1773333 378.488,83.8933333 378.488,85.888 C378.488,91.4613333 374.088,94.248 365.288,94.248 C361.24,94.248 358.174667,93.6173333 356.092,92.356 C354.009333,91.0946667 352.968,89.2906667 352.968,86.944 C352.968,85.4773333 353.452,84.2013333 354.42,83.116 C355.388,82.0306667 356.634667,81.3413333 358.16,81.048 C357.162667,79.8746667 355.945333,78.98 354.508,78.364 C353.070667,77.748 351.589333,77.44 350.064,77.44 C347.658667,77.44 345.664,78.2173333 344.08,79.772 C342.496,81.3266667 341.704,83.6293333 341.704,86.68 C341.704,90.6106667 343.684,93.6466667 347.644,95.788 C351.604,97.9293333 357.250667,99 364.584,99 Z M364.056,55.88 C362.061333,55.88 360.462667,54.8386667 359.26,52.756 C358.057333,50.6733333 357.456,47.872 357.456,44.352 C357.456,40.8906667 358.042667,38.1626667 359.216,36.168 C360.389333,34.1733333 361.973333,33.176 363.968,33.176 C365.904,33.176 367.4,34.1586667 368.456,36.124 C369.512,38.0893333 370.04,40.8906667 370.04,44.528 C370.04,48.1066667 369.512,50.8933333 368.456,52.888 C367.4,54.8826667 365.933333,55.88 364.056,55.88 Z M423.72,76.12 L423.72,72.6 C421.96,72.4826667 420.566667,72.3066667 419.54,72.072 C418.513333,71.8373333 417.750667,71.3533333 417.252,70.62 C416.753333,69.8866667 416.430667,68.8306667 416.284,67.452 C416.137333,66.0733333 416.064,64.1813333 416.064,61.776 L416.064,61.776 L416.064,49.632 C416.064,47.8133333 416.254667,46.068 416.636,44.396 C417.017333,42.724 417.472,41.36 418,40.304 C418.997333,38.4266667 420.170667,36.96 421.52,35.904 C422.869333,34.848 424.482667,34.32 426.36,34.32 C428.296,34.32 429.909333,34.5986667 431.2,35.156 C432.490667,35.7133333 433.532,36.6226667 434.324,37.884 C435.116,39.1453333 435.688,40.8026667 436.04,42.856 C436.392,44.9093333 436.568,47.432 436.568,50.424 L436.568,50.424 L436.568,62.392 C436.568,64.5626667 436.48,66.308 436.304,67.628 C436.128,68.948 435.776,69.96 435.248,70.664 C434.72,71.368 433.942667,71.852 432.916,72.116 C431.889333,72.38 430.496,72.5413333 428.736,72.6 L428.736,72.6 L428.736,76.12 L456.28,76.12 L456.28,72.6 C454.578667,72.4826667 453.229333,72.3066667 452.232,72.072 C451.234667,71.8373333 450.486667,71.3533333 449.988,70.62 C449.489333,69.8866667 449.166667,68.8306667 449.02,67.452 C448.873333,66.0733333 448.8,64.1813333 448.8,61.776 L448.8,61.776 L448.8,49.368 C448.8,45.6133333 448.418667,42.6653333 447.656,40.524 C446.893333,38.3826667 446.013333,36.6373333 445.016,35.288 C443.197333,32.8826667 441.129333,31.1666667 438.812,30.14 C436.494667,29.1133333 433.458667,28.6 429.704,28.6 C426.536,28.6 423.632,29.2746667 420.992,30.624 C418.352,31.9733333 416.064,33.88 414.128,36.344 L414.128,36.344 L413.776,36.344 L412.632,28.6 L395.648,31.944 L395.648,34.936 C396.997333,34.936 398.112,34.98 398.992,35.068 C399.872,35.156 400.605333,35.332 401.192,35.596 C401.778667,35.86 402.218667,36.2413333 402.512,36.74 C402.805333,37.2386667 403.04,37.8693333 403.216,38.632 C403.392,39.3946667 403.538667,40.8466667 403.656,42.988 C403.773333,45.1293333 403.832,47.9306667 403.832,51.392 L403.832,51.392 L403.832,62.392 C403.832,64.6213333 403.744,66.3813333 403.568,67.672 C403.392,68.9626667 403.025333,69.96 402.468,70.664 C401.910667,71.368 401.118667,71.8373333 400.092,72.072 C399.065333,72.3066667 397.701333,72.4826667 396,72.6 L396,72.6 L396,76.12 L423.72,76.12 Z" id="Invisalign"></path>
                        <path d="M452.961444,23.3497537 C454.636321,23.3497537 456.202823,23.044335 457.660951,22.4334975 C459.119079,21.8226601 460.394941,20.9901478 461.488537,19.9359606 C462.582133,18.8817734 463.444202,17.6453202 464.074744,16.226601 C464.705286,14.8078818 465.020557,13.2807882 465.020557,11.6453202 C465.020557,10.0295567 464.705286,8.51231527 464.074744,7.09359606 C463.444202,5.67487685 462.582133,4.44334975 461.488537,3.39901478 C460.394941,2.3546798 459.114153,1.5270936 457.646173,0.916256158 C456.178192,0.305418719 454.606764,0 452.931887,0 C451.276715,0 449.72499,0.305418719 448.276715,0.916256158 C446.828439,1.5270936 445.567355,2.36453202 444.493463,3.42857143 C443.419572,4.49261084 442.572281,5.73399015 441.951591,7.15270936 C441.330902,8.57142857 441.020557,10.0788177 441.020557,11.6748768 C441.020557,13.270936 441.330902,14.7783251 441.951591,16.1970443 C442.572281,17.6157635 443.424498,18.8571429 444.508242,19.9211823 C445.591986,20.9852217 446.857995,21.8226601 448.306271,22.4334975 C449.754547,23.044335 451.306271,23.3497537 452.961444,23.3497537 Z M452.961444,21.635468 C451.542724,21.635468 450.212675,21.3743842 448.971296,20.8522167 C447.729917,20.3300493 446.651099,19.6157635 445.734843,18.7093596 C444.818587,17.8029557 444.099375,16.7438424 443.577207,15.5320197 C443.05504,14.320197 442.793956,13.0344828 442.793956,11.6748768 C442.793956,10.3152709 443.05504,9.02955665 443.577207,7.81773399 C444.099375,6.60591133 444.818587,5.54679803 445.734843,4.64039409 C446.651099,3.73399015 447.72499,3.01970443 448.956518,2.49753695 C450.188045,1.97536946 451.513168,1.71428571 452.931887,1.71428571 C454.350606,1.71428571 455.685582,1.97044335 456.936813,2.48275862 C458.188045,2.99507389 459.281641,3.69950739 460.217601,4.59605911 C461.153562,5.49261084 461.892478,6.54679803 462.43435,7.75862069 C462.976222,8.97044335 463.247158,10.2660099 463.247158,11.6453202 C463.247158,13.0246305 462.976222,14.320197 462.43435,15.5320197 C461.892478,16.7438424 461.153562,17.8029557 460.217601,18.7093596 C459.281641,19.6157635 458.192971,20.3300493 456.951591,20.8522167 C455.710212,21.3743842 454.380163,21.635468 452.961444,21.635468 Z M452.931887,17.6453202 L452.931887,16.8472906 C452.458981,16.8472906 452.084596,16.8226601 451.808734,16.773399 C451.532872,16.7241379 451.32105,16.6256158 451.173266,16.4778325 C451.025483,16.3300493 450.931887,16.1280788 450.892478,15.8719212 C450.853069,15.6157635 450.833365,15.2906404 450.833365,14.8965517 L450.833365,14.8965517 L450.833365,11.7339901 C451.069818,11.7339901 451.291493,11.7931034 451.498389,11.91133 C451.705286,12.0295567 451.956518,12.2561576 452.252084,12.591133 L452.252084,12.591133 L456.537798,17.6453202 L460.202823,17.6453202 L460.202823,16.8472906 C459.729917,16.7684729 459.335828,16.6453202 459.020557,16.4778325 C458.705286,16.3103448 458.399867,16.0591133 458.104301,15.7241379 L458.104301,15.7241379 L454.261936,11.4384236 C455.542724,11.2610837 456.468833,10.8768473 457.040261,10.2857143 C457.61169,9.69458128 457.897404,8.95566502 457.897404,8.06896552 C457.897404,7.06403941 457.419572,6.28078818 456.463907,5.71921182 C455.508242,5.15763547 454.153562,4.87684729 452.399867,4.87684729 L452.399867,4.87684729 L446.961444,4.87684729 L446.961444,5.7635468 C447.237306,5.78325123 447.458981,5.81773399 447.626468,5.86699507 C447.793956,5.91625616 447.922035,6.00985222 448.010705,6.14778325 C448.099375,6.28571429 448.158488,6.4729064 448.188045,6.70935961 C448.217601,6.94581281 448.23238,7.25123153 448.23238,7.62561576 L448.23238,7.62561576 L448.23238,14.9852217 C448.23238,15.7339901 448.14371,16.226601 447.96637,16.4630542 C447.78903,16.6995074 447.394941,16.8275862 446.784104,16.8472906 L446.784104,16.8472906 L446.784104,17.6453202 L452.931887,17.6453202 Z M451.926961,10.7586207 L450.833365,10.7586207 L450.833365,6.1773399 C450.833365,6 450.931887,5.91133005 451.128931,5.91133005 L451.128931,5.91133005 L452.399867,5.91133005 C453.286567,5.91133005 453.922035,6.07881773 454.306271,6.4137931 C454.690508,6.74876847 454.882626,7.33004926 454.882626,8.15763547 C454.882626,9.08374384 454.641247,9.74876847 454.158488,10.1527094 C453.675729,10.5566502 452.931887,10.7586207 451.926961,10.7586207 L451.926961,10.7586207 Z" id="®"></path>
                    </g>
                </g>
            </g>
        </g>
    </g>
</svg>