<?xml version="1.0" encoding="UTF-8"?>
<svg width="276px" height="86px" viewBox="0 0 276 86" version="1.1" xmlns="http://www.w3.org/2000/svg" xmlns:xlink="http://www.w3.org/1999/xlink">
    <title>Invis_express</title>
    <defs>
        <polygon id="path-1" points="0 0 66.0073414 0 66.0073414 66 0 66"></polygon>
    </defs>
    <g id="Design" stroke="none" stroke-width="1" fill="none" fill-rule="evenodd">
        <g id="Health---Invisalign" transform="translate(-381.000000, -11954.000000)">
            <g id="Invis_express" transform="translate(381.000000, 11954.000000)">
                <path d="M204.834803,81 L204.834803,79.0107422 L197.257166,79.0107422 L197.257166,74.2836914 L203.788905,74.2836914 L203.788905,72.2841797 L197.257166,72.2841797 L197.257166,68.0698242 L204.763026,68.0698242 L204.763026,66.0703125 L194.765467,66.0703125 L194.765467,81 L204.834803,81 Z M207.995448,81 L210.138514,77.1035156 L212.28158,81 L215.111658,81 L211.522791,75.3911133 L215.009119,69.9052734 L212.14828,69.9052734 L210.097498,73.7094727 L208.077479,69.9052734 L205.247401,69.9052734 L208.733729,75.3911133 L205.144862,81 L207.995448,81 Z M218.754237,85.265625 L218.754237,79.9233398 L218.784998,79.9130859 C219.126795,80.34375 219.533533,80.666748 220.005213,80.8820801 C220.476893,81.0974121 221.034022,81.2050781 221.6766,81.2050781 C223.057459,81.2050781 224.120448,80.7197266 224.865565,79.7490234 C225.610682,78.7783203 225.983241,77.4692383 225.983241,75.8217773 L225.983241,75.8217773 L225.983241,75.6064453 C225.983241,73.8017578 225.608973,72.3662109 224.860438,71.2998047 C224.111903,70.2333984 223.040369,69.7001953 221.645838,69.7001953 C220.982752,69.7001953 220.406825,69.8300781 219.918055,70.0898438 C219.429285,70.3496094 219.007166,70.7324219 218.651698,71.2382813 L218.651698,71.2382813 L218.487635,69.9052734 L216.262537,69.9052734 L216.262537,85.265625 L218.754237,85.265625 Z M220.96908,79.2158203 C220.422205,79.2158203 219.971033,79.1149902 219.615565,78.9133301 C219.260096,78.7116699 218.972987,78.4125977 218.754237,78.0161133 L218.754237,78.0161133 L218.754237,73.0019531 C218.972987,72.5986328 219.261805,72.2875977 219.620692,72.0688477 C219.979578,71.8500977 220.422205,71.7407227 220.948573,71.7407227 C221.816737,71.7407227 222.459315,72.0961914 222.876307,72.8071289 C223.293299,73.5180664 223.501795,74.4511719 223.501795,75.6064453 L223.501795,75.6064453 L223.501795,75.8217773 C223.501795,76.8608398 223.296717,77.6862793 222.886561,78.2980957 C222.476405,78.9099121 221.837244,79.2158203 220.96908,79.2158203 Z M230.148768,81 L230.148768,73.2993164 C230.326502,72.9233398 230.576014,72.6362305 230.897303,72.4379883 C231.218592,72.2397461 231.62533,72.140625 232.117518,72.140625 L232.117518,72.140625 L233.296717,72.1816406 L233.59408,69.8232422 C233.491541,69.7890625 233.358241,69.7600098 233.194178,69.736084 C233.030116,69.7121582 232.866053,69.7001953 232.701991,69.7001953 C232.120936,69.7001953 231.615076,69.8557129 231.184412,70.166748 C230.753748,70.4777832 230.39828,70.9101563 230.118006,71.4638672 L230.118006,71.4638672 L230.087244,71.4638672 L229.933436,69.9052734 L227.657069,69.9052734 L227.657069,81 L230.148768,81 Z M239.205408,81.2050781 C240.121424,81.2050781 240.910975,81.0905762 241.574061,80.8615723 C242.237147,80.6325684 242.777186,80.3369141 243.194178,79.9746094 L243.194178,79.9746094 L242.466151,78.2724609 C242.014979,78.5800781 241.555262,78.814209 241.087,78.9748535 C240.618739,79.135498 240.042811,79.2158203 239.359217,79.2158203 C238.497889,79.2158203 237.833094,78.9389648 237.364832,78.3852539 C236.896571,77.831543 236.62826,77.0932617 236.559901,76.1704102 L236.559901,76.1704102 L243.553065,76.1704102 L243.553065,74.7041016 C243.553065,73.1523438 243.163416,71.9304199 242.384119,71.0383301 C241.604823,70.1462402 240.449549,69.7001287 238.918299,69.7001287 C237.496424,69.6933594 236.329188,70.2128906 235.41659,71.2587891 C234.503992,72.3046875 234.047694,73.6513672 234.047694,75.2988281 L234.047694,75.2988281 L234.047694,75.7089844 C234.047694,77.3496094 234.50741,78.6757813 235.426844,79.6875 C236.346278,80.6992188 237.605799,81.2050781 239.205408,81.2050781 Z M241.081873,74.3452148 L236.61117,74.3452148 C236.734217,73.5454102 236.993983,72.904541 237.390467,72.4226074 C237.786951,71.9406738 238.296229,71.699707 238.918299,71.699707 C239.65658,71.699707 240.201746,71.918457 240.553797,72.355957 C240.905848,72.793457 241.081873,73.3710938 241.081873,74.0888672 L241.081873,74.0888672 L241.081873,74.3452148 Z M249.256678,81.2050781 C250.630701,81.2050781 251.722742,80.9008789 252.532801,80.2924805 C253.34286,79.684082 253.747889,78.8706055 253.747889,77.8520508 C253.747889,76.9291992 253.418055,76.2131348 252.758387,75.7038574 C252.098719,75.1945801 251.057948,74.7929688 249.636073,74.4990234 C248.706385,74.3144531 248.097987,74.111084 247.810877,73.888916 C247.523768,73.666748 247.380213,73.3574219 247.380213,72.9609375 C247.380213,72.5644531 247.534022,72.2329102 247.841639,71.9663086 C248.149256,71.699707 248.610682,71.5664063 249.225916,71.5664063 C249.847987,71.5664063 250.32992,71.7287598 250.671717,72.0534668 C251.013514,72.3781738 251.184412,72.7729492 251.184412,73.237793 L251.184412,73.237793 L253.665858,73.237793 C253.665858,72.1987305 253.271082,71.3493652 252.481532,70.6896973 C251.691981,70.0300293 250.606776,69.7001953 249.225916,69.7001953 C247.920252,69.7001953 246.879481,70.0231934 246.103602,70.6691895 C245.327723,71.3151855 244.939783,72.1132813 244.939783,73.0634766 C244.939783,73.9658203 245.273035,74.6699219 245.939539,75.1757813 C246.606043,75.6816406 247.616053,76.078125 248.969569,76.3652344 C249.885584,76.5634766 250.502528,76.7856445 250.820399,77.0317383 C251.13827,77.277832 251.297205,77.5957031 251.297205,77.9853516 C251.297205,78.4091797 251.126307,78.7407227 250.78451,78.9799805 C250.442713,79.2192383 249.94369,79.3388672 249.28744,79.3388672 C248.644862,79.3388672 248.108241,79.1970215 247.677576,78.9133301 C247.246912,78.6296387 247.017908,78.159668 246.990565,77.503418 L246.990565,77.503418 L244.580897,77.503418 C244.580897,78.5083008 244.992762,79.3764648 245.816492,80.1079102 C246.640223,80.8393555 247.786951,81.2050781 249.256678,81.2050781 Z M259.677088,81.2050781 C261.051112,81.2050781 262.143153,80.9008789 262.953211,80.2924805 C263.76327,79.684082 264.168299,78.8706055 264.168299,77.8520508 C264.168299,76.9291992 263.838465,76.2131348 263.178797,75.7038574 C262.519129,75.1945801 261.478358,74.7929688 260.056483,74.4990234 C259.126795,74.3144531 258.518397,74.111084 258.231287,73.888916 C257.944178,73.666748 257.800623,73.3574219 257.800623,72.9609375 C257.800623,72.5644531 257.954432,72.2329102 258.262049,71.9663086 C258.569666,71.699707 259.031092,71.5664063 259.646326,71.5664063 C260.268397,71.5664063 260.75033,71.7287598 261.092127,72.0534668 C261.433924,72.3781738 261.604823,72.7729492 261.604823,73.237793 L261.604823,73.237793 L264.086268,73.237793 C264.086268,72.1987305 263.691492,71.3493652 262.901942,70.6896973 C262.112391,70.0300293 261.027186,69.7001953 259.646326,69.7001953 C258.340662,69.7001953 257.299891,70.0231934 256.524012,70.6691895 C255.748133,71.3151855 255.360194,72.1132813 255.360194,73.0634766 C255.360194,73.9658203 255.693446,74.6699219 256.35995,75.1757813 C257.026453,75.6816406 258.036463,76.078125 259.389979,76.3652344 C260.305994,76.5634766 260.922938,76.7856445 261.240809,77.0317383 C261.55868,77.277832 261.717616,77.5957031 261.717616,77.9853516 C261.717616,78.4091797 261.546717,78.7407227 261.20492,78.9799805 C260.863123,79.2192383 260.3641,79.3388672 259.70785,79.3388672 C259.065272,79.3388672 258.528651,79.1970215 258.097987,78.9133301 C257.667323,78.6296387 257.438319,78.159668 257.410975,77.503418 L257.410975,77.503418 L255.001307,77.503418 C255.001307,78.5083008 255.413172,79.3764648 256.236903,80.1079102 C257.060633,80.8393555 258.207362,81.2050781 259.677088,81.2050781 Z" id="Express" fill="#FE9B1E" fill-rule="nonzero"></path>
                <g id="invisalign-seeklogo.com">
                    <path d="M238.368103,41.9606903 C238.368103,51.6438324 232.720144,54.8715872 225.941614,54.8715872 C223.198389,54.8715872 220.455165,54.2261586 217.872227,53.0963221 L219.164308,48.5775877 C221.261492,49.7073019 223.52141,50.3527305 225.941614,50.3527305 C229.653899,50.5142406 232.881654,47.6092612 233.043164,43.8973432 C233.043164,43.7359555 233.043164,43.5745677 233.043164,43.41318 L233.043164,41.7993026 C231.267776,43.7359555 228.686062,44.8656696 225.941614,44.8656696 C219.809124,44.8656696 215.129002,40.0239151 215.129002,32.9229768 C215.129002,26.1446917 219.486104,20.9804063 225.941614,20.9804063 C228.686062,20.8188962 231.267776,21.9486104 233.043164,24.0466511 L233.043164,21.6258349 L238.207816,21.6258349 L238.368103,41.9606903 Z M233.366184,32.9229768 C233.366184,28.2427323 230.299939,25.6606508 226.910674,25.6606508 C222.875369,25.6606508 220.455165,28.8884056 220.455165,32.9229768 C220.455165,36.9576703 223.036879,40.1855475 226.910674,40.1855475 C230.460226,40.1855475 233.366184,37.4418336 233.366184,32.9229768 L233.366184,32.9229768 Z M171.069782,32.9229768 C171.069782,37.2804458 173.81423,40.1855475 177.526515,40.1855475 C180.914556,40.1855475 183.980801,37.764609 183.980801,32.9229768 C183.980801,28.0813446 181.076067,25.6606508 177.526515,25.6606508 C173.65272,25.6606508 171.069782,28.7268955 171.069782,32.9229768 L171.069782,32.9229768 Z M183.497494,21.6258349 L188.822433,21.6258349 L188.822433,44.3815064 L183.659005,44.3815064 L183.497494,41.9606903 C181.560597,43.8973432 179.139169,44.8656696 176.395944,45.0270574 C170.263455,45.0270574 165.583333,40.0239151 165.583333,33.0844869 C165.583333,25.6606508 170.586475,21.1417941 176.395944,21.1417941 C179.139169,21.1417941 181.722107,22.1099982 183.497494,24.2081612 L183.497494,21.6258349 Z M208.511983,10.8129786 C206.736595,10.8129786 205.284228,12.2654683 205.284228,14.0407335 C205.284228,15.8159986 206.736595,17.2684883 208.511983,17.2684883 C210.28737,17.2684883 211.739737,15.8159986 211.739737,14.0407335 C211.739737,12.1040806 210.28737,10.6515909 208.511983,10.8129786 L208.511983,10.8129786 Z M205.930268,44.3815064 L211.255207,44.3815064 L211.255207,21.6258349 L205.930268,21.6258349 L205.930268,44.3815064 Z M194.633126,44.3815064 L199.958065,44.3815064 L199.958065,11.2971419 L194.633126,11.2971419 L194.633126,44.3815064 Z M244.340306,21.6258349 L249.343448,21.6258349 L249.504958,23.7239979 C250.957326,21.9486104 253.05451,20.9804063 255.314427,20.9804063 C260.8021,20.9804063 263.868345,24.3694265 263.868345,30.3408953 L263.868345,44.2199963 L258.703692,44.2199963 L258.703692,30.3408953 C258.865202,27.9199568 257.089815,25.6606508 254.508101,25.4991407 C252.086673,25.3378753 249.826755,27.1131405 249.665245,29.695222 C249.665245,30.0179975 249.665245,30.1793852 249.665245,30.5021607 L249.665245,44.2199963 L244.501816,44.2199963 L244.340306,21.6258349 L244.340306,21.6258349 Z" id="Fill-1" fill="#565960"></path>
                    <path d="M91.5064821,21.6258349 L96.5095021,21.6258349 L96.5095021,23.7239979 C97.9619917,21.9486104 100.05991,20.9804063 102.480848,20.9804063 C107.645256,20.9804063 111.034276,24.3694265 111.034276,30.3408953 L111.034276,44.2199963 L105.869991,44.2199963 L105.869991,30.6635484 C106.192644,28.2427323 104.417501,25.8219162 101.996563,25.4991407 C99.5757468,25.1763652 97.1549307,26.9516304 96.8322775,29.3724465 C96.8322775,29.695222 96.8322775,30.1793852 96.8322775,30.5021607 L96.8322775,44.2199963 L91.5064821,44.2199963 L91.5064821,21.6258349 Z M140.084314,10.8129786 C138.308927,10.8129786 136.85656,12.2654683 136.85656,14.0407335 C136.85656,15.8159986 138.308927,17.2684883 140.084314,17.2684883 C141.859702,17.2684883 143.312069,15.8159986 143.312069,14.0407335 C143.312069,12.1040806 141.859702,10.6515909 140.084314,10.8129786 L140.084314,10.8129786 Z M137.501377,44.3815064 L142.666029,44.3815064 L142.666029,21.6258349 L137.501377,21.6258349 L137.501377,44.3815064 Z M82.9529318,10.8129786 C81.1776667,10.8129786 79.725177,12.2654683 79.725177,14.0407335 C79.725177,15.8159986 81.1776667,17.2684883 82.9529318,17.2684883 C84.728197,17.2684883 86.1806866,15.8159986 86.1806866,14.0407335 C86.1806866,12.1040806 84.728197,10.6515909 82.9529318,10.8129786 L82.9529318,10.8129786 Z M80.370728,44.3815064 L85.5351357,44.3815064 L85.5351357,21.6258349 L80.370728,21.6258349 L80.370728,44.3815064 Z M147.346151,39.055711 C149.121539,40.0239151 151.219946,40.6695884 153.318354,40.8309761 C155.900068,40.8309761 157.029416,39.7012619 157.029416,38.2487723 C157.029416,36.7961602 156.061579,35.8279562 153.318354,34.8596297 C148.798518,33.40714 147.023131,30.9863239 147.023131,28.2427323 C147.023131,24.2081612 150.250886,20.9804063 155.577048,20.9804063 C157.675456,20.9804063 159.773864,21.4645696 161.709538,22.432896 L160.580191,26.4674672 C159.127823,25.6606508 157.513946,25.1763652 155.738558,25.1763652 C153.640151,25.1763652 152.349293,26.1446917 152.349293,27.5971814 C152.349293,29.049671 153.478641,29.8567321 156.384599,30.8249362 C160.580191,32.2774258 162.355578,34.3754665 162.517088,37.764609 C162.517088,41.9606903 159.450843,44.8656696 153.318354,44.8656696 C150.896926,44.8656696 148.476722,44.3815064 146.378314,43.2517922 L147.346151,39.055711 Z M117.974072,21.6258349 L123.94554,35.3436706 L129.75501,21.6258349 L135.565702,21.6258349 L123.78403,45.9952615 L112.163991,21.6258349 L117.974072,21.6258349 L117.974072,21.6258349 Z" id="Fill-2" fill="#565960"></path>
                    <g id="Group-6">
                        <mask id="mask-2" fill="white">
                            <use xlink:href="#path-1"></use>
                        </mask>
                        <g id="Clip-4"></g>
                        <path d="M33.0036095,47.4476288 C31.7394259,47.4410216 30.47512,47.2797562 29.2110588,46.9635879 C29.2082446,46.9760683 29.2054304,46.9886709 29.2027386,47.0011513 C29.151716,46.9889156 29.1006935,46.9764353 29.049671,46.9635879 C29.695222,44.2199963 30.9863239,41.6379148 32.9228545,39.5397518 C34.8595073,41.6379148 36.1506093,44.2199963 36.7962826,46.9635879 C35.532099,47.2797562 34.2677931,47.4410216 33.0036095,47.4476288 M40.0239151,45.672486 C38.5714254,43.2517922 37.764609,40.5082006 37.6030989,37.6032213 C40.5082006,37.6032213 43.2516699,38.5714254 45.672486,40.0239151 C44.3813841,42.4447312 42.4447312,44.3813841 40.0239151,45.672486 M25.8219162,45.5110983 C23.5624878,44.2199963 21.6258349,42.2834658 20.334733,40.0239151 C22.5941614,38.5714254 25.337753,37.764609 28.2427323,37.6032213 C28.2427323,40.5082006 27.2744059,43.2517922 25.8219162,45.5110983 M46.9635879,36.7961602 C44.2199963,36.1507316 41.6379148,34.8597521 39.5397518,32.9229768 C41.6379148,31.1477117 44.2199963,29.695222 46.9635879,29.049671 C47.2863634,30.340773 47.4478735,31.6318749 47.4478735,32.9229768 C47.4478735,34.2140787 47.2863634,35.5051807 46.9635879,36.7961602 M19.0350662,36.7615335 C18.401139,34.2030667 18.4010167,31.6448446 19.0345767,29.0861332 C21.7212727,29.743308 24.246948,31.0222966 26.3059571,32.9229768 C24.244868,34.8256147 21.8722602,36.1050928 19.0350662,36.7615335 M37.764609,28.2427323 C37.764609,25.4992631 38.5714254,22.5941614 40.1854252,20.334733 C42.4447312,21.6258349 44.3813841,23.5624878 45.672486,25.8219162 C43.2516699,27.2744059 40.5082006,28.2427323 37.764609,28.2427323 M28.2427323,28.2427323 C25.4991407,28.2427323 22.7555491,27.2744059 20.1733453,25.8219162 C20.1875386,25.7970779 20.2017319,25.7722396 20.2160476,25.7475237 C20.2555686,25.772362 20.2949673,25.7970779 20.334733,25.8219162 C21.6182489,23.5758247 23.5393625,21.6489603 25.781661,20.3578583 C27.3149058,22.7332803 28.0853823,25.4114114 28.2427323,28.2427323 M32.9228545,26.3060794 C30.9863239,24.2081612 29.695222,21.6258349 29.049671,18.8822433 C30.340773,18.5595902 31.6318749,18.3982025 32.9229768,18.3982025 C34.2140787,18.3982025 35.5051807,18.5595902 36.7962826,18.8822433 C36.1506093,21.6258349 34.8595073,24.2081612 32.9228545,26.3060794" id="Fill-3" fill="#565960" mask="url(#mask-2)"></path>
                        <path d="M14.3633866,45.9952615 C12.265346,49.2231387 10.6514686,52.6121589 9.68314211,56.3240769 C13.3951825,55.3558728 16.7842027,53.741873 20.0119575,51.6438324 C17.7525292,50.0300774 15.8158763,48.2548122 14.3633866,45.9952615 M29.049671,55.3558728 C29.8566097,59.0676685 31.1477117,62.6181988 33.0842422,66.0073414 C35.0210174,62.7797089 36.311997,59.0676685 37.1190581,55.3558728 C34.3753441,55.8399137 31.6318749,55.8399137 29.049671,55.3558728 M20.0119575,14.5247743 C16.7842027,12.4267337 13.3951825,10.8129786 9.68314211,9.68314211 C10.6514686,13.3951825 12.265346,16.7843251 14.3633866,20.0120799 C15.8158763,17.7525292 17.7525292,15.8159986 20.0119575,14.5247743 M55.3557505,36.9576703 C59.0675461,36.1507316 62.6181988,34.8597521 66.0073414,32.9229768 C62.7795865,31.1477117 59.0675461,29.695222 55.3557505,29.049671 C55.8399137,31.6318749 55.8399137,34.3755888 55.3557505,36.9576703 M10.6514686,29.049671 C6.93967286,29.8567321 3.22775482,31.1477117 0,32.9229768 C3.22775482,34.8597521 6.93967286,36.1507316 10.6514686,36.9576703 C10.1673053,34.3755888 10.1673053,31.6318749 10.6514686,29.049671 M45.9953838,51.6438324 C49.2230163,53.741873 52.6121589,55.3558728 56.3240769,56.3240769 C55.3557505,52.6121589 53.741873,49.2231387 51.6438324,45.9952615 C50.029955,48.2548122 48.2546899,50.0300774 45.9953838,51.6438324 M36.957548,10.6515909 C36.1506093,6.93967286 34.8595073,3.22775482 32.9228545,0 C30.9863239,3.22775482 29.695222,6.93967286 29.049671,10.6515909 C30.340773,10.4900808 31.6318749,10.3286931 33.0842422,10.3286931 C34.3753441,10.1674277 35.6664461,10.3286931 36.957548,10.6515909 M45.9953838,14.363509 C49.2230163,12.2654683 52.6121589,10.6515909 56.3240769,9.68314211 C55.3557505,13.3951825 53.741873,16.7843251 51.6438324,20.0120799 C50.029955,17.7525292 48.2546899,15.8159986 45.9953838,14.363509" id="Fill-5" fill="#565960" mask="url(#mask-2)"></path>
                    </g>
                    <path d="M33.0542649,55.7189035 C31.7329411,55.7170681 30.4110054,55.5960579 29.049671,55.3558728 C28.7267732,54.0646485 28.7267732,52.6121589 28.7267732,51.3210569 C28.7267732,49.8811699 28.8854691,48.4411606 29.2027386,47.0011513 C30.442818,47.2989661 31.6828974,47.4478735 32.9229768,47.4478735 C32.9498952,47.4478735 32.9766912,47.4477511 33.0036095,47.4476288 C33.0305279,47.4477511 33.0573238,47.4478735 33.0842422,47.4478735 C34.3753441,47.4478735 35.6664461,47.2864858 36.957548,46.9635879 C37.1190581,48.4160776 37.2803235,49.8686896 37.4418336,51.3210569 C37.4418336,52.6121589 37.2803235,54.0646485 37.1190581,55.3558728 C35.7576014,55.5960579 34.3960223,55.7170681 33.0542649,55.7189035 M20.0119575,51.8052202 C19.9723141,51.7769559 19.9330378,51.7486916 19.8937615,51.7204274 C19.9331602,51.6948549 19.9725589,51.6694048 20.0119575,51.6438324 C17.7807934,50.0502661 15.8644516,48.2993498 14.4182021,46.0800543 C15.2070321,44.9759125 15.9991658,43.8753191 16.9455905,42.9288944 C17.9139169,41.7993026 19.0436311,40.9923639 20.334733,40.1855475 C21.6258349,42.4447312 23.5624878,44.3813841 25.8219162,45.672486 C25.1762429,46.9635879 24.2079164,48.0934245 23.2397124,49.2231387 C22.2713859,50.1913427 21.1416717,50.9984038 20.0119575,51.8052202 M46.0758942,51.5860803 C44.9730983,50.7983515 43.8742179,50.0069521 42.9288944,49.0617509 C41.7991802,48.0934245 40.9923639,46.9635879 40.1854252,45.672486 C42.4447312,44.3813841 44.3813841,42.4447312 45.672486,40.1855475 C46.9635879,40.8309761 48.0934245,41.7993026 49.2230163,42.7675067 C50.1914651,43.7359555 50.9982815,44.8656696 51.8052202,45.9952615 C51.7769559,46.0349049 51.7486916,46.0741812 51.720305,46.1134575 C51.6948549,46.0739365 51.6694048,46.0346602 51.6438324,45.9952615 C50.0491649,48.2278939 48.2970251,49.9876198 46.0758942,51.5860803 M14.6861621,37.4418336 C13.3951825,37.4418336 11.9425705,37.4418336 10.6515909,37.1190581 C10.6416801,37.0631413 10.6320139,37.0072246 10.6225925,36.9513078 C10.6322586,36.9535102 10.6418024,36.9555903 10.6514686,36.9576703 C10.4114058,35.6773358 10.2903956,34.3573578 10.2884334,33.0370127 C10.2875814,31.6809397 10.408714,30.3448107 10.6515909,29.049671 C11.9425705,28.7268955 13.2336724,28.5656302 14.6861621,28.5656302 C16.1386517,28.5656302 17.5911414,28.7268955 19.0436311,29.049671 C19.0406945,29.0617843 19.0376356,29.0740199 19.0345767,29.0861332 C18.9837989,29.0737752 18.9331435,29.0616619 18.8822433,29.049671 C18.2366924,31.6318749 18.2366924,34.2142011 18.8822433,36.7961602 C18.9333882,36.7849035 18.9842884,36.7732796 19.0350662,36.7615335 C19.0378803,36.7730349 19.0408169,36.7846588 19.0436311,36.7961602 C17.5911414,37.2804458 16.1386517,37.4418336 14.6861621,37.4418336 M51.3210569,37.2804458 C49.8685673,37.2804458 48.4160776,37.1190581 46.9635879,36.7961602 C47.2863634,35.5051807 47.4478735,34.2140787 47.4478735,32.9229768 C47.4478735,31.6318749 47.2863634,30.340773 46.9635879,29.049671 C48.0269851,28.8134013 49.0901375,28.6636374 50.1535347,28.6636374 C50.5426272,28.6636374 50.9319644,28.6837038 51.3210569,28.7268955 C52.6121589,28.7268955 54.0646485,28.7268955 55.3557505,29.049671 C55.5978932,30.340773 55.7189035,31.6722524 55.7189035,33.0037319 C55.7189035,34.3352113 55.5978932,35.6665684 55.3557505,36.9576703 C54.0646485,37.1190581 52.6121589,37.2804458 51.3210569,37.2804458 M45.672486,25.8219162 L45.672486,25.8219162 C44.3813841,23.5624878 42.4447312,21.6258349 40.1854252,20.334733 C40.8308538,19.0436311 41.7991802,17.9139169 42.7675067,16.7843251 C43.7358331,15.8159986 44.8656696,15.0089376 45.9953838,14.2019989 C46.0349049,14.2302631 46.0743035,14.2585274 46.1135799,14.286914 C46.0740588,14.3123641 46.0347825,14.3378142 45.9953838,14.363509 C48.2277715,15.798624 49.9876198,17.7064009 51.5860803,19.9314472 C50.7983515,21.0341207 50.0068297,22.1331235 49.0616286,23.0783246 C48.0934245,24.2081612 46.9635879,25.0150999 45.672486,25.8219162 M20.2160476,25.7475237 C18.9742552,24.9653009 17.8791678,24.1783063 16.7843251,23.2398347 C15.8158763,22.2715083 15.0090599,21.1417941 14.2019989,20.0120799 C14.2302631,19.9724365 14.2585274,19.9331602 14.286914,19.8938839 C14.3123641,19.9334049 14.3378142,19.9726812 14.3633866,20.0120799 C15.8158763,17.7525292 17.7525292,15.8159986 20.0119575,14.5247743 C19.9441722,14.4807261 19.8766316,14.437045 19.8086016,14.3934862 C19.8225502,14.383453 19.8366212,14.3734198 19.8505698,14.363509 C20.980284,15.1704477 22.1099982,15.977264 23.0783246,16.9457128 C24.2079164,17.9139169 25.0149775,19.0436311 25.8219162,20.334733 C25.8085794,20.3424414 25.7949979,20.3501499 25.781661,20.3578583 C25.7417729,20.2961908 25.7013954,20.2346457 25.6605285,20.1733453 C23.4259384,21.4503762 21.5070271,23.5164819 20.2160476,25.7475237 M36.7962826,18.8822433 L36.7962826,18.8822433 C35.5051807,18.5595902 34.2140787,18.3982025 32.9229768,18.3982025 C31.6318749,18.3982025 30.340773,18.5595902 29.049671,18.8822433 C28.7267732,17.5911414 28.4041201,16.1387741 28.5655078,14.5247743 C28.5655078,13.2336724 28.5655078,11.7811827 28.8882833,10.4900808 C28.9537438,10.4785793 29.0189596,10.4673226 29.0841755,10.4563105 C29.0725516,10.521404 29.0609278,10.5866198 29.049671,10.6515909 C30.340773,10.4900808 31.6318749,10.3286931 33.0842422,10.3286931 C33.430143,10.2855014 33.7760438,10.2654349 34.1219446,10.2654349 C35.0671457,10.2654349 36.0123468,10.4151989 36.957548,10.6515909 C36.9454347,10.5956742 36.9330768,10.539635 36.9207188,10.4837183 C36.9329544,10.4857983 36.9453124,10.4880008 36.957548,10.4900808 C37.1190581,11.7811827 37.2803235,13.2336724 37.2803235,14.5247743 C37.2803235,15.977264 37.1190581,17.4297537 36.7962826,18.8822433" id="Fill-7" fill="#565960"></path>
                    <path d="M32.9229768,47.4478735 C31.6828974,47.4478735 30.442818,47.2989661 29.2027386,47.0011513 C29.2054304,46.9886709 29.2082446,46.9760683 29.2110588,46.9635879 C30.47512,47.2797562 31.7394259,47.4410216 33.0036095,47.4476288 C32.9766912,47.4477511 32.9498952,47.4478735 32.9229768,47.4478735 M18.8822433,36.7961602 C18.2366924,34.2142011 18.2366924,31.6318749 18.8822433,29.049671 C18.9331435,29.0616619 18.9837989,29.0737752 19.0345767,29.0861332 C18.4010167,31.6448446 18.401139,34.2030667 19.0350662,36.7615335 C18.9842884,36.7732796 18.9333882,36.7849035 18.8822433,36.7961602 M47.4478735,32.9229768 C47.4478735,31.6318749 47.2863634,30.340773 46.9635879,29.049671 C47.2863634,30.340773 47.4478735,31.6318749 47.4478735,32.9229768 M45.672486,25.8219162 C44.3813841,23.5624878 42.4447312,21.6258349 40.1854252,20.334733 C42.4447312,21.6258349 44.3813841,23.5624878 45.672486,25.8219162 M20.334733,25.8219162 C20.2949673,25.7970779 20.2555686,25.772362 20.2160476,25.7475237 C21.5070271,23.5164819 23.4259384,21.4503762 25.6605285,20.1733453 C25.7013954,20.2346457 25.7417729,20.2961908 25.781661,20.3578583 C23.5393625,21.6489603 21.6182489,23.5758247 20.334733,25.8219162 M36.7962826,18.8822433 C35.5051807,18.5595902 34.2140787,18.3982025 32.9229768,18.3982025 C31.6318749,18.3982025 30.340773,18.5595902 29.049671,18.8822433 C30.340773,18.5595902 31.6318749,18.3982025 32.9229768,18.3982025 C34.2140787,18.3982025 35.5051807,18.5595902 36.7962826,18.8822433" id="Fill-8" fill="#565960"></path>
                    <path d="M33.0843646,55.7189035 C33.074209,55.7189035 33.0642981,55.7189035 33.0542649,55.7189035 C34.3960223,55.7170681 35.7576014,55.5960579 37.1190581,55.3558728 C35.7472011,55.5978932 34.4157217,55.7189035 33.0843646,55.7189035 M19.8937615,51.7204274 C17.6904946,50.1290635 15.9489997,48.3765566 14.3633866,46.1567716 C14.3816177,46.1311991 14.3999711,46.1056267 14.4182021,46.0800543 C15.8644516,48.2993498 17.7807934,50.0502661 20.0119575,51.6438324 C19.9725589,51.6694048 19.9331602,51.6948549 19.8937615,51.7204274 M46.1566492,51.6438324 C46.1297309,51.6246225 46.1028125,51.6054126 46.0758942,51.5860803 C48.2970251,49.9876198 50.0491649,48.2278939 51.6438324,45.9952615 C51.6694048,46.0346602 51.6948549,46.0739365 51.720305,46.1134575 C50.1291858,48.3167244 48.3765566,50.0583416 46.1566492,51.6438324 M55.3557505,36.9576703 C55.5978932,35.6665684 55.7189035,34.3352113 55.7189035,33.0037319 C55.7189035,34.3352113 55.5978932,35.6665684 55.3557505,36.9576703 M10.6514686,36.9576703 C10.6418024,36.9555903 10.6322586,36.9535102 10.6225925,36.9513078 C10.4005161,35.6398948 10.289172,34.3293382 10.2884379,33.0370127 C10.2903956,34.3573578 10.4114058,35.6773358 10.6514686,36.9576703 M14.3633866,20.0120799 C14.3378142,19.9726812 14.3123641,19.9334049 14.286914,19.8938839 C15.8681223,17.7043208 17.608516,15.9710238 19.8086016,14.3934862 C19.8766316,14.437045 19.9441722,14.4807261 20.0119575,14.5247743 C17.7525292,15.8159986 15.8158763,17.7525292 14.3633866,20.0120799 M51.5860803,19.9314472 C49.9876198,17.7064009 48.2277715,15.798624 45.9953838,14.363509 C46.0347825,14.3378142 46.0740588,14.3123641 46.1135799,14.286914 C48.3167244,15.8782779 50.0582193,17.6307848 51.6438324,19.8505698 C51.6246225,19.8776105 51.6052902,19.9045288 51.5860803,19.9314472 M36.957548,10.6515909 C36.0123468,10.4151989 35.0671457,10.2654349 34.1219446,10.2654349 C33.7760438,10.2654349 33.430143,10.2855014 33.0842422,10.3286931 C31.6318749,10.3286931 30.340773,10.4900808 29.049671,10.6515909 C29.0609278,10.5866198 29.0725516,10.521404 29.0841755,10.4563105 C30.3869012,10.2368036 31.6550002,10.1270502 32.9229768,10.1270502 C34.2424654,10.1270502 35.5619539,10.245858 36.9207188,10.4837183 C36.9330768,10.539635 36.9454347,10.5956742 36.957548,10.6515909" id="Fill-9" fill="#565960"></path>
                    <path d="M271.614712,23.5624878 L272.259528,23.5624878 C272.744059,23.5624878 273.390099,23.5624878 273.390099,22.9170592 C273.390099,22.2713859 272.905569,22.2713859 272.421039,22.2713859 L271.614712,22.2713859 L271.614712,23.5624878 Z M270.968671,21.7872227 L272.421039,21.7872227 C273.067079,21.6258349 273.711896,21.9486104 273.873406,22.5941614 C273.873406,22.7556715 273.873406,22.7556715 273.873406,22.9170592 C273.873406,23.5624878 273.390099,24.0466511 272.905569,24.0466511 C272.905569,24.0466511 272.905569,24.0466511 272.744059,24.0466511 L273.873406,25.8219162 L273.228589,25.8219162 L272.098018,24.0466511 L271.453202,24.0466511 L271.453202,25.8219162 L270.807161,25.8219162 L270.968671,21.7872227 Z M272.421039,26.790365 C274.034916,26.790365 275.487283,25.6606508 275.487283,24.0466511 C275.487283,22.432896 274.357936,20.9804063 272.744059,20.9804063 C271.130181,20.9804063 269.677814,22.1099982 269.677814,23.7239979 L269.677814,23.8853857 C269.516304,25.3378753 270.645651,26.6288549 272.421039,26.790365 C272.259528,26.790365 272.421039,26.790365 272.421039,26.790365 L272.421039,26.790365 Z M272.421039,20.334733 C274.357936,20.334733 275.971814,21.9486104 275.971814,23.7239979 C275.971814,25.4991407 274.357936,27.2744059 272.582549,27.2744059 C270.645651,27.2744059 269.031774,25.6606508 269.031774,23.8853857 C268.871487,21.7872227 270.323854,20.334733 272.421039,20.334733 C272.259528,20.334733 272.259528,20.334733 272.421039,20.334733 L272.421039,20.334733 Z" id="Fill-10" fill="#565960"></path>
                </g>
            </g>
        </g>
    </g>
</svg>