<?xml version="1.0" encoding="UTF-8"?>
<svg width="987px" height="120px" viewBox="0 0 987 120" version="1.1" xmlns="http://www.w3.org/2000/svg" xmlns:xlink="http://www.w3.org/1999/xlink">
    <title>Group 19</title>
    <g id="Design" stroke="none" stroke-width="1" fill="none" fill-rule="evenodd">
        <g id="Health---Invisalign" transform="translate(-467.000000, -528.000000)" fill="#55311B">
            <g id="Group-15" transform="translate(-3.000000, 0.000000)">
                <g id="Group-19" transform="translate(470.000000, 528.000000)">
                    <text id="Invisalign" font-family="LibreBaskerville-Bold, Libre Baskerville" font-size="88" font-weight="bold" line-spacing="120">
                        <tspan x="263.204" y="85">Invisalign</tspan>
                    </text>
                    <path d="M719.333444,36.2297537 C721.008321,36.2297537 722.574823,35.924335 724.032951,35.3134975 C725.491079,34.7026601 726.766941,33.8701478 727.860537,32.8159606 C728.954133,31.7617734 729.816202,30.5253202 730.446744,29.106601 C731.077286,27.6878818 731.392557,26.1607882 731.392557,24.5253202 C731.392557,22.9095567 731.077286,21.3923153 730.446744,19.9735961 C729.816202,18.5548768 728.954133,17.3233498 727.860537,16.2790148 C726.766941,15.2346798 725.486153,14.4070936 724.018173,13.7962562 C722.550192,13.1854187 720.978764,12.88 719.303887,12.88 C717.648715,12.88 716.09699,13.1854187 714.648715,13.7962562 C713.200439,14.4070936 711.939355,15.244532 710.865463,16.3085714 C709.791572,17.3726108 708.944281,18.6139901 708.323591,20.0327094 C707.702902,21.4514286 707.392557,22.9588177 707.392557,24.5548768 C707.392557,26.150936 707.702902,27.6583251 708.323591,29.0770443 C708.944281,30.4957635 709.796498,31.7371429 710.880242,32.8011823 C711.963986,33.8652217 713.229995,34.7026601 714.678271,35.3134975 C716.126547,35.924335 717.678271,36.2297537 719.333444,36.2297537 Z M719.333444,34.515468 C717.914724,34.515468 716.584675,34.2543842 715.343296,33.7322167 C714.101917,33.2100493 713.023099,32.4957635 712.106843,31.5893596 C711.190587,30.6829557 710.471375,29.6238424 709.949207,28.4120197 C709.42704,27.200197 709.165956,25.9144828 709.165956,24.5548768 C709.165956,23.1952709 709.42704,21.9095567 709.949207,20.697734 C710.471375,19.4859113 711.190587,18.426798 712.106843,17.5203941 C713.023099,16.6139901 714.09699,15.8997044 715.328518,15.3775369 C716.560045,14.8553695 717.885168,14.5942857 719.303887,14.5942857 C720.722606,14.5942857 722.057582,14.8504433 723.308813,15.3627586 C724.560045,15.8750739 725.653641,16.5795074 726.589601,17.4760591 C727.525562,18.3726108 728.264478,19.426798 728.80635,20.6386207 C729.348222,21.8504433 729.619158,23.1460099 729.619158,24.5253202 C729.619158,25.9046305 729.348222,27.200197 728.80635,28.4120197 C728.264478,29.6238424 727.525562,30.6829557 726.589601,31.5893596 C725.653641,32.4957635 724.564971,33.2100493 723.323591,33.7322167 C722.082212,34.2543842 720.752163,34.515468 719.333444,34.515468 Z M719.303887,30.5253202 L719.303887,29.7272906 C718.830981,29.7272906 718.456596,29.7026601 718.180734,29.653399 C717.904872,29.6041379 717.69305,29.5056158 717.545266,29.3578325 C717.397483,29.2100493 717.303887,29.0080788 717.264478,28.7519212 C717.225069,28.4957635 717.205365,28.1706404 717.205365,27.7765517 L717.205365,27.7765517 L717.205365,24.6139901 C717.441818,24.6139901 717.663493,24.6731034 717.870389,24.79133 C718.077286,24.9095567 718.328518,25.1361576 718.624084,25.471133 L718.624084,25.471133 L722.909798,30.5253202 L726.574823,30.5253202 L726.574823,29.7272906 C726.101917,29.6484729 725.707828,29.5253202 725.392557,29.3578325 C725.077286,29.1903448 724.771867,28.9391133 724.476301,28.6041379 L724.476301,28.6041379 L720.633936,24.3184236 C721.914724,24.1410837 722.840833,23.7568473 723.412261,23.1657143 C723.98369,22.5745813 724.269404,21.835665 724.269404,20.9489655 C724.269404,19.9440394 723.791572,19.1607882 722.835907,18.5992118 C721.880242,18.0376355 720.525562,17.7568473 718.771867,17.7568473 L718.771867,17.7568473 L713.333444,17.7568473 L713.333444,18.6435468 C713.609306,18.6632512 713.830981,18.697734 713.998468,18.7469951 C714.165956,18.7962562 714.294035,18.8898522 714.382705,19.0277833 C714.471375,19.1657143 714.530488,19.3529064 714.560045,19.5893596 C714.589601,19.8258128 714.60438,20.1312315 714.60438,20.5056158 L714.60438,20.5056158 L714.60438,27.8652217 C714.60438,28.6139901 714.51571,29.106601 714.33837,29.3430542 C714.16103,29.5795074 713.766941,29.7075862 713.156104,29.7272906 L713.156104,29.7272906 L713.156104,30.5253202 L719.303887,30.5253202 Z M718.298961,23.6386207 L717.205365,23.6386207 L717.205365,19.0573399 C717.205365,18.88 717.303887,18.79133 717.500931,18.79133 L717.500931,18.79133 L718.771867,18.79133 C719.658567,18.79133 720.294035,18.9588177 720.678271,19.2937931 C721.062508,19.6287685 721.254626,20.2100493 721.254626,21.0376355 C721.254626,21.9637438 721.013247,22.6287685 720.530488,23.0327094 C720.047729,23.4366502 719.303887,23.6386207 718.298961,23.6386207 L718.298961,23.6386207 Z" id="®" fill-rule="nonzero"></path>
                </g>
            </g>
        </g>
    </g>
</svg>