<?xml version="1.0" encoding="UTF-8"?>
<svg width="55px" height="2249px" viewBox="0 0 55 2249" version="1.1" xmlns="http://www.w3.org/2000/svg" xmlns:xlink="http://www.w3.org/1999/xlink">
    <title>number_line</title>
    <g id="Design" stroke="none" stroke-width="1" fill="none" fill-rule="evenodd">
        <g id="Health---Invisalign" transform="translate(-933.000000, -4770.000000)">
            <g id="Group-23" transform="translate(-17.000000, 2904.000000)">
                <g id="number_line" transform="translate(950.000000, 1866.000000)">
                    <g id="linie" transform="translate(27.500000, 1124.500000) rotate(-180.000000) translate(-27.500000, -1124.500000) ">
                        <path d="M27.4559991,-7.27595761e-12 C28.6224245,-7.27617188e-12 29.567999,0.945574578 29.567999,2.11199993 L29.567999,2204.76798 C29.567999,2205.9344 28.6224245,2206.87998 27.4559991,2206.87998 C26.2895738,2206.87998 25.3439992,2205.9344 25.3439992,2204.76798 L25.3439992,2.11199993 C25.3439992,0.945574578 26.2895738,-7.27574335e-12 27.4559991,-7.27595761e-12 Z" id="Rectangle-Copy-25" fill="#F99573"></path>
                        <circle id="Oval-Copy-3" fill="#F99573" cx="27.4559991" cy="2220.60798" r="27.4559991"></circle>
                        <path d="M27.4559991,2177.31198 C28.4567301,2180.82268 30.0809737,2184.21607 32.32873,2187.49215 C34.5764862,2190.76824 37.8802425,2194.41484 42.2399986,2198.43198 L12.6719996,2198.43198 C17.0394832,2194.40358 20.3726443,2190.71412 22.671483,2187.36358 C24.9703217,2184.01305 26.5651604,2180.66251 27.4559991,2177.31198 Z" id="Triangle" fill="#F99573"></path>
                        <rect id="Rectangle" fill="#FFFFFF" x="26.3999992" y="2206.87998" width="2.11199993" height="27.4559991" rx="1.05599997"></rect>
                        <rect id="Rectangle-Copy-2" fill="#FFFFFF" x="30.623999" y="2212.15998" width="2.11199993" height="16.8959995" rx="1.05599997"></rect>
                        <rect id="Rectangle-Copy-9" fill="#FFFFFF" transform="translate(23.231999, 2220.607978) rotate(-180.000000) translate(-23.231999, -2220.607978) " x="22.1759993" y="2212.15998" width="2.11199993" height="16.8959995" rx="1.05599997"></rect>
                        <rect id="Rectangle-Copy-10" fill="#FFFFFF" transform="translate(19.007999, 2220.607978) rotate(-180.000000) translate(-19.007999, -2220.607978) " x="17.9519994" y="2216.38398" width="2.11199993" height="8.44799973" rx="1.05599997"></rect>
                        <rect id="Rectangle-Copy-8" fill="#FFFFFF" x="34.8479989" y="2216.38398" width="2.11199993" height="8.44799973" rx="1.05599997"></rect>
                    </g>
                    <g id="numbers" transform="translate(3.000000, 230.000000)">
                        <circle id="Oval" stroke="#F99573" stroke-width="4" fill="#FFFFFF" cx="24" cy="24" r="22"></circle>
                        <text id="1" font-family="Roboto-Medium, Roboto" font-size="21" font-weight="400" line-spacing="36" fill="#F99573">
                            <tspan x="19" y="25">1</tspan>
                        </text>
                        <circle id="Oval" stroke="#F99573" stroke-width="4" fill="#FFFFFF" cx="25" cy="1061" r="22"></circle>
                        <text id="3" font-family="Roboto-Medium, Roboto" font-size="21" font-weight="400" line-spacing="36" fill="#F99573">
                            <tspan x="19" y="1062">3</tspan>
                        </text>
                        <circle id="Oval" stroke="#F99573" stroke-width="4" fill="#FFFFFF" cx="25" cy="540" r="22"></circle>
                        <text id="2" font-family="Roboto-Medium, Roboto" font-size="21" font-weight="400" line-spacing="36" fill="#F99573">
                            <tspan x="19" y="541">2</tspan>
                        </text>
                        <circle id="Oval" stroke="#F99573" stroke-width="4" fill="#FFFFFF" cx="25" cy="1571" r="22"></circle>
                        <text id="4" font-family="Roboto-Medium, Roboto" font-size="21" font-weight="400" line-spacing="36" fill="#F99573">
                            <tspan x="18" y="1572">4</tspan>
                        </text>
                    </g>
                </g>
            </g>
        </g>
    </g>
</svg>