<svg height="2249" viewBox="0 0 55 2249" width="55" xmlns="http://www.w3.org/2000/svg"><g fill="none" fill-rule="evenodd"><g transform="matrix(-1 0 0 -1 55 2249)"><g fill="#f99573"><path d="m27.4559991 0c1.1664254 0 2.1119999.94557458 2.1119999 2.11199993v2202.65598007c0 1.16642-.9455745 2.112-2.1119999 2.112-1.1664253 0-2.1119999-.94558-2.1119999-2.112v-2202.65598007c0-1.16642535.9455746-2.11199993 2.1119999-2.11199993z"/><circle cx="27.455999" cy="2220.60798" r="27.455999"/><path d="m27.4559991 2177.31198c1.000731 3.5107 2.6249746 6.90409 4.8727309 10.18017 2.2477562 3.27609 5.5515125 6.92269 9.9112686 10.93983h-29.567999c4.3674836-4.0284 7.7006447-7.71786 9.9994834-11.0684 2.2988387-3.35053 3.8936774-6.70107 4.7845161-10.0516z"/></g><g fill="#fff"><rect height="27.455999" rx="1.056" width="2.112" x="26.399999" y="2206.87998"/><rect height="16.896" rx="1.056" width="2.112" x="30.623999" y="2212.15998"/><rect height="16.896" rx="1.056" transform="matrix(-1 0 0 -1 46.463998 4441.215956)" width="2.112" x="22.175999" y="2212.15998"/><rect height="8.448" rx="1.056" transform="matrix(-1 0 0 -1 38.015998 4441.215956)" width="2.112" x="17.951999" y="2216.38398"/><rect height="8.448" rx="1.056" width="2.112" x="34.847999" y="2216.38398"/></g></g><g transform="translate(3 230)"><circle cx="24" cy="24" fill="#fff" r="22" stroke="#f99573" stroke-width="4"/><text fill="#f99573" font-family="Roboto-Medium, Roboto" font-size="21" font-weight="400"><tspan x="19" y="25">1</tspan></text><circle cx="25" cy="1061" fill="#fff" r="22" stroke="#f99573" stroke-width="4"/><text fill="#f99573" font-family="Roboto-Medium, Roboto" font-size="21" font-weight="400"><tspan x="19" y="1062">3</tspan></text><circle cx="25" cy="540" fill="#fff" r="22" stroke="#f99573" stroke-width="4"/><text fill="#f99573" font-family="Roboto-Medium, Roboto" font-size="21" font-weight="400"><tspan x="19" y="541">2</tspan></text><circle cx="25" cy="1571" fill="#fff" r="22" stroke="#f99573" stroke-width="4"/><text fill="#f99573" font-family="Roboto-Medium, Roboto" font-size="21" font-weight="400"><tspan x="18" y="1572">4</tspan></text></g></g></svg>