<?xml version="1.0" encoding="utf-8"?>
<!-- Generator: Adobe Illustrator 25.0.1, SVG Export Plug-In . SVG Version: 6.00 Build 0)  -->
<svg version="1.1" id="Layer_1" xmlns="http://www.w3.org/2000/svg" xmlns:xlink="http://www.w3.org/1999/xlink" x="0px" y="0px"
	 viewBox="0 0 55 2249" style="enable-background:new 0 0 55 2249;" xml:space="preserve">
<style type="text/css">
	.st0{fill-rule:evenodd;clip-rule:evenodd;fill:#F99573;}
	.st1{fill-rule:evenodd;clip-rule:evenodd;fill:#FFFFFF;}
	.st2{fill-rule:evenodd;clip-rule:evenodd;fill:#FFFFFF;stroke:#F99573;stroke-width:4;}
	.st3{enable-background:new    ;}
	.st4{fill:#F99573;}
</style>
<g>
	<path class="st0" d="M27.5,2249c-1.2,0-2.1-0.9-2.1-2.1V44.2c0-1.2,0.9-2.1,2.1-2.1s2.1,0.9,2.1,2.1v2202.7
		C29.7,2248.1,28.7,2249,27.5,2249L27.5,2249z"/>
	<circle class="st0" cx="27.5" cy="28.4" r="27.5"/>
	<path class="st0" d="M27.5,71.7c-1-3.5-2.6-6.9-4.9-10.2s-5.6-6.9-9.9-10.9h29.6c-4.4,4-7.7,7.7-10,11.1S28.4,68.3,27.5,71.7
		L27.5,71.7z"/>
</g>
<g>
	<path class="st1" d="M27.5,42.1L27.5,42.1c-0.6,0-1.1-0.5-1.1-1.1V15.7c0-0.6,0.5-1.1,1.1-1.1l0,0c0.6,0,1.1,0.5,1.1,1.1v25.3
		C28.6,41.6,28.1,42.1,27.5,42.1z"/>
	<path class="st1" d="M23.3,36.8L23.3,36.8c-0.6,0-1.1-0.5-1.1-1.1V21c0-0.6,0.5-1.1,1.1-1.1h0c0.6,0,1.1,0.5,1.1,1.1v14.8
		C24.4,36.4,23.9,36.8,23.3,36.8z"/>
	<path class="st1" d="M31.8,19.9L31.8,19.9c0.6,0,1.1,0.5,1.1,1.1v14.8c0,0.6-0.5,1.1-1.1,1.1l0,0c-0.6,0-1.1-0.5-1.1-1.1V21
		C30.7,20.4,31.2,19.9,31.8,19.9z"/>
	<path class="st1" d="M36,24.2L36,24.2c0.6,0,1.1,0.5,1.1,1.1v6.3c0,0.6-0.5,1.1-1.1,1.1l0,0c-0.6,0-1.1-0.5-1.1-1.1v-6.3
		C34.9,24.6,35.4,24.2,36,24.2z"/>
	<path class="st1" d="M19.1,32.6L19.1,32.6c-0.6,0-1.1-0.5-1.1-1.1v-6.3c0-0.6,0.5-1.1,1.1-1.1l0,0c0.6,0,1.1,0.5,1.1,1.1v6.3
		C20.2,32.1,19.7,32.6,19.1,32.6z"/>
</g>
<circle class="st2" cx="27.5" cy="254" r="22"/>
<g class="st3">
	<path class="st4" d="M30.3,261.5h-2.5v-12.1h-3v-1.6l5.5-1.2V261.5z"/>
</g>
<circle class="st2" cx="27.5" cy="1291" r="22"/>
<g class="st3">
	<path class="st4" d="M25.8,1289.9h1.7c0.8,0,1.4-0.2,1.8-0.6c0.3-0.4,0.5-1,0.5-1.7c0-0.7-0.2-1.3-0.6-1.7
		c-0.4-0.4-0.9-0.6-1.7-0.6c-0.7,0-1.2,0.2-1.7,0.6c-0.4,0.4-0.6,0.9-0.6,1.5h-2.5c0-1.2,0.4-2.2,1.3-2.9c0.9-0.8,2-1.2,3.4-1.2
		c1.5,0,2.7,0.4,3.5,1.1c0.9,0.7,1.3,1.8,1.3,3.2c0,0.6-0.2,1.3-0.6,1.9c-0.4,0.6-0.9,1-1.7,1.4c0.9,0.3,1.5,0.8,1.9,1.4
		c0.4,0.6,0.6,1.3,0.6,2.1c0,1.4-0.5,2.5-1.4,3.2c-0.9,0.8-2.1,1.2-3.6,1.2c-1.4,0-2.6-0.4-3.5-1.1s-1.4-1.8-1.4-3.1h2.5
		c0,0.7,0.2,1.2,0.7,1.6s1,0.6,1.8,0.6c0.8,0,1.4-0.2,1.8-0.6s0.7-1,0.7-1.8c0-0.9-0.2-1.5-0.6-1.9c-0.4-0.4-1-0.6-1.9-0.6h-1.7
		V1289.9z"/>
</g>
<circle class="st2" cx="27.5" cy="770" r="22"/>
<g class="st3">
	<path class="st4" d="M32.6,776.6h-9.9v-1.7l4.9-5.3c0.8-0.9,1.4-1.6,1.7-2.1c0.3-0.5,0.4-1.1,0.4-1.6c0-0.7-0.2-1.2-0.6-1.7
		s-0.9-0.7-1.6-0.7c-0.9,0-1.5,0.2-2,0.7c-0.4,0.5-0.6,1.2-0.6,2h-2.5c0-1.4,0.4-2.5,1.3-3.4c0.9-0.9,2.1-1.3,3.7-1.3
		c1.5,0,2.6,0.4,3.4,1.2s1.2,1.8,1.2,3.1c0,0.9-0.2,1.7-0.7,2.5c-0.5,0.8-1.2,1.7-2.3,2.8l-3.4,3.6h6.8V776.6z"/>
</g>
<circle class="st2" cx="27.5" cy="1801" r="22"/>
<g class="st3">
	<path class="st4" d="M31.1,1803.1H33v2h-1.9v3.3h-2.5v-3.3h-6.4l-0.1-1.5l6.4-10.1h2.6V1803.1z M24.6,1803.1h4v-6.1l0,0l-0.2,0.5
		L24.6,1803.1z"/>
</g>
</svg>
