<?xml version="1.0" encoding="UTF-8"?>
<svg width="45px" height="84px" viewBox="0 0 45 84" version="1.1" xmlns="http://www.w3.org/2000/svg" xmlns:xlink="http://www.w3.org/1999/xlink">
    <title>Group 185</title>
    <g id="Design" stroke="none" stroke-width="1" fill="none" fill-rule="evenodd" opacity="0.5">
        <g id="Health---Invisalign" transform="translate(-295.000000, -4523.000000)">
            <g id="Group-25" transform="translate(0.000000, 4226.000000)">
                <g id="Group-24" transform="translate(295.000000, 0.000000)">
                    <g id="Group-185" transform="translate(0.000000, 297.000000)">
                        <rect id="Rectangle" stroke="#F05024" stroke-width="2" fill="#FFFFFF" x="1" y="1" width="43" height="82" rx="4"></rect>
                        <rect id="Rectangle" fill="#F05024" opacity="0.600000024" x="4" y="10.5" width="37" height="56.5" rx="2"></rect>
                        <circle id="Oval" stroke="#F05024" stroke-width="2" cx="22.5" cy="74.6640625" r="3.43210923"></circle>
                        <circle id="Oval" stroke="#F05024" stroke-width="2" opacity="0.600000024" cx="22.5" cy="6.6640625" r="1.5"></circle>
                        <path d="M30.7314199,39.8724118 C28.0600795,40.5406767 25.3369248,40.9810462 22.5912227,41.1887875 C19.9695122,40.9934375 17.3718546,40.55272 14.8322993,39.8724118 C15.4576947,43.7740614 18.8142427,46.6486338 22.7627959,46.6641472 C26.7168832,46.6848025 30.1100719,43.7996572 30.7314199,39.8724118 Z M34.7338542,32.8914543 C36.7463365,37.7385077 35.6419611,43.321543 31.9359841,47.0357454 C28.2300071,50.7499478 22.652763,51.8633619 17.8063645,49.8565144 C12.959966,47.8496669 9.79948418,43.118046 9.79948418,37.8692314 C9.80994922,30.7162386 15.5960922,24.9172534 22.7437322,24.8962255 C27.9886303,24.8885349 32.7213719,28.0444008 34.7338542,32.8914543 Z M7.87405111,37.8692314 C7.87405111,46.087653 14.5314341,52.75 22.7437322,52.75 C30.9560304,52.75 37.6134134,46.087653 37.6134134,37.8692314 C37.6134134,29.6508099 30.9560304,22.9884629 22.7437322,22.9884629 C14.5314341,22.9884629 7.87405111,29.6508099 7.87405111,37.8692314 Z" id="Shape" fill="#FCF4F2"></path>
                    </g>
                </g>
            </g>
        </g>
    </g>
</svg>