<svg xmlns="http://www.w3.org/2000/svg" xmlns:xlink="http://www.w3.org/1999/xlink" viewBox="0 0 181.365 226.772"><defs><clipPath id="a"><rect width="181.365" height="226.772" fill="none"/></clipPath></defs><rect y="100.779" width="181.365" height="35.247" fill="#707373"/><polygon points="90.684 57.578 77.296 87.684 104.072 87.684 90.684 57.578" fill="#707373"/><polygon points="90.685 0 47.377 94.689 60.771 94.689 90.685 27.41 120.593 94.689 133.993 94.689 90.686 0 90.685 0" fill="#3d3935"/><g clip-path="url(#a)"><path d="M8.859,106.854h9.93a8.384,8.384,0,0,1,6.016,2.034,7.247,7.247,0,0,1,2.22,5.431c0,4.226-2.927,7.216-7.46,7.216H14.412v7.373H8.859Zm9.593,10.363a2.781,2.781,0,0,0,3.084-2.932c0-1.758-1.142-2.836-3.084-2.836h-4.04v5.768Z" fill="#fff"/><polygon points="30.885 106.853 36.345 106.853 36.345 124.281 46.246 124.281 46.246 128.907 30.885 128.907 30.885 106.853" fill="#fff"/><path d="M56.919,106.852h5.614l7.956,22.054H64.754l-1.3-3.977h-7.71l-1.264,3.977H48.994Zm5.274,14.159-1.665-5.333c-.37-1.147-.863-3.118-.863-3.118H59.6s-.521,1.971-.892,3.118l-1.7,5.333Z" fill="#fff"/><polygon points="76.602 111.479 70.186 111.479 70.186 106.853 88.537 106.853 88.537 111.479 82.062 111.479 82.062 128.907 76.602 128.907 76.602 111.479" fill="#fff"/><rect x="92.521" y="106.852" width="5.46" height="22.054" fill="#fff"/><path d="M102.915,106.853h5.493l6.538,11.072c.337.619,1.509,2.81,1.509,2.81h.063s-.063-2.654-.063-3.426V106.853h5.338v22.054H116.3l-6.478-10.919c-.371-.586-1.572-2.963-1.572-2.963h-.064s.064,2.841.064,3.612v10.27h-5.338Z" fill="#fff"/><path d="M126.578,121.134V106.852h5.46V121.32c0,2.156,1.108,3.606,3.792,3.606a3.4,3.4,0,0,0,3.732-3.7V106.852h5.46v14.282c0,5.089-3.054,8.172-9.192,8.172-6.168,0-9.252-3.02-9.252-8.172" fill="#fff"/><path d="M149.807,106.853h7.338l2.688,9.651c.4,1.392,1.264,5.031,1.264,5.031h.06s.864-3.639,1.233-5.031l2.718-9.651h7.4v22.054h-4.993V117.8c0-.895.093-4.411.093-4.411h-.063s-.771,3.3-1.02,4.1l-3.176,11.412h-4.5L155.7,117.524c-.244-.8-1.016-4.132-1.016-4.132h-.062s.091,3.547.091,4.44v11.075h-4.9Z" fill="#fff"/><path d="M146.931,180.018h3.9c1.875,0,2.8,1,2.8,2.528,0,1.476-1.023,2.45-2.924,2.45h-3.777Zm-4.248,15.227h4.248v-7.1h3.15a2.814,2.814,0,0,1,3.2,2.8c.226,2.05.174,4.03.674,4.3h4.2v-.2c-.6-.251-.451-2.354-.8-4.877a3.753,3.753,0,0,0-2.924-3.6v-.077a4.448,4.448,0,0,0,3.447-4.526c0-3.4-2.721-5.322-6.35-5.322h-8.848Zm-17.515,0h14.126V191.6h-9.877v-4.33h8.4V183.9h-8.4v-3.7h9.7v-3.546H125.168Zm-15.245-3.6v-11.4H112.9c3.127,0,4.729,2.3,4.729,5.827,0,3.551-1.576,5.576-4.8,5.576Zm-4.273,3.6h7.5c5.7,0,8.825-3.647,8.825-9.174,0-5.7-3.35-9.425-8.576-9.425H105.65Zm-8.318,0h4.274v-18.6H97.332Zm-13.118,0h4.474l6.153-18.6h-4.3L87.814,185.6c-.6,2.049-1.25,5.475-1.25,5.475h-.047s-.653-3.426-1.275-5.475l-2.752-8.951H78.065ZM67.9,192.2c-3.225,0-4.875-2.676-4.875-6.18,0-3.525,1.65-6.252,4.875-6.252,3.2,0,4.8,2.727,4.8,6.252,0,3.5-1.6,6.18-4.8,6.18m-.022,3.494c5.626,0,9.174-4.121,9.174-9.674,0-5.574-3.548-9.7-9.174-9.7-5.653,0-9.2,4.127-9.2,9.7,0,5.553,3.548,9.674,9.2,9.674M45.132,180.018h3.9c1.875,0,2.8,1,2.8,2.528,0,1.476-1.026,2.45-2.929,2.45H45.132Zm-4.248,15.227h4.248v-7.1h3.151a2.81,2.81,0,0,1,3.2,2.8c.227,2.05.178,4.03.675,4.3h4.2v-.2c-.6-.251-.448-2.354-.8-4.877a3.749,3.749,0,0,0-2.922-3.6v-.077a4.446,4.446,0,0,0,3.448-4.526c0-3.4-2.725-5.322-6.349-5.322H40.884ZM27.529,180.267h3.655c1.749,0,2.75.927,2.75,2.554a2.47,2.47,0,0,1-2.776,2.6H27.529Zm-4.322,14.978h4.322V188.8h4.455c3.847,0,6.247-2.45,6.247-5.975a6.106,6.106,0,0,0-1.773-4.452,6.751,6.751,0,0,0-4.974-1.723H23.207Z" fill="#636666"/></g><text transform="translate(20.681 170.025)" font-size="26.622" fill="#3d3a35" font-family="NeueHaasGroteskDisplay-Regular, NeueHaasGroteskDisplay Regular">INVISALIGN</text><g clip-path="url(#a)"><path d="M59.557,218.438c2.035-1.738,4.659-3.378,6.431-4.954a3.664,3.664,0,0,0,1.476-2.788,2.69,2.69,0,0,0-2.919-2.921,2.948,2.948,0,0,0-2.429,1.018,4.923,4.923,0,0,0-1.016,3.313H55.915a8.83,8.83,0,0,1,1.542-5.709c1.281-1.837,3.708-3.084,7.218-3.084,5.413,0,8.334,3.216,8.334,7.186,0,3.117-1.74,4.921-3.74,6.463-2,1.641-4.429,3.019-6.005,4.692v.032h9.777v4.561H55.587a9.649,9.649,0,0,1,3.97-7.809" fill="#636666"/><path d="M74.873,215.026c0-7.153,4.035-11.745,9.941-11.745,6.037,0,9.941,4.592,9.941,11.745s-4,11.746-9.974,11.746c-5.841,0-9.908-4.593-9.908-11.746m14.173,0c0-4.364-1.214-7.447-4.232-7.447s-4.266,3.051-4.266,7.447,1.248,7.415,4.266,7.415c3.051,0,4.232-2.986,4.232-7.415" fill="#636666"/><path d="M99.866,218.438c2.035-1.738,4.659-3.378,6.431-4.954a3.664,3.664,0,0,0,1.476-2.788,2.69,2.69,0,0,0-2.919-2.921,2.946,2.946,0,0,0-2.429,1.018,4.933,4.933,0,0,0-1.018,3.313H96.224a8.83,8.83,0,0,1,1.542-5.709c1.279-1.837,3.708-3.084,7.218-3.084,5.413,0,8.334,3.216,8.334,7.186,0,3.117-1.74,4.921-3.74,6.463-2,1.641-4.429,3.019-6.005,4.692v.032h9.777v4.561H95.9a9.652,9.652,0,0,1,3.971-7.809" fill="#636666"/><path d="M120.233,211.876h-4.822v-3.74c2.985-.1,5.413-1.51,5.97-4.561h4.4v22.671h-5.545Z" fill="#636666"/></g></svg>