<?xml version="1.0" encoding="UTF-8"?>
<svg width="280px" height="302px" viewBox="0 0 280 302" version="1.1" xmlns="http://www.w3.org/2000/svg" xmlns:xlink="http://www.w3.org/1999/xlink">
    <title>Group 26</title>
    <g id="Design" stroke="none" stroke-width="1" fill="none" fill-rule="evenodd">
        <g id="Health---Invisalign" transform="translate(-340.000000, -4671.000000)">
            <g id="Group-25" transform="translate(0.000000, 4226.000000)">
                <g id="Group-24" transform="translate(295.000000, 0.000000)">
                    <g id="Group-26" transform="translate(45.000000, 445.798340)">
                        <path d="M142.036049,3.38533471 L156.997555,19.2257263 C159.481423,21.4713448 163.487893,22.7016602 169.123291,22.7016602 L169.123291,22.7016602 L276,22.7016602 C276.690356,22.7016602 277.315356,22.9814822 277.767767,23.4338932 C278.220178,23.8863042 278.5,24.5113042 278.5,25.2016602 L278.5,25.2016602 L278.5,297.20166 C278.5,297.892016 278.220178,298.517016 277.767767,298.969427 C277.315356,299.421838 276.690356,299.70166 276,299.70166 L276,299.70166 L4,299.70166 C3.30964406,299.70166 2.68464406,299.421838 2.23223305,298.969427 C1.77982203,298.517016 1.5,297.892016 1.5,297.20166 L1.5,297.20166 L1.5,25.2016602 C1.5,24.5113042 1.77982203,23.8863042 2.23223305,23.4338932 C2.68464406,22.9814822 3.30964406,22.7016602 4,22.7016602 L4,22.7016602 L108.244273,22.7016602 C121.480319,22.9056951 130.179334,21.4740336 134.450306,18.6508413 C138.33101,16.0856224 140.940902,11.0617194 142.036049,3.38533471 L142.036049,3.38533471 Z" id="Rectangle" stroke="#A9978C" stroke-width="3" fill="#FFFFFF" opacity="0.400000006" transform="translate(140.000000, 150.600830) rotate(-180.000000) translate(-140.000000, -150.600830) "></path>
                        <g id="Asset-1" transform="translate(28.000000, 24.201660)" fill-rule="nonzero">
                            <path d="M170.158666,32.7961226 L175.734396,32.8001181 L175.734396,38.1600911 L181.008965,38.1600911 L181.008965,32.8710383 L175.664974,32.8710383 L175.664974,27.3692248 L170.158666,27.3692248 L170.158666,16.2816921 L181.016457,16.2816921 L181.016457,5.3170213 L175.662477,5.3170213 L175.733398,5.38794156 L175.733398,0.0614309243 L148.137428,0.0614309243 L148.137428,10.9107315 L142.766966,10.9107315 L142.766966,16.3815798 L137.201724,16.3865742 L137.201724,0.0179797827 L131.660955,0.0179797827 L131.660955,5.40192583 L126.220073,5.40192583 L126.220073,0.0314646198 L120.933018,0.0314646198 L120.933018,5.33100558 L126.290993,5.33100558 C126.290993,7.18325616 126.289328,9.03567322 126.285998,10.8882568 L120.787182,10.8882568 L120.787182,16.3870736 L115.293359,16.3870736 L115.293359,32.8685412 L109.732612,32.8685412 L109.732612,16.5244192 L104.144395,16.5244192 L104.144395,27.2124012 L87.7628156,27.2124012 L87.7628156,22.016244 L82.334919,22.016244 L82.334919,32.8630473 L76.7636835,32.8630473 L76.7636835,21.7255708 L71.444165,21.7255708 L71.444165,16.2936787 L82.411333,16.2936787 L82.411333,10.987645 L87.8432252,10.987645 L87.8432252,16.3071635 L93.3120758,16.3071635 L93.3120758,21.675627 L98.5991308,21.675627 L98.5991308,16.3780838 L93.2406561,16.3780838 L93.2406561,10.7449179 L98.6530701,10.7449179 L98.6530701,5.33150502 L87.7153689,5.33150502 L87.7153689,0.0544387866 L71.2453885,0.0544387866 L71.2453885,10.8777686 L65.751566,10.8777686 L65.751566,21.8833933 L60.2942025,21.8833933 L60.2942025,16.5129321 L55.0071475,16.5129321 L55.0071475,21.8124731 L60.3651228,21.8124731 C60.3621261,23.6663885 60.3587966,25.5204703 60.355134,27.3747186 L49.2256485,27.3747186 L49.2256485,16.477472 L43.9890368,16.477472 L43.9890368,38.1471057 L49.4748683,38.1471057 L49.4748683,32.9744221 L54.6590389,32.9744221 L54.6590389,49.3525058 L38.3184131,49.3525058 L38.3184131,43.9820446 L33.0318575,43.9820446 L33.0318575,49.282085 L38.3898328,49.282085 L38.3898328,54.6310704 L27.2263854,54.6310704 L27.2263854,49.2236507 L21.8209635,49.2236507 L21.8209635,43.99503 L16.4120456,43.99503 L16.4120456,54.8328435 L0.0554376634,54.8328435 L0.0554376634,60.1268907 L16.3411253,60.1268907 L16.3411253,54.7614238 L21.675627,54.7614238 L21.675627,65.9413526 L5.52578656,65.9413526 L5.52578656,71.3492717 L16.4135439,71.3492717 L16.4135439,76.8081335 L0.0499438409,76.8081335 L0.0499438409,82.3763723 L5.53028151,82.3763723 L5.53028151,87.6294655 C7.52803514,87.6294655 9.26058698,87.6294655 10.9891433,87.6354588 L10.9891433,93.310078 L5.42440056,93.310078 L5.42440056,98.7834235 L0.0539393482,98.7834235 L0.0539393482,104.070479 L5.35397975,104.070479 L5.35397975,98.7120038 L16.2252556,98.7120038 L16.2252556,87.7058796 L10.927213,87.7058796 L10.927213,82.1516251 L16.3411253,82.1516251 L16.3411253,76.7367138 L21.9812833,76.7367138 L21.9812833,93.127783 L27.4151732,93.127783 L27.4151732,87.7293532 L32.8860215,87.7293532 L32.8860215,93.091324 L43.8062423,93.091324 L43.8062423,87.7293532 L54.9067604,87.7293532 L54.9067604,82.2355307 L60.355134,82.2355307 L60.355134,87.7343476 L65.8539509,87.7343476 L65.8539509,93.3450387 L54.8663059,93.3450387 L54.8663059,98.7889174 L49.3724834,98.7889174 L49.3724834,104.28274 L43.8906474,104.186848 L43.8906474,98.9527331 L27.4915872,98.9527331 L27.4915872,104.110434 C33.0683165,104.110434 38.5126946,104.110434 43.9520783,104.116926 L43.869671,109.787051 L33.0173738,109.787051 L33.0173738,115.067113 L43.8007485,115.067113 L43.8007485,109.715631 L49.3744811,109.709638 L49.3744811,115.20346 L54.8683036,115.20346 C54.8683036,117.054712 54.869136,118.906463 54.8708008,120.758714 L49.4983419,120.758714 L49.4983419,126.045769 L54.7978828,126.045769 L54.7978828,120.687294 L60.4090734,120.687294 L60.4090734,131.684928 L65.852952,131.684928 L65.852952,142.662584 L60.2922048,142.662584 L60.3626256,142.733504 L60.3626256,137.099839 L54.7519345,137.099839 L54.7519345,131.872217 L49.2481232,131.872217 L49.2481232,142.747488 L32.8245906,142.747488 L32.8185973,137.173756 L43.6718934,137.173756 L43.6718934,126.263524 L38.3124198,126.263524 L38.3124198,120.909044 L27.392199,120.909044 L27.392199,131.757346 L22.0576973,131.757346 L22.0576973,115.147024 L27.1924236,115.147024 L27.1924236,109.626731 L16.2816921,109.626731 L16.2816921,104.413593 L10.7599011,104.413593 L10.7599011,109.831501 L5.54376634,109.831501 L5.54376634,126.032783 L10.9616742,126.032783 L10.9616742,120.894561 L16.4120456,120.894561 L16.4120456,137.239682 L5.3559775,137.253666 L5.3559775,131.883205 L0.0689225005,131.883205 L0.0689225005,137.183245 L5.42689775,137.183245 C5.42689775,139.033165 5.42689775,140.883418 5.42689775,142.734004 L0.0539393482,142.734004 L0.0539393482,148.021059 L5.35397975,148.021059 L5.35397975,142.662584 L16.3985607,142.662584 L16.4120456,148.225329 L11.0415844,148.225329 L11.0415844,153.512384 L16.3416248,153.512384 L16.3416248,148.156406 L21.6891118,148.156406 L21.6891118,142.735502 L16.327141,142.735502 L16.3411253,137.168761 L27.392199,137.173756 L27.392199,142.677068 L32.8960103,142.677068 C32.8960103,144.528985 32.8943455,146.381236 32.8910159,148.233819 L27.2693371,148.233819 L27.2693371,159.283894 L5.42440056,159.283894 L5.42440056,164.709294 L0.0539393482,164.709294 L0.0539393482,169.996349 L5.35397975,169.996349 L5.35397975,164.637874 L27.4291574,164.637874 L27.4291574,175.630513 L32.8860215,175.630513 L32.8860215,181.231216 L43.9335991,181.231216 L43.9335991,186.62515 L49.3724834,186.62515 L49.3724834,203.24746 L43.9670615,203.24746 L43.9670615,208.676854 L49.4259233,208.676854 L49.4259233,224.997003 L60.3371542,224.997003 L60.3371542,208.802214 L65.9348599,208.802214 L65.9348599,219.485701 L71.3647543,219.485701 L71.3647543,214.084774 L76.8306082,214.084774 L76.8306082,224.935572 L109.646708,224.935572 L109.646708,219.603069 L82.2315352,219.603069 L82.2315352,214.155694 L76.7591886,214.155694 C76.7611863,212.303443 76.7630176,210.451026 76.7646824,208.598443 L87.7573218,208.598443 L87.7573218,197.605803 L104.305714,197.605803 L104.305714,203.231977 L93.4863798,203.231977 L93.4863798,208.732292 L98.8388612,208.732292 L98.8388612,213.942933 L109.731113,213.942933 L109.731113,197.605803 L115.347298,197.605803 L115.347298,203.10462 L120.791177,203.10462 L120.791177,208.752769 L115.397242,208.752769 L115.397242,214.18566 L126.050263,214.18566 L126.050263,219.70845 L115.427209,219.70845 L115.427209,224.923086 L142.596658,224.923086 L142.596658,219.56661 L131.935146,219.56661 L131.935146,214.042821 L142.567191,214.042821 L142.567191,203.177039 L137.201225,203.177039 L137.201225,197.540876 L148.097972,197.540876 L148.097972,192.118973 L137.40999,192.118973 L137.40999,186.520268 L142.589666,186.520268 L142.589666,181.096367 L137.201225,181.096367 L137.201225,175.630513 L170.025815,175.630513 L170.025815,181.296143 L164.843143,181.296143 C164.843143,183.301887 164.843143,185.038934 164.83665,186.770487 L159.163529,186.770487 L159.163529,181.353578 L153.847507,181.353578 L153.847507,192.200381 L159.25193,192.200381 C159.25193,194.201132 159.25193,195.93668 159.25193,197.672229 L153.880969,197.672229 L153.880969,202.959284 L159.18101,202.959284 L159.18101,197.600809 L164.764731,197.600809 L164.764731,186.707058 L175.556596,186.707058 L175.556596,208.685345 L170.239575,208.685345 C170.239575,210.686095 170.239575,212.419646 170.239575,214.153696 L159.114584,214.153696 L159.114584,219.503181 L153.695678,219.503181 L153.695678,214.296535 L148.415115,214.296535 L148.415115,224.993507 L164.726774,224.993507 L164.726774,219.546133 L170.170653,219.546133 L170.170653,214.082276 L175.799823,214.082276 L175.799823,224.997003 L186.540246,224.997003 L186.540246,214.064796 L181.376053,214.064796 L181.376053,208.56548 L192.199882,208.56548 L192.199882,203.311887 L197.705191,203.311887 L197.705191,214.15919 L192.339225,214.15919 L192.339225,224.940567 L203.127095,224.940567 L203.127095,219.581093 L208.460598,219.581093 L208.460598,208.539009 L203.324872,208.539009 L203.324872,192.34372 L208.741781,192.34372 L208.741781,197.701196 L214.26607,197.701196 L214.26607,203.004233 L224.97353,203.004233 L224.97353,197.527891 L219.775874,197.527891 L219.775874,186.602176 L224.942565,186.602176 L224.942565,181.082383 L214.095761,181.082383 L214.095761,175.625519 L208.625412,175.625519 L208.696333,175.696439 L208.696333,170.088745 L203.121601,170.088745 L203.121601,164.654355 L214.100256,164.743755 L214.100256,170.272538 L219.712945,170.272538 L219.712945,175.466697 L224.997003,175.466697 L224.997003,159.355314 L219.518164,159.355314 L219.518164,164.820668 C217.508923,164.820668 215.772376,164.820668 214.036827,164.814176 L214.036827,159.370796 L203.190524,159.370796 L203.190524,164.724277 L197.54687,164.724277 L197.54687,159.325347 L192.114478,159.325347 L192.114478,175.476187 L186.592687,175.476187 L186.592687,170.11921 L181.146311,170.11921 L181.146311,164.647863 L186.505285,164.647863 L186.505285,159.220965 L181.146311,159.220965 L181.146311,153.620263 L186.779477,153.620263 L186.779477,148.161401 L192.205875,148.161401 L192.205875,153.51588 L203.126595,153.51588 L203.126595,142.667578 L208.775244,142.667578 L208.775244,131.856235 L219.705953,131.856235 L219.705953,137.013935 L225,137.013935 L225,126.161139 L219.838304,126.161139 L219.838304,120.636851 L224.97303,120.636851 L224.97303,93.4544157 L219.556121,93.4544157 L219.556121,98.5926381 L214.033331,98.5926381 L214.033331,93.1767279 L208.599442,93.1767279 L208.599442,87.8067662 L203.127095,87.8067662 L203.127095,82.447792 L197.700697,82.447792 L197.700697,87.8067662 L192.139949,87.8067662 C192.137952,84.1199118 192.136287,80.433224 192.134955,76.7467026 L197.493929,76.7467026 L197.493929,71.3198048 L192.133956,71.3198048 L192.133956,65.7081149 L197.492431,65.7081149 L197.492431,54.8438312 L192.138451,54.8438312 L192.142946,49.2676013 L203.215495,49.2676013 L203.215495,60.3821037 L208.695334,60.3821037 C208.695334,62.365873 208.695334,64.0929311 208.695334,65.8204885 L203.325372,65.8204885 L203.325372,71.1075435 L208.625412,71.1075435 L208.625412,65.7490688 L219.683978,65.7490688 C219.683978,67.8467101 219.683978,69.5807603 219.683978,71.314311 L214.047316,71.314311 L214.047316,76.8430942 L208.800216,76.8430942 L208.800216,82.3409122 L219.756396,82.3409122 L219.756396,87.6414521 L224.990011,87.6414521 L224.990011,76.7037509 L219.613057,76.7037509 L219.613057,71.2428913 L224.966038,71.2428913 L224.966038,60.1913182 L214.109246,60.1913182 L214.109246,49.2835833 L219.749404,49.2835833 L219.749404,54.6810142 L224.990011,54.6810142 L224.990011,43.9860401 L214.178169,43.9860401 L214.178169,49.355003 L208.561984,49.355003 L208.561984,43.987039 L192.214366,43.987039 L192.214366,49.339021 L181.118342,49.339021 L181.118342,44.0035205 L175.724408,44.0035205 L175.724408,54.8438312 L170.113217,54.8438312 L170.113217,49.2101659 L159.171021,49.2101659 L159.171021,43.7837676 L164.664844,43.7837676 L164.664844,38.2899451 L170.158666,38.2899451 L170.158666,32.7961226 Z M16.3416248,175.625519 L21.7015978,175.625519 L21.7015978,170.351449 L16.4120456,170.351449 L16.4120456,175.69544 L11.0415844,175.69544 L11.0415844,180.982495 L16.3416248,180.982495 L16.3416248,175.625519 Z M219.671991,214.169678 L214.312018,214.169678 L214.312018,224.92908 L219.603069,224.92908 L219.603069,214.098258 L224.972031,214.098258 L224.972031,208.811203 L219.671991,208.811203 L219.671991,214.169678 Z M54.857316,5.3195185 L54.857316,10.687982 L60.1423732,10.687982 L60.1423732,5.39043875 L54.7838985,5.39043875 L54.7838985,0.0499438409 L44.0459728,0.0499438409 L44.0459728,10.7129539 L49.3999525,10.7129539 L49.3999525,5.31901906 L54.857316,5.3195185 Z M0,38.1466063 L38.1471057,38.1466063 L38.1471057,0 L0,0 L0,38.1466063 Z M224.959046,38.213531 L224.959046,0.0664253084 L186.812939,0.0664253084 L186.812939,38.213531 L224.959046,38.213531 Z M0.0649269932,186.768989 L0.0649269932,224.916094 L38.2150293,224.916094 L38.2150293,186.768989 L0.0649269932,186.768989 Z M219.686974,148.045531 L224.960045,148.045531 L224.960045,142.904811 L219.686974,142.904811 L219.686974,148.045531 Z M0.0054938225,181.025447 L5.22362632,181.025447 L5.22362632,175.852264 L0.0054938225,175.852264 L0.0054938225,181.025447 Z" id="Shape" fill="#FFFFFF"></path>
                            <path d="M32.8860215,87.7293532 L27.4151732,87.7293532 L27.4151732,93.127783 L21.9812833,93.127783 L21.9812833,76.7367138 L16.3411253,76.7367138 L16.4120456,76.8076341 L16.4120456,71.3492717 L5.52428824,71.3492717 L5.52428824,65.9413526 L21.675627,65.9413526 L21.675627,54.7614238 L16.3411253,54.7614238 L16.4120456,54.8323441 L16.4120456,43.9945306 L21.8209635,43.9945306 L21.8209635,49.2236507 L27.2263854,49.2236507 L27.2263854,54.6310704 L38.3898328,54.6310704 L38.3898328,49.282085 L38.3189125,49.3525058 L54.6590389,49.3525058 L54.6590389,32.9744221 L49.4748683,32.9744221 L49.4748683,38.1471057 L43.9890368,38.1471057 L43.9890368,16.477472 L49.2256485,16.477472 L49.2256485,27.3747186 L60.355134,27.3747186 L60.2867109,27.3013012 L60.2867109,43.7827687 L71.3477734,43.7827687 L71.3477734,49.3944587 L76.9235038,49.3944587 L76.9235038,54.8383373 L87.8257448,54.8383373 L87.7558235,54.7689154 L87.7558235,65.613721 L93.3190679,65.613721 L93.3190679,54.7704137 L93.249646,54.8398357 L104.307212,54.8398357 L104.237291,54.7704137 L104.237291,65.7540632 L109.799537,65.7540632 L109.799537,82.3903566 L115.125048,82.3903566 L115.125048,87.8242465 L104.154384,87.8242465 L104.154384,93.127783 L98.7184965,93.127783 L98.7184965,87.7333487 L82.262001,87.7333487 L82.3314229,87.8027707 L82.3314229,71.3252987 L76.7696768,71.3252987 L76.7696768,60.3376537 L65.7820318,60.3376537 L65.7820318,49.489352 L60.355134,49.489352 L60.355134,60.3376537 L54.7384497,60.3376537 L54.7384497,55.0021531 L49.2990659,55.0021531 L49.2990659,71.3198048 L49.3684879,71.2503829 L43.7533018,71.2503829 L43.7533018,76.8176229 L38.3124198,76.8176229 L38.3124198,71.3163088 L32.8086085,71.3163088 L32.8086085,65.6836424 L38.221522,65.6836424 L38.221522,60.4450329 L27.5225524,60.4450329 L27.5225524,71.2453885 L32.8800282,71.2453885 L32.8860215,76.8191212 L27.5325412,76.8191212 L27.5325412,82.2405251 L32.8910159,82.2405251 L32.8175984,87.8012723 L32.8860215,87.7293532 Z M93.4679005,71.3857307 L93.4679005,82.1526239 L98.6390858,82.1526239 L98.6390858,71.3857307 L93.4679005,71.3857307 Z" id="Shape" fill="#F15A24"></path>
                            <path d="M170.239575,214.153197 L170.239575,208.685345 L175.558095,208.685345 L175.558095,186.707058 C171.999097,186.707058 168.382663,186.707058 164.763233,186.707058 C164.763233,186.704062 164.843143,186.77648 164.843143,186.77648 L164.843143,181.296143 L170.025815,181.296143 L170.025815,175.630513 L137.201225,175.630513 L137.270147,175.703931 L137.270147,170.140686 L131.706403,170.140686 L131.776325,170.210108 L131.776325,164.716286 L126.208086,164.716286 L126.208086,159.372295 L137.306107,159.372295 L137.306107,164.716286 L142.819408,164.716286 L142.819408,169.975872 L159.078125,169.975872 L159.078125,159.237946 C157.227207,159.237946 155.502646,159.237946 153.775588,159.237946 C153.775588,159.234949 153.855498,159.307368 153.855498,159.307368 L153.855498,142.850373 L159.283894,142.850373 L159.283894,148.327214 L164.777717,148.327214 L164.777717,170.029811 L170.268043,170.029811 L170.268043,159.220965 L175.727904,159.220965 L175.658482,159.151543 L175.658482,164.714787 L181.222226,164.714787 L181.148808,164.646364 L181.148808,170.117712 L186.592687,170.117712 L186.592687,175.474688 L192.114478,175.474688 L192.114478,159.325347 L197.544872,159.325347 L197.544872,164.725276 L203.188526,164.725276 L203.117606,164.654355 L203.117606,170.088745 L208.694335,170.088745 L208.694335,175.696939 L203.325372,175.696939 L203.325372,186.469825 L208.625412,186.469825 L208.625412,175.625519 L214.095761,175.625519 L214.095761,181.082383 L224.942565,181.082383 L224.942565,186.602176 L219.775874,186.602176 L219.775874,197.527891 L224.97353,197.527891 L224.97353,203.004233 L214.26607,203.004233 L214.26607,197.701196 L208.741781,197.701196 L208.741781,192.34372 L203.324872,192.34372 L203.324872,208.539009 L208.461097,208.539009 L208.461097,219.581093 L203.127594,219.581093 L203.196017,219.654511 L203.196017,214.091266 L197.632273,214.091266 L197.705691,214.159689 L197.705691,203.311887 L192.200381,203.311887 L192.200381,208.56548 L181.376552,208.56548 L181.376552,214.065795 L186.540246,214.065795 L186.540246,224.997003 L175.797326,224.997003 L175.797326,214.084274 L170.168655,214.084274 L170.239575,214.153197 Z M197.490932,197.532885 L197.490932,181.36107 L181.317618,181.36107 L181.317618,197.532885 L197.490932,197.532885 Z" id="Shape" fill="#F15A24"></path>
                            <polygon id="Path" fill="#F15A24" points="159.171021 43.7837676 159.171021 49.2101659 170.112218 49.2101659 170.112218 54.8438312 175.724408 54.8438312 175.655985 54.7704137 175.655985 60.4065762 170.321982 60.4065762 170.321982 65.8259823 175.516142 65.8259823 175.516142 71.4037105 153.840515 71.4037105 153.840515 76.8071346 164.778216 76.8071346 164.778216 82.3184375 175.719913 82.3184375 175.648992 82.2475172 175.648992 87.8826808 181.055913 87.8826808 181.055913 93.1217897 159.144551 93.1217897 159.144551 87.8067662 153.682692 87.8067662 153.682692 82.3129437 142.695047 82.3129437 142.695047 76.9539695 137.268649 76.9539695 137.268649 82.3129437 131.707402 82.3129437 131.707402 76.8136273 126.208086 76.8136273 126.208086 71.2024368 131.552077 71.2024368 131.552077 65.8259823 120.714264 65.8259823 120.714264 60.2152913 137.277639 60.2152913 137.277639 54.7754081 137.206719 54.8463284 142.757477 54.8463284 142.686557 54.7754081 142.686557 65.6331991 148.311232 65.6331991 148.311232 60.2577435 153.743124 60.2577435 153.743124 65.626207 164.515012 65.626207 164.515012 60.3286638 153.672704 60.3286638 153.672704 43.8506923 159.245437 43.8506923"></polygon>
                            <polygon id="Path" fill="#F15A24" points="32.82509 142.747488 49.2481232 142.747488 49.2481232 131.872217 54.7519345 131.872217 54.7519345 137.099839 60.3626256 137.099839 60.3626256 142.733504 54.9921644 142.733504 54.9921644 148.020559 60.2922048 148.020559 60.2922048 142.662584 65.8539509 142.662584 65.8539509 131.684928 65.7805334 131.753351 71.4241875 131.753351 71.4241875 142.571686 76.8635712 142.571686 76.8635712 137.173756 87.8252454 137.173756 87.8252454 148.257792 93.3785011 148.257792 93.3785011 153.660218 98.8178848 153.660218 98.8178848 159.306868 93.4189556 159.306868 93.4189556 164.73876 98.8168859 164.73876 98.8168859 170.20861 93.4579118 170.20861 93.4579118 175.635008 98.8168859 175.635008 98.8168859 181.237209 93.1817223 181.237209 93.1817223 186.690077 87.7513285 186.690077 87.7513285 170.10173 82.257506 170.10173 82.257506 164.647863 87.6194768 164.647863 87.6194768 153.727142 82.257506 153.727142 82.257506 148.378157 71.342779 148.378157 71.342779 159.225959 65.7815323 159.225959 65.7815323 153.659219 49.3000648 153.659219 49.3694868 153.728641 49.3694868 148.165396 32.8175984 148.165396 32.8910159 148.233819 32.8960103 142.677068"></polygon>
                            <polygon id="Path" fill="#F15A24" points="203.127095 87.8067662 208.599442 87.8067662 208.599442 93.1767279 214.033331 93.1767279 214.033331 98.5926381 219.556121 98.5926381 219.556121 93.4544157 224.97303 93.4544157 224.97303 120.636851 219.838304 120.636851 219.838304 126.161139 224.997003 126.161139 224.997003 137.013935 219.702956 137.013935 219.702956 131.856235 208.775244 131.856235 208.775244 142.667578 203.127594 142.667578 203.196017 142.740996 203.196017 126.158142 208.765255 126.158142 208.765255 120.66432 214.001867 120.66432 214.001867 115.170497 208.615424 115.170497 208.615424 109.71613 219.478708 109.71613 219.478708 104.422083 208.684346 104.422083 208.684346 109.785552 203.071657 109.785552 203.071657 104.286735 197.633272 104.286735 197.702195 98.7194954 197.632273 98.7889174 203.196017 98.7889174 203.196017 87.7333487"></polygon>
                            <path d="M0,38.1466063 L0,0 L38.1471057,0 L38.1471057,38.1466063 L0,38.1466063 Z M5.50780678,32.666768 L32.6672675,32.666768 L32.6672675,5.47983823 L5.50780678,5.47983823 L5.50780678,32.666768 Z" id="Shape" fill="#F15A24"></path>
                            <path d="M224.959046,38.213531 L186.812939,38.213531 L186.812939,0.0664253084 L224.959046,0.0664253084 L224.959046,38.213531 Z M192.351711,5.46984946 L192.351711,32.6293102 L219.508175,32.6293102 L219.508175,5.46984946 L192.351711,5.46984946 Z" id="Shape" fill="#F15A24"></path>
                            <path d="M0.0649269932,186.768989 L38.2150293,186.768989 L38.2150293,224.916094 L0.0649269932,224.916094 L0.0649269932,186.768989 Z M5.48982699,219.438753 L32.6492877,219.438753 L32.6492877,192.287783 L5.48982699,192.287783 L5.48982699,219.438753 Z" id="Shape" fill="#F15A24"></path>
                            <polygon id="Path" fill="#F15A24" points="76.8301088 214.084774 71.3647543 214.084774 71.3647543 219.485701 65.9348599 219.485701 65.9348599 208.802214 60.3371542 208.802214 60.3371542 224.997003 49.4259233 224.997003 49.4259233 208.674857 43.9670615 208.674857 43.9670615 203.245462 49.3724834 203.245462 49.3724834 186.623153 49.2990659 186.691576 54.946216 186.691576 54.946216 192.238838 60.3781082 192.238838 60.3781082 197.605803 65.8489565 197.605803 65.8489565 203.099626 71.342779 203.099626 71.342779 208.665367 76.8366015 208.665367 76.7631841 208.596944 76.7576902 214.154196"></polygon>
                            <path d="M60.355134,27.3747186 C60.3584636,25.5208033 60.3617932,23.6667214 60.3651228,21.8124731 L60.2942025,21.8833933 L65.7495683,21.8833933 L65.7495683,10.8777686 L71.2433908,10.8777686 L71.2433908,0.0544387866 L87.710874,0.0544387866 L87.710874,5.33150502 L98.6510723,5.33150502 L98.6510723,10.7449179 L93.2406561,10.7449179 L93.2406561,16.3780838 L93.3115763,16.3071635 L87.8432252,16.3071635 L87.8432252,10.987645 L82.411333,10.987645 L82.411333,16.2936787 L71.444165,16.2936787 L71.444165,21.7255708 L76.7636835,21.7255708 L76.7636835,32.8630473 L76.8371009,32.7946243 L71.3432784,32.7946243 L71.3432784,38.3623637 L65.7300902,38.3623637 L65.7300902,27.3013012 L60.2862115,27.3013012 L60.355134,27.3747186 Z" id="Path" fill="#F15A24"></path>
                            <polygon id="Path" fill="#F15A24" points="142.766966 16.3815798 142.766966 10.9107315 148.137428 10.9107315 148.137428 0.0614309243 175.733398 0.0614309243 175.733398 5.388441 170.362437 5.388441 170.362437 10.675496 175.662477 10.675496 175.662477 5.3170213 181.016457 5.3170213 181.016457 16.2816921 170.158666 16.2816921 170.158666 27.3692248 170.232083 27.3008018 164.6149 27.3008018 164.6149 21.8754023 159.171021 21.8754023 159.171021 16.2357438 164.577941 16.2357438 164.577941 5.50880565 153.64024 5.50880565 153.64024 16.3136562 142.694048 16.3136562"></polygon>
                            <polygon id="Path" fill="#F15A24" points="5.42440056 164.708794 5.42440056 159.283894 27.2693371 159.283894 27.2693371 148.23332 32.8910159 148.23332 32.8175984 148.164897 32.8175984 153.727142 49.3684879 153.727142 49.2990659 153.65772 49.2990659 159.297379 54.6999929 159.297379 54.6999929 164.528996 43.7508047 164.528996 43.7508047 159.388776 32.9919024 159.388776 32.9919024 164.746252 38.3114209 164.746252 38.3114209 170.20861 38.3808429 170.139188 32.8175984 170.139188 32.8175984 175.702432 32.8860215 175.629015 27.4291574 175.629015 27.4291574 164.636376 5.35397975 164.636376"></polygon>
                            <path d="M109.732612,32.8685412 L115.293359,32.8685412 L115.224936,32.7951237 C115.250241,36.4786485 115.275712,40.1620067 115.30135,43.8451985 L109.930389,43.8451985 L109.930389,49.1322535 L115.23043,49.1322535 L115.23043,43.7737788 L120.792176,43.7837676 L120.792176,49.4064452 L126.045269,49.4064452 L126.045269,54.7704137 L104.237291,54.7704137 L104.307212,54.8398357 L104.307212,49.4808615 L93.249646,49.4808615 L93.249646,54.8383373 L93.3190679,54.7689154 L87.7558235,54.7689154 L87.8257448,54.8383373 L87.8257448,49.1946833 L82.43181,49.1946833 L82.43181,43.7617923 L93.3195673,43.7617923 L93.3195673,38.2889462 L93.2501454,38.3583681 L98.8138893,38.3583681 L98.7439679,38.2889462 L98.7439679,43.6444243 L104.307712,43.6444243 L104.307712,38.2889462 L104.23779,38.3583681 L109.801534,38.3583681 L109.801534,32.7951237 L109.732612,32.8685412 Z" id="Path" fill="#F15A24"></path>
                            <polygon id="Path" fill="#F15A24" points="54.8663059 98.7889174 54.8663059 93.3450387 65.8539509 93.3450387 65.8539509 87.7343476 65.7805334 87.8027707 71.342779 87.7293532 71.342779 98.5776549 76.7696768 98.5776549 76.7696768 87.7293532 82.3314229 87.8027707 82.262001 87.7333487 82.262001 98.5821498 87.9206381 98.5821498 87.9206381 93.3949825 93.1372723 93.3949825 93.1372723 104.32669 87.8287415 104.32669 87.8287415 109.776562 82.2629998 109.781557 82.2629998 104.422583 76.8366015 104.422583 76.8366015 109.781557 71.2234132 109.781557 71.2234132 104.205826 65.7860273 104.205826 65.8564481 104.276747 65.8564481 98.7209937 54.7928884 98.7209937"></polygon>
                            <polygon id="Path" fill="#F15A24" points="137.201724 203.177039 142.567191 203.177039 142.567191 214.042821 131.935146 214.042821 131.935146 219.56661 142.595659 219.56661 142.595659 224.923086 115.42621 224.923086 115.42621 219.70845 126.048765 219.70845 126.048765 214.18566 115.395744 214.18566 115.395744 208.752769 120.789679 208.752769 120.789679 203.10462 120.716261 203.173043 131.773828 203.173043 131.703906 203.103621 131.703906 208.459099 137.26765 208.459099 137.26765 203.103621"></polygon>
                            <polygon id="Path" fill="#F15A24" points="27.392199 137.173756 16.3411253 137.168761 16.4120456 137.239682 16.4120456 120.894561 10.9616742 120.894561 10.9616742 126.032783 5.54376634 126.032783 5.54376634 109.831501 10.7579033 109.831501 10.7579033 104.413593 16.2816921 104.413593 16.2816921 109.626731 27.1924236 109.626731 27.1924236 115.145026 22.0576973 115.145026 22.0576973 131.755348 27.392199 131.755348 27.3237759 131.681931 27.3237759 137.245675"></polygon>
                            <polygon id="Path" fill="#F15A24" points="104.305714 197.605803 87.7573218 197.605803 87.8257448 197.679221 87.7568223 192.11248 98.8813135 192.11248 98.8813135 186.59019 104.303217 186.59019 104.303217 181.328107 120.792176 181.328107 120.792176 186.690077 115.433202 186.690077 115.433202 192.116476 120.792176 192.116476 120.718758 203.172544 120.792176 203.104121 115.348297 203.104121 115.348297 197.605304 109.732612 197.605304 109.801035 197.678721 109.801035 192.323743 104.237291 192.323743 104.237291 197.677722"></polygon>
                            <polygon id="Path" fill="#F15A24" points="219.683978 71.3138116 219.683978 65.7490688 208.625412 65.7490688 208.696333 65.8199891 208.696333 60.3821037 203.216494 60.3821037 203.216494 49.2676013 192.143945 49.2676013 192.214366 49.3385216 192.214366 43.987039 208.561984 43.987039 208.561984 49.355003 214.178169 49.355003 214.107248 49.2840828 214.107248 60.1913182 224.966038 60.1913182 224.966038 71.2428913 219.613057 71.2428913"></polygon>
                            <polygon id="Path" fill="#F15A24" points="137.201225 175.630513 137.201225 181.096367 142.589666 181.096367 142.589666 186.520268 137.41049 186.520268 137.41049 192.118973 148.098471 192.118973 148.098471 197.540876 137.201225 197.540876 137.201225 203.177039 137.270147 203.103621 131.706403 203.103621 131.776325 203.173043 131.776325 197.556359 126.21358 197.556359 126.21358 192.11248 131.576549 192.11248 131.576549 181.050419 126.214079 181.050419 126.214079 170.13719 131.776325 170.210108 131.706403 170.140686 131.706403 175.702432 137.270147 175.702432"></polygon>
                            <polygon id="Path" fill="#F15A24" points="82.334919 32.8630473 82.334919 22.016244 87.7623162 22.016244 87.7623162 27.2134 104.143896 27.2134 104.143896 16.5254181 109.732112 16.5254181 109.732112 32.8685412 109.800535 32.7951237 104.236792 32.7951237 104.236792 38.3568698 104.306713 38.2874479 98.742969 38.2874479 98.8128904 38.3568698 98.8128904 33.0028901 93.2491465 33.0028901 93.2491465 38.3568698 93.3185685 38.2874479 87.7013847 38.2874479 87.7013847 32.7936254 82.257506 32.7936254"></polygon>
                            <polygon id="Path" fill="#F15A24" points="76.7591886 214.155694 82.2315352 214.155694 82.2315352 219.603069 109.646708 219.603069 109.646708 224.935572 76.8306082 224.935572 76.8306082 214.084774"></polygon>
                            <path d="M192.206874,148.161401 L186.780476,148.161401 L186.780476,153.620263 L181.146311,153.620263 L181.146311,159.220965 L181.219728,159.152542 L175.655985,159.152542 L175.725407,159.221964 C175.701433,153.705833 175.677127,148.189203 175.652489,142.672073 L181.151305,142.672073 L181.151305,137.173256 L186.716548,137.178251 L186.716548,142.793437 L192.137452,142.793437 L192.137452,148.23332 L192.206874,148.161401 Z" id="Path" fill="#F15A24"></path>
                            <polygon id="Path" fill="#F15A24" points="49.3724834 186.623153 43.9335991 186.623153 43.9335991 181.229218 32.8860215 181.229218 32.8860215 175.630513 32.8175984 175.703931 38.3808429 175.703931 38.3808429 170.140686 38.3114209 170.210108 43.9390929 170.210108 43.9390929 175.635508 54.8663059 175.635508 54.8663059 181.250694 49.2990659 181.250694 49.2990659 186.690077"></polygon>
                            <polygon id="Path" fill="#F15A24" points="170.168655 214.082276 170.168655 219.546133 164.724776 219.546133 164.724776 224.993507 148.413118 224.993507 148.413118 214.296535 153.69368 214.296535 153.69368 219.503181 159.112587 219.503181 159.112587 214.153696 170.237078 214.153696"></polygon>
                            <polygon id="Path" fill="#F15A24" points="109.732612 197.605803 109.732612 213.942933 98.8388612 213.942933 98.8388612 208.732292 93.4848814 208.732292 93.4848814 203.231977 104.304216 203.231977 104.304216 197.605803 104.235793 197.679221 109.799537 197.679221"></polygon>
                            <polygon id="Path" fill="#F15A24" points="60.355134 82.2355307 54.9067604 82.2355307 54.9067604 87.7293532 43.8062423 87.7293532 43.8746654 87.8027707 43.8746654 82.1760975 49.3684879 82.1760975 49.3684879 71.2518812 49.2990659 71.3213032 54.8613115 71.2478857 54.8613115 76.7467026 60.3601284 76.7467026 60.2867109 82.3089482"></polygon>
                            <path d="M137.201724,16.3870736 L142.766966,16.3820793 L142.694048,16.3136562 C142.717023,21.8317847 142.73983,27.3500797 142.762472,32.8685412 L137.152779,32.8685412 L137.152779,38.1346197 L131.784815,38.1346197 L131.784815,27.306795 L131.713895,27.3772158 L137.269648,27.3772158 L137.269648,16.3136562 L137.201724,16.3870736 Z" id="Path" fill="#F15A24"></path>
                            <polygon id="Path" fill="#F15A24" points="65.8539509 131.684928 60.4100722 131.684928 60.4100722 120.687294 54.7978828 120.687294 54.8688031 120.758214 54.8663059 115.20346 54.7928884 115.271883 71.1499958 115.271883 71.1499958 120.832131 65.7805334 120.832131 65.7805334 131.751852"></polygon>
                            <polygon id="Path" fill="#F15A24" points="219.613057 71.2428913 219.613057 76.7042503 224.990011 76.7042503 224.990011 87.6419515 219.756396 87.6419515 219.756396 82.3409122 208.800216 82.3409122 208.800216 76.8430942 214.047316 76.8430942 214.047316 71.314311 219.683478 71.314311"></polygon>
                            <polygon id="Path" fill="#F15A24" points="192.139949 54.8438312 197.49343 54.8438312 197.49343 65.7081149 192.133956 65.7081149 192.133956 71.3198048 192.207373 71.2513818 186.839909 71.2513818 186.839909 60.2063014 192.21087 60.2063014 192.21087 54.7704137"></polygon>
                            <path d="M16.3411253,76.7367138 L16.3411253,82.1516251 L10.927213,82.1516251 C10.927213,84.1638624 10.927213,85.934871 10.9247158,87.7088762 L10.9941377,87.6294655 L5.53028151,87.6294655 L5.53028151,82.3763723 L0.0499438409,82.3763723 L0.0499438409,76.8081335 L16.4120456,76.8081335 L16.3411253,76.7367138 Z" id="Path" fill="#F15A24"></path>
                            <path d="M126.285998,10.8877573 C126.285998,9.03517378 126.287663,7.18275672 126.290993,5.33050614 L126.220073,5.4014264 L131.660955,5.4014264 L131.660955,0.0179797827 L137.201724,0.0179797827 L137.201724,16.3870736 L137.269648,16.3136562 L131.651965,16.3136562 L131.651965,10.8198337 L126.212581,10.8198337 L126.285998,10.8877573 Z" id="Path" fill="#F15A24"></path>
                            <path d="M192.143945,49.2676013 C192.143945,51.1265111 192.142613,52.9852544 192.139949,54.8438312 L192.208372,54.7704137 L175.656983,54.7704137 L175.725407,54.8438312 L175.725407,44.0035205 L181.119341,44.0035205 L181.119341,49.339021 L192.215365,49.339021 L192.143945,49.2676013 Z" id="Path" fill="#F15A24"></path>
                            <path d="M214.031334,164.820668 L219.518164,164.820668 L219.518164,159.355314 L224.997003,159.355314 L224.997003,175.468695 L219.710947,175.468695 L219.710947,170.274536 L214.098258,170.274536 C214.098258,168.316737 214.098258,166.528748 214.101255,164.742756 L214.031334,164.820668 Z" id="Path" fill="#F15A24"></path>
                            <path d="M159.25193,197.671729 L159.25193,192.200381 L153.847507,192.200381 L153.847507,181.353578 L159.163529,181.353578 L159.163529,186.768989 C161.230206,186.768989 163.033678,186.768989 164.840226,186.768989 C164.843143,186.768989 164.760736,186.699067 164.763233,186.702064 C164.76623,190.248077 164.76623,193.788096 164.76623,197.598312 L159.18101,197.598312 L159.25193,197.671729 Z" id="Path" fill="#F15A24"></path>
                            <polygon id="Path" fill="#F15A24" points="38.3124198 126.263524 43.6718934 126.263524 43.6718934 137.173756 32.8185973 137.173756 32.8870204 137.247173 32.8870204 131.683929 32.8175984 131.753351 38.3808429 131.753351 38.3808429 126.190106"></polygon>
                            <polygon id="Path" fill="#F15A24" points="203.127594 142.667578 203.127594 153.51588 192.206874 153.51588 192.206874 148.161401 192.138451 148.234818 197.754136 148.234818 197.754136 142.740996 203.198015 142.740996"></polygon>
                            <polygon id="Path" fill="#F15A24" points="27.392199 131.757346 27.392199 120.909044 38.3124198 120.909044 38.3124198 126.263524 38.3808429 126.190106 32.8175984 126.190106 32.8175984 131.751852 32.8870204 131.68243 27.3237759 131.68243"></polygon>
                            <polygon id="Path" fill="#F15A24" points="16.3411253 54.7614238 16.3411253 60.1273901 0.0554376634 60.1273901 0.0554376634 54.833343 16.4120456 54.833343"></polygon>
                            <polygon id="Path" fill="#F15A24" points="115.293359 32.8685412 115.293359 16.3870736 120.787182 16.3870736 120.718758 16.3136562 120.792176 32.8635468 115.224936 32.7951237"></polygon>
                            <polygon id="Path" fill="#F15A24" points="214.178169 49.355003 214.178169 43.9860401 224.988013 43.9860401 224.988013 54.6810142 219.747406 54.6810142 219.747406 49.2835833 214.109246 49.2835833"></polygon>
                            <polygon id="Path" fill="#F15A24" points="87.7573218 197.605803 87.7573218 208.598443 76.7636835 208.598443 76.8371009 208.666866 76.7636835 203.10462 82.2625004 203.10462 82.2625004 197.605803 87.824746 197.679221"></polygon>
                            <path d="M43.9570727,104.110434 L27.4915872,104.110434 L27.4915872,98.9527331 L43.8906474,98.9527331 C43.8906474,100.628848 43.8906474,102.407848 43.8876508,104.190344 L43.9570727,104.110434 Z" id="Path" fill="#F15A24"></path>
                            <path d="M5.42440056,98.7829241 L5.42440056,93.310078 L10.987645,93.310078 C10.987645,91.2429024 10.987645,89.4394303 10.987645,87.6324622 L10.9207203,87.7088762 C12.6427839,87.7058796 14.3618509,87.7058796 16.2212601,87.7058796 L16.2212601,98.7120038 L5.35397975,98.7120038 L5.42440056,98.7829241 Z" id="Path" fill="#F15A24"></path>
                            <polygon id="Path" fill="#F15A24" points="203.127594 219.581093 203.127594 224.941066 192.339725 224.941066 192.339725 214.15919 197.70619 214.15919 197.632773 214.090767 197.632773 219.653012 203.196517 219.653012"></polygon>
                            <polygon id="Path" fill="#F15A24" points="54.8548188 5.3195185 49.3984542 5.3195185 49.3984542 10.7134533 44.0444744 10.7134533 44.0444744 0.0499438409 54.7824002 0.0499438409 54.7824002 5.38894044"></polygon>
                            <polygon id="Path" fill="#F15A24" points="192.139949 87.8067662 197.700697 87.8067662 197.632273 87.7333487 197.632273 98.7889174 197.702195 98.7194954 186.640134 98.7889174 186.640134 93.1742308 192.207373 93.1742308 192.207373 87.7333487"></polygon>
                            <polygon id="Path" fill="#F15A24" points="43.8062423 87.7293532 43.8062423 93.091324 32.8860215 93.091324 32.8860215 87.7293532 32.8175984 87.8027707 43.8746654 87.8027707"></polygon>
                            <path d="M203.190524,164.725276 L203.190524,159.370796 L214.036827,159.370796 C214.036827,161.121827 214.036827,162.966753 214.033831,164.814675 C214.033831,164.818171 214.103752,164.735264 214.10132,164.738261 C210.438707,164.711291 206.778156,164.68249 203.119603,164.651858 L203.190524,164.725276 Z" id="Path" fill="#F15A24"></path>
                            <polygon id="Path" fill="#F15A24" points="219.603069 214.098758 219.603069 224.92908 214.314016 224.92908 214.314016 214.169678 219.673989 214.169678"></polygon>
                            <path d="M192.133956,76.7467026 C192.133956,80.4335569 192.135621,84.1202448 192.13895,87.8067662 L192.207373,87.7333487 L186.848399,87.7333487 L186.848399,76.8136273 L192.207373,76.8136273 L192.133956,76.7467026 Z" id="Path" fill="#F15A24"></path>
                            <polygon id="Path" fill="#F15A24" points="43.8007485 109.71613 43.8007485 115.067113 33.0173738 115.067113 33.0173738 109.787051 43.869671 109.787051"></polygon>
                            <polygon id="Path" fill="#F15A24" points="16.3411253 137.168761 16.327141 142.735502 16.3980613 142.665081 5.35397975 142.665081 5.42440056 142.736001 5.42440056 137.185742 5.35348031 137.256163 16.4095484 137.242179"></polygon>
                            <polygon id="Path" fill="#F15A24" points="54.7978828 120.687294 54.7978828 126.045769 49.4983419 126.045769 49.4983419 120.758714 54.8688031 120.758714"></polygon>
                            <polygon id="Path" fill="#F15A24" points="192.133956 71.3198048 197.49293 71.3198048 197.49293 76.7462032 192.133956 76.7462032 192.207373 76.8146262 192.207373 71.2518812"></polygon>
                            <polygon id="Path" fill="#F15A24" points="5.42689775 137.183245 0.0689225005 137.183245 0.0689225005 131.883205 5.3559775 131.883205 5.3559775 137.253666"></polygon>
                            <path d="M32.8960103,142.677068 L27.392199,142.677068 L27.392199,137.173756 L27.3237759,137.247173 L32.8870204,137.247173 L32.8185973,137.173756 C32.8205951,139.031667 32.8227593,140.889577 32.82509,142.747488 L32.8960103,142.677068 Z" id="Path" fill="#F15A24"></path>
                            <polygon id="Path" fill="#F15A24" points="208.625412 65.7490688 208.625412 71.1075435 203.325372 71.1075435 203.325372 65.8204885 208.695833 65.8204885"></polygon>
                            <polygon id="Path" fill="#F15A24" points="5.35397975 142.662584 5.35397975 148.021059 0.0539393482 148.021059 0.0539393482 142.734004 5.42440056 142.734004"></polygon>
                            <polygon id="Path" fill="#F15A24" points="16.327141 142.735502 21.6891118 142.735502 21.6891118 148.156406 16.3416248 148.156406 16.4120456 148.227327 16.3985607 142.665081"></polygon>
                            <polygon id="Path" fill="#F15A24" points="219.686974 148.045531 219.686974 142.904811 224.960045 142.904811 224.960045 148.045531"></polygon>
                            <polygon id="Path" fill="#F15A24" points="16.3416248 148.156406 16.3416248 153.514881 11.0415844 153.514881 11.0415844 148.227826 16.4120456 148.227826"></polygon>
                            <polygon id="Path" fill="#F15A24" points="54.8663059 115.20346 49.3724834 115.20346 49.3724834 109.709638 49.2990659 109.778061 54.7928884 109.778061 54.7928884 115.271883"></polygon>
                            <polygon id="Path" fill="#F15A24" points="65.8539509 87.7343476 60.355134 87.7343476 60.355134 82.2355307 60.2867109 82.3089482 65.7805334 82.3089482 65.7805334 87.8027707"></polygon>
                            <polygon id="Path" fill="#F15A24" points="181.146311 159.220965 186.505285 159.220965 186.505285 164.647363 181.146311 164.647363 181.219728 164.715786 181.219728 159.153041"></polygon>
                            <path d="M38.3898328,49.282085 L33.0318575,49.282085 L33.0318575,43.9820446 L38.3184131,43.9820446 C38.3184131,45.7766933 38.3184131,47.5668471 38.3184131,49.3525058 L38.3898328,49.282085 Z" id="Path" fill="#F15A24"></path>
                            <polygon id="Path" fill="#F15A24" points="5.35397975 164.637874 5.35397975 169.996349 0.0539393482 169.996349 0.0539393482 164.709294 5.42440056 164.709294"></polygon>
                            <polygon id="Path" fill="#F15A24" points="16.4120456 175.696439 16.4120456 170.352448 21.7015978 170.352448 21.7015978 175.626518 16.3416248 175.626518"></polygon>
                            <polygon id="Path" fill="#F15A24" points="164.664844 38.2899451 164.664844 43.7837676 159.171021 43.7837676 159.244438 43.8521906 159.171021 38.2899451 164.738261 38.3583681"></polygon>
                            <polygon id="Path" fill="#F15A24" points="0.0054938225 181.025447 0.0054938225 175.852264 5.22362632 175.852264 5.22362632 181.026446"></polygon>
                            <polygon id="Path" fill="#F15A24" points="16.3416248 175.625519 16.3416248 180.983994 11.0415844 180.983994 11.0415844 175.696939 16.4120456 175.696939"></polygon>
                            <polygon id="Path" fill="#F15A24" points="49.3724834 104.28274 49.3724834 98.7889174 54.8663059 98.7889174 54.7928884 98.7204943 54.7928884 104.214317 49.2990659 104.214317"></polygon>
                            <polygon id="Path" fill="#F15A24" points="175.664475 32.8710383 181.008466 32.8710383 181.008466 38.1600911 175.735395 38.1600911 175.735395 32.8001181"></polygon>
                            <polygon id="Path" fill="#F15A24" points="170.158666 32.7961226 170.158666 38.2899451 164.664844 38.2899451 164.738261 38.3583681 164.738261 32.8645456 170.232083 32.8645456"></polygon>
                            <polygon id="Path" fill="#F15A24" points="197.700697 87.8067662 197.700697 82.447792 203.127095 82.447792 203.127095 87.8067662 203.196017 87.7333487 197.632273 87.7333487"></polygon>
                            <polygon id="Path" fill="#F15A24" points="5.35397975 98.7120038 5.35397975 104.070479 0.0539393482 104.070479 0.0539393482 98.7834235 5.42440056 98.7834235"></polygon>
                            <polygon id="Path" fill="#F15A24" points="76.7636835 32.8630473 82.3339201 32.8630473 82.2610021 32.7946243 82.2610021 38.3623637 76.7671796 38.3623637 76.8361021 32.7951237"></polygon>
                            <polygon id="Path" fill="#F15A24" points="175.735395 32.8001181 170.158666 32.7961226 170.232083 32.8645456 170.232083 27.3013012 170.158666 27.3697243 175.663476 27.3697243 175.663476 32.8710383"></polygon>
                            <polygon id="Path" fill="#F15A24" points="93.2406561 16.3780838 98.5991308 16.3780838 98.5991308 21.675627 93.3120758 21.675627 93.3120758 16.3071635"></polygon>
                            <polygon id="Path" fill="#F15A24" points="159.18101 197.600809 159.18101 202.959284 153.880969 202.959284 153.880969 197.672229 159.25193 197.672229"></polygon>
                            <polygon id="Path" fill="#F15A24" points="60.3651228 21.8124731 55.0071475 21.8124731 55.0071475 16.5129321 60.2942025 16.5129321 60.2942025 21.8833933"></polygon>
                            <polygon id="Path" fill="#F15A24" points="120.787182 16.3870736 120.787182 10.8877573 126.285998 10.8877573 126.212581 10.8193343 126.212581 16.3131568 120.718758 16.3131568"></polygon>
                            <polygon id="Path" fill="#F15A24" points="219.671991 214.169678 219.671991 208.811203 224.972031 208.811203 224.972031 214.098258 219.603069 214.098258"></polygon>
                            <polygon id="Path" fill="#F15A24" points="54.7838985 5.39043875 60.1423732 5.39043875 60.1423732 10.687982 54.8553182 10.687982 54.8553182 5.3195185"></polygon>
                            <polygon id="Path" fill="#F15A24" points="126.290993 5.33100558 120.933018 5.33100558 120.933018 0.0314646198 126.220073 0.0314646198 126.220073 5.40192583"></polygon>
                            <path d="M43.869671,109.787051 C43.8973066,107.897176 43.9256081,106.006135 43.9545755,104.11393 C43.9570727,104.110434 43.8851536,104.19334 43.8876508,104.190344 C45.7189249,104.219311 47.5472025,104.250276 49.3724834,104.283239 L49.2990659,104.214816 L49.2990659,109.776562 L49.3724834,109.708139 L43.7987507,109.714632 L43.869671,109.787051 Z" id="Path" fill="#F15A24"></path>
                            <polygon id="Path" fill="#FFFFFF" points="120.718758 16.3136562 126.212581 16.3136562 126.212581 10.8198337 131.651965 10.8198337 131.651965 16.3136562 137.26765 16.3136562 137.26765 27.3772158 131.713895 27.3772158 131.713895 22.0067546 126.42684 22.0067546 126.42684 27.306795 131.784815 27.306795 131.784815 38.1346197 137.152779 38.1346197 137.152779 32.8685412 142.762472 32.8685412 142.694048 32.7951237 142.694048 43.6399293 148.257293 43.6399293 148.257293 32.7951237 148.187871 32.8645456 153.751615 32.8645456 153.681693 32.7951237 153.681693 38.3568698 159.245437 38.3568698 159.17202 38.2884468 159.245437 43.8506923 153.672704 43.8506923 153.672704 60.3271655 153.743624 60.2562452 148.312231 60.2562452 148.312231 65.634198 142.689554 65.634198 142.689554 54.776407 148.058516 54.776407 148.058516 49.4903508 142.758476 49.4903508 142.758476 54.8488255 137.207718 54.8488255 137.207718 43.9835429 131.91367 43.9835429 131.91367 54.7754081 137.277139 54.7754081 137.277139 60.2152913 120.714264 60.2152913 120.714264 65.8259823 120.787182 65.7575593 115.224936 65.7575593 115.294358 65.8269812 115.294358 60.4720026 109.731113 60.4720026 109.731113 65.8259823 109.799537 65.7525649 104.237291 65.7525649 104.237291 54.7704137 126.045269 54.7704137 126.045269 49.4064452 120.792176 49.4064452 120.792176 43.7837676 120.718758 43.8521906 126.077733 43.8521906 126.077733 32.7951237 120.718758 32.7951237 120.792176 32.8635468"></polygon>
                            <path d="M87.8287415,109.776562 L87.8287415,104.325192 L93.1372723,104.325192 L93.1372723,93.3949825 L87.9206381,93.3949825 L87.9206381,98.5836482 L82.262001,98.5836482 L82.262001,87.7333487 L98.7184965,87.7333487 L98.7184965,93.1272835 L104.154384,93.1272835 L104.154384,87.8242465 L115.125048,87.8242465 L115.125048,82.3903566 L109.799537,82.3903566 L109.799537,65.7540632 L109.731113,65.8274807 L115.294358,65.8274807 L115.224936,65.7580587 L115.224936,76.8136273 L120.78818,76.8136273 L120.718758,76.7442054 L120.718758,82.3074498 L126.282502,82.3074498 L126.212581,82.2380279 L126.212581,87.8512162 L120.943506,87.8512162 L120.943506,93.2950948 L131.776325,93.2950948 L131.706403,93.2256729 L131.706403,109.557309 L126.177121,109.557309 L126.177121,104.402106 L120.659825,104.402106 L120.659825,109.708639 L87.7558235,109.708639 L87.8287415,109.776562 Z M98.8308702,104.048004 L115.075104,104.048004 L115.075104,93.3889893 L109.721624,93.3889893 L109.721624,98.8548432 L98.8308702,98.8548432 L98.8308702,104.048004 Z" id="Shape" fill="#FFFFFF"></path>
                            <polygon id="Path" fill="#FFFFFF" points="76.7691773 38.3623637 82.2629998 38.3623637 82.2629998 32.7951237 87.7068785 32.7951237 87.7068785 38.2889462 93.322564 38.2889462 93.322564 43.7617923 82.4348066 43.7617923 82.4348066 49.1946833 87.8287415 49.1946833 87.8287415 54.8383373 76.9235038 54.8383373 76.9235038 49.3944587 71.3477734 49.3944587 71.3477734 43.7837676 71.2743559 43.8521906 76.8376004 43.8521906 76.8376004 38.2889462"></polygon>
                            <polygon id="Path" fill="#FFFFFF" points="65.7805334 87.8012723 65.7805334 82.3074498 60.2867109 82.3074498 60.3601284 76.7452043 60.2867109 76.8136273 76.8380998 76.8136273 76.8380998 71.2518812 76.7696768 71.3252987 82.3314229 71.3252987 82.3314229 87.8012723 76.7696768 87.7278549 76.8376004 87.8012723 76.8376004 82.4472926 71.2743559 82.4472926 71.2743559 87.8012723 71.342779 87.7278549"></polygon>
                            <polygon id="Path" fill="#FFFFFF" points="43.8746654 87.8012723 32.8175984 87.8012723 32.8910159 82.2390268 32.8175984 82.3074498 38.3808429 82.3074498 38.3808429 76.7457037 38.3124198 76.8191212 43.7533018 76.8191212 43.7533018 71.2518812 49.3684879 71.2518812 49.3684879 82.1760975 43.8746654 82.1760975"></polygon>
                            <polygon id="Path" fill="#FFFFFF" points="65.7820318 60.3376537 76.7696768 60.3376537 76.7696768 71.3252987 76.8380998 71.2518812 65.8504548 71.2518812 65.8504548 60.2642362"></polygon>
                            <polygon id="Path" fill="#FFFFFF" points="54.8613115 71.2478857 49.2990659 71.3213032 49.2990659 55.0021531 54.7384497 55.0021531 54.7384497 60.3376537 60.3561329 60.3376537 60.2877098 60.2642362 60.2877098 65.8799217 54.7938873 65.8799217 54.7938873 71.3238003"></polygon>
                            <polygon id="Path" fill="#FFFFFF" points="60.2867109 27.3013012 65.7305896 27.3013012 65.7305896 38.3623637 71.3432784 38.3623637 71.2748554 38.2889462 71.2748554 43.8506923 71.3482728 43.7822693 60.2867109 43.7822693"></polygon>
                            <polygon id="Path" fill="#FFFFFF" points="32.8795288 71.2453885 27.5225524 71.2453885 27.5225524 60.4450329 38.221522 60.4450329 38.221522 65.6836424 32.8086085 65.6836424 32.8086085 71.3163088"></polygon>
                            <polygon id="Path" fill="#FFFFFF" points="60.355134 60.3376537 60.355134 49.489352 65.7815323 49.489352 65.7815323 60.3376537 65.8499554 60.2642362 60.2867109 60.2642362"></polygon>
                            <polygon id="Path" fill="#FFFFFF" points="93.249646 54.8383373 93.249646 49.4808615 104.307212 49.4808615 104.307212 54.8383373"></polygon>
                            <polygon id="Path" fill="#FFFFFF" points="87.7558235 54.7704137 93.3190679 54.7704137 93.3190679 65.6152193 87.7558235 65.6152193"></polygon>
                            <polygon id="Path" fill="#FFFFFF" points="93.4684 71.3857307 98.6390858 71.3857307 98.6390858 82.1526239 93.4684 82.1526239"></polygon>
                            <polygon id="Path" fill="#FFFFFF" points="32.8910159 82.2405251 27.5325412 82.2405251 27.5325412 76.8191212 32.8860215 76.8191212 32.8175984 76.7457037 32.8175984 82.3074498"></polygon>
                            <polygon id="Path" fill="#FFFFFF" points="32.8086085 71.3163088 38.3124198 71.3163088 38.3124198 76.8191212 38.3808429 76.7457037 32.8175984 76.7457037 32.8860215 76.8191212 32.8800282 71.2453885"></polygon>
                            <path d="M175.652489,142.672573 C175.676795,148.189369 175.701101,153.705999 175.725407,159.222463 L170.266545,159.222463 L170.266545,170.029811 L164.776218,170.029811 L164.776218,148.327214 L159.282396,148.327214 L159.282396,142.850373 L153.855498,142.850373 C153.855498,148.401631 153.855498,153.853001 153.852002,159.302373 C151.95913,159.272407 150.068257,159.244106 148.179381,159.217469 L148.179381,153.857496 L142.904811,153.857496 L142.904811,159.146549 L148.248802,159.146549 L148.248802,164.528996 L153.777086,164.528996 L153.777086,159.237946 L159.076627,159.237946 L159.076627,169.975872 L142.819408,169.975872 L142.819408,164.717285 L137.307106,164.717285 L137.307106,159.373294 L126.208086,159.373294 L126.208086,164.717285 L126.281503,164.648862 L120.71776,164.648862 L120.71776,170.20861 L120.787681,170.139188 L115.220441,170.139188 L115.220441,159.151543 L120.579415,159.151543 L120.579415,153.727142 L115.220441,153.727142 L115.220441,148.089482 L120.827636,148.089482 L120.827636,142.860361 L126.334444,142.860361 L126.334444,153.4984 L137.332078,153.4984 L137.332078,148.142922 L148.325217,148.142922 L148.325217,137.068374 L164.564956,137.068374 L164.564956,131.651965 L159.245437,131.651965 L159.245437,126.190106 L159.175516,126.259528 L170.255557,126.259528 L170.255557,131.810287 L175.656983,131.810287 L175.656983,137.245675 L175.726905,137.176253 L170.370927,137.176253 L170.370927,142.739497 L175.726905,142.739497 L175.652489,142.672573 Z" id="Path" fill="#FFFFFF"></path>
                            <path d="M197.490932,197.532885 L181.317618,197.532885 L181.317618,181.36107 L197.490932,181.36107 L197.490932,197.532885 Z M186.807445,186.762995 L186.807445,192.000606 L192.001605,192.000606 L192.001605,186.762995 L186.807445,186.762995 Z" id="Shape" fill="#FFFFFF"></path>
                            <polygon id="Path" fill="#FFFFFF" points="208.625412 175.625519 208.625412 186.469825 203.325372 186.469825 203.325372 175.696939 208.696333 175.696939"></polygon>
                            <polygon id="Path" fill="#FFFFFF" points="181.220727 159.153041 181.220727 164.714787 175.656983 164.714787 175.656983 159.153041"></polygon>
                            <polygon id="Path" fill="#FFFFFF" points="131.776325 170.20861 126.214079 170.135692 126.282502 170.20861 126.282502 164.646864 126.209085 164.715287 131.776325 164.715287"></polygon>
                            <polygon id="Path" fill="#FFFFFF" points="137.270147 175.702432 131.706403 175.702432 131.706403 170.140686 137.270147 170.140686"></polygon>
                            <polygon id="Path" fill="#FFFFFF" points="203.196017 219.653012 197.632273 219.653012 197.632273 214.091266 203.196017 214.091266"></polygon>
                            <polygon id="Path" fill="#FFFFFF" points="192.208372 71.2518812 192.208372 76.8136273 186.849398 76.8136273 186.849398 87.7318504 192.208372 87.7318504 192.208372 93.1727324 186.640134 93.1727324 186.640134 98.7889174 186.713551 98.7204943 181.358572 98.7204943 181.358572 104.28274 186.71455 104.28274 186.644628 104.213318 186.644628 109.860967 181.096367 109.860967 181.096367 115.294358 175.575076 115.294358 175.575076 120.594898 170.360939 120.594898 170.360939 109.626731 175.559094 109.626731 175.559094 104.194839 170.085249 104.194839 170.085249 98.888805 164.652358 98.888805 164.652358 104.292229 159.183008 104.292229 159.183008 98.9202697 153.895953 98.9202697 153.895953 104.219811 159.253928 104.219811 159.253928 115.357287 153.851503 115.357287 153.851503 120.78818 159.175516 120.78818 159.175516 126.25803 159.245437 126.188608 153.618764 126.188608 153.618764 131.755848 142.695547 131.755848 142.695547 120.66432 148.036541 120.66432 148.036541 115.270385 137.195731 115.270385 137.195731 109.655698 142.762971 109.655698 142.762971 104.214816 142.69305 104.284238 148.256294 104.284238 148.256294 93.2271712 148.186872 93.2965932 153.750616 93.2965932 153.750616 87.7333487 153.681693 87.8067662 159.143552 87.8067662 159.143552 93.1212903 181.056412 93.1212903 181.056412 87.8821814 175.652489 87.8821814 175.652489 82.2470178 181.021451 82.2470178 181.021451 76.9594634 175.721411 76.9594634 175.721411 82.3179381 164.779714 82.3179381 164.779714 76.8066352 153.842013 76.8066352 153.842013 71.4032111 175.51764 71.4032111 175.51764 65.8259823 170.323481 65.8259823 170.323481 60.4070756 175.658482 60.4070756 175.658482 54.7704137 192.209871 54.7704137 192.209871 60.2063014 186.839909 60.2063014 186.839909 71.2518812"></polygon>
                            <path d="M142.695047,82.3129437 L153.682692,82.3129437 L153.682692,87.8067662 L153.751615,87.7333487 L148.187871,87.7333487 L148.187871,93.2950948 L148.257293,93.2256729 L142.694048,93.2256729 L142.694048,104.28274 L142.76397,104.213318 L137.150282,104.213318 L137.150282,93.2256729 L131.706403,93.2256729 L131.776325,93.2950948 C131.776325,89.6092394 131.776325,85.9235504 131.776325,82.2380279 L131.707902,82.3114454 L137.269148,82.3114454 L137.200725,82.2380279 L137.200725,87.593506 L142.764469,87.593506 L142.764469,82.2395262 L142.695047,82.3129437 Z" id="Path" fill="#FFFFFF"></path>
                            <polygon id="Path" fill="#FFFFFF" points="120.714264 65.8259823 131.552077 65.8259823 131.552077 71.2019374 126.208086 71.2019374 126.208086 76.8136273 126.281503 76.7452043 120.71776 76.7452043 120.787182 76.8146262 120.787182 65.7580587"></polygon>
                            <polygon id="Path" fill="#FFFFFF" points="153.672704 60.3286638 164.515012 60.3286638 164.515012 65.626207 153.742126 65.626207 153.742126 60.2577435"></polygon>
                            <polygon id="Path" fill="#FFFFFF" points="126.208086 76.8136273 131.706403 76.8136273 131.706403 82.3124442 131.774827 82.2390268 126.212581 82.2390268 126.282502 82.3084487 126.282502 76.7457037"></polygon>
                            <polygon id="Path" fill="#FFFFFF" points="137.268649 82.3129437 137.268649 76.9539695 142.695047 76.9539695 142.695047 82.3129437 142.76397 82.2395262 137.200226 82.2395262"></polygon>
                            <path d="M49.2990659,186.690077 L49.2990659,181.250694 L54.8663059,181.250694 L54.8663059,175.635508 L54.7928884,175.703931 L60.3561329,175.703931 L60.3561329,170.140686 L60.2867109,170.210108 L65.8499554,170.210108 L65.8499554,159.153041 L65.7815323,159.226459 L71.342779,159.226459 L71.2743559,159.153041 L71.2743559,164.714787 L82.3314229,164.714787 L82.2585049,164.646364 L82.2585049,170.100232 L87.7523274,170.100232 L87.7523274,186.690077 L87.8257448,186.621654 L82.2075622,186.621654 L82.2075622,181.360071 L76.7686779,181.360071 L76.7686779,197.677722 L76.8385993,197.6083 L71.2748554,197.6083 L71.3442773,197.677722 L71.3442773,181.342091 L65.7805334,181.342091 L65.7805334,197.677722 L65.8489565,197.604305 L60.3781082,197.604305 L60.3781082,192.238838 L54.946216,192.238838 L54.946216,186.690077 L49.2990659,186.690077 Z M71.4636431,170.218599 L71.4636431,175.492668 L76.6043626,175.492668 L76.6043626,170.220097 L71.4636431,170.218599 Z" id="Shape" fill="#FFFFFF"></path>
                            <path d="M126.214079,170.13719 L126.214079,181.050419 L131.576549,181.050419 L131.576549,192.111981 L126.21358,192.111981 L126.282502,192.185398 L126.282502,186.622154 L120.718758,186.622154 L120.792176,186.690577 L120.792176,181.328107 L104.303217,181.328107 L104.303217,186.59019 L98.8813135,186.59019 L98.8813135,192.111981 L87.7568223,192.111981 L87.8252454,192.184899 C87.8252454,190.330317 87.8252454,188.475903 87.8252454,186.621654 L87.7518279,186.690077 L93.1812229,186.690077 L93.1812229,181.237708 L98.8163865,181.237708 L98.8163865,175.635508 L98.742969,175.703931 L104.098947,175.703931 L104.098947,170.140686 L98.7434685,170.140686 L98.8168859,170.209109 L98.8168859,164.73876 L93.4189556,164.73876 L93.4189556,159.306868 L98.8168859,159.306868 L98.8168859,153.660218 L98.7434685,153.728641 L104.358654,153.728641 L104.358654,159.149046 L109.799537,159.149046 L109.799537,175.502657 L120.787182,175.502657 L120.787182,170.140686 L120.71726,170.210108 L126.281004,170.210108 L126.214079,170.13719 Z" id="Path" fill="#FFFFFF"></path>
                            <polygon id="Path" fill="#FFFFFF" points="49.2990659 109.776562 49.2990659 104.214816 54.7928884 104.214816 54.7928884 98.7209937 65.8564481 98.7209937 65.8564481 104.276747 60.4859869 104.276747 60.4859869 109.563802 65.7860273 109.563802 65.7860273 104.205826 71.2234132 104.205826 71.2234132 109.782056 76.8366015 109.782056 76.7681784 109.708639 76.7681784 115.270385 82.3314229 115.270385 82.262001 115.200963 82.262001 120.85061 76.9394858 120.85061 76.9394858 131.772329 87.7558235 131.772329 87.7558235 137.245675 87.8242465 137.172257 76.8635712 137.172257 76.8635712 142.570188 71.4246869 142.570188 71.4246869 131.751852 65.7810329 131.751852 65.7810329 120.832131 71.1499958 120.832131 71.1499958 115.270385 54.7928884 115.270385 54.7928884 109.776562"></polygon>
                            <path d="M98.8168859,153.660218 L93.3775022,153.660218 L93.3775022,148.257792 L87.8242465,148.257792 L87.8242465,137.173756 L87.7558235,137.247173 L93.3879904,137.247173 L93.3879904,131.679933 L109.799537,131.679933 L109.799537,137.306606 L115.059622,137.306606 L115.059622,142.800429 L109.715631,142.800429 L109.715631,148.283264 L98.7434685,148.283264 L98.7434685,153.727142 L98.8168859,153.660218 Z M98.9002921,142.562197 L104.106438,142.562197 L104.106438,137.400501 L98.9002921,137.400501 L98.9002921,142.562197 Z" id="Shape" fill="#FFFFFF"></path>
                            <polygon id="Path" fill="#FFFFFF" points="54.8663059 175.635508 43.9390929 175.635508 43.9390929 170.20861 38.3114209 170.20861 38.3114209 164.744754 32.9919024 164.744754 32.9919024 159.388776 43.7508047 159.388776 43.7508047 164.530495 54.7009918 164.530495 54.7009918 159.298877 49.2990659 159.298877 49.2990659 153.659219 65.7805334 153.659219 65.7805334 159.226459 65.8489565 159.153041 60.2867109 159.153041 60.2867109 170.20861 60.3561329 170.139188 54.7928884 170.139188 54.7928884 175.702432"></polygon>
                            <polygon id="Path" fill="#FFFFFF" points="49.3684879 153.727142 32.8175984 153.727142 32.8175984 148.165396 49.3684879 148.165396"></polygon>
                            <polygon id="Path" fill="#FFFFFF" points="71.342779 159.226459 71.342779 148.378656 82.257506 148.378656 82.257506 153.727142 82.330424 153.658719 76.7137397 153.658719 76.7137397 159.152542 71.269861 159.152542"></polygon>
                            <polygon id="Path" fill="#FFFFFF" points="82.257506 153.727142 87.6194768 153.727142 87.6194768 164.647363 82.257506 164.647363 82.330424 164.715786 82.330424 153.659219"></polygon>
                            <polygon id="Path" fill="#FFFFFF" points="60.2922048 142.662584 60.2922048 148.021059 54.9921644 148.021059 54.9921644 142.734004 60.3626256 142.734004"></polygon>
                            <polygon id="Path" fill="#FFFFFF" points="98.8168859 175.635508 93.4579118 175.635508 93.4579118 170.20861 98.8168859 170.20861 98.7434685 170.140187 98.7434685 175.702432"></polygon>
                            <polygon id="Path" fill="#FFFFFF" points="203.196017 142.739497 197.752139 142.739497 197.752139 148.23332 192.138451 148.23332 192.138451 142.793936 186.717546 142.793936 186.717546 137.17875 186.644628 137.247173 192.288283 137.247173 192.288283 120.641845 197.502919 120.641845 197.502919 115.120553 192.308759 115.120553 192.308759 109.687163 197.702694 109.687163 197.702694 104.214816 197.633772 104.288234 203.071657 104.288234 203.071657 109.787051 208.683347 109.787051 208.612427 109.71613 208.612427 115.166002 214.002866 115.166002 214.002866 120.659825 208.765255 120.659825 208.765255 126.153647 203.196017 126.153647"></polygon>
                            <polygon id="Path" fill="#FFFFFF" points="197.632273 87.7333487 203.196017 87.7333487 203.196017 98.7889174 197.632273 98.7889174"></polygon>
                            <polygon id="Path" fill="#FFFFFF" points="186.640134 98.7889174 197.701196 98.7204943 197.632273 104.287734 197.701196 104.214317 186.64363 104.214317 186.713551 104.283739 186.713551 98.7209937"></polygon>
                            <polygon id="Path" fill="#FFFFFF" points="208.684346 109.787051 208.684346 104.423581 219.476711 104.423581 219.476711 109.717629 208.615424 109.717629"></polygon>
                            <path d="M5.50780678,32.666768 L5.50780678,5.47983823 L32.6672675,5.47983823 L32.6672675,32.666768 L5.50780678,32.666768 Z M27.2533551,11.0375888 L11.0815394,11.0375888 L11.0815394,27.1979175 L27.2533551,27.1979175 L27.2533551,11.0375888 Z" id="Shape" fill="#FFFFFF"></path>
                            <path d="M192.351711,5.46984946 L219.508175,5.46984946 L219.508175,32.6293102 L192.351711,32.6293102 L192.351711,5.46984946 Z M197.799086,10.963672 L197.799086,27.1824349 L213.973399,27.1824349 L213.973399,10.963672 L197.799086,10.963672 Z" id="Shape" fill="#FFFFFF"></path>
                            <path d="M5.48982699,219.438753 L5.48982699,192.287783 L32.6492877,192.287783 L32.6492877,219.438753 L5.48982699,219.438753 Z M27.2318793,214.021345 L27.2318793,197.793093 L11.0500748,197.793093 L11.0500748,214.021345 L27.2318793,214.021345 Z" id="Shape" fill="#FFFFFF"></path>
                            <polygon id="Path" fill="#FFFFFF" points="71.342779 203.099626 65.8489565 203.099626 65.8489565 197.605803 65.7805334 197.679221 71.3437779 197.679221 71.2743559 197.609799 71.2743559 203.171545"></polygon>
                            <polygon id="Path" fill="#FFFFFF" points="76.7636835 203.10462 76.8371009 208.666866 71.3432784 208.666866 71.3432784 203.099626 71.2748554 203.173043 76.8385993 203.173043"></polygon>
                            <polygon id="Path" fill="#FFFFFF" points="76.8380998 32.7951237 76.7691773 38.3623637 76.8376004 38.2889462 71.2743559 38.2889462 71.342779 38.3623637 71.342779 32.7951237"></polygon>
                            <path d="M142.762472,32.8685412 C142.739497,27.3500797 142.71669,21.8317847 142.694048,16.3136562 L153.64024,16.3136562 L153.64024,5.50880565 L164.577941,5.50880565 L164.577941,16.2357438 L159.171021,16.2357438 L159.171021,21.8754023 L159.244438,21.8069793 L148.186872,21.8069793 L148.186872,32.8630473 L148.256294,32.7936254 L142.694048,32.7936254 L142.762472,32.8685412 Z" id="Path" fill="#FFFFFF"></path>
                            <polygon id="Path" fill="#FFFFFF" points="170.233082 27.3013012 170.233082 32.8630473 164.73926 32.8630473 164.73926 38.3568698 159.171021 38.2899451 159.244438 38.3583681 159.244438 32.7951237 153.680695 32.7951237 153.750616 32.8645456 153.750616 27.2488602 159.244438 27.2488602 159.244438 21.8074787 159.171021 21.8759018 164.6149 21.8759018 164.6149 27.3013012"></polygon>
                            <polygon id="Path" fill="#FFFFFF" points="175.662477 5.3170213 175.662477 10.675496 170.362437 10.675496 170.362437 5.388441 175.733398 5.388441"></polygon>
                            <polygon id="Path" fill="#FFFFFF" points="38.3808429 170.140686 38.3808429 175.702432 32.8175984 175.702432 32.8175984 170.140686"></polygon>
                            <polygon id="Path" fill="#FFFFFF" points="115.224936 32.7951237 120.792176 32.8635468 120.718758 32.7951237 120.718758 43.8506923 120.792176 43.7822693 115.23043 43.7722805 115.30135 43.8432008"></polygon>
                            <polygon id="Path" fill="#FFFFFF" points="115.23043 43.7737788 115.23043 49.1322535 109.930389 49.1322535 109.930389 43.8451985 115.30135 43.8451985"></polygon>
                            <polygon id="Path" fill="#FFFFFF" points="98.7434685 38.2889462 104.307212 38.2889462 104.307212 43.6444243 98.7434685 43.6444243"></polygon>
                            <polygon id="Path" fill="#FFFFFF" points="104.237291 38.3568698 104.237291 32.7951237 109.801035 32.7951237 109.801035 38.3568698"></polygon>
                            <polygon id="Path" fill="#FFFFFF" points="93.249646 38.3568698 93.249646 33.0028901 98.8133898 33.0028901 98.8133898 38.3568698"></polygon>
                            <polygon id="Path" fill="#FFFFFF" points="76.7696768 87.7293532 76.7696768 98.5776549 71.342779 98.5776549 71.342779 87.7293532 71.2743559 87.8027707 76.8376004 87.8027707"></polygon>
                            <path d="M82.2629998,109.782056 L87.8287415,109.777062 L87.7558235,109.708639 L87.7468336,115.266889 L87.8177538,115.195969 L82.262001,115.202461 L82.3314229,115.271883 C82.3314229,113.417302 82.3314229,111.562887 82.3314229,109.708639 L82.2629998,109.782056 Z" id="Path" fill="#FFFFFF"></path>
                            <polygon id="Path" fill="#FFFFFF" points="76.8366015 109.782056 76.8366015 104.423082 82.2629998 104.423082 82.2629998 109.782056 82.3319223 109.708639 76.7681784 109.708639"></polygon>
                            <polygon id="Path" fill="#FFFFFF" points="126.21358 192.111981 126.21358 197.555859 131.776325 197.555859 131.776325 203.171545 120.718758 203.171545 120.792176 192.115477 120.718758 192.1839 126.282502 192.1839"></polygon>
                            <polygon id="Path" fill="#FFFFFF" points="131.706403 203.103621 137.270147 203.103621 137.270147 208.459099 131.706403 208.459099"></polygon>
                            <circle id="Oval" fill="#FFFFFF" cx="30.1056479" cy="134.465801" r="3.93407635"></circle>
                            <polygon id="Path" fill="#FFFFFF" points="120.792176 192.116975 115.433202 192.116975 115.433202 186.690077 120.792176 186.690077 120.718758 186.621654 120.718758 192.1839"></polygon>
                            <polygon id="Path" fill="#FFFFFF" points="87.8257448 197.677722 82.2634993 197.604305 82.3314229 197.677722 82.3314229 192.1839 87.8252454 192.1839 87.7568223 192.110982"></polygon>
                            <polygon id="Path" fill="#FFFFFF" points="109.801035 197.677722 104.237291 197.677722 104.237291 192.323743 109.801035 192.323743"></polygon>
                            <polygon id="Path" fill="#FFFFFF" points="186.717546 137.17875 181.152304 137.173756 181.220727 137.247173 181.220727 131.891695 186.644628 131.891695 186.644628 137.245675"></polygon>
                            <polygon id="Path" fill="#FFFFFF" points="181.152304 137.173756 181.152304 142.672573 175.652489 142.672573 175.725906 142.740996 175.725906 137.177751 175.655985 137.247173 181.219728 137.247173"></polygon>
                            <polygon id="Path" fill="#FFFFFF" points="60.3601284 76.7467026 54.8613115 76.7467026 54.8613115 71.2478857 54.7928884 71.3213032 60.2867109 71.3213032 60.2867109 76.8151257"></polygon>
                            <polygon id="Path" fill="#FFFFFF" points="32.8175984 131.751852 32.8175984 126.190106 38.3808429 126.190106 38.3808429 131.751852"></polygon>
                            <polygon id="Path" fill="#FFFFFF" points="82.2634993 197.605803 82.2634993 203.10462 76.7636835 203.10462 76.8371009 203.173043 76.8371009 197.609799 76.7671796 197.679221 82.330424 197.679221"></polygon>
                            <polygon id="Path" fill="#F15A24" points="159.245437 21.8074787 159.245437 27.2488602 153.751615 27.2488602 153.751615 32.8630473 148.187871 32.8630473 148.187871 21.8074787"></polygon>
                            <polygon id="Path" fill="#F15A24" points="120.718758 43.8506923 120.718758 32.7951237 126.077733 32.7951237 126.077733 43.8506923"></polygon>
                            <polygon id="Path" fill="#F15A24" points="142.694048 32.7951237 148.257293 32.7951237 148.257293 43.6399293 142.694048 43.6399293"></polygon>
                            <polygon id="Path" fill="#F15A24" points="137.278638 54.7754081 131.915169 54.7754081 131.915169 43.9835429 137.209216 43.9835429 137.209216 54.8463284"></polygon>
                            <polygon id="Path" fill="#F15A24" points="120.78818 65.7580587 120.78818 76.8136273 115.224936 76.8136273 115.224936 65.7580587"></polygon>
                            <polygon id="Path" fill="#F15A24" points="115.294358 65.8259823 109.731113 65.8259823 109.731113 60.4720026 115.294358 60.4720026"></polygon>
                            <polygon id="Path" fill="#F15A24" points="142.758476 54.8488255 142.758476 49.4903508 148.058516 49.4903508 148.058516 54.7774059 142.689554 54.7774059"></polygon>
                            <polygon id="Path" fill="#F15A24" points="153.681693 32.7951237 159.245437 32.7951237 159.245437 38.3568698 153.681693 38.3568698"></polygon>
                            <polygon id="Path" fill="#F15A24" points="131.784815 27.306795 126.42684 27.306795 126.42684 22.0067546 131.713895 22.0067546 131.713895 27.3772158"></polygon>
                            <path d="M82.262001,115.202461 L87.8177538,115.195969 C87.8177538,118.812236 87.8177538,122.433164 87.8177538,126.058754 L98.5956347,126.058754 L98.5956347,115.266889 L87.7468336,115.266889 L87.7558235,109.708639 L120.659825,109.708639 L120.659825,104.402106 L126.177121,104.402106 L126.177121,109.557808 L131.706403,109.557808 L131.706403,93.2261723 L137.150282,93.2261723 L137.150282,104.213817 L142.76397,104.213817 L142.76397,109.654699 L137.195731,109.654699 L137.195731,115.270385 L137.268649,115.201962 L131.634984,115.201962 L131.634984,120.607883 L126.217575,120.607883 L126.217575,115.411226 L120.718758,115.411226 L120.718758,126.25803 L120.78868,126.188608 L109.816018,126.161139 L109.816018,120.64584 L115.101075,120.64584 L115.101075,115.420216 L104.472526,115.420216 L104.472526,126.08872 C106.410347,126.08872 108.146395,126.08872 109.880446,126.091717 C109.828837,127.982258 109.778893,129.870301 109.730614,131.755848 L109.799037,131.68243 L93.387491,131.68243 L93.387491,137.245675 L87.7558235,137.245675 L87.7558235,131.773828 L76.9394858,131.773828 L76.9394858,120.852109 L82.262001,120.852109 L82.262001,115.202461 Z" id="Path" fill="#F15A24"></path>
                            <polygon id="Path" fill="#F15A24" points="98.8308702 104.048503 98.8308702 98.8543438 109.721624 98.8543438 109.721624 93.3889893 115.075104 93.3889893 115.075104 104.048503"></polygon>
                            <path d="M126.212581,82.2395262 L131.775825,82.2395262 C131.775825,85.9253817 131.775825,89.6110707 131.775825,93.2965932 L120.943006,93.2965932 L120.943006,87.8512162 L126.212082,87.8512162 L126.212581,82.2395262 Z" id="Path" fill="#F15A24"></path>
                            <polygon id="Path" fill="#F15A24" points="126.282502 76.7457037 126.282502 82.3074498 120.718758 82.3074498 120.718758 76.7457037"></polygon>
                            <polygon id="Path" fill="#F15A24" points="71.2743559 38.2889462 76.8376004 38.2889462 76.8376004 43.8506923 71.2743559 43.8506923"></polygon>
                            <polygon id="Path" fill="#F15A24" points="60.2867109 76.8136273 60.2867109 71.3198048 54.7928884 71.3198048 54.7928884 65.8759262 60.2867109 65.8759262 60.2867109 60.2642362 65.8499554 60.2642362 65.8499554 71.2518812 76.8376004 71.2518812 76.8376004 76.8136273"></polygon>
                            <polygon id="Path" fill="#F15A24" points="76.8376004 87.8012723 71.2743559 87.8012723 71.2743559 82.4472926 76.8376004 82.4472926"></polygon>
                            <polygon id="Path" fill="#F15A24" points="32.8175984 76.7457037 38.3808429 76.7457037 38.3808429 82.3074498 32.8175984 82.3074498"></polygon>
                            <polygon id="Path" fill="#F15A24" points="181.220727 137.245675 175.656983 137.245675 175.656983 131.810287 170.255557 131.810287 170.255557 126.25803 159.175516 126.25803 159.175516 120.78868 153.851503 120.78868 153.851503 115.357787 159.253928 115.357787 159.253928 104.22031 159.183008 104.29123 164.652358 104.29123 164.652358 98.888805 170.085249 98.888805 170.085249 104.196337 175.559094 104.196337 175.559094 109.626731 170.360939 109.626731 170.360939 120.595397 175.575076 120.595397 175.575076 115.295856 181.096367 115.295856 181.096367 109.862466 186.644129 109.862466 186.644129 104.214816 197.701695 104.214816 197.701695 109.687163 192.307761 109.687163 192.307761 115.120553 197.50192 115.120553 197.50192 120.641845 192.288782 120.641845 192.288782 137.245675 186.645128 137.245675 186.645128 131.891695 181.221227 131.891695"></polygon>
                            <polygon id="Path" fill="#F15A24" points="98.7434685 153.727142 98.7434685 148.283264 109.714632 148.283264 109.714632 142.800429 115.058623 142.800429 115.058623 137.306606 109.799537 137.306606 109.799537 131.679933 109.731113 131.753351 120.78868 131.753351 120.78868 126.190106 120.718758 126.259528 126.345432 126.259528 126.345432 131.753351 137.270147 131.753351 137.200226 131.683929 137.27664 137.239682 131.905679 137.239682 131.905679 142.526737 137.20572 142.526737 137.20572 137.168761 142.76397 137.168761 142.76397 131.683929 142.695547 131.757346 153.618764 131.757346 153.618764 126.190106 159.245437 126.190106 159.245437 131.651965 164.564956 131.651965 164.564956 137.067375 148.326215 137.067375 148.326215 148.141923 137.333077 148.141923 137.333077 153.494904 126.335443 153.494904 126.335443 142.856865 120.828635 142.856865 120.828635 148.085986 115.220441 148.085986 115.220441 153.727142 115.293858 153.658719 109.730115 153.658719 109.730115 159.220965 109.798538 159.147547 104.358654 159.147547 104.358654 153.727142"></polygon>
                            <polygon id="Path" fill="#F15A24" points="120.78868 170.140686 120.78868 175.502657 109.801035 175.502657 109.801035 159.149046 109.732612 159.222463 115.296356 159.222463 115.222938 159.15404 115.222938 170.141685"></polygon>
                            <polygon id="Path" fill="#F15A24" points="175.726905 137.177751 175.726905 142.739497 170.370927 142.739497 170.370927 137.177751"></polygon>
                            <polygon id="Path" fill="#F15A24" points="115.220441 153.727142 120.579415 153.727142 120.579415 159.153541 115.220441 159.153541 115.293858 159.221964 115.293858 153.659219"></polygon>
                            <polygon id="Path" fill="#F15A24" points="148.249801 159.146549 142.90581 159.146549 142.90581 153.857496 148.180379 153.857496 148.180379 159.217469"></polygon>
                            <path d="M148.179381,159.217469 C150.069255,159.244771 151.960129,159.273073 153.852002,159.302373 C153.855498,159.302373 153.773091,159.232452 153.775588,159.235449 C153.778585,160.951519 153.778585,162.665092 153.778585,164.529496 L148.250301,164.529496 L148.250301,159.146549 L148.179381,159.217469 Z" id="Path" fill="#F15A24"></path>
                            <polygon id="Path" fill="#F15A24" points="126.282502 170.20861 120.718758 170.20861 120.718758 164.646864 126.282502 164.646864"></polygon>
                            <polygon id="Path" fill="#F15A24" points="186.807445 186.762995 192.001605 186.762995 192.001605 192.000606 186.807445 192.000606"></polygon>
                            <path d="M137.195731,115.270385 L148.033545,115.270385 L148.033545,120.66432 L142.695547,120.66432 L142.695547,131.758844 L142.76397,131.685427 L137.200226,131.685427 L137.270147,131.754849 C137.270147,126.238052 137.270147,120.721089 137.270147,115.20396 L137.195731,115.270385 Z" id="Path" fill="#F15A24"></path>
                            <polygon id="Path" fill="#F15A24" points="142.694048 104.28274 142.694048 93.2271712 148.257293 93.2271712 148.257293 104.28274"></polygon>
                            <polygon id="Path" fill="#F15A24" points="175.721411 82.3179381 175.721411 76.9594634 181.021451 76.9594634 181.021451 82.2465184 175.652489 82.2465184"></polygon>
                            <polygon id="Path" fill="#F15A24" points="186.71455 98.7209937 186.71455 104.28274 181.358572 104.28274 181.358572 98.7209937"></polygon>
                            <polygon id="Path" fill="#F15A24" points="159.253928 104.219811 153.895953 104.219811 153.895953 98.9202697 159.183008 98.9202697 159.183008 104.290731"></polygon>
                            <polygon id="Path" fill="#F15A24" points="148.187871 93.2950948 148.187871 87.7333487 153.751615 87.7333487 153.751615 93.2950948"></polygon>
                            <polygon id="Path" fill="#F15A24" points="137.200226 82.2395262 142.76397 82.2395262 142.76397 87.5950043 137.200226 87.5950043"></polygon>
                            <path d="M82.3314229,197.677722 L76.7681784,197.677722 L76.7681784,181.360071 L82.2075622,181.360071 L82.2075622,186.622154 L87.8262443,186.622154 C87.8262443,188.476735 87.8262443,190.33115 87.8262443,192.185398 L82.3324218,192.185398 L82.3314229,197.677722 Z" id="Path" fill="#F15A24"></path>
                            <polygon id="Path" fill="#F15A24" points="82.3314229 153.659219 82.3314229 164.714787 71.2743559 164.714787 71.2743559 159.153041 76.7182346 159.153041 76.7182346 153.659219"></polygon>
                            <polygon id="Path" fill="#F15A24" points="71.3437779 197.677722 65.7805334 197.677722 65.7805334 181.342091 71.3437779 181.342091"></polygon>
                            <polygon id="Path" fill="#F15A24" points="60.2867109 170.20861 60.2867109 159.153041 65.8499554 159.153041 65.8499554 170.20861"></polygon>
                            <polygon id="Path" fill="#F15A24" points="54.7928884 175.702432 54.7928884 170.140686 60.3561329 170.140686 60.3561329 175.702432"></polygon>
                            <polygon id="Path" fill="#F15A24" points="71.4636431 170.220097 76.6043626 170.220097 76.6043626 175.492668 71.4636431 175.492668"></polygon>
                            <circle id="Oval" fill="#F15A24" cx="74.0562279" cy="200.391671" r="3.93407635"></circle>
                            <polygon id="Path" fill="#F15A24" points="98.7434685 175.702432 98.7434685 170.140686 104.099446 170.140686 104.099446 175.702432"></polygon>
                            <polygon id="Path" fill="#F15A24" points="120.718758 192.1839 120.718758 186.622154 126.282502 186.622154 126.282502 192.1839"></polygon>
                            <path d="M76.7681784,109.708639 L82.3319223,109.708639 C82.3319223,111.56322 82.3319223,113.417635 82.3319223,115.271883 L76.7681784,115.271883 L76.7681784,109.708639 Z" id="Path" fill="#F15A24"></path>
                            <polygon id="Path" fill="#F15A24" points="65.7860273 104.205826 65.7860273 109.564301 60.4859869 109.564301 60.4859869 104.277246 65.8564481 104.277246"></polygon>
                            <polygon id="Path" fill="#F15A24" points="98.9002921 142.562197 98.9002921 137.400501 104.106438 137.400501 104.106438 142.562197"></polygon>
                            <polygon id="Path" fill="#F15A24" points="27.2533551 11.0375888 27.2533551 27.1979175 11.0815394 27.1979175 11.0815394 11.0375888"></polygon>
                            <polygon id="Path" fill="#F15A24" points="197.799086 10.963672 213.973399 10.963672 213.973399 27.1824349 197.799086 27.1824349"></polygon>
                            <polygon id="Path" fill="#F15A24" points="27.2318793 214.021345 11.0500748 214.021345 11.0500748 197.793093 27.2318793 197.793093"></polygon>
                            <path d="M137.269648,115.202461 C137.269648,120.719258 137.269648,126.236221 137.269648,131.753351 L126.345432,131.753351 L126.345432,126.259528 L120.718758,126.259528 L120.718758,115.411226 L126.217575,115.411226 L126.217575,120.608383 L131.634984,120.608383 L131.634984,115.202461 L137.269648,115.202461 Z" id="Path" fill="#FFFFFF"></path>
                            <path d="M87.7468336,115.266889 L98.5961341,115.266889 L98.5961341,126.058254 L87.8182533,126.058254 C87.8182533,122.429002 87.8182533,118.808074 87.8182533,115.195469 L87.7468336,115.266889 Z" id="Path" fill="#FFFFFF"></path>
                            <path d="M109.882943,126.086223 L104.472526,126.086223 L104.472526,115.420216 L115.101075,115.420216 L115.101075,120.648338 L109.816018,120.648338 C109.816018,122.600642 109.816018,124.383138 109.816018,126.168131 L109.882943,126.086223 Z" id="Path" fill="#FFFFFF"></path>
                            <path d="M120.78868,126.190106 L120.78868,131.751852 L109.731113,131.751852 C109.780058,129.864974 109.830002,127.97693 109.880945,126.087721 L109.81402,126.164135 C113.473572,126.171461 117.131792,126.180117 120.78868,126.190106 Z" id="Path" fill="#FFFFFF"></path>
                            <polygon id="Path" fill="#FFFFFF" points="137.200226 131.683929 142.76397 131.683929 142.76397 137.168761 137.20572 137.168761 137.27664 137.239682"></polygon>
                            <polygon id="Path" fill="#FFFFFF" points="137.20572 137.168761 137.20572 142.527236 131.905679 142.527236 131.905679 137.240181 137.27664 137.240181"></polygon>
                            <polygon id="Path" fill="#FFFFFF" points="115.294857 153.659219 115.294857 159.220965 109.731113 159.220965 109.731113 153.659219"></polygon>
                        </g>
                    </g>
                </g>
            </g>
        </g>
    </g>
</svg>