<?xml version="1.0" encoding="UTF-8"?>
<svg width="229px" height="45px" viewBox="0 0 229 45" version="1.1" xmlns="http://www.w3.org/2000/svg" xmlns:xlink="http://www.w3.org/1999/xlink">
    <title>Group 21</title>
    <defs>
        <polygon id="path-1" points="0 0 13.6434632 0 13.6434632 33.049256 0 33.049256"></polygon>
        <polygon id="path-3" points="0 0 24.8546987 0 24.8546987 33.3219578 0 33.3219578"></polygon>
    </defs>
    <g id="Design" stroke="none" stroke-width="1" fill="none" fill-rule="evenodd">
        <g id="Health---Invisalign" transform="translate(-845.000000, -11666.000000)">
            <g id="Group-21" transform="translate(845.199831, 11666.820000)">
                <path d="M53.2449345,33.468306 C51.6945647,33.468306 50.3703124,33.3426852 49.2742711,33.0914437 C48.1761362,32.8391553 47.2831818,32.4905576 46.5922675,32.043557 C45.8992596,31.5965564 45.3967765,31.0658087 45.0827245,30.4502669 C44.7676258,29.8357719 44.6105998,29.1720755 44.6105998,28.4591775 C44.6105998,27.7609354 44.7477358,27.1987824 45.0199142,26.7727186 C45.2920925,26.3466548 45.6333623,26.0148066 46.046864,25.777174 C46.458272,25.5395413 46.8958511,25.3825154 47.3564606,25.3050492 C47.8170701,25.2286299 48.2368529,25.1898968 48.6137152,25.1898968 C48.6137152,26.0849449 48.7257271,26.887871 48.9487039,27.6007689 C49.1716808,28.31262 49.4867796,28.9176934 49.8919066,29.4128486 C50.2970336,29.9090507 50.7827673,30.2901004 51.3480608,30.5549508 C51.9144011,30.8208481 52.5466923,30.9537968 53.2449345,30.9537968 C53.9850502,30.9537968 54.6246694,30.8763307 55.162745,30.7224452 C55.7008207,30.5696066 56.1404934,30.3560513 56.4838568,30.0838729 C56.8251266,29.8116946 57.0805555,29.4965958 57.2480499,29.1406703 C57.4155443,28.7836979 57.4992915,28.4110229 57.4992915,28.0195048 C57.4992915,27.5442396 57.4113569,27.1223631 57.2375815,26.7517818 C57.0617124,26.3812005 56.7727846,26.031556 56.3676576,25.7038952 C55.9625306,25.3762343 55.4213144,25.0538077 54.7440091,24.7397557 C54.0656569,24.4246569 53.2239977,24.0938556 52.2190315,23.7442111 C51.0580861,23.3390841 50.0353237,22.9098797 49.1486503,22.4545044 C48.2598833,22.0012228 47.5134866,21.4840839 46.9052726,20.9041347 C46.2981056,20.3252323 45.837496,19.6615358 45.5223973,18.9140922 C45.2083453,18.1666486 45.0513193,17.3103336 45.0513193,16.3461942 C45.0513193,15.2009514 45.2711557,14.2022663 45.7118753,13.3490918 C46.151548,12.4969642 46.7754645,11.7882537 47.5867654,11.2219133 C48.3970194,10.6566198 49.3684867,10.2336966 50.5001205,9.95419033 C51.6317544,9.6746841 52.889009,9.53545441 54.2718843,9.53545441 C55.626495,9.53545441 56.7801125,9.65060679 57.7295962,9.88091154 C58.6790799,10.1112163 59.455835,10.4158467 60.0567211,10.792709 C60.6565603,11.1695713 61.0972799,11.5956351 61.3767861,12.0709004 C61.6552455,12.5461657 61.795522,13.0287588 61.795522,13.5165862 C61.795522,14.4807256 61.4573928,15.2145603 60.7790406,15.7170435 C60.1017352,16.2205734 58.9805698,16.4718149 57.4155443,16.4718149 C57.4155443,15.047066 57.0983518,13.9395095 56.4618732,13.1501923 C55.8264414,12.360875 54.8863793,11.9662164 53.6437805,11.9662164 C53.1821241,11.9662164 52.7393109,12.0227458 52.3122002,12.1337108 C51.8861364,12.2457227 51.516602,12.413217 51.20255,12.6372407 C50.8874513,12.8602176 50.6362097,13.1365833 50.4477785,13.465291 C50.2583005,13.7929519 50.1651318,14.1813295 50.1651318,14.6272832 C50.1651318,15.0889396 50.2520195,15.5013945 50.4268417,15.8646479 C50.601664,16.2279013 50.9094349,16.5733584 51.3480608,16.9020661 C51.7887803,17.229727 52.3865259,17.5615752 53.1402505,17.8965639 C53.895022,18.2325995 54.8591615,18.6031808 56.0326689,19.0083078 C56.9821526,19.3432965 57.8583575,19.7243462 58.6633773,20.1493632 C59.4652566,20.5764738 60.1582646,21.065348 60.737167,21.6170326 C61.3171162,22.169764 61.7683042,22.7978679 62.0886372,23.5023911 C62.410017,24.2090079 62.5712303,25.0161214 62.5712303,25.9237315 C62.5712303,27.1118947 62.3650029,28.1733903 61.952548,29.1092651 C61.5411399,30.0451398 60.9371134,30.8344571 60.1404683,31.4772167 C59.3438232,32.1199763 58.3660748,32.6130379 57.2061763,32.9553545 C56.0462778,33.2966243 54.7262128,33.468306 53.2449345,33.468306" id="Fill-1" fill="#55311B"></path>
                <path d="M81.8632317,33.0491513 L81.8632317,18.9241419 C81.8632317,18.001876 81.8035618,17.1811536 81.6852689,16.4609278 C81.566976,15.7417489 81.3701701,15.1377223 81.0990386,14.6488481 C80.8258134,14.1599739 80.4698879,13.7862521 80.0291684,13.5276827 C79.5894956,13.2691133 79.0545605,13.1393051 78.4264566,13.1393051 C77.7135587,13.1393051 77.1200005,13.3214552 76.6457821,13.6847087 C76.1705168,14.0479621 75.7884203,14.5336957 75.502633,15.1419097 C75.2157989,15.7490767 75.0106183,16.4546468 74.8849976,17.2575729 C74.7593768,18.0615459 74.6955195,18.9032051 74.6955195,19.7835974 L74.6955195,27.9772125 C74.6955195,28.5780985 74.7698452,29.0606917 74.9153559,29.4239451 C75.0629603,29.7871985 75.2681409,30.0698453 75.5340382,30.2729322 C75.7999355,30.4749723 76.1244559,30.6079209 76.5086461,30.6707313 C76.8928363,30.7335417 77.3220406,30.7649469 77.7973059,30.7649469 L77.9229267,30.7649469 L77.9229267,33.0491513 L64.7421667,33.0491513 L64.7421667,30.7649469 L64.8259139,30.7649469 C65.3137412,30.7649469 65.7607418,30.7335417 66.1669157,30.6707313 C66.5720427,30.6079209 66.9237808,30.4718318 67.2252707,30.261417 C67.5257137,30.052049 67.759159,29.7526528 67.9266534,29.3611347 C68.0951946,28.9696166 68.1789418,28.4524778 68.1789418,27.8097181 L68.1789418,14.9838369 C68.1789418,14.3829508 68.1046161,13.9014045 67.9580586,13.5381511 C67.811501,13.1748977 67.602133,12.8922509 67.3289078,12.689164 C67.0567295,12.4871239 66.7322092,12.3531284 66.3553468,12.2913649 C65.9774377,12.2275076 65.5513739,12.1971493 65.0771554,12.1971493 L64.9515347,12.1971493 L64.9515347,10.0385656 L73.9627317,10.0385656 L74.5280252,13.0974315 L74.7373931,13.0974315 C75.1707848,12.2871775 75.6282538,11.6454647 76.110847,11.1701994 C76.5923933,10.6949342 77.1063916,10.3316808 77.6517952,10.0804392 C78.1961519,9.82815082 78.7719137,9.66798433 79.3801277,9.59784606 C79.9872948,9.52875463 80.6269139,9.49316208 81.2979382,9.49316208 C82.8765726,9.49316208 84.2249023,9.77685567 85.3418804,10.3421492 C86.4599053,10.9084895 87.2774872,11.826568 87.794626,13.0974315 L88.1714883,13.0974315 C88.6038332,12.2871775 89.0759579,11.6454647 89.5857689,11.1701994 C90.0955799,10.6949342 90.6409834,10.3316808 91.2198859,10.0804392 C91.7998351,9.82815082 92.408049,9.66798433 93.0445276,9.59784606 C93.6799594,9.52875463 94.3331874,9.49316208 95.0042117,9.49316208 C96.1065341,9.49316208 97.099985,9.65437541 97.9803773,9.97470839 C98.8597227,10.297135 99.602979,10.7922903 100.211193,11.4633146 C100.81836,12.1343389 101.284204,12.989607 101.604537,14.0301658 C101.925917,15.0717714 102.08713,16.3185576 102.08713,17.7715712 L102.08713,27.7259709 C102.08713,28.3969953 102.1468,28.9308836 102.265093,29.3286827 C102.384432,29.7275287 102.561348,30.0311122 102.800028,30.2404802 C103.03766,30.450895 103.338103,30.5901247 103.70031,30.6602629 C104.063563,30.7304012 104.482299,30.7649469 104.958611,30.7649469 L105.084232,30.7649469 L105.084232,33.0491513 L95.5485684,33.0491513 L95.5485684,18.9241419 C95.5485684,17.0796101 95.2931395,15.6548612 94.7833285,14.6488481 C94.2724707,13.6428351 93.3899848,13.1393051 92.1327302,13.1393051 C91.4617059,13.1393051 90.8890845,13.3047058 90.4138192,13.6323667 C89.9385539,13.9610744 89.5512232,14.4038876 89.2507802,14.9629001 C88.9503372,15.5219125 88.7305008,16.1751405 88.5912711,16.9225842 C88.4509946,17.6700278 88.3819031,18.4562045 88.3819031,19.2800674 L88.3819031,27.7259709 C88.3819031,28.3969953 88.4405262,28.9308836 88.5588191,29.3286827 C88.6781588,29.7275287 88.8561216,30.0311122 89.0937542,30.2404802 C89.3313868,30.450895 89.6318299,30.5901247 89.9950833,30.6602629 C90.3572899,30.7304012 90.7833537,30.7649469 91.2732747,30.7649469 L91.3988955,30.7649469 L91.3988955,33.0491513 L81.8632317,33.0491513 Z" id="Fill-3" fill="#55311B"></path>
                <g id="Group-7" transform="translate(106.928345, 0.000000)">
                    <mask id="mask-2" fill="white">
                        <use xlink:href="#path-1"></use>
                    </mask>
                    <g id="Clip-6"></g>
                    <path d="M2.95522877,3.08032612 C2.95522877,2.53492259 3.04944435,2.06803203 3.23892235,1.67651395 C3.42630668,1.28499586 3.68487611,0.966756559 4.01358381,0.722842885 C4.34124467,0.47892921 4.72543488,0.296779084 5.16615443,0.178486187 C5.60582715,0.0591464489 6.08423294,-0.000523419898 6.6013718,-0.000523419898 C7.09024599,-0.000523419898 7.55818339,0.0591464489 8.00518398,0.178486187 C8.45218458,0.296779084 8.84370266,0.47892921 9.1786914,0.722842885 C9.51472698,0.966756559 9.78271797,1.28499586 9.98685173,1.67651395 C10.187845,2.06803203 10.2904353,2.53492259 10.2904353,3.08032612 C10.2904353,3.6110739 10.187845,4.07273026 9.98685173,4.4632015 C9.78271797,4.85471959 9.51472698,5.17609941 9.1786914,5.42734096 C8.84370266,5.67858252 8.45218458,5.86806052 8.00518398,5.9936813 C7.55818339,6.11930207 7.09024599,6.18211246 6.6013718,6.18211246 C6.08423294,6.18211246 5.60582715,6.11930207 5.16615443,5.9936813 C4.72543488,5.86806052 4.34124467,5.67858252 4.01358381,5.42734096 C3.68487611,5.17609941 3.42630668,4.85471959 3.23892235,4.4632015 C3.04944435,4.07273026 2.95522877,3.6110739 2.95522877,3.08032612 L2.95522877,3.08032612 Z M0.502483106,30.7650516 C0.823862926,30.7650516 1.16303902,30.7336464 1.5200114,30.6697892 C1.87593693,30.6080256 2.20359779,30.4782175 2.50404081,30.2824584 C2.80448384,30.0877462 3.05677223,29.80824 3.25881231,29.4449866 C3.46085239,29.0817332 3.56239585,28.592859 3.56239585,27.9773172 L3.56239585,14.9420679 C3.56239585,14.3694466 3.46085239,13.9119776 3.25881231,13.569661 C3.05677223,13.2273443 2.80134332,12.961447 2.49461925,12.7730159 C2.18684835,12.5845847 1.85500013,12.4621044 1.49802776,12.4066219 C1.14314907,12.3500926 0.810254008,12.3228748 0.502483106,12.3228748 L0,12.3228748 L0,10.0376235 L10.0810673,10.0376235 L10.0810673,27.9773172 C10.0810673,28.592859 10.1815639,29.0817332 10.3846509,29.4449866 C10.5866909,29.80824 10.8379325,30.0877462 11.1383755,30.2824584 C11.4388185,30.4782175 11.7706668,30.6080256 12.134967,30.6697892 C12.4971736,30.7336464 12.8332092,30.7650516 13.1399332,30.7650516 L13.6434632,30.7650516 L13.6434632,33.049256 L0,33.049256 L0,30.7650516 L0.502483106,30.7650516 Z" id="Fill-5" fill="#55311B" mask="url(#mask-2)"></path>
                </g>
                <path d="M122.971165,30.7648422 C123.292545,30.7648422 123.630674,30.733437 123.987647,30.6706266 C124.343572,30.6078162 124.671233,30.4790549 124.971676,30.2832959 C125.272119,30.0875369 125.523361,29.8080306 125.726448,29.4447772 C125.928488,29.0815238 126.031078,28.5926496 126.031078,27.9771078 L126.031078,5.32244762 C126.031078,4.74982624 125.928488,4.29235725 125.726448,3.95004063 C125.523361,3.60772402 125.268979,3.34182671 124.961208,3.15444238 C124.653437,2.96496438 124.322635,2.84353096 123.965663,2.78700161 C123.609737,2.7315191 123.277889,2.70325443 122.971165,2.70325443 L122.468682,2.70325443 L122.468682,0.43998677 L132.547656,0.43998677 L132.547656,27.9771078 C132.547656,28.5926496 132.649199,29.0815238 132.851239,29.4447772 C133.054326,29.8080306 133.305568,30.0875369 133.606011,30.2832959 C133.906454,30.4790549 134.239349,30.6078162 134.601555,30.6706266 C134.964809,30.733437 135.299798,30.7648422 135.607568,30.7648422 L136.111098,30.7648422 L136.111098,33.0490467 L122.468682,33.0490467 L122.468682,30.7648422 L122.971165,30.7648422 Z" id="Fill-8" fill="#55311B"></path>
                <path d="M147.869412,12.2804777 C146.668687,12.2804777 145.713969,12.8740359 145.009446,14.0621991 C144.303876,15.2493154 143.915499,16.9891632 143.84536,19.2806955 L151.264314,19.2806955 C151.264314,18.1909353 151.20255,17.2121401 151.075883,16.3464035 C150.950262,15.480667 150.751362,14.7468323 150.478137,14.1459463 C150.205959,13.5450602 149.856314,13.0844507 149.430251,12.7620241 C149.004187,12.4416911 148.483907,12.2804777 147.869412,12.2804777 M148.268258,33.4685154 C146.451991,33.4685154 144.848233,33.2026181 143.45803,32.6718703 C142.067826,32.1411225 140.904787,31.3727421 139.968912,30.366729 C139.033038,29.360716 138.327468,28.1275387 137.852202,26.668244 C137.376937,25.2079025 137.139304,23.5413335 137.139304,21.6695839 C137.139304,19.6575578 137.376937,17.8904923 137.852202,16.3673403 C138.327468,14.8441884 139.018382,13.5733249 139.927039,12.5526561 C140.834649,11.5330341 141.949533,10.7688411 143.268552,10.2579832 C144.589663,9.74817226 146.095019,9.49274334 147.785665,9.49274334 C149.336035,9.49274334 150.732519,9.7125797 151.977212,10.1532993 C153.219811,10.592972 154.275025,11.2472469 155.141809,12.1129834 C156.007545,12.9787199 156.671242,14.0548712 157.132898,15.3403905 C157.593507,16.6259098 157.824859,18.120797 157.824859,19.8250522 L157.824859,22.0255095 L143.761613,22.0255095 C143.803487,23.4649142 143.961559,24.701232 144.232691,25.7355097 C144.505916,26.7687406 144.882779,27.6208682 145.364325,28.2918925 C145.846918,28.9629169 146.434195,29.4591189 147.125109,29.7794519 C147.81707,30.1008317 148.609528,30.2620451 149.504576,30.2620451 C150.244692,30.2620451 150.929325,30.1751574 151.557429,29.9992883 C152.18658,29.8255129 152.756061,29.5805523 153.265872,29.2665004 C153.775683,28.9514016 154.222683,28.5818672 154.60792,28.1558034 C154.991064,27.7297396 155.309303,27.2722706 155.561591,26.7833964 C156.328925,27.2021323 156.713115,27.9003745 156.713115,28.8781228 C156.713115,29.4936646 156.545621,30.0767544 156.210632,30.628439 C155.874596,31.1811704 155.357458,31.6658572 154.659215,32.0845932 C153.959926,32.5043759 153.083722,32.8393647 152.029554,33.0906062 C150.974339,33.3428946 149.720225,33.4685154 148.268258,33.4685154" id="Fill-10" fill="#55311B"></path>
                <path d="M166.544825,26.6571475 C166.544825,27.8871843 166.740584,28.8094501 167.132102,29.4239451 C167.522574,30.0384401 168.137069,30.3451641 168.975587,30.3451641 C169.590082,30.3451641 170.144907,30.2164028 170.642156,29.9578334 C171.138358,29.699264 171.564422,29.33287 171.920348,28.8576048 C172.27732,28.3823395 172.548451,27.8065776 172.73793,27.1292723 C172.926361,26.4509201 173.021623,25.693008 173.021623,24.8544894 L173.021623,21.6270822 L171.093344,21.752703 C170.24017,21.7945766 169.520991,21.9317126 168.933714,22.1620174 C168.347483,22.3923221 167.878499,22.7105614 167.528855,23.1156884 C167.180257,23.5208155 166.929015,24.0170175 166.77513,24.6032478 C166.621245,25.1905249 166.544825,25.8751582 166.544825,26.6571475 M170.359509,12.1123553 C169.814106,12.1123553 169.356637,12.2275076 168.986056,12.4588592 C168.616521,12.689164 168.318172,13.0105438 168.095195,13.4229987 C167.872218,13.8344067 167.714145,14.3232809 167.624117,14.8896213 C167.533042,15.4549148 167.488028,16.0735971 167.488028,16.7446214 C165.560796,16.7446214 164.109876,16.5279256 163.139455,16.0945339 C162.167988,15.662189 161.682254,14.9210265 161.682254,13.8731398 C161.682254,13.0911505 161.916746,12.4201262 162.384684,11.8611137 C162.852621,11.3031481 163.488053,10.8488196 164.292026,10.4991751 C165.094952,10.1495306 166.031874,9.89514856 167.09965,9.73393523 C168.169521,9.57376874 169.311623,9.49316208 170.527004,9.49316208 C172.0355,9.49316208 173.352424,9.62297021 174.47673,9.88049281 C175.601036,10.1401091 176.537958,10.5557045 177.285402,11.1283259 C178.032845,11.7009472 178.594998,12.4515314 178.972907,13.3811251 C179.348723,14.3107189 179.538201,15.4454932 179.538201,16.786495 L179.538201,27.7259709 C179.538201,28.3132481 179.583215,28.8021223 179.67429,29.1925935 C179.765365,29.5841116 179.908782,29.895023 180.103494,30.1253278 C180.3003,30.3566794 180.566198,30.5199864 180.901186,30.6183893 C181.236175,30.7157454 181.641302,30.7649469 182.11552,30.7649469 L182.283015,30.7649469 L182.283015,33.0491513 L174.298768,33.0491513 L173.397439,30.0939226 L173.021623,30.0939226 C172.545311,30.6675908 172.099357,31.1669334 171.679574,31.5919503 C171.260839,32.019061 170.812791,32.371846 170.338573,32.6513522 C169.863307,32.9308585 169.328372,33.1360391 168.734814,33.2689877 C168.140209,33.4019364 167.438826,33.4678873 166.628572,33.4678873 C165.678042,33.4678873 164.794509,33.3286576 163.977974,33.0491513 C163.160392,32.7696451 162.447494,32.3404408 161.840327,31.7604916 C161.232113,31.1805423 160.753707,30.4540355 160.404063,29.5799242 C160.055465,28.7079067 159.880643,27.6778163 159.880643,26.4896531 C159.880643,24.1562472 160.679382,22.4310552 162.28,21.3130303 C163.879571,20.1960522 166.286256,19.5878383 169.500054,19.4894354 L173.021623,19.3638146 L173.021623,16.995863 C173.021623,16.282965 172.992312,15.6265965 172.936829,15.0257104 C172.881347,14.4248244 172.76096,13.9087324 172.580904,13.4753407 C172.398753,13.041949 172.129716,12.7069603 171.77379,12.4693276 C171.416818,12.231695 170.94574,12.1123553 170.359509,12.1123553" id="Fill-12" fill="#55311B"></path>
                <path d="M192.72095,33.468306 C191.171627,33.468306 189.846328,33.3426852 188.750286,33.0914437 C187.653198,32.8391553 186.759197,32.4905576 186.068283,32.043557 C185.375275,31.5965564 184.872792,31.0658087 184.55874,30.4502669 C184.243641,29.8357719 184.086615,29.1720755 184.086615,28.4591775 C184.086615,27.7609354 184.223751,27.1987824 184.495929,26.7727186 C184.768108,26.3466548 185.109378,26.0148066 185.522879,25.777174 C185.935334,25.5395413 186.371866,25.3825154 186.832476,25.3050492 C187.293085,25.2286299 187.712868,25.1898968 188.089731,25.1898968 C188.089731,26.0849449 188.201742,26.887871 188.424719,27.6007689 C188.647696,28.31262 188.962795,28.9176934 189.367922,29.4128486 C189.774096,29.9090507 190.258783,30.2901004 190.824076,30.5549508 C191.390416,30.8208481 192.022708,30.9537968 192.72095,30.9537968 C193.462112,30.9537968 194.100685,30.8763307 194.63876,30.7224452 C195.176836,30.5696066 195.617556,30.3560513 195.959872,30.0838729 C196.301142,29.8116946 196.556571,29.4965958 196.724065,29.1406703 C196.89156,28.7836979 196.975307,28.4110229 196.975307,28.0195048 C196.975307,27.5442396 196.887372,27.1223631 196.713597,26.7517818 C196.538775,26.3812005 196.2488,26.031556 195.843673,25.7038952 C195.438546,25.3762343 194.89733,25.0538077 194.220024,24.7397557 C193.541672,24.4246569 192.700013,24.0938556 191.695047,23.7442111 C190.534101,23.3390841 189.511339,22.9098797 188.624666,22.4545044 C187.736946,22.0012228 186.989502,21.4840839 186.381288,20.9041347 C185.774121,20.3252323 185.313511,19.6615358 184.998413,18.9140922 C184.684361,18.1666486 184.527335,17.3103336 184.527335,16.3461942 C184.527335,15.2009514 184.747171,14.2022663 185.187891,13.3490918 C185.627563,12.4969642 186.252527,11.7882537 187.063828,11.2219133 C187.873035,10.6566198 188.844502,10.2336966 189.976136,9.95419033 C191.10777,9.6746841 192.365024,9.53545441 193.7479,9.53545441 C195.10251,9.53545441 196.256128,9.65060679 197.206658,9.88091154 C198.156142,10.1112163 198.93185,10.4158467 199.532736,10.792709 C200.132576,11.1695713 200.573295,11.5956351 200.852801,12.0709004 C201.132308,12.5461657 201.271537,13.0287588 201.271537,13.5165862 C201.271537,14.4807256 200.933408,15.2145603 200.255056,15.7170435 C199.577751,16.2205734 198.456585,16.4718149 196.89156,16.4718149 C196.89156,15.047066 196.574367,13.9395095 195.937889,13.1501923 C195.302457,12.360875 194.362395,11.9662164 193.119796,11.9662164 C192.658139,11.9662164 192.215326,12.0227458 191.788216,12.1337108 C191.362152,12.2457227 190.992617,12.413217 190.678565,12.6372407 C190.363467,12.8602176 190.112225,13.1365833 189.923794,13.465291 C189.734316,13.7929519 189.641147,14.1813295 189.641147,14.6272832 C189.641147,15.0889396 189.728035,15.5013945 189.902857,15.8646479 C190.077679,16.2279013 190.38545,16.5733584 190.824076,16.9020661 C191.264796,17.229727 191.862541,17.5615752 192.616266,17.8965639 C193.371037,18.2325995 194.335177,18.6031808 195.508684,19.0083078 C196.458168,19.3432965 197.33542,19.7243462 198.139393,20.1493632 C198.941272,20.5764738 199.63428,21.065348 200.213182,21.6170326 C200.793132,22.169764 201.24432,22.7978679 201.565699,23.5023911 C201.887079,24.2090079 202.047246,25.0161214 202.047246,25.9237315 C202.047246,27.1118947 201.841018,28.1733903 201.428563,29.1092651 C201.017155,30.0451398 200.413129,30.8344571 199.616484,31.4772167 C198.819839,32.1199763 197.84209,32.6130379 196.682192,32.9553545 C195.522293,33.2966243 194.202228,33.468306 192.72095,33.468306" id="Fill-14" fill="#55311B"></path>
                <g id="Group-18" transform="translate(203.745639, 10.038042)">
                    <mask id="mask-4" fill="white">
                        <use xlink:href="#path-3"></use>
                    </mask>
                    <g id="Clip-17"></g>
                    <path d="M24.8551175,0 L24.8551175,2.28420445 C24.4217258,2.28420445 24.0417229,2.33340592 23.7130152,2.43076203 C23.3843075,2.52916497 23.0880519,2.70084669 22.8221546,2.94476037 C22.5573041,3.18867404 22.3112967,3.5111007 22.0883199,3.90785299 C21.865343,4.30669895 21.6413193,4.80604154 21.4183424,5.40692759 C20.9148124,6.83167656 20.3903457,8.28573705 19.8470358,9.76596853 C19.3005855,11.2472469 18.7530882,12.7316657 18.2014037,14.2192251 C17.6486723,15.7078313 17.0969877,17.1880627 16.5463499,18.6620132 C15.9936185,20.1370105 15.4586834,21.5858368 14.9415445,23.0105857 C14.4390614,24.394508 13.964843,25.609889 13.5167955,26.6577756 C13.069795,27.7056623 12.598717,28.6132724 12.102515,29.3816528 C11.6063129,30.1500332 11.0577689,30.7865118 10.4579296,31.2889949 C9.85704359,31.7925248 9.15775461,32.1934645 8.36215635,32.4939075 C7.56446442,32.7943505 6.64010488,33.0079059 5.58489035,33.1335266 C4.52967583,33.2591474 3.29649854,33.3219578 1.88640533,33.3219578 L1.15257062,33.3219578 L1.15257062,30.8283854 C2.64745786,30.8283854 3.91936823,30.6462353 4.96620803,30.2829819 C6.01514151,29.9197284 6.90181483,29.4025896 7.62832165,28.7326121 C8.35378164,28.0615878 8.952574,27.2586617 9.4205114,26.3227869 C9.88740195,25.3858652 10.2967163,24.3526344 10.6463608,23.2210005 L2.91335517,4.33810415 C2.74586081,3.93297714 2.5563828,3.61159732 2.34701484,3.37396469 C2.13764688,3.13737889 1.91362316,2.95522877 1.67599053,2.82960799 C1.43835789,2.70398721 1.1808353,2.62338055 0.901329071,2.58883484 C0.621822844,2.55324228 0.32033298,2.53544601 0,2.53544601 L0,0 L12.2386041,0 L12.2386041,2.28420445 C11.4000855,2.28420445 10.7405764,2.39307579 10.2590301,2.60872479 C9.77643693,2.82646747 9.53566378,3.24834391 9.53566378,3.87749463 C9.53566378,4.11512727 9.58381841,4.39777402 9.68222135,4.72648172 C9.77957745,5.05414257 9.87169935,5.3231804 9.95544654,5.53254836 C10.2066881,6.13343441 10.468398,6.78666245 10.7405764,7.49223248 C11.0127547,8.19780251 11.2776052,8.90337253 11.5361746,9.60894256 C11.7947441,10.3145126 12.0428451,10.9960053 12.2804777,11.6523739 C12.5181104,12.3087424 12.7274783,12.8886917 12.9096285,13.3911748 C13.1189964,13.9365783 13.2938187,14.428593 13.4330484,14.8693126 C13.5733249,15.3089853 13.6884773,15.7078313 13.7795523,16.0637568 C13.8695806,16.4207292 13.9428594,16.74839 13.9993887,17.048833 C14.0548712,17.3492761 14.0967448,17.6455317 14.1250095,17.9396937 C14.1522273,17.6455317 14.2087567,17.3210114 14.2925038,16.9650859 C14.376251,16.6081135 14.4673261,16.2668437 14.565729,15.938136 C14.6630851,15.6104752 14.7604412,15.3163132 14.8577973,15.0577437 C14.9562003,14.7991743 15.0252917,14.6138837 15.0682121,14.5029186 L17.8978201,6.0988887 C17.9522558,5.95861216 18.0056446,5.79425832 18.0548461,5.60582715 C18.1030007,5.41739599 18.1490617,5.2258243 18.1909353,5.03006526 C18.2328089,4.83430622 18.2642141,4.64587505 18.2851509,4.46372492 C18.3060877,4.28262164 18.3165561,4.12873619 18.3165561,4.00311541 C18.3165561,3.34674685 18.0433309,2.8955589 17.500021,2.65059838 C16.9535706,2.40668471 16.1862371,2.28420445 15.1938329,2.28420445 L15.1938329,0 L24.8551175,0 Z" id="Fill-16" fill="#55311B" mask="url(#mask-4)"></path>
                </g>
                <path d="M16.7247764,30.69931 C10.8635203,30.7296684 5.99780893,26.4679836 5.06926203,20.8642501 C5.06926203,20.8642501 12.4002812,22.7297186 16.3960687,22.7087818 C20.3918562,22.687845 28.2714194,20.7428167 28.2714194,20.7428167 C27.4025424,26.3559717 22.5818451,30.6689517 16.7247764,30.69931 M16.5792657,3.31584145 C7.37545011,3.36422908 -0.0476909363,10.8648363 0.000230726117,20.0696987 C0.0486183257,29.2745611 7.55027236,36.6966553 16.7540879,36.6487336 C25.9589503,36.600346 33.3810445,29.0997388 33.3331229,19.8948764 C33.2847353,10.690014 25.7841281,3.26791982 16.5792657,3.31584145" id="Fill-19" fill="#00B2A9"></path>
            </g>
        </g>
    </g>
</svg>