<?xml version="1.0" encoding="UTF-8"?>
<svg width="1440px" height="227px" viewBox="0 0 1440 227" version="1.1" xmlns="http://www.w3.org/2000/svg" xmlns:xlink="http://www.w3.org/1999/xlink">
    <title>wave</title>
    <g id="Design" stroke="none" stroke-width="1" fill="none" fill-rule="evenodd" opacity="0.5">
        <g id="Health---Invisalign" transform="translate(-281.000000, -10230.000000)" fill-rule="nonzero">
            <g id="Group-23" transform="translate(-17.000000, 2904.000000)">
                <g id="Group-22" transform="translate(398.000000, 7088.000000)">
                    <g id="wave" transform="translate(-100.000000, 238.000000)">
                        <path d="M0,199.032912 L6.2,191.353292 C12.3,183.96076 25,168.170887 37,153.098735 C49.2,138.026583 62,122.23671 74,99.4849383 C86.2,76.3025335 98,46.1582301 111,53.5507617 C123.1,61.2303818 135,107.164558 148,114.844179 C160,122.23671 172,92.0924068 185,95.6810143 C196.9,99.2696218 209,138.026583 222,145.419115 C233.8,153.098735 246,130.131647 258,133.935571 C270.8,138.026583 283,168.170887 295,164.582279 C307.7,160.993672 320,122.23671 332,114.844179 C344.6,107.164558 357,130.131647 369,126.327723 C381.5,122.23671 394,92.0924068 406,84.1974701 C418.5,76.3025335 431,92.0924068 443,114.844179 C455.4,138.026583 468,168.170887 480,187.549368 C492.3,206.927848 505,214.105063 517,191.353292 C529.2,168.170887 542,115.059495 554,103.360634 C566.2,92.0924068 578,122.23671 591,126.327723 C603.1,130.131647 615,107.164558 628,118.648103 C640,130.131647 652,176.065823 665,187.549368 C676.9,199.032912 689,176.065823 702,137.811267 C713.8,99.2696218 726,46.1582301 738,22.9758254 C750.8,0.224053512 763,7.40126861 775,26.7797494 C787.7,46.1582301 800,76.3025335 812,76.51785 C824.6,76.3025335 837,46.1582301 849,61.2303818 C861.5,76.3025335 874,138.026583 886,149.294811 C898.5,160.993672 911,122.23671 923,88.0013941 C935.4,53.3354452 948,23.1911418 960,11.4922812 C972.3,0.224053512 985,7.40126861 997,22.9758254 C1009.2,38.2632935 1022,61.2303818 1034,68.910002 C1046.2,76.3025335 1058,69.1253184 1071,84.1974701 C1083.1,99.2696218 1095,138.026583 1108,149.294811 C1120,160.993672 1132,145.203798 1145,137.811267 C1156.9,130.131647 1169,130.131647 1182,114.844179 C1193.8,99.2696218 1206,69.1253184 1218,80.3935461 C1230.8,92.0924068 1243,145.203798 1255,141.615191 C1267.7,138.026583 1280,76.3025335 1292,61.2303818 C1304.6,46.1582301 1317,76.3025335 1329,84.1974701 C1341.5,92.0924068 1354,76.3025335 1366,80.3935461 C1378.5,84.1974701 1391,107.164558 1403,118.648103 C1415.4,130.131647 1428,130.131647 1434,130.131647 L1440,130.131647 L1440,222 L1433.8,222 C1427.7,222 1415,222 1403,222 C1390.8,222 1378,222 1366,222 C1353.8,222 1342,222 1329,222 C1316.9,222 1305,222 1292,222 C1280,222 1268,222 1255,222 C1243.1,222 1231,222 1218,222 C1206.2,222 1194,222 1182,222 C1169.2,222 1157,222 1145,222 C1132.3,222 1120,222 1108,222 C1095.4,222 1083,222 1071,222 C1058.5,222 1046,222 1034,222 C1021.5,222 1009,222 997,222 C984.6,222 972,222 960,222 C947.7,222 935,222 923,222 C910.8,222 898,222 886,222 C873.8,222 862,222 849,222 C836.9,222 825,222 812,222 C800,222 788,222 775,222 C763.1,222 751,222 738,222 C726.2,222 714,222 702,222 C689.2,222 677,222 665,222 C652.3,222 640,222 628,222 C615.4,222 603,222 591,222 C578.5,222 566,222 554,222 C541.5,222 529,222 517,222 C504.6,222 492,222 480,222 C467.7,222 455,222 443,222 C430.8,222 418,222 406,222 C393.8,222 382,222 369,222 C356.9,222 345,222 332,222 C320,222 308,222 295,222 C283.1,222 271,222 258,222 C246.2,222 234,222 222,222 C209.2,222 197,222 185,222 C172.3,222 160,222 148,222 C135.4,222 123,222 111,222 C98.5,222 86,222 74,222 C61.5,222 49,222 37,222 C24.6,222 12,222 6,222 L0,222 L0,199.032912 Z" id="Path" fill="#FBB253" opacity="0.200000003"></path>
                        <path d="M83,203.208866 L88.1838889,199.268459 C93.2841667,195.030663 103.902778,187.595934 113.936111,183.358138 C124.136667,179.417732 134.838889,179.417732 144.872222,151.686191 C155.072778,123.657261 164.938889,68.6402629 175.808333,48.5664934 C185.925278,28.4927239 195.875,44.8491287 206.744444,56.5216539 C216.777778,68.6402629 226.811111,76.0749923 237.680556,68.417221 C247.630278,60.4620605 257.747222,36.6709263 268.616667,52.5069 C278.482778,68.6402629 288.683333,123.657261 298.716667,151.686191 C309.418889,179.417732 319.619444,179.417732 329.652778,179.417732 C340.271389,179.417732 350.555556,179.417732 360.588889,183.358138 C371.123889,187.595934 381.491667,195.030663 391.525,175.477325 C401.976389,155.626597 412.427778,108.044329 422.461111,92.2083552 C432.9125,76.0749923 443.363889,92.4313971 453.397222,96.1487618 C463.765,99.8661265 474.3,92.4313971 484.333333,76.2980342 C494.6175,60.4620605 505.236111,36.6709263 515.269444,40.6113329 C525.47,44.8491287 536.172222,76.0749923 546.205556,76.2980342 C556.406111,76.0749923 566.272222,44.8491287 577.141667,52.5069 C587.258611,60.4620605 597.208333,108.044329 608.077778,127.895057 C618.111111,147.448395 628.144444,140.013666 639.013889,123.880303 C648.963611,108.044329 659.080556,84.2531947 669.95,64.4024671 C679.816111,44.8491287 690.016667,28.4927239 700.05,36.6709263 C710.752222,44.8491287 720.952778,76.0749923 730.986111,76.2980342 C741.604722,76.0749923 751.888889,44.8491287 761.922222,56.5216539 C772.457222,68.6402629 782.825,123.657261 792.858333,155.626597 C803.309722,187.595934 813.761111,195.030663 823.794444,171.462571 C834.245833,147.448395 844.697222,92.4313971 854.730556,56.5216539 C865.098333,21.0579944 875.633333,4.70158966 885.666667,0.984224942 C895.950833,-2.73313978 906.569444,4.70158966 916.602778,12.8797921 C926.803333,21.0579944 937.505556,28.4927239 947.538889,32.7305197 C957.739444,36.6709263 967.605556,36.6709263 978.475,40.6113329 C988.591944,44.8491287 998.541667,52.2838581 1009.41111,84.2531947 C1019.44444,116.222531 1029.47778,171.239529 1040.34722,191.313299 C1050.29694,211.387068 1060.41389,195.030663 1071.28333,171.462571 C1081.14944,147.448395 1091.35,116.222531 1101.38333,100.089168 C1112.08556,84.2531947 1122.28611,84.2531947 1132.31944,88.1936013 C1142.93806,92.4313971 1153.22222,99.8661265 1163.25556,88.1936013 C1173.79056,76.0749923 1184.15833,44.8491287 1194.19167,56.5216539 C1204.64306,68.6402629 1215.09444,123.657261 1225.12778,155.626597 C1235.57917,187.595934 1246.03056,195.030663 1256.06389,195.253705 C1266.43167,195.030663 1276.96667,187.595934 1281.98333,183.358138 L1287,179.417732 L1287,227 L1281.81611,227 C1276.71583,227 1266.09722,227 1256.06389,227 C1245.86333,227 1235.16111,227 1225.12778,227 C1214.92722,227 1205.06111,227 1194.19167,227 C1184.07472,227 1174.125,227 1163.25556,227 C1153.22222,227 1143.18889,227 1132.31944,227 C1122.36972,227 1112.25278,227 1101.38333,227 C1091.51722,227 1081.31667,227 1071.28333,227 C1060.58111,227 1050.38056,227 1040.34722,227 C1029.72861,227 1019.44444,227 1009.41111,227 C998.876111,227 988.508333,227 978.475,227 C968.023611,227 957.572222,227 947.538889,227 C937.0875,227 926.636111,227 916.602778,227 C906.235,227 895.7,227 885.666667,227 C875.3825,227 864.763889,227 854.730556,227 C844.53,227 833.827778,227 823.794444,227 C813.593889,227 803.727778,227 792.858333,227 C782.741389,227 772.791667,227 761.922222,227 C751.888889,227 741.855556,227 730.986111,227 C721.036389,227 710.919444,227 700.05,227 C690.183889,227 679.983333,227 669.95,227 C659.247778,227 649.047222,227 639.013889,227 C628.395278,227 618.111111,227 608.077778,227 C597.542778,227 587.175,227 577.141667,227 C566.690278,227 556.238889,227 546.205556,227 C535.754167,227 525.302778,227 515.269444,227 C504.901667,227 494.366667,227 484.333333,227 C474.049167,227 463.430556,227 453.397222,227 C443.196667,227 432.494444,227 422.461111,227 C412.260556,227 402.394444,227 391.525,227 C381.408056,227 371.458333,227 360.588889,227 C350.555556,227 340.522222,227 329.652778,227 C319.703056,227 309.586111,227 298.716667,227 C288.850556,227 278.65,227 268.616667,227 C257.914444,227 247.713889,227 237.680556,227 C227.061944,227 216.777778,227 206.744444,227 C196.209444,227 185.841667,227 175.808333,227 C165.356944,227 154.905556,227 144.872222,227 C134.420833,227 123.969444,227 113.936111,227 C103.568333,227 93.0333333,227 88.0166667,227 L83,227 L83,203.208866 Z" id="Path" fill="#00ADEF" opacity="0.049999997"></path>
                    </g>
                </g>
            </g>
        </g>
    </g>
</svg>