<svg height="227" viewBox="0 0 1440 227" width="1440" xmlns="http://www.w3.org/2000/svg"><g fill="none" opacity=".5"><path d="m0 199.032912 6.2-7.67962c6.1-7.392532 18.8-23.182405 30.8-38.254557 12.2-15.072152 25-30.862025 37-53.6137967 12.2-23.1824048 24-53.3267082 37-45.9341766 12.1 7.6796201 24 53.6137963 37 61.2934173 12 7.392531 24-22.7517722 37-19.1631647 11.9 3.5886075 24 42.3455687 37 49.7381007 11.8 7.67962 24-15.287468 36-11.483544 12.8 4.091012 25 34.235316 37 30.646708 12.7-3.588607 25-42.345569 37-49.7381 12.6-7.679621 25 15.287468 37 11.483544 12.5-4.091013 25-34.2353162 37-42.1302529 12.5-7.8949366 25 7.8949367 37 30.6467089 12.4 23.182404 25 53.326708 37 72.705189 12.3 19.37848 25 26.555695 37 3.803924 12.2-23.182405 25-76.293797 37-87.992658 12.2-11.2682272 24 18.876076 37 22.967089 12.1 3.803924 24-19.163165 37-7.67962 12 11.483544 24 57.41772 37 68.901265 11.9 11.483544 24-11.483545 37-49.738101 11.8-38.5416452 24-91.6530369 36-114.8354416 12.8-22.75177189 25-15.57455679 37 3.803924 12.7 19.3784807 25 49.5227841 37 49.7381006 12.6-.2153165 25-30.3596199 37-15.2874682 12.5 15.0721517 25 76.7962012 37 88.0644292 12.5 11.698861 25-27.058101 37-61.2934169 12.4-34.6659489 25-64.8102523 37-76.5091129 12.3-11.26822769 25-4.09101259 37 11.4835442 12.2 15.2874681 25 38.2545564 37 45.9341766 12.2 7.3925315 24 .2153164 37 15.2874681 12.1 15.0721517 24 53.8291129 37 65.0973409 12 11.698861 24-4.091013 37-11.483544 11.9-7.67962 24-7.67962 37-22.967088 11.8-15.5745572 24-45.7188606 36-34.4506329 12.8 11.6988607 25 64.8102519 37 61.2216449 12.7-3.588608 25-65.3126575 37-80.3848092 12.6-15.0721517 25 15.0721517 37 22.9670883 12.5 7.8949367 25-7.8949366 37-3.803924 12.5 3.803924 25 26.7710119 37 38.2545569 12.4 11.483544 25 11.483544 31 11.483544h6v91.868353h-6.2c-6.1 0-18.8 0-30.8 0-12.2 0-25 0-37 0-12.2 0-24 0-37 0-12.1 0-24 0-37 0-12 0-24 0-37 0-11.9 0-24 0-37 0-11.8 0-24 0-36 0-12.8 0-25 0-37 0-12.7 0-25 0-37 0-12.6 0-25 0-37 0-12.5 0-25 0-37 0-12.5 0-25 0-37 0-12.4 0-25 0-37 0-12.3 0-25 0-37 0-12.2 0-25 0-37 0-12.2 0-24 0-37 0-12.1 0-24 0-37 0-12 0-24 0-37 0-11.9 0-24 0-37 0-11.8 0-24 0-36 0-12.8 0-25 0-37 0-12.7 0-25 0-37 0-12.6 0-25 0-37 0-12.5 0-25 0-37 0-12.5 0-25 0-37 0-12.4 0-25 0-37 0-12.3 0-25 0-37 0-12.2 0-25 0-37 0-12.2 0-24 0-37 0-12.1 0-24 0-37 0-12 0-24 0-37 0-11.9 0-24 0-37 0-11.8 0-24 0-36 0-12.8 0-25 0-37 0-12.7 0-25 0-37 0-12.6 0-25 0-37 0-12.5 0-25 0-37 0-12.5 0-25 0-37 0-12.4 0-25 0-31 0h-6z" fill="#fbb253" opacity=".2"/><path d="m83 203.208866 5.1838889-3.940407c5.1002778-4.237796 15.7188891-11.672525 25.7522221-15.910321 10.200556-3.940406 20.902778-3.940406 30.936111-31.671947 10.200556-28.02893 20.066667-83.0459281 30.936111-103.1196976 10.116945-20.0737695 20.066667-3.7173647 30.936111 7.9551605 10.033334 12.118609 20.066667 19.5533384 30.936112 11.8955671 9.949722-7.9551605 20.066666-31.7462947 30.936111-15.910321 9.866111 16.1333629 20.066666 71.150361 30.1 99.179291 10.702222 27.731541 20.902777 27.731541 30.936111 27.731541 10.618611 0 20.902778 0 30.936111 3.940406 10.535 4.237796 20.902778 11.672525 30.936111-7.880813 10.451389-19.850728 20.902778-67.432996 30.936111-83.2689698 10.451389-16.1333629 20.902778.2230419 30.936111 3.9404066 10.367778 3.7173647 20.902778-3.7173647 30.936111-19.8507276 10.284167-15.8359737 20.902778-39.6271079 30.936111-35.6867013 10.200556 4.2377958 20.902778 35.4636594 30.936112 35.6867013 10.200555-.2230419 20.066666-31.4489055 30.936111-23.7911342 10.116944 7.9551605 20.066666 55.537429 30.936111 75.388157 10.033333 19.553338 20.066666 12.118609 30.936111-4.014754 9.949722-15.835974 20.066667-39.6271083 30.936111-59.4778359 9.866111-19.5533384 20.066667-35.9097432 30.1-27.7315408 10.702222 8.1782024 20.902778 39.404066 30.936111 39.6271079 10.618611-.2230419 20.902778-31.4489055 30.936111-19.7763803 10.535 12.118609 20.902778 67.1356071 30.936111 99.1049431 10.451389 31.969337 20.902778 39.404066 30.936111 15.835974 10.451389-24.014176 20.902778-79.0311739 30.936112-114.9409171 10.367777-35.4636595 20.902777-51.82006424 30.936111-55.53742896 10.284166-3.71736472 20.902777 3.71736472 30.936111 11.89556716 10.200555 8.1782023 20.902778 15.6129318 30.936111 19.8507276 10.200555 3.9404066 20.066667 3.9404066 30.936111 7.8808132 10.116944 4.2377958 20.066667 11.6725252 30.93611 43.6418618 10.03333 31.9693363 20.06667 86.9863343 30.93611 107.0601043 9.94972 20.073769 20.06667 3.717364 30.93611-19.850728 9.86611-24.014176 20.06667-55.24004 30.1-71.373403 10.70223-15.8359733 20.90278-15.8359733 30.93611-11.8955667 10.61862 4.2377958 20.90278 11.6725252 30.93612 0 10.535-12.118609 20.90277-43.3444726 30.93611-31.6719474 10.45139 12.118609 20.90277 67.1356071 30.93611 99.1049431 10.45139 31.969337 20.90278 39.404066 30.93611 39.627108 10.36778-.223042 20.90278-7.657771 25.91944-11.895567l5.01667-3.940406v47.582268h-5.18389c-5.10028 0-15.71889 0-25.75222 0-10.20056 0-20.90278 0-30.93611 0-10.20056 0-20.06667 0-30.93611 0-10.11695 0-20.06667 0-30.93611 0-10.03334 0-20.06667 0-30.93612 0-9.94972 0-20.06666 0-30.93611 0-9.86611 0-20.06666 0-30.1 0-10.70222 0-20.90277 0-30.93611 0-10.61861 0-20.90278 0-30.93611 0-10.534999 0-20.902777 0-30.93611 0-10.451389 0-20.902778 0-30.936111 0-10.451389 0-20.902778 0-30.936111 0-10.367778 0-20.902778 0-30.936111 0-10.284167 0-20.902778 0-30.936111 0-10.200556 0-20.902778 0-30.936112 0-10.200555 0-20.066666 0-30.936111 0-10.116944 0-20.066666 0-30.936111 0-10.033333 0-20.066666 0-30.936111 0-9.949722 0-20.066667 0-30.936111 0-9.866111 0-20.066667 0-30.1 0-10.702222 0-20.902778 0-30.936111 0-10.618611 0-20.902778 0-30.936111 0-10.535 0-20.902778 0-30.936111 0-10.451389 0-20.902778 0-30.936111 0-10.451389 0-20.902778 0-30.936112 0-10.367777 0-20.902777 0-30.936111 0-10.284166 0-20.902777 0-30.936111 0-10.200555 0-20.902778 0-30.936111 0-10.200555 0-20.066667 0-30.936111 0-10.116944 0-20.066667 0-30.936111 0-10.033333 0-20.066667 0-30.936111 0-9.949722 0-20.066667 0-30.936111 0-9.866111 0-20.066667 0-30.1 0-10.702223 0-20.902778 0-30.936111 0-10.618612 0-20.902778 0-30.936112 0-10.535 0-20.902777 0-30.936111 0-10.451389 0-20.902777 0-30.936111 0-10.451389 0-20.902778 0-30.936111 0-10.367778 0-20.9027777 0-25.9194443 0h-5.0166667z" fill="#00adef" opacity=".05"/></g></svg>