<?xml version="1.0" encoding="UTF-8"?>
<svg width="351px" height="87px" viewBox="0 0 351 87" version="1.1" xmlns="http://www.w3.org/2000/svg" xmlns:xlink="http://www.w3.org/1999/xlink">
    <title>1</title>
    <defs>
        <rect id="path-1" x="0" y="0" width="40.66" height="83.22"></rect>
    </defs>
    <g id="Design" stroke="none" stroke-width="1" fill="none" fill-rule="evenodd">
        <g id="Artboard" transform="translate(-214.000000, -2033.000000)">
            <g id="1" transform="translate(214.500000, 2033.438400)">
                <path d="M125.670839,40.3273614 L125.670839,28.8488458 L129.705019,28.8488458 L129.705019,27.5304864 L120.010683,27.5304864 L120.010683,28.8488458 L124.044863,28.8488458 L124.044863,40.3273614 L125.670839,40.3273614 Z M135.330019,40.5031427 C136.660097,40.5031427 137.700136,40.0607598 138.450136,39.1759942 C139.200136,38.2912286 139.575136,37.1281427 139.575136,35.6867364 L139.575136,35.6867364 L139.575136,35.4757989 C139.575136,34.040252 139.198671,32.8757012 138.445742,31.9821466 C137.692812,31.0885919 136.648378,30.6418145 135.312441,30.6418145 C133.988222,30.6418145 132.951113,31.0885919 132.201113,31.9821466 C131.451113,32.8757012 131.076113,34.040252 131.076113,35.4757989 L131.076113,35.4757989 L131.076113,35.6867364 C131.076113,37.1281427 131.451113,38.2912286 132.201113,39.1759942 C132.951113,40.0607598 133.994082,40.5031427 135.330019,40.5031427 Z M135.330019,39.1935723 C134.451113,39.1935723 133.794863,38.868377 133.361269,38.2179864 C132.927675,37.5675958 132.710878,36.7238458 132.710878,35.6867364 L132.710878,35.6867364 L132.710878,35.4757989 C132.710878,34.4562677 132.927675,33.6154473 133.361269,32.953338 C133.794863,32.2912286 134.445253,31.9601739 135.312441,31.9601739 C136.185488,31.9601739 136.843203,32.2912286 137.285585,32.953338 C137.727968,33.6154473 137.94916,34.4562677 137.94916,35.4757989 L137.94916,35.4757989 L137.94916,35.6867364 C137.94916,36.7179864 137.729433,37.5602716 137.28998,38.2135919 C136.850527,38.8669122 136.197207,39.1935723 135.330019,39.1935723 Z M144.163027,40.5031427 C144.432558,40.5031427 144.703554,40.4723809 144.976015,40.4108575 C145.248476,40.3493341 145.460878,40.2687677 145.613222,40.1691583 L145.613222,40.1691583 L145.393496,39.0177911 C145.270449,39.0529473 145.137148,39.0807794 144.993593,39.1012872 C144.850039,39.121795 144.707949,39.1320489 144.567324,39.1320489 C144.291933,39.1320489 144.075136,39.0397637 143.916933,38.8551934 C143.75873,38.6706231 143.679628,38.343963 143.679628,37.875213 L143.679628,37.875213 L143.679628,32.0568536 L145.507753,32.0568536 L145.507753,30.8175958 L143.679628,30.8175958 L143.679628,28.5060723 L142.044863,28.5060723 L142.044863,30.8175958 L140.682558,30.8175958 L140.682558,32.0568536 L142.044863,32.0568536 L142.044863,37.875213 C142.044863,38.8009942 142.232363,39.4704278 142.607363,39.8835137 C142.982363,40.2965997 143.500917,40.5031427 144.163027,40.5031427 Z M150.183535,40.5031427 C150.78705,40.5031427 151.340761,40.3610528 151.844667,40.0768731 C152.348574,39.7926934 152.770449,39.4279473 153.110292,38.9826348 C153.122011,39.1935723 153.142519,39.3957208 153.171816,39.5890802 C153.201113,39.7824395 153.245058,40.0285333 153.303652,40.3273614 L153.303652,40.3273614 L154.982363,40.3273614 C154.888613,40.0109552 154.82416,39.6974786 154.789003,39.3869317 C154.753847,39.0763848 154.736269,38.7511895 154.736269,38.4113458 L154.736269,38.4113458 L154.736269,33.8234552 C154.736269,32.7804864 154.409609,31.9894708 153.756289,31.4504083 C153.102968,30.9113458 152.228457,30.6418145 151.132753,30.6418145 C150.013613,30.6418145 149.10541,30.9274591 148.408144,31.4987481 C147.710878,32.0700372 147.362246,32.7218927 147.362246,33.4543145 L147.362246,33.4543145 L148.988222,33.4543145 C148.988222,33.0382989 149.177187,32.6852716 149.555117,32.3952325 C149.933046,32.1051934 150.429628,31.9601739 151.044863,31.9601739 C151.706972,31.9601739 152.216738,32.1227716 152.57416,32.4479669 C152.931582,32.7731622 153.110292,33.2257989 153.110292,33.805877 L153.110292,33.805877 L153.110292,34.7726739 L151.273378,34.7726739 C149.984316,34.7726739 148.976503,35.024627 148.249941,35.5285333 C147.523378,36.0324395 147.160097,36.7472833 147.160097,37.6730645 C147.160097,38.5695489 147.413515,39.2653497 147.920351,39.7604669 C148.427187,40.2555841 149.181582,40.5031427 150.183535,40.5031427 Z M150.420839,39.1056817 C149.875917,39.1056817 149.467226,38.9826348 149.194765,38.7365411 C148.922304,38.4904473 148.786074,38.1476739 148.786074,37.7082208 C148.786074,37.2101739 149.002871,36.7839044 149.436464,36.4294122 C149.870058,36.07492 150.464785,35.8976739 151.220644,35.8976739 L151.220644,35.8976739 L153.110292,35.8976739 L153.110292,37.6466973 C152.893496,38.0568536 152.543398,38.4025567 152.06,38.6838067 C151.576601,38.9650567 151.030214,39.1056817 150.420839,39.1056817 Z M159.060488,40.3273614 L159.060488,26.6164239 L157.434511,26.6164239 L157.434511,40.3273614 L159.060488,40.3273614 Z M168.675722,40.5031427 C168.945253,40.5031427 169.21625,40.4723809 169.48871,40.4108575 C169.761171,40.3493341 169.973574,40.2687677 170.125917,40.1691583 L170.125917,40.1691583 L169.906191,39.0177911 C169.783144,39.0529473 169.649843,39.0807794 169.506289,39.1012872 C169.362734,39.121795 169.220644,39.1320489 169.080019,39.1320489 C168.804628,39.1320489 168.587832,39.0397637 168.429628,38.8551934 C168.271425,38.6706231 168.192324,38.343963 168.192324,37.875213 L168.192324,37.875213 L168.192324,32.0568536 L170.020449,32.0568536 L170.020449,30.8175958 L168.192324,30.8175958 L168.192324,28.5060723 L166.557558,28.5060723 L166.557558,30.8175958 L165.195253,30.8175958 L165.195253,32.0568536 L166.557558,32.0568536 L166.557558,37.875213 C166.557558,38.8009942 166.745058,39.4704278 167.120058,39.8835137 C167.495058,40.2965997 168.013613,40.5031427 168.675722,40.5031427 Z M173.711855,28.3566583 L173.711855,26.6164239 L172.085878,26.6164239 L172.085878,28.3566583 L173.711855,28.3566583 Z M173.711855,40.3273614 L173.711855,30.8175958 L172.085878,30.8175958 L172.085878,40.3273614 L173.711855,40.3273614 Z M178.036074,40.3273614 L178.036074,33.3488458 C178.223574,32.915252 178.49164,32.5812677 178.840273,32.3468927 C179.188906,32.1125177 179.647402,31.9953302 180.215761,31.9953302 C180.872011,31.9953302 181.367128,32.1974786 181.701113,32.6017755 C182.035097,33.0060723 182.202089,33.6681817 182.202089,34.5881036 L182.202089,34.5881036 L182.202089,40.3273614 L183.836855,40.3273614 L183.836855,34.2629083 C183.901308,33.6125177 184.121035,33.0734552 184.496035,32.6457208 C184.871035,32.2179864 185.38373,32.0011895 186.034121,31.9953302 C186.69623,31.9953302 187.189882,32.1886895 187.515078,32.5754083 C187.840273,32.962127 188.002871,33.6388848 188.002871,34.6056817 L188.002871,34.6056817 L188.002871,40.3273614 L189.637636,40.3273614 L189.637636,34.6144708 C189.637636,33.2550958 189.36371,32.2531427 188.815859,31.6086114 C188.268007,30.9640802 187.498964,30.6418145 186.50873,30.6418145 C185.823183,30.6418145 185.235781,30.8029473 184.746523,31.125213 C184.257265,31.4474786 183.860292,31.8927911 183.555605,32.4611505 C183.327089,31.8400567 182.987246,31.3815606 182.536074,31.0856622 C182.084902,30.7897637 181.528261,30.6418145 180.866152,30.6418145 C180.209902,30.6418145 179.645937,30.7677911 179.174257,31.0197442 C178.702578,31.2716973 178.314394,31.6291192 178.009707,32.0920098 L178.009707,32.0920098 L177.983339,32.0832208 L177.869082,30.8175958 L176.401308,30.8175958 L176.401308,40.3273614 L178.036074,40.3273614 Z M196.088808,40.5031427 C196.885683,40.5031427 197.555117,40.3932794 198.097109,40.1735528 C198.639101,39.9538262 199.082949,39.6740411 199.428652,39.3341973 L199.428652,39.3341973 L198.78705,38.2531427 C198.441347,38.5519708 198.053164,38.7834161 197.6225,38.9474786 C197.191835,39.1115411 196.680605,39.1935723 196.088808,39.1935723 C195.239199,39.1935723 194.584414,38.8947442 194.124453,38.297088 C193.664492,37.6994317 193.422792,36.9142755 193.399355,35.9416192 L193.399355,35.9416192 L199.701113,35.9416192 L199.701113,34.8781427 C199.701113,33.5656427 199.377382,32.531463 198.729921,31.7756036 C198.08246,31.0197442 197.114199,30.6418145 195.825136,30.6418145 C194.705996,30.6418145 193.749453,31.0841973 192.955507,31.968963 C192.161562,32.8537286 191.764589,33.9875177 191.764589,35.3703302 L191.764589,35.3703302 L191.764589,35.765838 C191.764589,37.1955255 192.151308,38.3424981 192.924746,39.2067559 C193.698183,40.0710137 194.752871,40.5031427 196.088808,40.5031427 Z M198.075136,34.6320489 L193.452089,34.6320489 C193.569277,33.8410333 193.840273,33.1979669 194.265078,32.7028497 C194.689882,32.2077325 195.209902,31.9601739 195.825136,31.9601739 C196.575136,31.9601739 197.137636,32.1901544 197.512636,32.6501153 C197.887636,33.1100762 198.075136,33.6945489 198.075136,34.4035333 L198.075136,34.4035333 L198.075136,34.6320489 Z M208.578066,40.5031427 C208.847597,40.5031427 209.118593,40.4723809 209.391054,40.4108575 C209.663515,40.3493341 209.875917,40.2687677 210.028261,40.1691583 L210.028261,40.1691583 L209.808535,39.0177911 C209.685488,39.0529473 209.552187,39.0807794 209.408632,39.1012872 C209.265078,39.121795 209.122988,39.1320489 208.982363,39.1320489 C208.706972,39.1320489 208.490175,39.0397637 208.331972,38.8551934 C208.173769,38.6706231 208.094667,38.343963 208.094667,37.875213 L208.094667,37.875213 L208.094667,32.0568536 L209.922792,32.0568536 L209.922792,30.8175958 L208.094667,30.8175958 L208.094667,28.5060723 L206.459902,28.5060723 L206.459902,30.8175958 L205.097597,30.8175958 L205.097597,32.0568536 L206.459902,32.0568536 L206.459902,37.875213 C206.459902,38.8009942 206.647402,39.4704278 207.022402,39.8835137 C207.397402,40.2965997 207.915957,40.5031427 208.578066,40.5031427 Z M215.670839,40.5031427 C217.000917,40.5031427 218.040957,40.0607598 218.790957,39.1759942 C219.540957,38.2912286 219.915957,37.1281427 219.915957,35.6867364 L219.915957,35.6867364 L219.915957,35.4757989 C219.915957,34.040252 219.539492,32.8757012 218.786562,31.9821466 C218.033632,31.0885919 216.989199,30.6418145 215.653261,30.6418145 C214.329042,30.6418145 213.291933,31.0885919 212.541933,31.9821466 C211.791933,32.8757012 211.416933,34.040252 211.416933,35.4757989 L211.416933,35.4757989 L211.416933,35.6867364 C211.416933,37.1281427 211.791933,38.2912286 212.541933,39.1759942 C213.291933,40.0607598 214.334902,40.5031427 215.670839,40.5031427 Z M215.670839,39.1935723 C214.791933,39.1935723 214.135683,38.868377 213.702089,38.2179864 C213.268496,37.5675958 213.051699,36.7238458 213.051699,35.6867364 L213.051699,35.6867364 L213.051699,35.4757989 C213.051699,34.4562677 213.268496,33.6154473 213.702089,32.953338 C214.135683,32.2912286 214.786074,31.9601739 215.653261,31.9601739 C216.526308,31.9601739 217.184023,32.2912286 217.626406,32.953338 C218.068789,33.6154473 218.28998,34.4562677 218.28998,35.4757989 L218.28998,35.4757989 L218.28998,35.6867364 C218.28998,36.7179864 218.070253,37.5602716 217.6308,38.2135919 C217.191347,38.8669122 216.538027,39.1935723 215.670839,39.1935723 Z M228.634707,40.3273614 L228.634707,32.0568536 L230.577089,32.0568536 L230.577089,30.8175958 L228.634707,30.8175958 L228.634707,29.7716973 C228.634707,29.1154473 228.78705,28.6349786 229.091738,28.3302911 C229.396425,28.0256036 229.900332,27.8732598 230.603457,27.8732598 C230.990175,27.8732598 231.354921,27.9157403 231.697695,28.0007012 C232.040468,28.0856622 232.372988,28.1925958 232.695253,28.321502 L232.695253,28.321502 L232.967714,26.9679864 C232.469667,26.7922052 232.030214,26.6589044 231.649355,26.5680841 C231.268496,26.4772637 230.878847,26.4318536 230.48041,26.4318536 C229.367128,26.4318536 228.50873,26.7174981 227.905214,27.2887872 C227.301699,27.8600762 226.999941,28.687713 226.999941,29.7716973 L226.999941,29.7716973 L226.999941,30.8175958 L225.497011,30.8175958 L225.497011,32.0568536 L226.999941,32.0568536 L226.999941,40.3273614 L228.634707,40.3273614 Z M233.776308,40.3273614 L233.776308,30.8175958 L232.141542,30.8175958 L232.141542,40.3273614 L233.776308,40.3273614 Z M238.100527,40.3273614 L238.100527,33.4279473 C238.340761,32.9767755 238.655703,32.625213 239.045351,32.3732598 C239.435,32.1213067 239.896425,31.9953302 240.429628,31.9953302 C241.138613,31.9953302 241.658632,32.1711114 241.989687,32.5226739 C242.320742,32.8742364 242.486269,33.4865411 242.486269,34.359588 L242.486269,34.359588 L242.486269,40.3273614 L244.121035,40.3273614 L244.121035,34.3244317 C244.121035,33.0412286 243.845644,32.1066583 243.294863,31.5207208 C242.744082,30.9347833 241.950136,30.6418145 240.913027,30.6418145 C240.286074,30.6418145 239.733828,30.7824395 239.256289,31.0636895 C238.77875,31.3449395 238.384707,31.7404473 238.07416,32.250213 L238.07416,32.250213 L238.047792,32.2414239 L237.933535,30.8175958 L236.465761,30.8175958 L236.465761,40.3273614 L238.100527,40.3273614 Z M248.427675,28.3566583 L248.427675,26.6164239 L246.801699,26.6164239 L246.801699,28.3566583 L248.427675,28.3566583 Z M248.427675,40.3273614 L248.427675,30.8175958 L246.801699,30.8175958 L246.801699,40.3273614 L248.427675,40.3273614 Z M254.632753,40.5031427 C255.751894,40.5031427 256.643984,40.2497247 257.309023,39.7428887 C257.974062,39.2360528 258.306582,38.5549005 258.306582,37.6994317 C258.306582,36.9435723 258.020937,36.3488458 257.449648,35.915252 C256.878359,35.4816583 255.986269,35.1330255 254.773378,34.8693536 C253.91791,34.687713 253.358339,34.4899591 253.094667,34.2760919 C252.830996,34.0622247 252.69916,33.759002 252.69916,33.3664239 C252.69916,32.9738458 252.852968,32.6413262 253.160585,32.3688653 C253.468203,32.0964044 253.944277,31.9601739 254.588808,31.9601739 C255.204042,31.9601739 255.690371,32.1257012 256.047792,32.4567559 C256.405214,32.7878106 256.583925,33.1701348 256.583925,33.6037286 L256.583925,33.6037286 L258.209902,33.6037286 C258.209902,32.7482598 257.887636,32.0407403 257.243105,31.48117 C256.598574,30.9215997 255.713808,30.6418145 254.588808,30.6418145 C253.522402,30.6418145 252.669863,30.9084161 252.031191,31.4416192 C251.392519,31.9748223 251.073183,32.634002 251.073183,33.4191583 C251.073183,34.1750177 251.355898,34.7638848 251.921328,35.1857598 C252.486757,35.6076348 253.35541,35.9445489 254.527285,36.196502 C255.376894,36.3781427 255.948183,36.5934747 256.241152,36.8424981 C256.534121,37.0915216 256.680605,37.415252 256.680605,37.8136895 C256.680605,38.2355645 256.503359,38.5710137 256.148867,38.8200372 C255.794375,39.0690606 255.289003,39.1935723 254.632753,39.1935723 C254.029238,39.1935723 253.510683,39.055877 253.077089,38.7804864 C252.643496,38.5050958 252.409121,38.0480645 252.373964,37.4093927 L252.373964,37.4093927 L250.747988,37.4093927 C250.747988,38.2707208 251.089296,39.0016778 251.771914,39.6022637 C252.454531,40.2028497 253.408144,40.5031427 254.632753,40.5031427 Z M262.138613,40.3273614 L262.138613,33.3488458 C262.396425,32.9269708 262.72455,32.5959161 263.122988,32.3556817 C263.521425,32.1154473 263.975527,31.9953302 264.485292,31.9953302 C265.182558,31.9953302 265.701113,32.1828302 266.040957,32.5578302 C266.3808,32.9328302 266.550722,33.5334161 266.550722,34.359588 L266.550722,34.359588 L266.550722,40.3273614 L268.176699,40.3273614 L268.176699,34.3771661 C268.176699,33.0822442 267.902773,32.1359552 267.354921,31.5382989 C266.80707,30.9406427 266.014589,30.6418145 264.97748,30.6418145 C264.373964,30.6418145 263.834902,30.7707208 263.360292,31.0285333 C262.885683,31.2863458 262.487246,31.649627 262.16498,32.118377 L262.16498,32.118377 L262.138613,32.109588 L262.138613,26.6164239 L260.503847,26.6164239 L260.503847,40.3273614 L262.138613,40.3273614 Z M123.22748,60.5031427 C123.497011,60.5031427 123.768007,60.4723809 124.040468,60.4108575 C124.312929,60.3493341 124.525332,60.2687677 124.677675,60.1691583 L124.677675,60.1691583 L124.457949,59.0177911 C124.334902,59.0529473 124.201601,59.0807794 124.058046,59.1012872 C123.914492,59.121795 123.772402,59.1320489 123.631777,59.1320489 C123.356386,59.1320489 123.139589,59.0397637 122.981386,58.8551934 C122.823183,58.6706231 122.744082,58.343963 122.744082,57.875213 L122.744082,57.875213 L122.744082,52.0568536 L124.572207,52.0568536 L124.572207,50.8175958 L122.744082,50.8175958 L122.744082,48.5060723 L121.109316,48.5060723 L121.109316,50.8175958 L119.747011,50.8175958 L119.747011,52.0568536 L121.109316,52.0568536 L121.109316,57.875213 C121.109316,58.8009942 121.296816,59.4704278 121.671816,59.8835137 C122.046816,60.2965997 122.565371,60.5031427 123.22748,60.5031427 Z M128.131777,60.3273614 L128.131777,53.3488458 C128.389589,52.9269708 128.717714,52.5959161 129.116152,52.3556817 C129.514589,52.1154473 129.968691,51.9953302 130.478457,51.9953302 C131.175722,51.9953302 131.694277,52.1828302 132.034121,52.5578302 C132.373964,52.9328302 132.543886,53.5334161 132.543886,54.359588 L132.543886,54.359588 L132.543886,60.3273614 L134.169863,60.3273614 L134.169863,54.3771661 C134.169863,53.0822442 133.895937,52.1359552 133.348085,51.5382989 C132.800234,50.9406427 132.007753,50.6418145 130.970644,50.6418145 C130.367128,50.6418145 129.828066,50.7707208 129.353457,51.0285333 C128.878847,51.2863458 128.48041,51.649627 128.158144,52.118377 L128.158144,52.118377 L128.131777,52.109588 L128.131777,46.6164239 L126.497011,46.6164239 L126.497011,60.3273614 L128.131777,60.3273614 Z M140.603457,60.5031427 C141.400332,60.5031427 142.069765,60.3932794 142.611757,60.1735528 C143.15375,59.9538262 143.597597,59.6740411 143.9433,59.3341973 L143.9433,59.3341973 L143.301699,58.2531427 C142.955996,58.5519708 142.567812,58.7834161 142.137148,58.9474786 C141.706484,59.1115411 141.195253,59.1935723 140.603457,59.1935723 C139.753847,59.1935723 139.099062,58.8947442 138.639101,58.297088 C138.17914,57.6994317 137.937441,56.9142755 137.914003,55.9416192 L137.914003,55.9416192 L144.215761,55.9416192 L144.215761,54.8781427 C144.215761,53.5656427 143.892031,52.531463 143.24457,51.7756036 C142.597109,51.0197442 141.628847,50.6418145 140.339785,50.6418145 C139.220644,50.6418145 138.264101,51.0841973 137.470156,51.968963 C136.67621,52.8537286 136.279238,53.9875177 136.279238,55.3703302 L136.279238,55.3703302 L136.279238,55.765838 C136.279238,57.1955255 136.665957,58.3424981 137.439394,59.2067559 C138.212832,60.0710137 139.267519,60.5031427 140.603457,60.5031427 Z M142.589785,54.6320489 L137.966738,54.6320489 C138.083925,53.8410333 138.354921,53.1979669 138.779726,52.7028497 C139.204531,52.2077325 139.72455,51.9601739 140.339785,51.9601739 C141.089785,51.9601739 141.652285,52.1901544 142.027285,52.6501153 C142.402285,53.1100762 142.589785,53.6945489 142.589785,54.4035333 L142.589785,54.4035333 L142.589785,54.6320489 Z M153.866152,60.3273614 L155.711855,54.4650567 L156.107363,52.7687677 L156.13373,52.7687677 L156.546816,54.4650567 L158.427675,60.3273614 L159.746035,60.3273614 L162.5058,50.8175958 L160.888613,50.8175958 L159.350527,56.899627 L159.051699,58.3410333 L159.025332,58.3410333 L158.717714,56.899627 L156.801699,50.8175958 L155.483339,50.8175958 L153.567324,56.899627 L153.277285,58.2267755 L153.250917,58.2179864 L153.013613,56.899627 L151.405214,50.8175958 L149.779238,50.8175958 L152.539003,60.3273614 L153.866152,60.3273614 Z M165.889589,60.3273614 L165.889589,53.3488458 C166.147402,52.9269708 166.475527,52.5959161 166.873964,52.3556817 C167.272402,52.1154473 167.726503,51.9953302 168.236269,51.9953302 C168.933535,51.9953302 169.452089,52.1828302 169.791933,52.5578302 C170.131777,52.9328302 170.301699,53.5334161 170.301699,54.359588 L170.301699,54.359588 L170.301699,60.3273614 L171.927675,60.3273614 L171.927675,54.3771661 C171.927675,53.0822442 171.65375,52.1359552 171.105898,51.5382989 C170.558046,50.9406427 169.765566,50.6418145 168.728457,50.6418145 C168.124941,50.6418145 167.585878,50.7707208 167.111269,51.0285333 C166.63666,51.2863458 166.238222,51.649627 165.915957,52.118377 L165.915957,52.118377 L165.889589,52.109588 L165.889589,46.6164239 L164.254824,46.6164239 L164.254824,60.3273614 L165.889589,60.3273614 Z M178.273378,60.5031427 C179.603457,60.5031427 180.643496,60.0607598 181.393496,59.1759942 C182.143496,58.2912286 182.518496,57.1281427 182.518496,55.6867364 L182.518496,55.6867364 L182.518496,55.4757989 C182.518496,54.040252 182.142031,52.8757012 181.389101,51.9821466 C180.636171,51.0885919 179.591738,50.6418145 178.2558,50.6418145 C176.931582,50.6418145 175.894472,51.0885919 175.144472,51.9821466 C174.394472,52.8757012 174.019472,54.040252 174.019472,55.4757989 L174.019472,55.4757989 L174.019472,55.6867364 C174.019472,57.1281427 174.394472,58.2912286 175.144472,59.1759942 C175.894472,60.0607598 176.937441,60.5031427 178.273378,60.5031427 Z M178.273378,59.1935723 C177.394472,59.1935723 176.738222,58.868377 176.304628,58.2179864 C175.871035,57.5675958 175.654238,56.7238458 175.654238,55.6867364 L175.654238,55.6867364 L175.654238,55.4757989 C175.654238,54.4562677 175.871035,53.6154473 176.304628,52.953338 C176.738222,52.2912286 177.388613,51.9601739 178.2558,51.9601739 C179.128847,51.9601739 179.786562,52.2912286 180.228945,52.953338 C180.671328,53.6154473 180.892519,54.4562677 180.892519,55.4757989 L180.892519,55.4757989 L180.892519,55.6867364 C180.892519,56.7179864 180.672792,57.5602716 180.233339,58.2135919 C179.793886,58.8669122 179.140566,59.1935723 178.273378,59.1935723 Z M186.41205,60.3273614 L186.41205,46.6164239 L184.786074,46.6164239 L184.786074,60.3273614 L186.41205,60.3273614 Z M193.021425,60.5031427 C193.8183,60.5031427 194.487734,60.3932794 195.029726,60.1735528 C195.571718,59.9538262 196.015566,59.6740411 196.361269,59.3341973 L196.361269,59.3341973 L195.719667,58.2531427 C195.373964,58.5519708 194.985781,58.7834161 194.555117,58.9474786 C194.124453,59.1115411 193.613222,59.1935723 193.021425,59.1935723 C192.171816,59.1935723 191.517031,58.8947442 191.05707,58.297088 C190.597109,57.6994317 190.35541,56.9142755 190.331972,55.9416192 L190.331972,55.9416192 L196.63373,55.9416192 L196.63373,54.8781427 C196.63373,53.5656427 196.31,52.531463 195.662539,51.7756036 C195.015078,51.0197442 194.046816,50.6418145 192.757753,50.6418145 C191.638613,50.6418145 190.68207,51.0841973 189.888125,51.968963 C189.094179,52.8537286 188.697207,53.9875177 188.697207,55.3703302 L188.697207,55.3703302 L188.697207,55.765838 C188.697207,57.1955255 189.083925,58.3424981 189.857363,59.2067559 C190.6308,60.0710137 191.685488,60.5031427 193.021425,60.5031427 Z M195.007753,54.6320489 L190.384707,54.6320489 C190.501894,53.8410333 190.77289,53.1979669 191.197695,52.7028497 C191.6225,52.2077325 192.142519,51.9601739 192.757753,51.9601739 C193.507753,51.9601739 194.070253,52.1901544 194.445253,52.6501153 C194.820253,53.1100762 195.007753,53.6945489 195.007753,54.4035333 L195.007753,54.4035333 L195.007753,54.6320489 Z M206.864199,60.5031427 C207.889589,60.5031427 208.77582,60.1911309 209.52289,59.5671075 C210.26996,58.9430841 210.646425,58.1974786 210.652285,57.3302911 L210.652285,57.3302911 L209.10541,57.3302911 C209.09955,57.8693536 208.875429,58.3146661 208.433046,58.6662286 C207.990664,59.0177911 207.467714,59.1935723 206.864199,59.1935723 C205.91498,59.1935723 205.244082,58.8713067 204.851503,58.2267755 C204.458925,57.5822442 204.262636,56.759002 204.262636,55.7570489 L204.262636,55.7570489 L204.262636,55.3879083 C204.262636,54.4093927 204.46039,53.5934747 204.855898,52.9401544 C205.251406,52.2868341 205.920839,51.9601739 206.864199,51.9601739 C207.520449,51.9601739 208.056582,52.1623223 208.472597,52.5666192 C208.888613,52.9709161 209.09955,53.477752 209.10541,54.087127 L209.10541,54.087127 L210.652285,54.087127 C210.646425,53.0793145 210.293398,52.2531427 209.593203,51.6086114 C208.893007,50.9640802 207.983339,50.6418145 206.864199,50.6418145 C205.469667,50.6418145 204.41498,51.087127 203.700136,51.977752 C202.985292,52.868377 202.627871,54.0050958 202.627871,55.3879083 L202.627871,55.3879083 L202.627871,55.7570489 C202.627871,57.1457208 202.985292,58.2839044 203.700136,59.1715997 C204.41498,60.059295 205.469667,60.5031427 206.864199,60.5031427 Z M215.319277,60.5031427 C215.922792,60.5031427 216.476503,60.3610528 216.98041,60.0768731 C217.484316,59.7926934 217.906191,59.4279473 218.246035,58.9826348 C218.257753,59.1935723 218.278261,59.3957208 218.307558,59.5890802 C218.336855,59.7824395 218.3808,60.0285333 218.439394,60.3273614 L218.439394,60.3273614 L220.118105,60.3273614 C220.024355,60.0109552 219.959902,59.6974786 219.924746,59.3869317 C219.889589,59.0763848 219.872011,58.7511895 219.872011,58.4113458 L219.872011,58.4113458 L219.872011,53.8234552 C219.872011,52.7804864 219.545351,51.9894708 218.892031,51.4504083 C218.23871,50.9113458 217.364199,50.6418145 216.268496,50.6418145 C215.149355,50.6418145 214.241152,50.9274591 213.543886,51.4987481 C212.846621,52.0700372 212.497988,52.7218927 212.497988,53.4543145 L212.497988,53.4543145 L214.123964,53.4543145 C214.123964,53.0382989 214.312929,52.6852716 214.690859,52.3952325 C215.068789,52.1051934 215.565371,51.9601739 216.180605,51.9601739 C216.842714,51.9601739 217.35248,52.1227716 217.709902,52.4479669 C218.067324,52.7731622 218.246035,53.2257989 218.246035,53.805877 L218.246035,53.805877 L218.246035,54.7726739 L216.409121,54.7726739 C215.120058,54.7726739 214.112246,55.024627 213.385683,55.5285333 C212.659121,56.0324395 212.295839,56.7472833 212.295839,57.6730645 C212.295839,58.5695489 212.549257,59.2653497 213.056093,59.7604669 C213.562929,60.2555841 214.317324,60.5031427 215.319277,60.5031427 Z M215.556582,59.1056817 C215.01166,59.1056817 214.602968,58.9826348 214.330507,58.7365411 C214.058046,58.4904473 213.921816,58.1476739 213.921816,57.7082208 C213.921816,57.2101739 214.138613,56.7839044 214.572207,56.4294122 C215.0058,56.07492 215.600527,55.8976739 216.356386,55.8976739 L216.356386,55.8976739 L218.246035,55.8976739 L218.246035,57.6466973 C218.029238,58.0568536 217.67914,58.4025567 217.195742,58.6838067 C216.712343,58.9650567 216.165957,59.1056817 215.556582,59.1056817 Z M225.936464,60.5031427 C227.055605,60.5031427 227.947695,60.2497247 228.612734,59.7428887 C229.277773,59.2360528 229.610292,58.5549005 229.610292,57.6994317 C229.610292,56.9435723 229.324648,56.3488458 228.753359,55.915252 C228.18207,55.4816583 227.28998,55.1330255 226.077089,54.8693536 C225.221621,54.687713 224.66205,54.4899591 224.398378,54.2760919 C224.134707,54.0622247 224.002871,53.759002 224.002871,53.3664239 C224.002871,52.9738458 224.156679,52.6413262 224.464296,52.3688653 C224.771914,52.0964044 225.247988,51.9601739 225.892519,51.9601739 C226.507753,51.9601739 226.994082,52.1257012 227.351503,52.4567559 C227.708925,52.7878106 227.887636,53.1701348 227.887636,53.6037286 L227.887636,53.6037286 L229.513613,53.6037286 C229.513613,52.7482598 229.191347,52.0407403 228.546816,51.48117 C227.902285,50.9215997 227.017519,50.6418145 225.892519,50.6418145 C224.826113,50.6418145 223.973574,50.9084161 223.334902,51.4416192 C222.69623,51.9748223 222.376894,52.634002 222.376894,53.4191583 C222.376894,54.1750177 222.659609,54.7638848 223.225039,55.1857598 C223.790468,55.6076348 224.659121,55.9445489 225.830996,56.196502 C226.680605,56.3781427 227.251894,56.5934747 227.544863,56.8424981 C227.837832,57.0915216 227.984316,57.415252 227.984316,57.8136895 C227.984316,58.2355645 227.80707,58.5710137 227.452578,58.8200372 C227.098085,59.0690606 226.592714,59.1935723 225.936464,59.1935723 C225.332949,59.1935723 224.814394,59.055877 224.3808,58.7804864 C223.947207,58.5050958 223.712832,58.0480645 223.677675,57.4093927 L223.677675,57.4093927 L222.051699,57.4093927 C222.051699,58.2707208 222.393007,59.0016778 223.075625,59.6022637 C223.758242,60.2028497 224.711855,60.5031427 225.936464,60.5031427 Z M235.718691,60.5031427 C236.515566,60.5031427 237.185,60.3932794 237.726992,60.1735528 C238.268984,59.9538262 238.712832,59.6740411 239.058535,59.3341973 L239.058535,59.3341973 L238.416933,58.2531427 C238.07123,58.5519708 237.683046,58.7834161 237.252382,58.9474786 C236.821718,59.1115411 236.310488,59.1935723 235.718691,59.1935723 C234.869082,59.1935723 234.214296,58.8947442 233.754335,58.297088 C233.294375,57.6994317 233.052675,56.9142755 233.029238,55.9416192 L233.029238,55.9416192 L239.330996,55.9416192 L239.330996,54.8781427 C239.330996,53.5656427 239.007265,52.531463 238.359804,51.7756036 C237.712343,51.0197442 236.744082,50.6418145 235.455019,50.6418145 C234.335878,50.6418145 233.379335,51.0841973 232.58539,51.968963 C231.791445,52.8537286 231.394472,53.9875177 231.394472,55.3703302 L231.394472,55.3703302 L231.394472,55.765838 C231.394472,57.1955255 231.781191,58.3424981 232.554628,59.2067559 C233.328066,60.0710137 234.382753,60.5031427 235.718691,60.5031427 Z M237.705019,54.6320489 L233.081972,54.6320489 C233.19916,53.8410333 233.470156,53.1979669 233.89496,52.7028497 C234.319765,52.2077325 234.839785,51.9601739 235.455019,51.9601739 C236.205019,51.9601739 236.767519,52.1901544 237.142519,52.6501153 C237.517519,53.1100762 237.705019,53.6945489 237.705019,54.4035333 L237.705019,54.4035333 L237.705019,54.6320489 Z M243.092714,60.3273614 L243.092714,58.5959161 L241.440371,58.5959161 L241.440371,60.3273614 L243.092714,60.3273614 Z" id="Totaltimetofinishthewholecase." fill="#FFFFFF" fill-rule="nonzero" opacity="0.300000012"></path>
                <polygon id="Rectangle" fill="#FFFFFF" opacity="0.100000001" transform="translate(175.250000, 1.000000) rotate(-270.000000) translate(-175.250000, -1.000000) " points="174.25 -174.25 176.25 -174.25 176.25 176.25 174.25 176.25"></polygon>
                <polygon id="Rectangle" fill="#FFFFFF" opacity="0.100000001" transform="translate(175.250000, 85.220000) rotate(-270.000000) translate(-175.250000, -85.220000) " points="174.25 -90.03 176.25 -90.03 176.25 260.47 174.25 260.47"></polygon>
                <path d="M69.5816992,41.08 L69.5816992,31.3688477 C69.8347852,31.0422852 70.1429785,30.7932812 70.5062793,30.6218359 C70.8695801,30.4503906 71.3043164,30.364668 71.8104883,30.364668 C72.5452539,30.364668 73.0902051,30.5748926 73.4453418,30.9953418 C73.8004785,31.415791 73.9780469,32.1485156 73.9780469,33.1935156 L73.9780469,33.1935156 L73.9780469,41.08 L77.5539063,41.08 L77.5539063,33.2180078 C77.5539063,31.2586328 77.1681543,29.8299219 76.3966504,28.931875 C75.6251465,28.0338281 74.5332031,27.5848047 73.1208203,27.5848047 C72.3778906,27.5848047 71.7104785,27.7480859 71.118584,28.0746484 C70.5266895,28.4012109 70.0266406,28.8624805 69.6184375,29.458457 L69.6184375,29.458457 L69.5816992,29.4462109 L69.5816992,21.9760937 L66.0058398,21.9760937 L66.0058398,41.08 L69.5816992,41.08 Z" id="h" fill="#434141" fill-rule="nonzero" opacity="0.5"></path>
                <g id="2-3-4" transform="translate(29.000000, 2.000000)">
                    <mask id="mask-2" fill="white">
                        <use xlink:href="#path-1"></use>
                    </mask>
                    <g id="Mask"></g>
                    <text id="0-1-3" mask="url(#mask-2)" font-family="Roboto-Regular, Roboto" font-size="56.24" font-weight="normal" line-spacing="46.36">
                        <tspan x="-0.04" y="21.08" fill="#434141">0</tspan>
                        <tspan x="69.8480859" y="37.6511719" fill="#FFFFFF"></tspan>
                        <tspan x="-0.04" y="67.44" fill="#F56F1C">1</tspan>
                        <tspan x="69.8480859" y="84.0111719" fill="#FFFFFF"></tspan>
                        <tspan x="-0.04" y="113.8" fill="#434141">3</tspan>
                    </text>
                </g>
                <rect id="Rectangle" stroke="#979797" fill="#1A1A1A" opacity="0.100000001" x="94.5" y="2.5" width="1" height="81.22"></rect>
                <rect id="Rectangle" fill="#1A1A1A" x="91" y="27.5304864" width="7" height="30" rx="3.5"></rect>
            </g>
        </g>
    </g>
</svg>