<?xml version="1.0" encoding="UTF-8"?>
<svg width="48px" height="48px" viewBox="0 0 48 48" version="1.1" xmlns="http://www.w3.org/2000/svg" xmlns:xlink="http://www.w3.org/1999/xlink">
    <title>Close</title>
    <g id="Design" stroke="none" stroke-width="1" fill="none" fill-rule="evenodd" opacity="0.200000003">
        <g id="Artboard-Copy" transform="translate(-2446.000000, -67.000000)" fill="#D8D8D8" fill-rule="nonzero">
            <path d="M2470,67 C2456.74517,67 2446,77.745166 2446,91 C2446,104.254834 2456.74517,115 2470,115 C2483.25483,115 2494,104.254834 2494,91 C2493.98497,77.7513965 2483.2486,67.0150296 2470,67 L2470,67 Z M2470,111.727273 C2458.55264,111.727273 2449.27273,102.447357 2449.27273,91 C2449.27273,79.5526434 2458.55264,70.2727273 2470,70.2727273 C2481.44736,70.2727273 2490.72727,79.5526434 2490.72727,91 C2490.72727,102.447357 2481.44736,111.727273 2470,111.727273 Z M2478.76982,82.1854545 C2478.11897,81.5592669 2477.08386,81.5787973 2476.45709,82.2290909 L2470.252,88.6872727 L2463.49818,82.1854545 C2463.08121,81.759247 2462.46542,81.5935767 2461.89088,81.7530331 C2461.31634,81.9124896 2460.87402,82.3718302 2460.73635,82.9519728 C2460.59868,83.5321153 2460.78746,84.1412207 2461.22909,84.5418182 L2467.93709,91 L2461.22909,97.4581818 C2460.57849,98.0846432 2460.55847,99.1197608 2461.18436,99.7709091 C2461.49139,100.093715 2461.91815,100.275315 2462.36364,100.272755 C2462.78684,100.272456 2463.19348,100.108237 2463.49818,99.8145455 L2470.252,93.3127273 L2476.45709,99.7709091 C2477.08386,100.421203 2478.11897,100.440733 2478.76982,99.8145455 C2479.42073,99.1883888 2479.44124,98.1532643 2478.81564,97.5018182 L2472.56582,91 L2478.81564,84.4981818 C2479.44124,83.8467357 2479.42073,82.8116112 2478.76982,82.1854545 L2478.76982,82.1854545 Z" id="Close"></path>
        </g>
    </g>
</svg>