<svg xmlns="http://www.w3.org/2000/svg" width="141" height="48" viewBox="0 0 141 48"><defs><style>.a{fill:#adafb2;}.b,.c{fill:#565960;}.b{opacity:0.6;}.d,.f{fill:none;}.d{stroke:#adafb2;stroke-miterlimit:10;stroke-width:2px;}.e{stroke:none;}</style></defs><g transform="translate(-94.342 -408.5)"><rect class="a" width="94.343" height="48" transform="translate(94.342 408.5)"/><g transform="translate(-0.908 -1)"><path class="b" d="M6.1-2.349A2.575,2.575,0,0,1,5.3-.535,2.926,2.926,0,0,1,3.286.1,2.661,2.661,0,0,1,1.238-.7a3.021,3.021,0,0,1-.75-2.144V-4.258A3.007,3.007,0,0,1,1.25-6.4a2.653,2.653,0,0,1,2.036-.815,2.865,2.865,0,0,1,2.012.64,2.772,2.772,0,0,1,.811,1.846H4.688a1.757,1.757,0,0,0-.376-1.042,1.327,1.327,0,0,0-1.025-.344,1.173,1.173,0,0,0-1.016.51,2.262,2.262,0,0,0-.361,1.335v1.421A2.335,2.335,0,0,0,2.258-1.5a1.169,1.169,0,0,0,1.028.505,1.357,1.357,0,0,0,1.006-.332,1.614,1.614,0,0,0,.386-1.025ZM8.472,0H7.046V-7.617H8.472Zm2.671,0H9.717V-5.283h1.426Zm0-6.548H9.717V-7.617h1.426ZM14.487-1a.92.92,0,0,0,.64-.22.755.755,0,0,0,.244-.591h1.338a1.719,1.719,0,0,1-.627,1.37A2.329,2.329,0,0,1,14.517.1a2.257,2.257,0,0,1-1.829-.732,2.891,2.891,0,0,1-.618-1.929V-2.71a2.913,2.913,0,0,1,.618-1.931,2.235,2.235,0,0,1,1.819-.74,2.275,2.275,0,0,1,1.6.552,1.935,1.935,0,0,1,.6,1.5H15.371a1,1,0,0,0-.234-.684.822.822,0,0,0-.654-.269.785.785,0,0,0-.779.425A2.644,2.644,0,0,0,13.5-2.71v.146A2.646,2.646,0,0,0,13.7-1.411.792.792,0,0,0,14.487-1Zm4.849-1.216h-.42V0H17.49V-7.617h1.426V-3.3H19.3l1.2-1.987h1.646l-1.66,2.4L22.329,0H20.693ZM25.718,0V-4.282h-.781v-1h.781v-.586a1.8,1.8,0,0,1,.5-1.379,2.051,2.051,0,0,1,1.455-.471,2.487,2.487,0,0,1,.366.027q.181.027.415.076l-.122,1.06q-.117-.024-.227-.037a2.353,2.353,0,0,0-.256-.012.688.688,0,0,0-.527.188.776.776,0,0,0-.176.549v.586H28.2v1h-1.05V0Zm2.974-2.69a2.851,2.851,0,0,1,.649-1.948,2.31,2.31,0,0,1,1.836-.742,2.329,2.329,0,0,1,1.848.742,2.845,2.845,0,0,1,.652,1.948v.1a2.838,2.838,0,0,1-.649,1.951A2.327,2.327,0,0,1,31.187.1a2.333,2.333,0,0,1-1.846-.735,2.838,2.838,0,0,1-.649-1.951Zm1.421.1a2.313,2.313,0,0,0,.249,1.165A.879.879,0,0,0,31.187-1,.87.87,0,0,0,32-1.426a2.3,2.3,0,0,0,.251-1.162v-.1A2.287,2.287,0,0,0,32-3.845a.877.877,0,0,0-.82-.437.866.866,0,0,0-.813.439,2.308,2.308,0,0,0-.251,1.152Zm7.28-1.436-.581-.015a.991.991,0,0,0-.525.125.8.8,0,0,0-.31.359V0H34.556V-5.283h1.323l.063.752.01,0a1.661,1.661,0,0,1,.471-.63,1.069,1.069,0,0,1,.681-.225,1.622,1.622,0,0,1,.234.017,1.68,1.68,0,0,1,.205.042ZM42-5.283l.059.674.015,0a1.7,1.7,0,0,1,.625-.576,1.854,1.854,0,0,1,.884-.2,1.623,1.623,0,0,1,.872.22A1.4,1.4,0,0,1,45-4.478a1.83,1.83,0,0,1,.632-.669,1.731,1.731,0,0,1,.92-.234,1.532,1.532,0,0,1,1.243.527A2.551,2.551,0,0,1,48.237-3.2V0H46.812V-3.2a1.36,1.36,0,0,0-.19-.84.718.718,0,0,0-.586-.229,1,1,0,0,0-.53.132.964.964,0,0,0-.349.376q0,.093,0,.159t0,.134V0H43.745V-3.2a1.35,1.35,0,0,0-.193-.833.714.714,0,0,0-.588-.237,1.083,1.083,0,0,0-.508.11,1.03,1.03,0,0,0-.356.31V0H40.679V-5.283ZM49.111-2.69a2.851,2.851,0,0,1,.649-1.948A2.31,2.31,0,0,1,51.6-5.381a2.329,2.329,0,0,1,1.848.742A2.845,2.845,0,0,1,54.1-2.69v.1a2.838,2.838,0,0,1-.649,1.951A2.327,2.327,0,0,1,51.606.1a2.333,2.333,0,0,1-1.846-.735,2.838,2.838,0,0,1-.649-1.951Zm1.421.1a2.313,2.313,0,0,0,.249,1.165A.879.879,0,0,0,51.606-1a.87.87,0,0,0,.813-.43,2.3,2.3,0,0,0,.251-1.162v-.1a2.287,2.287,0,0,0-.254-1.155.877.877,0,0,0-.82-.437.866.866,0,0,0-.813.439,2.308,2.308,0,0,0-.251,1.152Zm7.28-1.436-.581-.015a.991.991,0,0,0-.525.125.8.8,0,0,0-.31.359V0H54.976V-5.283H56.3l.063.752.01,0a1.661,1.661,0,0,1,.471-.63,1.069,1.069,0,0,1,.681-.225,1.622,1.622,0,0,1,.234.017,1.68,1.68,0,0,1,.205.042ZM60.854.1A2.4,2.4,0,0,1,59.016-.62a2.627,2.627,0,0,1-.671-1.87v-.2a2.908,2.908,0,0,1,.637-1.951,2.157,2.157,0,0,1,1.746-.745,2.148,2.148,0,0,1,1.672.635,2.505,2.505,0,0,1,.579,1.753v.776H59.785a1.521,1.521,0,0,0,.371.889,1.1,1.1,0,0,0,.85.332,2.774,2.774,0,0,0,.789-.093,3.7,3.7,0,0,0,.681-.3l.313.942a2.611,2.611,0,0,1-.811.391A3.827,3.827,0,0,1,60.854.1Zm-.127-4.38a.748.748,0,0,0-.632.3,1.718,1.718,0,0,0-.3.823h1.782v-.127a1.159,1.159,0,0,0-.208-.73A.769.769,0,0,0,60.728-4.282Z" transform="translate(112.25 444.5)"/><path class="c" d="M.932,0V-8.531H3.791A3.684,3.684,0,0,1,6-7.96a2.035,2.035,0,0,1,.776,1.755,1.715,1.715,0,0,1-.325,1.034,1.946,1.946,0,0,1-.905.671v.018A1.836,1.836,0,0,1,6.7-3.762a2.2,2.2,0,0,1,.4,1.313A2.22,2.22,0,0,1,6.343-.612,3.381,3.381,0,0,1,4.172,0ZM2.355-3.879v2.742H4.172A1.655,1.655,0,0,0,5.3-1.477a1.226,1.226,0,0,0,.387-.973A1.546,1.546,0,0,0,5.355-3.51a1.329,1.329,0,0,0-1.043-.369Zm0-1.061H3.943a1.6,1.6,0,0,0,1.043-.3,1.1,1.1,0,0,0,.369-.9,1.126,1.126,0,0,0-.387-.946,1.9,1.9,0,0,0-1.178-.3H2.355Zm8.8,5.057A2.771,2.771,0,0,1,9-.75a3.25,3.25,0,0,1-.788-2.273v-.234a3.384,3.384,0,0,1,.782-2.309,2.519,2.519,0,0,1,2-.891,2.489,2.489,0,0,1,1.98.765A3.075,3.075,0,0,1,13.641-3.6v.838h-4a2.152,2.152,0,0,0,.46,1.266,1.41,1.41,0,0,0,1.14.475,3.069,3.069,0,0,0,.987-.138,3.3,3.3,0,0,0,.788-.4l.416.973a2.779,2.779,0,0,1-.926.507A4.159,4.159,0,0,1,11.156.117Zm-.164-5.432a1.08,1.08,0,0,0-.873.413,2.229,2.229,0,0,0-.445,1.1h2.555v-.146a1.532,1.532,0,0,0-.3-.99A1.128,1.128,0,0,0,10.992-5.314ZM15.293,0V-5.285h-.967V-6.34h.967v-.738a2.2,2.2,0,0,1,.56-1.626,2.177,2.177,0,0,1,1.608-.56,2.732,2.732,0,0,1,.419.032q.208.032.472.091l-.141,1.1q-.129-.023-.267-.041a2.445,2.445,0,0,0-.308-.018.873.873,0,0,0-.7.258,1.136,1.136,0,0,0-.223.762v.738h1.289v1.055H16.717V0Zm3.445-3.229A3.475,3.475,0,0,1,19.5-5.563a2.658,2.658,0,0,1,2.139-.894,2.684,2.684,0,0,1,2.153.891,3.464,3.464,0,0,1,.765,2.338v.123a3.458,3.458,0,0,1-.762,2.338A2.677,2.677,0,0,1,21.65.117,2.684,2.684,0,0,1,19.5-.768a3.458,3.458,0,0,1-.762-2.338Zm1.424.123a2.824,2.824,0,0,0,.357,1.518,1.238,1.238,0,0,0,1.131.568,1.239,1.239,0,0,0,1.125-.571,2.791,2.791,0,0,0,.363-1.515v-.123a2.8,2.8,0,0,0-.363-1.506,1.244,1.244,0,0,0-1.137-.58,1.22,1.22,0,0,0-1.119.58,2.836,2.836,0,0,0-.357,1.506Zm8.859-1.934-.674-.023a1.308,1.308,0,0,0-.7.17,1.126,1.126,0,0,0-.428.492V0H25.8V-6.34h1.3l.088.891h.018a2.013,2.013,0,0,1,.609-.741,1.442,1.442,0,0,1,.867-.267,1.947,1.947,0,0,1,.281.021,1.367,1.367,0,0,1,.229.05ZM32.684.117A2.771,2.771,0,0,1,30.524-.75a3.25,3.25,0,0,1-.788-2.273v-.234a3.384,3.384,0,0,1,.782-2.309,2.519,2.519,0,0,1,2-.891,2.489,2.489,0,0,1,1.98.765A3.075,3.075,0,0,1,35.168-3.6v.838h-4a2.152,2.152,0,0,0,.46,1.266,1.41,1.41,0,0,0,1.14.475,3.069,3.069,0,0,0,.987-.138,3.3,3.3,0,0,0,.788-.4l.416.973a2.779,2.779,0,0,1-.926.507A4.159,4.159,0,0,1,32.684.117ZM32.52-5.314a1.08,1.08,0,0,0-.873.413A2.229,2.229,0,0,0,31.2-3.8h2.555v-.146a1.532,1.532,0,0,0-.3-.99A1.128,1.128,0,0,0,32.52-5.314Z" transform="translate(112.25 431.5)"/></g><g transform="translate(146.186 -3)"><g class="d" transform="translate(41.157 411.5)"><rect class="e" width="48" height="48"/><rect class="f" x="1" y="1" width="46" height="46"/></g><g transform="translate(49.5 419.841)"><path class="a" d="M17.329,4.535.948.029A.73.73,0,0,0,.221.22.726.726,0,0,0,.029.946L4.392,17.4a.825.825,0,0,0,.689.573H5.12a.785.785,0,0,0,.727-.5L8.985,9l8.42-3.017a.747.747,0,0,0,.5-.764A.7.7,0,0,0,17.329,4.535Z" transform="translate(13.75 13.682)"/><path class="a" d="M12.247,26.5h.077a.782.782,0,0,0,.765-.687.715.715,0,0,0-.689-.8,11.779,11.779,0,0,1,.919-23.523A11.757,11.757,0,0,1,24.992,11.952a.769.769,0,0,0,1.531-.153A13.3,13.3,0,1,0,12.247,26.5Z" transform="translate(-0.343 -0.341)"/><path class="a" d="M7.54,1.527a6.058,6.058,0,0,1,5.282,3.131.762.762,0,0,0,1.34-.726A7.532,7.532,0,1,0,4.478,14.4a.9.9,0,0,0,.306.076.7.7,0,0,0,.689-.458.757.757,0,0,0-.383-.993A5.936,5.936,0,0,1,1.531,7.561,6.07,6.07,0,0,1,7.54,1.527Z" transform="translate(5.436 5.387)"/></g></g></g></svg>