<?xml version="1.0" encoding="UTF-8"?>
<svg width="244px" height="47px" viewBox="0 0 244 47" version="1.1" xmlns="http://www.w3.org/2000/svg" xmlns:xlink="http://www.w3.org/1999/xlink">
    <title>smileasy</title>
    <defs>
        <polygon id="path-1" points="0 -1.57820238e-14 14.4739441 -1.57820238e-14 14.4739441 35.0614164 0 35.0614164"></polygon>
        <polygon id="path-3" points="3.15640476e-14 0 26.3676102 0 26.3676102 35.3502734 3.15640476e-14 35.3502734"></polygon>
    </defs>
    <g id="Design" stroke="none" stroke-width="1" fill="none" fill-rule="evenodd">
        <g id="Info-bar" transform="translate(-73.000000, -1751.000000)">
            <g id="smileasy" transform="translate(73.992128, 1751.239373)">
                <path d="M229.131344,10.6497266 L229.131344,13.0729711 C228.241785,13.0729711 227.542131,13.1884695 227.031273,13.4172451 C226.519304,13.6482418 226.263875,14.095798 226.263875,14.7632453 C226.263875,15.0153426 226.314961,15.3151942 226.419354,15.6639104 C226.522636,16.011516 226.620365,16.2969303 226.70921,16.5190425 C226.975745,17.1565046 227.253385,17.8494948 227.542131,18.5980131 C227.830877,19.3465313 228.111849,20.0950496 228.386158,20.8435678 C228.660466,21.592086 228.923669,22.3150614 229.175767,23.0113833 C229.427864,23.7077051 229.649976,24.322956 229.843214,24.8560254 C230.065326,25.4346278 230.25079,25.9565915 230.398494,26.4241378 C230.54731,26.8905735 230.669471,27.3136973 230.76609,27.6912881 C230.861598,28.0699895 230.939338,28.4175952 230.999308,28.7363262 C231.058168,29.0550573 231.10259,29.3693461 231.132575,29.6814138 C231.16145,29.3693461 231.22142,29.0250721 231.310265,28.6474813 C231.39911,28.26878 231.495729,27.906737 231.600122,27.5580208 C231.703404,27.2104151 231.806686,26.8983474 231.909968,26.6240388 C232.014361,26.3497302 232.087658,26.1531609 232.133191,26.0354414 L235.135038,17.1198561 C235.192787,16.9710409 235.249426,16.7966828 235.301622,16.5967818 C235.352708,16.3968808 235.401573,16.1936481 235.445995,15.9859731 C235.490417,15.7782982 235.523734,15.5783972 235.545946,15.3851595 C235.568157,15.1930324 235.579262,15.0297799 235.579262,14.8965126 C235.579262,14.2001907 235.289406,13.7215389 234.713025,13.4616675 C234.133312,13.2029068 233.31927,13.0729711 232.266458,13.0729711 L232.266458,10.6497266 L242.515828,10.6497266 L242.515828,13.0729711 C242.056055,13.0729711 241.652922,13.1251675 241.304205,13.2284497 C240.955489,13.3328424 240.6412,13.5149745 240.359118,13.7737352 C240.078146,14.032496 239.817164,14.3745488 239.580614,14.7954515 C239.344065,15.2185753 239.106405,15.748313 238.869855,16.3857752 C238.335675,17.8972489 237.779284,19.4398184 237.202903,21.010152 C236.62319,22.5815961 236.042366,24.1563718 235.457101,25.7344793 C234.870724,27.3136973 234.285459,28.8840309 233.701303,30.447701 C233.114927,32.0124817 232.54743,33.5494984 231.998813,35.0609722 C231.465744,36.5291341 230.962659,37.8184957 230.487339,38.9301674 C230.01313,40.0418392 229.513377,41.0046957 228.986971,41.8198477 C228.460565,42.6349996 227.878631,43.3102208 227.242279,43.8432902 C226.604817,44.3774701 225.862962,44.802815 225.018936,45.1215461 C224.172688,45.4402772 223.192063,45.6668316 222.072617,45.800099 C220.953171,45.9333663 219.64493,46 218.149004,46 L217.370501,46 L217.370501,43.3546432 C218.956382,43.3546432 220.305714,43.1614056 221.416275,42.7760408 C222.529058,42.3906761 223.469703,41.8420589 224.240433,41.1312997 C225.010051,40.41943 225.645292,39.5676296 226.141713,38.5747878 C226.637024,37.5808356 227.071253,36.4847117 227.44218,35.284195 L219.238465,15.2518922 C219.060775,14.822105 218.859764,14.4811627 218.637651,14.2290653 C218.415539,13.9780785 218.177879,13.7848408 217.925782,13.6515735 C217.673684,13.5183062 217.400486,13.4327929 217.103966,13.3961444 C216.807446,13.3583853 216.487605,13.3395058 216.147773,13.3395058 L216.147773,10.6497266 L229.131344,10.6497266 Z M57.5755154,10.1164351 C59.0125816,10.1164351 60.2364201,10.2385968 61.2436991,10.4829203 C62.2509781,10.7272438 63.0750145,11.0504171 63.7124766,11.4502191 C64.3488282,11.8500211 64.8163744,12.3020195 65.1128943,12.8062143 C65.4083035,13.3104091 65.5571187,13.8223778 65.5571187,14.3398993 C65.5571187,15.3627262 65.1984075,16.1412296 64.4787638,16.674299 C63.7602307,17.2084789 62.5708197,17.4750136 60.9105307,17.4750136 C60.9105307,15.9635398 60.5740307,14.788566 59.8988095,13.9512029 C59.2246988,13.1138398 58.2274149,12.6951582 56.9091787,12.6951582 C56.4194212,12.6951582 55.9496538,12.7551285 55.4965449,12.872848 C55.0445465,12.991678 54.6525184,13.1693678 54.31935,13.4070279 C53.9850711,13.6435775 53.7185364,13.9367656 53.5186354,14.2854818 C53.3176238,14.6330875 53.2187839,15.0451057 53.2187839,15.5182048 C53.2187839,16.0079622 53.3109604,16.4455234 53.4964242,16.8308881 C53.6818879,17.2162528 54.0083929,17.582738 54.473718,17.9314542 C54.9412643,18.2790599 55.5753947,18.6311078 56.3749988,18.9864874 C57.1757134,19.3429775 58.1985403,19.7361162 59.4434794,20.1659034 C60.4507584,20.5212829 61.3802981,20.9255272 62.2343196,21.3764151 C63.0850095,21.829524 63.820201,22.3481561 64.4343414,22.9334219 C65.0495923,23.5197982 65.5282442,24.1861349 65.8680759,24.9335426 C66.2090182,25.6831714 66.3800446,26.5394141 66.3800446,27.5022706 C66.3800446,28.7627576 66.161264,29.8888666 65.7237029,30.8817083 C65.2872524,31.87455 64.6464586,32.7119132 63.8013215,33.3937978 C62.9561844,34.0756823 61.9189203,34.5987567 60.6884185,34.9619102 C59.4579167,35.3239531 58.057499,35.5060852 56.4860549,35.5060852 C54.8413138,35.5060852 53.4364539,35.3728178 52.2736963,35.1062831 C51.1087176,34.8386379 50.1614089,34.468821 49.4284385,33.9946114 C48.693247,33.5204017 48.1601776,32.9573472 47.8270093,32.3043372 C47.4927303,31.6524378 47.3261462,30.948342 47.3261462,30.1920498 C47.3261462,29.4513055 47.4716297,28.8549342 47.7603756,28.4029357 C48.0491215,27.9509373 48.4111644,27.5988894 48.8498361,27.346792 C49.2862867,27.0946947 49.7505013,26.9281105 50.2391482,26.8459289 C50.7277951,26.764858 51.1731301,26.7237672 51.5729322,26.7237672 C51.5729322,27.673297 51.6917622,28.5250975 51.9283118,29.2813897 C52.1648613,30.0365713 52.4991402,30.6784756 52.9289274,31.2037711 C53.3587146,31.7301771 53.874015,32.1344214 54.473718,32.4153933 C55.0745316,32.6974759 55.7453106,32.8385172 56.4860549,32.8385172 C57.2712217,32.8385172 57.9497746,32.7563356 58.520603,32.5930831 C59.0914315,32.4309412 59.5578672,32.2043867 59.9221312,31.9156408 C60.2841742,31.6268949 60.5551511,31.292616 60.7328409,30.9150252 C60.9105307,30.5363238 60.9993756,30.140964 60.9993756,29.7256141 C60.9993756,29.2214193 60.9060885,28.7738632 60.7217353,28.3807245 C60.535161,27.9875859 60.2286461,27.6166584 59.7988589,27.2690528 C59.3690718,26.9214471 58.7949116,26.5793943 58.0763785,26.2462259 C57.3567349,25.911947 56.4638437,25.5610096 55.3977049,25.1900822 C54.1660926,24.760295 53.0810743,24.3049649 52.1404289,23.8218708 C51.1975625,23.3409978 50.4057324,22.7923806 49.7604963,22.1771297 C49.1163708,21.5629893 48.6277239,20.8588935 48.293445,20.0659528 C47.9602766,19.2730122 47.7936924,18.3645731 47.7936924,17.3417462 C47.7936924,16.1267923 48.0269103,15.0673169 48.4944565,14.1622095 C48.9608922,13.2582127 49.6227867,12.5063628 50.4834716,11.9055492 C51.343046,11.3058461 52.3736468,10.8571794 53.5741634,10.5606596 C54.7746801,10.2641397 56.1084641,10.1164351 57.5755154,10.1164351 Z M156.781503,10.0712353 C158.426244,10.0712353 159.907733,10.3044531 161.22819,10.7719994 C162.546426,11.2384351 163.665872,11.9325358 164.585416,12.8509699 C165.50385,13.769404 166.207946,14.9110609 166.697704,16.2748301 C167.186351,17.6385992 167.431785,19.2244806 167.431785,21.0324743 L167.431785,23.3668739 L152.512506,23.3668739 C152.556928,24.8938955 152.724623,26.2054683 153.012258,27.3027028 C153.302115,28.3988267 153.701917,29.3028235 154.212775,30.0146932 C154.724743,30.7265629 155.347768,31.2529689 156.080739,31.5928007 C156.81482,31.933743 157.655514,32.1047694 158.605044,32.1047694 C159.390211,32.1047694 160.116518,32.0125928 160.782855,31.8260185 C161.450302,31.6416654 162.054447,31.381794 162.595291,31.0486257 C163.136134,30.7143468 163.610344,30.3223187 164.01903,29.8703203 C164.425496,29.4183218 164.763106,28.9330066 165.030751,28.4143745 C165.844793,28.858599 166.252369,29.5993433 166.252369,30.6366075 C166.252369,31.2896175 166.074679,31.9082 165.719299,32.4934658 C165.362809,33.0798421 164.814192,33.5940319 164.073448,34.0382564 C163.331593,34.4835915 162.402053,34.838971 161.283718,35.1055057 C160.164272,35.373151 158.83382,35.5064183 157.293472,35.5064183 C155.366648,35.5064183 153.665268,35.2243358 152.190443,34.6612812 C150.715618,34.0982267 149.481784,33.2830748 148.488942,32.2158255 C147.496101,31.1485762 146.747582,29.8403351 146.243388,28.2922128 C145.739193,26.7429799 145.487095,24.9749665 145.487095,22.9892831 C145.487095,20.8547845 145.739193,18.9801572 146.243388,17.3642906 C146.747582,15.7484241 147.480553,14.4002028 148.44452,13.3174056 C149.407376,12.235719 150.590124,11.4250094 151.989431,10.8830555 C153.390959,10.3422122 154.987946,10.0712353 156.781503,10.0712353 Z M205.541469,10.1164351 C206.978536,10.1164351 208.202374,10.2385968 209.210764,10.4829203 C210.218043,10.7272438 211.040969,11.0504171 211.678431,11.4502191 C212.314782,11.8500211 212.782328,12.3020195 213.078848,12.8062143 C213.375368,13.3104091 213.523073,13.8223778 213.523073,14.3398993 C213.523073,15.3627262 213.164362,16.1412296 212.444718,16.674299 C211.726185,17.2084789 210.536774,17.4750136 208.876485,17.4750136 C208.876485,15.9635398 208.539985,14.788566 207.864764,13.9512029 C207.190653,13.1138398 206.193369,12.6951582 204.875133,12.6951582 C204.385375,12.6951582 203.915608,12.7551285 203.462499,12.872848 C203.010501,12.991678 202.618472,13.1693678 202.285304,13.4070279 C201.951025,13.6435775 201.68449,13.9367656 201.484589,14.2854818 C201.283578,14.6330875 201.184738,15.0451057 201.184738,15.5182048 C201.184738,16.0079622 201.276915,16.4455234 201.462378,16.8308881 C201.647842,17.2162528 201.974347,17.582738 202.439672,17.9314542 C202.907218,18.2790599 203.541349,18.6311078 204.340953,18.9864874 C205.141667,19.3429775 206.164494,19.7361162 207.409433,20.1659034 C208.416712,20.5212829 209.347363,20.9255272 210.200274,21.3764151 C211.050964,21.829524 211.786155,22.3481561 212.400295,22.9334219 C213.015546,23.5197982 213.494198,24.1861349 213.83514,24.9335426 C214.176083,25.6831714 214.345999,26.5394141 214.345999,27.5022706 C214.345999,28.7627576 214.127218,29.8888666 213.689657,30.8817083 C213.253206,31.87455 212.612413,32.7119132 211.767276,33.3937978 C210.922138,34.0756823 209.884874,34.5987567 208.654373,34.9619102 C207.423871,35.3239531 206.023453,35.5060852 204.452009,35.5060852 C202.808378,35.5060852 201.402408,35.3728178 200.23965,35.1062831 C199.075782,34.8386379 198.127363,34.468821 197.394393,33.9946114 C196.659201,33.5204017 196.126132,32.9573472 195.792963,32.3043372 C195.458684,31.6524378 195.2921,30.948342 195.2921,30.1920498 C195.2921,29.4513055 195.437584,28.8549342 195.72633,28.4029357 C196.015076,27.9509373 196.377119,27.5988894 196.81579,27.346792 C197.253351,27.0946947 197.716455,26.9281105 198.205102,26.8459289 C198.693749,26.764858 199.139084,26.7237672 199.538886,26.7237672 C199.538886,27.673297 199.657716,28.5250975 199.894266,29.2813897 C200.130815,30.0365713 200.465094,30.6784756 200.894881,31.2037711 C201.325779,31.7301771 201.839969,32.1344214 202.439672,32.4153933 C203.040486,32.6974759 203.711265,32.8385172 204.452009,32.8385172 C205.238286,32.8385172 205.915729,32.7563356 206.486557,32.5930831 C207.057386,32.4309412 207.524932,32.2043867 207.888085,31.9156408 C208.250128,31.6268949 208.521105,31.292616 208.698795,30.9150252 C208.876485,30.5363238 208.96533,30.140964 208.96533,29.7256141 C208.96533,29.2214193 208.872043,28.7738632 208.687689,28.3807245 C208.502226,27.9875859 208.1946,27.6166584 207.764813,27.2690528 C207.335026,26.9214471 206.760866,26.5793943 206.042333,26.2462259 C205.322689,25.911947 204.429798,25.5610096 203.363659,25.1900822 C202.132047,24.760295 201.047028,24.3049649 200.106383,23.8218708 C199.164627,23.3409978 198.371686,22.7923806 197.72645,22.1771297 C197.082325,21.5629893 196.593678,20.8588935 196.259399,20.0659528 C195.926231,19.2730122 195.759646,18.3645731 195.759646,17.3417462 C195.759646,16.1267923 195.992864,15.0673169 196.460411,14.1622095 C196.926846,13.2582127 197.589851,12.5063628 198.450536,11.9055492 C199.309,11.3058461 200.339601,10.8571794 201.540118,10.5606596 C202.740634,10.2641397 204.074418,10.1164351 205.541469,10.1164351 Z M180.907112,10.0716795 C182.507431,10.0716795 183.904517,10.2093891 185.097259,10.4825871 C186.290002,10.7580063 187.283954,11.1988991 188.076895,11.8063761 C188.869836,12.413853 189.466207,13.2101254 189.86712,14.1963038 C190.265811,15.1824821 190.466823,16.3863304 190.466823,17.8089593 L190.466823,29.4143238 C190.466823,30.0373487 190.514577,30.5559807 190.611196,30.9702201 C190.707815,31.3855699 190.859962,31.7154066 191.066526,31.9597301 C191.275311,32.2051641 191.557394,32.3784117 191.912774,32.4828044 C192.268153,32.5860866 192.69794,32.638283 193.201025,32.638283 L193.378714,32.638283 L193.378714,35.0615275 L184.908464,35.0615275 L183.952271,31.9264132 L183.553579,31.9264132 C183.048274,32.5350008 182.575175,33.0647385 182.12984,33.5156263 C181.685616,33.9687353 181.210295,34.3429944 180.707211,34.6395143 C180.203016,34.9360341 179.63552,35.1537041 179.005831,35.2947454 C178.375033,35.4357866 177.630957,35.505752 176.771382,35.505752 C175.762993,35.505752 174.825679,35.3580473 173.959441,35.0615275 C173.092093,34.7650077 172.335801,34.3096776 171.691675,33.6944267 C171.046439,33.0791758 170.538913,32.3084463 170.167985,31.3811277 C169.798168,30.4560302 169.612705,29.363238 169.612705,28.1027511 C169.612705,25.6273101 170.460063,23.7971053 172.158111,22.6110259 C173.855049,21.4260571 176.408229,20.7808211 179.817652,20.6764283 L183.553579,20.543161 L183.553579,18.0310716 C183.553579,17.2747794 183.522484,16.5784575 183.463624,15.9409954 C183.404764,15.3035333 183.27705,14.7560266 183.086033,14.2962543 C182.892796,13.8364819 182.607381,13.4811024 182.22979,13.229005 C181.851089,12.9769076 181.351337,12.8503036 180.729422,12.8503036 C180.15082,12.8503036 179.665505,12.9724653 179.272366,13.2178993 C178.880338,13.4622228 178.563828,13.8031651 178.327278,14.2407262 C178.090729,14.6771768 177.923034,15.1958088 177.827526,15.7966224 C177.730907,16.3963255 177.683153,17.0526672 177.683153,17.7645369 C175.63861,17.7645369 174.099372,17.5346507 173.069882,17.0748784 C172.039281,16.6162166 171.523981,15.8299393 171.523981,14.7182675 C171.523981,13.8886783 171.772746,13.1768086 172.269167,12.5837689 C172.765588,11.9918398 173.439699,11.5098562 174.29261,11.1389288 C175.14441,10.7680014 176.138362,10.498135 177.271135,10.3271086 C178.406128,10.1571927 179.617751,10.0716795 180.907112,10.0716795 Z M100.787229,10.0715684 C101.95665,10.0715684 103.010573,10.2425949 103.944555,10.5824266 C104.877426,10.9244794 105.665925,11.4497749 106.311161,12.1616446 C106.955286,12.8735143 107.449486,13.7808428 107.789318,14.8847406 C108.13026,15.989749 108.301286,17.3124274 108.301286,18.8538864 L108.301286,29.4142128 C108.301286,30.1260825 108.364588,30.6924687 108.490082,31.114482 C108.616686,31.5376058 108.804371,31.8596685 109.057579,32.0817808 C109.309676,32.3050036 109.628407,32.4527082 110.012661,32.5271158 C110.398026,32.6015234 110.842251,32.6381719 111.347556,32.6381719 L111.480823,32.6381719 L111.480823,35.0614164 L101.364721,35.0614164 L101.364721,20.0766142 C101.364721,18.1198054 101.093744,16.6083316 100.552901,15.5410823 C100.010947,14.473833 99.0747441,13.9396531 97.7409601,13.9396531 C97.0290904,13.9396531 96.4216134,14.1151217 95.9174186,14.4627274 C95.4132238,14.8114436 95.0023162,15.281211 94.6835851,15.8742507 C94.364854,16.4672904 94.1316362,17.1602805 93.9839316,17.9532212 C93.8351164,18.7461619 93.7618193,19.5801934 93.7618193,20.454205 L93.7618193,29.4142128 C93.7618193,30.1260825 93.8240107,30.6924687 93.9495042,31.114482 C94.0761081,31.5376058 94.2649035,31.8596685 94.5170009,32.0817808 C94.7690983,32.3050036 95.0878294,32.4527082 95.4731941,32.5271158 C95.8574483,32.6015234 96.3094467,32.6381719 96.8291893,32.6381719 L96.9624567,32.6381719 L96.9624567,35.0614164 L86.8463548,35.0614164 L86.8463548,20.0766142 C86.8463548,19.0982098 86.7830528,18.2275298 86.6575593,17.4634637 C86.5320659,16.7005082 86.3232804,16.0597144 86.0356451,15.5410823 C85.7457886,15.0224502 85.3681978,14.6259799 84.9006515,14.3516713 C84.4342158,14.0773627 83.8667191,13.9396531 83.2003823,13.9396531 C82.4440902,13.9396531 81.814402,14.1328907 81.3113178,14.5182555 C80.807123,14.9036202 80.4017681,15.4189206 80.0985849,16.0641566 C79.7942912,16.7082821 79.5766212,17.4568004 79.4433538,18.3086008 C79.3100865,19.1615118 79.2423422,20.054403 79.2423422,20.988385 L79.2423422,29.6807475 C79.2423422,30.3182096 79.3211921,30.8301783 79.4755601,31.215543 C79.6321492,31.6009078 79.8498192,31.9007593 80.1319018,32.1162082 C80.4139843,32.3305465 80.7582583,32.4715877 81.1658342,32.5382214 C81.5734102,32.6048551 82.0287403,32.6381719 82.5329351,32.6381719 L82.6662024,32.6381719 L82.6662024,35.0614164 L68.6831264,35.0614164 L68.6831264,32.6381719 L68.7719713,32.6381719 C69.2894928,32.6381719 69.7637024,32.6048551 70.1946002,32.5382214 C70.6243874,32.4715877 70.9975359,32.3272148 71.3173776,32.103992 C71.6361086,31.8818797 71.8837638,31.5642592 72.0614536,31.1489094 C72.2402539,30.7335595 72.3290988,30.1849422 72.3290988,29.5030577 L72.3290988,15.8964619 C72.3290988,15.2589998 72.250249,14.7481416 72.0947704,14.3627769 C71.9392918,13.9774122 71.7171796,13.6775606 71.4273231,13.4621118 C71.1385772,13.2477734 70.7943032,13.1056216 70.3945012,13.0400985 C69.9935886,12.9723543 69.5415902,12.940148 69.038506,12.940148 L68.9052386,12.940148 L68.9052386,10.6501708 L78.4649494,10.6501708 L79.0646525,13.8952306 L79.2867647,13.8952306 C79.746537,13.0356563 80.2318523,12.3548822 80.743821,11.8506875 C81.2546791,11.3464927 81.7999647,10.9611279 82.3785671,10.6945933 C82.9560589,10.426948 83.5668675,10.2570321 84.2121036,10.1826245 C84.8562291,10.1093275 85.534782,10.0715684 86.2466517,10.0715684 C87.921378,10.0715684 89.3517808,10.3725305 90.5367496,10.9722336 C91.722829,11.5730472 92.5901773,12.5470093 93.1387945,13.8952306 L93.5385965,13.8952306 C93.9972583,13.0356563 94.4981214,12.3548822 95.0389647,11.8506875 C95.579808,11.3464927 96.1584104,10.9611279 96.7725507,10.6945933 C97.3878016,10.426948 98.0330377,10.2570321 98.7082589,10.1826245 C99.3823695,10.1093275 100.07536,10.0715684 100.787229,10.0715684 Z M124.131892,10.6491713 L124.131892,29.6808585 C124.131892,30.3338685 124.238506,30.8525006 124.453955,31.2378653 C124.668293,31.62323 124.934828,31.9197499 125.253559,32.1263143 C125.57229,32.3339892 125.924338,32.4716988 126.310813,32.5372219 C126.695067,32.6049661 127.051557,32.638283 127.376952,32.638283 L127.911132,32.638283 L127.911132,35.0615275 L113.437188,35.0615275 L113.437188,32.638283 L113.970257,32.638283 C114.311199,32.638283 114.671021,32.6049661 115.049723,32.5372219 C115.427313,32.4716988 115.774919,32.3339892 116.09365,32.1263143 C116.412381,31.9197499 116.680026,31.62323 116.894365,31.2378653 C117.108703,30.8525006 117.216428,30.3338685 117.216428,29.6808585 L117.216428,15.8521505 C117.216428,15.2446735 117.108703,14.7593583 116.894365,14.3962048 C116.680026,14.0330513 116.40905,13.7509687 116.083655,13.5510677 C115.75715,13.3511667 115.405102,13.221231 115.026401,13.1623713 C114.649921,13.102401 114.296762,13.0735264 113.970257,13.0735264 L113.437188,13.0735264 L113.437188,10.6491713 L124.131892,10.6491713 Z M140.615952,0.467324151 L140.615952,29.6806364 C140.615952,30.3336464 140.723676,30.8522785 140.938015,31.2376432 C141.153464,31.6230079 141.419998,31.9195278 141.738729,32.1272027 C142.05746,32.3348777 142.410619,32.4714767 142.794873,32.5381104 C143.180238,32.604744 143.535617,32.6380609 143.862122,32.6380609 L144.396302,32.6380609 L144.396302,35.0613054 L129.923469,35.0613054 L129.923469,32.6380609 L130.456538,32.6380609 C130.79748,32.6380609 131.156192,32.604744 131.534893,32.5381104 C131.912484,32.4714767 132.260089,32.3348777 132.578821,32.1272027 C132.897552,31.9195278 133.164086,31.6230079 133.379535,31.2376432 C133.593873,30.8522785 133.702708,30.3336464 133.702708,29.6806364 L133.702708,5.64698157 C133.702708,5.03950459 133.593873,4.55418935 133.379535,4.19103584 C133.164086,3.82788233 132.89422,3.54579979 132.567715,3.34700933 C132.24121,3.14599775 131.890273,3.01717266 131.511571,2.95720235 C131.13398,2.89834261 130.781933,2.86835746 130.456538,2.86835746 L129.923469,2.86835746 L129.923469,0.467324151 L140.615952,0.467324151 Z M183.553579,22.9441943 L181.507926,23.0774616 C180.602818,23.1218841 179.839863,23.2673676 179.216838,23.5116911 C178.594924,23.7560145 178.097392,24.0936251 177.726465,24.5234123 C177.356648,24.9531995 177.090113,25.4796055 176.926861,26.1015198 C176.763608,26.7245446 176.682537,27.4508516 176.682537,28.2804408 C176.682537,29.5853502 176.890212,30.5637547 177.305562,31.2156541 C177.719801,31.8675535 178.371701,32.1929479 179.26126,32.1929479 C179.91316,32.1929479 180.501757,32.0563489 181.029274,31.7820403 C181.55568,31.5077317 182.007678,31.1190353 182.385269,30.6148405 C182.76397,30.1106457 183.051606,29.499837 183.252617,28.7813039 C183.452518,28.0616603 183.553579,27.257614 183.553579,26.3680545 L183.553579,22.9441943 Z M156.870348,13.0286597 C155.596534,13.0286597 154.583702,13.6583479 153.836295,14.9188349 C153.087776,16.1782113 152.675758,18.023964 152.60135,20.4549824 L160.471898,20.4549824 C160.471898,19.2988882 160.406375,18.2605135 160.271997,17.3420794 C160.138729,16.4236453 159.927723,15.6451419 159.637866,15.0076798 C159.34912,14.3702176 158.978193,13.8815707 158.526194,13.5395179 C158.074196,13.1996861 157.522247,13.0286597 156.870348,13.0286597 Z M120.440387,0 C120.959019,0 121.45544,0.0633019881 121.929649,0.189905964 C122.403859,0.31539938 122.819209,0.508637028 123.174588,0.767397786 C123.531079,1.02615854 123.815382,1.36376915 124.031942,1.77911904 C124.245169,2.19446892 124.354004,2.68977922 124.354004,3.2683816 C124.354004,3.83143612 124.245169,4.32119361 124.031942,4.73543294 C123.815382,5.15078282 123.531079,5.49172511 123.174588,5.7582598 C122.819209,6.02479449 122.403859,6.22580606 121.929649,6.35907341 C121.45544,6.49234075 120.959019,6.55897442 120.440387,6.55897442 C119.891769,6.55897442 119.384243,6.49234075 118.917807,6.35907341 C118.450261,6.22580606 118.042685,6.02479449 117.695079,5.7582598 C117.346363,5.49172511 117.072055,5.15078282 116.873264,4.73543294 C116.672253,4.32119361 116.572302,3.83143612 116.572302,3.2683816 C116.572302,2.68977922 116.672253,2.19446892 116.873264,1.77911904 C117.072055,1.36376915 117.346363,1.02615854 117.695079,0.767397786 C118.042685,0.508637028 118.450261,0.31539938 118.917807,0.189905964 C119.384243,0.0633019881 119.891769,0 120.440387,0 Z" id="Combined-Shape" fill="#565960"></path>
                <g id="Group-7" transform="translate(113.437188, 0.000111)">
                    <mask id="mask-2" fill="white">
                        <use xlink:href="#path-1"></use>
                    </mask>
                    <g id="Clip-6"></g>
                </g>
                <g id="Group-18" transform="translate(216.147773, 10.649727)">
                    <mask id="mask-4" fill="white">
                        <use xlink:href="#path-3"></use>
                    </mask>
                    <g id="Clip-17"></g>
                </g>
                <path d="M17.5882048,3.51812174 C7.82415077,3.56945474 -0.0508386656,11.5266257 0,21.2917903 C0.0513329644,31.0569549 8.00961449,38.9308338 17.7736685,38.8799951 C27.5388331,38.8286621 35.412712,30.8714912 35.3618734,21.1063266 C35.3105404,11.341162 27.3533694,3.46728311 17.5882048,3.51812174" id="Fill-44" fill="#00B2A9"></path>
                <path d="M17.7426839,32.5686508 C11.5246517,32.6008571 6.36276329,28.0797624 5.37769551,22.1349284 C5.37769551,22.1349284 13.1549556,24.1139484 17.3939677,24.0917372 C21.6329797,24.069526 29.9921739,22.0061033 29.9921739,22.0061033 C29.0704081,27.9609324 23.9562738,32.5364445 17.7426839,32.5686508" id="Fill-46" fill="#000000"></path>
            </g>
        </g>
    </g>
</svg>