<svg xmlns="http://www.w3.org/2000/svg" xmlns:xlink="http://www.w3.org/1999/xlink" width="24" height="24" viewBox="0 0 24 24"><defs><clipPath id="a"><rect width="18" height="10" transform="translate(3 -17)" fill="none"/></clipPath><clipPath id="b"><path d="M12.1-8a.925.925,0,0,0,.525-.232L19.7-14.608a.742.742,0,0,0,.075-1.124.955.955,0,0,0-1.249-.068.855.855,0,0,0-.08.072L12-9.921,5.551-15.727A.954.954,0,0,0,4.3-15.8a.742.742,0,0,0-.085,1.123.814.814,0,0,0,.08.072l7.076,6.371A.944.944,0,0,0,12.1-8" fill="none" clip-rule="evenodd"/></clipPath><clipPath id="c"><path d="M4-8H20v-8H4Z" fill="none"/></clipPath><clipPath id="d"><path d="M0,0H24V-24H0Z" fill="none"/></clipPath></defs><g transform="translate(24 24) rotate(-90)" opacity="0.5"><g opacity="0.7" style="isolation:isolate"><g clip-path="url(#a)"><g clip-path="url(#b)"><g clip-path="url(#c)"><path d="M-1-3V-21H25V-3Z" fill="#55311b"/></g></g></g></g><g clip-path="url(#d)"><g transform="translate(0 -24)"><path d="M0,0H24V24H0Z" fill="none" stroke="rgba(150,150,150,0)" stroke-width="2"/></g></g></g></svg>