<?xml version="1.0" encoding="UTF-8"?>
<svg width="24px" height="24px" viewBox="0 0 24 24" version="1.1" xmlns="http://www.w3.org/2000/svg" xmlns:xlink="http://www.w3.org/1999/xlink">
    <title>Icons/Calendar</title>
    <g id="Mobile" stroke="none" stroke-width="1" fill="none" fill-rule="evenodd">
        <g id="Invisalign-Mobile" transform="translate(-316.000000, -72.000000)">
            <g id="Icons/Calendar" transform="translate(316.000000, 72.000000)">
                <rect id="Rectangle" x="0" y="0" width="24" height="24"></rect>
                <path d="M20.8,2 C22.0150264,2 23,2.8954305 23,4 L23,20 C23,21.1045695 22.0150264,22 20.8,22 L3.2,22 C1.98497355,22 1,21.1045695 1,20 L1,4 C1,2.8954305 1.98497355,2 3.2,2 L20.8,2 Z M22,7 L2,7 L2,20 C2,20.5522847 2.49746139,21 3.11111111,21 L20.8888889,21 C21.5025386,21 22,20.5522847 22,20 L22,7 Z M20,16 L17,16 L17,19 L4,19 L4,9 L20,9 L20,16 Z M7,16 L5,16 L5,18 L7,18 L7,16 Z M10,16 L8,16 L8,18 L10,18 L10,16 Z M13,16 L11,16 L11,18 L13,18 L13,16 Z M7,13 L5,13 L5,15 L7,15 L7,13 Z M10,13 L8,13 L8,15 L10,15 L10,13 Z M13,13 L11,13 L11,15 L13,15 L13,13 Z M16,13 L14,13 L14,15 L16,15 L16,13 Z M19,13 L17,13 L17,15 L19,15 L19,13 Z M7,10 L5,10 L5,12 L7,12 L7,10 Z M10,10 L8,10 L8,12 L10,12 L10,10 Z M13,10 L11,10 L11,12 L13,12 L13,10 Z M16,10 L14,10 L14,12 L16,12 L16,10 Z M19,10 L17,10 L17,12 L19,12 L19,10 Z" id="Combined-Shape" fill="#CCCCCC"></path>
            </g>
        </g>
    </g>
</svg>