<?xml version="1.0" encoding="UTF-8"?>
<svg width="16px" height="21px" viewBox="0 0 16 21" version="1.1" xmlns="http://www.w3.org/2000/svg" xmlns:xlink="http://www.w3.org/1999/xlink">
    <title>Icons/marker</title>
    <g id="Design" stroke="none" stroke-width="1" fill="none" fill-rule="evenodd" opacity="0.5">
        <g id="Hours-Dental" transform="translate(-690.000000, -87.000000)" fill="#565960">
            <g id="Group-4" transform="translate(645.500000, 53.000000)">
                <g id="Icons/marker" transform="translate(40.000000, 32.500000)">
                    <path d="M12.5,2 C8.35635359,2 5,5.41298206 5,9.57841688 C5,12.9341833 9.62016575,19.0859781 11.6666667,21.5775769 C12.0649171,22.1408077 12.9350829,22.1408077 13.3333333,21.5775769 C15.3798343,19.0859781 20,12.9341833 20,9.57841688 C20,5.41298206 16.6436464,2 12.5,2 Z M12.5,12.9466022 C10.6064225,12.9466022 9.16666667,11.4917928 9.16666667,9.78892846 C9.16666667,7.87555251 10.6064225,6.42074318 12.5,6.42074318 C14.1852442,6.42074318 15.625,7.87555251 15.625,9.78892846 C15.625,11.4917928 14.1852442,12.9466022 12.5,12.9466022 Z" id="Shape"></path>
                </g>
            </g>
        </g>
    </g>
</svg>