<?xml version="1.0" encoding="UTF-8"?>
<svg width="24px" height="24px" viewBox="0 0 24 24" version="1.1" xmlns="http://www.w3.org/2000/svg" xmlns:xlink="http://www.w3.org/1999/xlink">
    <title>Icons/phone</title>
    <defs>
        <polygon id="path-1" points="0 0 23.999911 0 23.999911 24 0 24"></polygon>
    </defs>
    <g id="Mobile" stroke="none" stroke-width="1" fill="none" fill-rule="evenodd">
        <g id="Invisalign-Mobile" transform="translate(-271.000000, -73.000000)">
            <g id="Group-3" transform="translate(271.000000, 73.000000)">
                <mask id="mask-2" fill="white">
                    <use xlink:href="#path-1"></use>
                </mask>
                <g id="Clip-2"></g>
                <path d="M9.32712019,6.91612775 L6.73846884,2.39948781 C6.56891429,2.10371178 6.22936074,1.94904603 5.89469605,2.01526786 L3.69426463,2.45193195 C3.23826733,2.53882032 2.8584918,2.8532629 2.68804836,3.28526035 C1.02383598,7.61545695 2.40582781,13.2843123 6.53802558,17.4289544 C6.54335888,17.4342877 6.56558097,17.4567321 6.5711365,17.4620654 C10.7155564,21.5942631 16.3844118,22.976255 20.7146084,21.3120426 C21.1466058,21.1415991 21.4610484,20.7618236 21.548159,20.3056041 L21.9846009,18.1053949 C22.0510449,17.7707302 21.8963792,17.4309544 21.6003809,17.2616221 L17.083741,14.6727485 C16.7732984,14.4945274 16.3817451,14.5460826 16.1281911,14.7991922 C15.2799739,15.6458539 13.4693179,17.453621 13.468429,17.4533987 C11.8448831,16.9391796 10.371114,16.0369627 9.17467665,14.8251921 C7.96290604,13.6287547 7.06091138,12.1549856 6.5466922,10.5316619 C6.54624775,10.530773 8.35401484,8.71989486 9.20089871,7.87167766 C9.45378611,7.6181236 9.50556358,7.22657036 9.32712019,6.91612775" id="Fill-1" fill="#CCCCCC" mask="url(#mask-2)"></path>
            </g>
        </g>
    </g>
</svg>