<svg height="16" viewBox="0 0 16 16" width="16" xmlns="http://www.w3.org/2000/svg" xmlns:xlink="http://www.w3.org/1999/xlink"><clipPath id="a"><path d="m0 0h16v16h-16z"/></clipPath><path d="m0 0h16v16h-16z" fill="none"/><g clip-path="url(#a)"><path d="m8 16a8 8 0 1 1 8-8 8.009 8.009 0 0 1 -8 8zm-.8-11.465a1.031 1.031 0 0 0 -.752.316 1.068 1.068 0 0 0 0 1.516l1.636 1.633-1.633 1.634a1.072 1.072 0 1 0 1.516 1.516l2.392-2.392a1.028 1.028 0 0 0 .319-.758 1.1 1.1 0 0 0 -.32-.758l-2.392-2.392a1.073 1.073 0 0 0 -.766-.315z" fill="#f05024"/></g></svg>