<svg height="12" viewBox="0 0 12 12" width="12" xmlns="http://www.w3.org/2000/svg" xmlns:xlink="http://www.w3.org/1999/xlink"><clipPath id="a"><path d="m0 0h12v12h-12z"/></clipPath><g opacity=".5"><path d="m0 0h12v12h-12z" fill="none"/><g clip-path="url(#a)"><path d="m6 12a6 6 0 1 1 6-6 6.007 6.007 0 0 1 -6 6zm-.6-8.6a.773.773 0 0 0 -.564.237.8.8 0 0 0 0 1.137l1.227 1.226-1.225 1.225a.8.8 0 1 0 1.137 1.137l1.793-1.794a.771.771 0 0 0 .241-.568.823.823 0 0 0 -.24-.568l-1.794-1.794a.8.8 0 0 0 -.575-.238z" fill="#f5f5f5"/></g></g></svg>