<svg xmlns="http://www.w3.org/2000/svg" width="268" height="268" viewBox="0 0 268 268">
  <g id="australia_map_2" data-name="australia_map 2" transform="translate(14 14)">
    <g id="australia_map">
      <g id="Oval">
        <circle id="Oval-2" data-name="Oval" cx="120" cy="120" r="120" fill="#fbfbfb"/>
        <g id="Oval-3" data-name="Oval" fill="none" stroke="#f5f5f5" stroke-miterlimit="10" stroke-width="14">
          <circle cx="120" cy="120" r="120" stroke="none"/>
          <circle cx="120" cy="120" r="127" fill="none"/>
        </g>
      </g>
      <g id="noun_Australia_map_940443" data-name="noun_Australia map_940443" transform="translate(48 51)">
        <path id="Path" d="M5.365,46.824c.212-.57.935-.99,1.267-1.558A15.835,15.835,0,0,1,7.96,43.707c.3-.395.105-.26.51-.5.121-.072.309,0,.442-.075.108-.066.243-.4.338-.505.317-.366.66-1.239,1.036-1.428a5.961,5.961,0,0,1,.155.911c.434.136.932-.213,1.374-.205.293,0,.421.141.785.056a4.487,4.487,0,0,0,1.008-.428h.068c.46.016.8-.558,1.158-.8a4.131,4.131,0,0,1,1.479-.525c1.128-.26,1.249-1.364,2.23-1.743.832-.323,1.785.063,2.7-.3.937-.369,1.835-1.04,2.772-1.325h.068c1,.189,2.289-1.4,2.772-2.16a3.007,3.007,0,0,0,.471-1.515c.071-.677.081-.751.741-1.014-.293-.916.414-1.061,1.016-1.542.212-.168.919-.74.817-1.074-.1-.316-.662-.237-.82-.6a7.613,7.613,0,0,1-.134-1.072A2.9,2.9,0,0,1,28.8,26.8c.06-.42,1.05-1.982,1.354-1.216l-.136-.135c-.07-.881.366-.94.741-1.272s.613-1.391,1.212-1.4c.079.38-.116.635-.021.964a7.817,7.817,0,0,0,.584,1.041c.345.591.628,1.828,1.272,2.189.468-.616.134-1.353.33-1.982.267.077.489.326.788.39.239-.348-.633-1.444-.922-1.662-.17-.128-.9-.172-.709-.607.112-.252.709-.091.9-.254-.34-.255-.84-1.118.015-1.029.5.053.409.807.885,1.008.1-.276-.084-.505-.081-.8a2.615,2.615,0,0,1,.657.327c.028.016.723.392.7.393.7-.095.188-1.507.869-1.268.126-.395.849-1.049.625-1.385-.278.213-.46.621-.791.643-.131-.355-.282-.414-.358-.849-.113-.655.144-.531.521-.818.112-.085.267-.066.413-.2.1-.09-.058-.359.1-.475.527-.377.445.233.875.262,1.207.08-.2-.65-.165-1.048.074-.971,1.184-.252,1.733-.4-.545-.135-.333-.546-.443-.889-.126-.392-.671-.69-.07-1.074l.136-.067c.728-.334.778.029,1.081-.737.107-.27-.086-.574.38-.6.353-.019.372.27.194.522.57-.12.49.384.709.693a1.226,1.226,0,0,1,.673-.425c-.616-.841.419-.6.337-1.263-.07-.552-1.074-.1-.864-.737.338-1.027.951.453.985.472.44.263.568-.536,1.144-.6-.034.367-.335,1.045.367.767.39-.154.358-.905.992-.846-.333-.327-.416-.9.273-.785.194.034.32.443.557.533.28.106.4-.138.607-.079.65.191,1.633,1.849,2.162,1.749l.047-.124c.045.339.57.65.809.841a4.817,4.817,0,0,0,.524.385c.152.091.49.162.558.273-.451.1-.833,2.232-.39,2.529.042-.093.036-.539.094-.582.144-.108.317.212.5.2.06-.217-.2-.428-.207-.692s.107-.7.416-.377a.313.313,0,0,1,.029-.337c.034.039.074.074.11.114a.832.832,0,0,1,.039-.122c.2.2.374.082.257-.133s-.526-.194-.17-.43a1.549,1.549,0,0,1,1.388.109h.036c.513-.008,1.367.218,1.544.676.079.207.231.762.316.16a3.285,3.285,0,0,0-.1-.9.852.852,0,0,1,.481.132c.034.014.123.114.181.143s.191,0,.267.055a1.36,1.36,0,0,1,.3.5c.032.067.157.366.241.414.01-.027.031-.085.044-.117.526.095-.076-.6.029-.918.089-.268.118-.228.4-.242.186-.01.5.087.422-.205a1.08,1.08,0,0,1-1.045-.631c.149-.178.421-.112.587-.348-.288-.133-.586.114-.9-.045a2.154,2.154,0,0,1-.4-.337c-.21-.178-.251-.047-.21-.334a4.359,4.359,0,0,1,.2-.406c.079-.167.134-.159.178-.371.061-.3.063-.626.451-.35.108-.276.471-.088.561-.483.028-.122-.079-.205-.031-.351a1.194,1.194,0,0,1,.309-.348l-.105-.173c0-.315-.05-1.109.458-1.046.288.035.176.286.526.106a1.554,1.554,0,0,0,.278-.236c.045-.05.159-.233.181-.252.113-.1.5-.16.527-.276s-.426-.42-.5-.517a.613.613,0,0,1-.168-.536c0-.2-.065-.494.194-.546.254.436.558-.191.61-.4a3.633,3.633,0,0,1,.076-.408c.06-.146.251-.074.2-.343.264.071.592.39.639-.088.008-.091-.084-.119-.087-.191s.045-.154.045-.209a2.6,2.6,0,0,0,.006-.419V5.629a.872.872,0,0,1,.456.069c.26-.039.424.366.39.581.049-.014.1-.01.141-.021a.818.818,0,0,0,.18.335c.087-.047.186-.127.262-.168a.6.6,0,0,0-.26-.266c.228.047.385-.1.141-.25.089-.136.091-.183-.039-.241a.31.31,0,0,1-.254.2c-.189-.4.426-.462.663-.384-.039-.175-.159-1.22.214-.772.2-.225.358.088.527.191.227-.213.165-.542.421-.727.359.268-.091.834.582.964.328.063,1.142.116,1.312-.21l.1.019c.447-.369.5.116.955.114.366,0,.626-.574.974-.266.144-.3.259,0,.438-.075a3.491,3.491,0,0,0,.427-.339c.244-.193.565-.306.637-.682a.685.685,0,0,0-.309-.756c-.189-.127-.367-.091-.4-.334-.008-.055.159-.3.139-.462V2.115a.83.83,0,0,0-.924-.2c-.32.114-.561.347-.942.306.016-.112-.024-.218.019-.331-.2-.029-.654-.112-.377-.38-.267-.042-.626-.351-.558-.645a.548.548,0,0,1,.133.03c.013-.03.015-.088.05-.1a.292.292,0,0,0,.294.167A1.981,1.981,0,0,1,65.6.6c.235.221.558.279.582.666a.321.321,0,0,1,.071-.051c.094.168,0,.473.222.513A1.035,1.035,0,0,1,66.5,1.41c.049-.26.078-.063.013-.323-.049-.2-.272-.4-.222-.568.2.074.414.417.534.57C66.874.863,66.8.7,67.055.568c.128.189.107.494.22.632.018-.058.06-.114.083-.17.116.136.207.321.388.351.239-.35-.045-.475-.155-.788.22-.08.134-.246,0-.379A.472.472,0,0,0,67.884,0c.167.138.314.576.167.711.157.168.094.375.112.6.016.189.074.57.233.671.278.18.311-.087.547-.188.189-.08.691.027.337-.356.309-.2.7.491.715.753v.075c.155.194.269.486.493.568s.468-.106.688-.063c-.05.061-.066.152-.168.207.155.01.314,0,.469.011.071.143.236.13.377.074a1.572,1.572,0,0,0-.1.258c.228-.191.582-.122.833-.262a.76.76,0,0,1,.832-.077c-.181.252-.587.351-.16.594.267.152.469,0,.667-.165.092.151.278.1.345.173.084.091.092.284.149.345.306.329.264-.3.574.037a.859.859,0,0,0,1.146.047c.225-.146.306-.3.55-.217.07.024.285.359.358.433s.1.177.2.26c.066.055.207-.022.282.029s.1.25.212.319.2,0,.307.035c.162.059.356.209.544.189.5-.051.008-.193.015-.321.008-.16.3-.379.51-.42.246-.05.432.234.68-.063.091.148.2.207.275.047V4.264c-.56-.411.1-.536.419-.643a.9.9,0,0,0,.537-.3c.036-.039.231-.539.419-.212.1.181-.3.424-.382.55-.147.234-.105.361-.228.531-.175.242-.966.656-.259.926a2.114,2.114,0,0,1,1.165-.743c-.073.09-.4.363-.337.5.1.217.377-.124.427.159.031.175-.307.326-.311.522,0,.165.249.148.207.419.337-.316.136-.271.558-.268.244,0,.469.051.644-.151.079-.091.2-.557.123-.656-.157-.191-.812.247-.793-.334.251-.045.364-.217.561-.339.07-.043.183-.006.27-.075.07-.055.1-.249.186-.274.212-.064.065,0,.225.047-.176-.055.3.3.189.183a.5.5,0,0,1,.193.085,2.376,2.376,0,0,1,.121.3v.039c.008.382.379,1.112.639.414a1.1,1.1,0,0,0-.176-.08.113.113,0,0,1,0-.091.786.786,0,0,1,.819.382c.178.359-.238.557-.432.812-.21.274-.343.574-.544.8-.032.037-.2-.047-.233,0-.061.085.04.249,0,.3-.123.151-.139.175-.364,0-.019.16-.12.22-.278.193.084.327.413.193.542.379.214.308-.256.313-.469.266.333.233.32.316.074.645-.089.119-.175.217-.267.327.013-.014-.26.255-.217.236-.395.168-.251-.037-.115-.334.084-.186.167-.525.029-.685-.107.172-.125.777-.461.534-.008.144-.147.35-.333.257-.131-.064-.092-.263-.091-.409a.86.86,0,0,0-.317.708c-.057-.083-.1-.246-.215-.319-.01.093-.089.165-.112.234a.2.2,0,0,0-.387.085c-.032.152.173.332.181.48-.233-.034-.244.037-.325.157.052-.077-.042.408-.044.387a2.845,2.845,0,0,0,.152.379c.083.209-.049.424.26.223.16-.1.555-.849.4-.117a2.2,2.2,0,0,1-.43.842l-.024.181c.037.326-.223.563-.188.9-.371-.027-.5.351-.681.6-.222.306-.4.321-.61.607a3.3,3.3,0,0,0-.165.39c-.071.125-.178.207-.251.332a1.059,1.059,0,0,0-.172.883c.172.433.481.306.79.448a4.377,4.377,0,0,1,.746.52,5.05,5.05,0,0,0,.895.727,1.589,1.589,0,0,1,.814.647c.432.626,1.548.846,1.66,1.617.282-.258.317-.011.563-.021.223-.008.294-.21.571-.093h.091a1.408,1.408,0,0,0,.32.363H85.7a4.209,4.209,0,0,0,.785.5,6.374,6.374,0,0,0,.869.408,4.911,4.911,0,0,1,1.67,1.356,3.807,3.807,0,0,0,1.7,1.054c.293.075.581.08.856.168.309.1.566.335.924.318h.091c.17-.045.678.345.781.509.131.209.028.6.131.849a1.393,1.393,0,0,0,.735.725c.328.165.628.408.966.554a5.5,5.5,0,0,0,2.021.8,3.462,3.462,0,0,0,2.123-.712,1.715,1.715,0,0,0,.675-1.194,1.864,1.864,0,0,1,.557-1.128l.045-.045c.061-.374.65-.709.832-1.088.155-.323.07-.642.181-.993.126-.4.558-.68.582-1.088.01-.156-.12-.334-.1-.533a2.631,2.631,0,0,1,.2-.6l-.1-.032c-.013-1.1,1.092-1.916,1.06-2.943-.016-.491-.217-.96-.238-1.481-.026-.592.448-1.035.366-1.6l-.045-.045c.045-.323-.18-.547-.317-.815a.919.919,0,0,1-.083-.9c.1-.318.506-1.616.895-1.008a3.688,3.688,0,0,0-.087-.587c-.008-.175.1-.387,0-.589l-.045-.045c.042-.435-.212-.647-.036-.993a3.384,3.384,0,0,1,.858-.905.64.64,0,0,0,.312.3,1.043,1.043,0,0,0-.128-.6c.083,0,.22-.061.293-.059a2.543,2.543,0,0,0-.592-.212c-.3-.051-.362.075-.714.116-.105-.26.607-1.465.78-1.762a1.716,1.716,0,0,1,.411-.777c.128.177.079.453.272.64.178-.109.112-.08.319-.093-.191-.554-.314-.574-.019-1.173a5.178,5.178,0,0,0,.434-1.358l-.091.09c.05-.441.312-.814.364-1.287.078-.7.354-.547.858-.839.162-.095.942-.894,1.052-.274a2.744,2.744,0,0,1-.848.936,4.717,4.717,0,0,1,.8-.478.529.529,0,0,1,.058.215c.037.006.076.011.113.014,0,.069.029.183.024.263.031-.035.131-.083.176-.13.343.148.249.586.309.892.068.342.371.64.369.881,0,.074-.16.369-.176.522-.019.178,0,.366,0,.546,0,.324-.125.658.147.87.29.226.762-.117.989.119.277.29-.217.727-.3.969-.12.345-.105.6.16.8.362.274.482.072.468.645V7.47c.612.08.548.162.3.656-.108.218-.379.9.094.831-.008-.061-.034-.066-.028-.132.159-.034.343-.059.5-.106a5.659,5.659,0,0,1-.052,1.557c0,.108-.078.242-.066.339.015.135.16.2.16.342,0,.266-.225.542-.275.8a2.6,2.6,0,0,0,.443,1.507c.243.513.013,1.212.532,1.675.634.568,1.171.164,1.438-.485a2.379,2.379,0,0,0,.54.124c.3-.024.377-.353.56-.4.356-.1.45.339.335.656a2.054,2.054,0,0,1,.254.056c-.217.4-.138.461.155.732.188.172.591.271.717.4.26.273.152.55.55.741.246.119.56.074.773.213l-.045.136v.271h.045c.113.022.175.112.314.1-.074.385-.422.505-.4,1.032.571-.133.217.311.129.467a.885.885,0,0,0-.086.8,4.6,4.6,0,0,1,.275.863c0,.178-.147.257-.142.443,0,.141.121.268.16.417.089.335-.055.571-.024.871.015.149.2.3.189.443-.011.181-.223.114-.236.25-.045.451.361.785.54,1.162.15.316.252.788.56.987.2-.03.691-.136.736.146.031.193-.265.159-.285.3-.028.21.081.191.141.374a14.24,14.24,0,0,1,.458,1.63,3.027,3.027,0,0,1-.091,1.481c-.128.388-.914,1.218-.32,1.587l.045.045a.79.79,0,0,0,.3.668c.209-.326-.1-.5-.16-.8.257.157.426-.1.68.035-.2.321.058.631.086.96,0-.01-.053.436-.044.416-.061.125-.26.181-.319.306-.333.711.427,1.369.943,1.722.267.183.5.342.749.542.146.119.212.29.424.273.149-.013.275-.306.382-.294.286.039.28.6.553.793a1.9,1.9,0,0,0,.885.266.733.733,0,0,0-.1-.453c.408-.185.527,1.194.5,1.5l-.008.111c.061.143.3.563.5.579.333.026.037-.3.218-.446.57-.472.367.733.589.825.118.05.205-.177.33-.156.154.024.168.159.306.2.115.037.5.055.582.164.159.21-.107.3-.055.5s.388.518.6.5c-.052-.631.212-.255.555-.233.076.38.508.361.426.724.215.022.2.159.29.29.044.064-.016.215.026.29.052.095.227.1.272.218.259.653-.395.088-.655.133-.521.09-.217.745-.039.98.283.377.709.454,1.029.777l.084.125c.155.342.553.374.542.8,0,.124-.188.144-.165.323s.238.242.291.384c.1.271-.129.518.013.754.073.122.353.119.4.215.068.141-.066.236-.07.372a4.106,4.106,0,0,0,.1,1.669,6.536,6.536,0,0,1,.416,1.67,1.311,1.311,0,0,1,.372-.424c.343.236.236.9.759,1.009h.042c.047-.367-.264-.635-.254-.984.008-.327.366-.817.657-.632.27.172.28.818.482,1.072a2.205,2.205,0,0,0,.922.708,3.524,3.524,0,0,0,.006-.666c-.031-.183-.283-.528-.173-.729.194-.355.272.331.348.44.138.194.552.294.586.581.021.168-.168.149-.175.26-.013.231.057.2.107.39a3,3,0,0,1,.149.74c0,.566-.252,1.067-.252,1.662l.042.083c.063.165.074.321-.081.414.108.215.367.73-.034.81a.557.557,0,0,0,.62-.01c.154-.059,0-.146.3-.119a2.027,2.027,0,0,1,.479.2c.218.226.827,1.581.107,1.423.144.408.676.73.969,1.017.07-.976,1.024.538,1.134.9.231.754.411,1.7,1.222,2.007l.084.042c.574.435.167.878.294,1.46.157.717.979.454,1.246.968.18.345-.129.457-.236.748a2.086,2.086,0,0,0-.04.69,2.02,2.02,0,0,0,.809,1.229,2.533,2.533,0,0,0-.6,1.842l-.042.167c0,.289-.028.592,0,.878.01.1.094.262.081.355-.031.212-.149.239-.218.441-.049.143,0,.287-.029.432-.013.059.026.151,0,.205-.042.1-.191.112-.217.185a1.25,1.25,0,0,0,.087.828c.084.31.227.6.317.915a6.149,6.149,0,0,1,.071.862,3.991,3.991,0,0,0,.4,1.714c.371.546.146.436,0,1.033a4.3,4.3,0,0,0-.029,1.011l-.084.209c0,.536-.131.507-.464.871-.17.186-.136.266-.21.464a1.531,1.531,0,0,1-.209.417,1.556,1.556,0,0,0-.294.868,4.116,4.116,0,0,1-.406,1.054c-.147.321-.346.674-.472.963s-.094.619-.228.919c-.27.608-1.078,1.212-.961,1.956.026.168.2.274.235.446.053.234-.058.254-.1.438a1.437,1.437,0,0,1-.167.5c-.1.156-.285.2-.348.416l-.042.119c.047.465-.241.6-.422.963s-.071.574-.377.908c-.421.457-1.233,1.083-1.267,1.755-.023.43.168.745-.345.982-.18.083-.411.03-.592.143-.207.13-.215.279-.358.481-.341.485-.736.473-1.262.584s-.7.536-.955.964a5.685,5.685,0,0,1-.723,1.244c-.209.193-.311.1-.443.425a2.584,2.584,0,0,1-.251.7v.083c0,.274-.207.337-.361.522s-.175.39-.311.557c-.184.226-.422.268-.605.513a2.956,2.956,0,0,0-.309.624c-.181.427-.217.878-.393,1.293-.125.294-.193.226-.172.546.015.213.175.331,0,.539-.17-.1-.112-.647-.424-.29-.341.388.248.221.217.5-.026.249-.565.039-.722.122-.254.135-.267.528-.4.737-.108.173-.335.25-.438.4s-.066.334-.142.449c-.147.228-.359.255-.456.5-.034.085.071.223.04.332-.057.2-.293.334-.367.536a2.908,2.908,0,0,0-.05.971c-.123.416-.406.743-.548,1.168a2.408,2.408,0,0,1-.4.626c-.155.241-.1.326-.149.607-.032.2-.152.367-.17.555-.028.3.128.318.215.552.173.467-.218.858.12,1.3a4.923,4.923,0,0,0-1.142.507,1.98,1.98,0,0,1-1.529.367c-.487-.05-.93-.188-1.432-.207s-.916.063-1.412.082l-.168.125a6.608,6.608,0,0,0-4.445,2.023c-.385.384-.594.348-1.074.486-.241.069-.349.263-.633.178-.207-.063-.291-.384-.548-.306-.408.122-.068.717.194.778.218.051.272-.331.4.019.037.1-.1.436-.139.541-.052.136-.121.546-.372.465-.091-.029-.191-.443-.241-.557-.128-.289-.6-1.067-.849-.449-.115-.106-.539-1.561-.887-.961v.042a5.574,5.574,0,0,0-.969-.546c-.246-.069-.858-.281-.3-.538a.457.457,0,0,0,.451.246c-.011,0,.493-.34.487-.329a.466.466,0,0,0-.634-.66c-.241.122-.167.292-.3.411a1.589,1.589,0,0,1-.647.205,1.008,1.008,0,0,1-.979-.57c.568-.08.586.263,1.065-.247.126-.135.4-.3.361-.509s-.362-.258-.471-.5.144-.353-.205-.384c-.193-.018-.5.257-.678.334-.293.125-.987.178-1.042.547.264.074,1.176-.117,1.215.2.07.566-1.044.61-1.333.672-.534.117-2.577,2.341-3.053,1.627h-.042a2.428,2.428,0,0,1-.812-.375c-.235-.191-.338-.469-.581-.647s-.586-.246-.851-.406c-.3-.18-.468-.525-.791-.619-.238-.069-.506.071-.741.042-.371-.045-.487-.332-.817-.47a.97.97,0,0,0-.812.006c-.2.148-.133.513-.537.422-.165-.037-.2-.168-.337-.252-.2-.12-.175.045-.338-.178-.184-.254-.024-.68-.463-.74H96.02c-.481-.465-1.207-.21-1.762-.586a3.5,3.5,0,0,1-1.018-1.545,2,2,0,0,0-.5-.7c-.3-.241-.705-.367-.76-.844-.047-.4.152-.5-.008-.915-.178-.464-.2-.257.168-.674l.042-.042a4.942,4.942,0,0,0-.073-1.836,6.556,6.556,0,0,0-1.233-2.091c-.367-.443-1.246-1.321-1.861-1.338-.286-.008-.267.13-.466.241a.843.843,0,0,1-.542.178,3.141,3.141,0,0,1-.966.045c-.566-.231-.1-.478.136-.627.212-.133.244-.311.409-.464a1.672,1.672,0,0,1,.55-.249h.042c0-.688.46-1.2.3-1.881s-.769-1.078-.972-1.714c-.078-.241-.037-.552-.294-.711-.443-.274-.349.067-.419.337-.081.313-.364.488-.456.794-.078.254.013.541-.07.794a7.809,7.809,0,0,0-.307.791c-.05.241-.016.764-.218.926-.225.18-.54-.069-.759-.087a1.806,1.806,0,0,0-.8.164c-.121.063-.222.244-.337.287-.218.085-.286-.066-.481-.039-.265.037-.807.414-.579-.2.068-.185.346-.273.46-.428s.092-.29.188-.44c.235-.366.372-.31.793-.258.26.032.243.217.474-.045.144-.164.078-.3.113-.489a3.484,3.484,0,0,0,.2-1.141c-.026-.193-.144-.356-.115-.563.026-.191.209-.335.254-.518.039-.16-.015-.3.039-.462.045-.141.188-.247.212-.417l.084-.083c-.058-.367.183-.607.43-.838.154-.143.749-.5.791-.663.1-.39-1.091-1.505.037-1.6a4.106,4.106,0,0,0-.06-1.2c-.11-.324-.2-1.107-.553-1.212a2.964,2.964,0,0,0,.118,1.041c.141.687-.061.3-.474.574a4.256,4.256,0,0,0-.671.838,5.79,5.79,0,0,0-.515,1.1c-.163.385-.225.711-.579.876a8.932,8.932,0,0,0-1.065.462A13.761,13.761,0,0,0,81.5,90.5c-.293.246-.309.666-.531.969a4.11,4.11,0,0,0-.343.435c-.1.18-.089.366-.264.517s-.366.138-.518.318a5.576,5.576,0,0,0-.282.592,2.018,2.018,0,0,0,.657-.074,1.748,1.748,0,0,1-.112.886c-.238.185-.544-.361-.824-.395-.184.754-1.019-.582-1.26-.8,0-.6-.471-.342-.788-.465.1-.2.277-.441.519-.449-.015.29.487.311.649.571.107-.246-.338-.525-.414-.794-.066-.231.058-.51-.008-.74-.053-.188-.2-.236-.257-.42a3,3,0,0,1-.006-.419,1.247,1.247,0,0,0-.395-.8c-.257-.2-.668-.164-.914-.367-.34-.284-.087-.481-.115-.852-.057-.8-.688-1.011-1.307-1.154l-.218-.026a5.76,5.76,0,0,1-.555-.921.9.9,0,0,1-.2-.42c-.032-.16,0-.35-.018-.512.343-.181.481.481.6.048a1.161,1.161,0,0,0-.311-.793c-.388-.411-.421-.019-.843.124-.469.159-.529-.207-.225-.568.28-.332.738-.366.094-.69-.165-.083-.364-.079-.532-.152-.146-.064-.328-.279-.492-.29-.257-.016-.639.289-.966.3a1.118,1.118,0,0,1-.942-.4c-.472.04-.639-.4-1.023-.573a.824.824,0,0,0-.843.079c-.935.469-1.108.122-1.83-.528a5.632,5.632,0,0,0-2.076-1.271c-.479-.085-.6.14-.934.359a2.018,2.018,0,0,1-.843.217H62.7c-1.128,0-2.23-.193-3.364-.132a8.461,8.461,0,0,0-2.995.878c-.6.286-1.149.66-1.767.919-.552.233-1.146.379-1.7.634a8.076,8.076,0,0,1-3.351.915c-.56,0-1.1-.064-1.642-.088-.815-.035-1.021.384-1.566.924l-.222.043c-.783.074-1.718.964-2.387,1.366-.781.467-1.781.356-2.354,1.144a4.356,4.356,0,0,0-.592,1.324,2.86,2.86,0,0,1-.116.562c-.147.274-.307.186-.532.39-.375.34,0,.775-.364,1.149-.317.326-.673.138-1.034.4-.176.128-.2.467-.521.353-.256-.091-.2-.512-.545-.57-.406-.067-.892.324-1.3.358.013.525-.516.064-.764.08-.369.026-.324.38-.665.4-.578.032-.566-1.325-1.3-.353l-.092.114c-.714,0-1.4.069-2.092,0a3.942,3.942,0,0,0-2.231.536c-.657.286-1.356.088-1.992.427-.811.432-.833.977-.783,1.776-.113-.024-.283.04-.395.013.04,1.021-2.332-.124-1.9,1.256-.545.239-1,.221-1.209.815-.238.68-.028.855-.862,1.088a11.194,11.194,0,0,1-3.092.252,21.447,21.447,0,0,1-3.307-.335c-.393-.061-.32.091-.7-.2-.251-.193-.361-.562-.62-.756a2.823,2.823,0,0,0-1.487-.586l-.068.067c-1.04.132-1.137-.395-1.325-1.181-.142-.594-.481-1.341-.032-1.9.689.523.966.52,1.374-.154A2.779,2.779,0,0,0,13.4,91.2c-.074-.576-.542-1.094-.542-1.682,0-.64.573-.966.07-1.547l-.068-.067a4.5,4.5,0,0,0-.387-2.677c-.317-.457-.775-.855-1.112-1.29-.383-.5-.683-.987-1.042-1.494a11.752,11.752,0,0,1-1.377-2.879c-.393-1.085.036-2.216-.743-3.185L8,76.45c.061-.7-.686-1.234-.927-1.824A6.07,6.07,0,0,0,5.5,72.591c-.618-.647-.39-1.224-.668-1.937a7.677,7.677,0,0,0-1.155-1.844v.135C3.325,67.318.128,66.468,1.3,64.807c.011.473,1.016,2.168,1.569,1.937.574-.239.207-1.759.191-2.261a3.045,3.045,0,0,0,.634,1.041c.312.306.215.505.481-.093a3.135,3.135,0,0,0-.1-1.762c-.162-.306-.759-.515-1.008-.767a3.684,3.684,0,0,1-.623-1.125c-.33-.663-1.091-1.155-1.267-1.876l.068-.067c-.193-.823-.882-1.388-1-2.279-.147-1.136.471-1.524.832-2.474A2.945,2.945,0,0,0,.9,52.825c-.167-.414-.7-.711-.853-1.094-.193-.473.246-.894.312-1.345a3.192,3.192,0,0,1,1.071-2.463c.083.469-.157.91-.058,1.377.105.494.584.73.278,1.279.482-.143.68-.152.922-.578.209-.366.205-.884.406-1.285A6.393,6.393,0,0,1,5.5,46.569Z" transform="translate(1.157 6.852)" fill="#adafb2"/>
        <circle id="Oval-4" data-name="Oval" cx="13.5" cy="13.5" r="13.5" transform="translate(124.5 64.5)" fill="#f05024" opacity="0.5"/>
        <path id="Path-2" data-name="Path" d="M.627,1.093A1.753,1.753,0,0,0,1.153.858C1.107.762.735.472.614.517c-.168.063-.22.5-.013.55Z" transform="translate(106.967 5.899)" fill="#adafb2"/>
        <path id="Path-3" data-name="Path" d="M.853,1.016C1.151.878,1.089.527.748.6.366.675.693,1,.96.965Z" transform="translate(107.267 3.992)" fill="#adafb2"/>
        <path id="Path-4" data-name="Path" d="M.708,1.036C.868.947,1.183.7.892.591S.5.8.733.957Z" transform="translate(106.833 3.658)" fill="#adafb2"/>
        <path id="Path-5" data-name="Path" d="M.686.745c-.024.2.147.334.249.117C1.028.665.808.556.661.692Z" transform="translate(107.223 5.646)" fill="#adafb2"/>
        <path id="Path-6" data-name="Path" d="M.549.933a2.944,2.944,0,0,0,.6-.108C1.093.63.514.62.472.8a.322.322,0,0,1,.1.03Z" transform="translate(109.175 0.943)" fill="#adafb2"/>
        <path id="Path-7" data-name="Path" d="M.73.917A1.45,1.45,0,0,0,1.149.893C1.149.622.482.637.469.81A.916.916,0,0,1,.781.839Z" transform="translate(107.285 0.357)" fill="#adafb2"/>
        <path id="Path-8" data-name="Path" d="M.4,1.362c.18,0,.474.069.523-.124.508-.013.3-.18.558-.533s.345.032.752-.083C2.476-.067,1.185.212.9.3.436.462-.169.879.044,1.435a.334.334,0,0,1,.487-.071l-.131,0Z" transform="translate(94.425 28.42)" fill="#adafb2"/>
        <path id="Path-9" data-name="Path" d="M.588.878A.7.7,0,0,0,.845.593c.354.117.144.6-.16.35Z" transform="translate(94.917 30.316)" fill="#adafb2"/>
        <path id="Path-10" data-name="Path" d="M1.092,1.05C1.144.618.858.24.52.665c.173.168.246.531.54.449Z" transform="translate(85.646 24.722)" fill="#adafb2"/>
        <path id="Path-11" data-name="Path" d="M.763,1.094C.906.969,1.229.576.891.515.572.457.412,1,.828,1.03Z" transform="translate(83.936 24.165)" fill="#adafb2"/>
        <path id="Path-12" data-name="Path" d="M.067,2.165c.351-.1.443.024.769.1a3,3,0,0,0,.72.047,1.282,1.282,0,0,1,.362.04c.162.043.231.162.413.05s.29-.6.031-.658a1.053,1.053,0,0,0-.125.287c-.036-.022-.178-.168-.21-.172-.081-.01-.15.079-.212.072-.141-.018-.382,0-.343-.207s.416-.075.445-.279c.023-.152-.4-.138-.2-.443.125-.188.906-.1.646-.568-.2-.366-.49.276-.775.127,0-.215-.118-.282.092-.488A.942.942,0,0,0,1.014.045C1.546.832.506.261.294.628c.23.2.044.589.032.85-.008.2.089.133-.049.318C.169,1.942-.014,1.883,0,2.1Z" transform="translate(83.89 17.513)" fill="#adafb2"/>
        <path id="Path-13" data-name="Path" d="M.769,1.118C.9.964,1,1.073,1.028.834A.256.256,0,0,0,.847.509C.379.371.651.907.8,1.053Z" transform="translate(82.8 16.988)" fill="#adafb2"/>
        <path id="Path-14" data-name="Path" d="M.509,1.806c.021-.177-.049-.185-.1-.29a.517.517,0,0,1-.1-.289A1.253,1.253,0,0,0,.2.87C.167.75.077.678.19.561.032.423-.138.087.179.009c.277-.069.142.3.4.375C.786.445.965.208.931.516.921.609.711.684.842.8s.309-.1.4-.154c.071.313.073.249.34.111.1-.053.235-.029.33-.067s.178-.148.3-.185c.142-.042.168.055.259.058.249.01.071.024.264-.14.047-.04.257-.185.32-.175.115.016.136.177.246.234-.029-.26.27-.319.5-.374a.386.386,0,0,1,.05.276c.252-.045.278.132.429.27.191.175.249.091.194.351-.021.1-.086.144-.084.266,0,.1.094.167.068.276-.066.276-.371.186-.516.279-.172.111-.317.339-.5.462-.2.136-.353.306-.561.43-.189.112-.278.239-.471.185s-.392-.246-.574-.321A1.96,1.96,0,0,1,1.2,2.21C1.03,2.055.831,1.977.663,1.831Z" transform="translate(60.355 7.737)" fill="#adafb2"/>
        <path id="Path-15" data-name="Path" d="M1.866,1.261c.086.141.841.4.472.6-.176.1-.671-.051-.861-.08a3.837,3.837,0,0,0-.989.109C.374,1.906.036,1.939,0,1.813c0,.01.22-.375.257-.4.157-.088.379.218.435-.128.016-.093-.1-.16-.079-.254S.754.843.809.779C.7.712.56.776.513.656.456.513.62.429.705.364A4.736,4.736,0,0,1,1.063.046c.194-.1.081-.018.205.1.07.067.227.167.269.249s-.031.257,0,.355a2.161,2.161,0,0,0,.332.557Z" transform="translate(58.972 8.383)" fill="#adafb2"/>
        <path id="Path-16" data-name="Path" d="M9.776,7.573c-.04.18-.04.35-.079.536-.013.063.061.226.045.26-.055.111-.184.048-.248.148a2.486,2.486,0,0,0-.278,1.011c0,.082.288,1.322-.235.7-.157-.188.029-.334-.254-.467a3.12,3.12,0,0,0-.71-.144c0,.2.105.435-.044.591a.627.627,0,0,1-.239-.364c-.474.071-.354.377-.243.666.058.149.317.746-.116.61,0-.278-.065-.542-.285-.382-.139.1-.034.68-.432.385a2.485,2.485,0,0,1-.887,1.261c-.312.128-.468-.014-.707-.16a1.342,1.342,0,0,0-.573-.237c-.409-.077-1.036-.029-1.2-.348-.421-.8.534-.263.712-.433-.214-.308-.751-.229-.951-.5-.04.106-.154.149-.2.21-.223-.177-.049-.372-.12-.6-.063-.2-.2-.287-.34-.432-.061-.064-.044-.175-.11-.244s-.207,0-.251-.056c-.1-.138-.066-.363-.1-.536l-.04.04a1.831,1.831,0,0,0-.349-.915,1.645,1.645,0,0,1-.22-.875c-.123-1.271.476.408.969-.156-.477-.273-.367-.456-.516-.863-.455.525-.3-.374-.324-.568A1.362,1.362,0,0,0,.724,4.677l-.04.079a2,2,0,0,0-.1-.833c-.074-.2-.629-.7-.3-.822-.026-.213-.165-.454-.2-.688s.006-.5-.006-.746C.078,1.536-.027,1.5.007,1.341.034,1.209.2,1.223.245,1.1A6.97,6.97,0,0,0,.282.307L.322.188c.285.339.353.133.6-.018.163-.1.558-.359.516.059-.026.255-.411.146-.285.428A1.708,1.708,0,0,0,1.837.9c0-.263.236-.3.4-.2.073.045-.049.27.01.324.1.088.22-.013.317.037a1.876,1.876,0,0,1,.3.136c.073.05.052.223.139.294.149.119.437.133.61.282a2.935,2.935,0,0,0,2.636.757h.04c.375.05.73-.363,1.118-.4a4.181,4.181,0,0,1,.969-.074c.207.032.147.194.421.09.231-.088.259-.286.547-.3.2-.008.333.18.561.085.205-.085.257-.388.521-.4.319-.019.867.65.913.937a.983.983,0,0,1-.091.465c-.034.135-.121.189-.112.343,0,.085.125.233.125.242,0,.353-.309.582-.275,1.037.018.233.1.273,0,.515-.11.26-.33.319-.28.663.029.2.33,1.077.159,1.245-.23.226-.379-.186-.563-.16-.222.03-.382.443-.361.634Z" transform="translate(107.356 124.459)" fill="#adafb2"/>
        <path id="Path-17" data-name="Path" d="M.953,1.2c.07-.185.21-.217.241-.408A.867.867,0,0,0,1.072.417C.859.335.484.8.424.9c.139.306.424,0,.565.3Z" transform="translate(113.586 135.339)" fill="#adafb2"/>
        <path id="Path-18" data-name="Path" d="M.695,1.324a.6.6,0,0,1,.207-.3.97.97,0,0,0,.17.3.347.347,0,0,0,.07-.61C1.029.621.918.679.814.611S.7.366.61.324C.269.151.3.539.366.711c.01.029.16.006.175.056S.478.913.487.942c.042.124-.115.26.139.281Z" transform="translate(115.386 134.296)" fill="#adafb2"/>
        <path id="Path-19" data-name="Path" d="M1.488,2.351c0-.183-.241-.371-.324-.542-.1-.2-.167-.408-.27-.6C.776.978.609-.054.3,0c-.66.12.773,2.2,1.074,2.388Z" transform="translate(0.287 69.787)" fill="#adafb2"/>
        <path id="Path-20" data-name="Path" d="M1.432,2.288A4.615,4.615,0,0,0,1.473,1.2c-.045-.1-.228-.172-.3-.262s-.058-.2-.126-.279S.856.619.8.558C.714.467.714.334.615.241.591.286.52.359.5.4.442.069.271-.249.136.289a1.233,1.233,0,0,0,0,.443c.076.215.162.138.244.274.15.25.233.539.387.806.138.239.159.777.54.695a1.031,1.031,0,0,0,.052-.18Z" transform="translate(2.158 69.668)" fill="#adafb2"/>
        <path id="Path-21" data-name="Path" d="M.28,3.931a3.137,3.137,0,0,1,.937-1.789c.18-.223.548-.536.578-.833C1.814,1.1,1.67,1.061,1.588.9A.966.966,0,0,1,1.529.4c.008-.172.1-.4-.15-.4A1.05,1.05,0,0,0,.885.334c.188.286.518.515.254.876-.2.271-.634.411-.883.626C.329,1.889.4,1.943.471,2c-.087.124-.028.234-.074.363-.076.21-.3.274-.358.494a.856.856,0,0,0,.193.86Z" transform="translate(141.891 65.767)" fill="#adafb2"/>
        <path id="Path-22" data-name="Path" d="M3.561,1.772c-.053-.3.089-.27.275-.425s.212-.374.338-.554c-.128-.04-.558.051-.647-.039C3.349.573,3.65.4,3.77.345,3.547.331,3.5.185,3.59.015c-.222-.058-.395.069-.6.114-.18.039-.359.008-.539.034a5.966,5.966,0,0,0-.914.246C1.183.517.845.634.485.706S.112,1.035,0,1.364c.33.154.594.185.578.629a1.354,1.354,0,0,1,.83-.22A3.6,3.6,0,0,0,2.05,1.8c.3-.04.371-.152.671-.024s.4.207.715,0l.125,0Z" transform="translate(82.904 103.365)" fill="#adafb2"/>
        <path id="Path-23" data-name="Path" d="M.345.8C.446.579.567.441.839.521c.16.048.469.2.43.4C1.18,1.357.078.922.438.7Z" transform="translate(86.826 103.576)" fill="#adafb2"/>
        <path id="Path-24" data-name="Path" d="M.616,1.982a.82.82,0,0,0,.649-.952C1.241.631,1.354.066.775,0c0,.043.026.228,0,.271C.723.348.579.4.551.453a5.82,5.82,0,0,0-.16.576c-.094.273,0,.226.073.489.049.167-.05.374.06.494Z" transform="translate(104.925 120.304)" fill="#adafb2"/>
        <path id="Path-25" data-name="Path" d="M.215.378C.376.361.5.467.647.464S.9.321,1.031.321c.22,0,.675.534.379.7-.244.138-.162-.188-.288-.228C.9.727.966.886.884,1.019c-.191.313-.45.412-.421-.056C.539.945.583.887.636.866.45.723.042.807.122.439Z" transform="translate(117.787 124.075)" fill="#adafb2"/>
        <path id="Path-26" data-name="Path" d="M1.082,2.012c.175,0,.409.112.5-.053a.236.236,0,0,0-.254-.324c.01-.168.218-.218.222-.416,0-.278-.227-.273-.385-.412C.946.618.838.011.525,0,.454.181.347.234.211.358s-.3.053-.1.22c.125.1.28-.006.356.2.05.132-.053.318-.121.414a1.39,1.39,0,0,1,.277.549c.1.268.047.25.367.3Z" transform="translate(117.412 121.982)" fill="#adafb2"/>
      </g>
    </g>
  </g>
</svg>
