<svg height="24" viewBox="0 0 24 24" width="24" xmlns="http://www.w3.org/2000/svg"><path d="m2.2 20a2.109 2.109 0 0 1 -2.2-2v-16a2.109 2.109 0 0 1 2.2-2h17.6a2.109 2.109 0 0 1 2.2 2v16a2.109 2.109 0 0 1 -2.2 2zm-1.2-2a1.061 1.061 0 0 0 1.112 1h17.777a1.061 1.061 0 0 0 1.111-1v-13h-20zm11-1h-9v-10h16v7h-3v3zm-2-1h2v-2h-2zm-3 0h2v-2h-2zm-3 0h2v-2h-2zm12-3h2v-2h-2zm-3 0h2v-2h-2zm-3 0h2v-2h-2zm-3 0h2v-2h-2zm-3 0h2v-2h-2zm12-3h2v-2h-2zm-3 0h2v-2h-2zm-3 0h2v-2h-2zm-3 0h2v-2h-2zm-3 0h2v-2h-2z" fill="#f05024" opacity=".5" transform="translate(1 2)"/></svg>