<svg width="24" height="24" viewBox="0 0 24 24" fill="none" xmlns="http://www.w3.org/2000/svg">
<g opacity="0.5">
<path d="M14.5652 12.0003L23.4689 3.09664C24.1771 2.38845 24.1771 1.23963 23.4689 0.531409C22.7607 -0.177136 21.6119 -0.177136 20.9037 0.531409L12 9.43546L3.09664 0.531766C2.38844 -0.176779 1.23927 -0.176779 0.531409 0.531766C-0.177136 1.23996 -0.177136 2.38878 0.531409 3.097L9.43475 12.0003L0.531409 20.904C-0.177136 21.6122 -0.177136 22.761 0.531409 23.4693C0.885502 23.8234 1.3495 24.0002 1.8138 24.0002C2.27779 24.0002 2.74217 23.8234 3.0962 23.4693L11.9999 14.5659L20.9036 23.4693C21.2577 23.8234 21.7224 24.0002 22.186 24.0002C22.6496 24.0002 23.1144 23.8234 23.4684 23.4693C24.1766 22.7611 24.1766 21.6123 23.4684 20.904L14.5652 12.0003Z" fill="#030303"/>
<path d="M14.5652 12.0003L23.4689 3.09664C24.1771 2.38845 24.1771 1.23963 23.4689 0.531409C22.7607 -0.177136 21.6119 -0.177136 20.9037 0.531409L12 9.43546L3.09664 0.531766C2.38844 -0.176779 1.23927 -0.176779 0.531409 0.531766C-0.177136 1.23996 -0.177136 2.38878 0.531409 3.097L9.43475 12.0003L0.531409 20.904C-0.177136 21.6122 -0.177136 22.761 0.531409 23.4693C0.885502 23.8234 1.3495 24.0002 1.8138 24.0002C2.27779 24.0002 2.74217 23.8234 3.0962 23.4693L11.9999 14.5659L20.9036 23.4693C21.2577 23.8234 21.7224 24.0002 22.186 24.0002C22.6496 24.0002 23.1144 23.8234 23.4684 23.4693C24.1766 22.7611 24.1766 21.6123 23.4684 20.904L14.5652 12.0003Z" fill="black" fill-opacity="0.2"/>
</g>
</svg>
