<svg width="40" height="40" viewBox="0 0 40 40" fill="none" xmlns="http://www.w3.org/2000/svg">
<g opacity="0.7">
<rect width="40" height="40" fill="#FFF9F6"/>
<g opacity="0.5">
<rect x="29" y="5" width="29" height="24" rx="1" transform="rotate(90 29 5)" stroke="#55311B" stroke-width="2"/>
<rect x="10" y="3" width="14" height="3" rx="1" stroke="#55311B" stroke-width="2"/>
</g>
<rect x="39" y="26" width="12" height="28" rx="3" transform="rotate(90 39 26)" fill="#55311B" stroke="#FFF9F6" stroke-width="2"/>
<rect opacity="0.5" x="10" y="19" width="15" height="2" fill="#55311B"/>
<rect opacity="0.5" x="10" y="16" width="15" height="2" fill="#55311B"/>
<rect opacity="0.5" x="10" y="10" width="5" height="4" fill="#55311B"/>
<rect opacity="0.5" x="10" y="22" width="9" height="2" fill="#55311B"/>
<rect x="20" y="30" width="2" height="4" fill="white"/>
<rect x="16" y="30" width="2" height="4" fill="white"/>
<rect x="24" y="30" width="2" height="4" fill="white"/>
<rect x="32" y="30" width="2" height="4" fill="white"/>
<rect x="28" y="30" width="2" height="4" fill="white"/>
<rect x="12" y="4" width="10" height="1" fill="white"/>
</g>
</svg>
