<svg width="16" height="16" viewBox="0 0 16 16" fill="none" xmlns="http://www.w3.org/2000/svg">
<path fill-rule="evenodd" clip-rule="evenodd" d="M7.96632 4.85053L10.3579 7.24211C10.56 7.44421 10.6781 7.73053 10.6781 8C10.6781 8.26947 10.5768 8.55579 10.3579 8.75789L7.96632 11.1495C7.54526 11.5705 6.87158 11.5705 6.45053 11.1495C6.02947 10.7284 6.02947 10.0547 6.45053 9.63368L8.08421 8L6.45053 6.36632C6.02947 5.94526 6.02947 5.27158 6.45053 4.85053C6.85474 4.42947 7.54526 4.42947 7.96632 4.85053ZM0 8C0 12.4126 3.58737 16 8 16C12.4126 16 16 12.4126 16 8C16 3.58737 12.4126 0 8 0C3.58737 0 0 3.58737 0 8Z" fill="#F05024"/>
</svg>
