<svg width="40" height="40" viewBox="0 0 40 40" fill="none" xmlns="http://www.w3.org/2000/svg">
<g opacity="0.7">
<path d="M32 17.0909C32 21.7825 28.9813 26.2667 25.7717 29.6784C24.1868 31.363 22.5987 32.7405 21.4057 33.6971C20.8268 34.1613 20.3428 34.5249 20 34.7748C19.6572 34.5249 19.1732 34.1613 18.5943 33.6971C17.4013 32.7405 15.8132 31.363 14.2283 29.6784C11.0187 26.2667 8 21.7825 8 17.0909C8 13.882 9.26596 10.8058 11.5172 8.53888C13.7682 6.27215 16.8197 5 20 5C23.1803 5 26.2318 6.27215 28.4828 8.53888C30.734 10.8058 32 13.882 32 17.0909Z" stroke="#55311B" stroke-width="2" stroke-linecap="round" stroke-linejoin="round"/>
<path opacity="0.5" d="M20 21C22.2091 21 24 19.2091 24 17C24 14.7909 22.2091 13 20 13C17.7909 13 16 14.7909 16 17C16 19.2091 17.7909 21 20 21Z" stroke="#55311B" stroke-width="2" stroke-linecap="round" stroke-linejoin="round"/>
</g>
</svg>
