<svg height="48" viewBox="0 0 48 48" width="48" xmlns="http://www.w3.org/2000/svg">
	<path d="m973.86482 425.230769c-4.308391 1.077791-8.700349 1.788028-13.128672 2.123077-4.228347-.315064-8.417901-1.025862-12.513747-2.123077 1.00865 6.292658 6.422158 10.928826 12.790463 10.953846 6.377231.033314 11.849833-4.619906 12.851956-10.953846zm6.455206-11.259027c3.245771 7.817424 1.464613 16.821855-4.512461 22.812194-5.977074 5.99034-14.972164 7.786076-22.788532 4.549393-7.816368-3.236684-12.913656-10.867936-12.913656-19.333329.016878-11.536489 9.348885-20.889208 20.876741-20.923122 8.459076-.012404 16.092136 5.077439 19.337908 12.894864zm-43.320026 8.028258c0 13.254834 10.73716 24 23.982118 24s23.982118-10.745166 23.982118-24-10.73716-24-23.982118-24-23.982118 10.745166-23.982118 24z" fill="#A2A3A7" fill-rule="evenodd" transform="translate(-937 -398)"/>
</svg>