<svg id="Icons_Arrow" data-name="Icons/Arrow" xmlns="http://www.w3.org/2000/svg" width="16" height="16" viewBox="0 0 16 16">
  <path id="Combined_Shape" data-name="Combined Shape" d="M6.667,13.333a6.667,6.667,0,1,1,6.667-6.667A6.674,6.674,0,0,1,6.667,13.333ZM5.914,4a.588.588,0,0,0-.412.164.554.554,0,0,0,0,.8L7.264,6.667,5.509,8.374a.553.553,0,0,0,0,.8.607.607,0,0,0,.412.163.614.614,0,0,0,.411-.163L8.5,7.066a.568.568,0,0,0,.168-.4.549.549,0,0,0-.168-.4l-2.173-2.1A.588.588,0,0,0,5.914,4Z" transform="translate(1.333 1.333)" fill="#f05024"/>
</svg>
