<svg xmlns="http://www.w3.org/2000/svg" width="47.965" height="48" viewBox="0 0 47.965 48">
  <path id="Shape" d="M23.982,48A23.991,23.991,0,0,1,0,24,23.978,23.978,0,0,1,40.94,7.029a24.012,24.012,0,0,1,0,33.941A23.817,23.817,0,0,1,23.982,48Zm.031-44.923h-.031a20.923,20.923,0,0,0,.026,41.846,20.923,20.923,0,0,0,.005-41.846Zm.066,35.108h-.067A13.008,13.008,0,0,1,11.222,27.23a67.938,67.938,0,0,0,12.514,2.123A78.658,78.658,0,0,0,36.865,27.23,12.97,12.97,0,0,1,24.081,38.184h0Z" fill="#55311b"/>
</svg>
