<?xml version="1.0" encoding="UTF-8"?>
<svg width="40px" height="40px" viewBox="0 0 40 40" version="1.1" xmlns="http://www.w3.org/2000/svg" xmlns:xlink="http://www.w3.org/1999/xlink">
    <title>5</title>
    <g id="Design" stroke="none" stroke-width="1" fill="none" fill-rule="evenodd">
        <g id="Health---Same-Day-Crowns" transform="translate(-872.000000, -12347.000000)">
            <g id="Group-16" transform="translate(-1.000000, 9489.000000)">
                <g id="calculation" transform="translate(753.000000, 2817.000000)">
                    <g id="5" transform="translate(120.000000, 41.000000)">
                        <path d="M20.019043,27.215332 C21.6254883,27.215332 22.8388672,26.7573242 23.6591797,25.8413086 C24.4794922,24.925293 24.8896484,23.722168 24.8896484,22.2319336 C24.8896484,20.6323242 24.5,19.3881836 23.7207031,18.4995117 C22.9414062,17.6108398 21.8374023,17.1767578 20.4086914,17.1972656 C19.9165039,17.2109375 19.4807129,17.2878418 19.1013184,17.4279785 C18.7219238,17.5681152 18.3818359,17.7475586 18.0810547,17.9663086 L18.0810547,17.9663086 L18.5322266,14.2236328 L24.3461914,14.2236328 L24.3461914,12.0703125 L16.4609375,12.0703125 L15.5996094,20.324707 L17.7426758,20.4990234 C17.8999023,20.0683594 18.1391602,19.7453613 18.4604492,19.5300293 C18.7817383,19.3146973 19.2910156,19.2070312 19.9882812,19.2070312 C20.7744141,19.2070312 21.3725586,19.4855957 21.7827148,20.0427246 C22.1928711,20.5998535 22.3979492,21.3364258 22.3979492,22.2524414 C22.3979492,23.1616211 22.197998,23.8845215 21.7980957,24.4211426 C21.3981934,24.9577637 20.8051758,25.2260742 20.019043,25.2260742 C19.3286133,25.2260742 18.7749023,25.027832 18.3579102,24.6313477 C17.940918,24.2348633 17.7324219,23.6674805 17.7324219,22.9291992 L17.7324219,22.9291992 L15.3227539,23.0112305 C15.3227539,24.3852539 15.7705078,25.4294434 16.6660156,26.1437988 C17.5615234,26.8581543 18.6791992,27.215332 20.019043,27.215332 Z" fill="#FFFFFF" fill-rule="nonzero"></path>
                        <circle id="Oval" stroke="#FFFFFF" stroke-width="2" cx="20" cy="20" r="19"></circle>
                    </g>
                </g>
            </g>
        </g>
    </g>
</svg>