<svg height="121.825" viewBox="0 0 712.983 121.825" width="712.983" xmlns="http://www.w3.org/2000/svg" xmlns:xlink="http://www.w3.org/1999/xlink"><linearGradient id="a" gradientUnits="objectBoundingBox" x2="1" y1=".589" y2=".589"><stop offset="0" stop-color="#df2065"/><stop offset="1" stop-color="#f31c6a"/></linearGradient><path d="m-521 122h461a60 60 0 0 0 60-60 60.173 60.173 0 0 0 -60-60.173l-573-1.651a60.825 60.825 0 0 0 -61 60.824 60.773 60.773 0 0 0 5.525 25.4c-1.293 14.367-5.761 29.6-18.525 32.6-22.736 4.8 25.773.761 38.273-8.552a60.709 60.709 0 0 0 24.019 10.43 15.315 15.315 0 0 0 5.708 1.122z" fill="url(#a)" opacity=".7" transform="translate(712.983 -.175)"/></svg>