<?xml version="1.0" encoding="UTF-8"?>
<svg width="46px" height="2196px" viewBox="0 0 46 2196" version="1.1" xmlns="http://www.w3.org/2000/svg" xmlns:xlink="http://www.w3.org/1999/xlink">
    <title>line</title>
    <g id="Design" stroke="none" stroke-width="1" fill="none" fill-rule="evenodd">
        <g id="Health---Same-Day-Crowns" transform="translate(-378.000000, -10179.000000)">
            <g id="Group-16" transform="translate(-1.000000, 9489.000000)">
                <g id="line" transform="translate(379.432001, 690.120024)">
                    <path d="M2.11199993,-2.27373675e-13 C3.27842529,-2.27143855e-13 4.22399987,0.945574578 4.22399987,2.11199993 L4.22399987,2192.76798 C4.22399987,2193.9344 3.27842529,2194.87998 2.11199993,2194.87998 C0.945574578,2194.87998 -2.47521041e-12,2193.9344 -2.47535326e-12,2192.76798 L-2.47535326e-12,2.11199993 C-2.4754961e-12,0.945574578 0.945574578,-2.32932566e-13 2.11199993,-2.27373675e-13 Z" id="Rectangle-Copy-25" fill="#B5B7B9" opacity="0.300000012"></path>
                    <g id="Group-12" opacity="0.5" transform="translate(12.567999, 2.879976)" fill="#D8D8D8" stroke="#979797">
                        <g id="Group-11" opacity="0.400000006">
                            <rect id="Rectangle" x="0.5" y="0.5" width="31" height="1" rx="0.5"></rect>
                            <rect id="Rectangle" x="0.5" y="10.5" width="21" height="1" rx="0.5"></rect>
                            <rect id="Rectangle" x="0.5" y="20.5" width="21" height="1" rx="0.5"></rect>
                            <rect id="Rectangle" x="0.5" y="30.5" width="21" height="1" rx="0.5"></rect>
                            <rect id="Rectangle" x="0.5" y="40.5" width="21" height="1" rx="0.5"></rect>
                            <rect id="Rectangle" x="0.5" y="50.5" width="21" height="1" rx="0.5"></rect>
                            <rect id="Rectangle" x="0.5" y="60.5" width="21" height="1" rx="0.5"></rect>
                            <rect id="Rectangle" x="0.5" y="70.5" width="21" height="1" rx="0.5"></rect>
                            <rect id="Rectangle" x="0.5" y="80.5" width="21" height="1" rx="0.5"></rect>
                            <rect id="Rectangle" x="0.5" y="90.5" width="21" height="1" rx="0.5"></rect>
                        </g>
                        <g id="Group-11" opacity="0.400000006" transform="translate(0.000000, 100.000000)">
                            <rect id="Rectangle" x="0.5" y="0.5" width="31" height="1" rx="0.5"></rect>
                            <rect id="Rectangle" x="0.5" y="10.5" width="21" height="1" rx="0.5"></rect>
                            <rect id="Rectangle" x="0.5" y="20.5" width="21" height="1" rx="0.5"></rect>
                            <rect id="Rectangle" x="0.5" y="30.5" width="21" height="1" rx="0.5"></rect>
                            <rect id="Rectangle" x="0.5" y="40.5" width="21" height="1" rx="0.5"></rect>
                            <rect id="Rectangle" x="0.5" y="50.5" width="21" height="1" rx="0.5"></rect>
                            <rect id="Rectangle" x="0.5" y="60.5" width="21" height="1" rx="0.5"></rect>
                            <rect id="Rectangle" x="0.5" y="70.5" width="21" height="1" rx="0.5"></rect>
                            <rect id="Rectangle" x="0.5" y="80.5" width="21" height="1" rx="0.5"></rect>
                            <rect id="Rectangle" x="0.5" y="90.5" width="21" height="1" rx="0.5"></rect>
                        </g>
                        <g id="Group-11" opacity="0.400000006" transform="translate(0.000000, 200.000000)">
                            <rect id="Rectangle" x="0.5" y="0.5" width="31" height="1" rx="0.5"></rect>
                            <rect id="Rectangle" x="0.5" y="10.5" width="21" height="1" rx="0.5"></rect>
                            <rect id="Rectangle" x="0.5" y="20.5" width="21" height="1" rx="0.5"></rect>
                            <rect id="Rectangle" x="0.5" y="30.5" width="21" height="1" rx="0.5"></rect>
                            <rect id="Rectangle" x="0.5" y="40.5" width="21" height="1" rx="0.5"></rect>
                            <rect id="Rectangle" x="0.5" y="50.5" width="21" height="1" rx="0.5"></rect>
                            <rect id="Rectangle" x="0.5" y="60.5" width="21" height="1" rx="0.5"></rect>
                            <rect id="Rectangle" x="0.5" y="70.5" width="21" height="1" rx="0.5"></rect>
                            <rect id="Rectangle" x="0.5" y="80.5" width="21" height="1" rx="0.5"></rect>
                            <rect id="Rectangle" x="0.5" y="90.5" width="21" height="1" rx="0.5"></rect>
                        </g>
                        <g id="Group-11" opacity="0.400000006" transform="translate(0.000000, 300.000000)">
                            <rect id="Rectangle" x="0.5" y="0.5" width="31" height="1" rx="0.5"></rect>
                            <rect id="Rectangle" x="0.5" y="10.5" width="21" height="1" rx="0.5"></rect>
                            <rect id="Rectangle" x="0.5" y="20.5" width="21" height="1" rx="0.5"></rect>
                            <rect id="Rectangle" x="0.5" y="30.5" width="21" height="1" rx="0.5"></rect>
                            <rect id="Rectangle" x="0.5" y="40.5" width="21" height="1" rx="0.5"></rect>
                            <rect id="Rectangle" x="0.5" y="50.5" width="21" height="1" rx="0.5"></rect>
                            <rect id="Rectangle" x="0.5" y="60.5" width="21" height="1" rx="0.5"></rect>
                            <rect id="Rectangle" x="0.5" y="70.5" width="21" height="1" rx="0.5"></rect>
                            <rect id="Rectangle" x="0.5" y="80.5" width="21" height="1" rx="0.5"></rect>
                            <rect id="Rectangle" x="0.5" y="90.5" width="21" height="1" rx="0.5"></rect>
                        </g>
                        <g id="Group-11" opacity="0.400000006" transform="translate(0.000000, 400.000000)">
                            <rect id="Rectangle" x="0.5" y="0.5" width="31" height="1" rx="0.5"></rect>
                            <rect id="Rectangle" x="0.5" y="10.5" width="21" height="1" rx="0.5"></rect>
                            <rect id="Rectangle" x="0.5" y="20.5" width="21" height="1" rx="0.5"></rect>
                            <rect id="Rectangle" x="0.5" y="30.5" width="21" height="1" rx="0.5"></rect>
                            <rect id="Rectangle" x="0.5" y="40.5" width="21" height="1" rx="0.5"></rect>
                            <rect id="Rectangle" x="0.5" y="50.5" width="21" height="1" rx="0.5"></rect>
                            <rect id="Rectangle" x="0.5" y="60.5" width="21" height="1" rx="0.5"></rect>
                            <rect id="Rectangle" x="0.5" y="70.5" width="21" height="1" rx="0.5"></rect>
                            <rect id="Rectangle" x="0.5" y="80.5" width="21" height="1" rx="0.5"></rect>
                            <rect id="Rectangle" x="0.5" y="90.5" width="21" height="1" rx="0.5"></rect>
                        </g>
                        <g id="Group-11" opacity="0.400000006" transform="translate(0.000000, 500.000000)">
                            <rect id="Rectangle" x="0.5" y="0.5" width="31" height="1" rx="0.5"></rect>
                            <rect id="Rectangle" x="0.5" y="10.5" width="21" height="1" rx="0.5"></rect>
                            <rect id="Rectangle" x="0.5" y="20.5" width="21" height="1" rx="0.5"></rect>
                            <rect id="Rectangle" x="0.5" y="30.5" width="21" height="1" rx="0.5"></rect>
                            <rect id="Rectangle" x="0.5" y="40.5" width="21" height="1" rx="0.5"></rect>
                            <rect id="Rectangle" x="0.5" y="50.5" width="21" height="1" rx="0.5"></rect>
                            <rect id="Rectangle" x="0.5" y="60.5" width="21" height="1" rx="0.5"></rect>
                            <rect id="Rectangle" x="0.5" y="70.5" width="21" height="1" rx="0.5"></rect>
                            <rect id="Rectangle" x="0.5" y="80.5" width="21" height="1" rx="0.5"></rect>
                            <rect id="Rectangle" x="0.5" y="90.5" width="21" height="1" rx="0.5"></rect>
                        </g>
                        <g id="Group-11" opacity="0.400000006" transform="translate(0.000000, 600.000000)">
                            <rect id="Rectangle" x="0.5" y="0.5" width="31" height="1" rx="0.5"></rect>
                            <rect id="Rectangle" x="0.5" y="10.5" width="21" height="1" rx="0.5"></rect>
                            <rect id="Rectangle" x="0.5" y="20.5" width="21" height="1" rx="0.5"></rect>
                            <rect id="Rectangle" x="0.5" y="30.5" width="21" height="1" rx="0.5"></rect>
                            <rect id="Rectangle" x="0.5" y="40.5" width="21" height="1" rx="0.5"></rect>
                            <rect id="Rectangle" x="0.5" y="50.5" width="21" height="1" rx="0.5"></rect>
                            <rect id="Rectangle" x="0.5" y="60.5" width="21" height="1" rx="0.5"></rect>
                            <rect id="Rectangle" x="0.5" y="70.5" width="21" height="1" rx="0.5"></rect>
                            <rect id="Rectangle" x="0.5" y="80.5" width="21" height="1" rx="0.5"></rect>
                            <rect id="Rectangle" x="0.5" y="90.5" width="21" height="1" rx="0.5"></rect>
                        </g>
                        <g id="Group-11" opacity="0.400000006" transform="translate(0.000000, 700.000000)">
                            <rect id="Rectangle" x="0.5" y="0.5" width="31" height="1" rx="0.5"></rect>
                            <rect id="Rectangle" x="0.5" y="10.5" width="21" height="1" rx="0.5"></rect>
                            <rect id="Rectangle" x="0.5" y="20.5" width="21" height="1" rx="0.5"></rect>
                            <rect id="Rectangle" x="0.5" y="30.5" width="21" height="1" rx="0.5"></rect>
                            <rect id="Rectangle" x="0.5" y="40.5" width="21" height="1" rx="0.5"></rect>
                            <rect id="Rectangle" x="0.5" y="50.5" width="21" height="1" rx="0.5"></rect>
                            <rect id="Rectangle" x="0.5" y="60.5" width="21" height="1" rx="0.5"></rect>
                            <rect id="Rectangle" x="0.5" y="70.5" width="21" height="1" rx="0.5"></rect>
                            <rect id="Rectangle" x="0.5" y="80.5" width="21" height="1" rx="0.5"></rect>
                            <rect id="Rectangle" x="0.5" y="90.5" width="21" height="1" rx="0.5"></rect>
                        </g>
                        <g id="Group-11" opacity="0.400000006" transform="translate(0.000000, 800.000000)">
                            <rect id="Rectangle" x="0.5" y="0.5" width="31" height="1" rx="0.5"></rect>
                            <rect id="Rectangle" x="0.5" y="10.5" width="21" height="1" rx="0.5"></rect>
                            <rect id="Rectangle" x="0.5" y="20.5" width="21" height="1" rx="0.5"></rect>
                            <rect id="Rectangle" x="0.5" y="30.5" width="21" height="1" rx="0.5"></rect>
                            <rect id="Rectangle" x="0.5" y="40.5" width="21" height="1" rx="0.5"></rect>
                            <rect id="Rectangle" x="0.5" y="50.5" width="21" height="1" rx="0.5"></rect>
                            <rect id="Rectangle" x="0.5" y="60.5" width="21" height="1" rx="0.5"></rect>
                            <rect id="Rectangle" x="0.5" y="70.5" width="21" height="1" rx="0.5"></rect>
                            <rect id="Rectangle" x="0.5" y="80.5" width="21" height="1" rx="0.5"></rect>
                            <rect id="Rectangle" x="0.5" y="90.5" width="21" height="1" rx="0.5"></rect>
                        </g>
                        <g id="Group-11" opacity="0.400000006" transform="translate(0.000000, 900.000000)">
                            <rect id="Rectangle" x="0.5" y="0.5" width="31" height="1" rx="0.5"></rect>
                            <rect id="Rectangle" x="0.5" y="10.5" width="21" height="1" rx="0.5"></rect>
                            <rect id="Rectangle" x="0.5" y="20.5" width="21" height="1" rx="0.5"></rect>
                            <rect id="Rectangle" x="0.5" y="30.5" width="21" height="1" rx="0.5"></rect>
                            <rect id="Rectangle" x="0.5" y="40.5" width="21" height="1" rx="0.5"></rect>
                            <rect id="Rectangle" x="0.5" y="50.5" width="21" height="1" rx="0.5"></rect>
                            <rect id="Rectangle" x="0.5" y="60.5" width="21" height="1" rx="0.5"></rect>
                            <rect id="Rectangle" x="0.5" y="70.5" width="21" height="1" rx="0.5"></rect>
                            <rect id="Rectangle" x="0.5" y="80.5" width="21" height="1" rx="0.5"></rect>
                            <rect id="Rectangle" x="0.5" y="90.5" width="21" height="1" rx="0.5"></rect>
                        </g>
                        <g id="Group-11" opacity="0.400000006" transform="translate(0.000000, 1000.000000)">
                            <rect id="Rectangle" x="0.5" y="0.5" width="31" height="1" rx="0.5"></rect>
                            <rect id="Rectangle" x="0.5" y="10.5" width="21" height="1" rx="0.5"></rect>
                            <rect id="Rectangle" x="0.5" y="20.5" width="21" height="1" rx="0.5"></rect>
                            <rect id="Rectangle" x="0.5" y="30.5" width="21" height="1" rx="0.5"></rect>
                            <rect id="Rectangle" x="0.5" y="40.5" width="21" height="1" rx="0.5"></rect>
                            <rect id="Rectangle" x="0.5" y="50.5" width="21" height="1" rx="0.5"></rect>
                            <rect id="Rectangle" x="0.5" y="60.5" width="21" height="1" rx="0.5"></rect>
                            <rect id="Rectangle" x="0.5" y="70.5" width="21" height="1" rx="0.5"></rect>
                            <rect id="Rectangle" x="0.5" y="80.5" width="21" height="1" rx="0.5"></rect>
                            <rect id="Rectangle" x="0.5" y="90.5" width="21" height="1" rx="0.5"></rect>
                        </g>
                        <g id="Group-11" opacity="0.400000006" transform="translate(0.000000, 1100.000000)">
                            <rect id="Rectangle" x="0.5" y="0.5" width="31" height="1" rx="0.5"></rect>
                            <rect id="Rectangle" x="0.5" y="10.5" width="21" height="1" rx="0.5"></rect>
                            <rect id="Rectangle" x="0.5" y="20.5" width="21" height="1" rx="0.5"></rect>
                            <rect id="Rectangle" x="0.5" y="30.5" width="21" height="1" rx="0.5"></rect>
                            <rect id="Rectangle" x="0.5" y="40.5" width="21" height="1" rx="0.5"></rect>
                            <rect id="Rectangle" x="0.5" y="50.5" width="21" height="1" rx="0.5"></rect>
                            <rect id="Rectangle" x="0.5" y="60.5" width="21" height="1" rx="0.5"></rect>
                            <rect id="Rectangle" x="0.5" y="70.5" width="21" height="1" rx="0.5"></rect>
                            <rect id="Rectangle" x="0.5" y="80.5" width="21" height="1" rx="0.5"></rect>
                            <rect id="Rectangle" x="0.5" y="90.5" width="21" height="1" rx="0.5"></rect>
                        </g>
                        <g id="Group-11" opacity="0.400000006" transform="translate(0.000000, 1200.000000)">
                            <rect id="Rectangle" x="0.5" y="0.5" width="31" height="1" rx="0.5"></rect>
                            <rect id="Rectangle" x="0.5" y="10.5" width="21" height="1" rx="0.5"></rect>
                            <rect id="Rectangle" x="0.5" y="20.5" width="21" height="1" rx="0.5"></rect>
                            <rect id="Rectangle" x="0.5" y="30.5" width="21" height="1" rx="0.5"></rect>
                            <rect id="Rectangle" x="0.5" y="40.5" width="21" height="1" rx="0.5"></rect>
                            <rect id="Rectangle" x="0.5" y="50.5" width="21" height="1" rx="0.5"></rect>
                            <rect id="Rectangle" x="0.5" y="60.5" width="21" height="1" rx="0.5"></rect>
                            <rect id="Rectangle" x="0.5" y="70.5" width="21" height="1" rx="0.5"></rect>
                            <rect id="Rectangle" x="0.5" y="80.5" width="21" height="1" rx="0.5"></rect>
                            <rect id="Rectangle" x="0.5" y="90.5" width="21" height="1" rx="0.5"></rect>
                        </g>
                        <g id="Group-11" opacity="0.400000006" transform="translate(0.000000, 1300.000000)">
                            <rect id="Rectangle" x="0.5" y="0.5" width="31" height="1" rx="0.5"></rect>
                            <rect id="Rectangle" x="0.5" y="10.5" width="21" height="1" rx="0.5"></rect>
                            <rect id="Rectangle" x="0.5" y="20.5" width="21" height="1" rx="0.5"></rect>
                            <rect id="Rectangle" x="0.5" y="30.5" width="21" height="1" rx="0.5"></rect>
                            <rect id="Rectangle" x="0.5" y="40.5" width="21" height="1" rx="0.5"></rect>
                            <rect id="Rectangle" x="0.5" y="50.5" width="21" height="1" rx="0.5"></rect>
                            <rect id="Rectangle" x="0.5" y="60.5" width="21" height="1" rx="0.5"></rect>
                            <rect id="Rectangle" x="0.5" y="70.5" width="21" height="1" rx="0.5"></rect>
                            <rect id="Rectangle" x="0.5" y="80.5" width="21" height="1" rx="0.5"></rect>
                            <rect id="Rectangle" x="0.5" y="90.5" width="21" height="1" rx="0.5"></rect>
                        </g>
                        <g id="Group-11" opacity="0.400000006" transform="translate(0.000000, 1400.000000)">
                            <rect id="Rectangle" x="0.5" y="0.5" width="31" height="1" rx="0.5"></rect>
                            <rect id="Rectangle" x="0.5" y="10.5" width="21" height="1" rx="0.5"></rect>
                            <rect id="Rectangle" x="0.5" y="20.5" width="21" height="1" rx="0.5"></rect>
                            <rect id="Rectangle" x="0.5" y="30.5" width="21" height="1" rx="0.5"></rect>
                            <rect id="Rectangle" x="0.5" y="40.5" width="21" height="1" rx="0.5"></rect>
                            <rect id="Rectangle" x="0.5" y="50.5" width="21" height="1" rx="0.5"></rect>
                            <rect id="Rectangle" x="0.5" y="60.5" width="21" height="1" rx="0.5"></rect>
                            <rect id="Rectangle" x="0.5" y="70.5" width="21" height="1" rx="0.5"></rect>
                            <rect id="Rectangle" x="0.5" y="80.5" width="21" height="1" rx="0.5"></rect>
                            <rect id="Rectangle" x="0.5" y="90.5" width="21" height="1" rx="0.5"></rect>
                        </g>
                        <g id="Group-11" opacity="0.400000006" transform="translate(0.000000, 1500.000000)">
                            <rect id="Rectangle" x="0.5" y="0.5" width="31" height="1" rx="0.5"></rect>
                            <rect id="Rectangle" x="0.5" y="10.5" width="21" height="1" rx="0.5"></rect>
                            <rect id="Rectangle" x="0.5" y="20.5" width="21" height="1" rx="0.5"></rect>
                            <rect id="Rectangle" x="0.5" y="30.5" width="21" height="1" rx="0.5"></rect>
                            <rect id="Rectangle" x="0.5" y="40.5" width="21" height="1" rx="0.5"></rect>
                            <rect id="Rectangle" x="0.5" y="50.5" width="21" height="1" rx="0.5"></rect>
                            <rect id="Rectangle" x="0.5" y="60.5" width="21" height="1" rx="0.5"></rect>
                            <rect id="Rectangle" x="0.5" y="70.5" width="21" height="1" rx="0.5"></rect>
                            <rect id="Rectangle" x="0.5" y="80.5" width="21" height="1" rx="0.5"></rect>
                            <rect id="Rectangle" x="0.5" y="90.5" width="21" height="1" rx="0.5"></rect>
                        </g>
                        <g id="Group-11" opacity="0.400000006" transform="translate(0.000000, 1600.000000)">
                            <rect id="Rectangle" x="0.5" y="0.5" width="31" height="1" rx="0.5"></rect>
                            <rect id="Rectangle" x="0.5" y="10.5" width="21" height="1" rx="0.5"></rect>
                            <rect id="Rectangle" x="0.5" y="20.5" width="21" height="1" rx="0.5"></rect>
                            <rect id="Rectangle" x="0.5" y="30.5" width="21" height="1" rx="0.5"></rect>
                            <rect id="Rectangle" x="0.5" y="40.5" width="21" height="1" rx="0.5"></rect>
                            <rect id="Rectangle" x="0.5" y="50.5" width="21" height="1" rx="0.5"></rect>
                            <rect id="Rectangle" x="0.5" y="60.5" width="21" height="1" rx="0.5"></rect>
                            <rect id="Rectangle" x="0.5" y="70.5" width="21" height="1" rx="0.5"></rect>
                            <rect id="Rectangle" x="0.5" y="80.5" width="21" height="1" rx="0.5"></rect>
                            <rect id="Rectangle" x="0.5" y="90.5" width="21" height="1" rx="0.5"></rect>
                        </g>
                        <g id="Group-11" opacity="0.400000006" transform="translate(0.000000, 1700.000000)">
                            <rect id="Rectangle" x="0.5" y="0.5" width="31" height="1" rx="0.5"></rect>
                            <rect id="Rectangle" x="0.5" y="10.5" width="21" height="1" rx="0.5"></rect>
                            <rect id="Rectangle" x="0.5" y="20.5" width="21" height="1" rx="0.5"></rect>
                            <rect id="Rectangle" x="0.5" y="30.5" width="21" height="1" rx="0.5"></rect>
                            <rect id="Rectangle" x="0.5" y="40.5" width="21" height="1" rx="0.5"></rect>
                            <rect id="Rectangle" x="0.5" y="50.5" width="21" height="1" rx="0.5"></rect>
                            <rect id="Rectangle" x="0.5" y="60.5" width="21" height="1" rx="0.5"></rect>
                            <rect id="Rectangle" x="0.5" y="70.5" width="21" height="1" rx="0.5"></rect>
                            <rect id="Rectangle" x="0.5" y="80.5" width="21" height="1" rx="0.5"></rect>
                            <rect id="Rectangle" x="0.5" y="90.5" width="21" height="1" rx="0.5"></rect>
                        </g>
                        <g id="Group-11" opacity="0.400000006" transform="translate(0.000000, 1800.000000)">
                            <rect id="Rectangle" x="0.5" y="0.5" width="31" height="1" rx="0.5"></rect>
                            <rect id="Rectangle" x="0.5" y="10.5" width="21" height="1" rx="0.5"></rect>
                            <rect id="Rectangle" x="0.5" y="20.5" width="21" height="1" rx="0.5"></rect>
                            <rect id="Rectangle" x="0.5" y="30.5" width="21" height="1" rx="0.5"></rect>
                            <rect id="Rectangle" x="0.5" y="40.5" width="21" height="1" rx="0.5"></rect>
                            <rect id="Rectangle" x="0.5" y="50.5" width="21" height="1" rx="0.5"></rect>
                            <rect id="Rectangle" x="0.5" y="60.5" width="21" height="1" rx="0.5"></rect>
                            <rect id="Rectangle" x="0.5" y="70.5" width="21" height="1" rx="0.5"></rect>
                            <rect id="Rectangle" x="0.5" y="80.5" width="21" height="1" rx="0.5"></rect>
                            <rect id="Rectangle" x="0.5" y="90.5" width="21" height="1" rx="0.5"></rect>
                        </g>
                        <g id="Group-11" opacity="0.400000006" transform="translate(0.000000, 1900.000000)">
                            <rect id="Rectangle" x="0.5" y="0.5" width="31" height="1" rx="0.5"></rect>
                            <rect id="Rectangle" x="0.5" y="10.5" width="21" height="1" rx="0.5"></rect>
                            <rect id="Rectangle" x="0.5" y="20.5" width="21" height="1" rx="0.5"></rect>
                            <rect id="Rectangle" x="0.5" y="30.5" width="21" height="1" rx="0.5"></rect>
                            <rect id="Rectangle" x="0.5" y="40.5" width="21" height="1" rx="0.5"></rect>
                            <rect id="Rectangle" x="0.5" y="50.5" width="21" height="1" rx="0.5"></rect>
                            <rect id="Rectangle" x="0.5" y="60.5" width="21" height="1" rx="0.5"></rect>
                            <rect id="Rectangle" x="0.5" y="70.5" width="21" height="1" rx="0.5"></rect>
                            <rect id="Rectangle" x="0.5" y="80.5" width="21" height="1" rx="0.5"></rect>
                            <rect id="Rectangle" x="0.5" y="90.5" width="21" height="1" rx="0.5"></rect>
                        </g>
                        <g id="Group-11" opacity="0.400000006" transform="translate(0.000000, 2000.000000)">
                            <rect id="Rectangle" x="0.5" y="0.5" width="31" height="1" rx="0.5"></rect>
                            <rect id="Rectangle" x="0.5" y="10.5" width="21" height="1" rx="0.5"></rect>
                            <rect id="Rectangle" x="0.5" y="20.5" width="21" height="1" rx="0.5"></rect>
                            <rect id="Rectangle" x="0.5" y="30.5" width="21" height="1" rx="0.5"></rect>
                            <rect id="Rectangle" x="0.5" y="40.5" width="21" height="1" rx="0.5"></rect>
                            <rect id="Rectangle" x="0.5" y="50.5" width="21" height="1" rx="0.5"></rect>
                            <rect id="Rectangle" x="0.5" y="60.5" width="21" height="1" rx="0.5"></rect>
                            <rect id="Rectangle" x="0.5" y="70.5" width="21" height="1" rx="0.5"></rect>
                            <rect id="Rectangle" x="0.5" y="80.5" width="21" height="1" rx="0.5"></rect>
                            <rect id="Rectangle" x="0.5" y="90.5" width="21" height="1" rx="0.5"></rect>
                        </g>
                        <g id="Group-11" opacity="0.400000006" transform="translate(0.000000, 2100.000000)">
                            <rect id="Rectangle" x="0.5" y="0.5" width="31" height="1" rx="0.5"></rect>
                            <rect id="Rectangle" x="0.5" y="10.5" width="21" height="1" rx="0.5"></rect>
                            <rect id="Rectangle" x="0.5" y="20.5" width="21" height="1" rx="0.5"></rect>
                            <rect id="Rectangle" x="0.5" y="30.5" width="21" height="1" rx="0.5"></rect>
                            <rect id="Rectangle" x="0.5" y="40.5" width="21" height="1" rx="0.5"></rect>
                            <rect id="Rectangle" x="0.5" y="50.5" width="21" height="1" rx="0.5"></rect>
                            <rect id="Rectangle" x="0.5" y="60.5" width="21" height="1" rx="0.5"></rect>
                            <rect id="Rectangle" x="0.5" y="70.5" width="21" height="1" rx="0.5"></rect>
                            <rect id="Rectangle" x="0.5" y="80.5" width="21" height="1" rx="0.5"></rect>
                            <rect id="Rectangle" x="0.5" y="90.5" width="21" height="1" rx="0.5"></rect>
                        </g>
                    </g>
                </g>
            </g>
        </g>
    </g>
</svg>