<svg height="2196" viewBox="0 0 46 2196" width="46" xmlns="http://www.w3.org/2000/svg"><g fill="none" fill-rule="evenodd" transform="translate(.432001 .120024)"><path d="m2.11199993 0c1.16642536 0 2.11199994.94557458 2.11199994 2.11199993v2190.65598007c0 1.16642-.94557458 2.112-2.11199994 2.112-1.16642535 0-2.11199993-.94558-2.11199993-2.112v-2190.65598007c0-1.16642535.94557458-2.11199993 2.11199993-2.11199993z" fill="#b5b7b9" opacity=".3"/><g fill="#d8d8d8" opacity=".5" stroke="#979797"><g opacity=".4"><rect height="1" rx=".5" width="31" x="13.067999" y="3.379976"/><rect height="1" rx=".5" width="21" x="13.067999" y="13.379976"/><rect height="1" rx=".5" width="21" x="13.067999" y="23.379976"/><rect height="1" rx=".5" width="21" x="13.067999" y="33.379976"/><rect height="1" rx=".5" width="21" x="13.067999" y="43.379976"/><rect height="1" rx=".5" width="21" x="13.067999" y="53.379976"/><rect height="1" rx=".5" width="21" x="13.067999" y="63.379976"/><rect height="1" rx=".5" width="21" x="13.067999" y="73.379976"/><rect height="1" rx=".5" width="21" x="13.067999" y="83.379976"/><rect height="1" rx=".5" width="21" x="13.067999" y="93.379976"/></g><g opacity=".4"><rect height="1" rx=".5" width="31" x="13.067999" y="103.379976"/><rect height="1" rx=".5" width="21" x="13.067999" y="113.379976"/><rect height="1" rx=".5" width="21" x="13.067999" y="123.379976"/><rect height="1" rx=".5" width="21" x="13.067999" y="133.379976"/><rect height="1" rx=".5" width="21" x="13.067999" y="143.379976"/><rect height="1" rx=".5" width="21" x="13.067999" y="153.379976"/><rect height="1" rx=".5" width="21" x="13.067999" y="163.379976"/><rect height="1" rx=".5" width="21" x="13.067999" y="173.379976"/><rect height="1" rx=".5" width="21" x="13.067999" y="183.379976"/><rect height="1" rx=".5" width="21" x="13.067999" y="193.379976"/></g><g opacity=".4"><rect height="1" rx=".5" width="31" x="13.067999" y="203.379976"/><rect height="1" rx=".5" width="21" x="13.067999" y="213.379976"/><rect height="1" rx=".5" width="21" x="13.067999" y="223.379976"/><rect height="1" rx=".5" width="21" x="13.067999" y="233.379976"/><rect height="1" rx=".5" width="21" x="13.067999" y="243.379976"/><rect height="1" rx=".5" width="21" x="13.067999" y="253.379976"/><rect height="1" rx=".5" width="21" x="13.067999" y="263.379976"/><rect height="1" rx=".5" width="21" x="13.067999" y="273.379976"/><rect height="1" rx=".5" width="21" x="13.067999" y="283.379976"/><rect height="1" rx=".5" width="21" x="13.067999" y="293.379976"/></g><g opacity=".4"><rect height="1" rx=".5" width="31" x="13.067999" y="303.379976"/><rect height="1" rx=".5" width="21" x="13.067999" y="313.379976"/><rect height="1" rx=".5" width="21" x="13.067999" y="323.379976"/><rect height="1" rx=".5" width="21" x="13.067999" y="333.379976"/><rect height="1" rx=".5" width="21" x="13.067999" y="343.379976"/><rect height="1" rx=".5" width="21" x="13.067999" y="353.379976"/><rect height="1" rx=".5" width="21" x="13.067999" y="363.379976"/><rect height="1" rx=".5" width="21" x="13.067999" y="373.379976"/><rect height="1" rx=".5" width="21" x="13.067999" y="383.379976"/><rect height="1" rx=".5" width="21" x="13.067999" y="393.379976"/></g><g opacity=".4"><rect height="1" rx=".5" width="31" x="13.067999" y="403.379976"/><rect height="1" rx=".5" width="21" x="13.067999" y="413.379976"/><rect height="1" rx=".5" width="21" x="13.067999" y="423.379976"/><rect height="1" rx=".5" width="21" x="13.067999" y="433.379976"/><rect height="1" rx=".5" width="21" x="13.067999" y="443.379976"/><rect height="1" rx=".5" width="21" x="13.067999" y="453.379976"/><rect height="1" rx=".5" width="21" x="13.067999" y="463.379976"/><rect height="1" rx=".5" width="21" x="13.067999" y="473.379976"/><rect height="1" rx=".5" width="21" x="13.067999" y="483.379976"/><rect height="1" rx=".5" width="21" x="13.067999" y="493.379976"/></g><g opacity=".4"><rect height="1" rx=".5" width="31" x="13.067999" y="503.379976"/><rect height="1" rx=".5" width="21" x="13.067999" y="513.379976"/><rect height="1" rx=".5" width="21" x="13.067999" y="523.379976"/><rect height="1" rx=".5" width="21" x="13.067999" y="533.379976"/><rect height="1" rx=".5" width="21" x="13.067999" y="543.379976"/><rect height="1" rx=".5" width="21" x="13.067999" y="553.379976"/><rect height="1" rx=".5" width="21" x="13.067999" y="563.379976"/><rect height="1" rx=".5" width="21" x="13.067999" y="573.379976"/><rect height="1" rx=".5" width="21" x="13.067999" y="583.379976"/><rect height="1" rx=".5" width="21" x="13.067999" y="593.379976"/></g><g opacity=".4"><rect height="1" rx=".5" width="31" x="13.067999" y="603.379976"/><rect height="1" rx=".5" width="21" x="13.067999" y="613.379976"/><rect height="1" rx=".5" width="21" x="13.067999" y="623.379976"/><rect height="1" rx=".5" width="21" x="13.067999" y="633.379976"/><rect height="1" rx=".5" width="21" x="13.067999" y="643.379976"/><rect height="1" rx=".5" width="21" x="13.067999" y="653.379976"/><rect height="1" rx=".5" width="21" x="13.067999" y="663.379976"/><rect height="1" rx=".5" width="21" x="13.067999" y="673.379976"/><rect height="1" rx=".5" width="21" x="13.067999" y="683.379976"/><rect height="1" rx=".5" width="21" x="13.067999" y="693.379976"/></g><g opacity=".4"><rect height="1" rx=".5" width="31" x="13.067999" y="703.379976"/><rect height="1" rx=".5" width="21" x="13.067999" y="713.379976"/><rect height="1" rx=".5" width="21" x="13.067999" y="723.379976"/><rect height="1" rx=".5" width="21" x="13.067999" y="733.379976"/><rect height="1" rx=".5" width="21" x="13.067999" y="743.379976"/><rect height="1" rx=".5" width="21" x="13.067999" y="753.379976"/><rect height="1" rx=".5" width="21" x="13.067999" y="763.379976"/><rect height="1" rx=".5" width="21" x="13.067999" y="773.379976"/><rect height="1" rx=".5" width="21" x="13.067999" y="783.379976"/><rect height="1" rx=".5" width="21" x="13.067999" y="793.379976"/></g><g opacity=".4"><rect height="1" rx=".5" width="31" x="13.067999" y="803.379976"/><rect height="1" rx=".5" width="21" x="13.067999" y="813.379976"/><rect height="1" rx=".5" width="21" x="13.067999" y="823.379976"/><rect height="1" rx=".5" width="21" x="13.067999" y="833.379976"/><rect height="1" rx=".5" width="21" x="13.067999" y="843.379976"/><rect height="1" rx=".5" width="21" x="13.067999" y="853.379976"/><rect height="1" rx=".5" width="21" x="13.067999" y="863.379976"/><rect height="1" rx=".5" width="21" x="13.067999" y="873.379976"/><rect height="1" rx=".5" width="21" x="13.067999" y="883.379976"/><rect height="1" rx=".5" width="21" x="13.067999" y="893.379976"/></g><g opacity=".4"><rect height="1" rx=".5" width="31" x="13.067999" y="903.379976"/><rect height="1" rx=".5" width="21" x="13.067999" y="913.379976"/><rect height="1" rx=".5" width="21" x="13.067999" y="923.379976"/><rect height="1" rx=".5" width="21" x="13.067999" y="933.379976"/><rect height="1" rx=".5" width="21" x="13.067999" y="943.379976"/><rect height="1" rx=".5" width="21" x="13.067999" y="953.379976"/><rect height="1" rx=".5" width="21" x="13.067999" y="963.379976"/><rect height="1" rx=".5" width="21" x="13.067999" y="973.379976"/><rect height="1" rx=".5" width="21" x="13.067999" y="983.379976"/><rect height="1" rx=".5" width="21" x="13.067999" y="993.379976"/></g><g opacity=".4"><rect height="1" rx=".5" width="31" x="13.067999" y="1003.379976"/><rect height="1" rx=".5" width="21" x="13.067999" y="1013.379976"/><rect height="1" rx=".5" width="21" x="13.067999" y="1023.379976"/><rect height="1" rx=".5" width="21" x="13.067999" y="1033.379976"/><rect height="1" rx=".5" width="21" x="13.067999" y="1043.379976"/><rect height="1" rx=".5" width="21" x="13.067999" y="1053.379976"/><rect height="1" rx=".5" width="21" x="13.067999" y="1063.379976"/><rect height="1" rx=".5" width="21" x="13.067999" y="1073.379976"/><rect height="1" rx=".5" width="21" x="13.067999" y="1083.379976"/><rect height="1" rx=".5" width="21" x="13.067999" y="1093.379976"/></g><g opacity=".4"><rect height="1" rx=".5" width="31" x="13.067999" y="1103.379976"/><rect height="1" rx=".5" width="21" x="13.067999" y="1113.379976"/><rect height="1" rx=".5" width="21" x="13.067999" y="1123.379976"/><rect height="1" rx=".5" width="21" x="13.067999" y="1133.379976"/><rect height="1" rx=".5" width="21" x="13.067999" y="1143.379976"/><rect height="1" rx=".5" width="21" x="13.067999" y="1153.379976"/><rect height="1" rx=".5" width="21" x="13.067999" y="1163.379976"/><rect height="1" rx=".5" width="21" x="13.067999" y="1173.379976"/><rect height="1" rx=".5" width="21" x="13.067999" y="1183.379976"/><rect height="1" rx=".5" width="21" x="13.067999" y="1193.379976"/></g><g opacity=".4"><rect height="1" rx=".5" width="31" x="13.067999" y="1203.379976"/><rect height="1" rx=".5" width="21" x="13.067999" y="1213.379976"/><rect height="1" rx=".5" width="21" x="13.067999" y="1223.379976"/><rect height="1" rx=".5" width="21" x="13.067999" y="1233.379976"/><rect height="1" rx=".5" width="21" x="13.067999" y="1243.379976"/><rect height="1" rx=".5" width="21" x="13.067999" y="1253.379976"/><rect height="1" rx=".5" width="21" x="13.067999" y="1263.379976"/><rect height="1" rx=".5" width="21" x="13.067999" y="1273.379976"/><rect height="1" rx=".5" width="21" x="13.067999" y="1283.379976"/><rect height="1" rx=".5" width="21" x="13.067999" y="1293.379976"/></g><g opacity=".4"><rect height="1" rx=".5" width="31" x="13.067999" y="1303.379976"/><rect height="1" rx=".5" width="21" x="13.067999" y="1313.379976"/><rect height="1" rx=".5" width="21" x="13.067999" y="1323.379976"/><rect height="1" rx=".5" width="21" x="13.067999" y="1333.379976"/><rect height="1" rx=".5" width="21" x="13.067999" y="1343.379976"/><rect height="1" rx=".5" width="21" x="13.067999" y="1353.379976"/><rect height="1" rx=".5" width="21" x="13.067999" y="1363.379976"/><rect height="1" rx=".5" width="21" x="13.067999" y="1373.379976"/><rect height="1" rx=".5" width="21" x="13.067999" y="1383.379976"/><rect height="1" rx=".5" width="21" x="13.067999" y="1393.379976"/></g><g opacity=".4"><rect height="1" rx=".5" width="31" x="13.067999" y="1403.379976"/><rect height="1" rx=".5" width="21" x="13.067999" y="1413.379976"/><rect height="1" rx=".5" width="21" x="13.067999" y="1423.379976"/><rect height="1" rx=".5" width="21" x="13.067999" y="1433.379976"/><rect height="1" rx=".5" width="21" x="13.067999" y="1443.379976"/><rect height="1" rx=".5" width="21" x="13.067999" y="1453.379976"/><rect height="1" rx=".5" width="21" x="13.067999" y="1463.379976"/><rect height="1" rx=".5" width="21" x="13.067999" y="1473.379976"/><rect height="1" rx=".5" width="21" x="13.067999" y="1483.379976"/><rect height="1" rx=".5" width="21" x="13.067999" y="1493.379976"/></g><g opacity=".4"><rect height="1" rx=".5" width="31" x="13.067999" y="1503.379976"/><rect height="1" rx=".5" width="21" x="13.067999" y="1513.379976"/><rect height="1" rx=".5" width="21" x="13.067999" y="1523.379976"/><rect height="1" rx=".5" width="21" x="13.067999" y="1533.379976"/><rect height="1" rx=".5" width="21" x="13.067999" y="1543.379976"/><rect height="1" rx=".5" width="21" x="13.067999" y="1553.379976"/><rect height="1" rx=".5" width="21" x="13.067999" y="1563.379976"/><rect height="1" rx=".5" width="21" x="13.067999" y="1573.379976"/><rect height="1" rx=".5" width="21" x="13.067999" y="1583.379976"/><rect height="1" rx=".5" width="21" x="13.067999" y="1593.379976"/></g><g opacity=".4"><rect height="1" rx=".5" width="31" x="13.067999" y="1603.379976"/><rect height="1" rx=".5" width="21" x="13.067999" y="1613.379976"/><rect height="1" rx=".5" width="21" x="13.067999" y="1623.379976"/><rect height="1" rx=".5" width="21" x="13.067999" y="1633.379976"/><rect height="1" rx=".5" width="21" x="13.067999" y="1643.379976"/><rect height="1" rx=".5" width="21" x="13.067999" y="1653.379976"/><rect height="1" rx=".5" width="21" x="13.067999" y="1663.379976"/><rect height="1" rx=".5" width="21" x="13.067999" y="1673.379976"/><rect height="1" rx=".5" width="21" x="13.067999" y="1683.379976"/><rect height="1" rx=".5" width="21" x="13.067999" y="1693.379976"/></g><g opacity=".4"><rect height="1" rx=".5" width="31" x="13.067999" y="1703.379976"/><rect height="1" rx=".5" width="21" x="13.067999" y="1713.379976"/><rect height="1" rx=".5" width="21" x="13.067999" y="1723.379976"/><rect height="1" rx=".5" width="21" x="13.067999" y="1733.379976"/><rect height="1" rx=".5" width="21" x="13.067999" y="1743.379976"/><rect height="1" rx=".5" width="21" x="13.067999" y="1753.379976"/><rect height="1" rx=".5" width="21" x="13.067999" y="1763.379976"/><rect height="1" rx=".5" width="21" x="13.067999" y="1773.379976"/><rect height="1" rx=".5" width="21" x="13.067999" y="1783.379976"/><rect height="1" rx=".5" width="21" x="13.067999" y="1793.379976"/></g><g opacity=".4"><rect height="1" rx=".5" width="31" x="13.067999" y="1803.379976"/><rect height="1" rx=".5" width="21" x="13.067999" y="1813.379976"/><rect height="1" rx=".5" width="21" x="13.067999" y="1823.379976"/><rect height="1" rx=".5" width="21" x="13.067999" y="1833.379976"/><rect height="1" rx=".5" width="21" x="13.067999" y="1843.379976"/><rect height="1" rx=".5" width="21" x="13.067999" y="1853.379976"/><rect height="1" rx=".5" width="21" x="13.067999" y="1863.379976"/><rect height="1" rx=".5" width="21" x="13.067999" y="1873.379976"/><rect height="1" rx=".5" width="21" x="13.067999" y="1883.379976"/><rect height="1" rx=".5" width="21" x="13.067999" y="1893.379976"/></g><g opacity=".4"><rect height="1" rx=".5" width="31" x="13.067999" y="1903.379976"/><rect height="1" rx=".5" width="21" x="13.067999" y="1913.379976"/><rect height="1" rx=".5" width="21" x="13.067999" y="1923.379976"/><rect height="1" rx=".5" width="21" x="13.067999" y="1933.379976"/><rect height="1" rx=".5" width="21" x="13.067999" y="1943.379976"/><rect height="1" rx=".5" width="21" x="13.067999" y="1953.379976"/><rect height="1" rx=".5" width="21" x="13.067999" y="1963.379976"/><rect height="1" rx=".5" width="21" x="13.067999" y="1973.379976"/><rect height="1" rx=".5" width="21" x="13.067999" y="1983.379976"/><rect height="1" rx=".5" width="21" x="13.067999" y="1993.379976"/></g><g opacity=".4"><rect height="1" rx=".5" width="31" x="13.067999" y="2003.379976"/><rect height="1" rx=".5" width="21" x="13.067999" y="2013.379976"/><rect height="1" rx=".5" width="21" x="13.067999" y="2023.379976"/><rect height="1" rx=".5" width="21" x="13.067999" y="2033.379976"/><rect height="1" rx=".5" width="21" x="13.067999" y="2043.379976"/><rect height="1" rx=".5" width="21" x="13.067999" y="2053.379976"/><rect height="1" rx=".5" width="21" x="13.067999" y="2063.379976"/><rect height="1" rx=".5" width="21" x="13.067999" y="2073.379976"/><rect height="1" rx=".5" width="21" x="13.067999" y="2083.379976"/><rect height="1" rx=".5" width="21" x="13.067999" y="2093.379976"/></g><g opacity=".4"><rect height="1" rx=".5" width="31" x="13.067999" y="2103.379976"/><rect height="1" rx=".5" width="21" x="13.067999" y="2113.379976"/><rect height="1" rx=".5" width="21" x="13.067999" y="2123.379976"/><rect height="1" rx=".5" width="21" x="13.067999" y="2133.379976"/><rect height="1" rx=".5" width="21" x="13.067999" y="2143.379976"/><rect height="1" rx=".5" width="21" x="13.067999" y="2153.379976"/><rect height="1" rx=".5" width="21" x="13.067999" y="2163.379976"/><rect height="1" rx=".5" width="21" x="13.067999" y="2173.379976"/><rect height="1" rx=".5" width="21" x="13.067999" y="2183.379976"/><rect height="1" rx=".5" width="21" x="13.067999" y="2193.379976"/></g></g></g></svg>