<?xml version="1.0" encoding="UTF-8"?>
<svg width="32px" height="32px" viewBox="0 0 32 32" version="1.1" xmlns="http://www.w3.org/2000/svg" xmlns:xlink="http://www.w3.org/1999/xlink">
    <title>589FCDD8-1A28-4132-B4CB-5826AB65AA56@2x</title>
    <g id="Page-1" stroke="none" stroke-width="1" fill="none" fill-rule="evenodd" opacity="0.5">
        <g id="Blog_2" transform="translate(-381.000000, -208.000000)" fill="#55311B">
            <g id="Header" transform="translate(381.000000, 208.000000)">
                <g id="&gt;" transform="translate(16.000000, 16.000000) scale(-1, 1) translate(-16.000000, -16.000000) ">
                    <path d="M16,32 C7.163444,32 0,24.836556 0,16 C0,7.163444 7.163444,0 16,0 C24.836556,0 32,7.163444 32,16 C32,24.836556 24.836556,32 16,32 Z M16,30.0952381 C23.7845851,30.0952381 30.0952381,23.7845851 30.0952381,16 C30.0952381,8.21541495 23.7845851,1.90476189 16,1.90476189 C8.21541495,1.90476189 1.90476189,8.21541495 1.90476189,16 C1.90476189,23.7845851 8.21541495,30.0952381 16,30.0952381 Z" id="Oval"></path>
                    <path d="M13.6029504,16.0506751 C13.6158503,16.1503235 13.665061,16.2428962 13.7423012,16.3132103 L17.5646541,19.8510232 C17.7395195,20.0338102 18.0416321,20.0507623 18.2391121,19.8887599 C18.4365921,19.7267576 18.4547475,19.4472703 18.2798821,19.2644833 C18.2663452,19.2503321 18.2516934,19.2369179 18.2364047,19.2245355 L14.7526344,15.9999664 L18.2364047,12.7753973 C18.4351587,12.6147216 18.4555438,12.3353818 18.2819525,12.1514155 C18.1086797,11.9674492 17.8067264,11.9484335 17.6079723,12.1091092 C17.5925243,12.1214915 17.5780318,12.1349057 17.5646541,12.1489096 L13.7423012,15.6867225 C13.6381464,15.7819487 13.5867061,15.9159433 13.6029504,16.0506751" id="Fill-1" transform="translate(16.000000, 16.000000) scale(-1, 1) translate(-16.000000, -16.000000) "></path>
                </g>
            </g>
        </g>
    </g>
</svg>