<?xml version="1.0" encoding="UTF-8"?>
<svg width="417px" height="143px" viewBox="0 0 417 143" version="1.1" xmlns="http://www.w3.org/2000/svg" xmlns:xlink="http://www.w3.org/1999/xlink">
    <title>B4A549D1-6E43-4615-B006-7974E9183F4B</title>
    <g id="Page-1" stroke="none" stroke-width="1" fill="none" fill-rule="evenodd" opacity="0.5">
        <g id="Blog_1" transform="translate(-749.000000, -357.000000)" fill="#55311B" fill-rule="nonzero">
            <g id="Header-Blog" transform="translate(0.000000, 190.000000)">
                <path d="M781.175594,233.116083 C783.59487,235.979973 788.006491,230.968166 788.006491,230.968166 C788.291112,230.681777 788.006491,229.894207 787.43725,229.321429 C786.868008,228.677054 786.156457,228.462262 785.871836,228.748651 C785.871836,228.748651 782.598698,232.471708 782.456387,232.328514 C782.029456,231.827333 809.779975,188.224607 818.958993,173.83356 C825.362959,173.690365 831.909235,173.547171 838.384356,173.403976 C849.057632,173.117587 859.659753,172.902796 869.834944,172.473212 C869.692633,172.759601 869.906099,173.260782 870.261875,173.761963 C870.759961,174.406338 871.471513,174.764324 871.898444,174.62113 L871.898444,174.62113 L877.733168,172.043629 C878.088944,171.972031 878.088944,171.399253 877.733168,170.826475 C877.306237,170.110503 876.594685,169.537725 876.096599,169.609322 C863.715598,170.253697 850.26727,170.611684 836.890097,170.898073 C831.482304,171.041267 826.003355,171.112864 820.595562,171.256059 L820.595562,171.256059 L821.876355,169.322933 C822.08982,168.964947 821.734045,168.248974 821.164803,167.604599 C820.524407,167.031821 819.88401,166.817029 819.670544,167.175016 C819.670544,167.246613 818.674372,168.750155 816.966648,171.399253 C797.256664,171.972031 778.614008,173.04599 764.311818,175.766686 C763.884886,175.90988 763.884886,176.482658 764.382973,177.198631 C764.809904,177.843006 765.592611,178.344187 766.019542,178.272589 C779.396715,175.623491 796.829733,174.549532 815.330079,173.976754 C805.012578,190.372525 779.539025,231.11136 781.175594,233.116083 Z M813.769148,218.371881 C814.329296,218.945241 814.959463,219.160251 815.169518,218.873571 C815.170219,218.872854 815.172025,218.870862 815.174916,218.867621 L815.205096,218.833415 C815.512119,218.484055 817.742721,215.927746 820.148877,213.341223 L820.485583,212.980336 C823.410528,209.854743 826.473306,206.833024 826.582535,207.764733 C826.79259,210.273181 826.232442,213.641667 827.912886,215.505085 C829.523312,217.225163 832.8842,215.576755 839.816032,208.983122 C840.096106,208.696442 840.096106,208.194753 839.535958,207.549724 C838.97581,206.976364 838.555699,207.621394 838.275625,207.908073 C832.113997,213.785007 829.873404,214.358366 829.59333,214.000016 L829.59333,214.000016 L829.592955,213.975378 C829.587371,213.610812 829.520332,209.314024 829.453293,208.696442 C829.033182,203.966228 825.112146,205.757976 821.261128,208.768112 L821.261128,208.768112 L836.595181,183.325291 C836.805236,182.966941 836.525162,182.178572 835.894996,181.605213 C835.334848,181.031853 834.634663,180.816844 834.424607,181.175193 L834.424607,181.175193 L813.068963,216.651803 C812.858908,217.010153 813.138982,217.798522 813.769148,218.371881 Z M838.529598,217.413229 C843.530491,220.16235 854.836857,212.549399 856.866205,209.095374 C857.083635,208.672433 857.083635,208.390471 856.503822,207.826549 C855.851531,207.262627 855.126764,207.756059 854.909334,208.179001 C852.662556,212.126457 833.093845,220.867253 838.022261,210.57567 C838.037519,210.57567 838.070623,210.573588 838.120171,210.56913 L838.206649,210.560625 C839.04356,210.472571 842.439526,209.974648 845.487362,208.460962 C847.226803,207.615078 848.676337,206.064292 849.473581,204.583996 C849.835964,203.879093 850.125871,203.24468 850.198348,202.610268 C850.343301,201.764384 850.053395,200.84801 849.328627,200.072617 C848.82129,199.508695 848.241477,199.156243 847.589186,199.015263 C846.791943,198.874282 844.835072,199.720166 842.733247,201.129972 C841.138759,202.257816 839.471795,203.738112 838.022261,205.288899 C836.572727,206.910175 835.485576,208.742923 835.123193,210.50518 C834.543379,213.254301 836.06539,216.073913 838.529598,217.413229 Z M841,208 C842.26,206.405063 843.87,204.962025 845.27,203.822785 C846.32,202.987342 847.23,202.379747 848,202 C847.86,202.303797 847.79,202.531646 847.65,202.835443 C846.88,204.278481 845.62,205.873418 844.15,206.708861 C843.03,207.240506 841.98,207.696203 841,208 Z M876.879812,240.968998 C877.455694,241.11167 877.743636,240.754992 877.455694,240.041636 C876.89133,238.723354 885.018182,225.056369 893.517967,211.355379 L894.429706,209.887847 C900.816565,199.622064 907.246091,189.584548 910.209006,184.970562 C911.360771,183.258508 911.936653,182.331145 911.936653,182.331145 C912.152609,181.903132 911.792682,181.189776 911.2168,180.619091 C910.568932,179.977071 909.921065,179.8344 909.705109,180.191077 L909.705109,180.191077 L908.193417,182.473816 C906.249814,185.469911 902.218637,191.248094 896.315843,198.238981 C893.724372,201.306411 890.988931,204.231171 888.325475,206.727916 C887.605622,205.657882 886.741798,204.231171 883.934371,204.302506 C880.910989,204.159835 877.815621,208.083292 876.375915,210.437367 C875.584077,211.792743 875.08018,213.148119 875.008194,214.218153 C874.792238,218.284281 878.8954,217.927603 881.342901,216.429556 C883.142533,215.288187 885.446063,213.504797 888.037533,211.293394 L888.037533,211.293394 L888.109519,211.150723 C888.613416,211.436065 889.045328,211.364729 889.117313,211.008051 C889.117313,210.936716 889.189298,210.651374 889.189298,210.152024 C890.557019,208.939319 891.92474,207.583943 893.29246,206.157231 L893.29246,206.157231 L892.739268,207.061671 C892.554784,207.363554 892.370242,207.665798 892.18573,207.968279 L891.632364,208.876311 C891.263627,209.481975 890.89535,210.088093 890.528225,210.693676 L889.978487,211.601522 C881.930877,224.907077 874.607956,237.713242 875.368121,239.470951 C875.584077,240.184307 876.30393,240.826327 876.879812,240.968998 Z M878,215 C878.139535,214.286093 878.55814,213.358013 879.116279,212.358543 C880.302326,210.359603 883.093023,206.861458 885.604651,207.004239 C886.511628,207.004239 886.860465,207.575365 887,208.0751 L887,208.0751 L886.232558,208.860398 C883.790698,211.07351 881.55814,212.858278 879.813953,213.929139 C879.046512,214.428874 878.418605,214.785828 878,215 Z M901.529598,217.413229 C906.530491,220.16235 917.836857,212.549399 919.866205,209.095374 C920.083635,208.672433 920.083635,208.390471 919.503822,207.826549 C918.851531,207.262627 918.126764,207.756059 917.909334,208.179001 C915.662556,212.126457 896.093845,220.867253 901.022261,210.57567 C901.037519,210.57567 901.070623,210.573588 901.120171,210.56913 L901.206649,210.560625 C902.04356,210.472571 905.439526,209.974648 908.487362,208.460962 C910.226803,207.615078 911.676337,206.064292 912.473581,204.583996 C912.835964,203.879093 913.125871,203.24468 913.198348,202.610268 C913.343301,201.764384 913.053395,200.84801 912.328627,200.072617 C911.82129,199.508695 911.241477,199.156243 910.589186,199.015263 C909.791943,198.874282 907.835072,199.720166 905.733247,201.129972 C904.138759,202.257816 902.471795,203.738112 901.022261,205.288899 C899.572727,206.910175 898.485576,208.742923 898.123193,210.50518 C897.543379,213.254301 899.06539,216.073913 901.529598,217.413229 Z M903,208 C904.26,206.405063 905.87,204.962025 907.27,203.822785 C908.32,202.987342 909.23,202.379747 910,202 C909.86,202.303797 909.79,202.531646 909.65,202.835443 C908.88,204.278481 907.62,205.873418 906.15,206.708861 C905.03,207.240506 903.98,207.696203 903,208 Z M914.763856,217.460902 C915.325515,217.945229 915.957381,218.152798 916.168003,217.87604 C916.343876,217.702716 920.07185,214.191606 923.816791,211.081512 L924.179139,210.781913 C926.291759,209.043017 928.373446,207.47035 929.78823,206.736522 C929.577608,207.290038 929.296779,207.843554 929.015949,208.397071 C927.682009,211.095463 926.137448,214.139804 929.296779,216.146301 C932.874545,218.451697 940.29566,209.9258 940.591073,209.583842 L940.600163,209.573293 C940.880992,209.227346 941.302236,209.088966 940.67037,208.53545 C940.108711,207.912744 939.336431,208.812208 939.125808,209.088966 C939.055601,209.088966 931.473207,215.661974 929.226571,214.208993 C929.226571,214.208993 929.95078,212.829154 930.71856,211.332103 L930.854364,211.066958 C930.96768,210.845418 931.081073,210.622949 931.192377,210.403568 C931.683829,209.365725 932.17528,208.46626 932.385902,207.705175 C932.877354,205.975437 932.526317,204.660835 930.420096,204.038129 L930.420096,204.038129 L930.279682,204.038129 C928.909506,203.669862 925.495116,206.023999 922.094984,208.733804 L921.724216,209.030717 C921.415455,209.27913 921.10743,209.529771 920.801689,209.780862 L920.801689,209.780862 L922.556873,206.667332 C922.767495,206.321384 922.486665,205.560299 921.854799,205.006783 C921.29314,204.453266 920.591067,204.314887 920.380444,204.660835 L920.380444,204.660835 L914.061782,215.800353 C913.85116,216.146301 914.202197,216.838196 914.763856,217.460902 Z M935.816991,218.472914 C939.307229,224.919443 955.476294,208.874749 955.547523,208.803121 C955.832441,208.588236 956.259817,208.230096 955.689982,207.585443 C955.120147,206.94079 954.692771,207.084046 954.407853,207.298931 C954.407853,207.370559 939.948293,218.97431 938.666165,216.538955 C938.033319,215.381886 939.445052,212.495888 942.300856,207.692253 L942.577184,207.228961 C943.185272,206.212571 943.854037,205.114274 944.578202,203.93241 C944.72066,203.93241 944.863119,203.789154 944.863119,203.502641 L944.863119,203.502641 L944.863119,203.431013 C946.287706,201.138914 947.783523,198.775187 949.27934,196.483088 L949.27934,196.483088 L970.576918,196.483088 C971.075524,196.483088 971.146753,195.910063 970.719377,195.193782 C970.36323,194.549129 969.579707,193.976104 969.081101,193.976104 L969.081101,193.976104 L950.917615,193.976104 C956.473505,185.595617 961.673248,178.361179 961.673248,178.289551 C961.886936,178.003039 961.602019,177.21513 961.032184,176.642105 C960.462349,175.997452 959.750055,175.854196 959.536367,176.140708 C959.465138,176.212336 953.481872,184.592824 947.498606,193.976104 L947.498606,193.976104 L923.423082,193.976104 C922.924476,193.976104 922.853247,194.549129 923.280623,195.193782 C923.63677,195.910063 924.420293,196.483088 924.918899,196.483088 C924.918899,196.483088 925.648287,196.454437 926.814169,196.452144 L927.176736,196.452303 C932.052718,196.466069 943.122274,196.964429 943.011156,201.210542 C943.011156,201.210542 942.51255,201.998451 942.58378,201.998451 C938.025101,209.59103 934.74855,216.467327 935.816991,218.472914 Z M943.84,200 C942.688,198.415094 939.16,196.90566 937,196 L937,196 L946,196.377358 L946,196.377358 L943.84,200 Z M961.647222,200.351811 C962.188309,200.915132 962.864668,201.196793 963.135211,200.844717 L963.135211,200.844717 L966.922818,196.338151 C967.125726,195.986075 966.922818,195.281924 966.381732,194.648189 C965.773009,194.084868 965.164286,193.803207 964.893743,194.155283 L964.893743,194.155283 L961.106135,198.661849 C960.835592,199.013925 961.106135,199.718076 961.647222,200.351811 Z M951.538779,216.6694 C954.484116,221.85517 965.433232,210.290902 966.582598,209.121511 L966.641994,209.061729 C966.66501,209.039003 966.67788,209.027212 966.680043,209.027212 L966.680043,209.027212 L966.748781,208.958477 C967.008594,208.69835 967.204941,208.465329 966.607942,207.862688 C966.031132,207.207643 965.526423,207.789905 965.238018,208.081036 C965.238018,208.153819 957.234779,216.014355 954.278627,215.577659 C953.557614,215.213745 953.485513,214.049221 954.494931,212.011304 C956.081158,208.954429 958.676804,205.824771 960.263031,204.441899 C960.623538,204.150768 960.407234,203.42294 959.830424,202.767896 C959.253614,202.112851 958.532601,201.82172 958.172095,202.112851 C956.513766,203.495723 953.846019,206.770947 952.259792,209.900605 C951.03407,212.375218 950.529362,214.849831 951.538779,216.6694 Z M963.4317,219.555974 C964.208941,219.973665 965.198156,220.112895 966.187372,219.90405 C966.752638,219.764819 967.317904,219.486358 967.812512,219.138282 C968.307119,218.720591 968.801727,218.233284 969.155019,217.606747 C969.720285,216.423289 969.932259,214.822139 969.50831,212.803297 C968.731069,209.600997 970.7095,206.607542 972.193324,204.936777 L972.193324,204.936777 L973.889122,203.335627 C974.171755,203.057166 973.889122,202.291398 973.323856,201.734477 C972.829248,201.10794 972.122665,200.829479 971.840032,201.10794 C971.840032,201.10794 971.839063,201.108704 971.83715,201.110224 L971.814541,201.128375 C971.680397,201.236857 971.031388,201.773152 970.214892,202.639475 L970.214892,202.639475 L964.915523,208.97446 C964.63289,209.252921 963.149067,210.505995 963.714333,211.132532 C964.279599,211.689454 965.127498,211.271762 965.410131,210.993301 L965.410131,210.993301 L968.307119,207.721386 C966.988165,210.103773 967.079759,210.675306 967.185601,211.23748 L967.207991,211.358459 C967.229581,211.480608 967.247246,211.608236 967.247246,211.759069 C967.600537,213.360219 967.388562,214.613293 966.893954,215.587906 C966.68198,216.075213 966.25803,216.562519 965.834081,216.84098 C965.410131,217.189056 964.915523,217.397902 964.420915,217.467517 C963.855649,217.606747 963.290383,217.606747 963.00775,217.467517 C962.866434,217.397902 963.855649,215.657521 963.855649,215.587906 C963.996966,215.23983 963.714333,214.474062 963.078409,213.917141 C962.442484,213.360219 961.80656,213.220988 961.594585,213.569065 C961.594585,213.57085 961.593145,213.575152 961.590407,213.581875 L961.578438,213.609212 C961.38628,214.033578 959.610719,217.640663 963.4317,219.555974 Z M973.816991,218.472914 C977.307229,224.919443 993.476294,208.874749 993.547523,208.803121 C993.832441,208.588236 994.259817,208.230096 993.689982,207.585443 C993.120147,206.94079 992.692771,207.084046 992.407853,207.298931 C992.407853,207.370559 977.948293,218.97431 976.666165,216.538955 C976.033319,215.381886 977.445052,212.495888 980.300856,207.692253 L980.577184,207.228961 C981.185272,206.212571 981.854037,205.114274 982.578202,203.93241 C982.72066,203.93241 982.863119,203.789154 982.863119,203.502641 L982.863119,203.502641 L982.863119,203.431013 C984.287706,201.138914 985.783523,198.775187 987.27934,196.483088 L987.27934,196.483088 L1008.57692,196.483088 C1009.07552,196.483088 1009.14675,195.910063 1008.71938,195.193782 C1008.36323,194.549129 1007.57971,193.976104 1007.0811,193.976104 L1007.0811,193.976104 L988.917615,193.976104 C994.473505,185.595617 999.673248,178.361179 999.673248,178.289551 C999.886936,178.003039 999.602019,177.21513 999.032184,176.642105 C998.462349,175.997452 997.750055,175.854196 997.536367,176.140708 C997.465138,176.212336 991.481872,184.592824 985.498606,193.976104 L985.498606,193.976104 L961.423082,193.976104 C960.924476,193.976104 960.853247,194.549129 961.280623,195.193782 C961.63677,195.910063 962.420293,196.483088 962.918899,196.483088 C962.918899,196.483088 963.648287,196.454437 964.814169,196.452144 L965.176736,196.452303 C970.052718,196.466069 981.122274,196.964429 981.011156,201.210542 C981.011156,201.210542 980.51255,201.998451 980.58378,201.998451 C976.025101,209.59103 972.74855,216.467327 973.816991,218.472914 Z M980.84,200 C979.688,198.415094 976.16,196.90566 974,196 L974,196 L983,196.377358 L983,196.377358 L980.84,200 Z M1007.41803,241 C1009.85425,241 1015.22827,233.217211 1020.02905,225.148816 C1028.1259,224.006388 1039.30385,223.720781 1054.4944,225.006012 C1055.06763,225.006012 1055.13928,224.5062 1054.78101,223.863585 C1054.42275,223.149567 1053.70621,222.578354 1053.13298,222.506952 C1039.87708,221.364524 1029.55897,221.435926 1021.74874,222.292747 C1021.79334,222.214788 1021.83786,222.136895 1021.88231,222.059077 L1022.14804,221.593102 C1026.33991,214.230842 1029.77393,207.653206 1029.77393,207.58399 L1029.77393,207.58399 L1029.84559,207.512588 L1031.42196,204.727921 C1031.63692,204.370912 1031.27866,203.656895 1030.70543,203.085681 C1030.06055,202.514467 1029.48732,202.300262 1029.2007,202.657271 L1029.22459,202.630637 L1029.22826,202.65537 C1029.26936,203.719603 1021.33662,214.886699 1016.52409,214.109741 L1016.37472,214.081548 C1015.9448,213.795941 1016.08811,212.225103 1016.23142,211.939496 C1017.16291,209.726042 1018.95425,207.012776 1021.24716,204.370912 C1021.53378,204.013904 1021.24716,203.299886 1020.67393,202.657271 C1020.10071,202.086057 1019.38417,201.80045 1019.09756,202.157459 C1016.80464,204.870724 1014.94165,207.655392 1014.01016,209.940247 C1013.50858,211.082675 1013.22197,212.153701 1013.29362,213.010522 C1013.29362,214.509958 1014.08181,215.723787 1015.51488,216.509206 C1016.01645,216.794813 1016.51803,216.937617 1017.16291,217.009019 C1018.66764,217.151822 1020.96055,215.652386 1023.18181,213.724539 C1021.67708,216.437805 1019.88575,219.579481 1018.02275,222.721157 C1010.57079,223.863585 1005.69835,225.72003 1002.76055,227.79068 C1000.82591,229.147313 999.751104,230.575347 999.249529,232.003382 C998.747954,233.57422 999.034569,235.21646 999.822757,236.644494 C1001.25583,239.143555 1004.12197,240.928598 1007.41803,241 Z M1005.6102,238 C1003.58996,237.926966 1002.00263,237.196629 1001.35327,236.174157 C1000.99251,235.44382 1000.84821,234.494382 1001.20897,233.325843 C1001.64187,232.08427 1002.65199,230.696629 1004.45578,229.455056 C1006.83677,227.702247 1010.58865,226.168539 1016,225 C1011.81522,232.011236 1007.55829,238 1005.6102,238 Z M1032.78073,219.539936 C1033.72813,220.047928 1034.67553,220.120499 1035.62293,219.830217 C1036.42458,219.612506 1037.22623,219.031943 1038.10076,218.306238 C1039.19391,217.362823 1040.21419,215.911415 1041.08872,214.242295 C1041.74461,213.153739 1042.18187,211.847471 1042.47338,210.613774 C1044.73257,211.412049 1047.28327,211.121767 1050.70849,209.234936 C1051.07288,209.017225 1051.14575,208.509232 1050.63561,207.856098 C1050.0526,207.202965 1049.68821,207.493246 1049.32383,207.710958 C1046.77313,209.162366 1044.36818,208.872084 1042.76489,208.581803 C1042.91064,207.493246 1042.91064,206.40469 1042.76489,205.461275 C1042.61913,204.517859 1042.4005,203.647014 1041.96324,202.84874 C1041.4531,201.760183 1040.65145,200.889338 1039.70405,200.381345 C1039.12103,200.091064 1038.53802,199.945923 1037.88212,200.018493 C1037.0076,200.163634 1036.57034,200.889338 1036.42458,201.905324 C1036.3517,202.84874 1036.57034,204.155007 1037.15335,205.461275 C1037.73637,206.767542 1038.68377,208.07381 1039.99556,209.162366 C1039.70405,210.178352 1039.33967,211.194338 1038.82953,212.137753 C1037.955,213.806873 1037.0076,215.11314 1035.98732,215.983985 C1035.25855,216.709689 1034.4569,217.145112 1033.80101,217.362823 C1033.21799,217.507964 1032.78073,217.507964 1032.41634,217.362823 C1032.05196,216.637119 1032.34346,214.895429 1032.92648,213.008598 C1033.72813,210.758915 1034.96704,208.509232 1036.49746,207.130394 C1036.64321,206.985253 1036.86184,206.840113 1037.08048,206.694972 C1037.37198,206.40469 1037.22623,205.678986 1036.64321,205.025852 C1036.0602,204.372718 1035.33143,204.082437 1035.03992,204.300148 C1034.82129,204.445289 1034.60265,204.663 1034.38402,204.808141 C1032.78073,206.259549 1031.39606,208.654373 1030.59441,211.049197 C1029.79277,213.589161 1029.71989,216.274267 1030.88592,217.943386 C1031.03168,218.088527 1031.17743,218.233668 1031.32319,218.378809 C1031.76045,218.886802 1032.27059,219.249654 1032.78073,219.539936 Z M1039.86813,208 C1039.25275,207.557196 1038.81319,207.04059 1038.54945,206.450185 C1038.10989,205.638376 1037.93407,204.826568 1038.02198,204.162362 C1038.10989,203.498155 1038.37363,203.055351 1038.9011,203.055351 C1039.16484,202.98155 1039.42857,202.98155 1039.51648,203.055351 L1039.51648,203.055351 L1039.42857,203.055351 C1039.6044,203.424354 1039.78022,204.01476 1039.86813,204.678967 C1040.04396,205.638376 1040.04396,206.819188 1039.86813,208 Z M1047.26466,210.229745 C1043.36018,219.148959 1049.11041,220.318692 1056.13848,214.104486 C1056.56442,217.248143 1059.68801,217.833009 1062.17268,216.590168 C1065.0123,215.20111 1067.70994,211.76502 1069.62669,209.206229 C1069.91065,208.913796 1070.26561,208.475146 1069.69768,207.890279 C1069.05877,207.232305 1068.7748,207.963388 1068.49084,208.328929 C1066.64509,210.814612 1063.37952,213.519619 1060.61089,214.908677 C1056.88388,216.751007 1058.37468,213.50646 1059.92114,210.992704 L1060.05371,210.779164 C1060.67188,209.792265 1061.27536,208.948888 1061.53376,208.621363 C1061.88872,208.328929 1062.0307,208.109604 1062.0307,208.109604 C1062.31466,207.817171 1062.0307,207.01298 1061.46277,206.428113 C1060.89485,205.770138 1060.18494,205.550814 1059.90098,205.843247 L1059.90098,205.843247 L1059.68801,206.13568 C1055.85452,212.788536 1050.38824,216.370843 1049.53636,215.63976 C1049.03942,215.20111 1049.46537,210.814612 1054.86065,204.454189 C1055.07362,204.088647 1054.86065,203.357564 1054.29273,202.699589 C1053.7248,202.114723 1053.01489,201.82229 1052.73093,202.114723 C1050.88518,204.161756 1048.54249,207.305413 1047.26466,210.229745 Z M1072.77219,188 C1073.25636,188 1073.74053,187.77613 1074.2247,187.403014 L1074.2247,187.403014 L1074.46679,187.179145 C1075.03166,186.731405 1075.43513,186.13442 1075.67722,185.388188 C1075.83861,184.940448 1076,184.343463 1076,183.746477 C1076,182.627129 1075.59652,181.283911 1074.54749,180.164563 C1074.2247,179.791447 1073.41775,180.08994 1072.77219,180.686925 C1072.12663,181.358534 1071.80385,182.104766 1072.12663,182.477882 C1073.01428,183.447984 1073.33706,184.492709 1073.33706,185.313564 C1073.33706,185.612057 1073.33706,185.761304 1073.25636,185.985173 C1073.01428,186.209043 1072.77219,186.432913 1072.6108,186.731405 C1072.12663,187.477638 1072.20732,188 1072.77219,188 Z M1095.03747,225.323869 C1096.0437,226.601397 1097.4093,227.169188 1099.13426,226.956266 C1100.78736,226.743345 1102.36858,226.246528 1103.73418,225.536791 C1105.24352,224.685105 1107.54348,223.194656 1110.4903,220.923495 C1113.43712,218.652334 1116.31206,216.381173 1119.04326,214.039038 C1121.70259,211.696903 1123.42755,209.993533 1124.21816,208.857952 C1124.29004,208.716004 1124.21816,208.503083 1124.07442,208.290162 C1123.93067,208.07724 1123.71505,207.864319 1123.42755,207.722372 C1123.21193,207.580424 1123.06819,207.50945 1122.99631,207.50945 C1122.85256,207.50945 1122.70882,207.580424 1122.63694,207.722372 L1122.63694,207.722372 L1122.42132,207.935293 C1121.34322,208.9999 1119.54638,210.632297 1116.95893,212.903458 C1114.2996,215.174619 1111.64028,217.374806 1108.8372,219.504019 C1106.03413,221.633233 1103.9498,223.123682 1102.44045,223.975367 C1100.35612,224.969 1098.99052,225.252895 1098.27178,224.827053 C1097.48117,224.40121 1097.19368,223.620499 1097.4093,222.34297 C1097.55304,221.065442 1097.91241,219.716941 1098.55927,218.297465 C1099.20614,216.807016 1099.78113,215.529487 1100.42799,214.393907 C1101.07485,213.258326 1101.50609,212.548589 1101.72171,212.406641 C1101.79359,212.264694 1102.87169,211.483982 1104.81228,209.922559 C1106.75287,208.361136 1109.1247,206.444843 1111.92777,204.031735 C1114.73084,201.618626 1117.39017,199.06357 1119.90575,196.366567 C1122.42132,193.669563 1124.36191,191.114507 1125.58376,188.843346 C1126.80561,186.430237 1127.23686,184.655893 1126.87749,183.66226 C1126.51812,182.526679 1125.65564,181.745968 1124.43378,181.391099 C1123.71505,181.107204 1122.92444,181.107204 1122.13383,181.391099 C1119.61825,182.100837 1117.10267,184.088102 1114.5871,187.494844 C1114.2996,187.636791 1113.00588,189.340162 1110.70592,192.604956 C1108.33409,195.86975 1105.81851,199.702334 1103.01544,204.244656 C1101.2186,207.012634 1099.63738,209.780611 1098.34365,212.406641 C1098.12803,212.548589 1097.91241,212.76151 1097.69679,212.974431 C1095.03747,215.174619 1092.30627,217.374806 1089.43132,219.504019 C1086.4845,221.633233 1084.32829,223.123682 1082.81895,223.975367 C1082.53145,224.117315 1082.10021,224.259263 1081.45335,224.472184 C1080.80649,224.614131 1080.2315,224.756079 1079.65651,224.827053 C1079.00964,224.898027 1078.5784,224.827053 1078.36278,224.543158 C1077.85967,223.336603 1078.43466,220.994469 1079.944,217.44578 C1081.45335,213.897091 1083.60956,209.780611 1086.34076,205.238289 C1086.41263,205.238289 1086.55638,205.167315 1086.62825,205.167315 C1086.70012,205.096342 1087.77823,204.31563 1089.71882,202.754207 C1091.65941,201.192784 1094.03124,199.205518 1096.83431,196.792409 C1099.63738,194.379301 1102.2967,191.824245 1104.81228,189.127241 C1107.32786,186.430237 1109.26845,183.946155 1110.4903,181.674994 C1111.71215,179.261885 1112.07152,177.487541 1111.71215,176.493908 C1111.35278,175.358327 1110.56217,174.577616 1109.26845,174.151773 C1108.62158,173.938852 1107.83097,173.938852 1106.96849,174.222747 C1104.52479,174.932485 1102.00921,176.919751 1099.49363,180.326492 C1099.13426,180.539413 1097.62492,182.597653 1094.82185,186.572185 C1092.01877,190.546717 1089.00008,195.230986 1085.62202,200.624993 C1082.24396,206.019001 1079.44089,211.129113 1077.28468,215.813383 C1075.12847,220.497652 1074.48161,223.620499 1075.41596,225.323869 C1076.35032,226.601397 1077.71592,227.169188 1079.44089,226.956266 C1081.16585,226.743345 1082.74707,226.246528 1084.11267,225.536791 C1085.62202,224.685105 1087.92198,223.194656 1090.8688,220.923495 C1092.73751,219.504019 1094.60622,218.084544 1096.33119,216.594094 L1096.33119,216.594094 L1096.25932,216.948963 C1094.53435,220.923495 1094.10311,223.691472 1095.03747,225.323869 Z M1089,200 C1092.09631,195.142857 1094.76058,190.928571 1097.06481,187.5 C1099.36904,184.071429 1100.59316,182.285714 1100.73717,182.142857 C1103.25743,178.857143 1105.63366,176.857143 1108.0099,176.142857 C1108.36994,176 1108.65797,176 1108.94599,176 C1109.16202,176.857143 1108.72997,178.428571 1107.64986,180.571429 C1105.92169,183.714286 1103.18542,187.071429 1099.44104,190.714286 C1095.69667,194.285714 1092.24032,197.428571 1089,200 Z M1104,207 C1107.09541,202.142857 1109.7589,197.928571 1112.06245,194.5 C1114.36601,191.071429 1115.58978,189.285714 1115.73375,189.142857 C1118.25327,185.857143 1120.62881,183.857143 1123.00436,183.142857 C1123.36429,183 1123.72422,183 1123.94018,183 C1124.15614,183.857143 1123.79621,185.428571 1122.71641,187.571429 C1120.91676,190.714286 1118.18128,194.071429 1114.50999,197.714286 C1110.7667,201.285714 1107.23938,204.428571 1104,207 Z M751.277162,286.86884 C752.818625,287.557419 755.411085,285.422824 757.93348,283.081656 C757.863413,286.455693 760.315741,287.419703 763.5388,285.767114 C765.430596,284.803103 768.16319,282.393077 772.787579,278.33046 C773.067846,278.055029 773.137912,277.504166 772.57738,276.884445 C772.016848,276.333581 771.456316,276.677871 771.17605,276.953303 C771.112211,276.984671 769.18713,278.559375 767.083356,280.108515 L766.774406,280.334854 L766.774406,280.334854 L766.464077,280.559735 C764.134366,282.238146 761.787138,283.701377 761.647005,282.875082 C761.226606,280.947061 762.067404,279.156755 762.207537,278.812466 C762.417736,278.468176 762.13747,277.848455 761.647005,277.297592 C761.016406,276.677871 760.385808,276.471297 760.105542,276.746729 C760.105542,276.746729 753.729489,284.045666 751.277162,284.734245 C752.047893,281.566782 753.51929,279.087897 756.111751,277.02216 C757.372948,275.989292 760.806207,274.40556 762.207537,275.71386 C762.487803,276.333581 763.188468,276.953303 763.749,277.091018 C764.309532,277.228734 764.519732,276.815587 764.239466,276.127008 C763.048335,272.13325 757.302881,272.270965 754.149888,274.818708 C752.328159,276.264724 750.716629,278.399318 749.805765,280.32734 C749.385366,281.222492 749.1051,282.117645 749.035033,282.94394 C748.8949,283.976808 749.175166,284.940819 749.875831,285.835971 L749.875831,285.835971 L750.105982,286.060083 C750.453735,286.392525 750.818544,286.699825 751.277162,286.86884 Z M769.190094,287.16702 C774.069167,291.340949 789.798717,278.471336 789.871539,278.471336 C790.162827,278.193074 789.944361,277.497419 789.361785,276.87133 C788.852031,276.732199 788.196633,277.566984 787.905345,277.63655 C787.900976,277.63655 787.843126,277.675117 787.737568,277.747067 L787.616322,277.829953 C785.51993,279.265606 772.659334,288.143719 769.845492,285.775711 C769.481382,285.427883 769.335738,284.871359 769.335738,284.24527 C769.40856,283.410484 769.699848,282.436568 770.209602,281.532217 C770.792178,280.5583 771.520398,279.584383 772.394262,278.680032 C774.651743,276.24524 777.637445,274.366972 779.021063,274.436538 C779.31235,274.436538 778.147199,276.87133 778.074377,276.87133 C777.928733,277.219157 778.292843,277.984377 778.948241,278.540901 C779.530816,279.097425 780.186214,279.236556 780.40468,278.819163 C780.40468,278.819163 783.754492,272.210443 777.564623,272.001746 C775.889717,271.932181 772.612728,273.94958 770.209602,276.523502 C769.335738,277.497419 768.534696,278.471336 767.95212,279.514818 C767.369545,280.5583 767.005435,281.601782 767.005435,282.71483 C766.932613,284.24527 767.588011,285.775711 769.190094,287.16702 Z M784.816991,287.472914 C788.307229,293.919443 804.476294,277.874749 804.547523,277.803121 C804.832441,277.588236 805.259817,277.230096 804.689982,276.585443 C804.120147,275.94079 803.692771,276.084046 803.407853,276.298931 C803.407853,276.370559 788.948293,287.97431 787.666165,285.538955 C787.033319,284.381886 788.445052,281.495888 791.300856,276.692253 L791.577184,276.228961 C792.185272,275.212571 792.854037,274.114274 793.578202,272.93241 C793.72066,272.93241 793.863119,272.789154 793.863119,272.502641 L793.863119,272.502641 L793.863119,272.431013 C795.287706,270.138914 796.783523,267.775187 798.27934,265.483088 L798.27934,265.483088 L819.576918,265.483088 C820.075524,265.483088 820.146753,264.910063 819.719377,264.193782 C819.36323,263.549129 818.579707,262.976104 818.081101,262.976104 L818.081101,262.976104 L799.917615,262.976104 C805.473505,254.595617 810.673248,247.361179 810.673248,247.289551 C810.886936,247.003039 810.602019,246.21513 810.032184,245.642105 C809.462349,244.997452 808.750055,244.854196 808.536367,245.140708 C808.465138,245.212336 802.481872,253.592824 796.498606,262.976104 L796.498606,262.976104 L772.423082,262.976104 C771.924476,262.976104 771.853247,263.549129 772.280623,264.193782 C772.63677,264.910063 773.420293,265.483088 773.918899,265.483088 C773.918899,265.483088 774.648287,265.454437 775.814169,265.452144 L776.176736,265.452303 C781.052718,265.466069 792.122274,265.964429 792.011156,270.210542 C792.011156,270.210542 791.51255,270.998451 791.58378,270.998451 C787.025101,278.59103 783.74855,285.467327 784.816991,287.472914 Z M792.84,269 C791.688,267.415094 788.16,265.90566 786,265 L786,265 L795,265.377358 C794.28,266.584906 793.56,267.792453 792.84,269 Z M802.264658,279.229745 C798.360176,288.148959 804.110413,289.318692 811.13848,283.104486 C811.564424,286.248143 814.688009,286.833009 817.17268,285.590168 C820.012303,284.20111 822.709945,280.76502 824.626691,278.206229 C824.910653,277.913796 825.265606,277.475146 824.697681,276.890279 C824.058766,276.232305 823.774804,276.963388 823.490841,277.328929 C821.645086,279.814612 818.379519,282.519619 815.610887,283.908677 C811.883881,285.751007 813.374684,282.50646 814.921142,279.992704 L815.053712,279.779164 C815.671882,278.792265 816.275359,277.948888 816.533764,277.621363 C816.888717,277.328929 817.030698,277.109604 817.030698,277.109604 C817.314661,276.817171 817.030698,276.01298 816.462774,275.428113 C815.894849,274.770138 815.184943,274.550814 814.900981,274.843247 L814.900981,274.843247 L814.688009,275.13568 C810.854518,281.788536 805.388243,285.370843 804.536356,284.63976 C804.039422,284.20111 804.465366,279.814612 809.86065,273.454189 C810.073622,273.088647 809.86065,272.357564 809.292725,271.699589 C808.724801,271.114723 808.014895,270.82229 807.730932,271.114723 C805.885177,273.161756 803.542488,276.305413 802.264658,279.229745 Z M822.277162,286.86884 C823.818625,287.557419 826.411085,285.422824 828.93348,283.081656 C828.863413,286.455693 831.315741,287.419703 834.5388,285.767114 C836.430596,284.803103 839.16319,282.393077 843.787579,278.33046 C844.067846,278.055029 844.137912,277.504166 843.57738,276.884445 C843.016848,276.333581 842.456316,276.677871 842.17605,276.953303 C842.112211,276.984671 840.18713,278.559375 838.083356,280.108515 L837.774406,280.334854 L837.774406,280.334854 L837.464077,280.559735 C835.134366,282.238146 832.787138,283.701377 832.647005,282.875082 C832.226606,280.947061 833.067404,279.156755 833.207537,278.812466 C833.417736,278.468176 833.13747,277.848455 832.647005,277.297592 C832.016406,276.677871 831.385808,276.471297 831.105542,276.746729 C831.105542,276.746729 824.729489,284.045666 822.277162,284.734245 C823.047893,281.566782 824.51929,279.087897 827.111751,277.02216 C828.372948,275.989292 831.806207,274.40556 833.207537,275.71386 C833.487803,276.333581 834.188468,276.953303 834.749,277.091018 C835.309532,277.228734 835.519732,276.815587 835.239466,276.127008 C834.048335,272.13325 828.302881,272.270965 825.149888,274.818708 C823.328159,276.264724 821.716629,278.399318 820.805765,280.32734 C820.385366,281.222492 820.1051,282.117645 820.035033,282.94394 C819.8949,283.976808 820.175166,284.940819 820.875831,285.835971 L820.875831,285.835971 L821.105982,286.060083 C821.453735,286.392525 821.818544,286.699825 822.277162,286.86884 Z M855.037466,294.323869 C856.043697,295.601397 857.409296,296.169188 859.134264,295.956266 C860.787357,295.743345 862.368577,295.246528 863.734176,294.536791 C865.243523,293.685105 867.543479,292.194656 870.490298,289.923495 C873.437118,287.652334 876.312063,285.381173 879.043261,283.039038 C881.702586,280.696903 883.427553,278.993533 884.218163,277.857952 C884.290037,277.716004 884.218163,277.503083 884.074416,277.290162 C883.930669,277.07724 883.715048,276.864319 883.427553,276.722372 C883.211933,276.580424 883.068185,276.50945 882.996312,276.50945 C882.852564,276.50945 882.708817,276.580424 882.636943,276.722372 C882.56507,276.793345 882.493196,276.864319 882.421323,276.935293 C881.343218,277.9999 879.546377,279.632297 876.958926,281.903458 C874.299601,284.174619 871.640277,286.374806 868.837205,288.504019 C866.034133,290.633233 863.949797,292.123682 862.440451,292.975367 C860.356115,293.969 858.990516,294.252895 858.27178,293.827053 C857.48117,293.40121 857.193675,292.620499 857.409296,291.34297 C857.553044,290.065442 857.912412,288.716941 858.559274,287.297465 C859.206137,285.807016 859.781126,284.529487 860.427989,283.393907 C861.074852,282.258326 861.506094,281.548589 861.721715,281.406641 C861.793588,281.264694 862.871693,280.483982 864.812281,278.922559 C866.752869,277.361136 869.124699,275.444843 871.927771,273.031735 C874.730843,270.618626 877.390168,268.06357 879.905745,265.366567 C882.421323,262.669563 884.361911,260.114507 885.583763,257.843346 C886.805614,255.430237 887.236856,253.655893 886.877488,252.66226 C886.51812,251.526679 885.655636,250.745968 884.433784,250.391099 C883.715048,250.107204 882.924438,250.107204 882.133828,250.391099 C879.618251,251.100837 877.102673,253.088102 874.587096,256.494844 C874.299601,256.636791 873.005876,258.340162 870.705919,261.604956 C868.334089,264.86975 865.818512,268.702334 863.01544,273.244656 C861.218599,276.012634 859.637379,278.780611 858.343654,281.406641 C858.128033,281.548589 857.912412,281.76151 857.696791,281.974431 C855.037466,284.174619 852.306268,286.374806 849.431322,288.504019 C846.484503,290.633233 844.328294,292.123682 842.818948,292.975367 C842.531453,293.117315 842.100211,293.259263 841.453348,293.472184 C840.806486,293.614131 840.231497,293.756079 839.656507,293.827053 C839.009645,293.898027 838.578403,293.827053 838.362782,293.543158 C837.859667,292.336603 838.434656,289.994469 839.944002,286.44578 C841.453348,282.897091 843.609558,278.780611 846.340756,274.238289 C846.41263,274.238289 846.556377,274.167315 846.62825,274.167315 C846.700124,274.096342 847.778229,273.31563 849.718817,271.754207 C851.659405,270.192784 854.031235,268.205518 856.834307,265.792409 C859.637379,263.379301 862.296704,260.824245 864.812281,258.127241 C867.327858,255.430237 869.268447,252.946155 870.490298,250.674994 C871.71215,248.261885 872.071519,246.487541 871.71215,245.493908 C871.352782,244.358327 870.562172,243.577616 869.268447,243.151773 C868.621584,242.938852 867.830974,242.938852 866.96849,243.222747 C864.524786,243.932485 862.009209,245.919751 859.493632,249.326492 C859.134264,249.539413 857.624917,251.597653 854.821845,255.572185 C852.018773,259.546717 849.000081,264.230986 845.622019,269.624993 C842.243958,275.019001 839.440887,280.129113 837.284677,284.813383 C835.128468,289.497652 834.481606,292.620499 835.415963,294.323869 C836.35032,295.601397 837.715919,296.169188 839.440887,295.956266 C841.165854,295.743345 842.747074,295.246528 844.112673,294.536791 C845.622019,293.685105 847.921976,292.194656 850.868795,289.923495 C852.73751,288.504019 854.606224,287.084544 856.331192,285.594094 L856.331192,285.594094 L856.259318,285.948963 C854.534351,289.923495 854.103109,292.691472 855.037466,294.323869 Z M850,269 C853.09631,264.142857 855.760576,259.928571 858.064806,256.5 C860.369037,253.071429 861.593159,251.285714 861.737174,251.142857 C864.257426,247.857143 866.633663,245.857143 869.009901,245.142857 C869.369937,245 869.657966,245 869.945995,245 C870.162016,245.857143 869.729973,247.428571 868.649865,249.571429 C866.921692,252.714286 864.185419,256.071429 860.441044,259.714286 C856.69667,263.285714 853.240324,266.428571 850,269 Z M865,276 C868.095407,271.142857 870.758896,266.928571 873.062455,263.5 C875.366014,260.071429 876.589779,258.285714 876.733751,258.142857 C879.253269,254.857143 881.628813,252.857143 884.004358,252.142857 C884.364289,252 884.72422,252 884.940179,252 C885.156137,252.857143 884.796206,254.428571 883.716413,256.571429 C881.916758,259.714286 879.181282,263.071429 875.509986,266.714286 C871.766703,270.285714 868.239379,273.428571 865,276 Z M874.418031,310 C876.854251,310 882.228266,302.217211 887.029052,294.148816 C895.125901,293.006388 906.303851,292.720781 921.494399,294.006012 C922.067627,294.006012 922.139281,293.5062 921.781013,292.863585 C921.422746,292.149567 920.70621,291.578354 920.132982,291.506952 C906.87708,290.364524 896.558971,290.435926 888.748737,291.292747 C888.793338,291.214788 888.837864,291.136895 888.882312,291.059077 L889.148044,290.593102 C893.339912,283.230842 896.773932,276.653206 896.773932,276.58399 L896.773932,276.58399 L896.845586,276.512588 L898.421963,273.727921 C898.636924,273.370912 898.278656,272.656895 897.705428,272.085681 C897.060546,271.514467 896.487318,271.300262 896.200704,271.657271 L896.224588,271.630637 L896.228256,271.65537 C896.269357,272.719603 888.336623,283.886699 883.524086,283.109741 L883.374722,283.081548 C882.944801,282.795941 883.088108,281.225103 883.231415,280.939496 C884.162911,278.726042 885.954249,276.012776 888.247162,273.370912 C888.533776,273.013904 888.247162,272.299886 887.673934,271.657271 C887.100706,271.086057 886.384171,270.80045 886.097556,271.157459 C883.804644,273.870724 881.941652,276.655392 881.010156,278.940247 C880.508581,280.082675 880.221967,281.153701 880.293621,282.010522 C880.293621,283.509958 881.081809,284.723787 882.51488,285.509206 C883.016455,285.794813 883.518029,285.937617 884.162911,286.009019 C885.667635,286.151822 887.960548,284.652386 890.181807,282.724539 C888.677083,285.437805 886.885745,288.579481 885.022753,291.721157 C877.570787,292.863585 872.698347,294.72003 869.760552,296.79068 C867.825907,298.147313 866.751104,299.575347 866.249529,301.003382 C865.747954,302.57422 866.034569,304.21646 866.822757,305.644494 C868.255828,308.143555 871.121969,309.928598 874.418031,310 Z M872.610201,307 C870.589962,306.926966 869.002632,306.196629 868.353269,305.174157 C867.992512,304.44382 867.84821,303.494382 868.208966,302.325843 C868.641875,301.08427 869.651994,299.696629 871.455779,298.455056 C873.836774,296.702247 877.588646,295.168539 883,294 C878.81522,301.011236 874.558288,307 872.610201,307 Z M921.619206,287.591081 C923.78154,289.003088 926.73673,286.532076 929.115298,283.637462 C929.331531,284.908268 929.908154,286.108474 931.061398,286.885077 C933.151655,288.226484 935.241911,287.520481 937.692556,284.978868 C938.773723,283.849263 939.999046,282.296055 941.296446,280.460446 C941.656835,280.884048 942.089302,281.30765 942.665925,281.731252 C946.304373,283.869572 948.971359,281.131209 951.168419,278.756194 L951.363927,278.544616 C951.493447,278.404398 951.621345,278.266033 951.747728,278.130635 C952.036039,277.848233 952.180195,277.565832 951.603572,276.930429 C951.02695,276.365626 950.666561,276.506827 950.378249,276.789228 C949.080849,278.060034 944.395792,280.813448 942.521769,279.683842 C942.305536,279.542642 942.377613,279.18964 942.521769,278.695438 C943.602936,277.07163 944.756181,275.306621 946.053581,273.329811 L946.053581,273.329811 L946.053581,273.259211 C946.269815,272.906209 945.981503,272.129606 945.332803,271.564803 C944.756181,271 944.107481,270.858799 943.819169,271.141201 C943.819169,271.141201 942.882158,272.341407 942.017224,273.965214 C939.422423,277.989434 937.332167,280.954649 935.530222,282.790258 C933.512044,284.908268 932.142565,285.614271 931.133476,284.978868 C929.763998,284.061064 933.512044,277.424631 933.512044,277.424631 C933.728277,277.07163 933.367888,276.295026 932.791266,275.730223 C932.142565,275.16542 931.493865,275.02422 931.277632,275.377221 L931.277632,275.377221 L931.205554,275.518422 C930.484776,276.648028 924.141929,287.30868 921.547128,285.614271 C920.682195,285.084769 922.448101,282.137204 924.43925,279.322016 L924.679115,278.984992 C926.604222,276.296494 928.648234,273.824014 928.682831,273.824014 C928.899064,273.541612 928.610753,272.765009 928.034131,272.200206 C927.457508,271.564803 926.73673,271.353002 926.520497,271.635403 C925.151019,272.835609 923.13284,275.447822 921.907517,276.930429 C921.691284,277.14223 921.763362,277.636432 922.123751,278.060034 C920.105572,281.660652 918.808172,285.826072 921.619206,287.591081 Z M949.277162,286.86884 C950.818625,287.557419 953.411085,285.422824 955.93348,283.081656 C955.863413,286.455693 958.315741,287.419703 961.5388,285.767114 C963.430596,284.803103 966.16319,282.393077 970.787579,278.33046 C971.067846,278.055029 971.137912,277.504166 970.57738,276.884445 C970.016848,276.333581 969.456316,276.677871 969.17605,276.953303 C969.112211,276.984671 967.18713,278.559375 965.083356,280.108515 L964.774406,280.334854 L964.774406,280.334854 L964.464077,280.559735 C962.134366,282.238146 959.787138,283.701377 959.647005,282.875082 C959.226606,280.947061 960.067404,279.156755 960.207537,278.812466 C960.417736,278.468176 960.13747,277.848455 959.647005,277.297592 C959.016406,276.677871 958.385808,276.471297 958.105542,276.746729 C958.105542,276.746729 951.729489,284.045666 949.277162,284.734245 C950.047893,281.566782 951.51929,279.087897 954.111751,277.02216 C955.372948,275.989292 958.806207,274.40556 960.207537,275.71386 C960.487803,276.333581 961.188468,276.953303 961.749,277.091018 C962.309532,277.228734 962.519732,276.815587 962.239466,276.127008 C961.048335,272.13325 955.302881,272.270965 952.149888,274.818708 C950.328159,276.264724 948.716629,278.399318 947.805765,280.32734 C947.385366,281.222492 947.1051,282.117645 947.035033,282.94394 C946.8949,283.976808 947.175166,284.940819 947.875831,285.835971 C948.29623,286.249119 948.716629,286.662266 949.277162,286.86884 Z M964.763856,286.460902 C965.325515,286.945229 965.957381,287.152798 966.168003,286.87604 L966.168003,286.87604 L966.195993,286.848972 C966.584408,286.47661 970.192655,283.09128 973.816791,280.081512 L974.179139,279.781913 C976.291759,278.043017 978.373446,276.47035 979.78823,275.736522 C979.577608,276.290038 979.296779,276.843554 979.015949,277.397071 C977.682009,280.095463 976.137448,283.139804 979.296779,285.146301 C982.947561,287.498746 990.600163,278.573293 990.600163,278.573293 C990.880992,278.227346 991.302236,278.088966 990.67037,277.53545 C990.108711,276.912744 989.336431,277.812208 989.125808,278.088966 C989.055601,278.088966 981.473207,284.661974 979.226571,283.208993 C979.226571,283.208993 979.95078,281.829154 980.71856,280.332103 L980.854364,280.066958 C980.96768,279.845418 981.081073,279.622949 981.192377,279.403568 C981.683829,278.365725 982.17528,277.46626 982.385902,276.705175 C982.877354,274.975437 982.526317,273.660835 980.420096,273.038129 L980.420096,273.038129 L980.279682,273.038129 C978.909506,272.669862 975.495116,275.023999 972.094984,277.733804 L971.724216,278.030717 C971.415455,278.27913 971.10743,278.529771 970.801689,278.780862 L970.801689,278.780862 L972.556873,275.667332 C972.767495,275.321384 972.486665,274.560299 971.854799,274.006783 C971.29314,273.453266 970.591067,273.314887 970.380444,273.660835 L970.380444,273.660835 L964.061782,284.800353 C963.85116,285.146301 964.202197,285.838196 964.763856,286.460902 Z M985.816991,287.472914 C989.307229,293.919443 1005.47629,277.874749 1005.54752,277.803121 C1005.83244,277.588236 1006.25982,277.230096 1005.68998,276.585443 C1005.12015,275.94079 1004.69277,276.084046 1004.40785,276.298931 C1004.40785,276.370559 989.948293,287.97431 988.666165,285.538955 C988.033319,284.381886 989.445052,281.495888 992.300856,276.692253 L992.577184,276.228961 C993.185272,275.212571 993.854037,274.114274 994.578202,272.93241 C994.72066,272.93241 994.863119,272.789154 994.863119,272.502641 L994.863119,272.502641 L994.863119,272.431013 C996.287706,270.138914 997.783523,267.775187 999.27934,265.483088 L999.27934,265.483088 L1020.57692,265.483088 C1021.07552,265.483088 1021.14675,264.910063 1020.71938,264.193782 C1020.36323,263.549129 1019.57971,262.976104 1019.0811,262.976104 L1019.0811,262.976104 L1000.91761,262.976104 C1006.4735,254.595617 1011.67325,247.361179 1011.67325,247.289551 C1011.88694,247.003039 1011.60202,246.21513 1011.03218,245.642105 C1010.46235,244.997452 1009.75006,244.854196 1009.53637,245.140708 C1009.46514,245.212336 1003.48187,253.592824 997.498606,262.976104 L997.498606,262.976104 L973.423082,262.976104 C972.924476,262.976104 972.853247,263.549129 973.280623,264.193782 C973.63677,264.910063 974.420293,265.483088 974.918899,265.483088 C974.918899,265.483088 975.648287,265.454437 976.814169,265.452144 L977.176736,265.452303 C982.052718,265.466069 993.122274,265.964429 993.011156,270.210542 C993.011156,270.210542 992.51255,270.998451 992.58378,270.998451 C988.025101,278.59103 984.74855,285.467327 985.816991,287.472914 Z M993.84,269 C992.688,267.415094 989.16,265.90566 987,265 L987,265 L996,265.377358 C995.28,266.584906 994.56,267.792453 993.84,269 Z M1023.81699,287.472914 C1027.30723,293.919443 1043.47629,277.874749 1043.54752,277.803121 C1043.83244,277.588236 1044.25982,277.230096 1043.68998,276.585443 C1043.12015,275.94079 1042.69277,276.084046 1042.40785,276.298931 C1042.40785,276.370559 1027.94829,287.97431 1026.66616,285.538955 C1026.03332,284.381886 1027.44505,281.495888 1030.30086,276.692253 L1030.57718,276.228961 C1031.18527,275.212571 1031.85404,274.114274 1032.5782,272.93241 C1032.72066,272.93241 1032.86312,272.789154 1032.86312,272.502641 L1032.86312,272.502641 L1032.86312,272.431013 C1034.28771,270.138914 1035.78352,267.775187 1037.27934,265.483088 L1037.27934,265.483088 L1058.57692,265.483088 C1059.07552,265.483088 1059.14675,264.910063 1058.71938,264.193782 C1058.36323,263.549129 1057.57971,262.976104 1057.0811,262.976104 L1057.0811,262.976104 L1038.91761,262.976104 C1044.4735,254.595617 1049.67325,247.361179 1049.67325,247.289551 C1049.88694,247.003039 1049.60202,246.21513 1049.03218,245.642105 C1048.46235,244.997452 1047.75006,244.854196 1047.53637,245.140708 C1047.46514,245.212336 1041.48187,253.592824 1035.49861,262.976104 L1035.49861,262.976104 L1011.42308,262.976104 C1010.92448,262.976104 1010.85325,263.549129 1011.28062,264.193782 C1011.63677,264.910063 1012.42029,265.483088 1012.9189,265.483088 C1012.9189,265.483088 1013.64829,265.454437 1014.81417,265.452144 L1015.17674,265.452303 C1020.05272,265.466069 1031.12227,265.964429 1031.01116,270.210542 C1031.01116,270.210542 1030.51255,270.998451 1030.58378,270.998451 C1026.0251,278.59103 1022.74855,285.467327 1023.81699,287.472914 Z M1031.84,269 C1030.688,267.415094 1027.16,265.90566 1025,265 L1025,265 L1034,265.377358 C1033.28,266.584906 1032.56,267.792453 1031.84,269 Z M1042.78073,288.539936 C1043.72813,289.047928 1044.67553,289.120499 1045.62293,288.830217 C1046.42458,288.612506 1047.22623,288.031943 1048.10076,287.306238 C1049.19391,286.362823 1050.21419,284.911415 1051.08872,283.242295 C1051.74461,282.153739 1052.18187,280.847471 1052.47338,279.613774 C1054.73257,280.412049 1057.28327,280.121767 1060.70849,278.234936 C1061.07288,278.017225 1061.14575,277.509232 1060.63561,276.856098 C1060.0526,276.202965 1059.68821,276.493246 1059.32383,276.710958 C1056.77313,278.162366 1054.36818,277.872084 1052.76489,277.581803 C1052.91064,276.493246 1052.91064,275.40469 1052.76489,274.461275 C1052.61913,273.517859 1052.4005,272.647014 1051.96324,271.84874 C1051.4531,270.760183 1050.65145,269.889338 1049.70405,269.381345 C1049.12103,269.091064 1048.53802,268.945923 1047.88212,269.018493 C1047.0076,269.163634 1046.57034,269.889338 1046.42458,270.905324 C1046.3517,271.84874 1046.57034,273.155007 1047.15335,274.461275 C1047.73637,275.767542 1048.68377,277.07381 1049.99556,278.162366 C1049.70405,279.178352 1049.33967,280.194338 1048.82953,281.137753 C1047.955,282.806873 1047.0076,284.11314 1045.98732,284.983985 C1045.25855,285.709689 1044.4569,286.145112 1043.80101,286.362823 C1043.21799,286.507964 1042.78073,286.507964 1042.41634,286.362823 C1042.05196,285.637119 1042.34346,283.895429 1042.92648,282.008598 C1043.72813,279.758915 1044.96704,277.509232 1046.49746,276.130394 C1046.64321,275.985253 1046.86184,275.840113 1047.08048,275.694972 C1047.37198,275.40469 1047.22623,274.678986 1046.64321,274.025852 C1046.0602,273.372718 1045.33143,273.082437 1045.03992,273.300148 C1044.82129,273.445289 1044.60265,273.663 1044.38402,273.808141 C1042.78073,275.259549 1041.39606,277.654373 1040.59441,280.049197 C1039.79277,282.589161 1039.71989,285.274267 1040.88592,286.943386 C1041.03168,287.088527 1041.17743,287.233668 1041.32319,287.378809 C1041.76045,287.886802 1042.27059,288.249654 1042.78073,288.539936 Z M1049.86813,277 C1049.25275,276.557196 1048.81319,276.04059 1048.54945,275.450185 C1048.10989,274.638376 1047.93407,273.826568 1048.02198,273.162362 C1048.10989,272.498155 1048.37363,272.055351 1048.9011,272.055351 C1049.16484,271.98155 1049.42857,271.98155 1049.51648,272.055351 L1049.51648,272.055351 L1049.42857,272.055351 C1049.6044,272.424354 1049.78022,273.01476 1049.86813,273.678967 C1050.04396,274.638376 1050.04396,275.819188 1049.86813,277 Z M1078.68677,286.953406 C1079.54324,287.98096 1080.61384,288.20115 1081.75582,287.834167 C1082.46955,287.54058 1083.3974,286.953406 1084.468,286.146043 C1086.53782,284.678109 1089.10726,282.256018 1091.74807,279.32015 L1091.74807,279.32015 L1091.81944,279.466943 C1093.96064,284.017538 1100.81247,277.852216 1100.81247,277.852216 C1101.09797,277.558629 1101.09797,277.118249 1100.52698,276.457679 C1099.95599,275.797109 1099.09951,276.677869 1098.81402,276.898059 C1096.53008,278.806373 1094.17476,279.173357 1094.17476,279.09996 C1094.17476,277.558629 1097.02969,273.815398 1097.02969,273.742001 C1097.31518,273.448414 1096.60145,272.127274 1095.95909,271.5401 C1095.38811,270.87953 1095.03124,270.87953 1094.74575,271.246514 L1094.74575,271.246514 L1094.31751,271.907084 C1090.24923,277.485233 1085.5386,282.696398 1082.25543,285.118489 C1081.5417,285.852456 1080.54247,286.146043 1080.97071,285.118489 C1081.56394,283.623865 1082.73654,281.571481 1083.90962,279.677799 L1084.12943,279.324768 C1085.7028,276.81055 1087.2117,274.663749 1087.25156,274.622762 C1087.46568,274.329175 1087.25156,273.668605 1086.75194,273.081431 C1086.18096,272.420861 1084.89624,271.76029 1084.61075,272.053877 L1084.61075,272.053877 L1080.82796,275.870505 C1080.54247,276.090695 1080.68522,276.824662 1081.2562,277.485233 L1081.2562,277.485233 L1081.39895,277.632026 C1079.54324,280.567894 1077.68754,283.944142 1078.04441,285.558869 C1078.11578,286.072646 1078.3299,286.513026 1078.68677,286.953406 Z M1107.64722,269.351811 C1108.18831,269.915132 1108.86467,270.196793 1109.13521,269.844717 L1109.13521,269.844717 L1112.92282,265.338151 C1113.12573,264.986075 1112.92282,264.281924 1112.38173,263.648189 C1111.77301,263.084868 1111.16429,262.803207 1110.89374,263.155283 L1110.89374,263.155283 L1107.10614,267.661849 C1106.83559,268.013925 1107.10614,268.718076 1107.64722,269.351811 Z M1097.53878,285.6694 C1100.48412,290.85517 1111.43323,279.290902 1112.5826,278.121511 L1112.64199,278.061729 C1112.66501,278.039003 1112.67788,278.027212 1112.68004,278.027212 L1112.68004,278.027212 L1112.74878,277.958477 C1113.00859,277.69835 1113.20494,277.465329 1112.60794,276.862688 C1112.03113,276.207643 1111.52642,276.789905 1111.23802,277.081036 C1111.23802,277.153819 1103.23478,285.014355 1100.27863,284.577659 C1099.55761,284.213745 1099.48551,283.049221 1100.49493,281.011304 C1102.08116,277.954429 1104.6768,274.824771 1106.26303,273.441899 C1106.62354,273.150768 1106.40723,272.42294 1105.83042,271.767896 C1105.25361,271.112851 1104.5326,270.82172 1104.17209,271.112851 C1102.51377,272.495723 1099.84602,275.770947 1098.25979,278.900605 C1097.03407,281.375218 1096.52936,283.849831 1097.53878,285.6694 Z M1109.4317,288.555974 C1110.20894,288.973665 1111.19816,289.112895 1112.18737,288.90405 C1112.75264,288.764819 1113.3179,288.486358 1113.81251,288.138282 C1114.30712,287.720591 1114.80173,287.233284 1115.15502,286.606747 C1115.72028,285.423289 1115.93226,283.822139 1115.50831,281.803297 C1114.73107,278.600997 1116.7095,275.607542 1118.19332,273.936777 L1118.19332,273.936777 L1119.88912,272.335627 C1120.17175,272.057166 1119.88912,271.291398 1119.32386,270.734477 C1118.82925,270.10794 1118.12267,269.829479 1117.84003,270.10794 C1117.84003,270.10794 1117.83906,270.108704 1117.83715,270.110224 L1117.81454,270.128375 C1117.6804,270.236857 1117.03139,270.773152 1116.21489,271.639475 L1116.21489,271.639475 L1110.91552,277.97446 C1110.63289,278.252921 1109.14907,279.505995 1109.71433,280.132532 C1110.2796,280.689454 1111.1275,280.271762 1111.41013,279.993301 L1111.41013,279.993301 L1114.30712,276.721386 C1112.98817,279.103773 1113.07976,279.675306 1113.1856,280.23748 L1113.20799,280.358459 C1113.22958,280.480608 1113.24725,280.608236 1113.24725,280.759069 C1113.60054,282.360219 1113.38856,283.613293 1112.89395,284.587906 C1112.68198,285.075213 1112.25803,285.562519 1111.83408,285.84098 C1111.41013,286.189056 1110.91552,286.397902 1110.42092,286.467517 C1109.85565,286.606747 1109.29038,286.606747 1109.00775,286.467517 C1108.86643,286.397902 1109.85565,284.657521 1109.85565,284.587906 C1109.99697,284.23983 1109.71433,283.474062 1109.07841,282.917141 C1108.44248,282.360219 1107.80656,282.220988 1107.59459,282.569065 C1107.59459,282.57085 1107.59315,282.575152 1107.59041,282.581875 L1107.57844,282.609212 C1107.38628,283.033578 1105.61072,286.640663 1109.4317,288.555974 Z M1130.64722,269.351811 C1131.18831,269.915132 1131.86467,270.196793 1132.13521,269.844717 L1132.13521,269.844717 L1135.92282,265.338151 C1136.12573,264.986075 1135.92282,264.281924 1135.38173,263.648189 C1134.77301,263.084868 1134.16429,262.803207 1133.89374,263.155283 L1133.89374,263.155283 L1130.10614,267.661849 C1129.83559,268.013925 1130.10614,268.718076 1130.64722,269.351811 Z M1120.53878,285.6694 C1123.48412,290.85517 1134.43323,279.290902 1135.5826,278.121511 L1135.64199,278.061729 C1135.66501,278.039003 1135.67788,278.027212 1135.68004,278.027212 C1135.96845,277.736081 1136.25685,277.517732 1135.60794,276.862688 C1135.03113,276.207643 1134.52642,276.789905 1134.23802,277.081036 C1134.23802,277.153819 1126.23478,285.014355 1123.27863,284.577659 C1122.55761,284.213745 1122.48551,283.049221 1123.49493,281.011304 C1125.08116,277.954429 1127.6768,274.824771 1129.26303,273.441899 C1129.62354,273.150768 1129.40723,272.42294 1128.83042,271.767896 C1128.25361,271.112851 1127.5326,270.82172 1127.17209,271.112851 C1125.51377,272.495723 1122.84602,275.770947 1121.25979,278.900605 C1120.03407,281.375218 1119.52936,283.849831 1120.53878,285.6694 Z M1130.81699,287.472914 C1134.30723,293.919443 1150.47629,277.874749 1150.54752,277.803121 C1150.83244,277.588236 1151.25982,277.230096 1150.68998,276.585443 C1150.12015,275.94079 1149.69277,276.084046 1149.40785,276.298931 C1149.40785,276.370559 1134.94829,287.97431 1133.66616,285.538955 C1133.03332,284.381886 1134.44505,281.495888 1137.30086,276.692253 L1137.57718,276.228961 C1138.18527,275.212571 1138.85404,274.114274 1139.5782,272.93241 C1139.72066,272.93241 1139.86312,272.789154 1139.86312,272.502641 L1139.86312,272.502641 L1139.86312,272.431013 C1141.28771,270.138914 1142.78352,267.775187 1144.27934,265.483088 L1144.27934,265.483088 L1165.57692,265.483088 C1166.07552,265.483088 1166.14675,264.910063 1165.71938,264.193782 C1165.36323,263.549129 1164.57971,262.976104 1164.0811,262.976104 L1164.0811,262.976104 L1145.91761,262.976104 C1151.4735,254.595617 1156.67325,247.361179 1156.67325,247.289551 C1156.88694,247.003039 1156.60202,246.21513 1156.03218,245.642105 C1155.46235,244.997452 1154.75006,244.854196 1154.53637,245.140708 C1154.46514,245.212336 1148.48187,253.592824 1142.49861,262.976104 L1142.49861,262.976104 L1118.42308,262.976104 C1117.92448,262.976104 1117.85325,263.549129 1118.28062,264.193782 C1118.63677,264.910063 1119.42029,265.483088 1119.9189,265.483088 C1119.9189,265.483088 1120.64829,265.454437 1121.81417,265.452144 L1122.17674,265.452303 C1127.05272,265.466069 1138.12227,265.964429 1138.01116,270.210542 C1138.01116,270.210542 1137.51255,270.998451 1137.58378,270.998451 C1133.0251,278.59103 1129.74855,285.467327 1130.81699,287.472914 Z M1138.84,269 C1137.688,267.415094 1134.16,265.90566 1132,265 L1132,265 L1141,265.377358 C1140.28,266.584906 1139.56,267.792453 1138.84,269 Z" id="Thedentistyoullactuallywanttovisit"></path>
            </g>
        </g>
    </g>
</svg>