<?xml version="1.0" encoding="UTF-8"?>
<svg width="32px" height="32px" viewBox="0 0 32 32" version="1.1" xmlns="http://www.w3.org/2000/svg" xmlns:xlink="http://www.w3.org/1999/xlink">
    <title>61C2D732-3846-410D-8C5E-2BC47CD6285B</title>
    <g id="Page-1" stroke="none" stroke-width="1" fill="none" fill-rule="evenodd">
        <g id="Blog_2" transform="translate(-321.000000, -1803.000000)">
            <g id="Share" transform="translate(295.000000, 1684.000000)">
                <g id="Group-2" transform="translate(26.000000, 71.000000)">
                    <g id="facebook" transform="translate(0.000000, 48.000000)">
                        <circle id="Oval" fill="#A7958A" cx="16" cy="16" r="16"></circle>
                        <g id="Group-6" transform="translate(9.000000, 9.000000)" fill="#FFFFFF">
                            <path d="M12.1726611,5.0928 C11.4946189,5.04994286 10.8758189,5.07851429 10.0652926,5.14994286 C9.72619789,5.17851429 9.59371368,4.72137143 9.66739789,4.02137143 C9.77055579,2.80708571 9.91792421,1.94994286 10.0209347,1.24994286 C10.2273979,-0.0072 8.38529263,-0.221485714 7.98739789,0.749942857 C7.60424,1.67851429 6.54318737,4.96422857 4.49476632,5.87851429 C4.25897684,5.97851429 4.11160842,6.22137143 4.11160842,6.47851429 C4.11160842,7.54994286 4.11160842,10.2070857 4.09687158,11.3215143 C4.09687158,11.6213714 4.30318737,11.8785143 4.59792421,11.9643714 C5.74739789,12.2642286 8.60634526,12.9643714 10.6252926,12.9643714 C11.9368716,12.9643714 12.7031874,12.8642286 12.9831874,11.6786571 C13.2779242,10.4356571 13.6463453,8.60722857 13.9263453,7.1928 C14.2209347,5.67851429 13.5431874,5.17851429 12.1726611,5.0928" id="Fill-1"></path>
                            <path d="M1.68,11.4071143 C1.34105263,11.4071143 1.07578947,11.1499714 1.07578947,10.8214 C1.07578947,10.4928286 1.34105263,10.2356857 1.68,10.2356857 C2.01894737,10.2356857 2.28421053,10.4928286 2.28421053,10.8214 C2.28421053,11.1499714 2.01894737,11.4071143 1.68,11.4071143 M3.05052632,5.57854286 L0.324210526,5.57854286 C0.147368421,5.57854286 0,5.7214 0,5.89282857 L0,12.1071143 C0,12.2785429 0.147368421,12.4214 0.324210526,12.4214 L3.05052632,12.4214 C3.22736842,12.4214 3.37473684,12.2785429 3.37473684,12.1071143 L3.37473684,5.89282857 C3.37473684,5.7214 3.22736842,5.57854286 3.05052632,5.57854286" id="Fill-4"></path>
                        </g>
                    </g>
                </g>
            </g>
        </g>
    </g>
</svg>