<?xml version="1.0" encoding="UTF-8"?>
<svg width="40px" height="40px" viewBox="0 0 40 40" version="1.1" xmlns="http://www.w3.org/2000/svg" xmlns:xlink="http://www.w3.org/1999/xlink">
    <title>8B010B64-DCCC-4144-8A8B-AC6027A428B9@2x</title>
    <g id="Page-1" stroke="none" stroke-width="1" fill="none" fill-rule="evenodd" opacity="0.5">
        <g id="Blog_1" transform="translate(-1068.000000, -4936.000000)" fill="#55311B">
            <g id="Pagination" transform="translate(381.000000, 4854.000000)">
                <g id="&gt;" transform="translate(687.000000, 82.000000)">
                    <path d="M20,40 C8.954305,40 0,31.045695 0,20 C0,8.954305 8.954305,0 20,0 C31.045695,0 40,8.954305 40,20 C40,31.045695 31.045695,40 20,40 Z M20,37.6190476 C29.7307313,37.6190476 37.6190476,29.7307313 37.6190476,20 C37.6190476,10.2692687 29.7307313,2.38095236 20,2.38095236 C10.2692687,2.38095236 2.38095236,10.2692687 2.38095236,20 C2.38095236,29.7307313 10.2692687,37.6190476 20,37.6190476 Z" id="Oval"></path>
                    <path d="M17.003688,20.0633438 C17.0198128,20.1879043 17.0813263,20.3036203 17.1778765,20.3915128 L21.9558177,24.8137791 C22.1743994,25.0422628 22.5520401,25.0634528 22.7988901,24.8609499 C23.0457401,24.658447 23.0684344,24.3090879 22.8498527,24.0806042 C22.8329315,24.0629151 22.8146168,24.0461473 22.7955058,24.0306694 L18.440793,19.999958 L22.7955058,15.9692466 C23.0439484,15.768402 23.0694297,15.4192272 22.8524406,15.1892694 C22.6358496,14.9593116 22.258408,14.9355419 22.0099654,15.1363865 C21.9906554,15.1518644 21.9725398,15.1686322 21.9558177,15.186137 L17.1778765,19.6084032 C17.047683,19.7274359 16.9833826,19.8949292 17.003688,20.0633438" id="Fill-1" transform="translate(20.000000, 20.000000) scale(-1, 1) translate(-20.000000, -20.000000) "></path>
                </g>
            </g>
        </g>
    </g>
</svg>