<?xml version="1.0" encoding="UTF-8"?>
<svg width="32px" height="32px" viewBox="0 0 32 32" version="1.1" xmlns="http://www.w3.org/2000/svg" xmlns:xlink="http://www.w3.org/1999/xlink">
    <title>E506D9A4-0B3A-45BC-A37E-E4987859CC75</title>
    <g id="Page-1" stroke="none" stroke-width="1" fill="none" fill-rule="evenodd">
        <g id="Blog_2" transform="translate(-321.000000, -1899.000000)">
            <g id="Share" transform="translate(295.000000, 1684.000000)">
                <g id="Group-2" transform="translate(26.000000, 71.000000)">
                    <g id="Link" transform="translate(0.000000, 144.000000)">
                        <circle id="Oval" fill="#A7958A" cx="16" cy="16" r="16"></circle>
                        <g id="Group-6" transform="translate(10.000000, 9.000000)" fill="#FFFFFF">
                            <path d="M7.0609,4.74761 C7.32923333,4.47927667 7.76323333,4.47927667 8.03156667,4.74761 C9.36856667,6.08461 9.36856667,8.27094333 8.03156667,9.60794333 L8.03156667,9.60794333 L5.85923333,11.7802767 C4.52223333,13.1172767 2.3359,13.1172767 1.00123333,11.7802767 C-0.333433333,10.44561 -0.333433333,8.25694333 1.00123333,6.92227667 L1.00123333,6.92227667 L1.48656667,6.43461 C1.7549,6.16627667 2.1889,6.16627667 2.45723333,6.43461 C2.72556667,6.70294333 2.72556667,7.13927667 2.45723333,7.40761 L2.45723333,7.40761 L1.9719,7.89294333 C1.16923333,8.69794333 1.16923333,10.0069433 1.9719,10.80961 C2.77456667,11.6099433 4.0859,11.6099433 4.88623333,10.80961 L4.88623333,10.80961 L7.0609,8.63494333 C7.86356667,7.83461 7.86123333,6.52327667 7.0609,5.72061 C6.79256667,5.45227667 6.79256667,5.01594333 7.0609,4.74761 Z M6.92113333,1.00237667 C8.2558,-0.334623333 10.4444667,-0.334623333 11.7791333,1.00237667 C13.1114667,2.33704333 13.1114667,4.52571 11.7791333,5.86037667 L11.7791333,5.86037667 L11.2938,6.34571 C11.0254667,6.61404333 10.5891333,6.61404333 10.3208,6.34571 C10.0524667,6.07737667 10.0524667,5.64337667 10.3208,5.37504333 L10.3208,5.37504333 L10.8084667,4.88737667 C11.6111333,4.08471 11.6111333,2.77571 10.8084667,1.97304333 C10.0058,1.17037667 8.69446667,1.17037667 7.8918,1.97304333 L7.8918,1.97304333 L5.71946667,4.14537667 C4.9168,4.94804333 4.9168,6.25937667 5.71946667,7.06204333 C5.9878,7.33037667 5.9878,7.76437667 5.71946667,8.03271 C5.45113333,8.30104333 5.01713333,8.30104333 4.7488,8.03271 C3.4118,6.69804333 3.4118,4.50937667 4.74646667,3.17471 L4.74646667,3.17471 Z" id="Fill-5"></path>
                        </g>
                    </g>
                </g>
            </g>
        </g>
    </g>
</svg>