<?xml version="1.0" encoding="UTF-8"?>
<svg width="32px" height="32px" viewBox="0 0 32 32" version="1.1" xmlns="http://www.w3.org/2000/svg" xmlns:xlink="http://www.w3.org/1999/xlink">
    <title>284B231A-E938-4DB3-977E-559CAD9F4588</title>
    <g id="Page-1" stroke="none" stroke-width="1" fill="none" fill-rule="evenodd">
        <g id="Blog_2" transform="translate(-321.000000, -1851.000000)">
            <g id="Share" transform="translate(295.000000, 1684.000000)">
                <g id="Group-2" transform="translate(26.000000, 71.000000)">
                    <g id="mail" transform="translate(0.000000, 96.000000)">
                        <circle id="Oval" fill="#A7958A" cx="16" cy="16" r="16"></circle>
                        <path d="M16,17.75 C15.034875,17.75 14.25,16.965125 14.25,16 C14.25,15.034875 15.034875,14.25 16,14.25 C16.966,14.25 17.75,15.034875 17.75,16 C17.75,16.965125 16.966,17.75 16,17.75 M16,9 C12.140375,9 9,12.140375 9,16 C9,19.859625 12.140375,23 16,23 C16.825125,23 17.635375,22.857375 18.405375,22.575625 C18.860375,22.41025 19.093125,21.908 18.92775,21.453875 C18.7615,20.998 18.260125,20.767 17.806,20.9315 C17.227625,21.14325 16.6195,21.25 16,21.25 C13.104625,21.25 10.75,18.895375 10.75,16 C10.75,13.104625 13.104625,10.75 16,10.75 C18.895375,10.75 21.25,13.104625 21.25,16 C21.25,16.357875 21.214125,16.713125 21.13975,17.071875 C21.04,17.544375 20.575375,17.84275 20.10375,17.75 C19.875375,17.701875 19.679375,17.568 19.55075,17.372 C19.422125,17.176 19.378375,16.944125 19.425625,16.714875 C19.47375,16.483875 19.5,16.245 19.5,16 C19.5,14.06975 17.93025,12.5 16,12.5 C14.06975,12.5 12.5,14.06975 12.5,16 C12.5,17.93025 14.06975,19.5 16,19.5 C16.889,19.5 17.69225,19.156125 18.310875,18.608375 C18.683625,19.040625 19.178875,19.34425 19.74675,19.462375 C21.16075,19.759875 22.556375,18.8455 22.857375,17.4105 C22.951875,16.95025 23,16.475125 23,16 C23,12.140375 19.859625,9 16,9" id="Fill-1" fill="#FFFFFF"></path>
                    </g>
                </g>
            </g>
        </g>
    </g>
</svg>