<?xml version="1.0" encoding="UTF-8"?>
<svg width="40px" height="40px" viewBox="0 0 40 40" version="1.1" xmlns="http://www.w3.org/2000/svg" xmlns:xlink="http://www.w3.org/1999/xlink">
    <title>E8A3E90D-1E28-4CF6-B50D-99F07907FFB9@2x</title>
    <g id="Page-1" stroke="none" stroke-width="1" fill="none" fill-rule="evenodd" opacity="0.5">
        <g id="Blog_1" transform="translate(-1004.000000, -4936.000000)" fill="#55311B">
            <g id="Pagination" transform="translate(381.000000, 4854.000000)">
                <g id="..." transform="translate(623.000000, 82.000000)">
                    <path d="M20,40 C8.954305,40 0,31.045695 0,20 C0,8.954305 8.954305,0 20,0 C31.045695,0 40,8.954305 40,20 C40,31.045695 31.045695,40 20,40 Z M20,37.6190476 C29.7307313,37.6190476 37.6190476,29.7307313 37.6190476,20 C37.6190476,10.2692687 29.7307313,2.38095236 20,2.38095236 C10.2692687,2.38095236 2.38095236,10.2692687 2.38095236,20 C2.38095236,29.7307313 10.2692687,37.6190476 20,37.6190476 Z" id="Oval"></path>
                    <circle id="Oval" cx="14" cy="20" r="2"></circle>
                    <circle id="Oval-Copy" cx="20" cy="20" r="2"></circle>
                    <circle id="Oval-Copy-2" cx="26" cy="20" r="2"></circle>
                </g>
            </g>
        </g>
    </g>
</svg>