<?xml version="1.0" encoding="UTF-8"?>
<svg width="109px" height="87px" viewBox="0 0 109 87" version="1.1" xmlns="http://www.w3.org/2000/svg" xmlns:xlink="http://www.w3.org/1999/xlink">
    <title>E3B403E5-804B-4193-B5DA-CC5A09A90D2C</title>
    <g id="Page-1" stroke="none" stroke-width="1" fill="none" fill-rule="evenodd" opacity="0.100000001">
        <g id="Blog_2" transform="translate(-1125.000000, -6746.000000)" fill="#55311B" fill-rule="nonzero">
            <g id="Quotte-Copy-2" transform="translate(466.000000, 6590.000000)">
                <g id="down" transform="translate(0.000000, 156.000000)">
                    <path d="M756.568627,0 L758.647059,4.19277108 C739.629315,17.2319482 729.964706,30.0506605 729.54902,42.9759036 C729.964706,49.3840905 732.77056,53.1666614 738.901961,54.5060241 L751.372549,41.9277108 C755.633354,43.3949349 759.426453,46.0742559 762.803922,50.313253 C766.285311,53.8496571 768,58.8405492 768,64.9879518 C768,71.029016 765.609828,76.2300509 760.72549,80.7108434 C756.048996,84.846036 749.761804,87 742.019608,87 C734.17349,87 727.730418,84.320679 722.27451,78.6144578 C717.546053,73.6032341 715,66.1956995 715,56.6024096 C715,36.1448246 728.71751,17.2319702 756.568627,0 Z M700.568627,0 L702.647059,4.19277108 C683.629315,17.2319482 673.964706,30.0506605 673.54902,42.9759036 C673.964706,49.3840905 676.77056,53.1666614 682.901961,54.5060241 L695.372549,41.9277108 C699.633354,43.3949349 703.426453,46.0742559 706.803922,50.313253 C710.285311,53.8496571 712,58.8405492 712,64.9879518 C712,71.029016 709.609828,76.2300509 704.72549,80.7108434 C700.048996,84.846036 693.761804,87 686.019608,87 C678.17349,87 671.730418,84.320679 666.27451,78.6144578 C661.546053,73.6032341 659,66.1956995 659,56.6024096 C659,36.1448246 672.71751,17.2319702 700.568627,0 Z" id="“"></path>
                </g>
            </g>
        </g>
    </g>
</svg>