<?xml version="1.0" encoding="UTF-8"?>
<svg width="32px" height="32px" viewBox="0 0 32 32" version="1.1" xmlns="http://www.w3.org/2000/svg" xmlns:xlink="http://www.w3.org/1999/xlink">
    <title>F4F46488-2E87-473A-833F-CC6093B10F72</title>
    <g id="Page-1" stroke="none" stroke-width="1" fill="none" fill-rule="evenodd">
        <g id="Blog_2" transform="translate(-321.000000, -1755.000000)">
            <g id="Share" transform="translate(295.000000, 1684.000000)">
                <g id="twitter" transform="translate(26.000000, 71.000000)">
                    <circle id="Oval" fill="#A7958A" cx="16" cy="16" r="16"></circle>
                    <path d="M20.7885884,10.9558169 C20.2660134,10.3675627 19.5191573,10 18.6923077,10 C17.1073879,10 15.8211358,11.3564448 15.8211358,13.0293166 C15.8211358,13.2669251 15.8458067,13.4972285 15.8951486,13.7190734 C13.5080501,13.5925795 11.3919579,12.3880042 9.97450138,10.552882 C9.72704456,11.0019544 9.58574747,11.5229246 9.58574747,12.077729 C9.58574747,13.1281279 10.0926228,14.0554933 10.8637759,14.5987633 C10.3935332,14.584153 9.94983045,14.4465092 9.56182415,14.2212041 L9.56182415,14.2581141 C9.56182415,15.7264426 10.5520252,16.9513953 11.86706,17.2286053 C11.6263317,17.2997341 11.3721464,17.3354907 11.1101113,17.3354907 C10.9250794,17.3354907 10.7445331,17.3170357 10.5695939,17.2816635 C10.9351721,18.4847009 11.9952741,19.3609304 13.2523696,19.3843837 C12.2696446,20.1971741 11.0304915,20.6816187 9.68517876,20.6816187 C9.45342162,20.6816187 9.2242811,20.6677774 9,20.6400948 C10.2709262,21.4982538 11.7814594,22 13.4030118,22 C18.6867007,22 21.5750674,17.3847041 21.5750674,13.3811156 C21.5750674,13.2492391 21.5728246,13.1177469 21.5679652,12.9885617 C22.1290417,12.5614046 22.6164793,12.0281311 23,11.420653 C22.4856487,11.6613373 21.9316744,11.8243568 21.3507863,11.897408 C21.9440098,11.5229246 22.3993005,10.9292878 22.6138627,10.2218449 C22.0583932,10.5686457 21.4446106,10.8208644 20.7885884,10.9558169 Z" id="Twitter" fill="#FFFFFF"></path>
                </g>
            </g>
        </g>
    </g>
</svg>