<svg height="125" viewBox="0 0 85 125" width="85" xmlns="http://www.w3.org/2000/svg"><g fill="#fff" opacity=".7"><circle cx="33" cy="55" r="7"/><path d="m18.74 0h-12.485a3.839 3.839 0 0 0 -3.995 3.8l-2.26 24.937a4.059 4.059 0 0 0 3.993 4.063h1.245l3.075 20.936a2.3 2.3 0 0 0 2.438 2.264h3.5a2.3 2.3 0 0 0 2.434-2.264l3.073-20.936h1.242a4.06 4.06 0 0 0 4-4.064l-2.265-24.936a3.838 3.838 0 0 0 -3.995-3.8z" transform="translate(48 69)"/><circle cx="60.5" cy="59.5" r="6.5"/><path d="m40.336 65.434a4.6 4.6 0 0 0 -1.33-.21h-13.33a4.1 4.1 0 0 0 -4.267 4.056l-2.417 16.37a4.336 4.336 0 0 0 4.267 4.339h1.331l3.282 32.6a2.453 2.453 0 0 0 2.6 2.414h3.738a2.453 2.453 0 0 0 2.6-2.414l3.29-32.599h1.331a4.336 4.336 0 0 0 4.268-4.339l-.268-1.811v-44.718c4.82.72 8.747 3.186 10.474 6.44h1.9c2.062-3.892 7.285-6.658 13.4-6.658s11.335 2.767 13.4 6.658h.395a42.406 42.406 0 0 0 -39.05-42.208 3.451 3.451 0 0 0 -6.9 0 42.409 42.409 0 0 0 -39.05 42.209h.4c2.064-3.892 7.283-6.663 13.4-6.663s11.338 2.767 13.4 6.658h1.9c1.816-3.423 6.076-5.974 11.238-6.538v26.41"/></g></svg>