<?xml version="1.0" encoding="UTF-8"?>
<svg width="48px" height="33px" viewBox="0 0 48 33" version="1.1" xmlns="http://www.w3.org/2000/svg" xmlns:xlink="http://www.w3.org/1999/xlink">
    <title>cangour</title>
    <g id="Design" stroke="none" stroke-width="1" fill="none" fill-rule="evenodd">
        <g id="Map" transform="translate(-314.000000, -397.000000)" fill="#FFFFFF">
            <g id="♣️-Block_Map" transform="translate(23.000000, 316.000000)">
                <g id="Group-57" transform="translate(291.000000, 81.804196)">
                    <path d="M47.6731654,6.40978379 L45.2545719,4.73157056 L44.6633602,3.71447164 L42.7822319,2.74822766 C42.4060062,2.59566282 42.0297806,2.54480787 41.6535549,2.59566282 L41.5460619,1.68027379 C41.4923153,1.32428916 41.3310758,0.968304538 41.0623432,0.764884753 L40.3636384,0.154625398 C40.2023988,0.00206055876 39.9336662,-0.0487943875 39.7186801,0.0529155051 L39.6111871,0.103770451 C39.5574405,0.154625398 39.4499475,0.205480344 39.396201,0.25633529 C39.1812149,0.154625398 38.8587357,0.154625398 38.6974962,0.307190237 L38.5900031,0.358045183 C38.375017,0.510610022 38.267524,0.8157397 38.375017,1.07001443 L38.9124823,2.44309798 C39.0737218,2.84993755 39.4499475,3.20592218 39.8799197,3.40934196 L40.0949058,3.51105185 C40.0949058,3.51105185 40.0949058,3.5619068 40.0411592,3.5619068 L38.4287636,7.07089809 C37.9450449,7.83372229 37.0851005,8.34227175 36.0639166,8.34227175 L35.795184,8.34227175 L35.795184,8.34227175 L31.1192365,8.34227175 C23.1647512,8.34227175 16.661422,14.4448653 16.661422,22.0222523 L16.661422,24.9718392 C16.661422,27.8705711 14.1890819,30.1590437 11.1792767,30.1590437 L1.23617002,30.7184481 C0.537465225,30.7184481 0,31.2269976 0,31.8881119 L11.0717836,31.8881119 L13.0066584,31.8881119 C16.5539289,31.8881119 19.6712272,29.7522041 20.7461577,26.5483425 L21.7135951,23.7513205 C22.7885255,24.6158546 24.1859351,25.124404 25.6908377,25.124404 C26.0133169,25.124404 26.335796,25.124404 26.6582751,25.0735491 L27.1419938,25.7346634 L27.1419938,27.7180063 L26.228303,30.9218679 C26.1208099,31.3795624 26.4970356,31.8372569 27.0345008,31.8372569 L38.1600309,31.8372569 C38.1600309,31.5829822 38.0525379,31.3795624 37.8912983,31.2269976 L39.396201,31.2269976 C39.396201,30.9727229 39.2887079,30.7693031 39.1274684,30.6167382 C38.9662288,30.4641734 38.6974962,30.3624635 38.4287636,30.3624635 L37.5688192,30.3624635 L36.9776075,29.853914 L31.172983,29.853914 C30.7430108,29.853914 30.4205317,29.5487844 30.4205317,29.1419448 L30.4205317,24.8192744 L32.7853787,18.7675357 L36.4401422,16.7841928 L37.5688192,19.479505 L37.5688192,23.7004655 C38.1600309,23.7004655 38.6437497,23.3444809 38.8049892,22.8359314 C39.3424544,22.6833666 39.7724266,22.2256721 39.7724266,21.6662677 L39.7724266,15.9705137 C39.7724266,15.5636741 39.8261731,15.1568346 39.8799197,14.749995 C41.7073014,13.2752015 42.7822319,11.1392938 42.7822319,8.79996627 L42.7822319,8.54569154 C42.7822319,8.24056186 43.0509645,7.98628713 43.3734436,7.98628713 L44.9320928,7.98628713 L46.3295024,8.34227175 C46.6519815,8.44398164 46.9744606,8.29141681 47.1357002,8.03714207 L47.6194189,8.03714207 L47.8881515,7.47773766 C48.1031376,7.12175304 47.9956446,6.66405852 47.6731654,6.40978379 Z" id="cangour"></path>
                </g>
            </g>
        </g>
    </g>
</svg>