<?xml version="1.0" encoding="UTF-8"?>
<svg width="513px" height="433px" viewBox="0 0 513 433" version="1.1" xmlns="http://www.w3.org/2000/svg" xmlns:xlink="http://www.w3.org/1999/xlink">
    <title>Ballons_chat</title>
    <g id="Molecules" stroke="none" stroke-width="1" fill="none" fill-rule="evenodd">
        <g id="♣️-Block_Chat" transform="translate(-940.000000, -208.000000)">
            <g id="Ballons_chat" transform="translate(941.000000, 208.000000)">
                <g id="ballon_2" transform="translate(141.000000, 33.000000)">
                    <path d="M17.9400006,108 C8.03201186,108 1.00134405e-14,99.9679881 0,90.0599994 L0,17.9400006 C-1.21337867e-15,8.03201186 8.03201186,-1.73264567e-15 17.9400006,0 L334.059999,0 C343.967988,-5.37278169e-15 352,8.03201186 352,17.9400006 L352,18 L352,18 C352.22395,18.607711 352.340404,23.0709208 352.349362,31.3896292 L352.349362,33.5496292 C352.340404,42.5109208 352.22395,55.327711 352,72 C352.251658,92.5432796 356.918325,103.876613 366,106 C379.284859,109.36805 345.650644,106.091485 344,100 C342.287222,92.9852233 338.23748,108 330,108 L17.9400006,108 Z" id="Combined-Shape" fill="#CCCCCC" opacity="0.5"></path>
                    <text id="Hi.-I-need-a-dental" font-family="Roboto-Regular, Roboto" font-size="24" font-weight="normal" line-spacing="36" fill="#565960">
                        <tspan x="32" y="40">Hi. I need a dental implant.</tspan>
                        <tspan x="32" y="76">Can you help?</tspan>
                    </text>
                </g>
                <g id="ballon_3" transform="translate(242.000000, 297.000000)">
                    <path d="M18.5383868,108 C8.63039808,108 0.598386218,99.9679881 0.598386218,90.0599994 L0.598386218,17.9400006 C0.598386218,8.03201186 8.63039808,-1.73264567e-15 18.5383868,0 L237.766518,0 C247.674507,1.22273419e-14 255.706519,8.03201186 255.706519,17.9400006 L255.706519,18 L255.706519,18 C255.868824,18.607711 255.953223,23.0709208 255.959715,31.3896292 L255.959715,33.5496292 C255.953223,42.5109208 255.868824,55.327711 255.706519,72 C255.888905,92.5432796 259.27102,103.876613 265.852865,106 C275.48092,109.36805 251.104893,106.091485 249.908607,100 C248.66729,92.9852233 245.732283,108 239.76226,108 L18.5383868,108 Z" id="Combined-Shape" fill="#CCCCCC" opacity="0.5"></path>
                    <text id="Perfect,-let’s-book" font-family="Roboto-Regular, Roboto" font-size="24" font-weight="normal" line-spacing="36" fill="#565960">
                        <tspan x="30" y="40">Perfect, let’s book</tspan>
                        <tspan x="30" y="76">that in </tspan>
                        <tspan x="103.453125" y="76" font-family="AppleColorEmoji, Apple Color Emoji">☺️</tspan>
                    </text>
                </g>
                <g id="ballon_1" transform="translate(-0.000000, 165.000000)">
                    <path d="M34.9400006,0 L377.559999,0 C387.467988,-1.82006801e-15 395.5,8.03201186 395.5,17.9400006 L395.5,49.5 L395.5,49.5 L388.250246,81.1326766 C386.972831,86.706393 383.114861,91.3372624 377.863498,93.6002892 L344.44891,108 L344.44891,108 L34.9400006,108 C25.0320119,108 17,99.9679881 17,90.0599994 L17,17.9400006 C17,8.03201186 25.0320119,1.82006801e-15 34.9400006,0 Z" id="Rectangle" fill="#F05024" transform="translate(206.250000, 54.000000) scale(-1, 1) translate(-206.250000, -54.000000) "></path>
                    <path d="M112.285703,71.9475748 C112.346589,92.5258045 116.861576,103.907108 125.830663,106.091485 C139.284295,109.36805 105.650216,106.091485 103.968512,99.538354 C102.286808,92.9852233 98.2370821,108 89.8285624,108 C84.2228826,108 63.2628847,108 26.9485687,108 C10.5121406,102.358903 2.29392656,92.439129 2.29392656,78.2406791 C2.29392656,64.0422292 2.29392656,43.8367428 2.29392656,17.6242199 C1.95497135,20.118019 10.1940134,21.3649186 27.0110527,21.3649186 C43.828092,21.3649186 34.8244078,21.3649186 3.36797257e-12,21.3649186 L84.0851965,21.3649186 C102.609745,17.3545348 112.009914,16.1076352 112.285703,17.6242199 C112.561492,19.1408046 112.561492,37.2485896 112.285703,71.9475748 Z" id="Path-2" fill="#F05024" transform="translate(64.499739, 62.500000) scale(-1, 1) translate(-64.499739, -62.500000) "></path>
                    <text id="Absolutely,-may-I-of" font-family="Roboto-Regular, Roboto" font-size="24" font-weight="normal" line-spacing="36" fill="#FFFFFF">
                        <tspan x="49" y="40">Absolutely, may I offer you </tspan>
                        <tspan x="49" y="76">our Free Implant Cosultation?</tspan>
                    </text>
                </g>
                <path d="M308.781044,2.1591485 L305.329448,2.1591485 L305.329448,11.6776483 L303.421186,11.6776483 L303.421186,2.1591485 L300,2.1591485 L300,0.608210846 L308.781044,0.608210846 L308.781044,2.1591485 Z M309.708566,7.48859605 C309.708566,6.68271265 309.868219,5.95666821 310.187532,5.31044095 C310.506844,4.6642137 310.955395,4.16751314 311.533198,3.82032438 C312.111001,3.47313562 312.774958,3.29954384 313.525089,3.29954384 C314.635079,3.29954384 315.535982,3.65686414 316.227826,4.37151546 C316.919669,5.08616678 317.293461,6.03395253 317.349214,7.21490117 L317.356817,7.64825139 C317.356817,8.45920324 317.200965,9.18398059 316.889255,9.82260517 C316.577545,10.4612298 316.131528,10.9553961 315.551191,11.3051191 C314.970854,11.6548421 314.300561,11.829701 313.540294,11.829701 C312.379619,11.829701 311.45084,11.4432375 310.753928,10.670299 C310.057016,9.89736055 309.708566,8.86721374 309.708566,7.57982767 L309.708566,7.48859605 Z M311.556006,7.64825139 C311.556006,8.49468239 311.730865,9.15737216 312.080588,9.6363406 C312.430311,10.115309 312.916875,10.3547897 313.540294,10.3547897 C314.163713,10.3547897 314.64901,10.1115078 314.996199,9.62493664 C315.343387,9.13836553 315.516979,8.42625912 315.516979,7.48859605 C315.516979,6.6573704 315.338319,5.99848191 314.980993,5.5119108 C314.623668,5.02533969 314.138371,4.78205778 313.525089,4.78205778 C312.921943,4.78205778 312.442982,5.02153841 312.088191,5.50050684 C311.733399,5.97947528 311.556006,6.69538297 311.556006,7.64825139 Z M318.573239,7.50380132 C318.573239,6.23668905 318.867204,5.21921317 319.455144,4.45134313 C320.043085,3.6834731 320.831217,3.29954384 321.819564,3.29954384 C322.691337,3.29954384 323.395841,3.60364622 323.933097,4.21186011 L323.933097,0 L325.780537,0 L325.780537,11.6776483 L324.107957,11.6776483 L324.016726,10.8261531 C323.464265,11.4951883 322.726817,11.829701 321.804359,11.829701 C320.841354,11.829701 320.062091,11.4419704 319.466548,10.6664977 C318.871006,9.89102501 318.573239,8.83680342 318.573239,7.50380132 Z M320.420679,7.66345666 C320.420679,8.49975076 320.5816,9.15230379 320.903447,9.62113533 C321.225293,10.0899669 321.682714,10.3243791 322.275722,10.3243791 C323.030921,10.3243791 323.583374,9.98733231 323.933097,9.31322859 L323.933097,5.80081095 C323.593511,5.14191257 323.046126,4.81246832 322.290928,4.81246832 C321.692851,4.81246832 321.231629,5.04941476 320.907248,5.52331475 C320.582867,5.99721474 320.420679,6.71058824 320.420679,7.66345666 Z M332.622909,11.6776483 C332.541814,11.5205263 332.470857,11.2645735 332.410035,10.9097821 C331.822095,11.5230644 331.102386,11.829701 330.250887,11.829701 C329.42473,11.829701 328.750636,11.5940216 328.228586,11.1226559 C327.706536,10.6512901 327.445514,10.0684272 327.445514,9.37404967 C327.445514,8.49720798 327.771157,7.82438146 328.422453,7.35554992 C329.073749,6.88671839 330.005062,6.65230613 331.216422,6.65230613 L332.349214,6.65230613 L332.349214,6.11251901 C332.349214,5.68676929 332.230108,5.3459212 331.991891,5.08996452 C331.753673,4.83400784 331.391285,4.70603142 330.904714,4.70603142 C330.484032,4.70603142 330.139383,4.81120016 329.870755,5.0215408 C329.602127,5.23188144 329.467816,5.49923811 329.467816,5.82361885 L327.620375,5.82361885 C327.620375,5.37252689 327.769892,4.95058483 328.068931,4.55778003 C328.367969,4.16497523 328.774706,3.85707157 329.289154,3.63405981 C329.803601,3.41104805 330.377594,3.29954384 331.011151,3.29954384 C331.974156,3.29954384 332.742014,3.54155865 333.314749,4.02559554 C333.887484,4.50963243 334.181449,5.19006151 334.196655,6.06690319 L334.196655,9.77698936 C334.196655,10.5169829 334.300556,11.1074484 334.508363,11.5484034 L334.508363,11.6776483 L332.622909,11.6776483 Z M330.593006,10.347187 C330.957934,10.347187 331.301316,10.2584905 331.623163,10.0810948 C331.945009,9.90369906 332.187024,9.66548553 332.349214,9.36644703 L332.349214,7.81550938 L331.353269,7.81550938 C330.669029,7.81550938 330.154589,7.93461614 329.809934,8.17283325 C329.46528,8.41105035 329.292955,8.74809716 329.292955,9.18398378 C329.292955,9.53877522 329.410795,9.82133701 329.646477,10.0316776 C329.88216,10.2420183 330.197667,10.347187 330.593006,10.347187 Z M339.009123,9.03193107 L340.681703,3.45159655 L342.650786,3.45159655 L339.381652,12.9244805 C338.879876,14.3081671 338.028389,15 336.827167,15 C336.558539,15 336.262039,14.9543846 335.937658,14.8631526 L335.937658,13.4338571 L336.28738,13.456665 C336.753677,13.456665 337.104662,13.3717697 337.340345,13.2019767 C337.542359,13.0564398 337.708064,12.8261905 337.837464,12.5112235 L338.165231,11.6396351 L335.276229,3.45159655 L337.26812,3.45159655 L339.009123,9.03193107 Z" id="Today" fill="#565960"></path>
                <path d="M448,432.845758 L448,421.616967 L451.316195,421.616967 C452.308488,421.616967 453.188942,421.838044 453.957584,422.280206 C454.726225,422.722367 455.321335,423.34961 455.742931,424.161954 C456.164527,424.974297 456.375321,425.904879 456.375321,426.953728 L456.375321,427.51671 C456.375321,428.580982 456.163241,429.516705 455.739075,430.323907 C455.314908,431.131109 454.710801,431.753211 453.926735,432.190231 C453.14267,432.627252 452.244221,432.845758 451.231362,432.845758 L448,432.845758 Z M449.951157,423.190231 L449.951157,431.287918 L451.22365,431.287918 C452.246792,431.287918 453.032131,430.96787 453.579692,430.327763 C454.127252,429.687657 454.40617,428.768644 454.416452,427.570694 L454.416452,426.946015 C454.416452,425.7275 454.151674,424.796918 453.622108,424.154242 C453.092542,423.511565 452.323912,423.190231 451.316195,423.190231 L449.951157,423.190231 Z M461.812339,433 C460.624673,433 459.661957,432.625968 458.924165,431.877892 C458.186372,431.129816 457.817481,430.133682 457.817481,428.88946 L457.817481,428.658098 C457.817481,427.825189 457.978147,427.08098 458.299486,426.42545 C458.620824,425.76992 459.071977,425.259642 459.652956,424.894602 C460.233936,424.529561 460.881744,424.347044 461.596401,424.347044 C462.732653,424.347044 463.610537,424.709508 464.230077,425.434447 C464.849617,426.159387 465.159383,427.185083 465.159383,428.511568 L465.159383,429.267352 L459.706941,429.267352 C459.763496,429.956302 459.993571,430.501283 460.397172,430.902314 C460.800773,431.303344 461.30848,431.503856 461.920308,431.503856 C462.778925,431.503856 463.478146,431.156816 464.017995,430.462725 L465.028278,431.426735 C464.694086,431.925452 464.248075,432.312338 463.690231,432.587404 C463.132388,432.862469 462.50643,433 461.812339,433 Z M461.588689,425.8509 C461.074548,425.8509 460.659385,426.030847 460.343188,426.390746 C460.026991,426.750644 459.825193,427.251925 459.737789,427.894602 L463.308483,427.894602 L463.308483,427.755784 C463.267352,427.128532 463.100259,426.654243 462.807198,426.332905 C462.514137,426.011567 462.107972,425.8509 461.588689,425.8509 Z M468.606684,432.845758 L466.732648,432.845758 L466.732648,421 L468.606684,421 L468.606684,432.845758 Z M472.640103,432.845758 L470.766067,432.845758 L470.766067,424.501285 L472.640103,424.501285 L472.640103,432.845758 Z M470.650386,422.33419 C470.650386,422.046271 470.741644,421.807199 470.924165,421.616967 C471.106685,421.426734 471.367608,421.33162 471.706941,421.33162 C472.046274,421.33162 472.308482,421.426734 472.493573,421.616967 C472.678664,421.807199 472.771208,422.046271 472.771208,422.33419 C472.771208,422.616968 472.678664,422.852184 472.493573,423.039846 C472.308482,423.227507 472.046274,423.321337 471.706941,423.321337 C471.367608,423.321337 471.106685,423.227507 470.924165,423.039846 C470.741644,422.852184 470.650386,422.616968 470.650386,422.33419 Z M477.622108,430.470437 L479.388175,424.501285 L481.323907,424.501285 L478.431877,432.845758 L476.804627,432.845758 L473.88946,424.501285 L475.832905,424.501285 L477.622108,430.470437 Z M486.167095,433 C484.979429,433 484.016713,432.625968 483.27892,431.877892 C482.541127,431.129816 482.172237,430.133682 482.172237,428.88946 L482.172237,428.658098 C482.172237,427.825189 482.332903,427.08098 482.654242,426.42545 C482.97558,425.76992 483.426732,425.259642 484.007712,424.894602 C484.588692,424.529561 485.2365,424.347044 485.951157,424.347044 C487.087409,424.347044 487.965293,424.709508 488.584833,425.434447 C489.204373,426.159387 489.514139,427.185083 489.514139,428.511568 L489.514139,429.267352 L484.061697,429.267352 C484.118252,429.956302 484.348327,430.501283 484.751928,430.902314 C485.155529,431.303344 485.663236,431.503856 486.275064,431.503856 C487.13368,431.503856 487.832902,431.156816 488.372751,430.462725 L489.383033,431.426735 C489.048842,431.925452 488.602831,432.312338 488.044987,432.587404 C487.487144,432.862469 486.861186,433 486.167095,433 Z M485.943445,425.8509 C485.429303,425.8509 485.01414,426.030847 484.697943,426.390746 C484.381746,426.750644 484.179949,427.251925 484.092545,427.894602 L487.663239,427.894602 L487.663239,427.755784 C487.622108,427.128532 487.455014,426.654243 487.161954,426.332905 C486.868893,426.011567 486.462728,425.8509 485.943445,425.8509 Z M499.979434,424.347044 C501.115687,424.347044 501.99357,424.709508 502.613111,425.434447 C503.232651,426.159387 503.542416,427.185083 503.542416,428.511568 L503.542416,429.267352 L498.089974,429.267352 C498.14653,429.956302 498.376605,430.501283 498.780206,430.902314 C499.183807,431.303344 499.691514,431.503856 500.303342,431.503856 C501.161958,431.503856 501.86118,431.156816 502.401028,430.462725 L503.411311,431.426735 C503.077119,431.925452 502.631108,432.312338 502.073265,432.587404 C501.515421,432.862469 500.889464,433 500.195373,433 C499.007706,433 498.044991,432.625968 497.307198,431.877892 C496.569405,431.129816 496.200514,430.133682 496.200514,428.88946 L496.200514,428.658098 C496.200514,427.825189 496.361181,427.08098 496.682519,426.42545 C497.003858,425.76992 497.45501,425.259642 498.03599,424.894602 C498.616969,424.529561 499.264778,424.347044 499.979434,424.347044 Z M511.956298,421 L511.956298,432.845758 L510.25964,432.845758 L510.167095,431.982005 C509.606681,432.660672 508.858617,433 507.922879,433 C506.946011,433 506.15553,432.606688 505.551414,431.820051 C504.947298,431.033415 504.645244,429.964017 504.645244,428.611825 C504.645244,427.326472 504.943442,426.294348 505.539846,425.515424 C506.13625,424.7365 506.935728,424.347044 507.938303,424.347044 C508.822627,424.347044 509.537272,424.655524 510.082262,425.272494 L510.082262,421 L511.956298,421 Z M494.681234,424.347044 C494.948587,424.347044 495.169665,424.383033 495.344473,424.455013 L495.336761,426.213368 C495.089973,426.172236 494.835477,426.151671 494.573265,426.151671 C493.714649,426.151671 493.136248,426.480717 492.838046,427.138817 L492.838046,432.845758 L490.96401,432.845758 L490.96401,424.501285 L492.753213,424.501285 L492.799486,425.434447 C493.25193,424.709508 493.879173,424.347044 494.681234,424.347044 Z M508.416452,425.881748 C507.809766,425.881748 507.341904,426.122106 507.012853,426.602828 C506.683803,427.08355 506.51928,427.807193 506.51928,428.773779 C506.51928,429.622112 506.682518,430.284059 507.008997,430.75964 C507.335477,431.235221 507.799483,431.473008 508.401028,431.473008 C509.167099,431.473008 509.727505,431.131109 510.082262,430.447301 L510.082262,430.447301 L510.082262,426.884319 C509.737787,426.215935 509.182523,425.881748 508.416452,425.881748 Z M499.971722,425.8509 C499.457581,425.8509 499.042418,426.030847 498.726221,426.390746 C498.410024,426.750644 498.208227,427.251925 498.120823,427.894602 L501.691517,427.894602 L501.691517,427.755784 C501.650385,427.128532 501.483292,426.654243 501.190231,426.332905 C500.897171,426.011567 500.491005,425.8509 499.971722,425.8509 Z" id="Delivered" fill="#565960"></path>
            </g>
        </g>
    </g>
</svg>