<svg height="16" viewBox="0 0 16 16" width="16" xmlns="http://www.w3.org/2000/svg"><path d="m1426 211.116583c0 .487688-.3953.883417-.88301.883417h-4.07725v-6.196121h2.07982l.31162-2.41447h-2.39144v-1.541948c0-.699063.19439-1.175419 1.19681-1.175419l1.27875-.000436v-2.159948c-.22141-.0292-.9802-.095009-1.86321-.095009-1.84359 0-3.10577 1.125299-3.10577 3.19198v1.78078h-2.08504v2.41447h2.08504v6.196121h-7.66331c-.48771 0-.88301-.395729-.88301-.883417v-14.233166c0-.488124.3953-.883417.88301-.883417h14.23398c.48771 0 .88301.395293.88301.883417z" fill="#565960" fill-rule="evenodd" opacity=".5" transform="translate(-1410 -196)"/></svg>