<?xml version="1.0" encoding="UTF-8"?>
<svg width="16px" height="16px" viewBox="0 0 16 16" version="1.1" xmlns="http://www.w3.org/2000/svg" xmlns:xlink="http://www.w3.org/1999/xlink">
    <title>3CB67993-E965-4DCB-B32C-9F7A453601DE@2x</title>
    <g id="Design" stroke="none" stroke-width="1" fill="none" fill-rule="evenodd" opacity="0.5">
        <g id="Homepage" transform="translate(-1522.000000, -14649.000000)" fill="#565960">
            <g id="FOOTER" transform="translate(-99.000000, 11359.000000)">
                <g id="♣️-Block_Contact" transform="translate(99.000000, 3094.000000)">
                    <path d="M1536.09814,196 L1523.90186,196 C1522.85143,196 1522,196.849249 1522,197.897499 L1522,210.102501 C1522,211.150315 1522.85143,212 1523.90186,212 L1536.09814,212 C1537.14857,212 1538,211.150315 1538,210.102501 L1538,197.897499 C1538,196.849249 1537.14857,196 1536.09814,196 L1536.09814,196 Z M1533.5002,198.499741 C1533.5002,198.223931 1533.72408,198.000055 1533.99989,198.000055 L1535.49982,198.000055 C1535.77607,198.000055 1535.99995,198.223931 1535.99995,198.499741 L1535.99995,200.000109 C1535.99995,200.275919 1535.77607,200.499795 1535.49982,200.499795 L1533.99989,200.499795 C1533.72408,200.499795 1533.5002,200.275919 1533.5002,200.000109 L1533.5002,198.499741 L1533.5002,198.499741 Z M1530.01855,200.948859 C1531.71792,200.948859 1533.09566,202.323541 1533.09566,204.018547 C1533.09566,205.71399 1531.71792,207.088236 1530.01855,207.088236 C1528.31961,207.088236 1526.94188,205.71399 1526.94188,204.018547 C1526.94188,202.323541 1528.31961,200.948859 1530.01855,200.948859 L1530.01855,200.948859 Z M1536.50007,209.999945 C1536.50007,210.275755 1536.27619,210.500068 1535.99995,210.500068 L1524.00005,210.500068 C1523.72381,210.500068 1523.49993,210.275755 1523.49993,209.999945 L1523.49993,202.49985 L1525.49999,202.49985 C1525.23945,202.874724 1525.1513,203.574285 1525.1513,204.018547 C1525.1513,206.695906 1527.33508,208.874451 1530.01855,208.874451 C1532.70245,208.874451 1534.88623,206.695906 1534.88623,204.018547 C1534.88623,203.574285 1534.82296,202.885634 1534.50001,202.49985 L1536.50007,202.49985 L1536.50007,209.999945 L1536.50007,209.999945 Z" id="Instagram"></path>
                </g>
            </g>
        </g>
    </g>
</svg>