<svg height="16" viewBox="0 0 16 16" width="16" xmlns="http://www.w3.org/2000/svg"><path d="m1536.09814 196h-12.19628c-1.05043 0-1.90186.849249-1.90186 1.897499v12.205002c0 1.047814.85143 1.897499 1.90186 1.897499h12.19628c1.05043 0 1.90186-.849685 1.90186-1.897499v-12.205002c0-1.04825-.85143-1.897499-1.90186-1.897499zm-2.59794 2.499741c0-.27581.22388-.499686.49969-.499686h1.49993c.27625 0 .50013.223876.50013.499686v1.500368c0 .27581-.22388.499686-.50013.499686h-1.49993c-.27581 0-.49969-.223876-.49969-.499686zm-3.48165 2.449118c1.69937 0 3.07711 1.374682 3.07711 3.069688 0 1.695443-1.37774 3.069689-3.07711 3.069689-1.69894 0-3.07667-1.374246-3.07667-3.069689 0-1.695006 1.37773-3.069688 3.07667-3.069688zm6.48152 9.051086c0 .27581-.22388.500123-.50012.500123h-11.9999c-.27624 0-.50012-.224313-.50012-.500123v-7.500095h2.00006c-.26054.374874-.34869 1.074435-.34869 1.518697 0 2.677359 2.18378 4.855904 4.86725 4.855904 2.6839 0 4.86768-2.178545 4.86768-4.855904 0-.444262-.06327-1.132913-.38622-1.518697h2.00006z" fill="#565960" fill-rule="evenodd" opacity=".5" transform="translate(-1522 -196)"/></svg>