<svg height="13" viewBox="0 0 16 13" width="16" xmlns="http://www.w3.org/2000/svg"><path d="m1481.5587 198.240332c-.63482.375701-1.33629.648938-2.08603.795136-.59723-.637275-1.45078-1.035468-2.39575-1.035468-1.81133 0-3.28134 1.469482-3.28134 3.28176 0 .257409.0282.506904.08459.747236-2.72811-.137035-5.1465-1.441991-6.76645-3.430041-.28281.486496-.44429 1.05088-.44429 1.651918 0 1.137932.57928 2.142578 1.4606 2.731121-.53742-.015828-1.04451-.164942-1.48795-.409023v.039986c0 1.590689 1.13166 2.917721 2.63456 3.218032-.27512.077056-.56562.115793-.86508.115793-.21147 0-.41781-.019993-.61774-.058313.41781 1.30329 1.62935 2.252539 3.06603 2.277947-1.12311.880523-2.53929 1.405338-4.07679 1.405338-.26486 0-.52674-.014995-.78306-.044985 1.45249.929673 3.17881 1.473231 5.03201 1.473231 6.03851 0 9.3395-4.999904 9.3395-9.337125 0-.142866-.00257-.285316-.00812-.425266.64123-.462754 1.1983-1.040467 1.63661-1.698568-.58783.260741-1.22094.437346-1.88482.516484.67797-.40569 1.19831-1.048797 1.44352-1.815193" fill="#565960" fill-rule="evenodd" opacity=".5" transform="translate(-1466 -198)"/></svg>