<?xml version="1.0" encoding="UTF-8"?>
<svg width="89px" height="88px" viewBox="0 0 89 88" version="1.1" xmlns="http://www.w3.org/2000/svg" xmlns:xlink="http://www.w3.org/1999/xlink">
    <title>facespa</title>
    <defs>
        <rect id="path-1" x="0" y="0" width="88" height="88"></rect>
        <polygon id="path-3" points="0 0 66.2608193 0 66.2608193 49.104 0 49.104"></polygon>
    </defs>
    <g id="Design" stroke="none" stroke-width="1" fill="none" fill-rule="evenodd">
        <g id="Same-Day-Veneers" transform="translate(-1465.000000, -128.000000)">
            <g id="Group-21" transform="translate(0.982118, 128.000000)">
                <g id="Group-3" transform="translate(289.000000, 0.000000)">
                    <g id="facespa" transform="translate(1176.000000, 0.000000)">
                        <mask id="mask-2" fill="white">
                            <use xlink:href="#path-1"></use>
                        </mask>
                        <g id="Rectangle"></g>
                        <g id="Group-3" mask="url(#mask-2)">
                            <g transform="translate(8.297111, 19.448000)">
                                <mask id="mask-4" fill="white">
                                    <use xlink:href="#path-3"></use>
                                </mask>
                                <g id="Clip-2" stroke="none" fill="none"></g>
                                <path d="M26.5668864,19.1772934 C26.2583721,19.4552158 25.7962425,19.6102854 25.334113,19.6102854 C23.8861071,19.6102854 23.0542739,18.2494534 23.0542739,16.2077758 C23.0542739,14.2593117 23.7628725,13.4238262 25.1184525,12.8675517 L26.5668864,12.2794901 L26.5668864,19.1772934 Z M34.2078561,19.5793574 C34.0230043,19.6721414 33.7149179,19.7649254 33.3144057,19.7649254 C32.5749984,19.7649254 32.1432496,19.3010054 32.1432496,18.4036638 L32.1432496,10.1145301 C32.1432496,6.09346046 29.5553241,4.73262843 25.2729236,4.73262843 C21.7911198,4.73262843 18.4941678,6.24810046 18.4941678,8.87698051 C18.4941678,9.99081809 19.1719578,10.7640181 20.003791,11.0427997 L23.5780207,10.5784501 C23.3931689,9.99081809 23.2391257,8.87698051 23.2391257,8.0728525 C23.2391257,6.37181246 23.7628725,5.19654844 24.9644094,5.19654844 C26.1659462,5.19654844 26.5668864,6.30995646 26.5668864,7.91821249 L26.5668864,11.7541437 L22.2224407,13.2386877 C19.4492355,14.1665277 17.6007173,15.4345758 17.6007173,17.8783174 C17.6007173,19.3804732 18.2725168,20.4870083 19.2960481,21.1553968 C18.1159062,20.7524736 16.8210877,20.5243796 15.4321316,20.5243796 C14.1548569,20.5243796 12.9220835,20.7773879 11.8232422,21.2468921 C9.14374659,21.0608945 8.28795113,20.7464599 8.28795113,19.1150078 L8.28795113,10.8258741 L10.9683025,10.8258741 C13.1869522,10.8258741 13.711127,12.1248501 13.9263595,14.2283837 L14.3576804,14.2283837 L14.3576804,6.77387647 L13.9263595,6.77387647 C13.711127,8.90833807 13.1869522,10.2073141 10.9683025,10.2073141 L8.28795113,10.2073141 L8.28795113,0.61877479 L11.1227736,0.61877479 C14.0187854,0.61877479 15.6828797,1.76311081 17.2233115,6.24810046 L17.5622065,6.24810046 L17.4081633,-0.000214777785 L0,-0.000214777785 L0,0.464134787 C2.06417865,0.680630792 2.24903047,0.958982797 2.24903047,2.56723883 L2.24903047,19.1463654 C2.24903047,20.7546214 2.06417865,21.033403 0,21.249899 L0,21.713819 L10.90369,21.713819 C8.88914744,22.8963855 7.51345624,24.9067055 7.51345624,27.5145373 C7.51345624,35.3088231 18.6670385,32.587159 18.6670385,38.8041167 C18.6670385,41.0927887 16.8801375,42.3612663 14.5694898,42.3612663 C10.8412169,42.3612663 8.25286352,38.6185487 7.51345624,35.154183 L7.17456124,35.154183 L7.51345624,40.7835087 C8.96146216,41.9278447 11.6730501,42.8561143 14.5074446,42.8561143 C19.3756371,42.8561143 23.2583811,39.8865967 23.2583811,35.4325351 C23.2583811,27.1429718 11.9195192,29.3392894 11.9195192,24.3594517 C11.9195192,22.3491317 13.3987616,21.0196572 15.6169834,21.0196572 C18.5746126,21.0196572 20.7932623,23.6790357 21.5634782,27.3908253 L21.8715646,27.3908253 L21.7487579,22.3611592 L21.7496137,22.3611592 L21.7496137,21.8903663 C21.8249237,21.8933732 21.8993779,21.8989574 21.9759716,21.8989574 C24.0093416,21.8989574 25.673008,20.724123 26.5972671,19.5175014 C27.0290159,21.002475 28.3845959,22.023099 30.2023055,22.023099 C31.9275891,22.023099 33.4992575,21.033403 34.3315186,19.7339974 L34.2078561,19.5793574 Z M62.9253565,25.4260382 C61.0832567,25.4260382 59.5894658,26.9256167 59.5894658,28.7744238 C59.5894658,30.6240901 61.0832567,32.1228094 62.9253565,32.1228094 C64.7674562,32.1228094 66.2608193,30.6240901 66.2608193,28.7744238 C66.2608193,26.9256167 64.7674562,25.4260382 62.9253565,25.4260382 L62.9253565,25.4260382 Z M62.9253565,25.8555937 C64.5282614,25.8555937 65.8329215,27.1648791 65.8329215,28.7744238 C65.8329215,30.3839685 64.5282614,31.6932539 62.9253565,31.6932539 C61.3220237,31.6932539 60.0173635,30.3839685 60.0173635,28.7744238 C60.0173635,27.1648791 61.3220237,25.8555937 62.9253565,25.8555937 L62.9253565,25.8555937 Z M62.9253565,30.7576818 C63.826937,30.7576818 64.5719069,30.0953072 64.7101179,29.2293232 C64.7101179,29.2293232 63.496172,29.5231392 62.8817109,29.5231392 C62.2668219,29.5231392 61.140595,29.2293232 61.140595,29.2293232 C61.278806,30.0953072 62.023776,30.7576818 62.9253565,30.7576818 L62.9253565,30.7576818 Z M52.2814004,40.0107383 L52.2814004,33.112935 L50.8329666,33.700567 C49.4773866,34.257271 48.768788,35.092327 48.768788,37.0407911 C48.768788,39.0824687 49.6010491,40.4433007 51.0486271,40.4433007 C51.5107566,40.4433007 51.9733141,40.2886607 52.2814004,40.0107383 L52.2814004,40.0107383 Z M57.8577637,39.2371087 C57.8577637,40.1344503 58.2895125,40.5983703 59.0289197,40.5983703 C59.429432,40.5983703 59.7375184,40.5055863 59.9227981,40.4123727 L60.0460326,40.5670127 C59.2137716,41.8664183 57.6425311,42.8561143 55.9168196,42.8561143 C54.09911,42.8561143 52.74353,41.8354903 52.3122091,40.3509463 C51.3875221,41.5571383 49.7242836,42.7319728 47.6904857,42.7319728 C45.3182207,42.7319728 43.3156593,41.3097143 43.3156593,38.7113327 C43.3156593,36.2680206 45.1641775,34.999543 47.9369548,34.071703 L52.2814004,32.587159 L52.2814004,28.7516574 C52.2814004,27.1429718 51.8808882,26.0299933 50.6789234,26.0299933 C49.4773866,26.0299933 48.9536398,27.2052573 48.9536398,28.9062974 C48.9536398,29.7104254 49.107683,30.824263 49.2925348,31.411895 L45.718733,31.875815 C44.8864719,31.597463 44.2086819,30.824263 44.2086819,29.7104254 C44.2086819,27.0815453 47.5056339,25.5660733 50.9874377,25.5660733 C55.2702661,25.5660733 57.8577637,26.9269053 57.8577637,30.947975 L57.8577637,39.2371087 Z M36.7234669,35.061399 C36.7234669,30.824263 35.2446523,28.6279454 32.9031959,28.6279454 C32.2562146,28.6279454 31.6396139,28.7825854 31.0854864,29.1537214 L31.0854864,38.7422607 C31.0854864,40.9072207 31.794085,42.3303383 33.2420909,42.3303383 C35.4911214,42.3303383 36.7234669,39.1443247 36.7234669,35.061399 L36.7234669,35.061399 Z M33.5193687,48.701936 L33.5193687,49.104 L23.6597492,49.104 L23.6597492,48.701936 C24.8920946,48.609152 25.4162694,48.48544 25.4162694,47.4953144 L25.4162694,29.2155774 L23.6901299,27.4831798 L23.6901299,27.3594678 L31.0854864,25.5660733 L31.2087209,25.5660733 L31.0854864,28.8753694 C31.9785089,27.2671133 33.8886444,25.5660733 36.4158084,25.5660733 C40.1436534,25.5660733 42.4851098,28.5351614 42.4851098,33.1743615 C42.4851098,39.1752527 38.572413,42.8561143 33.6117946,42.8561143 C32.5022558,42.8561143 31.6396139,42.6082608 31.0854864,42.2066263 L31.0854864,47.372032 C31.0854864,48.361728 31.8552744,48.547296 33.5193687,48.701936 L33.5193687,48.701936 Z M55.5650876,10.9186581 L60.5873233,10.9186581 C60.5873233,7.64029004 59.9095333,5.22747644 58.2766755,5.22747644 C56.5201554,5.22747644 55.6579414,7.88771405 55.5650876,10.9186581 L55.5650876,10.9186581 Z M58.3999101,22.023099 C54.0246558,22.023099 50.5120433,18.9298694 50.5120433,13.7640342 C50.5120433,8.66091407 54.3019335,4.73262843 58.7696137,4.73262843 C63.2064853,4.73262843 65.4867523,7.73264449 65.4867523,11.3516501 L65.4867523,11.5372181 L55.5650876,11.5372181 C55.6271328,15.8675678 57.6296942,18.2494534 60.8342203,18.2494534 C62.6211212,18.2494534 64.2847876,17.5995358 65.4247071,16.0840638 L65.5479417,16.1459198 C64.9009603,19.7030694 62.128183,22.023099 58.3999101,22.023099 L58.3999101,22.023099 Z M39.7679592,11.1665117 C39.7679592,15.8057118 41.7700927,18.2494534 44.8826208,18.2494534 C46.6079044,18.2494534 48.0554825,17.5995358 49.1342126,16.0840638 L49.2574472,16.1459198 C48.6408466,19.7030694 46.0225403,22.023099 42.3554568,22.023099 C38.103865,22.023099 34.8069129,18.9298694 34.8069129,13.7640342 C34.8069129,8.69184207 38.689229,4.73262843 43.4033783,4.73262843 C46.4846699,4.73262843 49.0109781,6.06253246 49.0109781,8.53677251 C49.0109781,9.71246609 48.3019516,10.6093781 47.6241615,10.9186581 L44.6049152,10.9186581 C44.7593862,10.2382421 44.789767,9.71246609 44.789767,9.15576208 C44.789767,7.36150848 44.3892547,5.25840444 42.8796315,5.25840444 C41.0311133,5.25840444 39.7679592,8.10421005 39.7679592,11.1665117 L39.7679592,11.1665117 Z" id="Fill-1" stroke="none" fill="#55311B" fill-rule="evenodd" mask="url(#mask-4)"></path>
                            </g>
                        </g>
                    </g>
                </g>
            </g>
        </g>
    </g>
</svg>