<?xml version="1.0" encoding="UTF-8"?>
<svg width="89px" height="88px" viewBox="0 0 89 88" version="1.1" xmlns="http://www.w3.org/2000/svg" xmlns:xlink="http://www.w3.org/1999/xlink">
    <title>sameday</title>
    <defs>
        <rect id="path-1" x="0" y="0" width="88" height="88"></rect>
    </defs>
    <g id="Design" stroke="none" stroke-width="1" fill="none" fill-rule="evenodd">
        <g id="Same-Day-Veneers" transform="translate(-781.000000, -128.000000)">
            <g id="sameday" transform="translate(781.982118, 128.000000)">
                <mask id="mask-2" fill="white">
                    <use xlink:href="#path-1"></use>
                </mask>
                <g id="Rectangle"></g>
                <g id="SameDayCrown" mask="url(#mask-2)" fill="#A7958A">
                    <g transform="translate(12.947974, 15.509292)">
                        <path d="M59.8572853,12.9095892 C60.0046892,12.9258187 60.1524277,12.9569392 60.298995,13.0044564 C61.4613273,13.3799097 62.098962,14.6267357 61.7233582,15.7889006 L58.0686956,27.0970034 C57.6930918,28.2593357 56.4464164,28.8971378 55.2842514,28.5213499 C54.1219191,28.1457293 53.4842844,26.8990707 53.859905,25.7367384 L57.5145508,14.4286356 C57.8428214,13.4130379 58.8363335,12.7978233 59.8572853,12.9095892" id="Fill-3"></path>
                        <path d="M45.4118724,19.2434385 C45.6432681,19.268703 45.8743291,19.3312785 46.097359,19.4340095 L56.8901339,24.4084303 C57.9994275,24.9197427 58.484137,26.2333271 57.9728246,27.3426208 C57.4616962,28.4519145 56.1479277,28.9366239 55.0386341,28.4254788 L44.2458592,23.451058 C43.1365656,22.9397456 42.6516888,21.6259939 43.1630012,20.5167002 C43.5715827,19.6304365 44.4924805,19.1427153 45.4118724,19.2434385" id="Fill-4"></path>
                        <path d="M10.0996921,50.3766102 C18.9097927,57.8448503 31.0362296,59.0530267 40.8967293,54.3319197 C42.1382013,53.7376194 42.5459462,52.1688807 41.7508854,51.0453653 C41.1229382,50.1580977 39.945715,49.8565974 38.9674284,50.3305987 C34.9103918,52.2965415 30.4258672,53.0429305 25.9189224,52.549688 C12.7042734,51.1034234 3.1300485,39.1759231 4.57631312,25.9614414 C6.02257774,12.7467924 17.950078,3.17256748 31.1645597,4.6188321 C41.8591211,5.78919548 51.1954418,14.2680138 52.5295891,26.1344444 L57.0273316,26.626683 C55.3275858,5.6007996 33.2248677,-6.15687667 15.2497929,3.31880016 C-2.65300222,12.7569986 -5.33806175,37.289622 10.0996921,50.3766102" id="Fill-5"></path>
                    </g>
                </g>
                <path d="M31.7180145,52.2912547 C31.7180145,44.8867328 33.1628203,33.3122696 40.6274492,33.3122696 C48.0922503,33.3122696 49.537056,44.8867328 49.537056,52.2912547 C49.537056,56.5738319 31.7180145,56.5738319 31.7180145,52.2912547 Z" id="Fill-1" stroke="#55311B" stroke-width="2" fill="#FEFEFE" mask="url(#mask-2)"></path>
                <path d="M32.7703234,54.0563965 L32.377257,43.1298399 C35.3470973,41.7962097 38.3169375,41.1293945 41.2867777,41.1293945 C44.256618,41.1293945 46.8216085,41.7962097 48.9817492,43.1298399 L48.9817492,53.6945801 L40.6795031,55.5031876 L32.7703234,54.0563965 Z" id="Path-10" fill="#A7958A" opacity="0.5" mask="url(#mask-2)"></path>
            </g>
        </g>
    </g>
</svg>