<?xml version="1.0" encoding="UTF-8"?>
<svg width="89px" height="89px" viewBox="0 0 89 89" version="1.1" xmlns="http://www.w3.org/2000/svg" xmlns:xlink="http://www.w3.org/1999/xlink">
    <title>ultrathin</title>
    <g id="Design" stroke="none" stroke-width="1" fill="none" fill-rule="evenodd">
        <g id="Same-Day-Veneers" transform="translate(-408.000000, -240.000000)" fill="#55311B">
            <g id="Group-10" transform="translate(408.282117, 128.000000)">
                <g id="ultrathin" transform="translate(0.000000, 112.600000)">
                    <path d="M18.411632,61.3671875 C21.067882,61.3359375 23.3256945,60.4765625 25.1850695,58.7890625 C27.0756945,57.0859375 28.052257,54.6640625 28.114757,51.5234375 L28.114757,36.453125 C28.052257,33.296875 27.0756945,30.8671875 25.1850695,29.1640625 C23.3256945,27.4765625 21.067882,26.6328125 18.411632,26.6328125 C15.833507,26.6328125 13.614757,27.4765625 11.755382,29.1640625 C9.77100701,30.8671875 8.76319451,33.296875 8.73194451,36.453125 L8.73194451,51.5234375 C8.76319451,54.6640625 9.77100701,57.0859375 11.755382,58.7890625 C13.614757,60.4765625 15.833507,61.3359375 18.411632,61.3671875 Z M18.411632,56.46875 C15.286632,56.4375 13.692882,54.6953125 13.630382,51.2421875 L13.630382,36.7578125 C13.692882,33.3359375 15.286632,31.59375 18.411632,31.53125 C21.521007,31.59375 23.1225695,33.3359375 23.2163195,36.7578125 L23.2163195,51.2421875 C23.1225695,54.6953125 21.521007,56.4375 18.411632,56.46875 Z M34.946007,61.0859375 L34.946007,56.1875 L30.0475695,56.1875 L30.0475695,61.0859375 L34.946007,61.0859375 Z M45.3631945,61.3671875 C48.3788195,61.3359375 50.8475695,60.375 52.7694445,58.484375 C54.7225695,56.640625 55.714757,54.1171875 55.746007,50.9140625 C55.746007,49.4765625 55.4413195,48.1015625 54.8319445,46.7890625 C54.1913195,45.4765625 53.152257,44.3515625 51.714757,43.4140625 C53.121007,42.4609375 54.0975695,41.375 54.6444445,40.15625 C55.1131945,38.9375 55.3475695,37.671875 55.3475695,36.359375 C55.3163195,33.765625 54.4256945,31.515625 52.6756945,29.609375 C50.8475695,27.65625 48.3788195,26.6640625 45.2694445,26.6328125 C42.8163195,26.6640625 40.7069445,27.5390625 38.9413195,29.2578125 C37.1444445,30.9921875 36.121007,33.125 35.871007,35.65625 L40.7694445,35.65625 C41.0819445,34.25 41.6913195,33.2109375 42.5975695,32.5390625 C43.4569445,31.8671875 44.4100695,31.53125 45.4569445,31.53125 C46.9100695,31.5625 48.0975695,32.0234375 49.0194445,32.9140625 C49.9413195,33.8359375 50.417882,35.015625 50.449132,36.453125 C50.449132,37.875 49.9881945,39.03125 49.0663195,39.921875 C48.1444445,40.84375 46.8475695,41.3046875 45.1756945,41.3046875 L43.4881945,41.3046875 L43.4881945,45.640625 L45.5506945,45.640625 C47.0663195,45.640625 48.3163195,46.1015625 49.3006945,47.0234375 C50.3006945,47.9765625 50.8163195,49.3203125 50.8475695,51.0546875 C50.8163195,52.7578125 50.3006945,54.0703125 49.3006945,54.9921875 C48.3163195,55.9765625 47.105382,56.46875 45.667882,56.46875 C44.324132,56.46875 43.246007,56.1015625 42.433507,55.3671875 C41.636632,54.6640625 41.0194445,53.7421875 40.5819445,52.6015625 L35.683507,52.6015625 C36.214757,55.4453125 37.3788195,57.6171875 39.1756945,59.1171875 C40.9725695,60.6171875 43.0350695,61.3671875 45.3631945,61.3671875 Z" id="0.3" fill-rule="nonzero"></path>
                    <text id="mm" opacity="0.300000012" font-family="Roboto-Medium, Roboto" font-size="14" font-weight="400" line-spacing="21">
                        <tspan x="60.717882" y="59.4">mm</tspan>
                    </text>
                    <path d="M28.1138833,-0.000999999997 L28.114757,10.5234375 C28.052257,13.6640625 27.0756945,16.0859375 25.1850695,17.7890625 C23.3256945,19.4765625 21.067882,20.3359375 18.411632,20.3671875 C15.833507,20.3359375 13.614757,19.4765625 11.755382,17.7890625 C9.77100701,16.0859375 8.76319451,13.6640625 8.73194451,10.5234375 L8.73194451,10.5234375 L8.7318833,-0.000999999997 L13.6298833,-0.000999999997 L13.630382,10.2421875 C13.6911928,13.6019848 15.2016019,15.3420779 18.1616092,15.4624669 L18.411632,15.46875 C21.521007,15.4375 23.1225695,13.6953125 23.2163195,10.2421875 L23.2163195,10.2421875 L23.2158833,-0.000999999997 L28.1138833,-0.000999999997 Z M34.946007,15.1875 L34.946007,20.0859375 L30.0475695,20.0859375 L30.0475695,15.1875 L34.946007,15.1875 Z M54.9400783,-0.000908098303 C54.6765312,0.484848247 54.3670491,0.953900947 54.011632,1.40625 L54.011632,1.40625 L43.0194445,15.1875 L56.074132,15.1875 L56.074132,20.0859375 L36.5975695,20.0859375 L36.5975695,15.46875 L48.9598833,-0.000999999997 Z" id="Combined-Shape" fill-rule="nonzero" opacity="0.300000012"></path>
                    <path d="M18.411632,67.6762695 C21.067882,67.6762695 23.3256945,68.5200195 25.1850695,70.2075195 C27.0756945,71.9106445 28.052257,74.340332 28.114757,77.496582 L28.114757,77.496582 L28.1138833,87.9992695 L23.2158833,87.9992695 L23.2163195,77.8012695 C23.1251033,74.4718776 21.6064766,72.7326063 18.6604393,72.5834554 L18.411632,72.574707 C15.286632,72.637207 13.692882,74.3793945 13.630382,77.8012695 L13.630382,77.8012695 L13.6298833,87.9992695 L8.7318833,87.9992695 L8.73194451,77.496582 C8.76199258,74.4617263 9.69492759,72.0986184 11.5307495,70.4072583 L11.755382,70.2075195 C13.614757,68.5200195 15.833507,67.6762695 18.411632,67.6762695 Z M52.511632,67.9575195 L43.0468833,87.9992695 L37.7008833,87.9992695 L47.0506945,67.9575195 L52.511632,67.9575195 Z M54.7850695,82.605957 L54.7848833,87.9992695 L49.8858833,87.9992695 L49.886632,82.605957 L54.7850695,82.605957 Z" id="Combined-Shape" fill-rule="nonzero" opacity="0.300000012"></path>
                </g>
            </g>
        </g>
    </g>
</svg>