<?xml version="1.0" encoding="UTF-8"?>
<svg width="268px" height="198px" viewBox="0 0 268 198" version="1.1" xmlns="http://www.w3.org/2000/svg" xmlns:xlink="http://www.w3.org/1999/xlink">
    <title>Group 2</title>
    <defs>
        <polygon id="path-1" points="0 0 267.180723 0 267.180723 198 0 198"></polygon>
    </defs>
    <g id="Design" stroke="none" stroke-width="1" fill="none" fill-rule="evenodd" opacity="0.5">
        <g id="FaceSpa" transform="translate(-296.000000, -464.000000)">
            <g id="Group-3" transform="translate(296.000000, 464.000000)">
                <g id="Group-2" transform="translate(-0.000000, 0.000000)">
                    <mask id="mask-2" fill="white">
                        <use xlink:href="#path-1"></use>
                    </mask>
                    <g id="Clip-2"></g>
                    <path d="M107.124542,77.3277959 C105.880533,78.448451 104.017107,79.0737314 102.153681,79.0737314 C96.3149479,79.0737314 92.9607818,73.5865055 92.9607818,65.3539346 C92.9607818,57.4972247 95.8180344,54.1283313 101.284083,51.8852891 L107.124542,49.5140731 L107.124542,77.3277959 Z M137.934904,78.9490218 C137.189533,79.3231508 135.94725,79.6972798 134.332281,79.6972798 C131.3508,79.6972798 129.609877,77.8266346 129.609877,74.2083219 L129.609877,40.7843955 C129.609877,24.5704051 119.174694,19.0831792 101.90695,19.0831792 C87.8674185,19.0831792 74.5732572,25.1939535 74.5732572,35.7942763 C74.5732572,40.2855568 77.3062814,43.4032988 80.6604475,44.527418 L95.0726642,42.6550407 C94.3272939,40.2855568 93.7061521,35.7942763 93.7061521,32.5518246 C93.7061521,25.6927922 95.8180344,20.9538244 100.662941,20.9538244 C105.507848,20.9538244 107.124542,25.4433728 107.124542,31.9282762 L107.124542,47.3957407 L89.6066158,53.3818053 C78.4243368,57.1230957 70.9706344,62.2361926 70.9706344,72.0899894 C70.9706344,78.1470692 73.6795031,82.6089045 77.8066457,85.3040192 C73.0480088,83.6793292 67.8269664,82.7595953 62.2263372,82.7595953 C57.0760359,82.7595953 52.1051756,83.7797898 47.6743636,85.672952 C36.8699459,84.9229619 33.4191578,83.6550801 33.4191578,77.0766445 L33.4191578,43.6527182 L44.2270263,43.6527182 C53.1731945,43.6527182 55.2868023,48.8905247 56.1546755,57.3725151 L57.8938727,57.3725151 L57.8938727,27.314018 L56.1546755,27.314018 C55.2868023,35.920718 53.1731945,41.1585246 44.2270263,41.1585246 L33.4191578,41.1585246 L33.4191578,2.49505964 L44.8498935,2.49505964 C56.5273606,2.49505964 63.2374181,7.1093178 69.4488368,25.1939535 L70.8153489,25.1939535 L70.194207,-0.000866039445 L0,-0.000866039445 L0,1.87151124 C8.32330101,2.744479 9.06867124,3.86686612 9.06867124,10.3517695 L9.06867124,77.2030862 C9.06867124,83.6879896 8.32330101,84.8121088 0,85.6850766 L0,87.5557218 L43.9664918,87.5557218 C35.8433365,92.3241349 30.2961945,100.430264 30.2961945,110.945715 C30.2961945,142.374287 75.2703164,131.399835 75.2703164,156.468212 C75.2703164,165.696729 68.0650708,170.811558 58.7479428,170.811558 C43.7145842,170.811558 33.2776755,155.719954 30.2961945,141.750738 L28.9296824,141.750738 L30.2961945,164.449632 C36.1349281,169.06389 47.0687503,172.806913 58.4977606,172.806913 C78.127569,172.806913 93.7837948,160.833051 93.7837948,142.873125 C93.7837948,109.447467 48.0625773,118.303586 48.0625773,98.2235956 C48.0625773,90.1174664 54.0272646,84.7566823 62.9717075,84.7566823 C74.8976313,84.7566823 83.8437996,95.4799827 86.9495089,110.446876 L88.1917926,110.446876 L87.6966045,90.1659646 L87.7000553,90.1659646 L87.7000553,88.2676062 C88.0037247,88.2797307 88.3039432,88.3022478 88.6127888,88.3022478 C96.8118614,88.3022478 103.520194,83.565012 107.247045,78.6996024 C108.987967,84.6873991 114.454016,88.8028186 121.78349,88.8028186 C128.740279,88.8028186 135.077651,84.8121088 138.433543,79.5725702 L137.934904,78.9490218 Z M253.731276,102.524348 C246.303455,102.524348 240.280104,108.571035 240.280104,116.025902 C240.280104,123.484234 246.303455,129.527457 253.731276,129.527457 C261.159098,129.527457 267.180723,123.484234 267.180723,116.025902 C267.180723,108.571035 261.159098,102.524348 253.731276,102.524348 L253.731276,102.524348 Z M253.731276,104.256426 C260.194602,104.256426 265.455329,109.535803 265.455329,116.025902 C265.455329,122.516002 260.194602,127.795378 253.731276,127.795378 C247.266225,127.795378 242.005498,122.516002 242.005498,116.025902 C242.005498,109.535803 247.266225,104.256426 253.731276,104.256426 L253.731276,104.256426 Z M253.731276,124.022911 C257.366681,124.022911 260.370592,121.352045 260.927895,117.860174 C260.927895,117.860174 256.032952,119.044916 253.555286,119.044916 C251.075895,119.044916 246.534657,117.860174 246.534657,117.860174 C247.09196,121.352045 250.095871,124.022911 253.731276,124.022911 L253.731276,124.022911 Z M210.812099,161.333622 L210.812099,133.519899 L204.97164,135.889383 C199.505591,138.134157 196.648339,141.501319 196.648339,149.358029 C196.648339,157.5906 200.00423,163.077825 205.841238,163.077825 C207.704664,163.077825 209.569815,162.454277 210.812099,161.333622 L210.812099,161.333622 Z M233.297434,158.214148 C233.297434,161.832461 235.038357,163.703106 238.019838,163.703106 C239.634807,163.703106 240.87709,163.328977 241.624186,162.953116 L242.121099,163.576664 C238.765208,168.816203 232.429561,172.806913 225.471047,172.806913 C218.141573,172.806913 212.675524,168.691493 210.936327,162.705428 C207.20775,167.569106 200.501144,172.306342 192.300346,172.306342 C182.734761,172.306342 174.659917,166.571429 174.659917,156.094083 C174.659917,146.242019 182.113619,141.12719 193.294173,137.385899 L210.812099,131.399835 L210.812099,115.934102 C210.812099,109.447467 209.19713,104.95965 204.350498,104.95965 C199.505591,104.95965 197.393709,109.698618 197.393709,116.557651 C197.393709,119.800102 198.014851,124.291383 198.760221,126.660867 L184.34973,128.531512 C180.993838,127.409125 178.260814,124.291383 178.260814,119.800102 C178.260814,109.19978 191.554975,103.089005 205.594507,103.089005 C222.863976,103.089005 233.297434,108.576231 233.297434,124.790222 L233.297434,158.214148 Z M148.078495,141.376609 C148.078495,124.291383 142.115534,115.435264 132.674177,115.435264 C130.065381,115.435264 127.579088,116.058812 125.344703,117.555328 L125.344703,156.218793 C125.344703,164.948471 128.201956,170.686848 134.040689,170.686848 C143.109361,170.686848 148.078495,157.840019 148.078495,141.376609 L148.078495,141.376609 Z M135.158745,196.378774 L135.158745,198 L95.4022144,198 L95.4022144,196.378774 C100.371349,196.004645 102.484957,195.505806 102.484957,191.513365 L102.484957,117.804747 L95.5247174,110.819273 L95.5247174,110.320435 L125.344703,103.089005 L125.841617,103.089005 L125.344703,116.432941 C128.945601,109.948038 136.64776,103.089005 146.837937,103.089005 C161.86957,103.089005 171.310927,115.061135 171.310927,133.767587 C171.310927,157.964729 155.533923,172.806913 135.53143,172.806913 C131.057483,172.806913 127.579088,171.807503 125.344703,170.188009 L125.344703,191.016258 C125.344703,195.006968 128.448687,195.755226 135.158745,196.378774 L135.158745,196.378774 Z M224.052773,44.0268472 L244.303723,44.0268472 C244.303723,30.8076211 241.570699,21.078534 234.986595,21.078534 C227.903852,21.078534 224.427183,31.8052986 224.052773,44.0268472 L224.052773,44.0268472 Z M235.483508,88.8028186 C217.841354,88.8028186 203.677594,76.3301185 203.677594,55.5001378 C203.677594,34.9230406 218.959409,19.0831792 236.974249,19.0831792 C254.86486,19.0831792 264.059485,31.1800181 264.059485,45.7727827 L264.059485,46.5210408 L224.052773,46.5210408 C224.302955,63.9821281 232.377799,73.5865055 245.299275,73.5865055 C252.504521,73.5865055 259.212853,70.9658702 263.809303,64.8550959 L264.306216,65.1045152 C261.697421,79.4478605 250.516867,88.8028186 235.483508,88.8028186 L235.483508,88.8028186 Z M160.354674,45.0262567 C160.354674,63.7327087 168.427793,73.5865055 180.97831,73.5865055 C187.935099,73.5865055 193.772107,70.9658702 198.121825,64.8550959 L198.618739,65.1045152 C196.132446,79.4478605 185.574759,88.8028186 170.788132,88.8028186 C153.644617,88.8028186 140.350455,76.3301185 140.350455,55.5001378 C140.350455,35.0477503 156.004956,19.0831792 175.013622,19.0831792 C187.438185,19.0831792 197.624912,24.4456954 197.624912,34.4224698 C197.624912,39.1631697 194.765934,42.7797504 192.032909,44.0268472 L179.858529,44.0268472 C180.481396,41.2832343 180.603899,39.1631697 180.603899,36.9183955 C180.603899,29.6835019 178.98893,21.2032437 172.90174,21.2032437 C165.448038,21.2032437 160.354674,32.6782663 160.354674,45.0262567 L160.354674,45.0262567 Z" id="Fill-1" fill="#FFFFFF" mask="url(#mask-2)"></path>
                </g>
            </g>
        </g>
    </g>
</svg>